<!-- Generator: Adobe Illustrator 18.1.1, SVG Export Plug-In  -->
<svg version="1.1"
	 xmlns="http://www.w3.org/2000/svg" xmlns:xlink="http://www.w3.org/1999/xlink" xmlns:a="http://ns.adobe.com/AdobeSVGViewerExtensions/3.0/"
	 x="0px" y="0px" width="37.21px" height="5.61px" viewBox="0 0 37.21 5.61" enable-background="new 0 0 37.21 5.61"
	 xml:space="preserve">
<defs>
</defs>
<path fill="#868789" d="M11.23,2.07c-0.08-0.1-0.15-0.2-0.22-0.29c0.29-0.12,0.53-0.23,0.77-0.33c0.03-0.01,0.06-0.03,0.08-0.02
	c0.31,0.1,0.62,0.2,0.92,0.32c0.04,0.02,0.05,0.15,0.05,0.23c-0.01,0.61-0.02,1.21-0.03,1.82c0,0.03,0,0.06,0,0.09
	c0,0.16,0,0.32,0.18,0.39c0.1,0.04,0.36-0.16,0.41-0.32c0.03-0.1,0.04-0.21,0.04-0.31c0-0.89,0.01-1.77,0-2.66
	c0-0.17-0.07-0.33-0.1-0.52c0.16-0.01,0.29,0.22,0.49,0.08c0.15-0.1,0.31-0.18,0.49-0.25C14,0.74,14.08,1.22,14.07,1.68
	c0,0.65,0,1.29,0,1.94c0,0.43,0.31,0.7,0.79,0.63c-0.2,0.25-0.42,0.4-0.61,0.57c-0.28-0.15-0.55-0.28-0.8-0.43
	c-0.16-0.09-0.27-0.04-0.39,0.06c-0.09,0.08-0.19,0.17-0.28,0.25c-0.17,0.14-0.26,0.14-0.38-0.04c-0.11-0.16-0.17-0.34-0.28-0.56
	c-0.32,0.25-0.64,0.49-0.99,0.76c-0.16-0.19-0.31-0.37-0.49-0.58c-0.18,0.16-0.36,0.31-0.54,0.47C9.9,4.91,9.84,4.92,9.7,4.71
	C9.59,4.56,9.52,4.38,9.41,4.17C9.09,4.41,8.78,4.64,8.47,4.87C8.18,4.72,8.1,4.45,8.01,4.14C7.64,4.3,7.42,4.65,7.09,4.83
	C6.86,4.68,6.63,4.54,6.41,4.39c-0.14-0.1-0.26-0.08-0.39,0.03C5.82,4.58,5.63,4.81,5.41,4.84C5.21,4.87,4.97,4.69,4.75,4.6
	C4.69,4.58,4.62,4.57,4.56,4.54C4.19,4.36,3.87,4.39,3.59,4.72c-0.2,0.22-0.27,0.19-0.45-0.05C2.93,4.41,2.88,4.1,2.88,3.78
	C2.89,3.2,2.84,3.29,2.4,3.29c-0.38,0-0.75,0.01-1.13,0C1.1,3.28,1,3.33,0.91,3.47C0.74,3.72,0.56,3.96,0.39,4.2
	c-0.1,0.14-0.17,0.28-0.11,0.46c0.04,0.12,0.02,0.22-0.14,0.22c-0.14,0-0.15-0.12-0.13-0.21c0.05-0.17,0.12-0.35,0.21-0.5
	c0.15-0.25,0.33-0.49,0.5-0.74C0.9,3.17,0.9,3.15,0.69,2.93c-0.22-0.23-0.41-0.48-0.5-0.8c-0.24-0.81,0.25-1.72,1.05-2.01
	C1.9-0.11,2.5,0.03,3.09,0.37c0.07,0.04,0.13,0.08,0.19,0.12C3.52,0.33,3.77,0.16,4.01,0c0.01,0.02,0.03,0.03,0.05,0.04
	C4.02,0.1,3.98,0.16,3.93,0.21C3.66,0.49,3.52,0.82,3.54,1.23C3.58,2.07,3.6,2.92,3.63,3.77c0,0.09,0.02,0.2,0.06,0.28
	c0.04,0.08,0.14,0.19,0.17,0.18c0.1-0.03,0.21-0.11,0.26-0.2c0.05-0.08,0.03-0.21,0.03-0.31c0-0.49,0.01-0.98,0-1.47
	c0-0.17,0.04-0.29,0.21-0.37c0.18-0.09,0.34-0.22,0.5-0.35C4.98,1.43,5.07,1.41,5.19,1.5c0.16,0.12,0.34,0.22,0.53,0.35
	C5.63,1.99,5.54,2.12,5.44,2.28C5.23,2.17,5.03,2.07,4.81,1.95c-0.02,0.1-0.04,0.17-0.04,0.24c0,0.53,0,1.06-0.01,1.59
	c0,0.17,0.06,0.27,0.22,0.33C5.2,4.18,5.41,4.26,5.63,4.33c0.33,0.1,0.74-0.18,0.74-0.54c0.01-0.57,0-1.14,0.01-1.71
	c0-0.17-0.08-0.24-0.27-0.29c0.29-0.39,0.57-0.74,0.83-1.1c0.02,0,0.04,0,0.07,0c0.02,0.14,0.04,0.28,0.05,0.43
	c0.01,0.36,0,0.36,0.36,0.39c0.04,0,0.07,0.02,0.11,0.02c0.04,0.28,0.05,0.3-0.21,0.3C7.13,1.84,7.07,1.93,7.07,2.1
	c0,0.57,0.01,1.14,0,1.71c0,0.28,0.21,0.37,0.4,0.52C7.62,4.21,7.79,4.1,7.93,3.96C8,3.89,8.03,3.77,8.03,3.67
	c0.01-0.47,0-0.95,0-1.42c0-0.03,0.01-0.06,0-0.08c-0.2-0.37,0.1-0.53,0.32-0.75c0.16,0.13,0.32,0.26,0.49,0.4
	C8.62,1.99,8.63,2.21,8.63,2.44c0,0.45,0,0.91,0,1.36c0,0.12,0.02,0.25,0.07,0.36c0.08,0.18,0.2,0.21,0.36,0.08
	c0.49-0.37,0.41-0.2,0.41-0.79c0.01-0.39,0-0.79,0-1.18c0-0.09,0-0.18-0.03-0.25C9.35,1.77,9.37,1.75,9.66,1.52
	c0.17-0.13,0.26-0.03,0.37,0.06c0.09,0.07,0.17,0.15,0.25,0.23c-0.02,0-0.05,0.01-0.07,0.01C10.18,2,10.12,2.18,10.12,2.36
	c-0.01,0.53-0.01,1.06-0.01,1.59c0,0.24,0.08,0.38,0.21,0.39c0.16,0.01,0.28-0.16,0.28-0.39c0-0.44,0.19-0.81,0.48-1.11
	c0.19-0.19,0.24-0.38,0.16-0.62c0.11,0.49,0.53,0.53,0.94,0.71c0-0.26,0.01-0.46,0-0.66c-0.01-0.06-0.06-0.16-0.12-0.18
	c-0.29-0.12-0.59-0.22-0.88-0.32c-0.02,0.02-0.04,0.03-0.06,0.05C11.16,1.9,11.19,1.98,11.23,2.07z M0.98,2.99
	C1.03,2.93,1.09,2.87,1.14,2.8C1.37,2.46,1.6,2.13,1.82,1.79c0.05-0.08,0.11-0.23,0.07-0.27c-0.07-0.07-0.2-0.12-0.3-0.11
	C1.43,1.42,1.28,1.5,1.14,1.55c0.04-0.28,0.21-0.46,0.49-0.5C1.8,1.02,1.97,1.02,2.15,1.03C2.32,1.04,2.42,0.97,2.44,0.8
	c-0.47-0.37-1.47-0.27-1.9,0.36C0.15,1.74,0.32,2.55,0.98,2.99z M2.66,0.95C2.31,1.35,1.55,2.52,1.51,2.76c0.41,0,0.81,0,1.21,0
	c0.12,0,0.16-0.09,0.16-0.2c0-0.44,0-0.88,0-1.33C2.87,1.12,2.84,0.99,2.66,0.95z M11.41,2.7c-0.39,0.52-0.25,1.14,0.03,1.44
	c0.06,0.06,0.16,0.12,0.23,0.11c0.23-0.04,0.52-0.42,0.52-0.65c-0.01-0.62,0.06-0.51-0.48-0.77C11.62,2.79,11.52,2.75,11.41,2.7z
	 M24.4,0.55c-0.16,0.12-0.33,0.22-0.46,0.35c-0.65,0.64-0.83,1.43-0.69,2.31c0.12,0.79,0.55,1.34,1.3,1.58
	c0.85,0.27,1.66,0.16,2.35-0.44c0.17-0.14,0.3-0.18,0.49-0.06c0.29,0.19,0.59,0.36,0.89,0.55c0.18-0.15,0.36-0.29,0.53-0.43
	c0.16,0.19,0.28,0.34,0.42,0.49c0.36-0.22,0.64-0.51,1-0.7c0.04,0.11,0.07,0.19,0.1,0.25c0.03,0.07,0.06,0.14,0.11,0.21
	c0.17,0.27,0.25,0.28,0.49,0.07c0.21-0.18,0.42-0.36,0.68-0.59c0,0.32,0.04,0.57-0.01,0.8c-0.06,0.23-0.21,0.43-0.33,0.69
	c0.44-0.2,0.76-0.46,0.87-0.9c0.05-0.2,0.05-0.42,0.05-0.63c-0.03-0.7-0.12-1.41,0.26-2.06c0.03-0.05,0.01-0.16-0.03-0.21
	c-0.16-0.17-0.34-0.33-0.53-0.5c-0.14,0.16-0.25,0.3-0.38,0.46c0.25,0.18,0.16,0.4,0.13,0.63c-0.05,0.37-0.11,0.75-0.05,1.12
	c0.06,0.35-0.07,0.55-0.3,0.74c-0.15,0.12-0.29,0.08-0.34-0.11c-0.02-0.08-0.02-0.17-0.02-0.26c0-0.48,0-0.96,0-1.45
	c0-0.22-0.02-0.44,0.16-0.61c-0.51-0.55-0.45-0.47-0.88-0.04c-0.01,0.01-0.01,0.03-0.02,0.05c0.07,0.2,0.12,0.4,0.13,0.61
	c0.01,0.36-0.02,0.71,0.01,1.07c0.02,0.3-0.08,0.5-0.32,0.65c-0.03,0.02-0.06,0.05-0.09,0.07c-0.2,0.14-0.36,0.09-0.43-0.15
	c-0.02-0.07-0.01-0.15-0.01-0.23c0-0.48,0-0.96,0-1.44c0-0.21-0.03-0.42,0.18-0.59c-0.18-0.14-0.33-0.27-0.5-0.41
	c-0.15,0.18-0.28,0.33-0.38,0.44c0.03,0.19,0.05,0.33,0.06,0.47c0.01,0.38,0,0.75,0,1.13c0,0.21,0,0.42,0.01,0.64
	c0,0.13-0.07,0.2-0.2,0.19c-0.25-0.02-0.5-0.31-0.5-0.57c0-0.65-0.01-1.29,0-1.94c0.01-0.49-0.12-1,0.19-1.46
	c-0.18,0.06-0.33,0.13-0.46,0.24c-0.19,0.16-0.33-0.09-0.5-0.05c0.04,0.16,0.11,0.31,0.11,0.46c0.01,0.81,0,1.62,0,2.43
	c0,0.15-0.05,0.26-0.16,0.35c-0.33,0.27-0.69,0.49-1.13,0.53c-0.93,0.1-1.65-0.23-2.11-0.96c-0.46-0.73-0.4-1.48,0.02-2.21
	c0.1-0.18,0.24-0.33,0.37-0.5C24.42,0.58,24.41,0.56,24.4,0.55z M16.72,4.31c0.02-0.26,0.06-0.52,0.07-0.77
	c0.01-0.41,0.01-0.83,0-1.24c-0.01-0.19,0.04-0.31,0.23-0.37c0.12-0.04,0.22-0.11,0.33-0.17c0.02-0.03,0.04-0.06,0.06-0.1
	c-0.07-0.03-0.14-0.06-0.21-0.1c-0.12-0.08-0.24-0.16-0.36-0.24c-0.33-0.25-0.37-0.38-0.24-0.83c0.07,0.03,0.14,0.06,0.2,0.1
	c0.54,0.35,1.09,0.7,1.62,1.05c0.17,0.11,0.32,0.21,0.53,0.03c0,0.86,0,1.68,0,2.49c0,0.12-0.04,0.19-0.16,0.24
	c-0.25,0.12-0.49,0.27-0.74,0.39c-0.08,0.04-0.19,0.06-0.26,0.03C17.42,4.67,17.07,4.48,16.72,4.31z M18.29,4.29
	c0.01-0.11,0.02-0.22,0.02-0.32c0-0.44-0.02-0.88,0.01-1.32c0.02-0.29-0.08-0.48-0.33-0.6c-0.04-0.02-0.07-0.04-0.1-0.06
	c-0.27-0.15-0.45-0.06-0.46,0.25c-0.01,0.35,0,0.71,0,1.07c0,0.79,0,0.79,0.76,0.99C18.21,4.3,18.23,4.3,18.29,4.29z M21.19,4.15
	c-0.3,0.22-0.6,0.44-0.9,0.65c-0.03,0.02-0.1,0.02-0.13,0.01c-0.28-0.11-0.56-0.23-0.8-0.33c0.03-0.3,0.08-0.57,0.09-0.84
	c0.02-0.47,0.01-0.94,0-1.42c0-0.17,0.04-0.28,0.21-0.37c0.25-0.12,0.48-0.28,0.72-0.43c0.3,0.29,0.6,0.59,0.92,0.89
	c-0.07,0.06-0.11,0.11-0.16,0.15c-0.27,0.21-0.53,0.42-0.8,0.61c-0.21,0.15-0.29,0.33-0.28,0.59c0.02,0.42,0.13,0.58,0.56,0.65
	c0.06,0.01,0.15-0.02,0.21-0.05c0.11-0.05,0.21-0.12,0.32-0.18C21.15,4.11,21.17,4.13,21.19,4.15z M20.74,2.6
	c-0.21-0.25-0.36-0.49-0.65-0.64c0,0.39,0,0.74,0,1.16C20.34,2.92,20.53,2.77,20.74,2.6z M24.5,1.04c-0.15,0.12-0.21,0.25-0.21,0.45
	c0.01,0.4,0,0.81,0,1.21c0,0.15-0.02,0.29-0.04,0.46c0.35-0.2,0.65-0.58,0.68-0.92c0.04-0.38,0.04-0.77,0.06-1.15
	c0.01-0.25,0.05-0.3,0.36-0.37c0,0.55-0.01,1.08,0,1.62c0.01,0.54-0.04,1.08,0.07,1.62c0.05-0.1,0.07-0.19,0.07-0.29
	c0-0.84,0-1.68,0-2.52c0-0.12,0.01-0.24,0.02-0.39c0.21,0.06,0.37,0.11,0.54,0.14c0.08,0.02,0.21,0.01,0.26-0.04
	c0.17-0.15,0.31-0.33,0.45-0.5c-0.38-0.1-0.72-0.2-1.11-0.31C25.29,0.37,24.9,0.71,24.5,1.04z M37.21,2.73c0,0.57,0,1.14,0,1.72
	c0,0.04-0.01,0.11-0.04,0.13c-0.23,0.13-0.46,0.27-0.71,0.38c-0.05,0.02-0.14-0.04-0.21-0.07c-0.21-0.11-0.43-0.22-0.61-0.31
	c0-0.55,0.01-1.08,0-1.61c0-0.14,0.04-0.23,0.18-0.29c0.14-0.06,0.27-0.15,0.39-0.24c0.12-0.1,0.22-0.11,0.36-0.02
	C36.75,2.53,36.96,2.61,37.21,2.73z M36.71,4.54c0.01-0.17,0.02-0.27,0.03-0.38c0-0.28,0-0.56,0-0.83c0-0.33-0.03-0.37-0.33-0.49
	C36.22,2.77,36.16,2.8,36.15,3c0,0.37,0,0.75,0.01,1.12c0,0.07,0.05,0.17,0.11,0.21C36.38,4.41,36.52,4.46,36.71,4.54z M34.25,2.21
	C34.11,2.39,34,2.52,33.91,2.62c0.08,0.14,0.19,0.24,0.19,0.35c0.01,0.53,0.1,1.07-0.11,1.58c0.17,0.14,0.33,0.27,0.53,0.42
	c0.18-0.17,0.36-0.34,0.54-0.51c-0.39,0.02-0.49-0.07-0.49-0.44c0-0.29,0-0.58,0-0.86c0-0.07,0-0.14,0.02-0.2
	c0.05-0.21,0.18-0.25,0.34-0.1c0.05,0.04,0.1,0.08,0.15,0.12c0.38-0.17,0.42-0.36-0.02-0.65c-0.14,0.11-0.29,0.23-0.43,0.35
	C34.49,2.53,34.39,2.4,34.25,2.21z M2.6,4.07C2.52,4.14,2.43,4.19,2.36,4.26c-0.15,0.16-0.3,0.16-0.49,0.06
	C1.65,4.2,1.41,4.09,1.18,3.98C1.11,3.95,1.03,3.89,0.97,3.9C0.9,3.91,0.82,3.97,0.78,4.03C0.76,4.06,0.8,4.16,0.84,4.19
	c0.3,0.16,0.61,0.33,0.92,0.47C1.85,4.69,2,4.68,2.09,4.63c0.18-0.09,0.34-0.22,0.49-0.35c0.04-0.04,0.06-0.11,0.08-0.17
	C2.64,4.1,2.62,4.09,2.6,4.07z M31.9,0.95c0.25-0.2,0.45-0.45,0.66-0.72c-0.17-0.03-0.33-0.04-0.48-0.03c-0.04,0-0.11,0.06-0.12,0.1
	c-0.06,0.2-0.09,0.4-0.14,0.6C31.85,0.92,31.87,0.93,31.9,0.95z M32.84,4.53c0.13,0.15,0.23,0.27,0.32,0.37
	c0.16-0.13,0.28-0.23,0.4-0.34c-0.12-0.13-0.23-0.24-0.36-0.37C33.06,4.32,32.95,4.42,32.84,4.53z"/>
</svg>
