<!-- Generator: Adobe Illustrator 21.1.0, SVG Export Plug-In  -->
<svg version="1.1"
	 xmlns="http://www.w3.org/2000/svg" xmlns:xlink="http://www.w3.org/1999/xlink" xmlns:a="http://ns.adobe.com/AdobeSVGViewerExtensions/3.0/"
	 x="0px" y="0px" width="146.7px" height="179.2px" viewBox="0 0 146.7 179.2" style="enable-background:new 0 0 146.7 179.2;"
	 xml:space="preserve">
<style type="text/css">
	.st0{fill-rule:evenodd;clip-rule:evenodd;}
	.st1{fill-rule:evenodd;clip-rule:evenodd;fill:#00529C;}
	.st2{fill-rule:evenodd;clip-rule:evenodd;fill:#858995;}
	.st3{fill-rule:evenodd;clip-rule:evenodd;fill:#C2C1C1;}
	.st4{fill-rule:evenodd;clip-rule:evenodd;fill:#4D4948;}
</style>
<defs>
</defs>
<g>
	<path d="M5.1,2.4c0,1.4-1.1,2.3-2.7,2.3H1.5v1.6H0V0.1h2.5C4.1,0.1,5.1,1,5.1,2.4z M3.6,2.4c0-0.6-0.4-0.9-1.1-0.9H1.5v1.9h0.9
		C3.1,3.4,3.6,3,3.6,2.4z"/>
</g>
<g>
	<path d="M10.7,6.3L9.5,4.5h0H8.4v1.8H6.8V0.1h2.7c1.5,0,2.6,0.8,2.6,2.2c0,0.8-0.4,1.5-1,1.8l1.5,2.2H10.7z M8.4,3.1h1.1
		c0.6,0,1.1-0.3,1.1-0.8c0-0.5-0.5-0.8-1.1-0.8H8.4V3.1z"/>
</g>
<g>
	<path d="M20.6,3.2c0,1.8-1.4,3.2-3.3,3.2S14.1,5,14.1,3.2S15.5,0,17.4,0S20.6,1.4,20.6,3.2z M19.1,3.2c0-1-0.7-1.8-1.7-1.8
		s-1.7,0.8-1.7,1.8S16.4,5,17.4,5S19.1,4.2,19.1,3.2z"/>
</g>
<g>
	<path d="M24.1,0.1v6.2h-1.5V0.1H24.1z"/>
</g>
<g>
	<path d="M27.8,1.5v1.1h2.7v1.3h-2.7V5h3.1v1.3h-4.7V0.1h4.7v1.3H27.8z"/>
</g>
<g>
	<path d="M37.5,3.7h1.6c-0.2,1.6-1.4,2.7-3.1,2.7c-1.9,0-3.3-1.3-3.3-3.2S34.2,0,36,0c1.7,0,2.9,1.1,3.1,2.7h-1.6
		c-0.2-0.8-0.7-1.2-1.5-1.2c-1,0-1.7,0.7-1.7,1.8C34.3,4.2,35,5,36,5C36.8,5,37.4,4.5,37.5,3.7z"/>
</g>
<g>
	<path d="M46.2,1.5h-2v4.8h-1.5V1.5h-2V0.1h5.5V1.5z"/>
</g>
<g>
	<path d="M55,3.7h1.6c-0.2,1.6-1.4,2.7-3.1,2.7c-1.9,0-3.3-1.3-3.3-3.2S51.7,0,53.5,0c1.7,0,2.9,1.1,3.1,2.7H55
		c-0.2-0.8-0.7-1.2-1.5-1.2c-1,0-1.7,0.7-1.7,1.8c0,1,0.7,1.8,1.7,1.8C54.3,5,54.9,4.5,55,3.7z"/>
</g>
<g>
	<path d="M65,3.2c0,1.8-1.4,3.2-3.3,3.2S58.5,5,58.5,3.2S59.9,0,61.7,0S65,1.4,65,3.2z M63.4,3.2c0-1-0.7-1.8-1.7-1.8S60,2.2,60,3.2
		S60.7,5,61.7,5S63.4,4.2,63.4,3.2z"/>
</g>
<g>
	<path d="M67.3,4.6V3.3h3.3v1.3H67.3z"/>
</g>
<g>
	<path d="M74.6,1.5v1.3h2.7v1.3h-2.7v2.2h-1.5V0.1h4.6v1.4H74.6z"/>
</g>
<g>
	<path d="M81,0.1v6.2h-1.5V0.1H81z"/>
</g>
<g>
	<path d="M88.8,0.1v6.2h-1.2l-3-3.4v3.4h-1.5V0.1h1.2l3,3.5V0.1H88.8z"/>
</g>
<g>
	<path d="M95.1,5.2h-2.6l-0.4,1.1h-1.6l2.6-6.2h1.5l2.6,6.2h-1.6L95.1,5.2z M94.6,3.9l-0.8-2.1L93,3.9H94.6z"/>
</g>
<g>
	<path d="M104.5,0.1v6.2h-1.2l-3-3.4v3.4h-1.5V0.1h1.2l3,3.5V0.1H104.5z"/>
</g>
<g>
	<path d="M111.8,1.5h-2v4.8h-1.5V1.5h-2V0.1h5.5V1.5z"/>
</g>
<g>
	<path d="M117.8,5.2h-2.6l-0.4,1.1h-1.6l2.6-6.2h1.5l2.6,6.2h-1.6L117.8,5.2z M117.3,3.9l-0.8-2.1l-0.8,2.1H117.3z"/>
</g>
<g>
	<path d="M126.7,1.5h-2v4.8h-1.5V1.5h-2V0.1h5.5V1.5z"/>
</g>
<g>
	<path d="M136.7,3.2c0,1.8-1.4,3.1-3.3,3.1h-2.5V0.1h2.5C135.3,0.1,136.7,1.4,136.7,3.2z M135.2,3.2c0-1-0.8-1.7-1.8-1.7h-0.9v3.4
		h0.9C134.4,4.9,135.2,4.2,135.2,3.2z"/>
</g>
<g>
	<path d="M140.1,1.5v1.1h2.7v1.3h-2.7V5h3.1v1.3h-4.7V0.1h4.7v1.3H140.1z"/>
</g>
<g>
	<path d="M144.9,2.6c0-0.4,0.4-0.8,0.8-0.8c0.5,0,0.8,0.3,0.8,0.8c0,0.5-0.4,0.8-0.8,0.8C145.3,3.4,144.9,3.1,144.9,2.6z M144.9,5.6
		c0-0.4,0.4-0.8,0.8-0.8c0.5,0,0.8,0.3,0.8,0.8c0,0.5-0.4,0.8-0.8,0.8C145.3,6.4,144.9,6,144.9,5.6z"/>
</g>
<g>
	<path d="M108.8,8c-0.2-0.1-0.4-0.3-0.4-0.5c0-0.3,0.3-0.6,0.6-0.6c0.3,0,0.6,0.3,0.6,0.6c0,0.2,0,0.2-0.2,0.6l-0.4,0.7h-0.6
		L108.8,8z"/>
</g>
<path class="st0" d="M73.5,19.9h73.2v159.3H73.5v-4.5h68.8V24.3H73.5V19.9z M0.2,19.9h73.3v4.4H4.6v150.5h68.8v4.5H0.2V19.9z"/>
<path class="st0" d="M31.4,51.1V33.3h-2.5v5h-1.3v2.6h1.3v7.6h-1.3v2.5H31.4z M27.5,38.3h-3.8v12.7h3.8v-2.5h-1.3v-7.6h1.3V38.3z"/>
<polygon class="st0" points="36.5,51.1 36.5,40.9 39,40.9 39,51.1 41.6,51.1 41.6,40.9 44.1,40.9 44.1,51.1 46.7,51.1 46.7,38.3 
	33.9,38.3 33.9,51.1 "/>
<rect x="49.2" y="33.3" class="st0" width="2.5" height="2.5"/>
<rect x="49.2" y="38.3" class="st0" width="2.5" height="12.7"/>
<polygon class="st0" points="56.8,51.1 56.8,40.9 59.4,40.9 59.4,51.1 62,51.1 62,38.3 54.3,38.3 54.3,51.1 "/>
<rect x="64.5" y="33.3" class="st0" width="2.5" height="2.5"/>
<rect x="64.5" y="38.3" class="st0" width="2.5" height="12.7"/>
<polygon class="st0" points="77.3,40.9 77.3,38.3 72.2,38.3 72.2,38.3 69.7,38.3 69.7,38.3 69.7,38.3 69.7,46 74.8,46 74.8,48.6 
	69.7,48.6 69.7,51.1 77.3,51.1 77.3,43.4 72.2,43.4 72.2,40.9 "/>
<polygon class="st0" points="87.5,40.9 87.5,38.3 82.4,38.3 82.4,38 82.4,38 82.4,33.3 79.9,33.3 79.9,38 79.9,38 79.9,45.6 
	79.9,45.6 79.9,51.1 87.5,51.1 87.5,46 84.9,46 84.9,48.6 82.4,48.6 82.4,45.6 82.4,45.6 82.4,40.9 "/>
<polygon class="st0" points="92.6,51.1 92.6,40.9 95.1,40.9 95.1,46 97.7,46 97.7,38.3 90,38.3 90,51.1 "/>
<rect x="111.1" y="52.8" class="st0" width="2.5" height="2.5"/>
<path class="st0" d="M108.5,51.1V38.3h-3.8v2.6h1.3v2.5h-1.3V46h1.3v2.5h-1.3v2.5H108.5z M104.6,38.3h-3.8v2.6h3.8V38.3L104.6,38.3z
	 M104.6,43.4h-3.8v7.6h3.8v-2.5h-1.2V46h1.2V43.4z"/>
<polygon class="st0" points="118.7,40.9 118.7,38.3 113.6,38.3 113.6,33.3 111.1,33.3 111.1,36 111.1,36 111.1,43.7 111.1,43.7 
	111.1,51.1 118.7,51.1 118.7,46 116.2,46 116.2,48.6 113.6,48.6 113.6,43.4 113.6,43.4 113.6,40.9 "/>
<rect x="120.9" y="33.3" class="st0" width="2.6" height="2.5"/>
<rect x="120.9" y="38.4" class="st0" width="2.6" height="12.7"/>
<path class="st0" d="M133.2,51.1V38.4h-3.8V41h1.3v2.5h-1.3V46h1.3v2.6h-1.3v2.5H133.2z M129.4,38.4h-3.8V41h3.8V38.4L129.4,38.4z
	 M129.4,43.5h-3.8v7.6h3.8v-2.5h-1.3V46h1.3V43.5z"/>
<polygon class="st0" points="18,86.3 18,77.4 26.9,77.4 26.9,73 18,73 18,59.7 22.5,59.7 22.5,68.6 26.9,68.6 26.9,55.3 13.6,55.3 
	13.6,86.3 "/>
<rect x="13.6" y="90.7" class="st1" width="13.2" height="4.5"/>
<rect x="31.4" y="55.3" class="st0" width="13.2" height="4.4"/>
<path class="st0" d="M44.6,86.3V64.2H38v4.4h2.2v13.2H38v4.5H44.6z M38,64.2h-6.6v22.1H38v-4.5h-2.2V68.6H38V64.2z"/>
<rect x="31.4" y="90.7" class="st1" width="13.2" height="4.5"/>
<rect x="49.1" y="55.3" class="st0" width="13.2" height="4.4"/>
<polygon class="st0" points="53.5,86.3 53.5,68.6 57.9,68.6 57.9,86.3 62.3,86.3 62.3,64.2 49.1,64.2 49.1,86.3 "/>
<path class="st0" d="M80,86.3v-31h-4.4v8.9h-2.2v4.4h2.2v13.2h-2.2v4.5H80z M73.4,64.2h-6.6v22.1h6.6v-4.5h-2.2V68.6h2.2V64.2z"/>
<rect x="66.8" y="55.3" class="st0" width="4.4" height="4.4"/>
<polygon class="st2" points="71.3,95.1 71.3,90.7 68.3,90.7 68.3,90.7 66.8,90.7 66.8,90.7 66.8,90.7 66.8,95.1 "/>
<rect x="84.5" y="55.3" class="st0" width="13.2" height="4.4"/>
<polygon class="st0" points="97.7,86.3 97.7,64.2 93.3,64.2 93.3,81.8 88.9,81.8 88.9,64.2 84.5,64.2 84.5,86.3 "/>
<polygon class="st2" points="83.6,95.1 83.6,95.1 89,95.1 89,90.7 81,90.7 81,90.7 75.7,90.7 75.7,95.1 "/>
<rect x="102.2" y="55.3" class="st0" width="4.4" height="31"/>
<rect x="119.9" y="55.3" class="st0" width="4.4" height="4.5"/>
<rect x="128.8" y="55.1" class="st0" width="4.4" height="4.5"/>
<polygon class="st0" points="124.3,86.3 124.3,64.2 119.9,64.2 119.9,81.8 115.5,81.8 115.5,64.2 111.1,64.2 111.1,86.3 "/>
<rect x="111.1" y="90.7" class="st1" width="13.2" height="4.5"/>
<rect x="111.1" y="55.3" class="st0" width="13.2" height="4.5"/>
<rect x="128.8" y="64.2" class="st0" width="4.5" height="22.1"/>
<rect x="128.8" y="90.7" class="st1" width="4.5" height="4.5"/>
<rect x="13.6" y="90.7" class="st2" width="13.2" height="4.4"/>
<polygon class="st0" points="26.9,121.6 26.9,117.2 18,117.2 18,103.9 26.9,103.9 26.9,99.5 13.6,99.5 13.6,121.6 "/>
<rect x="13.6" y="126" class="st3" width="13.2" height="4.5"/>
<rect x="13.6" y="161.4" class="st4" width="13.2" height="4.4"/>
<rect x="31.4" y="90.7" class="st2" width="13.2" height="4.4"/>
<polygon class="st0" points="44.6,121.6 44.6,99.5 40.2,99.5 40.2,117.2 35.7,117.2 35.7,99.5 31.4,99.5 31.4,121.6 "/>
<rect x="31.4" y="126" class="st3" width="13.2" height="4.5"/>
<rect x="31.4" y="161.4" class="st4" width="13.2" height="4.4"/>
<path class="st0" d="M53.5,130.5V126h-4.4v4.5H53.5L53.5,130.5z M53.5,121.6v-31h-4.4v31H53.5z"/>
<polygon class="st0" points="71.2,121.6 71.2,112.8 66.8,112.8 66.8,117.2 62.4,117.2 62.4,111.3 62.4,108.3 62.4,103.9 71.2,103.9 
	71.2,99.5 62.4,99.5 62.4,97.3 62.4,90.7 57.9,90.7 57.9,97.3 57.9,103.9 57.9,108.3 57.9,111.3 57.9,121.6 "/>
<polygon class="st0" points="89,121.6 89,99.5 84.5,99.5 84.5,117.2 80.1,117.2 80.1,99.5 75.6,99.5 75.6,121.6 "/>
<rect x="75.6" y="126" class="st3" width="13.3" height="4.5"/>
<rect x="75.6" y="161.4" class="st4" width="13.3" height="4.4"/>
<polygon class="st0" points="97.8,121.6 97.8,103.9 102.2,103.9 102.2,112.8 106.7,112.8 106.7,99.5 93.3,99.5 93.3,121.6 "/>
<rect x="95.1" y="48.6" class="st0" width="2.5" height="2.5"/>
<rect x="22.5" y="81.8" class="st2" width="4.4" height="4.5"/>
<rect x="22.5" y="108.3" class="st3" width="4.4" height="4.5"/>
<rect x="102.2" y="117.2" class="st3" width="4.5" height="4.5"/>
<rect x="93.3" y="126" class="st3" width="13.3" height="4.5"/>
<rect x="93.3" y="161.4" class="st4" width="13.3" height="4.4"/>
<rect x="111.1" y="90.7" class="st2" width="13.2" height="4.4"/>
<rect x="93.3" y="90.7" class="st2" width="13.3" height="4.4"/>
<path class="st0" d="M124.3,121.6V99.5h-6.6v4.4h2.2v4.4h-2.2v4.5h2.2v4.4h-2.2v4.5H124.3z M117.7,99.5h-6.6v4.4h6.6V99.5
	L117.7,99.5z M117.7,108.3h-6.6v13.3h6.6v-4.5h-2.2v-4.4h2.2V108.3z"/>
<rect x="111.1" y="126" class="st3" width="13.2" height="4.5"/>
<rect x="111.1" y="161.4" class="st4" width="13.2" height="4.4"/>
<path class="st0" d="M133.2,130.5V126h-4.5v4.5H133.2L133.2,130.5z M133.2,121.6v-31h-4.5v31H133.2z"/>
<polygon class="st0" points="18,157 18,139.3 22.5,139.3 22.5,157 26.9,157 26.9,134.9 13.6,134.9 13.6,157 "/>
<path class="st0" d="M44.6,157v-22.1H38v4.5h2.2v4.4H38v4.4h2.2v4.5H38v4.4H44.6z M38,134.9h-6.6v4.5H38V134.9L38,134.9z M38,143.7
	h-6.6V157H38v-4.4h-2.2v-4.5H38V143.7z"/>
<rect x="57.9" y="126" class="st3" width="4.4" height="4.5"/>
<rect x="57.9" y="161.4" class="st4" width="4.4" height="4.4"/>
<polygon class="st0" points="62.3,157 62.3,148.1 57.9,148.1 57.9,152.6 53.5,152.6 53.5,143.7 53.5,143.7 53.5,139.3 62.3,139.3 
	62.3,134.9 53.5,134.9 53.5,126 49.1,126 49.1,133.7 49.1,133.7 49.1,149.7 49.1,149.7 49.1,157 "/>
<rect x="49.1" y="161.5" class="st0" width="4.4" height="4.4"/>
<rect x="66.8" y="126" class="st0" width="4.4" height="4.5"/>
<rect x="66.8" y="161.4" class="st4" width="4.4" height="4.4"/>
<rect x="128.8" y="161.4" class="st4" width="4.5" height="4.4"/>
<rect x="66.8" y="134.9" class="st0" width="4.4" height="22.1"/>
<path class="st0" d="M89,157v-22.1h-6.7v4.5h2.2v13.2h-2.2v4.4H89z M82.3,134.9h-6.6V157h6.6v-4.4h-2.2v-13.2h2.2V134.9z"/>
<polygon class="st0" points="97.8,157 97.8,139.3 102.2,139.3 102.2,157 106.7,157 106.7,134.9 93.3,134.9 93.3,157 "/>
<path class="st0" d="M124.3,157v-22.1h-6.6v4.5h2.2v4.4h-2.2v4.4h2.2v4.5h-2.2v4.4H124.3z M117.7,134.9h-6.6v4.5h6.6V134.9
	L117.7,134.9z M117.7,143.7h-6.6V157h6.6v-4.4h-2.2v-4.5h2.2V143.7z"/>
<rect x="128.8" y="126" class="st0" width="4.5" height="31"/>
<path class="st0" d="M17.3,35.8h1.3v7.7h-1.3V46h1.3v2.5v2.5h2.5V35.8v-2.5v-0.1h-3.8V35.8z M16,43.5v-7.7h1.3v-2.6h-3.8l0,0l0,0
	v5.1v8.4v4.3h2.6v-2.5V46h1.2v-2.5H16z"/>
</svg>
