<!-- Generator: Adobe Illustrator 19.2.1, SVG Export Plug-In  -->
<svg version="1.1"
	 xmlns="http://www.w3.org/2000/svg" xmlns:xlink="http://www.w3.org/1999/xlink" xmlns:a="http://ns.adobe.com/AdobeSVGViewerExtensions/3.0/"
	 x="0px" y="0px" width="114.8px" height="162.5px" viewBox="0 0 114.8 162.5" enable-background="new 0 0 114.8 162.5"
	 xml:space="preserve">
<defs>
</defs>
<path fill='#868789' d="M15.9,130.7l-4.4,1.5L0.6,162.1h4.1l3.3-9h10.1l3.1,9h5.1L15.9,130.7z M9.4,149.3l4-10.8l3.6,10.8H9.4z M29.9,132.2l4.6-1.5
	v25.4c0,2.5,1.1,3.1,4,3.2v3c-5.5,0.5-8.7-1.9-8.7-6.2V132.2z M43.2,142h-2.5v-3.5h2.5v-6.3l4.8-1.5v7.8h4.1v3.5H48v14.1
	c0,2.5,1.2,3.1,4.1,3.3v3c-5.5,0.5-8.9-1.9-8.9-6.1V142z M55.6,149.9c0-6.2,4-11.9,10.8-11.9c6.8,0.1,10.7,5.6,10.7,11.9
	c0,6.3-3.5,12.6-10.8,12.6C59,162.4,55.6,156.2,55.6,149.9 M66.4,141.7c-4.6,0.3-5.6,4.2-5.6,8.2c0,4.4,1.4,9.2,5.6,9.2
	c4.6-0.1,5.5-4.8,5.6-9.1C72,145.9,70.6,142,66.4,141.7L66.4,141.7z M107.1,146.3c0-5.3-4.7-5.6-8-3.3c0.1,0.5,0.2,1,0.2,1.4v17.6
	h-4.9l-0.1-15.7c0-3.2-1.4-4.9-4.9-4.7c-1.1,0.1-2.4,0.8-2.9,1.3v19.1h-4.8v-20c3.5-2.6,5.7-3.9,10.1-4c2,0,4.1,0.7,5.5,2.1
	c2.2-1.3,4.3-2,7.2-2c3.6,0,7.5,2.5,7.5,6.6v17.4h-4.9V146.3z M83.6,46.1l0.8,2.8H73.1l-0.4-2.8H83.6z M85.1,59.6L86,63H73.9
	l-0.5-3.4H85.1z M86.8,72.4l1.1,4.1H74.8l-0.6-4.1H86.8z M97.3,54.1l1.2,2.8H87.3l-0.8-2.8H97.3z M102.1,76.9l1.7,4.1h-13l-1.1-4.1
	H102.1z M99.6,66.2l1.4,3.4H89l-1-3.4H99.6z M73.4,91.5l0.8,6.2H58.8v-6.2H73.4z M31.2,14.1h10.9L41.7,17H30.4L31.2,14.1z
	 M72.3,79.2l0.7,5.1H58.8v-5.1H72.3z M39.6,64.6l-0.7,5.1H24.7l1.4-5.1H39.6z M28.3,0l-0.8,2.8H16.3L17.5,0H28.3z M40.5,48.7
	l-0.6,4.1H26.9l1.1-4.1H40.5z M41.4,32.1l-0.5,3.4H28.7l0.9-3.4H41.4z M71.4,65.7l0.6,4.1H58.8v-4.1H71.4z M104.9,86.7l2.1,5.1H93
	l-1.4-5.1H104.9z M90.8,94.4l1.7,6.2H77.1l-0.9-6.2H90.8z M108.1,96.5l2.5,6.2H95.5l-1.7-6.2H108.1z M88.7,83.8l1.4,5.1H75.9
	l-0.7-5.1H88.7z M69.8,37l0.4,2.8H58.8V37H69.8z M70.6,51.7l0.5,3.4H58.8v-3.4H70.6z M93.3,105.4l2,7.3H78.5l-1-7.3H93.3z
	 M42.8,61.9l0.6-4.1H56v4.1H42.8z M40.5,93.1l0.9-6.2H56v6.2H40.5z M43.8,46l0.5-3.4H56V46H43.8z M41.8,77.6l0.7-5.1H56v5.1H41.8z
	 M111.8,106.7l3,7.3H98.2l-2-7.3H111.8z M56,29.4H44.6l0.4-2.8h11V29.4z M26.7,19.7l-1,3.4h-12l1.4-3.4H26.7z M74.6,103.3l1,7.3
	H58.8v-7.3H74.6z M23.2,55.5l-1.4,5.1h-14l2.1-5.1H23.2z M21,72.4l-1.7,6.2H4.1l2.5-6.2H21z M25.1,38.3l-1.1,4.1H11l1.7-4.1H25.1z
	 M37.3,95.8l-1,7.3H19.5l2-7.3H37.3z M38.5,80.3l-0.8,6.2H22.3l1.7-6.2H38.5z M18.6,89.2l-2,7.3H0l3-7.3H18.6z M39.1,107.7l1-7.3H56
	v7.3H39.1z"/>
</svg>
