<!-- Generator: Adobe Illustrator 19.2.1, SVG Export Plug-In  -->
<svg version="1.1"
	 xmlns="http://www.w3.org/2000/svg" xmlns:xlink="http://www.w3.org/1999/xlink" xmlns:a="http://ns.adobe.com/AdobeSVGViewerExtensions/3.0/"
	 x="0px" y="0px" width="102.4px" height="197px" viewBox="0 0 102.4 197" enable-background="new 0 0 102.4 197"
	 xml:space="preserve">
<defs>
</defs>
<path fill-rule="evenodd" clip-rule="evenodd" fill='#868789' d="M77.2,158.2c0-0.1,0.1-0.3,0.1-0.4c0.1-0.2,0.2-0.5,0.4-0.6
	c0.5-0.4,0.7-0.8,0.9-1.4c0.2-0.8,0.5-1.7,0.8-2.5c0.1-0.2,0.1-0.5,0.2-0.7c0.5-1.7,1.1-3.4,1.9-5c0.1-0.2,0.2-0.4,0.3-0.6
	c0.5-1.8,1.3-3.4,2.1-5c0.7-1.4,1.3-2.9,1.9-4.3c0.4-0.9,0.9-1.7,1.7-2.3c0.8-0.6,1.6-1.2,2.6-1.5c0.3-0.1,0.7-0.2,1.1-0.1
	c1.3,0.4,2.5,0.9,3.5,2c1,1.1,1.4,2.4,1.4,3.8c0,1.2-0.1,2.4-0.2,3.6c-0.1,1.4-0.6,2.7-1,4c-1,3-2.2,5.9-3.4,8.8
	c-0.5,1.1-1.2,2.1-1.8,3.1c-0.7,1.1-1.4,2.3-2.1,3.4c-0.2,0.4-0.2,0.7,0,1.1c0.8,1.6,1.5,3.2,2.2,4.8c0.2,0.5,0.4,1,0.5,1.5
	c0.1,0.5,0.4,0.9,0.7,1.3c0.3,0.3,0.5,0.7,0.7,1.1c1.4,2.5,3.1,4.7,5.7,6.1c0.5,0.3,1.1,0.4,1.7,0.5c0.4,0.1,0.9,0,1.3-0.3
	c0.2-0.2,0.5-0.3,0.8-0.4c0.4-0.2,0.7-0.2,1,0.1c0.3,0.4,0.7,0.8,0.5,1.4c-0.2,0.7-0.6,1.3-1.4,1.5c-0.3,0.1-0.5,0.3-0.6,0.6
	c-0.2,0.6-0.6,1-1.1,1.3c-0.3,0.2-0.6,0.5-1,0.7c-0.9,0.6-1.9,0.9-3,1.2c-1.1,0.3-2.3,0.4-3.4,0.4c-0.6,0-1.3,0.2-1.9,0.3
	c-1,0.2-2,0-3,0c-0.5,0-0.9,0-1.4,0c-1.1,0.1-2.2,0.2-3.3,0c-0.4-0.1-0.8,0-1.2,0c-1.1,0-2.3,0-3.4,0c-0.3,0-0.6,0.1-0.9,0.1
	c-0.6,0-1.3,0-1.9-0.1c-1.6-0.1-3.2,0-4.8,0c-0.6,0-1.2,0-1.8,0c-0.6,0-1.1,0-1.7,0c-0.3,0-0.5,0-0.8,0c-1.1,0-2.2,0-3.3,0.2
	c-1.3,0.2-2.7,0.3-4,0c-0.4-0.1-1,0.1-1.5,0.1c-2.1,0-4.2,0.1-6.2,0.1c-1.7,0-3.4-0.1-5.1-0.1c-1.9,0-3.8,0-5.7,0
	c-2.2,0-4.5-0.1-6.7,0c-1.6,0-3.1,0.1-4.7,0.1c-2.1,0-4.3,0.1-6.4-0.2c-0.8-0.1-1.5-0.1-2.3-0.2c-2.3-0.4-4.5-1.3-6.4-2.7
	c-1.2-0.9-2.5-1.8-3.7-2.8c-0.4-0.3-0.7-0.6-1-0.9c-0.7-0.8-1.3-1.6-2.1-2.4c-1.3-1.4-2.3-3.1-3-4.9c-0.5-1.2-1.1-2.5-1.7-3.8
	c-0.5-1.1-0.9-2.1-1-3.3c-0.3-1.8-0.6-3.6-0.8-5.4c-0.2-1.8-0.4-3.7-0.1-5.6c0.2-1.1,0.5-2.2,0.8-3.3c0.2-0.8,0.4-1.7,0.7-2.5
	c0.4-1.5,0.8-3,1.6-4.3c0.4-0.7,0.7-1.6,1.1-2.3c0.6-1.1,1.3-2.2,2.3-3c0.5-0.4,0.8-1,1.3-1.4c1.3-1.3,2.8-2.6,4.1-3.9
	c0.7-0.7,1.4-1.3,2.3-1.7c0.3-0.1,0.6-0.3,0.9-0.3c0.5-0.1,0.7,0.1,0.8,0.6c0.1,0.6-0.1,1.3-0.4,1.9c-0.8,1.7-1.6,3.4-2.3,5.2
	c-0.4,1.1-0.7,2.3-1,3.4c-0.1,0.5-0.2,1-0.4,1.5c-0.1,0.5-0.2,0.9-0.3,1.4c-0.3,1.7-0.6,3.4-0.6,5.2c0,1.2-0.1,2.3-0.2,3.4
	c0,0.5,0.1,1,0.1,1.5c0,2.1,0.3,4.2,0.7,6.3c0.1,0.4,0.1,0.9,0.2,1.3c0.3,1.4,0.6,2.8,1,4.1c0.3,0.9,0.5,1.8,1.1,2.6
	c0.1,0.1,0.2,0.3,0.3,0.4c0.4,1.3,1.2,2.3,2.1,3.3c0.6,0.7,1.3,1.4,2,2.1c0.2,0.2,0.4,0.3,0.6,0.1c-0.1-1.4,0-2.7,0.2-4
	c0.1-0.9,0.2-1.8,0.3-2.8c0.2-1.5,0.5-2.9,1-4.4c0.3-0.8,0.6-1.7,0.9-2.5c0.1-0.4,0.3-0.9,0.4-1.3c0.2-0.5,0.4-1,0.6-1.5
	c0.3-0.7,0.6-1.5,0.6-2.3c0-0.5,0-1.1,0.1-1.6c0.2-1.8,0-3.7,0-5.5c0-1.3,0-2.6-0.1-3.9c0-1.1-0.1-2.2-0.1-3.4
	c-0.1-1.4-0.1-2.9-0.2-4.3c-0.2-1.8-0.4-3.5-0.5-5.3c-0.1-0.9-0.6-1.6-1.2-2.3c-0.1-0.1-0.2-0.2-0.4-0.3c-0.7-0.3-1.3-0.6-2-0.9
	c-0.6-0.3-1.1-0.7-1.7-1c-0.2-0.1-0.4-0.3-0.5-0.4c-1.7-0.9-3-2.1-4.1-3.6c-0.3-0.4-0.5-1-0.6-1.5c-0.1-0.7-0.4-1.2-1.1-1.3
	c-0.4-0.1-0.6-0.3-0.6-0.7c0,0,0,0,0-0.1c-0.3-1-0.2-1.1,0.7-1.5c0.1,0,0.2-0.1,0.3-0.1c1.2-0.3,2.1-1.2,2.9-2.1
	c0.2-0.3,0.4-0.6,0.5-1c0.4-1.4,1-2.7,1.7-4c0.3-0.5,0.5-1.1,0.8-1.7c0.3-0.8,1.1-1.2,1.6-1.7c0.3-0.3,0.5-0.5,0.5-0.9
	c0-0.2,0-0.4,0.1-0.6c0.1-0.7,0.2-1.3,0.3-2c0.1-1.2,0.3-2.3,0.8-3.4c0.3-0.6,0.8-0.7,1.3-0.4c0.3,0.2,0.4,0.4,0.7,0.6
	c0.3,0.2,0.6,0.2,0.6-0.2c0-0.8,0.5-1.6,0.1-2.5c-0.1-0.2,0.1-0.4,0.1-0.6c0.1-0.6,0.1-1.1,0.1-1.7c0-1.3-0.2-2.6-0.2-4
	c-0.1-2.3-0.3-4.5-0.4-6.8c-0.1-2.1,0-4.1-0.1-6.2c0-1.6,0-3.3-0.1-4.9c-0.1-0.1-0.2-0.1-0.3-0.1c-1.5,0.2-2.8-0.5-4.1-0.8
	c-0.4-0.1-0.7-0.2-1.1-0.3c-0.8-0.2-1.6-0.5-2.3-1c-0.2-0.1-0.4-0.1-0.6-0.2c-0.3-0.1-0.6-0.1-0.8-0.3c-0.5-0.5-1-1-1.4-1.5
	C11,70,10.6,69.6,10.3,69c-1-1.7-1.8-3.4-2.3-5.3c-0.3-1.1-0.4-2.2-0.4-3.3c0-0.7-0.1-0.8-0.8-0.8c-0.9,0-1.8,0.1-2.8,0.2
	c-0.4,0-0.8,0.1-1.2,0.1c-0.5,0-1-0.3-1.1-0.8c0-0.1,0-0.3,0.1-0.4c0.3-0.7,0.7-1.4,1-2c0.5-1.1,1.3-1.8,2.3-2.5
	c1.4-0.9,2.9-1.4,4.5-1.8c0.9-0.2,1.9-0.3,2.8-0.3c0.7,0,1.4,0,2.1,0.1c0.6,0.1,1.2,0.4,1.7,0.7c0.7,0.4,1.3,0.8,2,1.2
	c0.7,0.4,1.3,1,1.8,1.7c0.2,0.2,0.4,0.4,0.6,0.7c0.5-0.5,0.7-1.1,0.9-1.7c0.1-0.4,0.3-0.7,0.5-1c0.3-0.4,0.5-0.8,0.7-1.3
	c0.8-1.8,2.2-2.9,3.8-3.8c0.1-0.1,0.3-0.2,0.4-0.3c1.3-1.1,2.9-1.7,4.4-2.4c1.4-0.7,2.3-1.8,2.8-3.3c0.2-0.7,0-1.1-0.7-1.2
	c-1.5-0.3-2.8-0.9-4-1.7c-0.5-0.3-0.9-0.7-1.3-1.2c-0.8-0.9-1.6-1.7-2.3-2.7c-1.1-1.6-1.9-3.3-2.5-5.1c-0.5-1.9-1.1-3.7-1.6-5.6
	c-0.1-0.4-0.1-0.8-0.2-1.2c-0.2-1.3-0.5-2.5-0.7-3.8c-0.2-0.9-0.4-1.8-0.3-2.7c0-0.8-0.2-1.7-0.2-2.5c0-0.5-0.1-0.6-0.7-0.6
	c-1.2,0-2.4,0.1-3.6,0.1c-0.5,0-1-0.1-1.4-0.4c-0.4-0.2-0.3-0.5,0-0.8c0,0,0.1-0.1,0.1-0.1c1-0.4,2-0.7,3-1.1c0.5-0.2,1-0.2,1.6-0.7
	c-0.3-0.1-0.5-0.3-0.7-0.3c-2.1-0.8-4.1-1.8-5.8-3.3c-0.4-0.4-0.4-0.8,0.2-0.9c0.2-0.1,0.4-0.1,0.6-0.1C15,7,16.4,7.2,17.8,7.3
	c0.3,0,0.6,0.1,0.9,0.1c0.5,0,0.7-0.2,0.5-0.7c-0.1-0.2-0.1-0.3-0.2-0.5c-0.3-0.5-0.7-1-1-1.5c-0.2-0.4,0-0.8,0.4-0.8
	c0.3,0,0.7,0,1,0.1c0.4,0,0.8,0.1,1.2,0.2c0.4,0.1,0.7,0.1,1,0.2c0.5,0.3,1.1,0.3,1.7,0.2c1.1-0.2,2.3-0.4,3.4-0.5
	C27.3,4,27.9,4,28.6,4c0.1,0,0.3,0,0.4,0c0.1,0,0.3-0.1,0.3-0.2c0-0.1-0.1-0.3-0.2-0.3c-0.2-0.1-0.5-0.2-0.7-0.3
	c-0.6-0.3-0.6-0.7,0-1c0.2-0.1,0.5-0.2,0.7-0.2c1.7,0.1,3.4,0.1,5,0.7c0.4,0.2,1,0.2,1.4,0.2c1.1,0.2,2.2,0.4,3.3,0.6
	c0.2,0,0.4,0,0.7,0c0-1.1-0.9-1.9-1.2-2.9c0.5-0.6,0.5-0.6,1.2-0.4c1.1,0.4,1.8,1,2.4,2c0.6,1,1.3,1.9,2,2.9c0,0.1,0.1,0.1,0.3,0.2
	c0.1-0.2,0.2-0.4,0.3-0.6c0.1-0.3,0.3-0.6,0.5-0.8c0.4-0.5,0.7-0.4,1,0.1c0.1,0.3,0.2,0.7,0.3,1c0.1,0.9,0.2,1.8,0.3,2.7
	c0.1,1.2,0.3,2.4,0.4,3.6c0,0.2,0,0.4,0,0.7c0.1,1.7,0.1,3.3,0.2,5c0.1,0.9,0.1,1.8,0.2,2.7c0,0.2,0.2,0.4,0.2,0.6
	c0.1,0.4,0.3,0.8,0.3,1.2c0,1,0,2.1-0.6,3c-0.1,0.2-0.1,0.4-0.1,0.6c0,1.8,0.1,3.7,0.1,5.5c0,1-0.1,2-0.1,3c0,0.4,0,0.7,0,1.1
	c0,0.4-0.2,0.5-0.6,0.5c-0.7,0-0.8,0.1-0.9,0.8c-0.1,0.7-0.1,1.4-0.2,2.1c-0.2,1.5,0.1,2.9,0.5,4.3c0,0.1,0.1,0.3,0.2,0.4
	c1,1.3,2.1,2.4,3.7,3c0.1,0,0.2,0,0.3,0c0.1-0.1,0.1-0.2,0.1-0.3c0.1-0.8,0.1-1.7,0.1-2.5c0.1-1.2,0-2.5,0.2-3.7
	c0.1-0.6,0-1.3,0-1.9c0-0.9,0-1.7,0-2.6c0.1-1.2,0.2-2.5,0.3-3.7c0.1-0.8,0.1-1.6,0.2-2.3c0.1-1.2,0.2-2.4,0.4-3.5
	c0.3-1.2,0.4-2.5,0.4-3.7c0-0.3,0.1-0.7,0.3-1c0.2-0.5,0.2-1,0.3-1.6c0.1-0.9,0.3-1.9,0.6-2.8c0.3-0.9,0.5-1.8,0.9-2.7
	c0.3-0.6,0.6-1.3,1-1.9c0.1-0.2,0.3-0.4,0.4-0.5c0.5-1.2,1.3-2,2.2-2.8c1.8-1.5,3.9-2.4,6.2-3c0.6-0.2,1.3-0.4,1.9-0.5
	c0.9-0.1,1.8,0,2.7,0c1.2,0.1,2.4,0.2,3.5,0.9c0.1,0.1,0.2,0.1,0.3,0.1c1.2,0.2,2.2,0.8,3.2,1.4c1.3,0.9,2.9,1.6,3.8,3.1
	c0.2,0.4,0.7,0.7,1,1.1c0.9,1.1,1.2,2.4,1.4,3.7c0.2,1.1,0.3,2.3,0.4,3.4c0,0.8-0.4,1.5-1.1,2c-0.4,0.3-0.6,0.8-0.6,1.3
	c0,0.2,0,0.3,0,0.5c0,1.5,0,3,0,4.6c0,1-0.3,2-0.4,3c-0.1,1-0.4,1.9-0.7,2.8C79,33,79,33.4,78.9,33.7c-0.4,1.6-1.1,3-1.8,4.4
	c-0.3,0.5-0.6,1-1,1.5c-1,1.3-2.2,2.4-3.7,3.1c-0.3,0.1-0.6,0.2-0.9,0.3c-0.5,0.1-1.1,0.1-1.6,0.2c-0.5,0.1-0.9,0.6-0.7,1.3
	c0.2,1.2,0.3,2.5,0.8,3.6c0.1,0.3,0.3,0.6,0.6,0.9c1.1,1.2,2.5,2,3.8,3c0.8,0.6,1.7,1.2,2.4,1.9c1.5,1.3,2.3,3,3,4.8
	c0.5,1.4,0.7,2.9,1,4.4c0.4,2.2,0.6,4.5,0.6,6.8c0,1.2,0.2,2.4,0.2,3.6c0.1,2.1,0.1,4.2,0.2,6.3c0,0.8,0.1,1.6,0.2,2.4
	c0,0.5,0.1,1,0,1.5c0,0.5,0.1,0.8,0.5,1.1c1.3,0.8,2.2,2.1,3,3.3c0.9,1.3,1.7,2.6,2.5,3.9c0.8,1.2,1.4,2.5,2.2,3.6
	c1.4,2,3,3.6,5.2,4.7c0.3,0.2,0.7,0.3,1,0.3c0.7,0.1,1.2,0.4,1.7,0.9c0.3,0.3,0.3,0.6,0.1,1c-0.3,0.6-0.6,1.2-1,1.8
	c-0.1,0.1-0.2,0.3-0.3,0.4c-0.3,0.2-0.4,0.6-0.4,0.9c-0.1,1.2-0.6,2.1-1.3,3.1c-0.8,1.1-1.8,2-3,2.8c-0.5,0.3-0.9,0.6-1.4,0.9
	c-1.2,0.6-2.5,1-3.9,1c-1.5,0-3,0.1-4.5,0.3c-0.5,0-0.9,0.2-1.4,0.3c-0.4,0.1-0.6,0.8-0.4,1.3c0.3,0.8,0.7,1.6,1,2.5
	c0.6,1.7,1.3,3.5,1.8,5.3c0.6,2.1,0.9,4.2,1.4,6.2c0.1,0.3,0.1,0.6,0.1,0.9c0,1.5-0.1,3-0.1,4.6c0,0.4-0.2,0.8-0.5,1.1
	c-0.3,0.4-0.6,0.4-1,0.1c-0.2-0.2-0.3-0.4-0.5-0.5c-0.1-0.1-0.3-0.3-0.5-0.4c-0.1,0.2-0.3,0.4-0.4,0.6c-0.1,0.4-0.2,0.9-0.4,1.3
	c-0.3,1-0.6,2-0.9,3c-0.3,1-0.7,2.1-0.9,3.2c-0.2,1-0.6,2-0.9,2.9c-0.5,1.3-1.1,2.5-1.6,3.7c-0.1,0.2-0.2,0.4-0.3,0.5
	c-0.5,0.7-0.6,1.4-0.6,2.3c0,1.5,0,3,0,4.6c0,0.2,0,0.4,0,0.7C76.5,158,76.8,158.3,77.2,158.2 M39.9,126.5c0-0.6,0.1-1.1,0.1-1.6
	c0.1-0.9,0.3-1.9,0.7-2.8c0.1-0.3,0.2-0.6,0.2-0.9c0.3-1.3,0.6-2.5,0.9-3.8c0.2-0.9,0.6-1.7,0.8-2.6c0.2-0.7,0.2-1.5-0.5-2
	c-0.2-0.1-0.2-0.4-0.3-0.6c-0.2-0.4-0.3-0.7-0.5-1c-0.4-0.7-0.6-1.6-1.2-2.2c0,0,0-0.1-0.1-0.2c-0.1-0.4-0.3-0.8-0.5-1.2
	c-0.3-0.5-0.5-1.1-0.4-1.7c0-0.2,0-0.4-0.1-0.6c-0.6-0.9-0.5-2.1-1.1-3c-0.1-0.2-0.3-0.5-0.4-0.7c-0.1-0.2-0.2-0.5-0.2-0.7
	c0.1-0.4,0-0.7-0.2-1.1c-0.4-0.8-0.5-1.6-0.6-2.5c0-0.2-0.1-0.5-0.1-0.7c-0.5-1.2-0.4-2.5-0.5-3.7c0-0.8,0-1.6-0.1-2.3
	c-0.1-1.1-0.2-2.3-0.2-3.4c0-0.6,0.1-1.2,0-1.7c-0.1-0.4,0.1-0.6,0.5-0.7c0.4-0.1,0.7,0,1,0.3c0.1,0.2,0.3,0.4,0.4,0.5
	c0.6,0.7,1.1,1.4,1.7,2c0.2,0.3,0.5,0.6,0.8,0.8c0.7,0.7,1.6,1.4,2.2,2.3c0.8,1.1,1.4,2.4,2,3.6c0.7,1.6,1.3,3.2,2,4.7
	c0.3,0.8,0.7,1.7,0.9,2.6c0.3,1.2,0.6,2.5,0.9,3.7c0,0.2,0.1,0.4,0.3,0.7c0.1-0.3,0.2-0.4,0.3-0.6c0.4-1.2,0.8-2.3,1.2-3.4
	c0.2-0.6,0.4-1.2,0.4-1.8c0-1.2-0.1-2.4-0.1-3.7c0-1.3,0.1-2.6,0-3.9c0-1.6,0-3.1-0.1-4.6c-0.1-1.9-0.4-3.8-0.3-5.8
	c0-1.2-0.1-2.5-0.2-3.7c-0.1-1.4-0.1-2.7-0.2-4.1c-0.1-1.8-0.3-3.6-0.4-5.4c0-0.5,0.1-0.9,0.1-1.4c0-1.4-0.1-2.8-0.1-4.2
	c-0.1-1.5,0.3-2.9,0.5-4.4c0.2-1,0.8-1.7,1.3-2.6c0.5-0.9,1.1-1.7,2-2.2c0.3-0.1,0.6-0.4,0.5-0.7c-0.1-0.3-0.5-0.3-0.8-0.3
	c-0.5,0-1,0-1.6,0c-1,0-1.4-0.5-1.1-1.5c0.3-1.1,0.5-2.2,0.7-3.4c0-0.2,0-0.4,0-0.7c0-0.5-0.2-0.8-0.6-1c-0.6-0.3-1.2-0.6-1.8-0.9
	c-1.2-0.6-2-1.7-2.6-2.8c-0.3-0.6-0.6-1.2-0.8-1.9c-0.1-0.1-0.1-0.3-0.1-0.4c0-1,0-2,0-3c0-0.8,0.1-1.7,0.3-2.5
	c0.3-1.3,0.3-2.7,0.4-4.1c0-0.1,0-0.2,0-0.4c-0.1-1.2-0.3-2.3-0.3-3.5c0-0.4-0.1-0.7-0.4-1c-0.3-0.3-0.3-0.5,0-0.7
	c0.2-0.2,0.5-0.3,0.8-0.5c0.7-0.3,1.1-0.9,1.4-1.5c0.4-1,0.3-2,0.2-3c0-0.6-0.5-0.8-1.1-0.6c-0.3,0.1-0.6,0.3-0.9,0.5
	c-0.2,0.1-0.4,0.3-0.6,0.4c-0.6,0.2-0.6,0.2-0.6,0.8c0,0.5,0.1,1.1-0.1,1.6c-0.8,0-1.1-0.2-1.2-1c-0.1-2.3-0.3-4.7-0.4-7
	c0-0.7-0.1-1.4-0.2-2.1c-0.1-0.6-0.3-1-0.9-1.2c-0.7-0.2-1.5-0.6-2.2-0.8c-1.1-0.4-2.3-0.8-3.4-1.2c-1-0.4-2.1-0.7-3.1-1
	c-0.9-0.3-1.8-0.5-2.8-0.7c-0.1,0-0.2,0-0.5,0.1c0.3,0.3,0.6,0.4,0.8,0.6c0.4,0.4,0.8,0.7,1.2,1.1c0.3,0.4,0.2,0.7-0.2,0.9
	c-0.2,0.2-0.5,0.3-0.8,0.4c-0.4,0.2-0.7,0.3-1,0.5c-0.8,0.5-1.8,0.8-2.7,1.1c-1.2,0.3-2.4,0.7-3.6,1c0,0-0.1,0-0.1,0
	c-0.5,0.2-0.7,0.5-0.6,1c0,0.4,0.1,0.8,0.1,1.2c0,0.6,0,1.3,0.1,1.9c0.2,1.2,0.2,2.5,0.6,3.7c0.3,1,0.4,2.1,0.6,3.1
	c0.4,1.7,1,3.4,1.5,5.1c0.6,2.1,1.6,3.9,2.7,5.7c0.1,0.1,0.2,0.2,0.2,0.3c1.3,1.3,2.5,2.8,4.3,3.7c1.1,0.6,2.3,0.9,3.5,1
	c1.1,0.1,2.1,0,3.2-0.4c0.3-0.1,0.5-0.1,0.7,0.3c-0.2,0.1-0.3,0.3-0.4,0.3c-0.7,0.4-1.5,0.7-2.4,0.7c-0.5,0-0.6,0.1-0.6,0.5
	c-0.1,1.5-0.7,2.7-1.8,3.7c-0.4,0.4-0.4,0.6,0,1c0.6,0.6,1.4,1.1,2.2,1.5c0.2,0.1,0.5,0.2,0.6,0.4c0.1,0.2,0.2,0.5,0.1,0.7
	c0,0.1-0.4,0.2-0.6,0.2c-0.3-0.1-0.6-0.2-0.9-0.4c-0.8-0.4-1.5-1-2.2-1.6c-0.4-0.4-0.9-0.5-1.5-0.2c-0.3,0.2-0.7,0.3-1,0.5
	c-0.7,0.4-1.4,0.7-2,1.1c-0.6,0.4-1.2,0.9-1.9,1.3c-1.7,0.9-2.5,2.4-3.2,4c-0.2,0.4-0.1,0.6,0.1,1c0.4,0.7,0.7,1.4,1.1,2.2
	c0.1,0.1,0.1,0.2,0.2,0.4c0.9-0.4,0.8-1.5,1.6-2.1c0.4,0.3,0.9,0.4,1.2,0.8c0.5,0.7,1,1.6,1.4,2.4c0.4,1,0.6,2.1,0.8,3.2
	c0.1,0.5,0.3,0.6,0.8,0.5c0.6-0.2,1.1-0.5,1.4-1c0.3-0.4,0.6-0.8,0.9-1.3c0.7-1.1,1.5-2.1,2.1-3.3c0.8-1.3,1.6-2.6,1.8-4.1
	c0.1-0.8,0.7-0.9,1.2-0.4c0.4,0.4,0.6,0.8,0.9,1.2c0.6,0.9,1,1.9,1.3,2.9c0.2,0.7,0.4,1.3-0.3,1.8c0,0,0,0,0,0.1
	c-0.5,0.9-1.1,1.7-1.6,2.6c-0.6,0.9-1.1,1.7-1.8,2.5c-1,1.3-2,2.6-3,3.9c-0.2,0.2-0.4,0.3-0.6,0.4c-0.2,0.1-0.4,0.2-0.6,0.4
	c-0.6,0.5-1.2,1.1-1.7,1.7c-0.8,0.8-1.7,1.7-2.5,2.5c-0.3,0.3-0.7,0.5-0.6,0.9c0.1,1.2,0.2,2.5,0.3,3.7c0,0.3,0,0.5,0,0.8
	c0.1,1.2,0.2,2.4,0.3,3.6c0.1,1.2,0.2,2.3,0.2,3.5c0,1.3-0.1,2.6,0,3.9c0,1.3,0.2,2.7,0.3,4c0.1,1.6,0.2,3.2,0.3,4.8
	c0,1.5,0.3,3.1-0.1,4.6c0,0.2,0,0.4,0.1,0.6c0.3,0.8,0.7,1.5,1.1,2.2c0.3,0.5,0.6,1,1.1,1.3c1.1,0.8,2.1,1.7,2.9,2.8
	c0.8,1.2,1.6,2.5,2.1,4c0.4,1,0.7,2.1,1,3.2c0.5,1.8,1.1,3.6,1.6,5.5c0.3,1.3,0.5,2.7,0.8,4C39.5,126.1,39.5,126.3,39.9,126.5
	 M83.3,133.1c0.1-0.4,0.2-0.6,0.2-0.8c0-1,0-2-0.1-3c-0.1-0.9-0.3-1.7-0.4-2.6c-0.1-0.5-0.2-0.9-0.3-1.4c-0.2-0.6-0.4-1.3-0.6-1.9
	c-0.3-1-0.5-1.9-0.9-2.9c-0.6-1.7-1.3-3.3-2-5c-0.4-1,0.2-2.4,1.2-2.8c0.7-0.3,1.4-0.5,2.2-0.5c1.7,0,3.3-0.2,5-0.4
	c0.6-0.1,1.1-0.2,1.7-0.4c1.3-0.4,2.2-1.3,3.3-2.1c1.3-1,2.1-2.4,2.4-4.1c0-0.3,0.1-0.6,0.3-0.8c0.2-0.3,0.2-0.6,0-0.9
	c-0.2-0.3-0.4-0.7-0.5-1c-0.2-0.7-0.7-1.2-1.3-1.5c-0.9-0.5-1.7-1.2-2.3-2c-0.4-0.5-0.9-0.9-1.3-1.4c-0.3-0.3-0.5-0.7-0.7-1
	c-0.4-0.7-0.8-1.3-1.2-2c-0.1-0.2-0.3-0.4-0.4-0.6c-1.3-2.1-2.6-4.2-4.1-6.2c-0.4-0.5-0.8-0.9-1.2-1.3c-0.8-0.6-1.6-1.2-2.4-1.8
	c-0.3-0.2-0.5-0.5-0.7-0.7c-1-1.6-1.9-3.2-2.8-4.8c-0.5-0.9-1-1.8-1.5-2.6c-0.7-1.2-1.4-2.4-2.1-3.6c-0.2-0.3-0.2-0.8-0.7-0.8
	c-0.4,0-0.6,0.5-0.7,0.8c-1.1,1.9-2.1,3.9-3.1,5.8c-0.3,0.6-0.4,1.3-0.7,2c-0.1,0.4-0.2,0.8-0.4,1.1c-0.4,0.8-0.9,1.6-1.4,2.3
	c-0.2,0.4-0.5,0.6-0.9,0.8c-0.7,0.3-1.4,0.6-2,1c-0.9,0.6-1.7,1.2-2.6,1.8c-0.3,0.2-0.5,0.5-0.5,0.9c-0.1,2-0.1,3.9-0.2,5.9
	c0,1.8,0,3.5-0.1,5.3c0,0.7,0,1.4-0.1,2.1c0,0.4,0,0.9-0.1,1.3c-0.2,1.3-0.5,2.6-0.8,3.9c-0.5,1.7-1,3.5-1.5,5.2
	c-0.1,0.4-0.2,0.8,0,1.3c0.6,1.3,1.2,2.6,1.8,3.9c0.3,0.7,0.8,1.3,1,1.9c0.8,2,1.8,3.9,2.3,5.9c0.3,1.1,0.7,2.2,0.4,3.4
	c-0.2,1-0.4,2-0.6,2.9c-0.3,1.2-1,2.2-2,2.9c-0.6,0.5-0.8,1.1-0.8,1.8c0.1,1.1,0.5,2.2,1,3.2c0.6,1.1,1.3,2.3,1.9,3.4
	c0.2,0.4,0.5,0.9,0.7,1.4c0.4,0.6,0.8,1.3,1.1,1.9c1,1.9,1.8,3.9,2.3,6c0.1,0.5,0.4,0.6,0.8,0.8c1.3,0.4,2.5,0.7,3.8,1.2
	c1.3,0.5,2.5,1.2,3.7,2c0.2,0.1,0.4,0.2,0.7,0.4c0-1.3-0.1-2.4-0.1-3.5c0-0.2-0.1-0.4-0.2-0.5c-0.5-0.5-0.6-1.2-0.7-1.9
	c-0.1-0.6-0.1-1.1-0.2-1.8c-0.1,0.1-0.2,0.2-0.3,0.2c-0.7,0.6-1.3,1.3-2,1.8c-0.5,0.4-0.8,0.3-1.2-0.3c0.2-0.2,0.4-0.4,0.5-0.6
	c0.9-0.9,1.7-1.8,2.6-2.7c0.3-0.3,0.7-0.5,1-0.8c0.3-0.2,0.5-0.1,0.6,0.1c0.1,0.2,0.2,0.5,0.2,0.7c0.1,0.6,0,1.2,0.1,1.8
	c0,0.2,0.1,0.3,0.1,0.5c0.2-0.1,0.3-0.2,0.4-0.3c0.3-0.5,0.5-0.9,0.8-1.4c0.4-0.9,0.8-1.8,1.2-2.8c0.1-0.3,0.2-0.5,0.3-0.8
	c0.3-1.1,0.5-2.2,0.8-3.3c0.4-1.5,0.9-3,1.4-4.6c0.3-0.9,0.6-1.9,0.6-2.9c0-0.3,0-0.5,0.1-0.8c0.1-0.5,0.4-0.8,0.8-1
	c0.4-0.2,0.6,0.2,0.9,0.4C82.7,132.6,82.9,132.8,83.3,133.1 M60.3,85.9c0.2,0,0.2,0,0.3-0.1c1.1-0.8,2.3-1.5,3.5-2
	c0.2-0.1,0.4-0.3,0.5-0.4c0.7-0.9,1.2-1.9,1.4-3.1c0.1-0.9,0.5-1.7,0.9-2.5c0.6-1.2,1.3-2.4,1.9-3.6c0.7-1.1,1.3-2.3,2-3.4
	c0.2-0.4,0.6-0.6,1-0.8c0.6,0.4,1,0.8,1.3,1.4c0.5,1,1.2,1.9,1.7,2.9c0.1,0.2,0.3,0.5,0.5,0.4c0.2-0.1,0.3-0.4,0.4-0.6
	c0.3-1.1,0.5-2.2,0.7-3.4c0.1-0.4,0.2-0.8,0.7-0.9c0.8,0.3,1.1,0.9,1.3,1.6c0.1,0.4,0.3,0.9,0.5,1.3c0.3,0.8,0.6,1.6,0.8,2.4
	c0.2,0.7,0.4,1.3,0.6,2c0.1-0.1,0.2-0.2,0.2-0.3c-0.1-1.4-0.2-2.8-0.2-4.3c-0.1-1.7-0.1-3.4-0.2-5.1c0-0.4,0-0.8,0-1.2
	c-0.2-1.4-0.4-2.7-0.6-4.1c-0.2-1.3-0.5-2.5-0.9-3.7c-0.1-0.3-0.3-0.7-0.4-1c-0.3-0.9-0.8-1.6-1.4-2.3c-0.8-0.9-1.9-1.5-2.9-2.2
	c-0.5-0.4-0.7-0.3-1.1,0.2c-0.4,0.6-0.8,1.1-1.3,1.7c-0.3,0.4-0.6,0.9-0.9,1.4c-0.2,0.4-0.5,0.7-0.9,0.9c-0.7-0.5-0.8-0.6-0.4-1.2
	c0.4-0.6,0.9-1.2,1.4-1.8c0.4-0.5,0.8-1,1.2-1.5c0.4-0.5,0.3-0.8-0.2-1.2c-0.6-0.5-1.2-1-1.7-1.6c-0.7-0.7-1.3-1.6-1.2-2.7
	c0-0.2-0.1-0.4-0.1-0.6c-0.1-0.7-0.2-1.3-0.2-2c0-1.5,0-1.2-1.2-1.6c-0.3-0.1-0.5-0.2-0.7-0.3c-0.4-0.3-0.3-0.5,0-0.8
	c0.3-0.3,0.7-0.2,1,0c1.1,0.4,2.2,0.5,3.4,0.4c1.5-0.2,2.7-0.7,3.7-1.9c0.2-0.3,0.4-0.5,0.7-0.8c1.4-1.6,2.3-3.4,2.8-5.4
	c0.1-0.6,0.3-1.1,0.4-1.7c0.3-1.4,0.8-2.7,0.8-4.1c0-0.8,0.1-1.7,0.1-2.6c0-0.3,0.1-0.5,0.1-0.8c0-0.9,0-1.8-0.1-2.8
	c0,0,0-0.1,0-0.1c-0.1-0.3-0.3-0.4-0.6-0.4c-1.3,0.3-2.5,0.7-3.8,0.7c-0.1,0-0.3,0.1-0.4,0.1c-0.8,0-1.5,0-2.3,0
	c-0.2,0-0.4,0-0.6-0.1c-2.2,0-4.3-0.2-6.4-0.7c-0.1,0-0.3,0-0.5,0c-0.1,0.5-0.2,0.9-0.2,1.4c0,0.3,0,0.6-0.1,0.9
	c-0.1,1-0.3,2-0.3,3.1c-0.1,0.9-0.1,1.8-0.1,2.7c0,1.3-0.1,2.6-0.2,3.9c0,1.2,0,2.4,0,3.6c0,1.7-0.1,3.3-0.2,5c0,1.2,0,2.3,0.1,3.5
	c0,1,0.1,2,0.1,3c0,1,0.1,2.1-0.2,3.1c-0.1,0.3-0.2,0.6-0.2,0.9c0,0.3-0.2,0.6-0.5,0.6c-1,0.1-2,0.7-3.1,0.6c-0.3,0-0.7,0.1-1,0.2
	c-0.4,0.1-0.5,0.3-0.4,0.7c0.1,0.4,0.1,0.8,0.2,1.2c0.2,1.7,0.4,3.5,0.6,5.2c0.2,1.6,0.4,3.2,0.5,4.7c0.1,1.7,0.3,3.4,0.4,5.1
	c0.1,2,0.3,4,0.3,6c0.1,2.7,0,5.4,0.1,8.1C60.2,85.1,60.2,85.5,60.3,85.9 M24.5,153.5c0.4-0.1,0.5-0.5,0.6-0.7
	c0.9-1.5,1.8-3,2.7-4.5c0.8-1.3,1.5-2.6,2.2-4c0.4-0.8,0.9-1.5,1.3-2.2c0.9-1.7,2-3.2,3.2-4.7c0.6-0.8,1.3-1.6,1.8-2.4
	c0.8-1.2,1.5-2.5,2.6-3.4c0.3-0.3,0.4-0.7,0.2-1c-0.3-0.5-0.4-1.1-0.6-1.7c-0.4-1.6-0.7-3.2-1.1-4.8c-0.4-1.5-0.7-3-1.2-4.5
	c-0.3-1-0.7-1.9-0.9-2.9c-0.4-1.9-1.2-3.7-2.1-5.4c-0.7-1.3-1.5-2.3-2.7-3.1c-1-0.7-1.9-1.5-2.3-2.8c-0.3-1-0.9-2-1.7-2.7
	c-0.8-0.8-1.6-1.5-2.5-2.3c0,0-0.1,0-0.1,0c0,0-0.1,0.1-0.1,0.1c-0.3,1.8-0.6,3.6-0.9,5.4c0,0.3-0.1,0.7,0,1c0,0.3,0,0.5-0.3,0.7
	c-0.3,0.3-0.6,0.5-1,0.7c-0.7,0.3-1.5,0.6-2.3,0.8c-1,0.3-1.6,0.9-2,1.7c-0.7,1.3-1.3,2.7-1.9,4.1c-0.5,1.3-1,2.7-2.2,3.6
	c-0.7,0.6-0.7,1.5-0.9,2.3c0,0.1,0,0.2,0,0.2c0.2,0.6,0.4,1.3,0.7,1.9c0.7,1.5,2,2.5,3.3,3.3c0.3,0.2,0.6,0.3,0.8,0.5
	c0.9,0.8,2.1,1.2,3.2,1.7c1.4,0.6,2.2,1.8,2.6,3.1c0.3,1.1,0.4,2.3,0.5,3.5c0.1,1,0.2,2,0.3,3c0.1,0.9,0.3,1.9,0.2,2.8
	c-0.1,1.8,0,3.6,0.1,5.4c0,1.6,0.1,3.2,0.2,4.8C24.5,151.7,24.5,152.6,24.5,153.5 M71.9,21.1c1-0.1,2-0.1,2.9-0.2
	c1.7-0.2,3.3-0.5,4.9-1.1c0.5-0.2,0.8-0.5,0.8-1c0-0.2,0-0.4,0-0.7c-0.1-1.4-0.3-2.8-0.7-4.1c-0.1-0.5-0.3-1-0.5-1.3
	c-0.9-1.2-1.8-2.4-3.1-3.2c-1.6-0.9-3.1-2-4.9-2.4c-0.5-0.1-1.1-0.4-1.6-0.5c-1.8-0.4-3.6,0-5.4,0.2c-0.1,0-0.1,0-0.2,0.1
	c-1.7,0.7-3.4,1.3-4.9,2.3c-0.6,0.4-1.3,0.9-1.7,1.5c-1.2,1.6-2.1,3.3-2.6,5.3c-0.3,1.1-0.7,2.2-0.8,3.3c-0.2,1.4-0.7,2.8-0.6,4.2
	c0,0.2,0,0.3-0.1,0.5c-0.4,1.7-0.6,3.5-0.8,5.3c-0.2,1.7-0.4,3.3-0.3,5c0,0.1,0,0.2,0,0.3c-0.1,1.4-0.1,2.7-0.2,4.1
	c0,1.6-0.1,3.2-0.1,4.8c0,0.9-0.2,1.7-0.2,2.6c0,0.6,0,0.6,0.6,0.8c1.3,0.6,2.6,1.2,3.8,2.1c0.3,0.2,0.5,0.5,0.6,0.8
	c0.4,0.7,0.8,1.5,1.1,2.2c0.2,0.4,0.4,0.6,0.8,0.5c0.8,0,1.6-0.1,2.4-0.2c0.6-0.1,0.9-0.5,1-1c0.1-0.5,0.2-1.1,0.2-1.6
	c0-1.5,0-3,0-4.5c0-1.5-0.2-3-0.1-4.5c0.1-2.3,0.3-4.5,0.2-6.8c0-0.2,0-0.3,0-0.5c0-0.6,0-1.1,0-1.7c0-0.2,0-0.4,0-0.6
	c0.1-1.1,0.1-2.1,0.2-3.1c0-0.7,0-1.4,0.1-2.1c0.2-1.6,0.4-3.1,0.7-4.7c0.2-1.4,0.5-2.7,0.8-4c0.1-0.4,0.3-0.8,0.6-1.1
	c0.1-0.2,0.5-0.3,0.6-0.2c0.2,0.1,0.4,0.4,0.4,0.6c0,0.2-0.1,0.5-0.2,0.7c-0.1,0.5-0.3,0.9-0.4,1.4c-0.1,0.3-0.1,0.5-0.2,0.8
	c-0.2,0.7-0.1,0.9,0.7,1.1c0.7,0.1,1.4,0.1,2.1,0.3C69,20.9,70.5,21,71.9,21.1 M14.1,133c-0.1,0-0.1-0.1-0.2-0.1
	c-0.2,0.2-0.4,0.4-0.5,0.6c-0.2,0.2-0.4,0.5-0.6,0.7c-1.1,1.1-2.3,2.2-3.4,3.2c-1.4,1.3-2.6,2.6-3.5,4.2c-1.1,1.8-2,3.8-2.5,5.8
	c-0.5,1.7-0.8,3.3-1.4,5c-0.4,1.2-0.4,2.3-0.5,3.5c0,0.6,0,1.2,0.1,1.8c0.2,1.8,0.5,3.6,0.7,5.4c0.1,0.9,0.1,1.7,0.5,2.6
	c0.5,1.3,1,2.7,1.5,4.1c0.5,1.2,1.1,2.2,1.7,3.3c1.1,2,2.6,3.6,4.1,5.3c0.6,0.7,1.4,1.2,2.2,1.8c1.1,0.8,2.1,1.6,3.3,2.3
	c1.2,0.7,2.4,1.2,3.8,1.6c0.9,0.3,1.2,0.1,1.4-0.8c0.3-1.1,1-2,1.4-3c0.1-0.3,0.4-0.5,0.6-0.7c0.5-0.3,0.6-0.8,0.5-1.3
	c-0.1-0.8-0.2-1.7-0.2-2.5c0-0.7,0.1-1.4,0-2.1c-0.2-2.6-0.1-5.2-0.1-7.8c0-1.3,0-2.6-0.1-3.9c0,0,0-0.1-0.1-0.2
	c-0.1,0.3-0.3,0.6-0.3,0.8c-0.3,0.8-0.5,1.6-0.7,2.4c-0.3,1.1-0.5,2.2-0.7,3.3c-0.2,1.2-0.3,2.4-0.4,3.6c-0.2,1.3-0.2,2.5,0.1,3.7
	c0.1,0.5,0.1,1.1,0.2,1.7c0,0.7-0.4,0.9-1,0.7c-0.1,0-0.2-0.1-0.3-0.2c-1-0.5-1.7-1.3-2.4-2.2c-0.4-0.4-0.7-0.9-1.3-1.2
	c-0.2-0.1-0.4-0.4-0.6-0.6c-1.2-1.4-1.9-3.1-2.7-4.7c-0.8-1.7-1.4-3.6-1.8-5.5c-0.5-2.4-0.8-4.8-1.1-7.2c0,0,0-0.1,0-0.1
	c0.1-1.6-0.3-3.3,0-4.9c0-0.3,0.1-0.6,0.1-0.9c0.1-0.8,0.2-1.6,0.2-2.4c0-0.8,0-1.7,0.2-2.5c0.3-1.4,0.6-2.7,0.9-4.1
	c0.3-1.2,0.7-2.4,1.1-3.5c0.6-1.5,1.3-2.9,2-4.4C14.1,133.4,14.1,133.2,14.1,133 M57.9,90.3c-0.1,0-0.1,0-0.2,0
	c-0.1,0.2-0.3,0.3-0.4,0.5c-1.1,1.7-2.2,3.4-3.1,5.2c-0.5,1.1-1,2.2-1.6,3.2c-0.2,0.4-0.4,0.8-0.5,1.2c-0.3,1.7-0.5,3.4-0.6,5.2
	c0,1.8-0.3,3.7,0,5.5c0.1,0.6-0.2,0.9-0.7,1c-0.6,0.1-1.2,0.1-1.7,0.1c-0.3,0-0.5,0.1-0.6,0.4c-0.1,1.1-0.3,2.3-0.4,3.4
	c0,0.3-0.1,0.6-0.1,0.9c0,1.1-0.6,2.1-0.1,3.2c0,0.1,0,0.1,0,0.2c0,0.8-0.1,1.6-0.5,2.3c-0.1,0.3-0.3,0.6-0.6,0.7
	c-0.5,0.2-0.7,0.5-0.8,0.9c-0.1,0.2-0.2,0.4-0.3,0.5c-0.9,1.7-2.1,3.2-3.2,4.6c-0.3,0.4-0.6,0.8-0.9,1.3c-0.1,0.2-0.3,0.6-0.2,0.8
	c0.4,1,0.8,1.9,2.1,2.1c0.7,0.1,0.9,0.5,0.9,1.2c0,0.6,0.2,1.2,0.6,1.7c0.5,0.7,1.2,1,2,1.3c0.4,0.2,0.8,0.1,1.2,0
	c0.5-0.2,0.9-0.5,1.1-1c0.4-0.8,0.7-1.7,1-2.6c0.2-0.5-0.1-1-0.6-1.3c-0.4-0.2-0.8-0.4-1.2-0.6c-0.3-0.1-0.5-0.3-0.5-0.6
	c0-0.4,0.3-0.6,0.6-0.7c0.7-0.2,1.4-0.4,2.1-0.4c0.6,0,1.2-0.1,1.8,0.3c0.7,0.4,0.8,1,0.2,1.4c-0.8,0.6-1,1.3-0.9,2.2
	c0.1,1.7,1.2,2.4,2.6,2.7c0.1,0,0.3,0,0.4-0.1c0.6-0.3,1.1-0.7,1.3-1.3c0.3-1,0.6-2,0.2-3c-0.2-0.5,0.1-0.8,0.6-0.7
	c0.4,0.1,0.8,0.3,0.9,0.8c0.1,0.3,0.1,0.6,0.2,0.9c0.1,0.3,0.3,0.5,0.6,0.3c0.2-0.1,0.3-0.2,0.5-0.3c0.6-0.6,1.2-1.3,1.3-2.2
	c0.1-0.5,0.3-0.9,0.4-1.4c0.2-1.1,0.3-2.1,0-3.2c-0.4-1.4-0.7-2.8-1.2-4.1c-0.5-1.1-0.9-2.3-1.5-3.4c-0.8-1.6-1.6-3.1-2.3-4.7
	c-0.4-0.9-0.5-1.8-0.2-2.8c0.3-0.8,0.5-1.6,0.7-2.5c0.4-1.6,0.8-3.1,1.2-4.7c0.1-0.2,0.1-0.5,0.2-0.7c0.1-2.2,0.2-4.5,0.3-6.7
	c0-1,0.2-2.1,0.1-3.1C57.9,93.1,58,92,58,91C58,90.8,57.9,90.6,57.9,90.3 M44.9,164.5c0.3,0.1,0.5,0.1,0.8,0.2
	c0.3,0.1,0.6,0.1,0.8,0.2c0.6,0.2,0.8,0.9,0.3,1.3c-0.7,0.5-1.4,1.1-2.2,1.4c-1.5,0.6-2.8,1.4-4.2,2.3c-0.2,0.1-0.3,0.2-0.2,0.5
	c0.4,0,0.8,0.1,1.3,0.2c0.4,0.1,0.5,0.2,0.6,0.6c0.1,0.6,0,1.1-0.6,1.3c-0.2,0.1-0.4,0.2-0.5,0.4c-0.6,0.7-1.4,1.2-2.2,1.6
	c-0.2,0.1-0.5,0.2-0.4,0.6c0.2,0,0.4,0,0.5,0c0.3,0,0.6,0,0.9,0c0.5,0.1,0.7,0.3,0.6,0.8c-0.1,0.5-0.3,1-0.5,1.4
	c-0.6,1.2-1.6,2.1-2.5,3.1c-0.7,0.7-1.1,1.4-1,2.4c0,0.4,0,0.7,0,1.1c0.3,0,0.6,0,0.8,0c0.6,0,1.2,0,1.8,0c1.1,0,2.3,0,3.4,0
	c0.8,0,1.6,0,2.4,0c1.6,0,3.2,0,4.8,0c2.1,0,4.2,0,6.3,0c1.9,0,3.8,0,5.6-0.2c0.3,0,0.6,0,0.7-0.4c0.1-0.4,0.2-0.9,0.2-1.3
	c0-0.4-0.2-0.5-0.6-0.4c-0.3,0.1-0.6,0.2-0.9,0.4c-1.1,0.4-2.1,0.7-3.3,0.4c-1-0.2-1.2-0.6-1.2-1.4c0-0.2,0-0.4,0-0.6
	c0-0.9,0.1-1.9,0.1-2.8c0-1.8-0.1-3.7-0.2-5.5c-0.1-1.2-0.1-2.5-0.2-3.7c0-0.7-0.1-1.5-0.1-2.2c0-0.8,0-1.6,0-2.4
	c-0.2-2.4-0.5-4.7-0.7-7.1c0-0.3-0.2-0.5-0.4-0.5c-0.8-0.2-1.5,0-2.4,0.4c0.3,0.2,0.4,0.3,0.6,0.4c0.4,0.2,0.9,0.4,1.3,0.6
	c0.5,0.3,0.5,0.7,0.5,1.1c0,0.5-0.4,0.5-0.8,0.6c-0.1,0-0.3,0.1-0.4,0.1c-1.3,0.2-2.5,0.6-3.8,1.1c-1.7,0.7-3.1,1.8-4.5,2.9
	C45,163.8,44.8,164.1,44.9,164.5 M30.1,160.9c0.4-0.2,0.4-0.2,0.6-0.5c0.8-1.6,2-2.9,3.2-4.2c0.7-0.7,1.4-1.4,2.2-1.8
	c0.7-0.4,1-0.9,1.2-1.6c0.2-0.8,0.5-1.5,0.7-2.2c0.4-1.5,1.3-2.8,1.9-4.1c0.2-0.4,0.4-0.8,0.7-1.2c0.7-1.2,1.5-2.3,2-3.7
	c0.6-1.6,0.8-3.2,0.7-4.9c0-0.4-0.2-0.9-0.5-1.2c-0.9-0.8-1.9-1.6-2.4-2.8c0,0,0,0-0.1,0c-0.1,0-0.2,0.1-0.3,0.1
	c-0.5,0.6-1.1,1.2-1.6,1.9c-0.5,0.9-1.1,1.7-1.8,2.5c-0.9,1.2-1.8,2.5-2.7,3.7c-0.7,1-1.3,2-1.9,3c-0.7,1.2-1.3,2.4-2,3.5
	c-1,1.8-2.1,3.6-3.1,5.3c-0.3,0.6-0.7,1.1-1,1.7c-0.4,0.7-0.8,1.5-1.2,2.3c-0.2,0.3-0.3,0.7-0.3,1c-0.1,0.8-0.2,1.5,0,2.3
	c0.1,0.2,0,0.4,0,0.7c0,1.7-0.1,3.5-0.1,5.2c0,1.8,0,3.6,0,5.4c0,1.3,0,2.7,0,4c0.1,1.4,0.3,2.7,0.4,4.1c0.1,0.7-0.1,1-0.7,1.3
	c-0.3,0.1-0.6,0.3-0.7,0.5c-0.5,0.7-0.9,1.5-1.3,2.3c-0.1,0.2-0.1,0.5-0.2,0.9c0.8,0.1,1.6,0.2,2.3,0.2c0.4,0,0.8,0.1,1.2,0.1
	c0.9,0,1.7-0.1,2.6-0.2c0.3,0,0.5-0.2,0.4-0.5c-0.1-0.8-0.1-1.7-0.2-2.5c0-0.5-0.1-1.1-0.2-1.6c0-1.5-0.1-3-0.1-4.6
	c0-2.5-0.1-5,0.5-7.4c0.1-0.3,0-0.7,0-1.1c0-0.6-0.1-1.2-0.1-1.7c0-1.6,0.1-3.2,0.1-4.8c0-0.5-0.1-1-0.1-1.5c0-1.2-0.1-2.5-0.1-3.8
	c0-0.5,0.4-1,0.9-1c0.3,0,0.7,0.3,0.8,0.8c0,0.1,0,0.3,0,0.4c0,1.7,0,3.5,0,5.3C30.1,160.5,30.1,160.7,30.1,160.9 M39,152.6
	c0.1,0,0.2,0.1,0.2,0.1c0.5-0.1,1.1-0.2,1.6-0.3c0.6-0.1,1.1,0.1,1.1,0.8c0.1,0.6,0,0.7-0.6,0.9c-0.9,0.2-1.7,0.4-2.5,0.8
	c-0.4,0.2-0.6,0.4-0.7,0.8c-0.3,1.6-0.6,3.2-0.8,4.8c-0.3,1.9-0.4,3.8-0.7,5.8c0,0.1,0,0.2,0,0.4c0,1,0,2,0,3
	c-0.1,1.5-0.2,3.1-0.2,4.6c0,0.1,0,0.3,0.1,0.5c0.5-0.4,1-0.8,1.4-1.2c0.5-0.4,0.9-0.7,1.4-1.1c0.1-0.1,0.3-0.4,0.3-0.5
	c0-0.3-0.3-0.3-0.5-0.3c-0.3,0-0.7-0.1-1-0.1c-0.2,0-0.6-0.1-0.6-0.2c0-0.2,0.1-0.5,0.2-0.7c0.1-0.1,0.2-0.2,0.3-0.3
	c0.8-0.7,1.6-1.3,2.4-1.9c0.6-0.4,1.2-0.8,1.8-1.2c0.5-0.3,1.1-0.5,1.7-0.8c0.1,0,0.2-0.2,0.3-0.3c-0.1-0.1-0.2-0.2-0.4-0.3
	c-0.3-0.1-0.7-0.2-1-0.3c-0.4-0.2-0.5-0.4-0.3-0.7c0.2-0.4,0.5-0.7,0.8-1c0.6-0.5,1.2-0.9,1.8-1.5c1.7-1.7,3.7-2.7,5.9-3.6
	c0.2-0.1,0.4-0.2,0.7-0.4c-0.3-0.2-0.5-0.4-0.7-0.4c-0.6-0.3-1.2-0.5-1.8-0.8c-0.2-0.1-0.4-0.2-0.4-0.5c0-0.5,0.5-1,1-1
	c0.8-0.1,1.5-0.1,2.3-0.2c0.3,0,0.5-0.1,0.8-0.2c0.5-0.1,1.1-0.2,1.6-0.3c0.1,0,0.2-0.1,0.3-0.2c0-0.1-0.1-0.2-0.1-0.2
	c-1.2-1-2.5-1.8-4.1-2.1c-0.4-0.1-0.7-0.2-1-0.3c-0.3-0.2-0.3-0.4-0.1-0.7c0.4-0.4,0.9-0.6,1.5-0.4c0.9,0.3,1.7,0.6,2.6,0.9
	c0.3,0.1,0.5,0.3,0.7,0.3c0.3,0.1,0.5-0.1,0.4-0.4c-0.6-1.7-1.1-3.4-1.9-5c-0.6-1.4-1.5-2.7-2.2-4c-0.5-0.9-1.3-1.7-2.1-2.4
	c-0.8-0.8-1.9-1.3-2.9-1.7c-0.4-0.2-0.6,0-0.8,0.4c-0.2,0.5-0.3,1.1-0.5,1.6c-0.5,1.7-1.5,3.1-2.3,4.7c-0.8,1.6-1.6,3.2-2.3,4.8
	C39.2,151.1,39,151.8,39,152.6 M51.1,96.6c0.1,0,0.2,0,0.2,0c0.1-0.2,0.1-0.4,0.2-0.6c0.2-0.8,0.3-1.5,0.6-2.3
	c0.7-1.9,1.4-3.7,2.1-5.6c0.1-0.3,0.3-0.6,0.5-0.8c0.4-0.6,0.8-1.2,1.3-1.8c0.5-0.6,1.1-1.1,1.9-1.3c0.2-0.1,0.4-0.1,0.6-0.2
	c0.4-0.1,0.5-0.4,0.5-0.7c0-0.8,0-1.6,0-2.4c0-1.3,0-2.7-0.1-4c0-1.2,0-2.4-0.1-3.5c-0.1-1.3-0.4-2.5-0.3-3.8c0-1.3-0.2-2.6-0.3-3.9
	c-0.2-2.7-0.5-5.4-0.8-8c-0.1-1.1-0.3-2.2-0.4-3.3c-0.1-0.5-0.3-0.6-0.8-0.7c-0.4,0-0.7,0-1.1-0.1c-0.4,0-0.6,0.1-0.9,0.4
	c-0.4,0.5-0.9,1-1.4,1.4c-0.2,0.2-0.3,0.3-0.4,0.5c-1.3,1.6-2,3.4-2.2,5.4c-0.3,3.2-0.1,6.4,0.1,9.5c0.1,2.3,0.3,4.6,0.4,7
	c0.1,1.2,0.1,2.5,0.2,3.8c0.1,1.9,0.3,3.9,0.3,5.9c0.1,2.1,0.1,4.2,0.1,6.3C51.1,94.8,51.1,95.7,51.1,96.6 M94.4,141.3
	c0.1-1.7-0.3-3.3-0.9-4.6c-0.6-1.2-2.2-2-3.5-1.5c-1.3,0.5-2.4,1.5-3,2.8c-0.4,0.9-0.7,1.9-1.2,2.8c-0.5,0.9-1,1.8-1.5,2.7
	c-0.1,0.1-0.1,0.2-0.2,0.3c-0.4,1.2-0.9,2.5-1.3,3.7c-0.3,0.7-0.6,1.5-0.8,2.2c-0.4,1.3-0.8,2.7-1.2,4c-0.3,1.1-0.6,2.2-1,3.2
	c-0.2,0.6,0,1,0.4,1.5c1,1,1.8,2.1,2.8,3.1c0.1,0.1,0.2,0.3,0.3,0.3c0.2,0.1,0.4,0.2,0.5,0.2c0.1,0,0.2-0.3,0.3-0.4
	c0-0.3,0-0.6,0-0.9c-0.1-0.5,0.1-0.8,0.4-1.1c0.2-0.2,0.4-0.3,0.7-0.1c0.4,0.3,0.6,0.6,0.8,1c0.3,0.6,0.5,0.6,0.9,0.1
	c0.5-0.8,1-1.6,1.5-2.3c0.4-0.6,0.8-1.2,1.1-1.9c0.8-1.7,1.5-3.3,2.2-5.1c0.7-1.9,1.3-3.8,2-5.7C94.1,144.2,94.2,142.5,94.4,141.3
	 M22,73.3c-0.1-3.5-0.2-6.9-0.3-10.2c0,0,0,0-0.1,0c-0.1,0.1-0.2,0.1-0.3,0.2c-1.1,0.8-2.4,1.4-3.7,1.8c-0.8,0.2-1.1,0.1-1.5-0.6
	c0.3-0.4,0.7-0.7,1.3-0.8c1.5-0.2,2.7-1.1,3.9-1.9c0.4-0.3,0.4-0.5,0.1-0.9c-0.2-0.4-0.4-0.8-0.6-1.2c-0.2-0.4-0.4-0.9-0.5-1.4
	c-0.5-1.2-1.3-2.2-2.3-3c-1-0.8-2.2-1.3-3.4-1.9c-0.9-0.4-1.7-0.2-2.5,0.4c-0.2,0.2-0.5,0.4-0.8,0.6c-0.9,0.5-1.4,1.3-1.8,2.3
	C9.1,57.9,9,59.3,9,60.7c0,1.8,0.4,3.5,1.1,5.1c0.5,1.2,1.1,2.3,1.7,3.4c0.4,0.7,1.1,1.1,1.6,1.7c0.1,0.1,0.2,0.1,0.3,0.1
	c0.5,0.2,1,0.4,1.5,0.7c0.6,0.2,1.3,0.5,1.9,0.7c0.4,0.1,0.8,0.2,1.1,0.3c1,0.4,2,0.6,3,0.7C21.4,73.3,21.6,73.3,22,73.3
	 M85.3,171.3c0.4,0.8,0.7,1.5,0.9,2.2c0.1,0.2,0.2,0.5,0.1,0.6c-0.5,0.5-0.9,1-1.7,1.2c-0.9,0.1-1.8,0-2.6-0.1c-0.3,0-0.6,0-0.9-0.1
	c0,0,0,0.1-0.1,0.2c0.7,0.8,1.4,1.5,2.1,2.3c-0.2,0.2-0.4,0.4-0.4,0.6c-0.2,0.7-0.7,0.7-1.2,0.7c-0.8,0-1.5-0.1-2.3,0
	c-0.7,0.1-1.2-0.2-1.7-0.7c-0.3-0.4-0.2-0.8,0.3-0.9c0.3,0,0.6,0,0.9,0c0.7,0.1,1.3-0.1,2-0.1c-0.4-0.6-0.9-0.8-1.4-0.9
	c-0.8-0.2-1.3-0.7-1.6-1.5c0.1-0.1,0.3-0.3,0.5-0.4c0.5-0.2,1.1-0.4,1.7-0.5c0.8-0.2,1.6,0,2.4,0.1c0.5,0,0.9,0.1,1.4,0
	c0.4,0,0.5-0.3,0.5-0.7c0-0.2-0.1-0.4-0.2-0.6c-0.3-0.4-0.5-0.9-0.8-1.3c-0.2-0.3-0.5-0.6-0.7-1c-0.2-0.4,0-0.7,0.4-0.7
	c0.3,0,0.5,0,0.8,0c1.2,0,2.3,0.3,3.5-0.2c0.6-0.2,0.7-0.3,0.5-0.8c-0.5-1.2-1-2.3-1.5-3.4c-0.1-0.1-0.2-0.3-0.2-0.4
	c-0.3-0.3-0.6-0.2-0.7,0.2c-0.1,0.3-0.1,0.5-0.2,0.8c-0.1,0.2-0.2,0.5-0.4,0.7c-0.1,0.1-0.4-0.1-0.6-0.1c-0.6,0.7-1.2,1.3-1.7,2
	c-1.8,2.3-3.8,4.4-5.7,6.6c-0.3,0.3-0.5,0.6-0.4,1.1c0,0.6,0.1,1.2,0.2,1.8c0,0.4,0.2,0.8,0.7,0.9c0.4,0.1,0.7,0.4,1.1,0.5
	c0.6,0.3,1.1,0.7,1.4,1.3c0.6,1,1.1,2.1,1.2,3.3c0.5,0,1,0.1,1.6,0.1c0.8,0,1.7,0.1,2.5,0c1.1-0.1,2.1-0.1,3.1,0
	c0.3,0,0.6,0.1,0.9,0c0.9-0.1,1.8-0.3,2.8-0.4c1.3-0.2,2.7-0.1,4-0.7c0.5-0.2,1-0.3,1.5-0.5c0.4-0.2,0.8-0.5,1.1-0.8
	c0.5-0.6,0.3-1-0.4-1.2c-0.6-0.2-1.3-0.3-1.8-0.6c-0.9-0.6-1.8-1.3-2.7-2c-0.5-0.4-0.9-0.8-1.3-1.3c-0.7-0.8-1.2-1.7-1.9-2.6
	c-0.1-0.1-0.1-0.2-0.2-0.3c-0.3-0.7-0.8-1.3-1.3-2c-0.3-0.3-0.6-0.5-1-0.5C87.2,171.1,86.4,171.2,85.3,171.3 M41,128.7
	c0,0,0.1,0.1,0.2,0.1c0.2-0.1,0.3-0.2,0.5-0.4c0.7-0.9,1.3-1.7,2-2.6c1.2-1.7,1.9-3.7,2.5-5.7c0.5-1.9,0.8-3.8,0.9-5.7
	c0-0.3,0.1-0.5,0.1-0.7c0-0.6,0.1-1.1,0.1-1.7c0-1.1-0.1-2.3-0.2-3.4c0-0.5,0-1.1-0.2-1.6c-0.2-0.4-0.2-0.9-0.3-1.3
	c-0.2-1.1-0.3-2.2-0.5-3.3c0-0.1-0.1-0.3-0.2-0.4c-0.3-0.4-0.6-0.9-0.6-1.4c0-0.2,0-0.4-0.1-0.5c-0.5-1.2-1.1-2.5-1.6-3.7
	c-0.3-0.7-0.7-1.4-0.9-2.2c-0.4-1.2-1.2-2.3-2-3.2c-1-1.1-2-2.2-3-3.3c-0.1-0.1-0.2-0.2-0.3-0.2c-0.4,0.2-0.3,0.6-0.3,0.9
	c0.1,1.8,0.3,3.7,0.4,5.5c0,1,0.2,2,0.5,3c0.4,1,0.5,2.1,0.7,3.2c0.1,0.7,0.3,1.3,0.5,1.9c0.4,1.2,0.9,2.3,1.3,3.4
	c0.6,1.8,1.2,3.5,2.2,5.1c0.7,1.1,1.2,2.3,1.3,3.5c0,0.4,0.1,0.9,0,1.4c-0.3,1.2-0.5,2.5-0.9,3.6c-0.8,2.3-1.4,4.6-1.5,7
	C41.2,126.9,41.1,127.8,41,128.7 M41,5c-0.5-0.1-0.9-0.2-1.3-0.2C38.1,4.5,36.6,4.2,35,4c-0.9-0.2-1.7-0.4-2.6-0.6
	c-0.4-0.1-0.9-0.2-1.4,0c0.1,0.3,0.2,0.6,0.3,0.8C31.5,4.7,31.4,4.9,31,5c-0.1,0-0.3,0-0.4,0.1c-1.9,0.3-3.9,0.2-5.8,0.6
	c-0.5,0.1-1,0.2-1.5,0.2c-0.4,0-0.9,0-1.4-0.1c-0.6-0.1-1.3-0.3-2-0.1c0,0.2,0,0.4,0.1,0.6c0.1,0.3,0.3,0.6,0.5,0.8
	C20.8,7.5,20.9,8,21,8.5c-0.2,0.1-0.3,0.1-0.4,0.1c-1.1,0.1-2.2,0.1-3.3-0.2c-0.5-0.2-1.1-0.3-1.7-0.2c0.1,0.2,0.2,0.4,0.3,0.4
	c1.5,0.7,3,1.5,4.6,1.8c0.8,0.1,1.1,0.5,1.2,1.2c-0.4,0.5-1.1,0.5-1.5,1.2c0.5-0.1,0.9-0.1,1.3-0.2c1.3-0.4,2.6-0.8,3.9-1.1
	c1.1-0.3,2.2-0.8,3.2-1.4c0.1-0.1,0.2-0.2,0.3-0.3c-1-0.8-2-1.6-2.9-2.3c-0.2-0.1-0.4-0.4-0.3-0.5c0.1-0.2,0.4-0.4,0.6-0.5
	c0.1-0.1,0.3,0,0.4,0c0.6,0.1,1.1,0.2,1.7,0.3c0.9,0.2,1.8,0.4,2.7,0.7c0.6,0.1,1.3,0.2,1.9,0.4c1.5,0.5,3.1,1.1,4.6,1.7
	c1.4,0.5,2.8,1.1,4.1,1.7c0.4,0.2,0.9,0.6,1,1.2c0.1,2,0.3,3.9,0.4,5.9c0,0.3,0.1,0.7,0.1,1.1c0.9-0.4,1.7-0.7,2.4-1v-1.3
	c0-0.6,0.1-1.2,0-1.8c-0.1-1.9-0.2-3.8-0.4-5.6c0-0.7-0.1-1.4-0.2-2c0-0.2-0.1-0.4-0.2-0.6c-0.2,0-0.2,0-0.3,0.1
	c-0.7,0.1-1,0-1.3-0.8c-0.1-0.3-0.2-0.7-0.4-0.9c-0.6-0.9-1.3-1.8-1.9-2.6c-0.1-0.1-0.3-0.2-0.5-0.4C40.7,3.4,41.1,4.1,41,5
	 M64.9,155.4c0-0.5-0.2-0.7-0.5-0.9c-0.5-0.5-0.5-0.5-0.1-1.1c0.2-0.2,0.3-0.4,0.2-0.7c-0.4-1.1-0.7-2.3-1.1-3.3
	c-0.7-1.6-1.5-3.1-2.3-4.7c-0.1-0.1-0.2-0.3-0.2-0.4c-0.5-0.9-1.1-1.8-1.7-2.8c-0.8-1.3-1.5-2.7-1.7-4.3c0-0.4-0.3-0.5-0.6-0.2
	c-0.4,0.3-0.8,0.6-1.1,0.8c-0.6,0.4-1.3,0.6-2,0.3c-0.8-0.3-1.7-0.4-2.3-1c-0.2-0.2-0.5-0.3-0.7,0c-0.6,0.6-1.1,1.3-1.7,1.9
	c0,0.1,0.1,0.1,0.1,0.2c1.4,1.1,2.4,2.6,3.3,4.1c0.9,1.6,1.7,3.2,2.3,4.9c0.6,1.8,1.4,3.5,1.6,5.4c0.1,0.9,0.5,1.2,1.4,1.2
	c0.7,0,1.3,0.1,2,0.1c1.1-0.1,2.2,0,3.3,0.2C63.6,155.3,64.3,155.3,64.9,155.4 M36.4,156.2c-0.1,0-0.1-0.1-0.2-0.1
	c-0.2,0.2-0.5,0.4-0.7,0.6c-2.5,2.1-4,4.7-4.8,7.9c-0.3,1.3-0.5,2.5-0.7,3.8c-0.1,0.8-0.3,1.5-0.3,2.3c-0.1,1.9-0.1,3.8-0.1,5.7
	c0,1,0,2,0.1,3c0.1,1.4,0.1,2.8,0.2,4.2c0.1,0.7,0.4,0.9,1,0.5c1.2-0.8,2.3-1.7,3.5-2.5c0.3-0.2,0.4-0.5,0.4-0.8
	c0-1.3,0.1-2.5,0.1-3.7c0.1-1.6-0.2-3.3,0-4.9c0-0.2,0-0.3,0-0.5c0.1-1.8,0.1-3.6,0.2-5.4c0.1-1.4,0.3-2.9,0.4-4.3
	c0.1-1.3,0.3-2.6,0.5-3.9c0.1-0.5,0.2-0.9,0.3-1.4C36.4,156.5,36.4,156.3,36.4,156.2 M66.8,154.4c-0.2,0.4,0,0.6,0.1,0.8
	c0.2,0.3,0.5,0.5,0.7,0.8c0.3,0.4,0.3,1-0.1,1.2c-0.5,0.3-0.5,0.7-0.5,1.2c0.1,1.7,0.2,3.3,0.3,5c0.1,1.4,0.1,2.8,0.2,4.3
	c0,1.1,0.1,2.2,0.1,3.2c0,1.1,0.1,2.1,0.1,3.2c0,0.3,0,0.6,0.3,0.8c0.6-0.4,0.9-0.7,1.3-1.2c0.2-0.3,0.3-0.6,0.5-0.8
	c1.7-2,3.1-4.2,4.5-6.5c0.2-0.4,0.3-0.8,0.3-1.3c0-1.5,0-3,0.1-4.5c0-0.5,0-0.9,0-1.4c0-0.5-0.2-0.9-0.6-1.1
	c-0.9-0.5-1.8-1.1-2.7-1.6C70,155.7,68.4,154.9,66.8,154.4 M23.3,74.5c0,0.3,0,0.6,0,0.9c0,1.3,0.1,2.6,0.1,3.9
	c0,0.9-0.1,1.8-0.1,2.7c0.1,2.7,0.2,5.3,0.3,8c0.1,2,0.2,4.1,0.4,6.1c0,0.4,0,0.8,0,1.2c0,0.3,0,0.5,0.2,0.8
	c0.9,0.9,1.7,1.7,2.6,2.6c0.2,0.2,0.3,0.3,0.5,0.4c0.3,0.2,0.5,0.1,0.5-0.2c0-0.1,0-0.3,0-0.4c0-1.2-0.1-2.3-0.1-3.5
	c-0.1-1.8-0.3-3.5-0.3-5.3c-0.1-2.5-0.1-4.9-0.2-7.4c-0.1-2.3-0.3-4.6-0.5-6.9c0-0.7,0-1.4-0.1-2.1c0-0.5,0-1.1-0.2-1.7
	C25.3,73.9,24.4,74.2,23.3,74.5 M56.8,156.9c-0.1,0.2-0.1,0.3-0.1,0.3c0.1,1.3,0.3,2.7,0.4,4c0.1,0.9,0.3,1.7,0.3,2.6
	c0,1.5,0,3,0.2,4.5c0.1,0.6,0.2,1.1,0.2,1.7c0,1.2,0,2.3,0,3.5c0,0.6-0.1,1.2-0.1,1.8c0.2,1.6,0.4,3.2,0.2,4.7c0,0.1,0,0.3,0,0.4
	c0.1,0.7,0.4,1,1.2,0.8c0.9-0.3,1.9-0.7,2.8-1c0.5-0.2,0.7-0.5,0.6-1c0-0.6,0-1.2-0.1-1.8c-0.1-1.3-0.2-2.6-0.4-3.9
	c-0.2-1.5-0.5-2.9-0.7-4.4c-0.3-2.2-0.7-4.3-1.4-6.4c-0.6-1.9-1.5-3.7-2.6-5.4C57.2,157.2,57,157.1,56.8,156.9 M63.9,178.9
	c0.2-0.1,0.4-0.1,0.6-0.3c0.3-0.2,0.5-0.5,0.8-0.7c1-0.6,1.3-1.5,1.2-2.6c-0.1-0.8-0.1-1.6-0.2-2.4c-0.1-1.5-0.1-3-0.2-4.5
	c-0.1-1.3-0.2-2.5-0.2-3.7c-0.1-1.6-0.1-3.2-0.2-4.8c0-0.9-0.1-1.7-0.1-2.6c0-0.4-0.1-0.5-0.6-0.5c-0.2,0-0.5,0-0.7,0
	c-1.6-0.2-3.3-0.4-4.9-0.4c-0.3,0-0.6-0.1-0.7,0.3c0.2,0.2,0.4,0.4,0.6,0.7c1,1.5,1.7,3.2,2.3,4.9c0.5,1.6,0.9,3.3,1.2,5
	c0.1,0.4,0.1,0.9,0.2,1.3c0.3,1.6,0.6,3.3,0.8,4.9c0.2,1.2,0.3,2.4,0.4,3.6C64,177.7,63.9,178.2,63.9,178.9 M26.4,72.2
	c0-1.1-0.1-2.1-0.1-3.1c0-0.5-0.1-1-0.1-1.5c0-0.4,0.1-0.8,0.6-1c0.2,0.3,0.4,0.5,0.6,0.8c0.4-0.9,1-1.6,1-2.6c0-0.5,0.2-1,0.2-1.4
	c0-0.7-0.2-1.4-0.3-2.1c-0.2-1.2-0.5-2.2-1.1-3.3c-0.1-0.2-0.4-0.4-0.5-0.6c-0.1,0.1-0.2,0.2-0.2,0.2c-0.9,1.6-2.1,2.9-3.4,4.2
	c-0.3,0.2-0.3,0.5-0.3,0.8c0,1.1,0.1,2.2,0.1,3.3c0,1.5,0.1,3.1,0.1,4.6c0,0.8,0.1,1.7,0.1,2.5c0,0.1,0,0.1,0.1,0.2
	C24.4,73.1,25.3,72.6,26.4,72.2 M76.5,173.2c0.3-0.3,0.5-0.4,0.7-0.6c0.3-0.3,0.5-0.7,0.9-1c1.7-1.5,2.9-3.4,4.4-5
	c0.3-0.3,0.5-0.7,0.8-1c0.3-0.3,0.3-0.7,0.1-1.1c-0.4-0.5-0.7-1.1-1.1-1.6c-0.8-1-1.5-2-2.3-2.9c-0.1-0.2-0.2-0.4-0.6-0.3
	c0.1,0.5,0.3,0.9,0.3,1.4c0.1,0.7-0.2,1-0.9,0.8c-0.4-0.1-0.5-0.1-0.7,0.3c-0.2,0.5-0.5,1-0.7,1.4c-0.3,0.7-0.7,1.3-0.9,2
	c-0.1,0.3-0.1,0.6-0.1,0.9c-0.1,1,0.3,2.1,0,3.1c0,0,0,0.1,0,0.2c0,0.9,0.1,1.9,0.1,2.9C76.4,172.8,76.4,172.9,76.5,173.2 M75,177
	c-0.2,0.2-0.4,0.3-0.6,0.4c-0.4,0.4-0.8,0.8-1.3,1.2c-1,0.9-1.9,1.8-3,2.5c-0.5,0.4-1.1,0.8-1.5,1.3c-0.3,0.3-0.3,0.7-0.2,1.1
	c0.2,0.4,0.5,0.4,0.8,0.4c0.7,0,1.3-0.1,2-0.1c1.3,0,2.6,0,3.9,0c1.2,0,2.5,0,3.7,0c0.5,0,0.7-0.2,0.5-0.7c-0.2-0.6-0.5-1.1-0.8-1.6
	c-0.2-0.3-0.5-0.6-0.9-0.8c-0.5-0.2-1.1-0.4-1.6-0.5c-0.9-0.2-1-0.4-0.9-1.3C75.1,178.2,75.1,177.6,75,177 M74.8,168.6
	c-0.2,0.2-0.3,0.3-0.4,0.5c-0.2,0.2-0.3,0.5-0.5,0.7c-0.7,0.9-1.4,1.8-2.1,2.7c-1.1,1.4-2.1,2.8-3.3,4c-0.2,0.2-0.4,0.5-0.4,0.8
	c0,1,0.1,2,0.2,3c0,0.3,0.2,0.4,0.5,0.3c0.1-0.1,0.3-0.2,0.4-0.2c0.6-0.5,1.3-1,1.9-1.5c1.2-1.2,2.5-2.4,3.7-3.6
	c0.2-0.2,0.3-0.6,0.3-0.9c0-1.7,0-3.3,0-5C74.9,169.1,74.8,168.9,74.8,168.6 M33.3,65.8c0.9-0.9,1.6-1.7,2.2-2.6
	c0.9-1.3,1.8-2.7,2.7-4c0.4-0.6,0.7-1.2,1-1.8c0.2-0.3,0.3-0.7-0.2-1c-0.2,0.3-0.3,0.5-0.5,0.8c-0.3,0.3-0.5,0.6-0.8,0.9
	c-0.1,0.1-0.3,0.1-0.4,0c-0.1-0.1-0.1-0.3-0.1-0.4c0.1-0.2,0.2-0.4,0.4-0.6c0.3-0.4,0.6-0.7,0.9-1.1c0.4-0.6,0.3-1.1-0.5-1.5
	c-0.1,0.3-0.2,0.6-0.4,0.8c-0.5,0.9-0.9,2-1.6,2.8c-0.8,1-1.3,2.1-2,3.1c-0.1,0.1-0.1,0.3-0.1,0.5c-0.2,1.2-0.4,2.5-0.6,3.7
	C33.2,65.4,33.3,65.5,33.3,65.8 M51.5,47.9c-0.1,0.1-0.1,0.1-0.1,0.2c-0.2,1.2-0.3,2.4-0.5,3.6c0,0.3,0.1,0.5,0.4,0.5
	c0.5,0,1,0,1.5,0c0.9,0.1,1.8,0.2,2.7,0.4c0.1,0,0.3,0,0.4,0c0.4-0.1,0.5-0.3,0.3-0.7c-0.2-0.4-0.4-0.8-0.6-1.2
	c-0.2-0.4-0.4-0.8-0.8-1c-0.9-0.5-1.9-1.1-2.9-1.6C51.8,47.9,51.6,48,51.5,47.9 M27.4,69.1c0,0.8,0.1,1.5,0.2,2.4
	c2.8-2.2,4.7-4.9,5-8.5c-0.2,0.1-0.4,0.1-0.5,0.2c-0.4,0.2-0.8,0.6-1.2,0.7c-0.9,0.1-1,0.8-1.1,1.4c0,0.1,0,0.2-0.1,0.3
	C29.2,66.8,28.7,68.2,27.4,69.1 M10.1,53.6c0,0,0-0.1-0.1-0.1c-0.1,0-0.2,0-0.4,0c-1.1,0.4-2.2,0.8-3.3,1.4C5,55.6,4,56.6,3.7,58.3
	c0.1,0,0.3,0.1,0.4,0.1c1,0,2,0,3,0c0.5,0,0.6-0.3,0.7-0.7c0.3-1.3,0.9-2.4,1.7-3.4C9.8,54.1,10,53.8,10.1,53.6 M77.5,73.3
	c-0.1,0.2-0.2,0.4-0.3,0.5c-0.2,0.6-0.4,1.3-0.7,1.9c-0.3,0.6-0.3,1.1,0.1,1.6c1,1.6,1.9,3.3,2.9,4.9c0.1,0.1,0.2,0.3,0.4,0.4
	c0.1,0,0.1,0,0.1-0.1C79.5,79.4,78.5,76.4,77.5,73.3 M58.1,86.1c-0.6-0.3-0.7-0.2-1.1,0.2c-0.2,0.3-0.4,0.5-0.6,0.8
	c-1.1,1.9-2.1,3.9-2.8,6c0,0.1-0.1,0.3-0.1,0.6c0.2-0.1,0.2-0.2,0.3-0.3c0.5-0.8,1.1-1.5,1.5-2.4c0.5-1.1,1.3-1.9,2.1-2.7
	C58.1,87.7,58.4,87,58.1,86.1 M66.4,178.8c-0.4,0.4-0.8,0.7-1.2,1c-1.2,1-1.2,1-1.3,2.6c0,0.6,0.2,0.8,0.8,0.5
	c0.5-0.2,1-0.5,1.5-0.7c0.4-0.2,0.7-0.6,0.6-1.1c-0.1-0.6-0.1-1.2-0.2-1.8C66.5,179.2,66.5,179,66.4,178.8 M20.1,107.2
	c1.1,0,1.5-0.3,1.6-0.9c0.1-0.6,0.2-1.3,0.4-1.9c0.2-0.7,0-1.3-0.7-1.6c-0.6-0.3-0.7-0.3-0.8,0.4c-0.2,1.1-0.3,2.3-0.5,3.4
	C20.1,106.7,20.1,106.9,20.1,107.2 M36.4,179.1c0.1,0,0.1,0.1,0.2,0.1c0.7-0.8,1.4-1.6,2-2.6c-0.3-0.1-0.5-0.2-0.7-0.2
	c-0.3-0.1-0.6-0.1-0.9-0.2c-0.5-0.1-0.7,0-0.7,0.6c0,0.5,0,1.1,0,1.6C36.3,178.7,36.4,178.9,36.4,179.1 M50,106
	C50,106,49.9,106,50,106c-0.2,0.3-0.3,0.5-0.4,0.8c-0.3,1.1-0.5,2.3-0.8,3.4c-0.1,0.5,0.1,0.7,0.6,0.6c0.4,0,0.5-0.2,0.5-0.7
	C50,108.8,50,107.4,50,106 M23.1,56.6c-0.1,0-0.1,0-0.2,0.1v3.5c0.5-0.3,0.9-0.7,1.1-1.1c0.1-0.1,0.1-0.3,0.1-0.4
	C23.9,57.9,23.6,57.2,23.1,56.6 M76.3,162.2c0.6-0.4,0.7-1.1,0.8-1.7c0-0.4-0.1-0.6-0.7-0.7C76.3,160.6,76.2,161.4,76.3,162.2
	 M33.2,184.1c0.1,0.1,0.1,0.1,0.2,0.1c0.2,0,0.5,0,0.7,0c0.6-0.1,0.8-0.4,0.5-1.1C34.1,183.5,33.5,183.6,33.2,184.1 M46,28.6
	c0.1,0,0.2,0,0.3,0c0-0.4,0-0.7-0.1-1.1c-0.1-0.9-0.1-0.9-0.4-1C45.6,27.2,45.8,27.9,46,28.6 M21.5,58c0.1,0,0.1,0,0.2,0
	c0-0.1,0-0.3,0-0.4c0,0-0.1,0-0.1,0V58z M35,191.9c-0.1-0.1-0.2-0.1-0.2-0.1c-0.3-1.2-1-2.3-1.2-3.6c0-0.4-0.5-0.8-0.8-0.8
	c-0.3,0-0.5,0.2-0.6,0.8c0,0.1-0.1,0.3-0.1,0.4c-0.1,1-0.2,2-0.2,3c0,1.2-0.1,2.3-0.1,3.5c0,0.4,0.1,0.8,0.2,1.2
	c0.1,0.3,0.3,0.6,0.7,0.5c0.4-0.1,0.4-0.4,0.5-0.7c0-0.2,0-0.3,0-0.5c0-1.5,0-2.9,0-4.4c0-0.2,0-0.4,0.1-0.7c0.1,0,0.1,0,0.2,0
	c0.1,0.2,0.1,0.3,0.2,0.5c0.3,0.8,0.5,1.6,0.8,2.5c0.1,0.4,0.3,0.7,0.8,0.6c0.1-0.6,0.3-1.3,0.4-1.9c0.2-0.6,0.2-1.3,0.6-1.8
	c0.1,0.2,0.1,0.4,0.1,0.6c0,1.5-0.1,3-0.1,4.5c0,0.2,0,0.5,0.1,0.7c0.1,0.2,0.3,0.3,0.5,0.3c0.3,0,0.3-0.2,0.3-0.4
	c0-0.2,0-0.4,0-0.6c0-1.6,0.1-3.1,0.1-4.7c0-0.8,0.1-1.5,0.1-2.3c0-0.3,0-0.6-0.4-0.7c-0.4-0.1-0.5,0.2-0.7,0.5
	c-0.2,0.5-0.5,1-0.7,1.6C35.5,190.5,35.3,191.2,35,191.9 M27,193.5c0,0-0.1,0-0.1,0c0-0.1-0.1-0.2-0.2-0.4c-0.2-0.6-0.3-1.2-0.5-1.8
	c-0.2-0.8-0.4-1.6-0.6-2.4c-0.1-0.5-0.3-0.9-0.7-1.3c-0.5-0.4-0.9-0.2-1,0.4c-0.1,0.4-0.1,0.8-0.1,1.2c-0.1,1.9-0.1,3.8-0.2,5.7
	c0,0.3,0,0.7,0,1c0,0.4,0.4,0.7,0.7,0.7c0.3,0,0.5-0.2,0.5-0.7c0-0.1,0-0.1,0-0.2c0.1-1.3,0.2-2.7,0.3-4c0-0.1,0.1-0.3,0.1-0.4
	c0.2,0.3,0.3,0.6,0.3,0.9c0.3,1.1,0.6,2.3,0.9,3.4c0.1,0.3,0.3,0.6,0.5,0.8c0.1,0.1,0.4,0.2,0.5,0.2c0.1,0,0.2-0.3,0.3-0.5
	c0-0.2,0-0.3,0-0.5v-6.9c0-0.2,0-0.4,0-0.5c-0.1-0.1-0.2-0.4-0.4-0.4c-0.1,0-0.4,0.2-0.4,0.3c-0.1,0.3-0.1,0.6-0.1,0.9
	c0,1.2,0.1,2.3,0.1,3.5C27,192.8,27,193.1,27,193.5 M21.1,194.5c-0.2-0.1-0.2-0.1-0.3-0.1c-1-0.2-1-0.2-1.3,0.8
	c-0.1,0.3-0.1,0.6-0.2,0.8c-0.1,0.3-0.2,0.4-0.5,0.3c-0.3-0.1-0.4-0.3-0.4-0.6c0.1-0.7,0.2-1.4,0.4-2.1c0.4-1.9,0.8-3.8,1.2-5.7
	c0.1-0.3,0-0.7,0.5-0.8c0.6-0.1,1.1,0.2,1.3,0.7c0.2,0.6,0.4,1.3,0.4,1.9c0.1,2.1,0,4.1,0.1,6.2c0,0.5-0.1,0.7-0.5,0.7
	c-0.4,0-0.6-0.2-0.7-0.6c0-0.2,0-0.4,0-0.6V194.5z M20.9,193.7c0.2-0.6,0.2-2.3,0-3.4c0-0.1-0.1-0.3-0.2-0.4c0,0-0.1,0-0.1,0
	c-0.2,1.2-0.4,2.4-0.7,3.6C20.3,193.6,20.6,193.6,20.9,193.7 M41,194.5c-0.5,0-0.8-0.1-1.3-0.1c-0.1,0.3-0.1,0.5-0.2,0.8
	c-0.1,0.4-0.2,0.7-0.3,1.1c-0.1,0.2-0.3,0.4-0.5,0.3c-0.3-0.1-0.4-0.2-0.4-0.5c0.1-0.4,0.1-0.8,0.2-1.2c0.5-2.2,0.9-4.3,1.4-6.5
	c0.1-0.3,0-0.8,0.6-0.8c0.7,0,1.1,0.2,1.3,0.7c0.2,0.7,0.4,1.3,0.4,2c0.1,2,0.1,4.1,0.1,6.1c0,0.3-0.1,0.6-0.5,0.6
	c-0.3,0-0.6-0.1-0.7-0.5c-0.1-0.2-0.1-0.4-0.1-0.7C41,195.3,41,194.9,41,194.5 M40.8,189.9c-0.1,0-0.1,0-0.2,0
	c-0.2,1.2-0.4,2.4-0.7,3.6c0.4,0.1,0.7,0.1,1,0.2C41,192.4,40.9,191.1,40.8,189.9 M54.6,191.6c0.1-0.8,0.1-1.7,0.2-2.7
	c0.2-1.2,1.2-1.8,2.4-1.4c0.4,0.1,0.7,0.4,0.8,0.8c0.1,0.3,0.1,0.6,0.1,0.9c0.1,0.9,0.1,1.9,0.3,2.9c0.1,1.1-0.1,2.2-0.4,3.3
	c-0.2,0.7-0.7,1.1-1.3,1.4c-0.6,0.2-1,0.1-1.3-0.4c-0.5-0.7-0.6-1.5-0.6-2.3C54.6,193.2,54.6,192.5,54.6,191.6 M56.5,196
	c0.6-0.4,0.7-0.9,0.8-1.4c0.3-1.5,0.2-3.1,0.1-4.6c-0.1-0.5-0.2-1.1-0.3-1.6c0-0.2-0.3-0.4-0.4-0.4c-0.3,0-0.3,0.2-0.4,0.5
	c-0.1,0.8-0.3,1.7-0.3,2.5c0,1.2,0.1,2.3,0.1,3.5C56.2,195,56.2,195.5,56.5,196 M68.5,196.3c-0.1-0.4-0.2-0.7-0.3-1
	c-0.2-1.7-0.4-3.4-0.2-5.1c0-0.7,0.2-1.4,0.3-2c0-0.1,0.2-0.4,0.3-0.3c0.2,0,0.4,0.2,0.4,0.3c0.1,0.3,0.2,0.6,0.3,0.9
	c0,0.1,0.2,0.2,0.3,0.2c0.1,0,0.2-0.1,0.2-0.2c0.2-0.5-0.2-1.4-0.6-1.7c-0.8-0.5-2.2,0.1-2.5,1.2c-0.7,2.4-0.6,4.7,0,7.1
	c0,0.2,0.1,0.4,0.2,0.5c0.3,0.5,1.3,1,1.7,0.8c0.6-0.2,1-0.5,1.2-1.2c0.1-0.3,0.1-0.7,0.1-1c0-0.2,0-0.5-0.4-0.6
	C69.1,194.8,69.2,195.6,68.5,196.3 M77,195.4c-0.1,0-0.1,0-0.2,0c-0.1-0.2-0.2-0.4-0.2-0.5c-0.1-1.1-0.1-2.2-0.2-3.2
	c0-1.2,0-2.3,0-3.5c0-0.5-0.3-0.8-0.7-0.8c-0.4,0-0.6,0.2-0.6,0.7c0,1.9-0.1,3.8,0,5.7c0,0.7,0.1,1.4,0.5,2c0.4,0.6,0.9,0.8,1.4,0.7
	c0.6-0.2,0.7-0.7,0.8-1.3c0.1-0.8,0.2-1.6,0.3-2.3c0.2-1.3,0.3-2.6,0.5-3.9c0.1-0.6-0.1-0.8-0.4-0.8c-0.5,0-0.4,0.4-0.4,0.7
	c-0.2,1.8-0.4,3.6-0.6,5.4C77.1,194.8,77,195.1,77,195.4 M47.8,194.1c-0.5,0.2-0.7,0.5-0.7,0.9c0,0.8,0.4,1.3,1.2,1.6
	c0.8,0.2,1.3,0,1.8-0.7c0.2-0.2,0.3-0.5,0.4-0.8c0.3-0.9,0.2-1.9-0.2-2.8c-0.5-1.1-0.9-2.2-1.4-3.3c-0.2-0.5,0-0.9,0.2-1
	c0.3-0.1,0.8,0.2,0.9,0.6c0.1,0.1,0.1,0.3,0.1,0.5c0,0.1,0,0.3,0,0.4c0.1,0.1,0.2,0.3,0.3,0.3c0.1,0,0.3-0.1,0.3-0.2
	c0.3-0.7-0.4-2-1.2-2.1c-1.1-0.2-2.1,0.6-2.1,1.8c0,0.3,0,0.6,0.1,0.9c0.3,0.8,0.6,1.6,0.8,2.4c0.2,0.6,0.4,1.2,0.5,1.8
	c0.1,0.3,0,0.7,0,1c0,0.3-0.2,0.6-0.6,0.6c-0.3,0-0.4-0.3-0.5-0.7c0-0.2,0.1-0.3,0-0.5C47.9,194.5,47.8,194.3,47.8,194.1 M62.7,188
	c-0.2-0.4-0.5-0.5-0.8-0.5c-0.6,0-1.1,0-1.7,0c-0.6-0.1-0.8,0.1-0.7,0.7c0.2,1.7,0.1,3.4,0,5.1c-0.1,0.9-0.1,1.8-0.1,2.6
	c0,0.5,0.3,0.9,0.8,0.9c0.4,0,0.7-0.2,0.7-0.8c0-0.6,0-1.1,0.1-1.7c0-0.5,0-1,0.2-1.4c0.4-0.2,1,0,1.3-0.6c-0.3-0.5-0.9-0.2-1.3-0.4
	c-0.1-1.2-0.1-2.3-0.2-3.5C61.5,188.2,62.2,188.5,62.7,188 M81.1,191c0,0.9,0,1.9,0,2.8c0,0.6-0.2,1.2-0.3,1.8
	c-0.1,0.3-0.3,0.5-0.6,0.4c-0.3-0.1-0.4-0.3-0.4-0.6c0-0.4,0.1-0.7,0.2-1.1c0-0.2,0.1-0.4-0.2-0.5c-0.2,0-0.4,0.1-0.5,0.2
	c-0.1,0.1-0.1,0.3-0.1,0.4c0,0.3,0,0.5,0,0.8c0,0.8,0.4,1.2,1.2,1.4c0.7,0.2,1.4,0,1.7-0.6c0.1-0.2,0.3-0.5,0.3-0.7
	c0.1-0.8,0.3-1.6,0.3-2.5c0.1-1.4,0-2.8,0-4.3c0-0.2,0-0.3,0-0.5c-0.1-0.4-0.4-0.6-0.9-0.6c-0.4,0-0.6,0.2-0.6,0.7
	C81.2,189.1,81.2,190.1,81.1,191L81.1,191z M44.8,195.8c0-0.2,0-0.3,0-0.5c0.3-2.3,0.4-4.6,0.4-7c0-0.1,0-0.3,0-0.4
	c-0.1-0.3-0.3-0.4-0.6-0.4c-0.3,0-0.6,0.2-0.6,0.5c0,0.2,0,0.4,0,0.6c-0.1,1.4-0.1,2.7-0.2,4.1c-0.1,1-0.1,2.1-0.2,3.1
	c0,0.7,0.2,1,0.9,0.9c0.3,0,0.7,0,1,0c0.4,0,0.7-0.1,0.8-0.5C45.9,195.7,45.3,196.1,44.8,195.8 M72.4,195.8c0-0.1,0-0.3,0-0.5
	c0.3-2.3,0.4-4.6,0.4-6.9c0-0.1,0-0.3,0-0.4c-0.1-0.3-0.3-0.5-0.6-0.5c-0.3,0-0.6,0.1-0.7,0.5c-0.1,0.2,0,0.4-0.1,0.6
	c-0.1,1.2-0.1,2.4-0.2,3.7c0,1.2-0.1,2.3-0.2,3.4c0,0.8,0.2,1,1,1c0.3,0,0.7,0,1,0c0.4,0,0.6-0.1,0.8-0.5
	C73.5,195.7,72.9,196,72.4,195.8 M30.3,189.6c0-0.5,0-1,0-1.5c0-0.4-0.4-0.6-0.7-0.6c-0.3,0-0.4,0.2-0.5,0.7c0,0.3,0,0.7,0,1
	c0,2.3,0,4.6,0,6.8c0,0.4,0.3,0.6,0.7,0.6c0.4,0,0.5-0.2,0.5-0.7c0-0.1,0-0.3,0-0.4c0-1.1-0.1-2.2-0.1-3.3
	C30.2,191.4,30.3,190.5,30.3,189.6 M33,30.1c0.2,0,0.4,0,0.5,0c0.8,0,1.2-0.4,1.2-1.1c0-0.4-0.1-0.8-0.2-1.1c-0.2-0.7-0.6-1.3-0.8-2
	c-0.2-0.8-0.4-1.7-0.6-2.5c-0.3-1.1-0.7-2.1-0.7-3.2c0-0.2-0.1-0.4-0.2-0.5c-0.2-0.2-0.4-0.4-0.6-0.2c-0.3,0.1-0.5,0.3-0.5,0.7
	c0,0.1,0.1,0.2,0.1,0.3c0.4,1.4,0.7,2.9,1,4.3c0.2,0.7,0.4,1.4,0.7,2.1c0.2,0.5,0.4,1,0.6,1.4c0.1,0.2,0.2,0.4-0.1,0.5
	c-0.2,0-0.3-0.2-0.4-0.4c-0.1-0.2-0.1-0.5-0.3-0.7c-0.3-0.4-0.6-0.3-0.8,0c-0.1,0.2-0.1,0.4-0.1,0.6c0,0.4,0.1,0.9,0.1,1.3
	c0,0.3,0,0.6,0,0.8c-0.4-0.3-0.5-0.6-0.6-1c-0.1-0.2-0.1-0.5-0.2-0.7c-0.2-0.4-0.5-0.5-0.8-0.2c-0.2,0.2-0.4,0.4-0.5,0.7
	c-0.1-0.7-0.3-1.4-0.5-2.1c-0.1-0.4-0.2-0.8-0.3-1.2c-0.2-1.6-0.3-3.2-0.5-4.7c0-0.4-0.1-0.9-0.2-1.3c-0.1-0.3-0.3-0.5-0.6-0.4
	c-0.3,0.1-0.5,0.3-0.5,0.6c0,0.1,0,0.2,0.1,0.4c0.1,0.4,0.2,0.7,0.2,1.1c-0.1,1.5,0.3,2.9,0.5,4.3c0.2,1.5,0.6,3,0.9,4.5
	c0.1,0.5,0.4,0.8,0.9,0.9c0.3,0,0.6-0.1,0.9-0.2c0.1,0.2,0.2,0.4,0.3,0.6c0.2,0.5,0.8,0.8,1.2,0.7c0.4-0.1,0.8-0.5,0.9-1.1
	C33,30.9,33,30.6,33,30.1 M40.1,29.7c-0.4,0.1-0.7,0.4-0.7,0.9c-0.4,2.1-1.4,3.8-3.5,4.7c-0.3,0.1-0.6,0.3-0.4,0.7
	c0.1,0.3,0.6,0.6,0.9,0.5c0.1,0,0.2-0.1,0.3-0.1c0.6-0.4,1.3-0.8,1.9-1.1c0.1-0.1,0.2-0.2,0.3-0.3c0.8-1,1.3-2.1,1.8-3.4
	C40.9,30.8,40.8,30.2,40.1,29.7C40.2,29.8,40.1,29.8,40.1,29.7 M26.3,22c-0.2-0.6-0.4-1.4-0.7-2.2c0-0.1-0.2-0.3-0.3-0.4
	c-0.2-0.1-0.4-0.1-0.6-0.1c-0.2,0.1-0.3,0.3-0.3,0.5c0.1,0.8,0.2,1.7,0.3,2.5c0.1,0.4,0.5,0.7,0.9,0.7c0.2,0,0.5-0.2,0.7-0.4
	C26.2,22.6,26.2,22.3,26.3,22 M35.8,20.4c-0.1-0.4-0.2-0.9-0.4-1.4c-0.1-0.3-0.2-0.6-0.3-0.9c-0.4-0.6-0.9-0.6-1.3,0
	c-0.1,0.2-0.2,0.6-0.1,0.8c0.1,0.7,0.4,1.3,0.8,1.8c0.1,0.2,0.3,0.3,0.4,0.4C35.3,21.3,35.8,21.1,35.8,20.4 M82,95.5
	c-0.1-0.6-0.4-1.2-1.2-1.4c-0.6-0.2-1.6,0.3-1.7,0.9c0,0.1,0,0.2,0,0.3c0.2,0.5,0.5,1,1.1,1.4C81.2,97.2,82,96.6,82,95.5 M71,34.8
	c0-0.3,0.1-0.6,0.1-0.9c0-0.2,0.1-0.3,0.1-0.5c0.2-1.3,0.4-2.5,0.6-3.8c0.1-0.5,0.2-1,0.2-1.4c0-0.3-0.1-0.5-0.4-0.6
	c-0.3-0.1-0.5,0.1-0.7,0.4c-0.1,0.2-0.2,0.5-0.2,0.7c-0.1,0.7-0.3,1.4-0.4,2.2c0,0.2,0,0.4,0,0.6c0,0.5,0,0.9,0,1.4
	c-0.1,0.6-0.2,1.3-0.3,1.9c-0.1,0.9,0.5,1.5,1.4,1.2c0.4-0.1,0.6,0,0.7,0.3c0.1,0.2,0.2,0.4,0.4,0.6c0.4,0.6,0.7,0.7,1.2,0.2
	c0.4-0.4,0.8-0.8,0.9-1.3c0-0.2,0.2-0.4,0.4-0.5c0.8-0.3,0.9-1,0.9-1.7c0-0.4-0.1-0.9-0.2-1.3c-0.2-0.9-0.4-1.7-0.4-2.7
	c0-0.6-0.3-1.2-0.4-1.7c0-0.1-0.2-0.2-0.3-0.3c-0.3-0.2-0.6,0-0.6,0.3c0,0.3,0,0.6,0,0.9c0.1,0.6,0.2,1.2,0.4,1.8
	c0.1,0.6,0.3,1.1,0.4,1.7c0.1,0.4,0.2,0.9,0.3,1.3c0,0.2,0.1,0.5-0.2,0.5c-0.1,0-0.3-0.2-0.4-0.4c-0.1-0.2-0.2-0.4-0.3-0.6
	c-0.1,0-0.1,0-0.2,0c-0.4,1,0,2.1-0.6,3.1c-0.4-0.4-0.4-0.4-0.4-0.7c0-0.6,0-1.2,0-1.8c0-0.3-0.1-0.5-0.4-0.6
	c-0.3-0.1-0.5,0.2-0.6,0.5c-0.1,0.3-0.2,0.6-0.3,0.9C71.5,34.6,71.4,34.9,71,34.8 M70.5,39.8c0.2-0.1,0.4-0.3,0.5-0.5
	c0.2-0.3,0-0.5-0.2-0.6c-0.4-0.2-0.8-0.5-1.2-0.6c-1-0.1-1.9-0.5-2.5-1.3c-0.2-0.3-0.6-0.4-0.9-0.5c-0.3-0.1-0.6,0.1-0.7,0.4
	c-0.2,0.2,0,0.4,0.2,0.6c0.9,0.9,1.7,1.9,3.1,2.1C69.3,39.3,69.8,39.6,70.5,39.8 M76,28c0,0.2,0,0.2,0,0.3c0,0.4,0,0.7,0.4,0.8
	c0.3,0.1,0.7-0.1,0.9-0.5c0.4-0.7,0.4-1.5,0-2.2c-0.1-0.1-0.3-0.3-0.5-0.2c-0.5,0.1-0.9,0.5-0.9,1.1C76,27.6,76,27.8,76,28
	 M69.9,27.2c0-0.4-0.2-0.7-0.4-0.8c-0.3-0.1-0.8,0-1,0.4c-0.4,0.6-0.5,1.2-0.4,1.8c0,0.1,0.1,0.2,0.1,0.3c0.3,0.4,0.6,0.4,0.9,0.1
	C69.7,28.4,69.9,27.8,69.9,27.2 M22.8,114.2c0-0.5-0.1-0.7-0.6-0.7c-0.6,0.1-1.2,0.3-1.7,0.7c-0.1,0.1-0.2,0.3-0.3,0.4
	c-0.1,0.5,0.4,1.2,0.9,1.3c0.7,0.2,1.3-0.2,1.5-0.8C22.8,114.8,22.8,114.5,22.8,114.2 M55.6,122.3c0-0.8-0.2-1.6-0.6-2.2
	c-0.2-0.3-0.4-0.6-0.8-0.5c-0.4,0.1-0.8,0.4-1,0.7c-0.2,0.4-0.4,1-0.1,1.5c0.2,0.4,0.4,0.8,0.7,1.1c0.3,0.4,0.7,0.5,1,0.4
	C55.3,123.2,55.6,122.7,55.6,122.3 M12,57c0,0.5,0.7,1.1,1.2,1.1c0.6,0,1.1-0.6,1-1.1c0-0.8-0.5-1.1-1.2-1.1
	C12.4,55.9,12,56.4,12,57 M91,177.3c-0.1-0.2-0.2-0.5-0.3-0.7c-0.2-0.3-0.4-0.5-0.7-0.7c-0.6-0.5-1-0.5-1.4,0.2
	c-0.2,0.2-0.2,0.4,0,0.7c0.3,0.4,0.6,0.7,0.9,1.1c0.3,0.4,0.7,0.2,1,0.1C90.8,177.9,91,177.7,91,177.3"/>
</svg>
