<?xml version="1.0" encoding="utf-8"?>
<!-- Generator: Adobe Illustrator 19.2.1, SVG Export Plug-In . SVG Version: 6.00 Build 0)  -->
<svg version="1.1" id="Layer_1" xmlns="http://www.w3.org/2000/svg" xmlns:xlink="http://www.w3.org/1999/xlink" x="0px" y="0px"
	 viewBox="0 0 1876.4 1904.4" style="enable-background:new 0 0 1876.4 1904.4;" xml:space="preserve">
<style type="text/css">
	.st0{fill:#C0C0C0;}
	.st1{fill:#A3A3A3;}
	.st2{fill:#868789;}
	.st3{font-family:'TimesNewRomanPS-ItalicMT';}
	.st4{font-size:301.3701px;}
</style>
<path class="st0" d="M1176.2,259.5c0,0,72.5,201.4,64.5,290c0,88.6-56.4,104.7-96.7,96.7c-56.4-16.1-64.5-72.5-32.2-193.3
	C1160.1,324,1176.2,259.5,1176.2,259.5z"/>
<path class="st0" d="M1240.6,436.8c0,0,80.6-96.7,185.3-96.7s225.6,64.5,282,209.5c56.4,145,16.1,314.2-80.6,435
	c-104.7,136.9-298.1,257.8-499.5,306.1s-402.8,24.2-531.7-32.2s-185.3-128.9-241.7-88.6c-56.4,40.3-8.1,209.5,64.5,330.3
	c88.6,145,257.8,298.1,459.2,314.2c201.4,16.1,435,16.1,604.2-136.9c169.2-153.1,282-338.4,330.3-620.3
	c48.3-265.9,16.1-539.8-80.6-725c-88.5-177.4-241.6-314.3-386.6-330.4s-177.2,80.6-169.2,185.3
	C1200.4,259.5,1240.6,436.8,1240.6,436.8z"/>
<path class="st1" d="M886.2,1822.4c-201.4-16.1-378.6-169.2-459.2-314.2c-72.5-120.8-112.8-290-64.5-330.3
	c56.4-40.3,120.8,32.2,241.7,88.6s330.3,80.6,531.7,32.2c201.4-48.3,394.8-169.2,499.5-306.1c96.7-120.8,136.9-290,80.6-435
	s-169.2-209.5-282-209.5s-185.3,96.7-185.3,96.7l24.2,128.9c0,0,177.2,16.1,217.5,177.2c40.3,169.2-104.7,370.6-330.3,451.1
	c-225.6,80.6-459.2,32.2-620.3-88.6s-241.7-290-322.2-290c-80.6-8.1-120.8,32.2-112.8,201.4c16.1,169.2,56.4,370.6,201.4,563.9
	s338.4,298.1,604.2,314.2c265.9,16.1,427-96.7,475.3-120.8l0,0C1224.5,1838.5,1047.3,1838.5,886.2,1822.4z"/>
<path class="st2" d="M0,960.4c16.1-8.1,40.3-8.1,56.4-8.1c16.1-8.1,32.2-16.1,40.3-16.1c0,0,8.1-8.1,8.1,0c16.1,8.1,24.2,0,32.2-8.1
	c16.1-8.1,32.2-24.2,48.3-32.2c8.1-8.1,16.1-8.1,16.1-8.1c8.1-8.1,16.1-16.1,24.2-16.1c8.1-8.1,8.1-16.1,16.1-24.2
	c8.1-8.1,8.1-16.1,16.1-16.1s8.1-8.1,8.1-16.1c8.1-8.1,8.1-24.2,16.1-32.2c0-16.1,0-16.1-16.1-16.1c-8.1,0-16.1,0-24.2,8.1
	c-8.1,0-24.2,8.1-32.2,8.1c-16.1,8.1-24.2,16.1-40.3,24.2c-8.1,0-16.1,8.1-16.1,8.1s-8.1,0-16.1,0l8.1-8.1l0,0
	c16.1-8.1,24.2-16.1,32.2-32.2c8.1-8.1,16.1-24.2,32.2-24.2l0,0c8.1-8.1,24.2-16.1,40.3-16.1c16.1-8.1,24.2-16.1,40.3-16.1
	c16.1-8.1,32.2-24.2,40.3-40.3c0-8.1,8.1-16.1,16.1-16.1c16.1-24.2,32.2-48.3,48.3-72.5c0-8.1,8.1-16.1,16.1-16.1c0,0,0,0,0-8.1
	c8.1-24.2,24.2-48.3,32.2-72.5c16.1-24.2,32.2-56.4,48.3-80.6c16.1-24.2,32.2-56.4,56.4-80.6c8.1-8.1,16.1-16.1,32.2-24.2l8.1-8.1
	c8.1-16.1,24.2-16.1,40.3-24.2l0,0c16.1-16.1,40.3-16.1,64.5-32.2c16.1-8.1,40.3-8.1,56.4-8.1c16.1,0,32.2,0,40.3-8.1h8.1
	c24.2,0,48.3,0,72.5,0h-8.1c-8.1,0-16.1,0-24.2,8.1c-8.1,8.1-16.1,8.1-32.2,8.1c-8.1,0-16.1,8.1-24.2,8.1
	c-16.1,8.1-24.2,8.1-40.3,16.1c0,0-8.1,0-8.1,8.1c-8.1,8.1-24.2,16.1-32.2,24.2c-8.1,0-16.1,16.1-24.2,16.1
	c-8.1,8.1-16.1,16.1-32.2,24.2c0,0,0,0-8.1,0c-16.1,24.2-40.3,40.3-56.4,64.5s-40.3,48.3-48.3,80.6c-8.1,24.2-24.2,40.3-32.2,64.5
	c-8.1,16.1-16.1,40.3-24.2,56.4c0,8.1,0,16.1,0,24.2l8.1,8.1c16.1,0,32.2,0,48.3-8.1c24.2-8.1,40.3-16.1,64.5-16.1
	c24.2,0,24.2,0,32.2-24.2c0-16.1,8.1-24.2,16.1-40.3c8.1-8.1,8.1-24.2,8.1-32.2c0-8.1,8.1-16.1,8.1-16.1
	c16.1-32.2,24.2-64.5,40.3-96.7c8.1-24.2,16.1-48.3,40.3-72.5c8.1-8.1,8.1-16.1,16.1-24.2c8.1-8.1,16.1-16.1,24.2-16.1
	c0,0,8.1,0,8.1-8.1c8.1-16.1,24.2-16.1,32.2-16.1c8.1-8.1,16.1,0,16.1,8.1c0,16.1-8.1,24.2-16.1,40.3c-8.1,8.1-8.1,16.1-16.1,24.2
	c-8.1,24.2-16.1,40.3-16.1,56.4c-8.1,32.2-24.2,56.4-32.2,88.6c-8.1,24.2-16.1,56.4-24.2,80.6c0,8.1-8.1,16.1-8.1,24.2
	c-8.1,16.1-8.1,32.2,16.1,32.2c24.2,0,56.4,0,80.6,0c16.1,0,32.2,8.1,48.3,16.1c8.1,0,16.1,8.1,24.2,8.1
	c24.2,16.1,56.4,32.2,72.5,56.4c16.1,24.2,32.2,48.3,32.2,80.6s0,64.5,0,88.6c0,16.1-8.1,32.2-16.1,40.3
	c-8.1,16.1-16.1,32.2-24.2,48.3c-16.1,32.2-32.2,64.5-56.4,88.6l-8.1,8.1l-8.1,8.1c-8.1,8.1-16.1,16.1-24.2,16.1
	c-8.1,8.1-8.1,16.1,0,16.1c8.1,8.1,8.1,16.1,16.1,16.1c8.1,8.1,16.1,16.1,32.2,24.2c24.2,8.1,48.3,24.2,72.5,24.2
	c24.2,8.1,48.3,8.1,72.5,8.1c24.2,0,48.3-8.1,72.5-24.2c16.1-16.1,24.2-32.2,32.2-56.4c0-16.1,16.1-24.2,16.1-40.3
	c0-8.1,8.1-16.1,8.1-24.2c0-8.1,8.1-16.1,16.1-16.1c16.1,0,32.2,0,48.3,0s16.1,0,16.1,16.1c0,8.1,0,16.1-8.1,24.2
	c-8.1,32.2-32.2,48.3-48.3,72.5c0,8.1-8.1,16.1-16.1,16.1c0,0,0,8.1-8.1,8.1c-16.1,8.1-24.2,32.2-40.3,40.3
	c-16.1,8.1-40.3,24.2-64.5,24.2c-16.1,0-32.2,8.1-48.3,8.1h-8.1c-16.1,0-24.2-8.1-40.3-8.1c-8.1,0-16.1,0-24.2-8.1l-8.1-8.1
	c-8.1,0-24.2-8.1-32.2-8.1s-16.1-8.1-24.2-16.1c0,0-8.1,0-16.1-8.1c-8.1,0-8.1,0-8.1-8.1c-8.1-8.1-8.1-8.1-16.1-16.1
	c-24.2-16.1-40.3-32.2-64.5-40.3l-8.1-8.1c-16.1-8.1-24.2-16.1-40.3-24.2l-8.1-8.1c-16.1,0-40.3-8.1-56.4-8.1
	c-16.1-8.1-40.3-8.1-56.4-8.1c-16.1,0-32.2-8.1-40.3-16.1c-8.1-8.1-16.1-8.1-16.1-16.1c-8.1-24.2-8.1-48.3,0-72.5v-8.1
	c0-8.1,0-8.1-8.1-8.1c0,0-8.1,0-8.1,8.1c-16.1,24.2-32.2,48.3-48.3,72.5c-8.1,16.1-16.1,24.2-32.2,32.2h-8.1v-8.1
	c8.1-16.1,16.1-40.3,24.2-56.4c8.1-16.1,16.1-40.3,24.2-56.4c8.1-16.1,8.1-32.2,16.1-48.3c8.1-16.1,16.1-24.2,16.1-40.3
	c8.1-24.2,16.1-40.3,24.2-64.5c8.1-16.1,8.1-32.2,16.1-40.3c8.1-8.1,8.1-24.2,16.1-32.2c0,0,0-8.1,8.1-8.1
	c8.1-16.1,0-24.2-16.1-24.2c-8.1,0-16.1,0-32.2,0c-8.1,0-16.1,8.1-32.2,8.1c-16.1,0-32.2,8.1-48.3,16.1
	c-16.1,8.1-32.2,16.1-56.4,32.2c-8.1,0-8.1,8.1-16.1,16.1c-8.1,24.2-24.2,40.3-32.2,64.5c0,8.1-8.1,8.1-16.1,16.1
	c-8.1,8.1-8.1,8.1-8.1,16.1c-16.1,16.1-24.2,40.3-40.3,56.4c-8.1,8.1-16.1,16.1-24.2,24.2c-16.1,24.2-40.3,32.2-64.5,48.3
	s-56.4,32.2-88.6,40.3c-8.1,8.1-24.2,8.1-32.2,0h-8.1C56.4,976.5,24.2,976.5,0,960.4z M741.2,638.2L741.2,638.2
	c-16.1,0-40.3,0-64.5,0c-8.1,0-24.2,0-24.2,16.1c-8.1,16.1-16.1,32.2-24.2,56.4c-8.1,8.1-8.1,16.1-8.1,32.2c0,8.1-8.1,8.1-8.1,16.1
	c-8.1,16.1-16.1,32.2-24.2,56.4c-8.1,24.2-16.1,48.3-40.3,64.5c-8.1,8.1,0,8.1,8.1,8.1s8.1,0,16.1,0l8.1-8.1
	c32.2,0,64.5,8.1,80.6,32.2c16.1,24.1,24.2,40.3,48.3,56.4c16.1,16.1,24.2,32.2,48.3,40.3c16.1,8.1,40.3,8.1,56.4,0
	c16.1-8.1,32.2-24.2,48.3-32.2c0,0,0,0,0-8.1c8.1-16.1,16.1-24.2,24.2-40.3c8.1-8.1,8.1-16.1,8.1-24.2c8.1-24.2,16.1-40.3,16.1-64.5
	s8.1-48.3-8.1-80.6c-8.1-24.2-16.1-48.3-32.2-64.5c-8.1-8.1-16.1-16.1-24.2-24.2c-16.1-16.1-32.2-16.1-48.3-16.1
	C781.4,638.2,765.3,638.2,741.2,638.2z M660.6,1016.8L660.6,1016.8c24.2,0,32.2-8.1,24.2-24.2c-16.1-24.2-32.2-48.3-56.4-64.5
	c-8.1-8.1-32.2-8.1-40.3,0s-16.1,24.2-8.1,40.3c8.1,16.1,16.1,24.2,32.2,32.2l8.1,8.1C628.4,1016.8,644.5,1016.8,660.6,1016.8z"/>
<text transform="matrix(0.6112 0 0 1 527.092 1654.4139)" class="st2 st3 st4">APELE ROMÂNE</text>
</svg>
