<!-- Generator: Adobe Illustrator 23.0.4, SVG Export Plug-In  -->
<svg version="1.1" xmlns="http://www.w3.org/2000/svg" xmlns:xlink="http://www.w3.org/1999/xlink" x="0px" y="0px"
	 width="233.556px" height="157.852px" viewBox="0 0 233.556 157.852" enable-background="new 0 0 233.556 157.852"
	 xml:space="preserve">
<path fill="#868789" d="M92.317,42.813c0.068,0.279,0.104,0.559,0.104,0.839c0,0.801-0.247,1.49-0.739,2.068
	c-0.491,0.58-1.094,0.871-1.804,0.871c-1.218,0-2.016-0.706-2.388-2.117l-1.696-6.517c-0.034-0.2-0.155-0.3-0.361-0.3H73.791
	c-0.206,0-0.327,0.094-0.361,0.283l-1.647,6.534c-0.374,1.411-1.171,2.117-2.389,2.117c-0.712,0-1.313-0.291-1.804-0.871
	c-0.491-0.578-0.737-1.268-0.737-2.068c0-0.28,0.034-0.559,0.102-0.839L77.223,2.099C77.565,0.699,78.37,0,79.637,0
	c1.266,0,2.07,0.699,2.412,2.099L92.317,42.813z M84.146,31.422l-4.38-17.58c0-0.074-0.042-0.111-0.129-0.111
	c-0.087,0-0.13,0.038-0.13,0.111l-4.479,17.546c-0.068,0.261,0,0.391,0.208,0.391h8.704C84.146,31.779,84.216,31.66,84.146,31.422z
	 M115.234,14.93c0,3.119-0.952,5.776-2.858,7.975c-1.906,2.199-4.195,3.298-6.874,3.298h-5.225c-0.17,0-0.257,0.119-0.257,0.359
	v17.089c0,0.801-0.245,1.49-0.737,2.068c-0.491,0.58-1.077,0.871-1.753,0.871c-0.714,0-1.315-0.291-1.806-0.871
	c-0.491-0.578-0.737-1.268-0.737-2.068V2.937c0-0.799,0.249-1.488,0.744-2.068C96.23,0.289,96.838,0,97.557,0h7.973
	c2.669,0,4.955,1.099,6.855,3.298c1.898,2.199,2.849,4.856,2.849,7.975V14.93z M110.202,14.93v-3.657
	c0-1.479-0.457-2.748-1.371-3.808c-0.914-1.06-2.01-1.589-3.287-1.589h-5.264c-0.172,0-0.259,0.119-0.259,0.359v13.731
	c0,0.24,0.087,0.361,0.259,0.361h5.264c1.277,0,2.373-0.529,3.287-1.589C109.745,17.678,110.202,16.409,110.202,14.93z
	 M135.786,43.651c0,0.801-0.248,1.49-0.744,2.068c-0.495,0.58-1.086,0.871-1.772,0.871h-13.158c-0.686,0-1.277-0.291-1.772-0.871
	c-0.497-0.578-0.744-1.268-0.744-2.068V2.937c0-0.799,0.247-1.488,0.744-2.068C118.834,0.289,119.426,0,120.111,0h13.158
	c0.686,0,1.277,0.289,1.772,0.869c0.497,0.58,0.744,1.269,0.744,2.068c0,0.801-0.248,1.491-0.744,2.068
	c-0.495,0.58-1.086,0.871-1.772,0.871h-10.336c-0.204,0-0.306,0.119-0.306,0.359v13.791c0,0.2,0.102,0.3,0.306,0.3h8.334
	c0.686,0,1.277,0.291,1.772,0.869c0.497,0.58,0.744,1.269,0.744,2.068c0,0.841-0.247,1.539-0.744,2.099
	c-0.495,0.561-1.086,0.841-1.772,0.841h-8.334c-0.204,0-0.306,0.119-0.306,0.359v13.791c0,0.24,0.102,0.361,0.306,0.361h10.336
	c0.686,0,1.277,0.28,1.772,0.839C135.538,42.114,135.786,42.813,135.786,43.651z M156.39,43.651c0,0.801-0.247,1.49-0.744,2.068
	c-0.495,0.58-1.086,0.871-1.772,0.871h-13.158c-0.686,0-1.277-0.291-1.772-0.871c-0.497-0.578-0.744-1.268-0.744-2.068V2.937
	c0-0.799,0.247-1.488,0.744-2.068C139.439,0.289,140.03,0,140.716,0c0.684,0,1.273,0.289,1.772,0.869
	c0.495,0.58,0.744,1.269,0.744,2.068v37.416c0,0.24,0.102,0.361,0.306,0.361h10.336c0.686,0,1.277,0.28,1.772,0.839
	C156.143,42.114,156.39,42.813,156.39,43.651z M176.994,43.651c0,0.801-0.249,1.49-0.744,2.068c-0.497,0.58-1.088,0.871-1.772,0.871
	H161.32c-0.687,0-1.277-0.291-1.772-0.871c-0.499-0.578-0.744-1.268-0.744-2.068V2.937c0-0.799,0.245-1.488,0.744-2.068
	C160.043,0.289,160.633,0,161.32,0h13.158c0.684,0,1.275,0.289,1.772,0.869c0.495,0.58,0.744,1.269,0.744,2.068
	c0,0.801-0.249,1.491-0.744,2.068c-0.497,0.58-1.088,0.871-1.772,0.871h-10.336c-0.204,0-0.308,0.119-0.308,0.359v13.791
	c0,0.2,0.104,0.3,0.308,0.3h8.334c0.684,0,1.275,0.291,1.772,0.869c0.495,0.58,0.744,1.269,0.744,2.068
	c0,0.841-0.249,1.539-0.744,2.099c-0.497,0.561-1.088,0.841-1.772,0.841h-8.334c-0.204,0-0.308,0.119-0.308,0.359v13.791
	c0,0.24,0.104,0.361,0.308,0.361h10.336c0.684,0,1.275,0.28,1.772,0.839C176.745,42.114,176.994,42.813,176.994,43.651z
	 M90.663,91.713c0,3.119-0.948,5.788-2.848,8.005c-1.9,2.22-4.184,3.328-6.853,3.328h-2.773c-2.671,0-4.955-1.109-6.853-3.328
	c-1.9-2.218-2.851-4.887-2.851-8.005V59.214c0-0.799,0.244-1.489,0.735-2.069c0.491-0.58,1.094-0.869,1.806-0.869
	c0.676,0,1.262,0.289,1.753,0.871c0.491,0.58,0.737,1.271,0.737,2.072v32.546c0,1.481,0.457,2.752,1.371,3.814
	c0.916,1.06,2.014,1.59,3.291,1.59h2.796c1.277,0,2.372-0.531,3.287-1.59c0.914-1.062,1.373-2.333,1.373-3.814V59.22
	c0-0.801,0.245-1.492,0.737-2.072c0.489-0.582,1.075-0.871,1.753-0.871c0.712,0,1.313,0.289,1.804,0.869s0.737,1.269,0.737,2.069
	V91.713z M119.458,99.928c0,0.801-0.249,1.49-0.744,2.068c-0.499,0.58-1.105,0.871-1.825,0.871c-1.026,0-1.779-0.559-2.259-1.679
	l-12.063-28.721c-0.045-0.081-0.109-0.121-0.193-0.121c-0.045,0.04-0.064,0.1-0.064,0.179v27.403c0,0.801-0.247,1.49-0.738,2.068
	c-0.491,0.58-1.075,0.871-1.753,0.871c-0.712,0-1.313-0.291-1.804-0.871c-0.491-0.578-0.737-1.267-0.737-2.068V59.214
	c0-0.839,0.245-1.538,0.737-2.099c0.491-0.559,1.096-0.839,1.806-0.839c1.018,0,1.764,0.548,2.24,1.643l12.085,28.77
	c0.045,0.072,0.117,0.087,0.21,0.047c0.047,0,0.07-0.04,0.07-0.121V59.214c0-0.799,0.246-1.489,0.737-2.069
	c0.491-0.58,1.077-0.869,1.753-0.869c0.712,0,1.315,0.289,1.804,0.869c0.491,0.58,0.739,1.269,0.739,2.069V99.928z M131.586,99.928
	c0,0.801-0.248,1.49-0.739,2.068c-0.491,0.58-1.075,0.871-1.753,0.871c-0.71,0-1.313-0.291-1.804-0.871
	c-0.491-0.578-0.735-1.267-0.735-2.068V59.214c0-0.799,0.244-1.489,0.735-2.069c0.491-0.58,1.094-0.869,1.804-0.869
	c0.678,0,1.262,0.289,1.753,0.869s0.739,1.269,0.739,2.069V99.928z M156.562,59.214c0,0.801-0.247,1.49-0.744,2.068
	c-0.497,0.58-1.105,0.871-1.823,0.871h-5.699c-0.206,0-0.308,0.119-0.308,0.359v37.416c0,0.801-0.249,1.49-0.744,2.068
	c-0.497,0.58-1.088,0.871-1.772,0.871s-1.275-0.291-1.772-0.871c-0.495-0.578-0.744-1.267-0.744-2.068V62.512
	c0-0.24-0.102-0.359-0.306-0.359h-5.701c-0.718,0-1.326-0.291-1.821-0.871c-0.499-0.578-0.744-1.268-0.744-2.068
	c0-0.799,0.245-1.489,0.744-2.069c0.495-0.58,1.103-0.869,1.821-0.869h17.046c0.718,0,1.326,0.289,1.823,0.869
	C156.314,57.726,156.562,58.415,156.562,59.214z M176.872,99.928c0,0.801-0.247,1.49-0.744,2.068
	c-0.495,0.58-1.086,0.871-1.772,0.871h-13.158c-0.686,0-1.277-0.291-1.772-0.871c-0.497-0.578-0.744-1.267-0.744-2.068V59.214
	c0-0.799,0.247-1.489,0.744-2.069c0.495-0.58,1.086-0.869,1.772-0.869h13.158c0.686,0,1.277,0.289,1.772,0.869
	c0.497,0.58,0.744,1.269,0.744,2.069c0,0.801-0.247,1.49-0.744,2.068c-0.495,0.58-1.086,0.871-1.772,0.871h-10.336
	c-0.204,0-0.306,0.119-0.306,0.359v13.791c0,0.2,0.102,0.3,0.306,0.3h8.334c0.686,0,1.277,0.291,1.772,0.869
	c0.497,0.58,0.744,1.269,0.744,2.069c0,0.84-0.247,1.539-0.744,2.098c-0.495,0.561-1.086,0.841-1.772,0.841h-8.334
	c-0.204,0-0.306,0.119-0.306,0.359V96.63c0,0.24,0.102,0.361,0.306,0.361h10.336c0.686,0,1.277,0.28,1.772,0.839
	C176.624,98.39,176.872,99.089,176.872,99.928z M23.925,122.947c0.064,0.279,0.096,0.559,0.096,0.839c0,0.801-0.23,1.49-0.691,2.068
	c-0.463,0.58-1.026,0.871-1.694,0.871c-1.147,0-1.895-0.706-2.244-2.117l-1.594-6.517c-0.034-0.2-0.145-0.3-0.338-0.3H6.519
	c-0.195,0-0.308,0.094-0.338,0.283l-1.551,6.534c-0.349,1.411-1.096,2.117-2.242,2.117c-0.669,0-1.235-0.291-1.696-0.871
	C0.228,125.276,0,124.586,0,123.785c0-0.279,0.03-0.559,0.096-0.839l9.647-40.714c0.321-1.4,1.079-2.099,2.267-2.099
	c1.19,0,1.945,0.699,2.269,2.099L23.925,122.947z M16.249,111.556l-4.114-17.58c0-0.074-0.043-0.112-0.123-0.112
	c-0.081,0-0.123,0.038-0.123,0.112l-4.207,17.546c-0.064,0.261,0,0.391,0.194,0.391h8.175
	C16.249,111.913,16.313,111.794,16.249,111.556z M39.851,123.785c0,0.801-0.249,1.49-0.744,2.068
	c-0.499,0.58-1.088,0.871-1.772,0.871h-9.292c-0.686,0-1.275-0.291-1.772-0.871c-0.497-0.578-0.744-1.267-0.744-2.068V83.071
	c0-0.799,0.248-1.489,0.744-2.068c0.497-0.58,1.086-0.869,1.772-0.869c0.684,0,1.275,0.289,1.77,0.869
	c0.497,0.58,0.744,1.269,0.744,2.068v37.416c0,0.24,0.104,0.361,0.31,0.361h6.468c0.684,0,1.273,0.28,1.772,0.839
	C39.601,122.248,39.851,122.947,39.851,123.785z M57.588,123.785c0,0.801-0.249,1.49-0.744,2.068
	c-0.497,0.58-1.088,0.871-1.772,0.871H43.848c-0.687,0-1.277-0.291-1.772-0.871c-0.499-0.578-0.744-1.267-0.744-2.068V83.071
	c0-0.799,0.246-1.489,0.744-2.068c0.495-0.58,1.084-0.869,1.772-0.869h11.224c0.684,0,1.275,0.289,1.772,0.869
	c0.495,0.58,0.744,1.269,0.744,2.068c0,0.801-0.249,1.49-0.744,2.068c-0.497,0.58-1.088,0.871-1.772,0.871H46.67
	c-0.204,0-0.308,0.119-0.308,0.359v13.791c0,0.2,0.104,0.3,0.308,0.3h6.4c0.684,0,1.275,0.291,1.772,0.869
	c0.495,0.58,0.744,1.269,0.744,2.068c0,0.841-0.249,1.539-0.744,2.099c-0.497,0.561-1.088,0.841-1.772,0.841h-6.4
	c-0.204,0-0.308,0.119-0.308,0.359v13.791c0,0.24,0.104,0.361,0.308,0.361h8.402c0.684,0,1.275,0.28,1.772,0.839
	C57.338,122.248,57.588,122.947,57.588,123.785z M90.115,126.012c0,2.199-0.514,4.218-1.541,6.056
	c-1.028,1.84-2.38,3.219-4.056,4.137c-0.172,0.121-0.223,0.281-0.153,0.48l5.544,16.97c0.136,0.359,0.206,0.72,0.206,1.079
	c0,0.801-0.249,1.49-0.748,2.068c-0.501,0.58-1.111,0.871-1.834,0.871c-1.135,0-1.927-0.637-2.374-1.908l-5.886-18.177
	c-0.068-0.202-0.206-0.302-0.412-0.302h-5.637c-0.172,0-0.257,0.119-0.257,0.359v17.089c0,0.801-0.247,1.49-0.738,2.068
	c-0.491,0.58-1.075,0.871-1.753,0.871c-0.712,0-1.313-0.291-1.804-0.871c-0.491-0.578-0.737-1.267-0.737-2.068V114.02
	c0-0.799,0.248-1.489,0.744-2.068c0.495-0.58,1.103-0.869,1.823-0.869h9.907c2.671,0,4.957,1.099,6.855,3.298
	c1.898,2.199,2.85,4.856,2.85,7.975V126.012z M85.083,126.012v-3.657c0-1.479-0.457-2.748-1.373-3.808
	c-0.914-1.06-2.01-1.589-3.287-1.589h-7.199c-0.172,0-0.257,0.119-0.257,0.359v13.731c0,0.24,0.085,0.361,0.257,0.361h7.199
	c1.277,0,2.373-0.529,3.287-1.589C84.626,128.761,85.083,127.491,85.083,126.012z M114.231,146.533c0,3.115-0.95,5.78-2.85,7.996
	c-1.898,2.216-4.182,3.323-6.853,3.323h-2.773c-2.669,0-4.953-1.107-6.853-3.323c-1.9-2.216-2.849-4.881-2.849-7.996V122.28
	c0-3.113,0.948-5.778,2.849-7.994c1.9-2.216,4.184-3.325,6.853-3.325h2.773c2.671,0,4.955,1.109,6.853,3.325
	c1.9,2.216,2.85,4.881,2.85,7.994V146.533z M109.201,146.579v-24.284c0-1.519-0.459-2.809-1.375-3.869
	c-0.914-1.058-2.01-1.589-3.287-1.589h-2.796c-1.277,0-2.373,0.531-3.289,1.589c-0.914,1.06-1.371,2.35-1.371,3.869v24.284
	c0,1.479,0.457,2.748,1.371,3.808c0.916,1.06,2.012,1.589,3.289,1.589h2.796c1.277,0,2.372-0.529,3.287-1.589
	C108.742,149.327,109.201,148.058,109.201,146.579z M146.433,154.733c0,0.801-0.248,1.49-0.744,2.068
	c-0.497,0.58-1.086,0.871-1.77,0.871c-0.686,0-1.277-0.291-1.772-0.871c-0.497-0.578-0.744-1.267-0.744-2.068v-27.461
	c0-0.04-0.034-0.081-0.102-0.121c-0.072,0-0.121,0.021-0.155,0.061l-7.189,17.208c-0.444,1.08-1.198,1.619-2.259,1.619
	c-1.06,0-1.813-0.538-2.259-1.619l-7.185-17.208c-0.036-0.04-0.087-0.061-0.155-0.061c-0.068,0.04-0.102,0.081-0.102,0.121v27.461
	c0,0.801-0.249,1.49-0.744,2.068c-0.499,0.58-1.088,0.871-1.772,0.871c-0.686,0-1.277-0.291-1.772-0.871
	c-0.497-0.578-0.744-1.267-0.744-2.068V114.02c0-0.839,0.246-1.538,0.737-2.099c0.491-0.559,1.075-0.839,1.753-0.839
	c1.048,0,1.794,0.55,2.233,1.647l9.879,23.374c0.057,0.166,0.117,0.149,0.176-0.051l9.877-23.376
	c0.45-1.063,1.209-1.594,2.278-1.594c0.69,0,1.285,0.28,1.787,0.839c0.499,0.561,0.75,1.26,0.75,2.099V154.733z M172.977,153.895
	c0.068,0.28,0.104,0.559,0.104,0.839c0,0.801-0.247,1.49-0.738,2.068c-0.491,0.58-1.094,0.871-1.804,0.871
	c-1.218,0-2.016-0.706-2.388-2.117l-1.696-6.517c-0.034-0.2-0.155-0.3-0.361-0.3H154.45c-0.206,0-0.327,0.094-0.361,0.283
	l-1.647,6.534c-0.374,1.411-1.171,2.117-2.39,2.117c-0.712,0-1.313-0.291-1.804-0.871c-0.491-0.578-0.737-1.267-0.737-2.068
	c0-0.279,0.034-0.559,0.102-0.839l10.268-40.714c0.342-1.4,1.147-2.099,2.414-2.099c1.266,0,2.07,0.699,2.412,2.099L172.977,153.895
	z M164.805,142.504l-4.38-17.58c0-0.074-0.042-0.112-0.129-0.112c-0.087,0-0.13,0.038-0.13,0.112l-4.479,17.546
	c-0.068,0.261,0,0.391,0.208,0.391h8.704C164.805,142.861,164.875,142.743,164.805,142.504z M196.284,154.733
	c0,0.801-0.247,1.49-0.744,2.068c-0.495,0.58-1.103,0.871-1.821,0.871c-1.027,0-1.781-0.559-2.259-1.679l-12.067-28.721
	c-0.042-0.081-0.106-0.121-0.193-0.121c-0.042,0.04-0.064,0.1-0.064,0.179v27.403c0,0.801-0.246,1.49-0.737,2.068
	c-0.491,0.58-1.077,0.871-1.753,0.871c-0.712,0-1.315-0.291-1.806-0.871c-0.491-0.578-0.735-1.267-0.735-2.068V114.02
	c0-0.839,0.244-1.538,0.737-2.099c0.493-0.559,1.094-0.839,1.808-0.839c1.016,0,1.764,0.548,2.238,1.643l12.084,28.77
	c0.049,0.072,0.117,0.087,0.212,0.047c0.045,0,0.07-0.04,0.07-0.121V114.02c0-0.799,0.246-1.489,0.737-2.068
	c0.489-0.58,1.075-0.869,1.753-0.869c0.712,0,1.313,0.289,1.804,0.869c0.491,0.58,0.737,1.269,0.737,2.068V154.733z
	 M204.754,154.733c0,0.801-0.245,1.49-0.737,2.068c-0.491,0.58-1.077,0.871-1.753,0.871c-0.714,0-1.315-0.291-1.806-0.871
	c-0.491-0.578-0.737-1.267-0.737-2.068V114.02c0-0.799,0.245-1.489,0.737-2.068c0.491-0.58,1.092-0.869,1.806-0.869
	c0.676,0,1.262,0.289,1.753,0.869c0.491,0.58,0.737,1.269,0.737,2.068V154.733z M226.163,154.733c0,0.801-0.246,1.49-0.744,2.068
	c-0.495,0.58-1.084,0.871-1.772,0.871h-13.158c-0.684,0-1.275-0.291-1.772-0.871c-0.495-0.578-0.744-1.267-0.744-2.068V114.02
	c0-0.799,0.249-1.489,0.744-2.068c0.497-0.58,1.088-0.869,1.772-0.869h13.158c0.688,0,1.277,0.289,1.772,0.869
	c0.499,0.58,0.744,1.269,0.744,2.068c0,0.801-0.246,1.49-0.744,2.068c-0.495,0.58-1.084,0.871-1.772,0.871h-10.334
	c-0.206,0-0.308,0.119-0.308,0.359v13.791c0,0.2,0.102,0.3,0.308,0.3h8.332c0.688,0,1.277,0.291,1.772,0.869
	c0.499,0.58,0.744,1.269,0.744,2.068c0,0.841-0.245,1.539-0.744,2.099c-0.495,0.561-1.084,0.841-1.772,0.841h-8.332
	c-0.206,0-0.308,0.119-0.308,0.359v13.791c0,0.24,0.102,0.361,0.308,0.361h10.334c0.688,0,1.277,0.28,1.772,0.839
	C225.918,153.196,226.163,153.895,226.163,154.733z M233.556,154.733c0,0.801-0.245,1.49-0.737,2.068
	c-0.491,0.58-1.077,0.871-1.753,0.871c-0.714,0-1.315-0.291-1.806-0.871c-0.491-0.578-0.737-1.267-0.737-2.068V114.02
	c0-0.799,0.245-1.489,0.737-2.068c0.491-0.58,1.092-0.869,1.806-0.869c0.676,0,1.262,0.289,1.753,0.869s0.737,1.269,0.737,2.068
	V154.733z M19.392,60.678c0-0.03,0.021-0.053,0.021-0.083c0-0.011-0.006-0.019-0.008-0.026c0-0.011,0.006-0.017,0.006-0.028
	c0-0.008-0.006-0.017-0.006-0.028c0.002-0.002,0.002-0.004,0.006-0.004c0-5.225-2.303-7.967-4.158-10.17
	c-1.549-1.842-2.569-3.064-2.576-5.825c0.008-2.758,1.027-3.978,2.576-5.814c1.855-2.202,4.158-4.93,4.158-10.151
	c0-0.008-0.009-0.021-0.009-0.03c0-0.021,0.009-0.038,0.009-0.057c0-5.217-2.31-7.956-4.158-10.157
	c-1.553-1.842-2.58-3.066-2.58-5.841c0-2.782,1.028-4.003,2.58-5.844c0.238-0.281,0.482-0.572,0.727-0.877
	c1.679-2.064-3.999-5.684-5.172-4.239c-0.21,0.259-0.433,0.523-0.669,0.803C8.29,4.509,5.984,7.246,5.984,12.463
	c0,5.219,2.299,7.952,4.156,10.151c1.553,1.842,2.58,3.064,2.58,5.846c0,2.784-1.027,4.005-2.58,5.852
	c-1.849,2.202-4.156,4.945-4.156,10.17c0,0.013,0.004,0.023,0.004,0.03c0,0.013-0.004,0.019-0.004,0.034
	c0,5.217,2.299,7.948,4.156,10.147c1.545,1.832,2.565,3.058,2.575,5.81c-0.008,0.028-0.019,0.057-0.019,0.091
	c0,0.019,0.011,0.034,0.011,0.055c-0.026,2.697-1.037,3.925-2.567,5.744c-1.849,2.203,3.561,6.162,5.117,4.307
	C17.089,68.525,19.348,65.799,19.392,60.678 M37.302,60.699c0.002-0.038,0.021-0.07,0.021-0.108c0-0.009-0.004-0.019-0.006-0.03
	c0-0.004,0.002-0.008,0.002-0.015c0-0.017-0.006-0.023-0.006-0.034c0.004,0,0.006,0,0.006-0.002c0-5.227-2.299-7.969-4.154-10.172
	c-1.547-1.842-2.571-3.064-2.58-5.823c0.009-2.76,1.033-3.98,2.58-5.816c1.855-2.202,4.154-4.93,4.154-10.151
	c0-0.008-0.006-0.019-0.006-0.03c0-0.019,0.006-0.034,0.006-0.057c0-5.217-2.306-7.956-4.154-10.155
	c-1.555-1.844-2.582-3.064-2.582-5.841c0-2.784,1.027-4.005,2.582-5.844c0.236-0.283,0.482-0.574,0.725-0.876
	c1.679-2.066-4.008-5.67-5.195-4.212c-0.202,0.249-0.417,0.506-0.646,0.774c-1.849,2.201-4.154,4.938-4.154,10.159
	c0,5.217,2.297,7.951,4.154,10.151c1.553,1.842,2.58,3.066,2.58,5.844c0,2.784-1.027,4.005-2.58,5.856
	c-1.849,2.203-4.154,4.941-4.154,10.17c0,0.013,0.004,0.019,0.004,0.028c0,0.015-0.004,0.021-0.004,0.032
	c0,5.219,2.297,7.948,4.154,10.151c1.547,1.832,2.565,3.056,2.577,5.81c-0.008,0.027-0.017,0.053-0.017,0.083
	c0,0.023,0.009,0.034,0.009,0.053c-0.028,2.705-1.037,3.929-2.569,5.754c-1.849,2.199,3.561,6.158,5.121,4.303
	C34.998,68.528,37.252,65.805,37.302,60.699 M51.077,70.701c1.828-2.169,4.08-4.896,4.131-10.002c0-0.038,0.019-0.07,0.019-0.104
	c0-0.013-0.002-0.023-0.004-0.032c0-0.006,0.002-0.011,0.002-0.017c0-0.013-0.004-0.019-0.004-0.03c0.002,0,0.002-0.004,0.004-0.006
	c0-5.227-2.306-7.973-4.154-10.172c-1.549-1.842-2.571-3.064-2.578-5.823c0.008-2.76,1.029-3.98,2.578-5.816
	c1.851-2.202,4.154-4.93,4.154-10.151c0-0.009-0.008-0.021-0.008-0.03c0-0.019,0.008-0.034,0.008-0.057
	c0-5.217-2.306-7.956-4.154-10.155c-1.555-1.844-2.58-3.064-2.58-5.841c0-2.784,1.026-4.005,2.58-5.844
	c0.24-0.287,0.489-0.586,0.738-0.893c1.675-2.065-3.984-5.718-5.121-4.305c-0.227,0.283-0.474,0.574-0.735,0.884
	C44.106,4.509,41.8,7.246,41.8,12.465c0,5.217,2.301,7.951,4.154,10.151c1.555,1.842,2.582,3.062,2.582,5.844
	c0,2.784-1.027,4.005-2.582,5.856c-1.853,2.203-4.154,4.941-4.154,10.17c0,0.013,0.004,0.019,0.004,0.028
	c0,0.015-0.004,0.021-0.004,0.032c0,5.219,2.301,7.948,4.154,10.151c1.547,1.832,2.567,3.058,2.578,5.81
	c-0.004,0.03-0.019,0.057-0.019,0.087c0,0.019,0.011,0.03,0.013,0.049c-0.028,2.703-1.037,3.929-2.573,5.754
	C44.101,68.596,49.516,72.556,51.077,70.701 M16.054,68.566c0-1.855-1.502-3.357-3.358-3.357c-1.851,0-3.355,1.502-3.355,3.357
	c0,1.855,1.504,3.359,3.355,3.359C14.552,71.925,16.054,70.421,16.054,68.566 M16.76,3.61c0-1.855-1.504-3.357-3.357-3.357
	c-1.855,0-3.357,1.502-3.357,3.357s1.502,3.357,3.357,3.357C15.257,6.966,16.76,5.465,16.76,3.61 M34.69,3.61
	c0-1.855-1.502-3.357-3.358-3.357c-1.851,0-3.355,1.502-3.355,3.357s1.504,3.357,3.355,3.357C33.188,6.966,34.69,5.465,34.69,3.61
	 M52.58,3.61c0-1.855-1.504-3.357-3.357-3.357c-1.855,0-3.358,1.502-3.358,3.357s1.504,3.357,3.358,3.357
	C51.077,6.966,52.58,5.465,52.58,3.61 M33.967,68.566c0-1.855-1.504-3.357-3.357-3.357s-3.357,1.502-3.357,3.357
	c0,1.855,1.504,3.359,3.357,3.359S33.967,70.421,33.967,68.566 M51.872,68.566c0-1.855-1.502-3.357-3.359-3.357
	c-1.851,0-3.353,1.502-3.353,3.357c0,1.855,1.502,3.359,3.353,3.359C50.37,71.925,51.872,70.421,51.872,68.566 M16.054,154.133
	c0-1.853-1.502-3.357-3.358-3.357c-1.851,0-3.355,1.504-3.355,3.357c0,1.853,1.504,3.357,3.355,3.357
	C14.552,157.489,16.054,155.986,16.054,154.133 M16.054,139.507c0-1.853-1.502-3.357-3.358-3.357c-1.851,0-3.355,1.503-3.355,3.357
	c0,1.855,1.504,3.357,3.355,3.357C14.552,142.863,16.054,141.362,16.054,139.507 M16.054,139.492H9.341v14.641h6.713V139.492z
	 M33.967,154.133c0-1.853-1.502-3.357-3.355-3.357c-1.855,0-3.357,1.504-3.357,3.357c0,1.853,1.502,3.357,3.357,3.357
	C32.465,157.489,33.967,155.986,33.967,154.133 M33.967,139.507c0-1.853-1.502-3.357-3.355-3.357c-1.855,0-3.357,1.503-3.357,3.357
	c0,1.855,1.502,3.357,3.357,3.357C32.465,142.863,33.967,141.362,33.967,139.507 M33.967,139.492h-6.711v14.641h6.711V139.492z
	 M51.872,154.133c0-1.853-1.502-3.357-3.359-3.357c-1.851,0-3.353,1.504-3.353,3.357c0,1.853,1.502,3.357,3.353,3.357
	C50.37,157.489,51.872,155.986,51.872,154.133 M51.872,139.507c0-1.853-1.502-3.357-3.359-3.357c-1.851,0-3.353,1.503-3.353,3.357
	c0,1.855,1.502,3.357,3.353,3.357C50.37,142.863,51.872,141.362,51.872,139.507 M51.872,139.492H45.16v14.641h6.712V139.492z"/>
</svg>
