<!-- Generator: Adobe Illustrator 22.1.0, SVG Export Plug-In  -->
<svg version="1.1"
	 xmlns="http://www.w3.org/2000/svg" xmlns:xlink="http://www.w3.org/1999/xlink" xmlns:a="http://ns.adobe.com/AdobeSVGViewerExtensions/3.0/"
	 x="0px" y="0px" width="56.6px" height="51.3px" viewBox="0 0 56.6 51.3" enable-background="new 0 0 56.6 51.3"
	 xml:space="preserve">
<defs>
</defs>
<path fill="#868789" d="M30,0c0.1,0.3,0.3,0.6,0.4,1c0.4,0.8,0.6,1.8,0.8,2.7c0.2,0.7,0.5,1.5,0.7,2.2c0.3,1.2,0.6,2.3,1,3.5
	c0.4,1,0.6,2.1,0.9,3.1c0.2,0.8,0.5,1.6,0.7,2.3c0.1,0.4,0.3,0.9,0.4,1.3c0.2,0.6,0.3,1.2,0.5,1.8c0.3,1,0.6,2,0.9,3
	c0.2,0.8,0.5,1.7,0.8,2.5c0.1,0.4,0.3,0.8,0.4,1.3c-0.2,0-0.4,0-0.5,0c-1.4-0.3-2.9-0.5-4.3-0.6c-0.6,0-1.2-0.1-1.8-0.1
	c-0.3,0-0.4-0.1-0.5-0.4c-0.2-0.5-0.3-0.9-0.6-1.3c-0.2-0.4-0.4-0.7-0.7-1c-0.3-0.3-0.5-0.7-0.8-1c-0.3-0.3-0.6-0.4-1-0.4
	c-2.6,0-5.1-0.1-7.7-0.1c-0.8,0-1.7,0.1-2.5,0.2c-0.1,0-0.2,0-0.2,0.1c-0.2,0.3-0.5,0.6-0.7,0.9c-0.3,0.4-0.5,0.8-0.8,1.1
	c-0.1,0.2-0.2,0.4-0.3,0.6c-0.4,0.6-0.7,1.2-1.1,1.8c-0.4,0.6-0.8,1.2-1.1,1.8c-0.1,0.2-0.2,0.4-0.3,0.5c-0.5,0.9-0.9,1.8-1.4,2.7
	c-0.3,0.5,0,0.9,0.1,1.4c0.1,0.4,0.3,0.7,0.5,1.1c0.2,0.3,0.3,0.7,0.5,1c0.1,0.2,0.2,0.5,0.3,0.7c0.4,0.8,0.9,1.5,1.3,2.3
	c0.2,0.3,0.4,0.7,0.6,1c0.4,0.5,0.8,1.1,1.1,1.6c0.1,0.1,0.1,0.3,0.2,0.4c0.3,0.4,0.7,0.9,1,1.3c0,0,0.1,0.1,0.2,0.1
	c0.1,0,0.2,0,0.3,0c3.3,0,6.6,0,9.9,0c0.3,0,0.6,0,0.8-0.3c0.4-0.5,0.9-0.8,1.2-1.4c0.1-0.2,0.3-0.3,0.4-0.5
	c0.2-0.2,0.3-0.5,0.5-0.7c0.1-0.2,0.3-0.4,0.4-0.7c0.1-0.3,0.3-0.5,0.4-0.8c0.4-0.7,0.7-1.4,1.1-2.1c0.1-0.2,0.3-0.3,0.5-0.2
	c1.6,0.4,3.2,0.7,4.9,0.9c0.8,0.1,1.7,0.2,2.6,0.2c0.2,0,0.3,0.1,0.3,0.3c0.3,0.9,0.5,1.8,0.8,2.7c0.3,1,0.6,2,0.9,3
	c0.3,0.9,0.5,1.8,0.8,2.7c0.3,1,0.6,2,0.9,2.9c0.3,0.8,0.5,1.7,0.8,2.5c0.1,0.4,0.3,0.8,0.4,1.2c0.3,0.8-0.2,1.3-1,1.3
	c-1.4,0-2.8,0-4.2,0c-2.3,0-4.6,0-6.9,0c-0.3,0-0.7-0.1-1-0.1c-0.7-0.2-1-0.8-1.2-1.4c-0.2-0.5-0.3-1-0.5-1.5
	C30,47.4,29.3,47,28.5,47c-3.9,0-7.9,0-11.8,0c-0.7,0-1.4,0.2-1.9,0.8c-0.1,0.1-0.2,0.2-0.2,0.3c-0.2,0.6-0.3,1.1-0.4,1.7
	c-0.1,0.3-0.3,0.6-0.4,0.8c-0.4,0.6-0.9,0.7-1.6,0.7c-3.7,0-7.5,0-11.2,0c0,0-0.1,0-0.1,0c-0.6,0-0.8-0.1-0.9-0.9
	c0-0.4,0.1-0.9,0.2-1.3c0.2-0.7,0.4-1.4,0.7-2c0.2-0.5,0.3-1,0.4-1.4C1.5,44.8,1.8,43.9,2,43c0.3-1,0.6-1.9,0.9-2.9
	c0.3-1,0.5-2,0.9-2.9c0.4-0.9,0.5-1.9,0.8-2.8c0.3-0.9,0.5-1.8,0.8-2.7c0.3-0.9,0.5-1.9,0.8-2.8c0.4-1.1,0.6-2.2,0.9-3.3
	c0.2-0.8,0.5-1.6,0.7-2.4c0.3-1.1,0.6-2.3,1-3.4c0.3-1,0.6-2,0.8-2.9c0.3-0.9,0.5-1.9,0.8-2.8c0.3-0.9,0.5-1.9,0.8-2.8
	c0.3-1,0.6-2.1,0.9-3.1c0.2-0.8,0.4-1.5,0.7-2.3c0.4-1,0.6-2,0.9-3c0.2-0.8,0.6-1.5,0.9-2.3c0.1-0.2,0.2-0.4,0.3-0.6
	C19.9,0,25,0,30,0z M56.6,23.1c-0.1,0.1-0.2,0.1-0.4,0.2c-0.5,0.3-0.9,0.6-1.4,0.8c-0.4,0.2-0.9,0.4-1.4,0.6
	c-0.6,0.2-1.1,0.5-1.7,0.7c-1.8,0.6-3.6,0.8-5.5,0.9c-1.6,0.1-3.2-0.1-4.8-0.3c-1.2-0.1-2.5-0.3-3.7-0.5c-0.8-0.1-1.7-0.3-2.5-0.4
	c-1.1-0.1-2.1-0.2-3.2-0.3c-1.7,0-3.4-0.1-5.1,0.4c-0.9,0.3-1.9,0.5-2.8,0.9c-0.4,0.1-0.7,0.3-1,0.5c-0.5,0.3-1,0.5-1.5,0.8
	c-0.4,0.2-0.7,0.5-1,0.7c-0.7,0.4-1.3,1.1-2,1.6c0,0-0.1,0.1-0.1,0.1c0.8-0.4,1.5-0.9,2.3-1.3c0.8-0.4,1.7-0.8,2.5-1
	c1.4-0.4,2.9-0.6,4.4-0.7c1.5-0.1,3-0.1,4.4,0.1c1.5,0.2,3.1,0.3,4.6,0.5c0.7,0.1,1.4,0.2,2.2,0.4c0.8,0.1,1.5,0.2,2.3,0.3
	c1,0.1,2.1,0.1,3.1,0.2c0.4,0,0.9,0,1.3-0.1c0.7-0.1,1.3-0.1,2-0.2c0.4-0.1,0.8-0.2,1.2-0.4c1-0.3,1.9-0.6,2.9-1
	c0.7-0.3,1.3-0.7,1.9-1.1c0.3-0.2,0.7-0.5,1-0.7c0.2-0.2,0.5-0.3,0.7-0.5C55.8,23.9,56.2,23.5,56.6,23.1
	C56.6,23.1,56.6,23.1,56.6,23.1z M16.3,34c0.1,0,0.1,0,0.2,0c1-0.3,2-0.6,3-0.8c0.7-0.2,1.5-0.3,2.3-0.3c1.3-0.1,2.6-0.1,4-0.2
	c0.4,0,0.7,0.1,1.1,0.1c1.1,0.1,2.1,0.1,3.2,0.2c0.4,0,0.7,0,1.1,0.1c0.6,0.1,1.2,0.1,1.8,0.3c0.6,0.2,1.2,0.1,1.8,0.2
	c0.9,0.1,1.9,0.2,2.8,0.3c1.7,0.1,3.4,0.3,5,0.1c1.4-0.1,2.7-0.2,4-0.8c0.8-0.3,1.6-0.6,2.4-1c0.3-0.2,0.6-0.4,0.8-0.6
	c0.8-0.4,1.5-1,2.2-1.7c0.5-0.5,1-1,1.5-1.5c-0.1,0-0.3,0.1-0.4,0.1c-0.4,0.3-0.9,0.6-1.3,0.8c-0.4,0.2-0.9,0.4-1.3,0.6
	c-0.4,0.2-0.9,0.4-1.3,0.6c-0.9,0.3-1.8,0.6-2.8,0.9c-0.7,0.2-1.4,0.3-2.1,0.4c-1.4,0.2-2.7,0.2-4.1,0.1c-0.6,0-1.2-0.1-1.7-0.2
	c-0.6-0.1-1.3-0.1-1.9-0.2c-1.9-0.3-3.7-0.5-5.6-0.6c-2-0.1-3.9-0.1-5.9,0.2c-1.4,0.2-2.9,0.3-4.2,0.9c-0.8,0.4-1.6,0.6-2.4,0.9
	c-0.3,0.1-0.6,0.3-0.9,0.5C17,33.6,16.6,33.8,16.3,34C16.3,34,16.3,34,16.3,34z M54.1,26.2c-0.4,0.2-0.8,0.5-1.3,0.7
	c-0.7,0.4-1.4,0.7-2.1,1c-0.8,0.3-1.7,0.5-2.6,0.8c-0.8,0.2-1.6,0.3-2.4,0.4c-0.5,0.1-1,0.2-1.4,0.2c-0.8,0-1.6,0-2.4,0
	c-0.2,0-0.3,0-0.5,0c-0.5-0.1-1-0.2-1.6-0.2c-0.7-0.1-1.3-0.1-2-0.2c-0.8-0.1-1.5-0.2-2.3-0.3c-0.9-0.1-1.8-0.2-2.7-0.3
	c-1-0.1-1.9-0.2-2.9-0.2c-1.2-0.1-2.5,0-3.7,0.2c-1.4,0.2-2.8,0.4-4,1.1c-0.8,0.4-1.7,0.8-2.4,1.4c-0.7,0.5-1.4,0.9-2.1,1.5
	c0,0,0.1,0,0.1,0c0.3-0.2,0.5-0.4,0.8-0.5c1.1-0.6,2.3-0.9,3.5-1.3c1.4-0.4,2.9-0.5,4.3-0.5c0.9,0,1.8,0,2.7,0.1
	c0.8,0,1.7,0.1,2.5,0.2c1.1,0.1,2.1,0.2,3.2,0.4c1.1,0.2,2.2,0.3,3.2,0.4c0.4,0,0.7,0.1,1.1,0.1c1.1,0.1,2.1,0.2,3.2,0.2
	c0.8,0,1.7-0.1,2.5-0.2c1.2-0.1,2.3-0.5,3.4-0.9c0.8-0.3,1.7-0.6,2.4-1.1c0.7-0.5,1.5-0.8,2.1-1.4c0.1-0.1,0.1-0.1,0.2-0.2
	C53.5,27,53.8,26.7,54.1,26.2C54.2,26.3,54.1,26.2,54.1,26.2z"/>
</svg>
