<!-- Generator: Adobe Illustrator 22.1.0, SVG Export Plug-In  -->
<svg version="1.1"
	 xmlns="http://www.w3.org/2000/svg" xmlns:xlink="http://www.w3.org/1999/xlink" xmlns:a="http://ns.adobe.com/AdobeSVGViewerExtensions/3.0/"
	 x="0px" y="0px" width="74.4px" height="41.2px" viewBox="0 0 74.4 41.2" enable-background="new 0 0 74.4 41.2"
	 xml:space="preserve">
<defs>
</defs>
<path fill="#868789" d="M27.7,11.8l-11-11C16.2,0.3,15.5,0,14.8,0c-1,0-1.8,0.6-2.3,1.5L0.8,24.8C0.3,25.7,0,27,0,28v10.3
	c0,1.6,1.3,3,3,3h23.1c1.6,0,3-1.3,3-3V15.2C29.1,14,28.5,12.6,27.7,11.8z M27.4,38.3c0,0.7-0.6,1.3-1.3,1.3H15.8
	c-0.7,0-1.9,0-2.6,0H3c-0.7,0-1.3-0.6-1.3-1.3V28c0-0.7,0.3-1.8,0.6-2.4L14,2.2c0.3-0.6,1-0.7,1.5-0.2l11,11
	c0.5,0.5,0.9,1.5,0.9,2.2V38.3z M21.4,21.5c1.3,0.8,2.4,1.8,3.1,3.1c0.8,1.3,1.1,2.8,1.1,4.5v7.6c0,0.3-0.1,0.5-0.3,0.7
	c-0.2,0.2-0.4,0.3-0.7,0.3c-0.3,0-0.5-0.1-0.7-0.3c-0.2-0.2-0.3-0.4-0.3-0.7v-2.4c-0.7,1.1-1.6,2-2.8,2.6c-1.2,0.6-2.5,1-4,1
	c-1.6,0-3.1-0.4-4.5-1.1c-1.3-0.8-2.4-1.8-3.1-3.1c-0.8-1.3-1.1-2.8-1.1-4.4c0-1.6,0.4-3.1,1.1-4.5c0.8-1.3,1.8-2.4,3.1-3.1
	c1.3-0.8,2.8-1.1,4.5-1.1C18.5,20.4,20,20.8,21.4,21.5z M20.4,35.2c1-0.6,1.9-1.4,2.5-2.5c0.6-1.1,0.9-2.3,0.9-3.6
	c0-1.3-0.3-2.5-0.9-3.6c-0.6-1.1-1.4-1.9-2.5-2.5c-1-0.6-2.2-0.9-3.5-0.9c-1.3,0-2.5,0.3-3.5,0.9c-1,0.6-1.9,1.5-2.5,2.5
	c-0.6,1.1-0.9,2.3-0.9,3.6c0,1.3,0.3,2.5,0.9,3.6c0.6,1.1,1.4,1.9,2.5,2.5c1,0.6,2.2,0.9,3.5,0.9C18.2,36.1,19.4,35.8,20.4,35.2z
	 M33.7,37.2c-1.1-0.4-2.1-1.1-2.8-2c-0.1-0.2-0.2-0.4-0.2-0.6c0-0.3,0.1-0.5,0.4-0.7c0.1-0.1,0.3-0.2,0.5-0.2c0.3,0,0.5,0.1,0.7,0.3
	c1,1.3,2.7,1.9,5,1.9c1.6,0,2.9-0.3,3.6-0.9c0.8-0.6,1.2-1.3,1.2-2.3c0-1.6-1.6-2.7-4.8-3.2c-2-0.3-3.6-0.8-4.6-1.7
	c-1-0.8-1.5-1.8-1.5-2.9c0-1.5,0.6-2.7,1.7-3.6c1.1-0.8,2.6-1.3,4.4-1.3c2.6,0,4.6,0.9,6,2.8c0.1,0.1,0.2,0.3,0.2,0.5
	c0,0.3-0.2,0.5-0.5,0.7c-0.2,0.1-0.4,0.1-0.5,0.1c-0.3,0-0.6-0.1-0.8-0.4c-1.1-1.4-2.6-2-4.5-2c-1.3,0-2.3,0.3-3,0.8
	c-0.8,0.6-1.1,1.2-1.1,2c0,0.8,0.4,1.5,1.1,2c0.7,0.5,1.9,0.9,3.6,1.1c2.2,0.3,3.8,0.9,4.8,1.8c1,0.9,1.5,1.9,1.5,3.1
	c0,1-0.3,1.8-0.9,2.5c-0.6,0.7-1.4,1.3-2.5,1.7c-1,0.4-2.1,0.6-3.3,0.6C36,37.9,34.9,37.7,33.7,37.2z M55.6,36
	c0.2,0.2,0.3,0.4,0.3,0.7c0,0.3-0.1,0.5-0.3,0.7c-0.2,0.2-0.4,0.3-0.7,0.3h-0.7c-1.1,0-2.2-0.3-3.1-0.8c-0.9-0.5-1.6-1.2-2.1-2.1
	c-0.5-0.9-0.8-1.9-0.8-3.1v-8.8h-2.4c-0.3,0-0.5-0.1-0.6-0.2C45.1,22.5,45,22.3,45,22c0-0.3,0.1-0.5,0.2-0.6
	c0.2-0.2,0.4-0.2,0.6-0.2h2.4v-5.1c0-0.3,0.1-0.5,0.3-0.7c0.2-0.2,0.4-0.3,0.7-0.3c0.3,0,0.5,0.1,0.7,0.3c0.2,0.2,0.3,0.4,0.3,0.7
	v5.1h4.1c0.3,0,0.5,0.1,0.6,0.2c0.2,0.2,0.2,0.4,0.2,0.6c0,0.3-0.1,0.5-0.2,0.6c-0.2,0.2-0.4,0.2-0.6,0.2h-4.1v8.8
	c0,1.2,0.4,2.2,1.1,3c0.8,0.8,1.7,1.1,2.9,1.1h0.7C55.2,35.8,55.4,35.9,55.6,36z M70.1,21.5c1.3,0.8,2.4,1.8,3.1,3.1
	c0.8,1.3,1.1,2.8,1.1,4.5v7.6c0,0.3-0.1,0.5-0.3,0.7c-0.2,0.2-0.4,0.3-0.7,0.3c-0.3,0-0.5-0.1-0.7-0.3c-0.2-0.2-0.3-0.4-0.3-0.7
	v-2.4c-0.7,1.1-1.6,2-2.8,2.6c-1.2,0.6-2.5,1-4,1c-1.6,0-3.1-0.4-4.5-1.1c-1.3-0.8-2.4-1.8-3.1-3.1c-0.8-1.3-1.1-2.8-1.1-4.4
	c0-1.6,0.4-3.1,1.1-4.5c0.8-1.3,1.8-2.4,3.1-3.1c1.3-0.8,2.8-1.1,4.5-1.1C67.3,20.4,68.7,20.8,70.1,21.5z M69.1,35.2
	c1-0.6,1.9-1.4,2.5-2.5c0.6-1.1,0.9-2.3,0.9-3.6c0-1.3-0.3-2.5-0.9-3.6c-0.6-1.1-1.4-1.9-2.5-2.5c-1-0.6-2.2-0.9-3.5-0.9
	c-1.3,0-2.5,0.3-3.5,0.9c-1,0.6-1.9,1.5-2.5,2.5c-0.6,1.1-0.9,2.3-0.9,3.6c0,1.3,0.3,2.5,0.9,3.6c0.6,1.1,1.4,1.9,2.5,2.5
	c1,0.6,2.2,0.9,3.5,0.9C66.9,36.1,68.1,35.8,69.1,35.2z"/>
</svg>
