<!-- Generator: Adobe Illustrator 19.2.1, SVG Export Plug-In  -->
<svg version="1.1"
	 xmlns="http://www.w3.org/2000/svg" xmlns:xlink="http://www.w3.org/1999/xlink" xmlns:a="http://ns.adobe.com/AdobeSVGViewerExtensions/3.0/"
	 x="0px" y="0px" width="147px" height="103.3px" viewBox="0 0 147 103.3" enable-background="new 0 0 147 103.3"
	 xml:space="preserve">
<defs>
</defs>
<path fill-rule="evenodd" clip-rule="evenodd" fill='#868789' d="M120.7,6.9c0.8,4.4,1.6,8.9,2.5,13.3c0.8,3.9,1.2,7.8,1,11.7c0,0.3,0,0.7,0.1,1.2
	h18.1v9.6h4.6V45h-7v-9.5h-18.1c-0.1-5.2,0.4-10.4-1.2-15.4c-1.9,6.1-0.9,12.4-1.2,18.7h-5V45H101v-6.1h-4.9v-6.2h-7.4V18.9h-9.9v20
	h-5.4V45H60.1v-1.3c0-5.7,0-11.3,0-16.9c0-2.1-0.2-4.1-0.6-6.1c-0.6-2.8-1.1-5.6-1.8-8.7c-0.2,0.4-0.3,0.5-0.3,0.7
	c-0.7,3.5-1.4,6.9-2.1,10.4c-0.1,0.5-0.1,1.1-0.1,1.6c0,3.1,0,6.3,0,9.4v1.3h-20V45H21.9v-9.5h-3.5c0-1.8,0-3.4,0-5.1
	c-0.1-2-1.6-3.6-3.6-3.7c-2.3-0.2-4.2,1.5-4.3,3.9c0,1.6,0,3.2,0,4.9H7.1v9.6H0v-2.4h4.6v-9.6h3.4c0-0.9,0-1.7,0-2.5
	c0-2.8,1.7-5.1,4.3-6c2.5-0.9,5.3-0.1,7,1.9c1.1,1.2,1.5,2.7,1.5,4.3c0,0.7,0,1.4,0,2.2h3.4v9.5h8.5v-9.5h20
	c0.1-0.3,0.1-0.5,0.1-0.6c0-0.3,0-0.6,0-0.9c-0.4-5.9,0.6-11.7,1.9-17.5c1-4.5,1.9-9.1,2.8-13.7c0-0.1,0.1-0.3,0.3-0.4
	c0.1,0.2,0.2,0.5,0.2,0.7c1.5,7.5,3,14.9,4.5,22.4c0.1,0.5,0.1,1,0.1,1.5c0,5.6,0,11.2,0,16.7v1.3H71v-6.2h5.4v-20h14.8v13.8h7.3
	v6.2h4.9v6.2h8.4v-6.2h5c0-0.5,0.1-0.8,0.1-1.2c0-1.9,0.1-3.9,0-5.8c-0.2-3.7,0.7-7.1,1.3-10.7c0.7-3.9,1.4-7.7,2.1-11.6
	c0-0.1,0.1-0.2,0.1-0.3H120.7z M72.4,53.8c0-0.1-0.1-0.2-0.1-0.2c-0.1-0.1-0.1-0.2-0.2-0.2c-5.4-3.7-11.3-4.9-17.5-2.8
	c-3.9,1.3-6.4,4-7.1,8.1c-0.7,4.3,0.5,7.7,5.2,9.8c0.3,0.1,0.5,0.2,0.8,0.3c2.9,0.9,5.8,1.7,8.7,2.6c1.3,0.4,2.5,1,3.7,1.6
	c1.4,0.8,2.1,2,2,3.6c-0.1,1.7-0.9,3-2.5,3.6c-0.5,0.2-1.1,0.4-1.7,0.5c-2.7,0.5-5.4,0.2-8.1-0.6c-2.6-0.8-4.9-1.9-7.1-3.7
	c-0.9,1.7-1.7,3.2-2.5,4.8c0.1,0.2,0.2,0.2,0.3,0.3c0.3,0.2,0.5,0.4,0.8,0.6c4,2.7,8.5,4,13.3,4.1c3.1,0.1,6.1-0.4,8.9-1.9
	c4.9-2.7,6.4-9.8,2.8-14.2c-1.2-1.5-2.9-2.5-4.7-3.1c-3-0.9-6-1.7-9-2.6C57.2,64,56.1,63.5,55,63c-1-0.5-1.6-1.4-1.7-2.5
	c-0.4-2.5,0.9-4.6,3.3-5.3c2.3-0.7,4.6-0.6,6.9-0.1c2.4,0.5,4.5,1.6,6.4,3.2C70.8,56.7,71.6,55.2,72.4,53.8 M33.5,85.8
	c-4.7-12-9.4-23.9-14.1-35.8c-1.4,0-2.7,0-4,0c-0.8,0-1.1,0.2-1.3,0.9c-4.5,11.4-9,22.9-13.6,34.3c-0.1,0.2-0.1,0.4-0.2,0.8
	c1.8,0,3.4,0,5.1,0c0.7,0,1-0.2,1.2-0.8c1-2.7,2-5.3,3-8c0.3-0.7,0.6-1,1.4-1c2.4,0.1,4.8,0,7.2,0c1.8,0,3.7,0,5.6,0
	c1.3,3.3,2.5,6.5,3.7,9.6H33.5z M10.9,71.8c2-5.1,3.9-10.1,5.8-15.1H17c1.9,5,3.7,9.9,5.6,15.1H10.9z M119.1,49.9
	c-4.8,12-9.5,23.9-14.2,36c1.8,0,3.5,0,5.2,0c0.7,0,1-0.2,1.2-0.8c1-2.7,2.1-5.4,3.1-8.1c0.2-0.7,0.6-0.9,1.3-0.9
	c3.9,0,7.9,0,11.8,0c0.9,0,1.2,0.3,1.5,1c1,2.6,2,5.2,3,7.7c0.3,0.7,0.6,1.1,1.4,1c1.1-0.1,2.3,0,3.4,0h1.6
	c-0.2-0.5-0.2-0.7-0.3-0.9c-2.6-6.7-5.2-13.3-7.9-20c-1.8-4.7-3.7-9.4-5.5-14.1c-0.2-0.4-0.2-0.9-0.9-0.9
	C122.1,49.9,120.6,49.9,119.1,49.9 M115.6,71.8c2-5.1,3.9-10.1,5.8-15c0.1,0,0.2,0,0.2,0c1.9,5,3.7,9.9,5.6,15.1H115.6z M91.2,63.6
	v-4.3h-5.7v-8.6h-5.6v8.7h-3.4v4.3h3.4v3.7c0,4.3,0,8.6,0,12.9c0,2.9,1.4,4.9,4,5.6c3.3,0.9,6.4,0,9.4-1.5c-0.4-1.5-0.8-2.9-1.2-4.3
	c-1,0.3-1.9,0.7-2.9,0.9c-1.9,0.4-3.8-0.3-3.8-3.2c0.1-4.3,0-8.5,0-12.8v-1.5H91.2z M146.5,91c0.1-1.1-0.6-0.8-1.1-0.8
	c-11.6,0-23.1,0-34.7,0H1.4c-0.4,0-0.7,0-1.1,0c-0.1,0-0.3,0.2-0.3,0.3c0,0.1,0.2,0.3,0.3,0.4C0.6,91,1,91,1.4,91h144H146.5
	 M41.5,79.5h-4.5v6.4h4.5V79.5z M96.9,85.8h4.5v-6.3h-4.5V85.8z M146.3,79.5h-4.5v6.3h4.5V79.5z M0.7,101.1h0.7l0.7-1.6h3.4l0.7,1.6
	H7l-2.8-6.3H3.5L0.7,101.1z M2.4,98.8l1.4-3.2l1.4,3.2H2.4z M7.5,100.5c0.5,0.4,1.2,0.7,1.9,0.7c0.9,0,1.6-0.5,1.6-1.4v0
	c0-0.8-0.8-1.1-1.5-1.3c-0.6-0.2-1.2-0.4-1.2-0.8v0c0-0.4,0.4-0.7,0.9-0.7c0.4,0,0.9,0.2,1.4,0.4L11,97c-0.5-0.3-1.1-0.5-1.6-0.5
	c-0.9,0-1.6,0.5-1.6,1.3v0c0,0.8,0.8,1.1,1.5,1.3c0.6,0.2,1.1,0.3,1.1,0.8v0c0,0.4-0.4,0.7-0.9,0.7c-0.5,0-1.1-0.2-1.6-0.6
	L7.5,100.5 M11.9,98.9c0,1.3,1,2.4,2.4,2.4c1.4,0,2.4-1.1,2.4-2.4v0c0-1.3-1-2.4-2.4-2.4C12.9,96.4,11.9,97.5,11.9,98.9L11.9,98.9
	 M16,98.9c0,1-0.7,1.8-1.7,1.8c-1,0-1.7-0.8-1.7-1.8v0c0-1,0.7-1.8,1.7-1.8C15.2,97,16,97.9,16,98.9L16,98.9 M17.4,98.9
	c0,1.3,1,2.4,2.3,2.4c0.9,0,1.4-0.4,1.9-0.9l-0.4-0.4c-0.4,0.4-0.8,0.7-1.4,0.7c-1,0-1.7-0.8-1.7-1.8v0c0-1,0.7-1.8,1.6-1.8
	c0.6,0,1,0.3,1.4,0.7l0.5-0.5c-0.4-0.5-1-0.8-1.8-0.8C18.4,96.4,17.4,97.5,17.4,98.9L17.4,98.9 M22.6,95.5h0.8v-0.8h-0.8V95.5z
	 M22.7,101.1h0.7v-4.6h-0.7V101.1z M24.4,99.8c0,0.9,0.9,1.4,1.7,1.4c0.8,0,1.3-0.4,1.7-0.8v0.7h0.7v-2.8c0-0.6-0.2-1-0.5-1.3
	c-0.3-0.3-0.8-0.5-1.5-0.5c-0.7,0-1.2,0.1-1.7,0.4l0.2,0.6c0.4-0.2,0.9-0.3,1.4-0.3c0.9,0,1.4,0.4,1.4,1.2v0.2
	c-0.4-0.1-0.8-0.2-1.4-0.2C25.2,98.3,24.4,98.8,24.4,99.8L24.4,99.8 M27.8,99.4c0,0.7-0.7,1.2-1.5,1.2c-0.6,0-1.2-0.3-1.2-0.9v0
	c0-0.6,0.5-0.9,1.3-0.9c0.6,0,1,0.1,1.4,0.2V99.4 M29.9,99.9c0,0.9,0.6,1.3,1.3,1.3c0.3,0,0.6-0.1,0.8-0.2v-0.6
	c-0.2,0.1-0.4,0.2-0.7,0.2c-0.5,0-0.8-0.2-0.8-0.8v-2.7H32v-0.6h-1.4v-1.4h-0.7v1.4h-0.6v0.6h0.6V99.9 M30.4,103.3
	c0.6-0.1,0.9-0.4,0.9-0.9v-0.6h-0.8v0.7h0.4c0,0.3-0.1,0.5-0.5,0.5L30.4,103.3z M33.1,95.5h0.8v-0.8h-0.8V95.5z M33.1,101.1h0.7
	v-4.6h-0.7V101.1z M34.9,99.8c0,0.9,0.9,1.4,1.7,1.4c0.8,0,1.3-0.4,1.7-0.8v0.7h0.7v-2.8c0-0.6-0.2-1-0.5-1.3
	c-0.3-0.3-0.8-0.5-1.5-0.5c-0.7,0-1.2,0.1-1.7,0.4l0.2,0.6c0.4-0.2,0.9-0.3,1.4-0.3c0.9,0,1.4,0.4,1.4,1.2v0.2
	c-0.4-0.1-0.8-0.2-1.4-0.2C35.7,98.3,34.9,98.8,34.9,99.8L34.9,99.8 M38.3,99.4c0,0.7-0.7,1.2-1.5,1.2c-0.6,0-1.2-0.3-1.2-0.9v0
	c0-0.6,0.5-0.9,1.3-0.9c0.6,0,1,0.1,1.4,0.2V99.4 M42.4,100.2c0.7,0.7,1.6,1,2.5,1c1.2,0,2.1-0.7,2.1-1.8v0c0-0.9-0.6-1.4-2-1.8
	c-1.4-0.3-1.7-0.6-1.7-1.2v0c0-0.6,0.5-1,1.3-1c0.6,0,1.2,0.2,1.8,0.7l0.4-0.5c-0.6-0.5-1.3-0.8-2.2-0.8c-1.2,0-2,0.7-2,1.7v0
	c0,1,0.7,1.5,2.1,1.8c1.3,0.3,1.6,0.6,1.6,1.2v0c0,0.6-0.5,1.1-1.4,1.1c-0.9,0-1.5-0.3-2.1-0.9L42.4,100.2 M48.4,99.9
	c0,0.9,0.6,1.3,1.3,1.3c0.3,0,0.6-0.1,0.8-0.2v-0.6c-0.2,0.1-0.4,0.2-0.7,0.2c-0.5,0-0.8-0.2-0.8-0.8v-2.7h1.5v-0.6h-1.5v-1.4h-0.7
	v1.4h-0.6v0.6h0.6V99.9 M51.5,99.4c0,1.1,0.6,1.8,1.8,1.8c0.8,0,1.3-0.4,1.6-0.9v0.8h0.7v-4.6h-0.7v2.6c0,0.9-0.6,1.4-1.4,1.4
	c-0.8,0-1.3-0.5-1.3-1.4v-2.7h-0.7V99.4 M56.6,98.8c0,1.5,1.1,2.4,2.2,2.4c0.8,0,1.4-0.5,1.8-1v0.9h0.7v-6.5h-0.7v2.8
	c-0.4-0.5-0.9-1-1.8-1C57.7,96.4,56.6,97.3,56.6,98.8L56.6,98.8 M60.5,98.8c0,1.1-0.8,1.8-1.7,1.8s-1.6-0.7-1.6-1.8v0
	c0-1.1,0.7-1.8,1.6-1.8C59.7,97.1,60.5,97.8,60.5,98.8L60.5,98.8 M62.3,98.8c0,1.4,1,2.4,2.3,2.4c0.9,0,1.4-0.3,1.9-0.9L66,100
	c-0.4,0.4-0.8,0.7-1.4,0.7c-0.8,0-1.5-0.6-1.6-1.6h3.6c0-0.1,0-0.1,0-0.2c0-1.3-0.8-2.4-2.1-2.4C63.2,96.4,62.3,97.5,62.3,98.8
	L62.3,98.8 M63,98.6c0.1-0.9,0.7-1.6,1.5-1.6c0.9,0,1.4,0.7,1.5,1.6H63z M67.6,101.1h0.7v-2.6c0-0.9,0.6-1.4,1.4-1.4
	c0.8,0,1.3,0.5,1.3,1.4v2.7h0.7v-2.8c0-1.1-0.7-1.8-1.8-1.8c-0.8,0-1.3,0.4-1.6,0.9v-0.8h-0.7V101.1z M73.2,99.9
	c0,0.9,0.6,1.3,1.3,1.3c0.3,0,0.6-0.1,0.8-0.2v-0.6c-0.2,0.1-0.4,0.2-0.7,0.2c-0.5,0-0.8-0.2-0.8-0.8v-2.7h1.4v-0.6h-1.4v-1.4h-0.7
	v1.4h-0.6v0.6h0.6V99.9 M73.6,103.3c0.6-0.1,0.9-0.4,0.9-0.9v-0.6h-0.8v0.7h0.4c0,0.3-0.1,0.5-0.5,0.5L73.6,103.3z M76.3,95.5h0.8
	v-0.8h-0.8V95.5z M76.4,101.1h0.7v-4.6h-0.7V101.1z M78.5,101.1h0.7v-6.5h-0.7V101.1z M80.3,98.9c0,1.3,1,2.4,2.4,2.4
	c1.4,0,2.4-1.1,2.4-2.4v0c0-1.3-1-2.4-2.4-2.4C81.4,96.4,80.3,97.5,80.3,98.9L80.3,98.9 M84.4,98.9c0,1-0.7,1.8-1.7,1.8
	c-1,0-1.7-0.8-1.7-1.8v0c0-1,0.7-1.8,1.7-1.8C83.7,97,84.4,97.9,84.4,98.9L84.4,98.9 M86.2,101.1h0.7v-1.8c0-1.4,0.8-2.1,1.8-2.1
	h0.1v-0.7c-0.9,0-1.5,0.5-1.9,1.3v-1.2h-0.7V101.1z M91.7,101.1h0.7l0.7-1.6h3.4l0.7,1.6H98l-2.8-6.3h-0.7L91.7,101.1z M93.4,98.8
	l1.4-3.2l1.4,3.2H93.4z M98.9,101.1h0.7v-1.8c0-1.4,0.8-2.1,1.8-2.1h0.1v-0.7c-0.9,0-1.5,0.5-1.9,1.3v-1.2h-0.7V101.1z M102.3,101.1
	h0.7v-2.6c0-0.9,0.6-1.4,1.4-1.4c0.8,0,1.3,0.5,1.3,1.4v2.7h0.7v-2.8c0-1.1-0.6-1.8-1.8-1.8c-0.8,0-1.3,0.4-1.6,0.9v-2.7h-0.7V101.1
	z M107.6,95.5h0.8v-0.8h-0.8V95.5z M107.7,101.1h0.7v-4.6h-0.7V101.1z M110,99.9c0,0.9,0.6,1.3,1.3,1.3c0.3,0,0.6-0.1,0.8-0.2v-0.6
	c-0.2,0.1-0.4,0.2-0.7,0.2c-0.5,0-0.8-0.2-0.8-0.8v-2.7h1.5v-0.6h-1.5v-1.4H110v1.4h-0.6v0.6h0.6V99.9 M112.8,98.8
	c0,1.4,1,2.4,2.3,2.4c0.9,0,1.4-0.3,1.9-0.9l-0.4-0.4c-0.4,0.4-0.8,0.7-1.4,0.7c-0.8,0-1.5-0.6-1.6-1.6h3.6c0-0.1,0-0.1,0-0.2
	c0-1.3-0.8-2.4-2.1-2.4C113.7,96.4,112.8,97.5,112.8,98.8L112.8,98.8 M113.5,98.6c0.1-0.9,0.7-1.6,1.5-1.6c0.9,0,1.4,0.7,1.5,1.6
	H113.5z M117.8,98.9c0,1.3,1,2.4,2.4,2.4c0.9,0,1.4-0.4,1.9-0.9l-0.4-0.4c-0.4,0.4-0.8,0.7-1.4,0.7c-1,0-1.7-0.8-1.7-1.8v0
	c0-1,0.7-1.8,1.6-1.8c0.6,0,1,0.3,1.4,0.7l0.4-0.5c-0.4-0.5-1-0.8-1.8-0.8C118.9,96.4,117.8,97.5,117.8,98.9L117.8,98.9 M123.2,99.9
	c0,0.9,0.6,1.3,1.3,1.3c0.3,0,0.6-0.1,0.8-0.2v-0.6c-0.2,0.1-0.4,0.2-0.7,0.2c-0.5,0-0.8-0.2-0.8-0.8v-2.7h1.5v-0.6h-1.5v-1.4h-0.7
	v1.4h-0.6v0.6h0.6V99.9 M123.7,103.3c0.6-0.1,0.9-0.4,0.9-0.9v-0.6h-0.8v0.7h0.4c0,0.3-0.1,0.5-0.5,0.5L123.7,103.3z M126.4,95.5
	h0.8v-0.8h-0.8V95.5z M126.5,101.1h0.7v-4.6h-0.7V101.1z M130.9,98c0,1.8,1.3,3.2,3.1,3.2c1.1,0,1.8-0.4,2.5-1.1l-0.5-0.5
	c-0.6,0.6-1.2,0.9-2,0.9c-1.4,0-2.4-1.1-2.4-2.6v0c0-1.4,1-2.5,2.4-2.5c0.8,0,1.4,0.4,2,0.9l0.5-0.5c-0.6-0.6-1.3-1-2.4-1
	C132.2,94.8,130.9,96.3,130.9,98L130.9,98 M137.5,101.1h0.7v-6.5h-0.7V101.1z M139.5,99.4c0,1.1,0.7,1.8,1.8,1.8
	c0.8,0,1.3-0.4,1.6-0.9v0.8h0.7v-4.6h-0.7v2.6c0,0.9-0.6,1.4-1.4,1.4c-0.8,0-1.3-0.5-1.3-1.4v-2.7h-0.7V99.4 M144.1,102.5
	c0.2,0,0.3,0,0.4,0c0.7,0,1.1-0.4,1.1-1.2v-4.8h-0.7v4.8c0,0.4-0.2,0.6-0.5,0.6c-0.1,0-0.2,0-0.3,0V102.5 M144.9,95.5h0.8v-0.8h-0.8
	V95.5z"/>
</svg>
