<!-- Generator: Adobe Illustrator 23.0.4, SVG Export Plug-In  -->
<svg version="1.1" xmlns="http://www.w3.org/2000/svg" xmlns:xlink="http://www.w3.org/1999/xlink" x="0px" y="0px"
	 width="462.183px" height="76.171px" viewBox="0 0 462.183 76.171" enable-background="new 0 0 462.183 76.171"
	 xml:space="preserve">
<path fill="#868789" d="M140.735,69.726c0,1.542,0,3.002,0,4.579c-0.491,0.031-0.861,0.074-1.231,0.075
	c-2.786,0.007-5.573,0.008-8.359,0.005c-1.255-0.001-1.259-0.007-1.259-1.302c-0.001-23.597,0-47.194,0-70.791
	c0-0.699,0-1.397,0-2.185c3.624,0,7.159,0,10.824,0c0,8.573,0,17.118,0,25.753c0.228-0.105,0.348-0.121,0.398-0.188
	c2.362-3.224,5.778-4.457,9.535-4.747c6.512-0.503,13.039-0.513,19.537,0.246c3.767,0.44,7.424,1.343,10.655,3.476
	c3.824,2.524,5.668,6.284,6.419,10.636c0.364,2.111,0.584,4.269,0.616,6.41c0.075,5.007,0.099,10.019-0.051,15.024
	c-0.129,4.293-1.151,8.38-3.824,11.887c-2.631,3.452-6.246,5.398-10.383,6.239c-3.162,0.643-6.406,1.051-9.629,1.18
	c-4.18,0.168-8.389,0.366-12.548-0.491c-4.006-0.825-7.579-2.408-10.294-5.594C141.081,69.868,140.965,69.844,140.735,69.726z
	 M177.28,48.405c-0.092-0.003-0.185-0.005-0.277-0.008c0-2.538,0.193-5.093-0.04-7.609c-0.505-5.468-2.76-9.056-8.499-10.282
	c-6.031-1.288-12.149-1.271-18.173-0.033c-5.869,1.207-8.769,4.249-9.276,10.236c-0.423,4.997-0.387,10.087,0.031,15.087
	c0.557,6.65,4.605,9.681,10.305,10.754c5.166,0.973,10.404,0.89,15.58,0.024c5.585-0.934,9.06-3.474,9.85-9.527
	C177.153,54.194,177.126,51.287,177.28,48.405z M347.035,36.605c-0.789-0.289-1.537-0.566-2.286-0.838
	c-2.252-0.818-4.493-1.669-6.763-2.432c-0.838-0.281-1.058-0.713-0.953-1.556c0.493-3.966,2.56-6.797,6.105-8.558
	c2.919-1.45,6.07-2.103,9.284-2.315c6.763-0.446,13.533-0.474,20.281,0.263c2.917,0.319,5.77,0.966,8.444,2.241
	c4.796,2.287,7.198,6.252,7.88,11.377c0.176,1.324,0.25,2.67,0.252,4.007c0.019,11.394,0.011,22.787,0.01,34.181
	c0,1.408-0.004,1.41-1.361,1.41c-2.751,0.001-5.503-0.025-8.254,0.016c-0.846,0.013-1.251-0.198-1.15-1.118
	c0.068-0.62,0.013-1.254,0.013-2.002c-0.227,0.097-0.38,0.113-0.444,0.197c-1.968,2.563-4.764,3.605-7.795,3.981
	c-2.931,0.363-5.895,0.558-8.849,0.614c-4.583,0.086-9.173,0.085-13.754-0.061c-3.319-0.106-6.506-0.902-9.199-3.015
	c-2.707-2.123-4.006-5.078-4.53-8.357c-0.631-3.95-0.651-7.944-0.15-11.913c0.707-5.599,4.104-8.932,9.281-10.674
	c3.581-1.205,7.305-1.606,11.043-1.653c4.617-0.058,9.242,0.007,13.852,0.236c1.941,0.096,3.885,0.636,5.771,1.173
	c1.829,0.52,3.251,1.765,4.419,3.242c0.147-0.11,0.246-0.149,0.246-0.188c0.012-2.954,0.322-5.919-0.405-8.843
	c-0.883-3.551-3.493-5.08-6.785-5.644c-2.18-0.373-4.408-0.589-6.62-0.632c-3.942-0.077-7.895-0.262-11.81,0.519
	c-3.201,0.639-5.209,2.354-5.559,5.725C347.233,36.152,347.141,36.308,347.035,36.605z M360.145,49.285
	c-0.002,0.088-0.004,0.176-0.007,0.263c-2.429,0-4.862-0.086-7.284,0.034c-1.357,0.067-2.722,0.385-4.04,0.749
	c-2.289,0.632-3.951,2.092-4.21,4.502c-0.243,2.257-0.24,4.577-0.02,6.837c0.213,2.186,1.698,3.629,3.767,4.275
	c1.435,0.448,2.944,0.856,4.431,0.896c4.539,0.123,9.088,0.192,13.623,0.017c2.475-0.096,4.968-0.57,7.382-1.164
	c2.353-0.579,4.227-2.046,4.539-4.61c0.23-1.896,0.125-3.867-0.099-5.773c-0.242-2.057-1.611-3.498-3.503-4.159
	c-1.877-0.656-3.853-1.163-5.824-1.384C366,49.443,363.065,49.431,360.145,49.285z M239.156,60.851
	c3.163,1.158,6.162,2.269,9.172,3.348c0.805,0.288,0.477,0.848,0.353,1.305c-1.101,4.038-3.565,6.9-7.451,8.496
	c-3.986,1.636-8.193,2.04-12.438,2.084c-4.585,0.048-9.173,0.058-13.755-0.06c-3.97-0.102-7.856-0.775-11.477-2.534
	c-5.505-2.673-8.385-7.259-9.365-13.132c-0.323-1.937-0.446-3.927-0.454-5.894c-0.023-5.325-0.087-10.657,0.154-15.973
	c0.205-4.527,1.553-8.734,4.83-12.107c2.719-2.799,6.139-4.277,9.885-4.871c3.121-0.495,6.302-0.746,9.463-0.819
	c4.861-0.112,9.737-0.222,14.578,0.469c3.445,0.491,6.786,1.33,9.774,3.202c4.369,2.737,6.519,6.903,7.416,11.812
	c0.939,5.14,0.447,10.343,0.561,15.519c0.012,0.536-0.222,0.783-0.755,0.766c-0.282-0.009-0.564-0.001-0.847-0.001
	c-14.251,0-28.502-0.001-42.753,0c-1.571,0-1.608,0.004-1.539,1.562c0.107,2.44,0.366,4.865,1.477,7.091
	c1.599,3.204,4.479,4.617,7.787,5.202c6.365,1.126,12.776,1.186,19.165,0.242C236.112,66.088,238.397,64.355,239.156,60.851z
	 M239.548,43.467c0.075-2.64,0.186-5.168-0.864-7.572c-1.339-3.066-3.926-4.575-6.993-5.273c-6.311-1.435-12.682-1.261-19.023-0.221
	c-2.792,0.458-5.257,1.688-6.687,4.338c-1.261,2.337-1.411,4.908-1.504,7.495c-0.035,0.963,0.242,1.259,1.235,1.254
	c8.326-0.039,16.652-0.022,24.979-0.022C233.584,43.467,236.476,43.467,239.548,43.467z M32.153,21.329
	C21.481,31.994,10.712,42.757,0,53.463c0.157,0,0.505,0,0.853,0c4.409,0,8.818,0,13.226,0.001c1.301,0,1.302,0.002,1.301,1.349
	c0,6.031-0.001,12.062,0,18.094c0,1.348,0.002,1.353,1.319,1.353c10.264,0.001,20.527,0,30.791-0.002
	c1.244,0,1.248-0.004,1.248-1.307c0.002-6.067,0.001-12.133,0.001-18.2c0-1.285,0-1.287,1.247-1.287
	c4.021-0.002,8.042-0.002,12.062-0.002c0.769,0,1.537,0,2.218,0C53.464,42.651,42.688,31.87,32.153,21.329z M95.475,0.023
	C85.068,0.021,74.661,0.035,64.254,0c-0.978-0.003-1.165,0.341-1.16,1.225c0.032,6.138,0,12.277,0.034,18.415
	c0.005,0.921-0.261,1.22-1.199,1.21c-4.409-0.045-8.82-0.023-13.229-0.02c-0.393,0-0.786,0.038-1.06,0.052
	c10.783,10.794,21.533,21.555,32.068,32.101c10.679-10.668,21.434-21.411,32.183-32.148c-0.219,0-0.562,0-0.904,0
	c-4.41-0.002-8.82-0.002-13.23-0.005c-1.294-0.001-1.303-0.003-1.303-1.278C96.45,13.555,96.453,7.557,96.454,1.56
	c0-0.455,0-0.91,0-1.483C96.026,0.052,95.751,0.023,95.475,0.023z M262.105,1.39c-0.001,6.349-0.015,12.698,0.015,19.047
	c0.004,0.833-0.228,1.112-1.074,1.086c-1.832-0.056-3.668-0.001-5.502-0.021c-0.565-0.006-0.835,0.145-0.826,0.77
	c0.033,2.398,0.05,4.797,0.023,7.195c-0.009,0.82,0.359,1.013,1.092,0.997c1.587-0.034,3.174-0.01,4.762-0.007
	c1.414,0.003,1.418,0.004,1.418,1.377c0.002,4.268-0.011,8.536,0.005,12.804c0.017,4.726-0.015,9.454,0.115,14.177
	c0.112,4.049,1.221,7.809,4.064,10.849c2.968,3.175,6.806,4.501,11.02,4.623c5.357,0.155,10.721,0.063,16.081,0.111
	c0.792,0.007,1.041-0.256,1.026-1.039c-0.042-2.221-0.059-4.446,0.009-6.666c0.03-0.979-0.275-1.256-1.249-1.243
	c-3.879,0.053-7.76,0.041-11.64,0.016c-4.36-0.028-7.233-1.87-8.266-5.401c-0.321-1.098-0.426-2.293-0.43-3.445
	c-0.034-8.289-0.017-16.578-0.016-24.867c0-0.379,0-0.758,0-1.235c0.489-0.024,0.866-0.058,1.242-0.058
	c4.797-0.004,9.594-0.019,14.391,0.01c0.823,0.005,1.121-0.247,1.103-1.092c-0.048-2.186-0.013-4.374-0.016-6.56
	c-0.001-1.302-0.005-1.306-1.268-1.306c-4.691,0-9.383,0.004-14.074,0c-0.44,0-0.88-0.04-1.431-0.067c0-7.204,0-14.275,0-21.363
	c-3.563,0-7.006,0-10.574,0C262.105,0.563,262.105,0.976,262.105,1.39z M313.372,30.546c0.538-0.035,0.985-0.09,1.431-0.09
	c4.726-0.005,9.452-0.018,14.177,0.017c0.869,0.006,1.172-0.258,1.149-1.144c-0.055-2.115-0.019-4.232-0.019-6.348
	c-0.001-1.472-0.001-1.47-1.517-1.471c-4.726,0-9.452-0.021-14.177,0.014c-0.845,0.006-1.12-0.253-1.061-1.087
	c0.068-0.983-0.011-1.975,0.024-2.961c0.093-2.569,0.583-4.989,2.746-6.713c1.712-1.364,3.74-1.784,5.852-1.808
	c3.844-0.044,7.688-0.015,11.532-0.023c0.449-0.001,0.899-0.043,1.462-0.072c0-0.431,0-0.775,0-1.119c0-2.53,0-5.06,0-7.724
	c-0.491,0-0.87,0-1.249,0c-3.209,0.001-6.419-0.03-9.628,0.013c-2.641,0.035-5.296,0.003-7.918,0.269
	c-7.291,0.739-12.349,5.778-13.174,13.092c-0.26,2.304-0.263,4.642-0.278,6.965c-0.006,0.944-0.296,1.212-1.216,1.174
	c-1.725-0.071-3.456-0.006-5.183-0.035c-0.629-0.011-0.888,0.204-0.883,0.85c0.021,2.398,0.023,4.796-0.002,7.194
	c-0.007,0.692,0.263,0.932,0.938,0.922c1.763-0.026,3.527,0.023,5.29-0.018c0.771-0.018,1.084,0.217,1.041,1.023
	c-0.058,1.09-0.014,2.186-0.014,3.279c-0.001,12.802,0.009,25.604-0.022,38.406c-0.002,0.961,0.24,1.279,1.231,1.255
	c2.749-0.065,5.501-0.023,8.252-0.027c0.346-0.001,0.691-0.031,1.216-0.056C313.372,59.679,313.372,45.161,313.372,30.546z
	 M430.837,26.85c0-1.362-0.045-2.726,0.016-4.085c0.041-0.919-0.169-1.311-1.211-1.278c-2.573,0.081-5.151,0.075-7.724,0.001
	c-1.017-0.029-1.233,0.33-1.228,1.267c0.035,6.102,0.019,12.205,0.019,18.308c0,10.653,0,21.306,0.001,31.96
	c0,1.361,0,1.361,1.4,1.362c2.646,0.002,5.291,0.003,7.937,0.003c1.356,0,1.358-0.001,1.358-1.399c0-9.912-0.003-19.825,0-29.737
	c0-0.705,0.014-1.412,0.078-2.114c0.526-5.773,3.735-9.628,9.192-11.038c2.461-0.636,4.965-0.561,7.466-0.351
	c2.334,0.196,4.683,0.408,5.997,2.842c2.742-1.005,5.405-1.981,8.045-2.949c-0.013-0.234,0.005-0.346-0.029-0.439
	c-0.086-0.231-0.189-0.456-0.296-0.678c-1.2-2.516-3.111-4.327-5.561-5.604c-3.21-1.673-6.692-2.189-10.24-2.241
	c-5.591-0.081-10.6,1.396-14.396,5.82c-0.151,0.176-0.363,0.3-0.546,0.448C431.023,26.915,430.93,26.882,430.837,26.85z
	 M409.008,74.384c1.333-0.001,1.332-0.006,1.332-1.342c0-14.919-0.001-29.837-0.001-44.756c0-1.94-0.031-3.88,0.013-5.819
	c0.018-0.785-0.234-1.034-1.027-1.022c-2.891,0.042-5.784,0.014-8.676,0.018c-0.307,0-0.613,0.033-0.969,0.053
	c0,17.626,0,35.175,0,52.869C402.881,74.385,405.944,74.387,409.008,74.384z M409.635,11.967c0.671,0.002,0.707-0.421,0.706-0.915
	c-0.004-3.38-0.019-6.76,0.006-10.14c0.005-0.708-0.267-0.907-0.935-0.9c-2.359,0.027-4.718,0.01-7.077,0.009
	c-0.869,0-1.738,0-2.652,0c0,4.019,0,7.91,0,11.941C403.094,11.962,406.365,11.956,409.635,11.967z"/>
</svg>
