<!-- Generator: Adobe Illustrator 23.0.4, SVG Export Plug-In  -->
<svg version="1.1" xmlns="http://www.w3.org/2000/svg" xmlns:xlink="http://www.w3.org/1999/xlink" x="0px" y="0px"
	 width="647.652px" height="139.74px" viewBox="0 0 647.652 139.74" enable-background="new 0 0 647.652 139.74"
	 xml:space="preserve">
<path fill="#868789" d="M0,9.849c0.203-0.475,0.451-0.936,0.601-1.427c1.548-5.094,4.978-7.79,10.267-7.852
	C16.798,0.5,22.73,0.553,28.661,0.552c10.197,0,20.395-0.016,30.592,0.008c4.121,0.01,7.541,1.501,9.68,5.171
	c0.662,1.137,1.279,2.504,1.3,3.776c0.122,7.373,0.06,14.749,0.06,22.643c-7.272,0.029-14.384,0.038-21.87-0.023
	c0-3.833,0-7.525,0-11.433c-8.833,0-17.298,0-25.987,0c0,17.495,0,34.922,0,52.594c8.452,0,16.915,0,25.731,0
	c0-3.68,0-7.368,0-11.308c7.459,0,14.573,0,21.972,0c0.07,0.859,0.204,1.759,0.207,2.66c0.019,5.827,0.034,11.654,0.002,17.481
	c-0.036,6.633-4.051,10.707-10.699,10.725c-16.128,0.043-32.257,0.025-48.385,0.009c-5.966-0.006-8.838-2.155-10.77-7.924
	C0.398,84.65,0.167,84.414,0,84.157C0,59.388,0,34.618,0,9.849z M592.449,41.895c11.107,16.991,22.214,33.982,33.317,50.966
	c3.748,0,7.282,0.011,10.816-0.002c7.175-0.026,11.048-3.792,11.056-10.909c0.027-26.012,0.013-52.025,0.001-78.037
	c0-0.891-0.14-1.782-0.214-2.664c-7.306,0-14.325,0-21.715,0c0,17.15,0,34.095,0,51.041c-0.18,0.034-0.359,0.069-0.539,0.103
	c-11.174-17.104-22.348-34.209-33.519-51.309c-3.841,0-7.48-0.103-11.111,0.022c-7.079,0.245-10.775,4.173-10.778,11.337
	c-0.009,25.7-0.004,51.4-0.004,77.101c0,1.013,0,2.025,0,3.1c7.474,0,14.58,0,22.031,0c0-16.991,0-33.769,0-50.547
	C592.009,42.03,592.229,41.963,592.449,41.895z M560.259,11.3c0.029-3.835-1.645-6.52-4.664-8.618
	c-2.386-1.658-5.101-1.629-7.804-1.632c-14.153-0.017-28.305-0.014-42.458-0.004c-3.225,0.002-6.461-0.084-9.671,0.159
	c-1.599,0.121-3.286,0.645-4.693,1.421c-3.642,2.009-4.971,5.359-4.958,9.413c0.036,11.135,0.012,22.27,0.012,33.404
	c0,12.175-0.04,24.351,0.017,36.526c0.033,6.99,3.931,10.875,10.822,10.884c17.587,0.022,35.173,0.027,52.76-0.003
	c6.747-0.011,10.592-3.925,10.6-10.684c0.013-11.655,0.004-23.31,0.003-34.965C560.225,35.234,560.167,23.267,560.259,11.3z
	 M538.274,20.745c0,17.566,0,34.955,0,52.516c-10.124,0-20.045,0-30.179,0c0-17.569,0-34.962,0-52.516
	C518.237,20.745,528.159,20.745,538.274,20.745z M397.365,92.664c-10.03-30.576-19.983-60.915-29.946-91.287
	c-11.188,0-22.166,0-33.268,0c-9.998,30.46-19.958,60.805-29.982,91.345c7.587,0,14.938,0,22.453,0
	c2.421-7.07,4.831-14.107,7.207-21.043c11.558,0,22.842,0,34.162,0c2.336,7.089,4.605,13.975,6.915,20.985
	C382.54,92.664,389.854,92.664,397.365,92.664z M350.515,22.025c4.133,9.503,7.097,19.294,10.525,29.233c-6.845,0-13.406,0-20.485,0
	C343.988,41.182,347.252,31.604,350.515,22.025z M149.137,20.398c0-6.763,0-13.155,0-19.67c-23.133,0-46.065,0-68.963,0
	c-0.709,3.747-0.537,89.744,0.141,91.912c22.943,0,45.876,0,68.829,0c0-6.414,0-12.604,0-19.162c-16.039,0-31.888,0-47.868,0
	c0-5.634,0-10.897,0-16.577c8.797,0,17.481,0,26.331,0c0-6.701,0-12.984,0-19.682c-8.859,0-17.532,0-26.331,0
	c0-5.687,0-10.961,0-16.821C117.397,20.398,133.248,20.398,149.137,20.398z M454.636,62.062c0,3.867,0,7.544,0,11.257
	c-8.848,0-17.312,0-25.862,0c0-17.521,0-34.829,0-52.165c8.711,0,17.189,0,26.014,0c0,3.779,0,7.363,0,11.045
	c7.363,0,14.375,0,21.55,0c0-7.872,0.254-15.548-0.103-23.196c-0.19-4.074-4.298-7.355-8.576-7.795
	c-1.547-0.159-3.115-0.159-4.674-0.161c-11.027-0.013-22.054-0.015-33.081-0.002c-4.368,0.005-8.742-0.064-13.104,0.12
	c-5.875,0.248-9.775,4.158-9.79,9.956c-0.063,23.927-0.048,47.854,0.019,71.78c0.005,1.601,0.369,3.367,1.109,4.769
	c1.984,3.761,5.345,5.227,9.558,5.211c14.668-0.056,29.336-0.021,44.004-0.023c1.872,0,3.751,0.081,5.616-0.042
	c4.765-0.314,8.851-3.805,9.018-8.348c0.271-7.362,0.073-14.742,0.073-22.407C469.049,62.062,462.033,62.062,454.636,62.062z
	 M241.915,56.544c5.902-18.877,11.762-37.618,17.68-56.544c-22.057,0-43.653,0-65.752,0c5.978,18.977,11.858,37.643,17.811,56.544
	C221.903,56.544,231.847,56.544,241.915,56.544z M265.86,0.474c-0.191-0.004-0.382-0.007-0.573-0.011
	c-9.525,30.696-19.049,61.393-28.641,92.305c19.469,0,38.473,0,57.878,0C284.902,61.787,275.381,31.13,265.86,0.474z M188.106,0.351
	c-0.176,0.03-0.352,0.061-0.528,0.091c-9.52,30.676-19.04,61.352-28.639,92.283c19.467,0,38.47,0,57.845,0
	C207.138,61.657,197.622,31.004,188.106,0.351z M531.565,122.329c0.111,1.342,0.137,2.698,0.347,4.024
	c0.804,5.071,3.414,7.487,8.495,7.846c1.127,0.08,2.287,0,3.407-0.171c3.81-0.579,6.469-3.172,6.802-7.018
	c0.249-2.877,0.239-5.811-0.017-8.687c-0.28-3.137-2.09-5.371-5.096-6.494c-7.248-2.707-13.36,1.248-13.83,8.934
	c-0.032,0.517-0.004,1.039-0.004,1.558C531.634,122.324,531.6,122.327,531.565,122.329z M545.076,126.697
	c-0.419,2.023-1.826,3.1-3.694,3.108c-2.094,0.009-3.519-1.055-3.74-3.338c-0.238-2.451-0.252-4.959-0.018-7.41
	c0.222-2.323,1.598-3.366,3.696-3.381c2.129-0.015,3.566,1.253,3.874,3.61c0.146,1.116,0.025,2.267,0.025,3.403
	c0.06,0.002,0.12,0.004,0.181,0.006C545.303,124.03,545.346,125.396,545.076,126.697z M605.513,133.57c2.075,0,3.847,0,5.86,0
	c-2.124-7.495-4.148-14.639-6.147-21.694c-3.114,0-5.879,0-8.715,0c-2.008,7.321-4.239,14.39-5.972,21.856c2.116,0,3.747,0,5.559,0
	c0.603-1.781,1.193-3.527,1.838-5.433c1.856,0,3.697,0,5.846,0C604.41,130.211,604.982,131.955,605.513,133.57z M600.922,115.875
	c0.785,3.07,1.386,5.421,2.055,8.039c-1.446,0-2.695,0-4.293,0C599.439,121.202,600.089,118.865,600.922,115.875z M570.383,126.906
	c0.405,4.873,3.89,7.37,9.147,7.38c5.122,0.009,8.644-2.419,9.048-7.112c0.432-5.02,0.097-10.106,0.097-15.334
	c-1.84,0-3.441,0-5.234,0c-0.056,0.728-0.14,1.324-0.142,1.921c-0.013,4.051,0.047,8.104-0.031,12.153
	c-0.05,2.584-1.218,3.805-3.443,3.921c-2.487,0.13-3.763-0.954-4.076-3.637c-0.144-1.231-0.07-2.489-0.073-3.735
	c-0.007-3.5-0.002-7.001-0.002-10.646c-1.879,0-3.405,0-5.381,0C570.293,116.999,569.973,121.983,570.383,126.906z M530.639,111.887
	c-2.215,0-3.924,0-5.723,0c-1.493,5.802-2.939,11.42-4.472,17.376c-1.591-6.075-3.079-11.76-4.552-17.382c-2.043,0-3.752,0-5.759,0
	c2.047,7.438,4.017,14.595,6.009,21.831c2.928,0,5.584,0,8.503,0C526.692,126.261,528.647,119.143,530.639,111.887z
	 M493.133,133.654c4.984,0,9.703,0,14.462,0c0-1.394,0-2.563,0-4.097c-3.106,0-5.954,0-8.84,0c0-1.859,0-3.331,0-5.085
	c2.93,0,5.594,0,8.406,0c0-1.452,0-2.615,0-4.131c-2.987,0-5.727,0-8.457,0c0-1.656,0-2.952,0-4.556c3.083,0,5.95,0,8.917,0
	c0-1.48,0-2.649,0-3.924c-4.963,0-9.679,0-14.487,0C493.133,119.242,493.133,126.423,493.133,133.654z M631.461,133.698
	c4.986,0,9.717,0,14.557,0c0-1.358,0-2.538,0-4.137c-3.123,0-6.067,0-9.041,0c0-1.839,0-3.252,0-5.054c2.895,0,5.636,0,8.418,0
	c0-1.494,0-2.59,0-4.064c-2.895,0-5.636,0-8.406,0c0-1.682,0-2.979,0-4.641c3.118,0,6.069,0,8.986,0c0-1.557,0-2.739,0-4.025
	c-4.881,0-9.529,0-14.514,0C631.461,119.244,631.461,126.427,631.461,133.698z M355.434,128.537
	c-0.191,0.047-0.381,0.095-0.572,0.142c-2.865-5.67-5.729-11.341-8.505-16.835c-1.478,0-2.583,0-3.815,0c0,7.376,0,14.573,0,21.955
	c0.903-0.077,1.569-0.134,2.596-0.222c0-5.78,0-11.403,0-17.027c0.193-0.029,0.386-0.058,0.58-0.087
	c2.835,5.714,5.669,11.429,8.525,17.186c1.284,0,2.468,0,3.816,0c0-7.34,0-14.46,0-21.758c-0.807-0.043-1.481-0.079-2.624-0.139
	C355.434,117.633,355.434,123.085,355.434,128.537z M622.026,115.991c2.162-0.101,3.989-0.185,5.971-0.278c0-1.352,0-2.532,0-3.834
	c-6.013,0-11.855,0-17.754,0c0,1.389,0,2.557,0,4.012c2.07,0,3.894,0,6.042,0c0,6.043,0,11.801,0,17.766c1.934,0,3.538,0,5.742,0
	C622.026,127.643,622.026,121.883,622.026,115.991z M554.684,111.908c0,7.351,0,14.456,0,21.712c4.767,0,9.349,0,13.928,0
	c0-1.461,0-2.666,0-4.227c-2.805,0-5.456,0-8.452,0c0-5.997,0-11.651,0-17.485C557.981,111.908,556.381,111.908,554.684,111.908z
	 M337.854,117.538c-0.853-4.001-3.894-6.273-8.115-6.269c-4.178,0.004-7.502,2.336-8.019,6.327
	c-0.433,3.345-0.432,6.829-0.023,10.178c0.485,3.971,3.528,6.212,7.632,6.36c4.361,0.157,7.418-1.876,8.424-5.811
	c0.432-1.689,0.513-3.468,0.756-5.223C338.299,121.227,338.24,119.348,337.854,117.538z M334.777,128.079
	c-0.725,2.392-2.48,3.477-4.972,3.491c-2.627,0.014-4.393-1.171-5.134-3.709c-0.981-3.365-0.967-6.791-0.04-10.165
	c0.685-2.491,2.206-3.574,4.779-3.681c2.85-0.119,4.404,0.832,5.359,3.316c0.223,0.581,0.485,1.184,0.525,1.79
	c0.081,1.242,0.024,2.492,0.024,3.739c0.104,0.012,0.208,0.023,0.312,0.035C335.361,124.626,335.281,126.417,334.777,128.079z
	 M410.505,123.696c2.453-1.828,2.491-4.422,2.113-7.06c-0.35-2.44-2.018-3.814-4.287-4.413c-3.228-0.852-6.487-0.621-9.698-0.407
	c0,7.514,0,14.645,0,21.976c0.851-0.073,1.509-0.129,2.512-0.214c0-2.814,0-5.467,0-8.246c1.783,0,3.204,0,4.554,0
	c1.833,2.94,3.58,5.742,5.374,8.62c1.059-0.14,1.901-0.252,3.01-0.398c-1.809-3.076-3.424-5.824-5.121-8.71
	C409.537,124.417,410.021,124.057,410.505,123.696z M401.25,114.563c1.858,0,3.693-0.164,5.485,0.043
	c2.115,0.243,2.873,1.233,3.033,3.289c0.186,2.395-0.571,3.911-2.571,4.353c-1.792,0.396-3.671,0.397-5.947,0.613
	C401.25,119.822,401.25,117.365,401.25,114.563z M417.322,127.673c0.296,4.157,3.236,6.368,7.408,6.459
	c4.776,0.104,7.78-2.347,8.052-7.137c0.27-4.758,0.077-9.542,0.058-14.315c-0.001-0.271-0.254-0.541-0.461-0.956
	c-0.644,0.093-1.292,0.188-2.082,0.302c0,3.405,0.053,6.615-0.02,9.823c-0.045,1.962-0.107,3.954-0.477,5.871
	c-0.576,2.985-1.969,3.898-5.104,3.768c-2.919-0.122-4.269-1.382-4.609-4.411c-0.115-1.027-0.086-2.073-0.09-3.11
	c-0.017-3.633-0.01-7.267-0.043-10.9c-0.003-0.386-0.209-0.77-0.348-1.249c-0.761,0-1.453,0-2.371,0
	C417.235,117.343,416.957,122.531,417.322,127.673z M372.154,133.76c3.462-0.853,4.974-4.14,3.918-7.594
	c-0.643-2.106-2.173-3.225-3.981-4.107c-1.582-0.772-3.208-1.456-4.812-2.184c-1.634-0.741-2.378-2.019-2.018-3.771
	c0.366-1.783,1.805-2.116,3.348-2.134c2.16-0.025,4.32-0.006,6.627-0.006c0-0.739,0-1.302,0-2.372
	c-2.782-0.044-5.45-0.242-8.096-0.082c-2.342,0.142-4.162,1.366-4.774,3.794c-0.652,2.585,0.335,5.06,2.66,6.449
	c1.596,0.953,3.389,1.571,5.018,2.475c1.234,0.684,2.348,1.583,3.306,2.242c0.121,3.931-0.748,4.983-4.093,5.14
	c-2.05,0.096-4.107,0.018-6.33,0.018c0,0.516,0,1.078,0,1.851C366.016,134.258,369.111,134.51,372.154,133.76z M312.906,131.387
	c-2.582-0.221-4.261-1.809-4.451-4.373c-0.207-2.783-0.215-5.604-0.017-8.388c0.207-2.904,1.986-4.455,4.898-4.594
	c1.759-0.084,3.526,0.011,5.288-0.013c0.274-0.004,0.545-0.216,0.918-0.374c-0.089-0.601-0.173-1.17-0.314-2.127
	c-2.6,0-5.083-0.218-7.512,0.055c-3.057,0.343-5.111,2.125-5.764,5.266c-0.832,4.002-0.85,7.991,0.059,11.995
	c0.659,2.901,2.621,4.46,5.311,5.034c2.634,0.562,5.319,0.355,8.074-0.26c0-0.764,0-1.342,0-2.187
	C317.03,131.422,314.954,131.562,312.906,131.387z M446.437,111.305c-0.928-0.054-1.877,0.002-2.798,0.137
	c-3.725,0.546-5.985,2.414-6.392,6.164c-0.377,3.472-0.284,7.042,0.046,10.527c0.276,2.918,2.218,4.963,5.104,5.645
	c2.72,0.642,5.508,0.57,8.401-0.26c-0.096-0.807-0.173-1.459-0.261-2.194c-1.148,0.065-2.073,0.151-2.999,0.162
	c-1.039,0.012-2.089,0.04-3.115-0.087c-2.682-0.331-4.089-1.448-4.328-4.095c-0.269-2.984-0.281-6.028-0.019-9.011
	c0.257-2.927,1.809-4.126,4.794-4.261c1.661-0.075,3.329,0.011,4.993-0.011c0.279-0.004,0.556-0.194,0.845-0.302
	c0-0.562,0-1.069,0-1.936C449.099,111.594,447.772,111.383,446.437,111.305z M459.342,133.902c1.199-0.156,1.956-0.254,3.01-0.392
	c0-6.404,0-12.603,0-18.959c2.326-0.159,4.343-0.297,6.534-0.447c-0.124-0.963-0.208-1.615-0.286-2.222c-5.38,0-10.534,0-15.882,0
	c0.097,0.895,0.169,1.55,0.251,2.304c2.038,0.105,3.883,0.199,6.372,0.327C459.342,121.081,459.342,127.364,459.342,133.902z
	 M378.996,111.869c0.054,0.872,0.095,1.527,0.142,2.299c2.141,0.123,4.077,0.234,6.377,0.366c0,6.462,0,12.747,0,19.259
	c1.148-0.064,1.904-0.106,2.977-0.166c0-6.501,0-12.781,0-19.154c2.351-0.113,4.38-0.211,6.503-0.313c0-0.904,0-1.484,0-2.292
	C389.484,111.869,384.334,111.869,378.996,111.869z M482.492,111.849c-0.893,0-1.58,0-2.426,0c0,7.337,0,14.531,0,21.831
	c0.905,0,1.583,0,2.426,0C482.492,126.174,482.492,119.056,482.492,111.849z M472.404,133.814c0.98-0.091,1.737-0.162,2.482-0.231
	c0-7.38,0-14.51,0-21.761c-0.901,0-1.595,0-2.482,0C472.404,119.314,472.404,126.437,472.404,133.814z M462.284,135.86
	c-1.294,0-2.213,0-3.157,0c-0.58,1.359-1.075,2.518-1.656,3.88c1.008,0,1.684,0,2.469,0
	C460.778,138.355,461.442,137.255,462.284,135.86z"/>
</svg>
