<!-- Generator: Adobe Illustrator 22.1.0, SVG Export Plug-In  -->
<svg version="1.1"
	 xmlns="http://www.w3.org/2000/svg" xmlns:xlink="http://www.w3.org/1999/xlink" xmlns:a="http://ns.adobe.com/AdobeSVGViewerExtensions/3.0/"
	 x="0px" y="0px" width="127.8px" height="52.6px" viewBox="0 0 127.8 52.6" enable-background="new 0 0 127.8 52.6"
	 xml:space="preserve">
	<path fill-rule="evenodd" clip-rule="evenodd" fill="#868789" d="M40.3,24c-0.1,0.2-0.1,0.3-0.1,0.5c0,0.2,0,0.4,0,0.6v0.8l1.3-1.3
		l0,0c0.2-0.2,0.3-0.4,0.3-0.5c0,0,0,0,0-0.1c0,0,0,0,0,0h0.9c-0.1,0.1-0.3,0.2-0.4,0.4c-0.2,0.1-0.2,0.2-0.3,0.2l-1.2,1.3l1.3,1.5
		c0.2,0.2,0.3,0.3,0.4,0.5c0.1,0.1,0.3,0.2,0.4,0.3h-1c0,0,0,0,0,0c0,0,0,0,0,0c0-0.1,0-0.2-0.1-0.3c-0.1-0.1-0.2-0.2-0.3-0.4
		L40.1,26v1.1c0,0.2,0,0.4,0,0.6c0,0.2,0.1,0.3,0.1,0.5h-0.8c0.1-0.2,0.1-0.3,0.1-0.5c0-0.2,0-0.4,0-0.6v-2c0-0.2,0-0.4,0-0.6
		c0-0.2-0.1-0.3-0.1-0.5H40.3z M49.2,27.6c-0.2,0.2-0.5,0.4-0.7,0.5c-0.2,0.1-0.4,0.2-0.6,0.2c-0.2,0-0.3,0-0.5-0.1
		c-0.2-0.1-0.3-0.2-0.4-0.3c-0.1-0.1-0.1-0.2-0.2-0.2c0-0.1-0.1-0.2-0.1-0.3c0,0,0-0.1,0-0.2c0-0.1,0-0.2,0-0.4v-1.6
		c0-0.2,0-0.4,0-0.6c0-0.2-0.1-0.3-0.1-0.5h0.8c-0.1,0.2-0.1,0.3-0.1,0.5c0,0.2,0,0.4,0,0.6v1.4c0,0.4,0.1,0.7,0.3,1
		c0.2,0.2,0.4,0.3,0.8,0.3c0.1,0,0.3,0,0.4-0.1c0.1-0.1,0.3-0.1,0.4-0.2c0.1-0.1,0.2-0.2,0.2-0.3c0-0.1,0.1-0.4,0.1-0.7v-1.3
		c0-0.2,0-0.4,0-0.6c0-0.2-0.1-0.3-0.1-0.5h0.8c-0.1,0.2-0.1,0.3-0.1,0.5c0,0.2,0,0.4,0,0.6v2c0,0.2,0,0.4,0,0.6
		c0,0.2,0.1,0.3,0.1,0.5h-0.6V27.6z M54.2,28.2c0.1-0.2,0.1-0.3,0.1-0.5c0-0.2,0-0.4,0-0.6v-2c0-0.2,0-0.4,0-0.6
		c0-0.2-0.1-0.3-0.1-0.5H55c-0.1,0.2-0.1,0.3-0.1,0.5c0,0.2,0,0.4,0,0.6v2.7c0.3,0,0.6,0,0.9-0.1c0.3-0.1,0.5-0.1,0.7-0.2
		c-0.1,0.1-0.1,0.2-0.1,0.3c0,0.1-0.1,0.2-0.1,0.3H54.2z M61.4,24.4v2.7c0,0.2,0,0.4,0,0.6c0,0.2,0.1,0.3,0.1,0.5h-0.8
		c0.1-0.2,0.1-0.3,0.1-0.5c0-0.2,0-0.4,0-0.6v-2.7c-0.3,0-0.5,0-0.7,0.1c-0.2,0-0.4,0.1-0.6,0.2c0-0.1,0.1-0.2,0.1-0.3
		c0-0.1,0.1-0.2,0.1-0.3h2.9c-0.1,0.1-0.1,0.2-0.2,0.3c0,0.1-0.1,0.2-0.1,0.3c-0.1-0.1-0.3-0.1-0.5-0.2
		C61.8,24.4,61.6,24.4,61.4,24.4L61.4,24.4z M69.5,27.6c-0.2,0.2-0.5,0.4-0.7,0.5c-0.2,0.1-0.4,0.2-0.6,0.2c-0.2,0-0.3,0-0.5-0.1
		c-0.2-0.1-0.3-0.2-0.4-0.3c-0.1-0.1-0.1-0.2-0.2-0.2c0-0.1-0.1-0.2-0.1-0.3c0,0,0-0.1,0-0.2c0-0.1,0-0.2,0-0.4v-1.6
		c0-0.2,0-0.4,0-0.6c0-0.2-0.1-0.3-0.1-0.5h0.8c-0.1,0.2-0.1,0.3-0.1,0.5c0,0.2,0,0.4,0,0.6v1.4c0,0.4,0.1,0.7,0.3,1
		c0.2,0.2,0.4,0.3,0.8,0.3c0.1,0,0.3,0,0.4-0.1c0.1-0.1,0.3-0.1,0.4-0.2c0.1-0.1,0.2-0.2,0.2-0.3c0-0.1,0.1-0.4,0.1-0.7v-1.3
		c0-0.2,0-0.4,0-0.6c0-0.2-0.1-0.3-0.1-0.5h0.8C70,24.2,70,24.3,70,24.5c0,0.2,0,0.4,0,0.6v2c0,0.2,0,0.4,0,0.6
		c0,0.2,0.1,0.3,0.1,0.5h-0.6V27.6z M84.5,32.7l-0.8-2l-1.2,2.3c-0.1,0.1-0.2,0.3-0.2,0.4c-0.1,0.1-0.2,0.3-0.3,0.4h0.6c0,0,0,0,0,0
		c0,0,0,0,0,0c0-0.1,0-0.1,0-0.2c0-0.1,0.1-0.2,0.1-0.3l0.3-0.6h1.1l0.3,0.7c0,0,0,0.1,0,0.1c0,0,0,0.1,0,0.1c0,0,0,0.1,0,0.1
		c0,0,0,0.1,0,0.1h0.7c-0.1-0.1-0.2-0.3-0.3-0.4C84.7,33.1,84.6,32.9,84.5,32.7z M83.1,32.3l0.5-1l0.4,1H83.1z M110.3,32.1
		c0.2-0.1,0.3-0.2,0.4-0.3c0.1-0.1,0.2-0.3,0.2-0.4c0-0.2-0.1-0.4-0.4-0.5c-0.2-0.1-0.6-0.2-1-0.2h-0.2c0,0.1,0.1,0.2,0.1,0.4
		c0,0.1,0,0.3,0,0.4v1.5c0,0.2,0,0.3,0,0.4c0,0.1-0.1,0.3-0.1,0.4h0.3c0.2,0,0.4,0,0.5,0c0.1,0,0.2,0,0.3-0.1
		c0.2-0.1,0.3-0.2,0.4-0.3c0.1-0.1,0.1-0.3,0.1-0.4c0-0.2-0.1-0.3-0.2-0.5C110.7,32.3,110.6,32.2,110.3,32.1z M109.8,30.9
		c0.2,0,0.4,0.1,0.5,0.2c0.1,0.1,0.2,0.2,0.2,0.4c0,0.2-0.1,0.3-0.2,0.4c-0.1,0.1-0.3,0.2-0.5,0.2V30.9z M110.4,33.3
		c-0.1,0.1-0.3,0.2-0.6,0.2h0v-1.3c0.3,0.1,0.5,0.2,0.6,0.3c0.1,0.1,0.2,0.3,0.2,0.4C110.6,33.1,110.6,33.2,110.4,33.3z M120.9,32.4
		c0.3-0.1,0.4-0.2,0.6-0.3c0.1-0.1,0.2-0.3,0.2-0.5c0-0.3-0.1-0.5-0.3-0.7c-0.2-0.2-0.5-0.2-1-0.2H120c0,0.1,0.1,0.2,0.1,0.4
		c0,0.1,0,0.3,0,0.4v1.5c0,0.2,0,0.3,0,0.4c0,0.1-0.1,0.3-0.1,0.4h0.6c0-0.1-0.1-0.2-0.1-0.4c0-0.1,0-0.3,0-0.4v-0.6
		c0.4,0.5,0.7,0.9,0.9,1.1c0.2,0.2,0.3,0.3,0.4,0.3h0.4c-0.2-0.2-0.4-0.4-0.6-0.7C121.3,32.9,121.1,32.6,120.9,32.4z M120.4,30.9
		c0.3,0,0.5,0.1,0.6,0.2c0.1,0.1,0.2,0.3,0.2,0.5c0,0.2-0.1,0.3-0.2,0.5c-0.1,0.1-0.4,0.2-0.6,0.2V30.9z M75.7,26.4
		c0.3-0.1,0.6-0.3,0.8-0.4c0.2-0.2,0.2-0.4,0.2-0.7c0-0.4-0.1-0.7-0.4-0.9C76,24.1,75.5,24,75,24h-0.6c0.1,0.2,0.1,0.3,0.1,0.5
		c0,0.2,0,0.4,0,0.6v2c0,0.2,0,0.4,0,0.6c0,0.2-0.1,0.3-0.1,0.5h0.8c-0.1-0.2-0.1-0.3-0.1-0.5c0-0.2,0-0.4,0-0.6v-0.8
		c0.5,0.7,0.9,1.2,1.2,1.4c0.3,0.3,0.5,0.4,0.6,0.4h0.5c-0.3-0.3-0.6-0.6-0.8-0.9C76.2,27,75.9,26.7,75.7,26.4z M75,24.4
		c0.4,0,0.6,0.1,0.8,0.3c0.2,0.2,0.3,0.4,0.3,0.7c0,0.3-0.1,0.5-0.3,0.6c-0.2,0.1-0.5,0.2-0.9,0.3V24.4z M110.2,26.4
		c0.3-0.1,0.6-0.3,0.8-0.4c0.2-0.2,0.2-0.4,0.2-0.7c0-0.4-0.2-0.7-0.4-0.9c-0.3-0.2-0.7-0.3-1.3-0.3h-0.6c0.1,0.2,0.1,0.3,0.1,0.5
		c0,0.2,0,0.4,0,0.6v2c0,0.2,0,0.4,0,0.6c0,0.2-0.1,0.3-0.1,0.5h0.8c-0.1-0.2-0.1-0.3-0.1-0.5c0-0.2,0-0.4,0-0.6v-0.8
		c0.5,0.7,0.9,1.2,1.2,1.4c0.3,0.3,0.5,0.4,0.6,0.4h0.5c-0.3-0.3-0.6-0.6-0.8-0.9C110.6,27,110.4,26.7,110.2,26.4z M109.5,24.4
		c0.4,0,0.6,0.1,0.8,0.3c0.2,0.2,0.3,0.4,0.3,0.7c0,0.3-0.1,0.5-0.3,0.6c-0.2,0.1-0.5,0.2-0.9,0.3V24.4z M74.2,33.2l-1-1.1l0.9-1
		c0,0,0.1-0.1,0.2-0.2c0.1-0.1,0.2-0.2,0.3-0.3h-0.7c0,0,0,0,0,0c0,0,0,0,0,0c0,0.1-0.1,0.2-0.2,0.4l0,0l-0.9,1v-0.6
		c0-0.2,0-0.3,0-0.4c0-0.1,0.1-0.3,0.1-0.4h-0.6c0,0.1,0.1,0.2,0.1,0.4c0,0.1,0,0.3,0,0.4v1.5c0,0.2,0,0.3,0,0.4
		c0,0.1-0.1,0.3-0.1,0.4h0.6c0-0.1-0.1-0.2-0.1-0.4c0-0.1,0-0.3,0-0.4v-0.8l1,1.1c0.1,0.1,0.2,0.2,0.2,0.3c0,0.1,0.1,0.2,0.1,0.2
		c0,0,0,0,0,0c0,0,0,0,0,0h0.7c-0.1-0.1-0.2-0.1-0.3-0.2C74.4,33.4,74.3,33.3,74.2,33.2z M78.1,33.5v-2c0-0.2,0-0.3,0-0.4
		c0-0.1,0.1-0.3,0.1-0.4h-0.6c0,0.1,0.1,0.2,0.1,0.4c0,0.1,0,0.3,0,0.4v1.5c0,0.2,0,0.3,0,0.4c0,0.1-0.1,0.3-0.1,0.4h1.5
		c0-0.1,0-0.2,0.1-0.3c0-0.1,0.1-0.2,0.1-0.2c-0.2,0.1-0.3,0.1-0.6,0.2C78.5,33.5,78.3,33.5,78.1,33.5z M90.4,31
		c0-0.1,0.1-0.3,0.1-0.4h-0.6c0,0.1,0.1,0.2,0.1,0.4c0,0.1,0,0.3,0,0.4v1c0,0.2,0,0.4,0,0.5c0,0.1-0.1,0.2-0.2,0.3
		c-0.1,0.1-0.2,0.1-0.3,0.2c-0.1,0-0.2,0.1-0.3,0.1c-0.3,0-0.5-0.1-0.6-0.2c-0.1-0.2-0.2-0.4-0.2-0.7v-1c0-0.2,0-0.3,0-0.4
		c0-0.1,0.1-0.3,0.1-0.4h-0.6c0,0.1,0.1,0.2,0.1,0.4c0,0.1,0,0.3,0,0.4v1.2c0,0.1,0,0.2,0,0.3c0,0.1,0,0.1,0,0.2
		c0,0.1,0.1,0.1,0.1,0.2c0,0.1,0.1,0.1,0.1,0.2c0.1,0.1,0.2,0.2,0.3,0.2c0.1,0.1,0.3,0.1,0.4,0.1c0.2,0,0.3,0,0.5-0.1
		c0.2-0.1,0.3-0.2,0.5-0.4v0.4h0.5c0-0.1-0.1-0.2-0.1-0.4c0-0.1,0-0.3,0-0.4v-1.5C90.4,31.3,90.4,31.1,90.4,31z M94.7,32.1
		C94.7,32.1,94.7,32.1,94.7,32.1c-0.4-0.2-0.6-0.4-0.6-0.7c0-0.1,0.1-0.3,0.2-0.4c0.1-0.1,0.2-0.2,0.4-0.2c0.1,0,0.2,0,0.3,0.1
		c0.1,0.1,0.2,0.1,0.3,0.2c0-0.1,0-0.2,0-0.3c0-0.1,0-0.1,0-0.2c-0.1,0-0.1-0.1-0.2-0.1c-0.1,0-0.1,0-0.2,0c-0.3,0-0.5,0.1-0.7,0.3
		c-0.2,0.2-0.3,0.4-0.3,0.7c0,0.2,0,0.3,0.1,0.4c0.1,0.1,0.2,0.2,0.4,0.4c0,0,0.1,0,0.1,0.1c0.4,0.2,0.6,0.4,0.6,0.6
		c0,0.1,0,0.3-0.1,0.4c-0.1,0.1-0.2,0.1-0.4,0.1c-0.1,0-0.2,0-0.3-0.1c-0.1-0.1-0.2-0.2-0.3-0.3c0,0.1,0,0.1,0,0.2
		c0,0.1,0,0.1,0,0.2c0,0,0,0.1,0,0.1c0,0,0,0.1,0,0.1c0.1,0,0.2,0,0.2,0.1c0.1,0,0.1,0,0.2,0c0.3,0,0.6-0.1,0.7-0.3
		c0.2-0.2,0.3-0.4,0.3-0.7c0-0.2,0-0.3-0.1-0.4C95.1,32.4,94.9,32.2,94.7,32.1z M99,33.5v-1.1c0.2,0,0.3,0,0.5,0.1
		c0.1,0,0.2,0.1,0.3,0.1c0-0.1,0.1-0.1,0.1-0.2c0-0.1,0.1-0.1,0.1-0.2h-1v-1.1c0.2,0,0.4,0,0.5,0c0.2,0,0.3,0.1,0.4,0.1
		c0-0.1,0.1-0.2,0.1-0.3c0-0.1,0.1-0.1,0.1-0.2h-1.7c0,0.1,0.1,0.2,0.1,0.4c0,0.1,0,0.3,0,0.4v1.5c0,0.2,0,0.3,0,0.4
		c0,0.1-0.1,0.3-0.1,0.4h1.6c0-0.1,0.1-0.2,0.1-0.3c0-0.1,0.1-0.2,0.1-0.3c-0.2,0.1-0.4,0.2-0.6,0.2C99.5,33.5,99.2,33.5,99,33.5z
		 M106,31c0-0.1,0.1-0.3,0.1-0.4h-0.6c0,0.1,0.1,0.2,0.1,0.4c0,0.1,0,0.3,0,0.4v1.7l-1.4-1.9c0,0,0,0,0-0.1
		c-0.2-0.2-0.2-0.4-0.2-0.5h-0.7l0.3,0.3v2c0,0.2,0,0.3,0,0.4c0,0.1-0.1,0.3-0.1,0.4h0.6c0-0.1-0.1-0.2-0.1-0.4c0-0.1,0-0.3,0-0.4
		v-1.6l1.6,2.2c0,0,0.1,0.1,0.1,0.1c0,0,0,0.1,0,0.1c0,0,0,0,0,0c0,0,0,0,0,0h0.5c0-0.1,0-0.1-0.1-0.2c0-0.1,0-0.2,0-0.3v-1.8
		C106,31.3,106,31.1,106,31z M116.6,31c0-0.1,0.1-0.3,0.1-0.4h-0.6c0,0.1,0.1,0.2,0.1,0.4c0,0.1,0,0.3,0,0.4v1c0,0.2,0,0.4,0,0.5
		c0,0.1-0.1,0.2-0.2,0.3c-0.1,0.1-0.2,0.1-0.3,0.2c-0.1,0-0.2,0.1-0.3,0.1c-0.3,0-0.5-0.1-0.6-0.2c-0.1-0.2-0.2-0.4-0.2-0.7v-1
		c0-0.2,0-0.3,0-0.4c0-0.1,0.1-0.3,0.1-0.4h-0.6c0,0.1,0.1,0.2,0.1,0.4c0,0.1,0,0.3,0,0.4v1.2c0,0.1,0,0.2,0,0.3c0,0.1,0,0.1,0,0.2
		c0,0.1,0.1,0.1,0.1,0.2c0,0.1,0.1,0.1,0.1,0.2c0.1,0.1,0.2,0.2,0.3,0.2c0.1,0.1,0.3,0.1,0.4,0.1c0.2,0,0.3,0,0.5-0.1
		c0.2-0.1,0.3-0.2,0.5-0.4v0.4h0.5c0-0.1-0.1-0.2-0.1-0.4c0-0.1,0-0.3,0-0.4v-1.5C116.6,31.3,116.6,31.1,116.6,31z M127.3,32.5
		c0,0.1,0,0.3,0,0.5v0.5c-0.1,0-0.2,0-0.2,0c-0.1,0-0.2,0-0.3,0c-0.5,0-0.8-0.1-1.1-0.4c-0.3-0.2-0.4-0.6-0.4-1
		c0-0.4,0.1-0.7,0.3-0.9c0.2-0.2,0.5-0.3,0.9-0.3c0.2,0,0.4,0,0.6,0.1c0.2,0.1,0.3,0.2,0.5,0.3l0-0.6c-0.2,0-0.3-0.1-0.5-0.1
		c-0.2,0-0.3,0-0.5,0c-0.2,0-0.4,0-0.6,0.1c-0.2,0.1-0.4,0.1-0.5,0.3c-0.2,0.2-0.4,0.4-0.5,0.6c-0.1,0.2-0.2,0.5-0.2,0.7
		c0,0.5,0.2,0.9,0.5,1.1c0.3,0.3,0.7,0.4,1.3,0.4c0.1,0,0.3,0,0.5,0c0.2,0,0.3-0.1,0.5-0.1V33c0-0.2,0-0.4,0-0.5
		c0-0.1,0.1-0.2,0.1-0.3h-0.7C127.2,32.3,127.2,32.4,127.3,32.5z M83.2,28.2c0-0.1,0.1-0.2,0.1-0.3c0-0.1,0.1-0.2,0.1-0.4
		c-0.2,0.1-0.4,0.2-0.7,0.3c-0.2,0.1-0.5,0.1-0.9,0.1c-0.1,0-0.2,0-0.4,0c0,0,0,0,0,0l2-3.8h-2.3c0,0.1-0.1,0.3-0.1,0.4
		c-0.1,0.1-0.1,0.3-0.2,0.4c0.2-0.1,0.4-0.3,0.7-0.3c0.2-0.1,0.5-0.1,0.8-0.1c0.1,0,0.1,0,0.2,0c0.1,0,0.1,0,0.2,0l-2,3.8H83.2z
		 M87.8,27.7c0,0.2-0.1,0.3-0.1,0.5h2.2c0-0.1,0.1-0.2,0.1-0.3c0.1-0.1,0.1-0.2,0.2-0.4c-0.3,0.1-0.6,0.2-0.9,0.3
		c-0.3,0.1-0.6,0.1-1,0.1v-1.5c0.2,0,0.5,0.1,0.6,0.1c0.2,0,0.3,0.1,0.4,0.1c0-0.1,0.1-0.2,0.2-0.3c0.1-0.1,0.1-0.2,0.2-0.3h-1.3
		v-1.5c0.3,0,0.5,0,0.7,0.1c0.2,0,0.4,0.1,0.6,0.2c0.1-0.1,0.1-0.2,0.2-0.3c0.1-0.1,0.1-0.2,0.2-0.3h-2.3c0.1,0.2,0.1,0.3,0.1,0.5
		c0,0.2,0,0.4,0,0.6v2C87.8,27.3,87.8,27.5,87.8,27.7z M97.7,24.5c0-0.2,0.1-0.3,0.1-0.5h-0.8c0.1,0.2,0.1,0.3,0.1,0.5
		c0,0.2,0,0.4,0,0.6v2.2l-1.9-2.6c0,0,0-0.1-0.1-0.1C95.1,24.4,95,24.2,95,24H94l0.4,0.5v2.6c0,0.2,0,0.4,0,0.6
		c0,0.2-0.1,0.3-0.1,0.5h0.8C95,28,95,27.9,94.9,27.7c0-0.2,0-0.4,0-0.6v-2.2l2.1,2.9c0,0.1,0.1,0.1,0.1,0.2c0,0.1,0,0.1,0,0.2
		c0,0,0,0,0,0c0,0,0,0,0,0h0.7c0-0.1-0.1-0.2-0.1-0.3c0-0.1,0-0.3,0-0.4v-2.4C97.7,24.9,97.7,24.7,97.7,24.5z M103.1,27.7
		c0,0.2-0.1,0.3-0.1,0.5h0.8c-0.1-0.2-0.1-0.3-0.1-0.5c0-0.2,0-0.4,0-0.6v-2.7c0.2,0,0.4,0,0.6,0.1c0.2,0,0.3,0.1,0.5,0.2
		c0-0.1,0.1-0.2,0.1-0.3c0-0.1,0.1-0.2,0.2-0.3H102c0,0.1-0.1,0.2-0.1,0.3c0,0.1-0.1,0.2-0.1,0.3c0.2-0.1,0.4-0.2,0.6-0.2
		c0.2,0,0.4-0.1,0.7-0.1v2.7C103.1,27.3,103.1,27.5,103.1,27.7z M118.9,24.5c0-0.2,0.1-0.3,0.1-0.5h-0.8c0.1,0.2,0.1,0.3,0.1,0.5
		c0,0.2,0,0.4,0,0.6v1.3c0,0.3,0,0.6-0.1,0.7c0,0.1-0.1,0.2-0.2,0.3c-0.1,0.1-0.2,0.2-0.4,0.2c-0.1,0.1-0.3,0.1-0.4,0.1
		c-0.3,0-0.6-0.1-0.8-0.3c-0.2-0.2-0.3-0.5-0.3-1v-1.4c0-0.2,0-0.4,0-0.6c0-0.2,0.1-0.3,0.1-0.5h-0.8c0.1,0.2,0.1,0.3,0.1,0.5
		c0,0.2,0,0.4,0,0.6v1.6c0,0.2,0,0.3,0,0.4c0,0.1,0,0.2,0,0.2c0,0.1,0.1,0.2,0.1,0.3c0,0.1,0.1,0.2,0.2,0.2c0.1,0.1,0.3,0.2,0.4,0.3
		c0.2,0.1,0.4,0.1,0.5,0.1c0.2,0,0.4-0.1,0.6-0.2c0.2-0.1,0.5-0.3,0.7-0.5v0.6h0.6c-0.1-0.2-0.1-0.3-0.1-0.5c0-0.2,0-0.4,0-0.6v-2
		C118.9,24.9,118.9,24.7,118.9,24.5z M124,27.1v-2.1l1.6,1.7L127,25v2.1c0,0.2,0,0.4,0,0.6c0,0.2-0.1,0.3-0.1,0.5h0.8
		c-0.1-0.2-0.1-0.3-0.1-0.5c0-0.2,0-0.4,0-0.6v-2.4c0-0.1,0-0.2,0-0.3c0-0.1,0.1-0.2,0.1-0.2l0.2-0.2h-0.7c0,0.1,0,0.1-0.1,0.2
		c0,0.1-0.1,0.1-0.1,0.2l-1.4,1.6l-1.2-1.3c-0.1-0.1-0.2-0.3-0.3-0.4c-0.1-0.1-0.1-0.2-0.1-0.3h-0.9l0.5,0.5v2.5c0,0.2,0,0.4,0,0.6
		c0,0.2-0.1,0.3-0.1,0.5h0.8c-0.1-0.2-0.1-0.3-0.1-0.5C124,27.5,124,27.3,124,27.1z M0,52.6 M33.8,12.6C31.2,8.4,27.6,5.2,23.1,3
		c-2.2-1.1-4.6-1.8-7.2-2.3C13.2,0.2,9.8,0,5.5,0H0c0.8,2,1.4,4.1,1.7,6.3c0.4,2.2,0.6,4.7,0.6,7.4v9.7c0.2,0,0.3,0,0.5,0.1
		c0.3,0.1,0.6,0.1,0.8,0.3c0.5,0.2,0.9,0.6,1.2,1.1c0.3,0.5,0.4,1,0.4,1.6c0,0.9-0.3,1.6-0.9,2.2c-0.5,0.4-1.2,0.7-2,0.7v9.7
		c0,2.7-0.2,5.1-0.6,7.3c-0.4,2.2-1,4.3-1.7,6.3h6.6c9.7,0,17.3-2.3,22.8-6.9c5.5-4.6,8.3-10.9,8.3-18.9
		C37.7,21.6,36.4,16.8,33.8,12.6z M7.5,26.9c-0.2,0.2-0.5,0.3-0.9,0.3H6.4c0-0.1,0.1-0.2,0.1-0.3c0-0.1,0-0.2,0-0.3v-1
		c0-0.1,0-0.2,0-0.3c0-0.1,0-0.2-0.1-0.3h0.2c0.2,0,0.3,0,0.4,0c0.1,0,0.2,0.1,0.3,0.1c0.2,0.1,0.3,0.2,0.4,0.4
		c0.1,0.2,0.2,0.4,0.2,0.6C7.9,26.5,7.8,26.7,7.5,26.9z M11.2,27c0,0.1-0.1,0.1-0.1,0.2H10c0-0.1,0.1-0.2,0.1-0.3c0-0.1,0-0.2,0-0.3
		v-1c0-0.1,0-0.2,0-0.3c0-0.1,0-0.2-0.1-0.3h1.2c0,0-0.1,0.1-0.1,0.1c0,0.1-0.1,0.1-0.1,0.2c-0.1,0-0.2-0.1-0.3-0.1
		c-0.1,0-0.2,0-0.4,0V26H11c0,0.1-0.1,0.1-0.1,0.2c0,0-0.1,0.1-0.1,0.1c-0.1,0-0.1,0-0.2-0.1c-0.1,0-0.2,0-0.3,0V27
		c0.2,0,0.3,0,0.5,0c0.2,0,0.3-0.1,0.4-0.1C11.3,26.9,11.2,26.9,11.2,27z M15.1,26.9c0,0.1,0,0.2,0.1,0.3h-0.3v-0.3
		c-0.1,0.1-0.2,0.2-0.4,0.2c-0.1,0.1-0.2,0.1-0.3,0.1c-0.1,0-0.2,0-0.3-0.1c-0.1,0-0.2-0.1-0.2-0.2c0,0-0.1-0.1-0.1-0.1
		c0,0,0-0.1-0.1-0.1c0,0,0-0.1,0-0.1c0-0.1,0-0.1,0-0.2v-0.8c0-0.1,0-0.2,0-0.3c0-0.1,0-0.2-0.1-0.3h0.4c0,0.1-0.1,0.2-0.1,0.3
		c0,0.1,0,0.2,0,0.3v0.7c0,0.2,0,0.4,0.1,0.5c0.1,0.1,0.2,0.2,0.4,0.2c0.1,0,0.2,0,0.2,0c0.1,0,0.1-0.1,0.2-0.1
		c0.1,0,0.1-0.1,0.1-0.2c0-0.1,0-0.2,0-0.4v-0.7c0-0.1,0-0.2,0-0.3c0-0.1,0-0.2-0.1-0.2h0.4c0,0.1-0.1,0.2-0.1,0.2
		c0,0.1,0,0.2,0,0.3v1C15.1,26.7,15.1,26.8,15.1,26.9z M18.7,25.2c0,0.1,0,0.1-0.1,0.2c-0.1,0-0.1-0.1-0.2-0.1c-0.1,0-0.2,0-0.3,0
		v1.4c0,0.1,0,0.2,0,0.3c0,0.1,0,0.2,0.1,0.3h-0.4c0-0.1,0.1-0.2,0.1-0.3c0-0.1,0-0.2,0-0.3v-1.4c-0.1,0-0.3,0-0.4,0
		c-0.1,0-0.2,0.1-0.3,0.1c0-0.1,0-0.1,0.1-0.2c0-0.1,0-0.1,0-0.2h1.5C18.7,25.1,18.7,25.1,18.7,25.2z M21.6,27
		c-0.1,0.1-0.3,0.2-0.5,0.2c0,0-0.1,0-0.1,0c-0.1,0-0.1,0-0.2,0c0,0,0-0.1,0-0.1c0,0,0,0,0-0.1c0,0,0-0.1,0-0.1c0,0,0-0.1,0-0.1
		c0.1,0.1,0.1,0.2,0.2,0.2c0.1,0,0.1,0.1,0.2,0.1c0.1,0,0.2,0,0.3-0.1c0.1-0.1,0.1-0.1,0.1-0.2c0-0.1-0.1-0.3-0.4-0.4
		c0,0-0.1,0-0.1,0C21,26.1,20.9,26,20.8,26c-0.1-0.1-0.1-0.2-0.1-0.3c0-0.2,0.1-0.3,0.2-0.5c0.1-0.1,0.3-0.2,0.5-0.2
		c0.1,0,0.1,0,0.2,0c0,0,0.1,0,0.1,0.1c0,0,0,0.1,0,0.1c0,0,0,0.1,0,0.2c-0.1-0.1-0.1-0.1-0.2-0.2c-0.1,0-0.1-0.1-0.2-0.1
		c-0.1,0-0.2,0-0.2,0.1C21,25.4,21,25.5,21,25.6c0,0.1,0.1,0.3,0.4,0.4c0,0,0,0,0,0c0.2,0.1,0.3,0.2,0.3,0.2
		c0.1,0.1,0.1,0.2,0.1,0.3C21.8,26.8,21.8,26.9,21.6,27z M25.7,27c-0.1,0.1-0.2,0.1-0.4,0.1c-0.1,0-0.2,0-0.3,0
		c-0.1,0-0.3,0-0.4-0.1c-0.1,0-0.2-0.1-0.3-0.2c-0.1-0.1-0.2-0.2-0.3-0.4c-0.1-0.1-0.1-0.3-0.1-0.5c0-0.2,0-0.3,0.1-0.5
		c0.1-0.1,0.2-0.3,0.3-0.4c0.1-0.1,0.2-0.1,0.4-0.2c0.1,0,0.3-0.1,0.5-0.1c0.1,0,0.2,0,0.3,0c0.1,0,0.2,0,0.2,0.1l0,0.4
		c-0.1-0.1-0.2-0.1-0.3-0.2c-0.1,0-0.2-0.1-0.3-0.1c-0.2,0-0.4,0.1-0.6,0.2c-0.1,0.2-0.2,0.4-0.2,0.6c0,0.3,0.1,0.5,0.2,0.6
		c0.1,0.2,0.3,0.2,0.6,0.2c0.1,0,0.1,0,0.2,0c0.1,0,0.1,0,0.2,0c0.1,0,0.1,0,0.2-0.1c0.1,0,0.1-0.1,0.2-0.1L25.7,27z M29.4,26.9
		c0,0.1,0,0.2,0.1,0.3H29c0-0.1,0.1-0.2,0.1-0.3c0-0.1,0-0.2,0-0.3v-0.4h-1v0.4c0,0.1,0,0.2,0,0.3c0,0.1,0,0.2,0.1,0.3h-0.4
		c0-0.1,0.1-0.2,0.1-0.3c0-0.1,0-0.2,0-0.3v-1c0-0.1,0-0.2,0-0.3c0-0.1,0-0.2-0.1-0.3h0.4c0,0.1-0.1,0.2-0.1,0.2c0,0.1,0,0.2,0,0.3
		V26h1v-0.4c0-0.1,0-0.2,0-0.3c0-0.1,0-0.2-0.1-0.2h0.4c0,0.1-0.1,0.2-0.1,0.2c0,0.1,0,0.2,0,0.3v1C29.3,26.7,29.3,26.8,29.4,26.9z
		 M32.8,27c0,0.1-0.1,0.1-0.1,0.2h-1.1c0-0.1,0.1-0.2,0.1-0.3c0-0.1,0-0.2,0-0.3v-1c0-0.1,0-0.2,0-0.3c0-0.1,0-0.2-0.1-0.3h1.2
		c0,0-0.1,0.1-0.1,0.1c0,0.1-0.1,0.1-0.1,0.2c-0.1,0-0.2-0.1-0.3-0.1c-0.1,0-0.2,0-0.4,0V26h0.7c0,0.1-0.1,0.1-0.1,0.2
		c0,0-0.1,0.1-0.1,0.1c0,0-0.1,0-0.2-0.1c-0.1,0-0.2,0-0.3,0V27c0.2,0,0.3,0,0.5,0c0.2,0,0.3-0.1,0.4-0.1
		C32.8,26.9,32.8,26.9,32.8,27z M35.4,27.2c0,0-0.1,0-0.1,0c0,0-0.1,0-0.2,0c0,0,0-0.1,0-0.1c0,0,0,0,0-0.1c0,0,0-0.1,0-0.1
		c0,0,0-0.1,0-0.1c0.1,0.1,0.1,0.2,0.2,0.2c0.1,0,0.1,0.1,0.2,0.1c0.1,0,0.2,0,0.3-0.1c0.1-0.1,0.1-0.1,0.1-0.2
		c0-0.1-0.1-0.3-0.4-0.4c0,0-0.1,0-0.1,0c-0.1-0.1-0.3-0.2-0.3-0.2C35,25.9,35,25.8,35,25.7c0-0.2,0.1-0.3,0.2-0.5
		c0.1-0.1,0.3-0.2,0.5-0.2c0.1,0,0.1,0,0.2,0c0.1,0,0.1,0,0.1,0.1c0,0,0,0.1,0,0.1c0,0,0,0.1,0,0.2c-0.1-0.1-0.1-0.1-0.2-0.2
		c-0.1,0-0.1-0.1-0.2-0.1c-0.1,0-0.2,0-0.2,0.1c-0.1,0.1-0.1,0.2-0.1,0.3c0,0.1,0.1,0.3,0.4,0.4c0,0,0,0,0,0
		c0.2,0.1,0.3,0.2,0.3,0.2c0.1,0.1,0.1,0.2,0.1,0.3c0,0.2-0.1,0.3-0.2,0.4C35.7,27.1,35.6,27.2,35.4,27.2z"/>
</svg>
