<!-- Generator: Adobe Illustrator 18.1.1, SVG Export Plug-In  -->
<svg version="1.1"
	 xmlns="http://www.w3.org/2000/svg" xmlns:xlink="http://www.w3.org/1999/xlink" xmlns:a="http://ns.adobe.com/AdobeSVGViewerExtensions/3.0/"
	 x="0px" y="0px" width="13.78px" height="12.39px" viewBox="0 0 13.78 12.39" enable-background="new 0 0 13.78 12.39"
	 xml:space="preserve">
<defs>
</defs>
<g>
	<path fill-rule="evenodd" clip-rule="evenodd" fill="#868789" d="M1.85,11.45c-0.12,0.05-0.24,0.08-0.34,0.09
		c-0.11,0.01-0.22,0.02-0.33,0.02c-0.2,0-0.37-0.03-0.52-0.09c-0.15-0.06-0.27-0.15-0.37-0.26c-0.1-0.11-0.17-0.24-0.22-0.39
		C0.02,10.67,0,10.5,0,10.32c0-0.18,0.02-0.34,0.07-0.48c0.05-0.15,0.12-0.28,0.22-0.4c0.09-0.11,0.21-0.2,0.36-0.27
		c0.14-0.06,0.31-0.09,0.5-0.09c0.07,0,0.13,0,0.19,0c0.06,0,0.11,0.01,0.16,0.02c0.05,0.01,0.1,0.02,0.16,0.04
		C1.7,9.16,1.76,9.18,1.82,9.2c0,0.75-0.7,0.19-1.02,0.59c-0.1,0.12-0.14,0.3-0.14,0.53c0,0.25,0.05,0.43,0.15,0.54
		c0.1,0.11,0.25,0.17,0.42,0.17C1.65,11.04,1.85,10.92,1.85,11.45"/>
	<path fill-rule="evenodd" clip-rule="evenodd" fill="#868789" d="M2.14,8.16c0.11-0.02,0.22-0.03,0.33-0.03
		c0.1,0,0.21,0.01,0.32,0.03v2.41c0,0.09,0,0.17,0.01,0.23c0.09,0.5,0.6,0.15,0.48,0.7c-0.05,0.02-0.11,0.02-0.17,0.03
		c-0.07,0.01-0.13,0.01-0.19,0.01c-0.24,0-0.43-0.06-0.57-0.19C2.21,11.21,2.14,11,2.14,10.7V8.16z"/>
	<path fill-rule="evenodd" clip-rule="evenodd" fill="#868789" d="M3.46,9.14c0.11-0.02,0.22-0.03,0.33-0.03
		c0.11,0,0.22,0.01,0.32,0.03v1.26c0,0.12,0.01,0.23,0.03,0.31c0.02,0.08,0.05,0.15,0.09,0.19c0.04,0.05,0.09,0.08,0.15,0.1
		c0.06,0.02,0.13,0.03,0.22,0.03c0.11,0,0.21-0.01,0.28-0.03V9.14C4.99,9.12,5.1,9.11,5.2,9.11c0.11,0,0.22,0.01,0.33,0.03v2.28
		c-0.1,0.03-0.23,0.07-0.39,0.1c-0.16,0.03-0.33,0.05-0.5,0.05c-0.16,0-0.31-0.01-0.45-0.04c-0.14-0.03-0.27-0.08-0.38-0.16
		c-0.11-0.08-0.2-0.2-0.26-0.35c-0.06-0.15-0.1-0.36-0.1-0.61V9.14z"/>
	<path fill-rule="evenodd" clip-rule="evenodd" fill="#868789" d="M6.1,9.63v1.81c0,0.79-0.63,0.45-0.68,0.89
		c0.07,0.02,0.14,0.03,0.22,0.04c0.08,0.01,0.16,0.01,0.23,0.01c0.28,0,0.49-0.06,0.64-0.2c0.15-0.13,0.22-0.34,0.22-0.63V9.14
		C6.24,9.23,5.86,9.2,5.79,9.63H6.1z"/>
	<path fill-rule="evenodd" clip-rule="evenodd" fill="#868789" d="M12.09,1.05c-1.75-1.4-4.43-1.39-6.17,0
		C4.14,2.46,4.23,4.67,5.96,6.06c0.31,0.25,0.57,0.79,0.42,1.47C6.25,8.06,6.31,8.59,6.46,8.88C6.47,8.96,6.62,9,6.67,8.89
		c0.28-1.51,0.99-1.9,2.73-1.95C12.53,6.85,14.88,3.26,12.09,1.05 M12.82,3.67h-0.04V3.6h-0.28V3.53H12.1V3.6h-0.21v0.07h-0.07v0.79
		h-0.07v0.91h-0.07V5.3h-0.07V4.48h-1.03v0.14h-0.27v0.87h-0.21V5.3h-0.07V4.48L9.84,3.89l-0.2,0.53V3.39H9.36V2.7h-1.5v0.27H7.72
		v0.41H7.52v1.37H7.46H7.11v0.07H6.97v-0.2C6.68,4.14,5.99,4.3,5.88,4.55H5.74L5.47,2.98l-0.25,1.2C4.93,3.23,5.24,2.08,6.21,1.31
		l0,0c1.56-1.25,4.02-1.25,5.58,0c0.66,0.53,1.11,1.36,1.05,2.22C12.83,3.58,12.83,3.63,12.82,3.67"/>
	<path fill="#868789" d="M7.43,8.24c0.11-0.02,0.22-0.03,0.33-0.03c0.1,0,0.21,0.01,0.32,0.03v2.41c0,0.09,0.01,0.17,0.01,0.23
		c0.08,0.45,0.62,0.17,0.49,0.7C8.53,11.59,8.47,11.6,8.4,11.6c-0.07,0.01-0.13,0.01-0.19,0.01c-0.24,0-0.43-0.07-0.57-0.2
		c-0.14-0.13-0.21-0.34-0.21-0.63V8.24z M8.92,9.71v1.88c0.11,0.02,0.22,0.03,0.32,0.03c0.11,0,0.21-0.01,0.32-0.03V9.22
		C9.04,9.29,8.57,9.14,8.61,9.71H8.92z M8.82,8.82C8.8,8.71,8.79,8.61,8.79,8.51c0-0.1,0.01-0.2,0.03-0.31
		c0.05-0.01,0.11-0.02,0.16-0.02C9.05,8.18,9.1,8.17,9.15,8.17c0.05,0,0.11,0,0.17,0.01c0.06,0,0.12,0.01,0.17,0.02
		C9.5,8.26,9.5,8.31,9.51,8.36c0,0.05,0,0.1,0,0.16c0,0.05,0,0.1,0,0.15C9.5,8.71,9.5,8.76,9.49,8.82C9.44,8.83,9.38,8.83,9.32,8.84
		c-0.06,0-0.12,0-0.17,0c-0.05,0-0.1,0-0.16,0C8.93,8.83,8.87,8.83,8.82,8.82 M10.2,9.71H9.83c0.03-0.3,0.23-0.44,0.38-0.49V9.1
		c0-0.15,0.02-0.28,0.07-0.39c0.04-0.11,0.11-0.21,0.19-0.29c0.08-0.08,0.18-0.14,0.3-0.18C10.87,8.2,11,8.18,11.13,8.18
		c0.09,0,0.17,0,0.23,0.01c0.06,0.01,0.13,0.02,0.2,0.04c-0.01,0.1-0.02,0.19-0.03,0.27c-0.01,0.08-0.04,0.16-0.07,0.24
		c-0.03-0.01-0.07-0.01-0.11-0.02c-0.04-0.01-0.09-0.01-0.15-0.01c-0.11,0-0.19,0.03-0.26,0.08c-0.07,0.05-0.1,0.16-0.11,0.32v0.1
		h0.55c0.01,0.05,0.02,0.09,0.02,0.13c0,0.04,0.01,0.08,0.01,0.13c0,0.04,0,0.08-0.01,0.11c0,0.04-0.01,0.08-0.02,0.12h-0.55v1.88
		c-0.11,0.02-0.22,0.03-0.32,0.03c-0.11,0-0.22-0.01-0.33-0.03V9.71z M12.23,10.6c0.01,0.18,0.08,0.31,0.19,0.4
		c0.46,0.4,1.03-0.06,1.21,0.5c-0.24,0.09-0.5,0.14-0.8,0.14c-0.22,0-0.41-0.03-0.57-0.09c-0.16-0.06-0.28-0.15-0.38-0.25
		c-0.1-0.11-0.17-0.24-0.22-0.39c-0.05-0.15-0.07-0.31-0.07-0.49c0-0.17,0.02-0.34,0.07-0.49c0.05-0.15,0.12-0.29,0.22-0.4
		c0.1-0.11,0.21-0.2,0.36-0.27c0.14-0.07,0.31-0.1,0.5-0.1c0.16,0,0.31,0.03,0.44,0.09c0.13,0.06,0.24,0.14,0.33,0.24
		c0.09,0.1,0.16,0.22,0.2,0.36c0.05,0.14,0.07,0.29,0.07,0.45c0,0.06,0,0.12-0.01,0.17c-0.01,0.06-0.01,0.1-0.02,0.13H12.23z
		 M13.16,10.14c-0.01-0.14-0.05-0.26-0.12-0.35c-0.08-0.09-0.18-0.14-0.31-0.14c-0.16,0-0.27,0.04-0.35,0.13
		c-0.08,0.09-0.13,0.21-0.14,0.36H13.16z"/>
</g>
</svg>
