<!-- Generator: Adobe Illustrator 19.2.1, SVG Export Plug-In  -->
<svg version="1.1"
	 xmlns="http://www.w3.org/2000/svg" xmlns:xlink="http://www.w3.org/1999/xlink" xmlns:a="http://ns.adobe.com/AdobeSVGViewerExtensions/3.0/"
	 x="0px" y="0px" width="279.4px" height="110.8px" viewBox="0 0 279.4 110.8" enable-background="new 0 0 279.4 110.8"
	 xml:space="preserve">
<defs>
</defs>
<g>
	<path fill-rule="evenodd" clip-rule="evenodd" fill="#00B1CA" d="M37.9,13.5H67v0c0,0-0.7,0,0.1,0c0.8,0,2.8,1.2,2.8,2.8v-2.8l0,0
		V7.8c0-1.7-1.4-3-3-3H37.8v0c0,0,0.7,0-0.1,0c-0.8,0-2.8-1.2-2.8-2.8v2.8v0v5.7C34.9,12.1,36.3,13.5,37.9,13.5L37.9,13.5z
		 M69.9,16.5L69.9,16.5l0-0.2C69.9,16.4,69.9,16.5,69.9,16.5L69.9,16.5z M34.9,1.8L34.9,1.8l0,0.2C34.9,1.9,34.9,1.8,34.9,1.8
		L34.9,1.8z"/>
	<path fill-rule="evenodd" clip-rule="evenodd" fill="#00B1CA" d="M37.9,24.2H67v0c0,0-0.7,0,0.1,0c0.8,0,2.8,1.2,2.8,2.8v-2.8l0,0
		v-5.7c0-1.7-1.4-3-3-3H37.8v0c0,0,0.7,0-0.1,0c-0.8,0-2.8-1.2-2.8-2.8v2.8v0v5.7C34.9,22.8,36.3,24.2,37.9,24.2L37.9,24.2z
		 M69.9,27.2L69.9,27.2l0-0.2C69.9,27,69.9,27.1,69.9,27.2L69.9,27.2z M34.9,12.4L34.9,12.4l0,0.2C34.9,12.6,34.9,12.5,34.9,12.4
		L34.9,12.4z"/>
	<path fill-rule="evenodd" clip-rule="evenodd" fill="#00B1CA" d="M37.9,34.9H67v0c0,0-0.7,0,0.1,0c0.8,0,2.8,1.2,2.8,2.8v-2.8l0,0
		v-5.7c0-1.7-1.4-3-3-3H37.8v0c0,0,0.7,0-0.1,0c-0.8,0-2.8-1.2-2.8-2.8v2.8l0,0v5.7C34.9,33.5,36.3,34.9,37.9,34.9L37.9,34.9z
		 M69.9,37.9L69.9,37.9l0-0.2C69.9,37.7,69.9,37.8,69.9,37.9L69.9,37.9z M34.9,23.1L34.9,23.1l0,0.2C34.9,23.3,34.9,23.2,34.9,23.1
		L34.9,23.1z"/>
	<path fill-rule="evenodd" clip-rule="evenodd" fill="#5BBA47" d="M41.9,82.8H71v0c0,0-0.7,0,0.1,0c0.8,0,2.8,1.2,2.8,2.8v-2.8l0,0
		v-5.7c0-1.7-1.4-3-3-3H41.7v0c0,0,0.7,0-0.1,0c-0.8,0-2.8-1.2-2.8-2.8v2.8v0v5.7C38.9,81.5,40.2,82.8,41.9,82.8L41.9,82.8z
		 M73.8,85.9L73.8,85.9l0-0.2C73.8,85.7,73.8,85.8,73.8,85.9L73.8,85.9z M38.9,71.1L38.9,71.1l0,0.2C38.9,71.3,38.9,71.2,38.9,71.1
		L38.9,71.1z"/>
	<path fill-rule="evenodd" clip-rule="evenodd" fill="#5BBA47" d="M41.9,93.5H71v0c0,0-0.7,0,0.1,0c0.8,0,2.8,1.2,2.8,2.8v-2.8l0,0
		v-5.7c0-1.7-1.4-3-3-3H41.7v0c0,0,0.7,0-0.1,0c-0.8,0-2.8-1.2-2.8-2.8v2.8v0v5.7C38.9,92.1,40.2,93.5,41.9,93.5L41.9,93.5z
		 M73.8,96.5L73.8,96.5l0-0.2C73.8,96.4,73.8,96.4,73.8,96.5L73.8,96.5z M38.9,81.8L38.9,81.8l0,0.2C38.9,81.9,38.9,81.8,38.9,81.8
		L38.9,81.8z"/>
	<path fill-rule="evenodd" clip-rule="evenodd" fill="#5BBA47" d="M41.9,104.2H71v0c0,0-0.7,0,0.1,0c0.8,0,2.8,1.2,2.8,2.8v-2.8l0,0
		v-5.7c0-1.7-1.4-3-3-3H41.7v0c0,0,0.7,0-0.1,0c-0.8,0-2.8-1.2-2.8-2.8v2.8l0,0v5.7C38.9,102.8,40.2,104.2,41.9,104.2L41.9,104.2z
		 M73.8,107.2L73.8,107.2l0-0.2C73.8,107.1,73.8,107.2,73.8,107.2L73.8,107.2z M38.9,92.5L38.9,92.5l0,0.2
		C38.9,92.6,38.9,92.6,38.9,92.5L38.9,92.5z"/>
	<path fill-rule="evenodd" clip-rule="evenodd" fill="#D84426" d="M74.3,50.4h29.1v0c0,0-0.7,0,0.1,0c0.8,0,2.8,1.2,2.8,2.8l0-2.8h0
		v-5.7c0-1.7-1.4-3-3-3H74.1v0c0,0,0.7,0-0.1,0c-0.8,0-2.8-1.2-2.8-2.8v2.8v0v5.7C71.2,49.1,72.6,50.4,74.3,50.4L74.3,50.4z
		 M106.2,53.5L106.2,53.5l0-0.2C106.2,53.3,106.2,53.4,106.2,53.5L106.2,53.5z M71.2,38.7L71.2,38.7l0,0.2
		C71.2,38.8,71.2,38.8,71.2,38.7L71.2,38.7z"/>
	<path fill-rule="evenodd" clip-rule="evenodd" fill="#D84426" d="M74.3,61.1h29.1v0c0,0-0.7,0,0.1,0c0.8,0,2.8,1.2,2.8,2.8l0-2.8h0
		v-5.7c0-1.7-1.4-3-3-3H74.1v0c0,0,0.7,0-0.1,0c-0.8,0-2.8-1.2-2.8-2.8v2.8v0V58C71.2,59.7,72.6,61.1,74.3,61.1L74.3,61.1z
		 M106.2,64.1L106.2,64.1l0-0.2C106.2,63.9,106.2,64,106.2,64.1L106.2,64.1z M71.2,49.3L71.2,49.3l0,0.2
		C71.2,49.5,71.2,49.4,71.2,49.3L71.2,49.3z"/>
	<path fill-rule="evenodd" clip-rule="evenodd" fill="#D84426" d="M74.3,71.8h29.1v0c0,0-0.7,0,0.1,0c0.8,0,2.8,1.2,2.8,2.8l0-2.8h0
		v-5.7c0-1.7-1.4-3-3-3H74.1v0c0,0,0.7,0-0.1,0c-0.8,0-2.8-1.2-2.8-2.8v2.8v0v5.7C71.2,70.4,72.6,71.8,74.3,71.8L74.3,71.8z
		 M106.2,74.8L106.2,74.8l0-0.2C106.2,74.7,106.2,74.7,106.2,74.8L106.2,74.8z M71.2,60.1L71.2,60.1l0,0.2
		C71.2,60.2,71.2,60.1,71.2,60.1L71.2,60.1z"/>
	<path fill-rule="evenodd" clip-rule="evenodd" fill="#FCBF8F" d="M5.2,45.4h29.1v0c0,0-0.7,0,0.1,0c0.8,0,2.8,1.2,2.8,2.8v-2.8l0,0
		v-5.7c0-1.7-1.4-3-3-3H5v0c0,0,0.7,0-0.1,0c-0.8,0-2.8-1.2-2.8-2.8v2.8l0,0v5.7C2.1,44,3.5,45.4,5.2,45.4L5.2,45.4z M37.1,48.4
		L37.1,48.4l0-0.2C37.1,48.2,37.1,48.3,37.1,48.4L37.1,48.4z M2.1,33.6L2.1,33.6l0,0.2C2.1,33.8,2.1,33.7,2.1,33.6L2.1,33.6z"/>
	<path fill-rule="evenodd" clip-rule="evenodd" fill="#FCBF8F" d="M5.2,56h29.1v0c0,0-0.7,0,0.1,0c0.8,0,2.8,1.2,2.8,2.8V56l0,0
		v-5.7c0-1.7-1.4-3-3-3H5v0c0,0,0.7,0-0.1,0c-0.8,0-2.8-1.2-2.8-2.8v2.8v0V53C2.1,54.6,3.5,56,5.2,56L5.2,56z M37.1,59L37.1,59
		l0-0.2C37.1,58.9,37.1,59,37.1,59L37.1,59z M2.1,44.3L2.1,44.3l0,0.2C2.1,44.4,2.1,44.4,2.1,44.3L2.1,44.3z"/>
	<path fill-rule="evenodd" clip-rule="evenodd" fill="#FCBF8F" d="M5.2,66.7h29.1v0c0,0-0.7,0,0.1,0c0.8,0,2.8,1.2,2.8,2.8v-2.8l0,0
		v-5.7c0-1.7-1.4-3-3-3H5v0c0,0,0.7,0-0.1,0c-0.8,0-2.8-1.2-2.8-2.8V58v0v5.7C2.1,65.3,3.5,66.7,5.2,66.7L5.2,66.7z M37.1,69.8
		L37.1,69.8l0-0.2C37.1,69.6,37.1,69.7,37.1,69.8L37.1,69.8z M2.1,55L2.1,55l0,0.2C2.1,55.1,2.1,55.1,2.1,55L2.1,55z"/>
	<path fill-rule="evenodd" clip-rule="evenodd" fill="#99D4BC" d="M11.7,3v29.1l0,0c0,0,0-0.7,0,0.1c0,0.8,1.2,2.8,2.8,2.8h-2.8l0,0
		H6.1c-1.7,0-3-1.4-3-3V2.9h0c0,0,0,0.7,0-0.1C3,2,1.8,0,0.2,0H3h0h5.7C10.4,0,11.7,1.4,11.7,3L11.7,3z M14.8,35L14.8,35l-0.2,0
		C14.6,35,14.7,35,14.8,35L14.8,35z M0,0L0,0l0.2,0C0.2,0,0.1,0,0,0L0,0z"/>
	<path fill-rule="evenodd" clip-rule="evenodd" fill="#99D4BC" d="M22.4,3v29.1l0,0c0,0,0-0.7,0,0.1c0,0.8,1.2,2.8,2.8,2.8h-2.8l0,0
		h-5.7c-1.7,0-3-1.4-3-3V2.9h0c0,0,0,0.7,0-0.1C13.7,2,12.4,0,10.9,0h2.8h0h5.7C21,0,22.4,1.4,22.4,3L22.4,3z M25.4,35L25.4,35
		l-0.2,0C25.3,35,25.3,35,25.4,35L25.4,35z M10.7,0L10.7,0l0.2,0C10.8,0,10.7,0,10.7,0L10.7,0z"/>
	<path fill-rule="evenodd" clip-rule="evenodd" fill="#99D4BC" d="M32.9,3v29.1l0,0c0,0,0-0.7,0,0.1c0,0.8,1.2,2.8,2.8,2.8h-2.8l0,0
		h-5.7c-1.7,0-3-1.4-3-3V2.9h0c0,0,0,0.7,0-0.1C24.2,2,23,0,21.5,0h2.8h0h5.7C31.6,0,32.9,1.4,32.9,3L32.9,3z M36,35L36,35l-0.2,0
		C35.8,35,35.9,35,36,35L36,35z M21.2,0L21.2,0l0.2,0C21.4,0,21.3,0,21.2,0L21.2,0z"/>
	<path fill-rule="evenodd" clip-rule="evenodd" fill="#BCD861" d="M15.7,72.4v29.1l0,0c0,0,0-0.7,0,0.1c0,0.8,1.2,2.8,2.8,2.8h-2.8
		l0,0H10c-1.7,0-3-1.4-3-3V72.2h0c0,0,0,0.7,0-0.1c0-0.8-1.2-2.8-2.8-2.8H7h0h5.7C14.3,69.3,15.7,70.7,15.7,72.4L15.7,72.4z
		 M18.7,104.3L18.7,104.3l-0.2,0C18.6,104.3,18.6,104.3,18.7,104.3L18.7,104.3z M4,69.4L4,69.4l0.2,0C4.1,69.3,4,69.3,4,69.4L4,69.4
		z"/>
	<path fill-rule="evenodd" clip-rule="evenodd" fill="#BCD861" d="M26.3,72.4v29.1l0,0c0,0,0-0.7,0,0.1c0,0.8,1.2,2.8,2.8,2.8h-2.8
		l0,0h-5.7c-1.7,0-3-1.4-3-3V72.2h0c0,0,0,0.7,0-0.1c0-0.8-1.2-2.8-2.8-2.8h2.8h0h5.7C25,69.3,26.3,70.7,26.3,72.4L26.3,72.4z
		 M29.4,104.3L29.4,104.3l-0.2,0C29.2,104.3,29.3,104.3,29.4,104.3L29.4,104.3z M14.6,69.4L14.6,69.4l0.2,0
		C14.8,69.3,14.7,69.3,14.6,69.4L14.6,69.4z"/>
	<path fill-rule="evenodd" clip-rule="evenodd" fill="#BCD861" d="M36.9,72.4v29.1l0,0c0,0,0-0.7,0,0.1c0,0.8,1.2,2.8,2.8,2.8h-2.8
		l0,0h-5.7c-1.7,0-3-1.4-3-3V72.2h0c0,0,0,0.7,0-0.1c0-0.8-1.2-2.8-2.8-2.8h2.8h0h5.7C35.5,69.3,36.9,70.7,36.9,72.4L36.9,72.4z
		 M39.9,104.3L39.9,104.3l-0.2,0C39.8,104.3,39.9,104.3,39.9,104.3L39.9,104.3z M25.2,69.4L25.2,69.4l0.2,0
		C25.3,69.3,25.2,69.3,25.2,69.4L25.2,69.4z"/>
	<path fill-rule="evenodd" clip-rule="evenodd" fill="#00ACBB" d="M80.5,8v29.1h0c0,0,0-0.7,0,0.1c0,0.8,1.2,2.8,2.8,2.8l-2.8,0v0
		h-5.7c-1.7,0-3-1.4-3-3V7.8h0c0,0,0,0.7,0-0.1C71.8,7,70.5,5,69,5h2.8h0h5.7C79.1,5,80.5,6.3,80.5,8L80.5,8z M83.5,39.9L83.5,39.9
		l-0.2,0C83.3,40,83.4,40,83.5,39.9L83.5,39.9z M68.7,5L68.7,5L69,5C68.9,5,68.8,5,68.7,5L68.7,5z"/>
	<path fill-rule="evenodd" clip-rule="evenodd" fill="#00ACBB" d="M91.1,8v29.1h0c0,0,0-0.7,0,0.1c0,0.8,1.2,2.8,2.8,2.8l-2.8,0v0
		h-5.7c-1.7,0-3-1.4-3-3V7.8h0c0,0,0,0.7,0-0.1C82.4,7,81.2,5,79.6,5h2.8l0,0h5.7C89.7,5,91.1,6.3,91.1,8L91.1,8z M94.1,39.9
		L94.1,39.9l-0.2,0C94,40,94.1,40,94.1,39.9L94.1,39.9z M79.4,5L79.4,5l0.2,0C79.5,5,79.5,5,79.4,5L79.4,5z"/>
	<path fill-rule="evenodd" clip-rule="evenodd" fill="#00ACBB" d="M101.7,8v29.1h0c0,0,0-0.7,0,0.1c0,0.8,1.2,2.8,2.8,2.8l-2.8,0v0
		H96c-1.7,0-3-1.4-3-3V7.8h0c0,0,0,0.7,0-0.1C93,7,91.7,5,90.2,5H93l0,0h5.7C100.3,5,101.7,6.3,101.7,8L101.7,8z M104.7,39.9
		L104.7,39.9l-0.2,0C104.5,40,104.6,40,104.7,39.9L104.7,39.9z M89.9,5L89.9,5l0.2,0C90.1,5,90,5,89.9,5L89.9,5z"/>
	<path fill-rule="evenodd" clip-rule="evenodd" fill="#647883" d="M84.4,77.4v29.1h0c0,0,0-0.7,0,0.1c0,0.8,1.2,2.8,2.8,2.8l-2.8,0
		v0h-5.7c-1.7,0-3-1.4-3-3V77.2h0c0,0,0,0.7,0-0.1c0-0.8-1.2-2.8-2.8-2.8h2.8h0h5.7C83.1,74.3,84.4,75.7,84.4,77.4L84.4,77.4z
		 M87.5,109.3L87.5,109.3l-0.2,0C87.3,109.3,87.4,109.3,87.5,109.3L87.5,109.3z M72.7,74.3L72.7,74.3l0.2,0
		C72.9,74.3,72.8,74.3,72.7,74.3L72.7,74.3z"/>
	<path fill-rule="evenodd" clip-rule="evenodd" fill="#647883" d="M95.1,77.4v29.1h0c0,0,0-0.7,0,0.1c0,0.8,1.2,2.8,2.8,2.8l-2.8,0
		v0h-5.7c-1.7,0-3-1.4-3-3V77.2h0c0,0,0,0.7,0-0.1c0-0.8-1.2-2.8-2.8-2.8h2.8h0H92C93.7,74.3,95.1,75.7,95.1,77.4L95.1,77.4z
		 M98.1,109.3L98.1,109.3l-0.2,0C97.9,109.3,98,109.3,98.1,109.3L98.1,109.3z M83.3,74.3L83.3,74.3l0.2,0
		C83.5,74.3,83.4,74.3,83.3,74.3L83.3,74.3z"/>
	<path fill-rule="evenodd" clip-rule="evenodd" fill="#647883" d="M105.6,77.4v29.1h0c0,0,0-0.7,0,0.1c0,0.8,1.2,2.8,2.8,2.8l-2.8,0
		v0H100c-1.7,0-3-1.4-3-3V77.2h0c0,0,0,0.7,0-0.1c0-0.8-1.2-2.8-2.8-2.8h2.8h0h5.7C104.3,74.3,105.6,75.7,105.6,77.4L105.6,77.4z
		 M108.7,109.3L108.7,109.3l-0.2,0C108.5,109.3,108.6,109.3,108.7,109.3L108.7,109.3z M93.9,74.3L93.9,74.3l0.2,0
		C94.1,74.3,94,74.3,93.9,74.3L93.9,74.3z"/>
	<path fill-rule="evenodd" clip-rule="evenodd" fill="#F47D3B" d="M47.9,40.1v29.1h0c0,0,0-0.7,0,0.1c0,0.8,1.2,2.8,2.8,2.8h-2.8
		l0,0h-5.7c-1.7,0-3-1.4-3-3V39.9h0c0,0,0,0.7,0-0.1c0-0.8-1.2-2.8-2.8-2.8h2.8l0,0h5.7C46.5,37,47.9,38.4,47.9,40.1L47.9,40.1z
		 M50.9,72L50.9,72l-0.2,0C50.8,72,50.8,72,50.9,72L50.9,72z M36.2,37L36.2,37l0.2,0C36.3,37,36.2,37,36.2,37L36.2,37z"/>
	<path fill-rule="evenodd" clip-rule="evenodd" fill="#F47D3B" d="M58.5,40.1v29.1h0c0,0,0-0.7,0,0.1c0,0.8,1.2,2.8,2.8,2.8h-2.8
		l0,0h-5.7c-1.7,0-3-1.4-3-3V39.9h0c0,0,0,0.7,0-0.1c0-0.8-1.2-2.8-2.8-2.8h2.8h0h5.7C57.2,37,58.5,38.4,58.5,40.1L58.5,40.1z
		 M61.6,72L61.6,72l-0.2,0C61.4,72,61.5,72,61.6,72L61.6,72z M46.8,37L46.8,37l0.2,0C47,37,46.9,37,46.8,37L46.8,37z"/>
	<path fill-rule="evenodd" clip-rule="evenodd" fill="#F47D3B" d="M69.1,40.1v29.1h0c0,0,0-0.7,0,0.1c0,0.8,1.2,2.8,2.8,2.8h-2.8
		l0,0h-5.7c-1.7,0-3-1.4-3-3V39.9h0c0,0,0,0.7,0-0.1c0-0.8-1.2-2.8-2.8-2.8h2.8h0h5.7C67.7,37,69.1,38.4,69.1,40.1L69.1,40.1z
		 M72.1,72L72.1,72l-0.2,0C72,72,72,72,72.1,72L72.1,72z M57.4,37L57.4,37l0.2,0C57.5,37,57.4,37,57.4,37L57.4,37z"/>
	<path fill="#00ACBB" d="M135.7,8.7c4.6,0,7.7,1,9.2,3c0.1,0.4,0.2,0.7,0.2,0.9c0,0.7-0.8,1.1-2.4,1.4c-0.3,0.1-0.9,0.2-1.8,0.2
		l-7-0.2c-2.1,0-4.5,1.2-7.2,3.5c-0.6,0.7-1.2,1.5-1.9,2.6c0.9,1.3,2.3,2.3,4.1,2.9c3,1,7.8,2.5,14.4,4.5c8.2,2.5,12.2,5.5,12.2,8.9
		v0.6c0,4.4-5.7,8.1-17.1,10.9c-3.2,0.7-6,1-8.4,1c-5.5,0-9-1.2-10.3-3.6c-0.4-0.8-0.5-1.5-0.5-2.3c0-2.4,1.3-4.3,3.9-5.9
		c0.9-0.5,1.9-0.7,2.7-0.7c0.2,0.5,0.3,1,0.3,1.6l-0.5,4.4c2.2,0.6,4.4,0.9,6.5,0.9c5.5,0,10.5-1.4,15-4.2c0.8-0.6,1.4-1.2,2-1.9
		c-1.5-1.7-3-2.8-4.6-3.5c-2.2-1.1-7.5-2.7-15.8-4.9c-7-2.3-10.5-5-10.5-8.2v-0.6c0-3.2,2.7-6.3,8.1-9.3c2.7-1.5,5.5-2.2,8.5-2.2
		H135.7L135.7,8.7z M165.8,24.3c3,0,5.5,2,7.4,5.9c0.3,1.2,0.5,2.2,0.5,2.9c0,2.9-2.2,5.2-6.7,7v0.1c1.2,2,2.8,3,4.7,3
		c2.6,0,5.4-2.1,8.4-6.3c1.8-2,3.2-3.1,4.2-3.1h0.2l0.2,0.2v0.9l-0.1,0.3c0,0.1,0.1,0.2,0.3,0.3c0.4,0,0.6-0.3,0.8-0.9h0.2v0.1
		c0,1-0.9,2.6-2.6,4.9c-0.3,0.5-0.5,1.1-0.6,1.7c-0.8,0.2-1.2,0.5-1.2,1c-1.6,2.7-4,4.6-7.2,5.7c-1,0.2-1.9,0.3-2.5,0.3h-0.9
		c-4.3,0-8.5-3.1-12.6-9.2l-0.4-7v-0.7c0-2.9,0.9-4.7,2.8-5.4C162.5,24.8,164.3,24.3,165.8,24.3L165.8,24.3z M163.1,32.8
		c0,1.7,0.5,2.9,1.5,3.6c0.7,0,1.7-0.5,3-1.5c0.2-0.7,0.3-1.3,0.3-1.7c0-1.7-0.8-3-2.3-3.6l-0.7-0.1c-0.9,0-1.3,0.3-1.3,0.8
		C163.3,30.9,163.1,31.7,163.1,32.8L163.1,32.8z M200.6,24.4c1.8,0,2.7,0.4,2.7,1.2c0.2,0.9,0.5,1.5,0.9,1.9v0.2
		c-5.1,2.6-8.9,6.8-11.2,12.6c-1.1,3.1-1.6,5.6-1.6,7.6c-1.7,0.8-2.9,1.2-3.4,1.2c0-0.7-0.7-1.3-2.2-2c0-1-0.8-4.9-2.4-11.8
		c-0.4-1.4-0.5-2.9-0.5-4.4v-1.2c0.3-1,1.1-1.5,2.6-1.7h0.2c1.8,0,2.9,1.2,3.3,3.7l-0.1,1.4c1.3-1.2,3.3-3.2,5.7-6
		c2.1-1.9,4-2.9,5.8-2.9H200.6L200.6,24.4z M222,25.8c0.9,0,1.7,0.6,2.4,1.8c-0.5,1.2-0.7,2-0.7,2.3l0.2,0.8
		c-1.2,1-2.6,4.8-4.2,11.4c-1.4,4.4-3.2,6.7-5.3,6.7c-1.8,0-4-2.4-6.4-7.2c-3.1-4.7-4.7-7.6-4.7-8.8v-0.7c0-1.8,1.5-2.7,4.6-2.7
		l4.7,8.6l0.8,1.1c1.7-1.2,3.2-4.2,4.5-9.2c1-2.7,1.8-4.1,2.4-4.1l0.9-0.1H222L222,25.8z M238.3,30.1c1.1,0,1.9,0.5,2.5,1.4
		c0.5,5.3,1.3,9.7,2.5,13.1c0.8,0.9,1.2,1.9,1.2,2.8v0.7c0,0.5-0.2,0.9-0.5,1.1h-1.1c-2.2,0-4-2.1-5.4-6.2l-0.6-0.9
		c-2.6,2.9-4.5,4.7-5.6,5.4l-1-0.2c-0.2,0-1,0.3-2.3,0.8l-0.4,0.1c-1.2,0-2-1.4-2.3-4.1l-0.1-1.3V42c0-4.2,0.9-7.7,2.7-10.5
		c0.7-0.8,1.3-1.2,2-1.2c0.8,0,1.7,0.6,2.5,1.7c0,0.9-0.5,2.9-1.5,6.1c-0.2,0.6-0.3,1.4-0.3,2.4v0.3c1.4-0.7,2.5-2.4,3.6-5.2
		c1.4-3.6,2.4-5.4,2.9-5.4L238.3,30.1L238.3,30.1z M258,26c2.1,0,3.3,0.5,3.5,1.6c0.4,1,0.6,1.6,0.6,1.9c-0.4,0.7-1.3,1.1-2.7,1.5
		c-4.2,0.7-6.3,1.2-6.3,1.7c0.6,1,2.2,1.9,4.7,2.6c4.4,1,7.5,2,9.5,2.9c1.8,1.1,2.7,2.6,2.7,4.4c0,3-2.6,5-7.9,6
		c-1.5,0.3-3,0.4-4.4,0.4c-5.4-0.4-8-1-8-1.9c-0.6-0.6-0.8-1.3-0.8-2.1v-0.4c0-1.1,0.6-2.1,1.8-3c3,1.4,5.5,2.2,7.6,2.2
		c1.7,0,3-0.5,4.1-1.5v-0.1c-1.5-0.9-4.5-1.8-9-2.9c-4.4-1.3-6.6-2.9-6.6-4.8v-0.3c0-3,1.8-5.2,5.5-6.9c1.9-0.9,3.5-1.3,5-1.3H258
		L258,26z M279.4,5.6v4.2c0,2.7-0.4,10.2-1.1,22.5c-0.1,4.8-0.4,7.2-0.9,7.2c-0.7,0.7-1.5,1.1-2.3,1.3h-0.5
		c-1.4-0.3-2.1-1.5-2.1-3.6v-1.4c0-1.2,0.4-5.6,1.2-13.1c0.3-4.4,0.5-7.7,0.5-9.9v-2L274,6.1c0.9-0.9,1.8-1.5,2.6-1.6l1.1-0.3
		L279.4,5.6L279.4,5.6z M275,46.1c1,0,1.8,0.4,2.2,1.2c0.2,0.4,0.2,0.7,0.2,1c0,1.4-1,2.3-3.1,2.8h-1.1c-0.7-0.6-1.1-1.2-1.1-2v-0.5
		c0-1.4,0.5-2.1,1.5-2.2L275,46.1L275,46.1z"/>
	<path fill="#647883" d="M125.8,82c0.2,0.3,0.3,0.7,0.4,1c0.1,0.4,0.2,0.7,0.2,1.1c-0.6,0.2-1.2,0.4-1.7,0.4c-0.5,0.1-1,0.1-1.6,0.1
		c-1,0-1.9-0.2-2.7-0.5s-1.4-0.8-1.9-1.4c-0.5-0.6-0.9-1.3-1.2-2.1c-0.3-0.8-0.4-1.7-0.4-2.7s0.1-1.8,0.4-2.7
		c0.3-0.8,0.7-1.5,1.2-2.1c0.5-0.6,1.2-1.1,1.9-1.4c0.8-0.3,1.6-0.5,2.6-0.5c0.6,0,1.1,0,1.6,0.1c0.5,0.1,1,0.2,1.6,0.4
		c0,0.4-0.1,0.7-0.2,1c-0.1,0.3-0.3,0.7-0.4,1c-0.4-0.1-0.8-0.2-1.1-0.3c-0.3-0.1-0.7-0.1-1.1-0.1c-1.1,0-2,0.4-2.6,1.1
		c-0.6,0.7-0.9,1.9-0.9,3.3c0,2.9,1.2,4.4,3.7,4.4c0.4,0,0.8,0,1.2-0.1C125,82.2,125.4,82.1,125.8,82L125.8,82z M128.4,71.5
		c0.4-0.1,0.9-0.1,1.3-0.1c0.4,0,0.9,0,1.3,0.1v10.6h4.5c0,0.2,0.1,0.4,0.1,0.6c0,0.2,0,0.4,0,0.5c0,0.2,0,0.4,0,0.6
		c0,0.2,0,0.4-0.1,0.6h-7.1V71.5L128.4,71.5z M137.2,71.5c0.2,0,0.4-0.1,0.7-0.1c0.2,0,0.4,0,0.7,0c0.2,0,0.4,0,0.6,0
		c0.2,0,0.4,0,0.7,0.1v6.7c0,0.7,0,1.4,0.1,1.9c0.1,0.5,0.2,1,0.3,1.3c0.2,0.3,0.4,0.6,0.7,0.8c0.3,0.2,0.7,0.2,1.1,0.2
		c0.5,0,0.8-0.1,1.1-0.2c0.3-0.2,0.5-0.4,0.7-0.8c0.2-0.3,0.3-0.8,0.3-1.3c0.1-0.5,0.1-1.1,0.1-1.9v-6.7c0.2,0,0.5-0.1,0.7-0.1
		c0.2,0,0.4,0,0.6,0c0.2,0,0.4,0,0.7,0c0.2,0,0.4,0,0.7,0.1v7.2c0,0.9-0.1,1.7-0.2,2.4c-0.1,0.7-0.4,1.3-0.8,1.9
		c-0.4,0.5-0.9,0.9-1.5,1.2c-0.6,0.3-1.4,0.4-2.4,0.4c-1,0-1.7-0.1-2.4-0.4c-0.6-0.3-1.1-0.7-1.5-1.2c-0.4-0.5-0.6-1.1-0.8-1.9
		c-0.1-0.7-0.2-1.5-0.2-2.4V71.5L137.2,71.5z M151.6,73.8h-2.1c0-0.2-0.1-0.3-0.1-0.5c0-0.2,0-0.4,0-0.6c0-0.4,0-0.7,0.1-1.1h4.8V81
		c0,0.7-0.1,1.2-0.3,1.7c-0.2,0.5-0.5,0.8-0.9,1.1c-0.4,0.3-0.8,0.5-1.3,0.6c-0.5,0.1-1,0.2-1.6,0.2c-0.2,0-0.5,0-0.8-0.1
		c-0.3,0-0.6-0.1-0.9-0.2c0-0.1,0-0.2,0-0.3c0-0.1,0-0.2,0-0.3c0-0.6,0.1-1.1,0.3-1.7c0.1,0,0.3,0.1,0.4,0.1c0.2,0,0.3,0.1,0.5,0.1
		c0.2,0,0.4,0,0.6,0c0.2,0,0.4-0.1,0.6-0.2c0.2-0.1,0.3-0.3,0.5-0.5c0.1-0.2,0.2-0.6,0.2-1V73.8L151.6,73.8z M161,78.4
		c0.1,0.4,0.1,0.7,0.1,1.1c0,0.4,0,0.8-0.1,1.1h-4.6c-0.1-0.4-0.1-0.7-0.1-1.1c0-0.4,0-0.8,0.1-1.1H161L161,78.4z M163.3,71.5
		c0.4-0.1,0.7-0.1,1.1-0.1c0.4,0,0.7,0,1.1,0.1l5,8.2v-8.2c0.4-0.1,0.8-0.1,1.2-0.1c0.4,0,0.7,0,1.1,0.1v12.9
		c-0.4,0.1-0.7,0.1-1,0.1c-0.3,0-0.7,0-1.1-0.1l-5-8.2v8.2c-0.4,0.1-0.8,0.1-1.2,0.1c-0.4,0-0.8,0-1.1-0.1V71.5L163.3,71.5z
		 M178.3,71.5c0.3,0,0.5-0.1,0.7-0.1c0.2,0,0.5,0,0.8,0c0.2,0,0.5,0,0.7,0c0.2,0,0.5,0,0.8,0.1l4,12.9c-0.5,0.1-1,0.1-1.4,0.1
		c-0.5,0-0.9,0-1.3-0.1l-0.7-2.6h-4.3l-0.7,2.6c-0.4,0.1-0.8,0.1-1.2,0.1c-0.4,0-0.9,0-1.3-0.1L178.3,71.5L178.3,71.5z M181.1,79.7
		l-1.5-5.4l-1.6,5.4H181.1L181.1,79.7z M186.7,71.5c0.6,0,1.1-0.1,1.7-0.1c0.6,0,1.1,0,1.7,0c0.6,0,1.2,0.1,1.8,0.2
		c0.6,0.1,1.2,0.3,1.7,0.7c0.5,0.3,0.9,0.8,1.2,1.4c0.3,0.6,0.5,1.3,0.5,2.3c0,0.9-0.2,1.7-0.5,2.3c-0.3,0.6-0.7,1-1.2,1.4
		c-0.5,0.3-1,0.6-1.6,0.7c-0.6,0.1-1.2,0.2-1.8,0.2c-0.2,0-0.3,0-0.4,0c-0.1,0-0.3,0-0.4,0v4.1c-0.2,0-0.4,0.1-0.7,0.1
		c-0.2,0-0.4,0-0.6,0c-0.2,0-0.4,0-0.6,0c-0.2,0-0.5,0-0.7-0.1V71.5L186.7,71.5z M189.3,78.1c0.1,0,0.3,0,0.4,0c0.1,0,0.3,0,0.5,0
		c0.3,0,0.6,0,0.9-0.1c0.3-0.1,0.5-0.2,0.8-0.4c0.2-0.2,0.4-0.4,0.5-0.7c0.1-0.3,0.2-0.7,0.2-1.1c0-0.4-0.1-0.8-0.2-1.1
		c-0.1-0.3-0.3-0.6-0.5-0.7c-0.2-0.2-0.5-0.3-0.8-0.4c-0.3-0.1-0.6-0.1-0.9-0.1c-0.1,0-0.3,0-0.4,0c-0.1,0-0.3,0-0.5,0V78.1
		L189.3,78.1z M202.4,84.6c-1,0-1.8-0.2-2.5-0.5c-0.7-0.3-1.3-0.8-1.7-1.4c-0.5-0.6-0.8-1.3-1-2.1c-0.2-0.8-0.3-1.7-0.3-2.6
		s0.1-1.8,0.3-2.7c0.2-0.8,0.6-1.5,1-2.1c0.5-0.6,1-1.1,1.7-1.4c0.7-0.3,1.5-0.5,2.5-0.5c1,0,1.8,0.2,2.5,0.5
		c0.7,0.3,1.3,0.8,1.7,1.4c0.5,0.6,0.8,1.3,1,2.1c0.2,0.8,0.3,1.7,0.3,2.7s-0.1,1.8-0.3,2.6c-0.2,0.8-0.6,1.5-1,2.1
		c-0.5,0.6-1,1.1-1.7,1.4C204.2,84.5,203.4,84.6,202.4,84.6L202.4,84.6z M202.4,82.5c1.9,0,2.8-1.5,2.8-4.4c0-1.5-0.2-2.6-0.7-3.3
		c-0.4-0.7-1.1-1.1-2.1-1.1c-1.9,0-2.8,1.5-2.8,4.4C199.6,81,200.5,82.5,202.4,82.5L202.4,82.5z M218.7,82c0.2,0.3,0.3,0.7,0.4,1
		c0.1,0.4,0.2,0.7,0.2,1.1c-0.6,0.2-1.2,0.4-1.7,0.4c-0.5,0.1-1,0.1-1.6,0.1c-1,0-1.9-0.2-2.7-0.5c-0.8-0.3-1.4-0.8-1.9-1.4
		c-0.5-0.6-0.9-1.3-1.2-2.1c-0.3-0.8-0.4-1.7-0.4-2.7s0.1-1.8,0.4-2.7c0.3-0.8,0.7-1.5,1.2-2.1c0.5-0.6,1.2-1.1,1.9-1.4
		c0.8-0.3,1.6-0.5,2.6-0.5c0.6,0,1.1,0,1.6,0.1c0.5,0.1,1,0.2,1.6,0.4c0,0.4-0.1,0.7-0.2,1c-0.1,0.3-0.3,0.7-0.4,1
		c-0.4-0.1-0.8-0.2-1.1-0.3c-0.3-0.1-0.7-0.1-1.1-0.1c-1.1,0-2,0.4-2.6,1.1c-0.6,0.7-0.9,1.9-0.9,3.3c0,2.9,1.2,4.4,3.7,4.4
		c0.4,0,0.8,0,1.2-0.1C217.9,82.2,218.3,82.1,218.7,82L218.7,82z M224.3,71.5c0.3,0,0.5-0.1,0.7-0.1c0.2,0,0.5,0,0.8,0
		c0.2,0,0.5,0,0.7,0s0.5,0,0.8,0.1l4,12.9c-0.5,0.1-1,0.1-1.4,0.1c-0.5,0-0.9,0-1.3-0.1l-0.7-2.6h-4.3l-0.7,2.6
		c-0.4,0.1-0.8,0.1-1.2,0.1c-0.4,0-0.9,0-1.3-0.1L224.3,71.5L224.3,71.5z M227.1,79.7l-1.5-5.4l-1.6,5.4H227.1L227.1,79.7z"/>
	<path fill="#647883" d="M121.3,95.3c0.1,0.2,0.2,0.5,0.2,0.7c-0.2,0.1-0.5,0.2-0.7,0.2c-0.2,0-0.5,0.1-0.8,0.1
		c-0.4,0-0.8-0.1-1.2-0.2c-0.3-0.1-0.6-0.3-0.9-0.6c-0.2-0.3-0.4-0.6-0.5-1c-0.1-0.4-0.2-0.8-0.2-1.3c0-0.5,0.1-0.9,0.2-1.3
		c0.1-0.4,0.3-0.7,0.5-1c0.2-0.3,0.5-0.5,0.9-0.6c0.3-0.1,0.7-0.2,1.1-0.2c0.3,0,0.6,0,0.8,0.1c0.2,0,0.4,0.1,0.6,0.2
		c0,0.1,0,0.2-0.1,0.4c0,0.1-0.1,0.2-0.1,0.3c-0.1,0-0.2-0.1-0.2-0.1c-0.1,0-0.2,0-0.2-0.1c-0.1,0-0.2,0-0.3,0c-0.1,0-0.2,0-0.4,0
		c-0.6,0-1.1,0.2-1.4,0.6c-0.3,0.4-0.5,1-0.5,1.8c0,0.4,0,0.7,0.1,1c0.1,0.3,0.2,0.5,0.4,0.7c0.2,0.2,0.4,0.3,0.6,0.4
		c0.2,0.1,0.5,0.1,0.8,0.1c0.2,0,0.4,0,0.6-0.1C120.9,95.4,121.1,95.3,121.3,95.3L121.3,95.3z M126.9,94.7h-2.3l-0.4,1.4
		c-0.1,0-0.1,0-0.2,0c-0.1,0-0.1,0-0.2,0c-0.1,0-0.2,0-0.2,0c-0.1,0-0.1,0-0.2,0l1.9-5.9c0.1,0,0.1,0,0.2,0c0.1,0,0.2,0,0.3,0
		c0.1,0,0.2,0,0.2,0s0.2,0,0.2,0l1.9,5.9c-0.1,0-0.1,0-0.2,0c-0.1,0-0.2,0-0.2,0c-0.1,0-0.1,0-0.2,0c-0.1,0-0.1,0-0.2,0L126.9,94.7
		L126.9,94.7z M124.9,94h1.8l-0.9-3L124.9,94L124.9,94z M130.4,90.2c0.1,0,0.2,0,0.3,0c0.1,0,0.2,0,0.4,0c0.1,0,0.2,0,0.4,0
		c0.1,0,0.2,0,0.4,0c0.3,0,0.6,0,0.9,0.1c0.3,0.1,0.5,0.2,0.7,0.3c0.2,0.1,0.4,0.3,0.5,0.6c0.1,0.2,0.2,0.6,0.2,0.9
		c0,0.4-0.1,0.7-0.2,1c-0.1,0.3-0.3,0.5-0.5,0.6c-0.2,0.2-0.5,0.3-0.7,0.3c-0.3,0.1-0.5,0.1-0.8,0.1c-0.1,0-0.2,0-0.3,0
		c-0.1,0-0.2,0-0.3,0v2.1c-0.1,0-0.3,0-0.4,0c-0.1,0-0.1,0-0.2,0c-0.1,0-0.1,0-0.2,0V90.2L130.4,90.2z M131.3,93.2
		c0.1,0,0.2,0,0.2,0c0.1,0,0.2,0,0.3,0c0.2,0,0.3,0,0.5-0.1c0.2,0,0.3-0.1,0.4-0.2c0.1-0.1,0.2-0.2,0.3-0.4c0.1-0.2,0.1-0.4,0.1-0.6
		c0-0.2,0-0.4-0.1-0.6c-0.1-0.2-0.2-0.3-0.3-0.4c-0.1-0.1-0.3-0.2-0.4-0.2c-0.2,0-0.4-0.1-0.6-0.1c-0.2,0-0.4,0-0.5,0V93.2
		L131.3,93.2z M136.5,90.2c0.1,0,0.1,0,0.2,0c0.1,0,0.1,0,0.2,0c0.1,0,0.1,0,0.2,0s0.1,0,0.2,0v5.9c-0.1,0-0.1,0-0.2,0
		c-0.1,0-0.1,0-0.2,0c-0.1,0-0.1,0-0.2,0c-0.1,0-0.1,0-0.2,0V90.2L136.5,90.2z M141.1,90.9h-1.5c0-0.1,0-0.1,0-0.2
		c0-0.1,0-0.1,0-0.2c0-0.1,0-0.1,0-0.2c0-0.1,0-0.1,0-0.2h3.9c0,0.1,0,0.1,0,0.2c0,0.1,0,0.1,0,0.2c0,0.1,0,0.1,0,0.2
		c0,0.1,0,0.1,0,0.2H142v5.2c-0.1,0-0.3,0-0.4,0c-0.2,0-0.3,0-0.4,0V90.9L141.1,90.9z M148.8,94.7h-2.3l-0.4,1.4c-0.1,0-0.1,0-0.2,0
		c-0.1,0-0.1,0-0.2,0c-0.1,0-0.2,0-0.2,0c-0.1,0-0.1,0-0.2,0l1.9-5.9c0.1,0,0.1,0,0.2,0s0.2,0,0.3,0c0.1,0,0.2,0,0.2,0
		c0.1,0,0.2,0,0.2,0l1.9,5.9c-0.1,0-0.1,0-0.2,0c-0.1,0-0.2,0-0.2,0c-0.1,0-0.1,0-0.2,0c-0.1,0-0.1,0-0.2,0L148.8,94.7L148.8,94.7z
		 M146.7,94h1.8l-0.9-3L146.7,94L146.7,94z M152.3,90.2c0.1,0,0.1,0,0.2,0c0.1,0,0.1,0,0.2,0c0.1,0,0.1,0,0.2,0c0.1,0,0.1,0,0.2,0
		v5.2h2.3c0,0.1,0,0.1,0,0.2c0,0.1,0,0.1,0,0.2c0,0.1,0,0.3,0,0.4h-3.2V90.2L152.3,90.2z M160.7,94.7h-2.3l-0.4,1.4
		c-0.1,0-0.1,0-0.2,0c-0.1,0-0.1,0-0.2,0c-0.1,0-0.2,0-0.2,0c-0.1,0-0.1,0-0.2,0l1.9-5.9c0.1,0,0.1,0,0.2,0c0.1,0,0.2,0,0.3,0
		c0.1,0,0.2,0,0.2,0c0.1,0,0.2,0,0.2,0l1.9,5.9c-0.1,0-0.1,0-0.2,0c-0.1,0-0.2,0-0.2,0c-0.1,0-0.1,0-0.2,0c-0.1,0-0.1,0-0.2,0
		L160.7,94.7L160.7,94.7z M158.6,94h1.8l-0.9-3L158.6,94L158.6,94z M159.6,89.7c-0.1,0-0.3,0-0.4,0c-0.2,0-0.3-0.1-0.4-0.1
		c-0.1-0.1-0.3-0.2-0.4-0.3c-0.1-0.1-0.2-0.3-0.2-0.5c0.1,0,0.1,0,0.2,0c0.1,0,0.1,0,0.2,0c0.1,0,0.1,0,0.2,0c0.1,0,0.1,0,0.2,0
		c0,0.1,0.1,0.2,0.2,0.3c0.1,0.1,0.3,0.1,0.5,0.1c0.2,0,0.4,0,0.5-0.1c0.1-0.1,0.1-0.2,0.2-0.3c0.1,0,0.3,0,0.4,0c0.1,0,0.1,0,0.2,0
		c0.1,0,0.1,0,0.2,0c0,0.2-0.1,0.4-0.2,0.5c-0.1,0.1-0.2,0.2-0.4,0.3c-0.1,0.1-0.3,0.1-0.4,0.1C159.8,89.7,159.7,89.7,159.6,89.7
		L159.6,89.7z M166.7,90.2h3.3c0,0.1,0,0.2,0,0.4c0,0.1,0,0.1,0,0.2c0,0.1,0,0.1,0,0.2h-2.4v1.7h1.9c0,0.1,0,0.1,0,0.2
		c0,0.1,0,0.1,0,0.2c0,0.1,0,0.1,0,0.2c0,0.1,0,0.1,0,0.2h-1.9v2h2.5c0,0.1,0,0.2,0,0.4c0,0.1,0,0.1,0,0.2c0,0.1,0,0.1,0,0.2h-3.3
		V90.2L166.7,90.2z M172.5,90.2c0.1,0,0.3,0,0.4,0c0.1,0,0.3,0,0.4,0v3.4c0,0.3,0,0.6,0.1,0.9c0,0.2,0.1,0.4,0.2,0.6
		c0.1,0.2,0.2,0.3,0.4,0.3c0.2,0.1,0.4,0.1,0.6,0.1c0.2,0,0.4,0,0.6-0.1c0.2-0.1,0.3-0.2,0.4-0.3c0.1-0.2,0.2-0.3,0.2-0.6
		c0-0.2,0.1-0.5,0.1-0.9v-3.4c0.1,0,0.3,0,0.4,0c0.2,0,0.3,0,0.4,0v3.5c0,0.4,0,0.8-0.1,1.1c-0.1,0.3-0.2,0.6-0.4,0.8
		c-0.2,0.2-0.4,0.4-0.7,0.5c-0.3,0.1-0.6,0.2-1,0.2c-0.4,0-0.7-0.1-1-0.2c-0.3-0.1-0.5-0.3-0.7-0.5c-0.2-0.2-0.3-0.5-0.4-0.8
		c-0.1-0.3-0.1-0.7-0.1-1.1V90.2L172.5,90.2z M179.5,90.2c0.1,0,0.2,0,0.3,0c0.1,0,0.2,0,0.3,0c0.1,0,0.2,0,0.3,0c0.1,0,0.2,0,0.3,0
		c0.3,0,0.6,0,0.8,0.1c0.3,0.1,0.5,0.2,0.7,0.3c0.2,0.1,0.4,0.3,0.5,0.6c0.1,0.2,0.2,0.5,0.2,0.9c0,0.2,0,0.4-0.1,0.6
		c-0.1,0.2-0.2,0.3-0.3,0.5c-0.1,0.1-0.2,0.3-0.4,0.4c-0.1,0.1-0.3,0.2-0.4,0.3l-0.1,0l1.7,2.5c-0.1,0-0.3,0-0.5,0
		c-0.1,0-0.3,0-0.4,0l-1.9-2.7v0l0.1,0c0.1,0,0.3-0.1,0.5-0.2c0.2-0.1,0.3-0.2,0.5-0.3c0.1-0.1,0.3-0.2,0.4-0.4
		c0.1-0.2,0.1-0.3,0.1-0.5c0-0.4-0.1-0.7-0.4-0.9c-0.2-0.2-0.5-0.3-0.9-0.3c-0.1,0-0.2,0-0.3,0c-0.1,0-0.2,0-0.3,0v5.3
		c-0.1,0-0.1,0-0.2,0c-0.1,0-0.1,0-0.2,0c-0.1,0-0.1,0-0.2,0c-0.1,0-0.1,0-0.2,0V90.2L179.5,90.2z M188,96.2c-0.4,0-0.8-0.1-1.1-0.2
		c-0.3-0.2-0.6-0.4-0.8-0.6c-0.2-0.3-0.4-0.6-0.5-1c-0.1-0.4-0.2-0.8-0.2-1.2c0-0.4,0.1-0.9,0.2-1.2c0.1-0.4,0.3-0.7,0.5-1
		c0.2-0.3,0.5-0.5,0.8-0.6c0.3-0.2,0.7-0.2,1.1-0.2c0.4,0,0.8,0.1,1.1,0.2s0.6,0.4,0.8,0.6c0.2,0.3,0.4,0.6,0.5,1
		c0.1,0.4,0.1,0.8,0.1,1.2c0,0.4,0,0.9-0.1,1.2c-0.1,0.4-0.3,0.7-0.5,1c-0.2,0.3-0.5,0.5-0.8,0.6C188.8,96.1,188.5,96.2,188,96.2
		L188,96.2z M188,95.5c0.3,0,0.5-0.1,0.7-0.2c0.2-0.1,0.4-0.3,0.5-0.5c0.1-0.2,0.2-0.4,0.3-0.7c0.1-0.3,0.1-0.6,0.1-1
		c0-0.4,0-0.7-0.1-1c-0.1-0.3-0.2-0.5-0.3-0.7c-0.1-0.2-0.3-0.4-0.5-0.5c-0.2-0.1-0.4-0.2-0.7-0.2c-0.3,0-0.5,0.1-0.7,0.2
		c-0.2,0.1-0.4,0.3-0.5,0.5c-0.1,0.2-0.2,0.4-0.3,0.7c-0.1,0.3-0.1,0.6-0.1,1c0,0.4,0,0.7,0.1,1c0.1,0.3,0.2,0.5,0.3,0.7
		c0.1,0.2,0.3,0.4,0.5,0.5C187.5,95.4,187.8,95.5,188,95.5L188,95.5z M193.1,90.2c0.1,0,0.2,0,0.3,0c0.1,0,0.2,0,0.4,0
		c0.1,0,0.2,0,0.4,0c0.1,0,0.2,0,0.4,0c0.3,0,0.6,0,0.9,0.1c0.3,0.1,0.5,0.2,0.7,0.3c0.2,0.1,0.4,0.3,0.5,0.6
		c0.1,0.2,0.2,0.6,0.2,0.9c0,0.4-0.1,0.7-0.2,1c-0.1,0.3-0.3,0.5-0.5,0.6c-0.2,0.2-0.5,0.3-0.7,0.3c-0.3,0.1-0.5,0.1-0.8,0.1
		c-0.1,0-0.2,0-0.3,0c-0.1,0-0.2,0-0.3,0v2.1c-0.1,0-0.3,0-0.4,0c-0.1,0-0.1,0-0.2,0c-0.1,0-0.1,0-0.2,0V90.2L193.1,90.2z M194,93.2
		c0.1,0,0.2,0,0.2,0c0.1,0,0.2,0,0.3,0c0.2,0,0.3,0,0.5-0.1c0.2,0,0.3-0.1,0.4-0.2c0.1-0.1,0.2-0.2,0.3-0.4c0.1-0.2,0.1-0.4,0.1-0.6
		c0-0.2,0-0.4-0.1-0.6c-0.1-0.2-0.2-0.3-0.3-0.4c-0.1-0.1-0.3-0.2-0.4-0.2c-0.2,0-0.4-0.1-0.6-0.1c-0.2,0-0.4,0-0.5,0V93.2L194,93.2
		z M199.2,90.2h3.3c0,0.1,0,0.2,0,0.4c0,0.1,0,0.1,0,0.2c0,0.1,0,0.1,0,0.2H200v1.7h1.9c0,0.1,0,0.1,0,0.2c0,0.1,0,0.1,0,0.2
		c0,0.1,0,0.1,0,0.2c0,0.1,0,0.1,0,0.2H200v2h2.5c0,0.1,0,0.2,0,0.4c0,0.1,0,0.1,0,0.2c0,0.1,0,0.1,0,0.2h-3.3V90.2L199.2,90.2z
		 M207.9,94.7h-2.3l-0.4,1.4c-0.1,0-0.1,0-0.2,0c-0.1,0-0.1,0-0.2,0c-0.1,0-0.2,0-0.2,0c-0.1,0-0.1,0-0.2,0l1.9-5.9
		c0.1,0,0.1,0,0.2,0c0.1,0,0.2,0,0.3,0c0.1,0,0.2,0,0.2,0c0.1,0,0.2,0,0.2,0l1.9,5.9c-0.1,0-0.1,0-0.2,0c-0.1,0-0.2,0-0.2,0
		c-0.1,0-0.1,0-0.2,0c-0.1,0-0.1,0-0.2,0L207.9,94.7L207.9,94.7z M205.9,94h1.8l-0.9-3L205.9,94L205.9,94z M211.4,90.2
		c0.1,0,0.1,0,0.2,0c0.1,0,0.1,0,0.2,0c0.1,0,0.1,0,0.2,0c0.1,0,0.1,0,0.2,0l2.6,4.5v-4.5c0.1,0,0.1,0,0.2,0c0.1,0,0.1,0,0.2,0
		c0.1,0,0.1,0,0.2,0c0.1,0,0.1,0,0.2,0v5.9c-0.1,0-0.1,0-0.2,0c-0.1,0-0.1,0-0.2,0c-0.1,0-0.1,0-0.2,0c-0.1,0-0.1,0-0.2,0l-2.6-4.4
		v4.4c-0.1,0-0.1,0-0.2,0c-0.1,0-0.1,0-0.2,0c-0.1,0-0.1,0-0.2,0c-0.1,0-0.1,0-0.2,0V90.2L211.4,90.2z M221.3,94.7h-2.3l-0.4,1.4
		c-0.1,0-0.1,0-0.2,0c-0.1,0-0.1,0-0.2,0c-0.1,0-0.2,0-0.2,0c-0.1,0-0.1,0-0.2,0l1.9-5.9c0.1,0,0.1,0,0.2,0c0.1,0,0.2,0,0.3,0
		c0.1,0,0.2,0,0.2,0s0.2,0,0.2,0l1.9,5.9c-0.1,0-0.1,0-0.2,0c-0.1,0-0.2,0-0.2,0c-0.1,0-0.1,0-0.2,0c-0.1,0-0.1,0-0.2,0L221.3,94.7
		L221.3,94.7z M219.3,94h1.8l-0.9-3L219.3,94L219.3,94z M220.2,89.7c-0.1,0-0.3,0-0.4,0c-0.2,0-0.3-0.1-0.4-0.1
		c-0.1-0.1-0.3-0.2-0.4-0.3c-0.1-0.1-0.2-0.3-0.2-0.5c0.1,0,0.1,0,0.2,0c0.1,0,0.1,0,0.2,0c0.1,0,0.1,0,0.2,0c0.1,0,0.1,0,0.2,0
		c0,0.1,0.1,0.2,0.2,0.3c0.1,0.1,0.3,0.1,0.5,0.1c0.2,0,0.4,0,0.5-0.1c0.1-0.1,0.1-0.2,0.2-0.3c0.1,0,0.3,0,0.4,0c0.1,0,0.1,0,0.2,0
		c0.1,0,0.1,0,0.2,0c0,0.2-0.1,0.4-0.2,0.5c-0.1,0.1-0.2,0.2-0.4,0.3c-0.1,0.1-0.3,0.1-0.4,0.1C220.5,89.7,220.3,89.7,220.2,89.7
		L220.2,89.7z M230.3,94.7h-2.3l-0.4,1.4c-0.1,0-0.1,0-0.2,0c-0.1,0-0.1,0-0.2,0c-0.1,0-0.2,0-0.2,0c-0.1,0-0.1,0-0.2,0l1.9-5.9
		c0.1,0,0.1,0,0.2,0c0.1,0,0.2,0,0.3,0c0.1,0,0.2,0,0.2,0c0.1,0,0.2,0,0.2,0l1.9,5.9c-0.1,0-0.1,0-0.2,0c-0.1,0-0.2,0-0.2,0
		c-0.1,0-0.1,0-0.2,0c-0.1,0-0.1,0-0.2,0L230.3,94.7L230.3,94.7z M228.3,94h1.8l-0.9-3L228.3,94L228.3,94z M240.2,95.3
		c0.1,0.2,0.2,0.5,0.2,0.7c-0.2,0.1-0.5,0.2-0.7,0.2c-0.2,0-0.5,0.1-0.8,0.1c-0.4,0-0.8-0.1-1.2-0.2c-0.3-0.1-0.6-0.3-0.9-0.6
		c-0.2-0.3-0.4-0.6-0.5-1c-0.1-0.4-0.2-0.8-0.2-1.3c0-0.5,0.1-0.9,0.2-1.3c0.1-0.4,0.3-0.7,0.5-1c0.2-0.3,0.5-0.5,0.9-0.6
		c0.3-0.1,0.7-0.2,1.1-0.2c0.3,0,0.6,0,0.8,0.1c0.2,0,0.4,0.1,0.6,0.2c0,0.1,0,0.2-0.1,0.4c0,0.1-0.1,0.2-0.1,0.3
		c-0.1,0-0.2-0.1-0.2-0.1c-0.1,0-0.2,0-0.2-0.1c-0.1,0-0.2,0-0.3,0c-0.1,0-0.2,0-0.4,0c-0.6,0-1.1,0.2-1.4,0.6
		c-0.3,0.4-0.5,1-0.5,1.8c0,0.4,0,0.7,0.1,1c0.1,0.3,0.2,0.5,0.4,0.7c0.2,0.2,0.4,0.3,0.6,0.4c0.2,0.1,0.5,0.1,0.8,0.1
		c0.2,0,0.4,0,0.6-0.1C239.9,95.4,240,95.3,240.2,95.3L240.2,95.3z M242.8,90.2c0.1,0,0.3,0,0.4,0c0.1,0,0.3,0,0.4,0v3.4
		c0,0.3,0,0.6,0.1,0.9c0,0.2,0.1,0.4,0.2,0.6c0.1,0.2,0.2,0.3,0.4,0.3c0.2,0.1,0.4,0.1,0.6,0.1c0.2,0,0.4,0,0.6-0.1
		c0.2-0.1,0.3-0.2,0.4-0.3c0.1-0.2,0.2-0.3,0.2-0.6c0-0.2,0.1-0.5,0.1-0.9v-3.4c0.1,0,0.3,0,0.4,0c0.2,0,0.3,0,0.4,0v3.5
		c0,0.4,0,0.8-0.1,1.1c-0.1,0.3-0.2,0.6-0.4,0.8c-0.2,0.2-0.4,0.4-0.7,0.5c-0.3,0.1-0.6,0.2-1,0.2s-0.7-0.1-1-0.2
		c-0.3-0.1-0.5-0.3-0.7-0.5c-0.2-0.2-0.3-0.5-0.4-0.8c-0.1-0.3-0.1-0.7-0.1-1.1V90.2L242.8,90.2z M249.8,90.2c0.1,0,0.1,0,0.2,0
		c0.1,0,0.1,0,0.2,0c0.1,0,0.1,0,0.2,0c0.1,0,0.1,0,0.2,0v5.2h2.3c0,0.1,0,0.1,0,0.2c0,0.1,0,0.1,0,0.2c0,0.1,0,0.3,0,0.4h-3.2V90.2
		L249.8,90.2z M256.3,90.9h-1.5c0-0.1,0-0.1,0-0.2c0-0.1,0-0.1,0-0.2c0-0.1,0-0.1,0-0.2c0-0.1,0-0.1,0-0.2h3.9c0,0.1,0,0.1,0,0.2
		c0,0.1,0,0.1,0,0.2c0,0.1,0,0.1,0,0.2c0,0.1,0,0.1,0,0.2h-1.5v5.2c-0.1,0-0.3,0-0.4,0c-0.2,0-0.3,0-0.4,0V90.9L256.3,90.9z
		 M260.9,90.2c0.1,0,0.3,0,0.4,0c0.1,0,0.3,0,0.4,0v3.4c0,0.3,0,0.6,0.1,0.9c0,0.2,0.1,0.4,0.2,0.6c0.1,0.2,0.2,0.3,0.4,0.3
		c0.2,0.1,0.4,0.1,0.6,0.1c0.2,0,0.4,0,0.6-0.1c0.2-0.1,0.3-0.2,0.4-0.3c0.1-0.2,0.2-0.3,0.2-0.6c0-0.2,0.1-0.5,0.1-0.9v-3.4
		c0.1,0,0.3,0,0.4,0c0.2,0,0.3,0,0.4,0v3.5c0,0.4,0,0.8-0.1,1.1c-0.1,0.3-0.2,0.6-0.4,0.8c-0.2,0.2-0.4,0.4-0.7,0.5
		c-0.3,0.1-0.6,0.2-1,0.2c-0.4,0-0.7-0.1-1-0.2c-0.3-0.1-0.5-0.3-0.7-0.5c-0.2-0.2-0.3-0.5-0.4-0.8c-0.1-0.3-0.1-0.7-0.1-1.1V90.2
		L260.9,90.2z M267.9,90.2c0.1,0,0.2,0,0.3,0c0.1,0,0.2,0,0.3,0c0.1,0,0.2,0,0.3,0s0.2,0,0.3,0c0.3,0,0.6,0,0.8,0.1
		c0.3,0.1,0.5,0.2,0.7,0.3c0.2,0.1,0.4,0.3,0.5,0.6c0.1,0.2,0.2,0.5,0.2,0.9c0,0.2,0,0.4-0.1,0.6c-0.1,0.2-0.2,0.3-0.3,0.5
		c-0.1,0.1-0.2,0.3-0.4,0.4c-0.1,0.1-0.3,0.2-0.4,0.3l-0.1,0l1.7,2.5c-0.1,0-0.3,0-0.5,0c-0.1,0-0.3,0-0.4,0l-1.9-2.7v0l0.1,0
		c0.1,0,0.3-0.1,0.5-0.2c0.2-0.1,0.3-0.2,0.5-0.3s0.3-0.2,0.4-0.4c0.1-0.2,0.1-0.3,0.1-0.5c0-0.4-0.1-0.7-0.4-0.9
		c-0.2-0.2-0.5-0.3-0.9-0.3c-0.1,0-0.2,0-0.3,0c-0.1,0-0.2,0-0.3,0v5.3c-0.1,0-0.1,0-0.2,0c-0.1,0-0.1,0-0.2,0s-0.1,0-0.2,0
		c-0.1,0-0.1,0-0.2,0V90.2L267.9,90.2z M274.2,90.2c0.1,0,0.1,0,0.2,0s0.1,0,0.2,0c0.1,0,0.1,0,0.2,0s0.1,0,0.2,0v5.9
		c-0.1,0-0.1,0-0.2,0c-0.1,0-0.1,0-0.2,0c-0.1,0-0.1,0-0.2,0c-0.1,0-0.1,0-0.2,0V90.2L274.2,90.2z M277.9,90.2c0.1,0,0.1,0,0.2,0
		s0.1,0,0.2,0c0.1,0,0.1,0,0.2,0c0.1,0,0.1,0,0.2,0v5.9c-0.1,0-0.1,0-0.2,0c-0.1,0-0.1,0-0.2,0c-0.1,0-0.1,0-0.2,0
		c-0.1,0-0.1,0-0.2,0V90.2L277.9,90.2z"/>
	<path fill="#647883" d="M120.1,108.9c-0.4,0-0.8-0.1-1.1-0.2c-0.3-0.2-0.6-0.4-0.8-0.6c-0.2-0.3-0.4-0.6-0.5-1
		c-0.1-0.4-0.2-0.8-0.2-1.2c0-0.4,0.1-0.9,0.2-1.2c0.1-0.4,0.3-0.7,0.5-1c0.2-0.3,0.5-0.5,0.8-0.6c0.3-0.2,0.7-0.2,1.1-0.2
		c0.4,0,0.8,0.1,1.1,0.2s0.6,0.4,0.8,0.6c0.2,0.3,0.4,0.6,0.5,1c0.1,0.4,0.1,0.8,0.1,1.2c0,0.4,0,0.9-0.1,1.2
		c-0.1,0.4-0.3,0.7-0.5,1c-0.2,0.3-0.5,0.5-0.8,0.6C120.9,108.8,120.5,108.9,120.1,108.9L120.1,108.9z M120.1,108.2
		c0.3,0,0.5-0.1,0.7-0.2c0.2-0.1,0.4-0.3,0.5-0.5c0.1-0.2,0.2-0.4,0.3-0.7c0.1-0.3,0.1-0.6,0.1-1c0-0.4,0-0.7-0.1-1
		c-0.1-0.3-0.2-0.5-0.3-0.7c-0.1-0.2-0.3-0.4-0.5-0.5c-0.2-0.1-0.4-0.2-0.7-0.2c-0.3,0-0.5,0.1-0.7,0.2c-0.2,0.1-0.4,0.3-0.5,0.5
		c-0.1,0.2-0.2,0.4-0.3,0.7c-0.1,0.3-0.1,0.6-0.1,1c0,0.4,0,0.7,0.1,1c0.1,0.3,0.2,0.5,0.3,0.7c0.1,0.2,0.3,0.4,0.5,0.5
		C119.6,108.1,119.8,108.2,120.1,108.2L120.1,108.2z M125.2,102.8c0.1,0,0.2,0,0.3,0c0.1,0,0.2,0,0.3,0c0.1,0,0.2,0,0.3,0
		c0.1,0,0.2,0,0.3,0c0.3,0,0.6,0,0.8,0.1c0.3,0.1,0.5,0.2,0.7,0.3s0.4,0.3,0.5,0.6c0.1,0.2,0.2,0.5,0.2,0.9c0,0.2,0,0.4-0.1,0.6
		c-0.1,0.2-0.2,0.3-0.3,0.5c-0.1,0.1-0.2,0.3-0.4,0.4c-0.1,0.1-0.3,0.2-0.4,0.3l-0.1,0l1.7,2.5c-0.1,0-0.3,0-0.5,0
		c-0.1,0-0.3,0-0.4,0l-1.9-2.7v0l0.1,0c0.1,0,0.3-0.1,0.5-0.2c0.2-0.1,0.3-0.2,0.5-0.3c0.1-0.1,0.3-0.2,0.4-0.4
		c0.1-0.2,0.1-0.3,0.1-0.5c0-0.4-0.1-0.7-0.4-0.9c-0.2-0.2-0.5-0.3-0.9-0.3c-0.1,0-0.2,0-0.3,0c-0.1,0-0.2,0-0.3,0v5.3
		c-0.1,0-0.1,0-0.2,0c-0.1,0-0.1,0-0.2,0s-0.1,0-0.2,0c-0.1,0-0.1,0-0.2,0V102.8L125.2,102.8z M134.4,107.4h-2.3l-0.4,1.4
		c-0.1,0-0.1,0-0.2,0c-0.1,0-0.1,0-0.2,0c-0.1,0-0.2,0-0.2,0c-0.1,0-0.1,0-0.2,0l1.9-5.9c0.1,0,0.1,0,0.2,0c0.1,0,0.2,0,0.3,0
		c0.1,0,0.2,0,0.2,0c0.1,0,0.2,0,0.2,0l1.9,5.9c-0.1,0-0.1,0-0.2,0c-0.1,0-0.2,0-0.2,0c-0.1,0-0.1,0-0.2,0c-0.1,0-0.1,0-0.2,0
		L134.4,107.4L134.4,107.4z M132.4,106.7h1.8l-0.9-3L132.4,106.7L132.4,106.7z M137.8,107.9c0.2,0.1,0.4,0.1,0.6,0.2
		c0.2,0,0.4,0.1,0.7,0.1c0.5,0,0.8-0.1,1-0.3c0.2-0.2,0.3-0.4,0.3-0.7c0-0.2,0-0.3-0.1-0.4s-0.1-0.2-0.2-0.3
		c-0.1-0.1-0.2-0.2-0.4-0.2c-0.1-0.1-0.3-0.1-0.5-0.2l-0.5-0.2c-0.2-0.1-0.3-0.1-0.4-0.2c-0.1-0.1-0.2-0.2-0.3-0.3
		c-0.1-0.1-0.2-0.2-0.2-0.4c-0.1-0.2-0.1-0.3-0.1-0.5c0-0.5,0.2-0.9,0.5-1.2c0.3-0.3,0.8-0.4,1.4-0.4c0.3,0,0.5,0,0.8,0.1
		c0.2,0,0.4,0.1,0.6,0.2c0,0.2-0.1,0.5-0.2,0.7c-0.1-0.1-0.3-0.1-0.5-0.1c-0.2,0-0.4-0.1-0.7-0.1c-0.3,0-0.6,0.1-0.8,0.2
		c-0.2,0.1-0.3,0.4-0.3,0.6c0,0.1,0,0.2,0.1,0.3c0,0.1,0.1,0.2,0.2,0.2c0.1,0.1,0.2,0.1,0.3,0.2c0.1,0.1,0.2,0.1,0.3,0.1l0.5,0.2
		c0.2,0.1,0.4,0.2,0.6,0.3c0.2,0.1,0.3,0.2,0.4,0.3c0.1,0.1,0.2,0.3,0.3,0.5c0.1,0.2,0.1,0.4,0.1,0.6c0,0.6-0.2,1-0.6,1.3
		c-0.4,0.3-0.9,0.5-1.6,0.5c-0.2,0-0.3,0-0.5,0c-0.1,0-0.3,0-0.4,0c-0.1,0-0.2,0-0.3-0.1c-0.1,0-0.2-0.1-0.3-0.1
		c0-0.1,0-0.2,0.1-0.4C137.7,108.1,137.8,108,137.8,107.9L137.8,107.9z M139.5,110.7c-0.1,0-0.1,0-0.2,0c-0.1,0-0.1,0-0.2,0
		c-0.1,0-0.1,0-0.2,0c-0.1,0-0.1,0-0.2,0l0.4-1.4c0,0,0.1,0,0.2,0s0.1,0,0.2,0h0.2c0.1,0,0.1,0,0.2,0c0,0,0.1,0,0.2,0L139.5,110.7
		L139.5,110.7z M150.2,107.9c0.1,0.2,0.2,0.5,0.2,0.7c-0.2,0.1-0.5,0.2-0.7,0.2c-0.2,0-0.5,0.1-0.8,0.1c-0.4,0-0.8-0.1-1.2-0.2
		c-0.3-0.1-0.6-0.3-0.9-0.6c-0.2-0.3-0.4-0.6-0.5-1c-0.1-0.4-0.2-0.8-0.2-1.3c0-0.5,0.1-0.9,0.2-1.3c0.1-0.4,0.3-0.7,0.5-1
		c0.2-0.3,0.5-0.5,0.9-0.6c0.3-0.1,0.7-0.2,1.1-0.2c0.3,0,0.6,0,0.8,0.1c0.2,0,0.4,0.1,0.6,0.2c0,0.1,0,0.2-0.1,0.4
		c0,0.1-0.1,0.2-0.1,0.3c-0.1,0-0.2-0.1-0.2-0.1c-0.1,0-0.2,0-0.2-0.1c-0.1,0-0.2,0-0.3,0c-0.1,0-0.2,0-0.4,0
		c-0.6,0-1.1,0.2-1.4,0.6c-0.3,0.4-0.5,1-0.5,1.8c0,0.4,0,0.7,0.1,1c0.1,0.3,0.2,0.5,0.4,0.7c0.2,0.2,0.4,0.3,0.6,0.4
		c0.2,0.1,0.5,0.1,0.8,0.1c0.2,0,0.4,0,0.6-0.1C149.8,108,150,108,150.2,107.9L150.2,107.9z M155.8,107.4h-2.3l-0.4,1.4
		c-0.1,0-0.1,0-0.2,0c-0.1,0-0.1,0-0.2,0c-0.1,0-0.2,0-0.2,0c-0.1,0-0.1,0-0.2,0l1.9-5.9c0.1,0,0.1,0,0.2,0c0.1,0,0.2,0,0.3,0
		c0.1,0,0.2,0,0.2,0c0.1,0,0.2,0,0.2,0l1.9,5.9c-0.1,0-0.1,0-0.2,0c-0.1,0-0.2,0-0.2,0c-0.1,0-0.1,0-0.2,0c-0.1,0-0.1,0-0.2,0
		L155.8,107.4L155.8,107.4z M153.7,106.7h1.8l-0.9-3L153.7,106.7L153.7,106.7z M159.3,102.9c0.1,0,0.1,0,0.2,0c0.1,0,0.1,0,0.2,0
		c0.1,0,0.1,0,0.2,0c0.1,0,0.1,0,0.2,0l2.6,4.5v-4.5c0.1,0,0.1,0,0.2,0c0.1,0,0.1,0,0.2,0c0.1,0,0.1,0,0.2,0c0.1,0,0.1,0,0.2,0v5.9
		c-0.1,0-0.1,0-0.2,0c-0.1,0-0.1,0-0.2,0c-0.1,0-0.1,0-0.2,0c-0.1,0-0.1,0-0.2,0l-2.6-4.4v4.4c-0.1,0-0.1,0-0.2,0
		c-0.1,0-0.1,0-0.2,0c-0.1,0-0.1,0-0.2,0c-0.1,0-0.1,0-0.2,0V102.9L159.3,102.9z M166.3,102.9c0.2,0,0.4,0,0.7-0.1
		c0.3,0,0.5,0,0.8,0c1,0,1.8,0.3,2.3,0.8c0.5,0.5,0.8,1.3,0.8,2.3c0,1-0.3,1.8-0.8,2.3c-0.5,0.5-1.3,0.8-2.3,0.8c-0.3,0-0.5,0-0.8,0
		c-0.3,0-0.5,0-0.7-0.1V102.9L166.3,102.9z M167.1,108.1c0.1,0,0.2,0,0.3,0c0.1,0,0.2,0,0.4,0c0.3,0,0.6,0,0.9-0.1
		c0.3-0.1,0.5-0.2,0.7-0.4c0.2-0.2,0.3-0.4,0.4-0.7c0.1-0.3,0.2-0.7,0.2-1.1c0-0.4-0.1-0.8-0.2-1.1c-0.1-0.3-0.3-0.5-0.4-0.7
		c-0.2-0.2-0.4-0.3-0.7-0.4c-0.3-0.1-0.6-0.1-0.9-0.1c-0.1,0-0.2,0-0.3,0c-0.1,0-0.2,0-0.3,0V108.1L167.1,108.1z M173.4,102.9
		c0.1,0,0.1,0,0.2,0c0.1,0,0.1,0,0.2,0c0.1,0,0.1,0,0.2,0c0.1,0,0.1,0,0.2,0v5.9c-0.1,0-0.1,0-0.2,0c-0.1,0-0.1,0-0.2,0
		c-0.1,0-0.1,0-0.2,0c-0.1,0-0.1,0-0.2,0V102.9L173.4,102.9z M177.1,102.9c0.2,0,0.4,0,0.7-0.1c0.3,0,0.5,0,0.8,0
		c1,0,1.8,0.3,2.3,0.8c0.5,0.5,0.8,1.3,0.8,2.3c0,1-0.3,1.8-0.8,2.3c-0.5,0.5-1.3,0.8-2.3,0.8c-0.3,0-0.5,0-0.8,0
		c-0.3,0-0.5,0-0.7-0.1V102.9L177.1,102.9z M177.9,108.1c0.1,0,0.2,0,0.3,0c0.1,0,0.2,0,0.4,0c0.3,0,0.6,0,0.9-0.1
		c0.3-0.1,0.5-0.2,0.7-0.4c0.2-0.2,0.3-0.4,0.4-0.7c0.1-0.3,0.2-0.7,0.2-1.1c0-0.4-0.1-0.8-0.2-1.1c-0.1-0.3-0.3-0.5-0.4-0.7
		c-0.2-0.2-0.4-0.3-0.7-0.4c-0.3-0.1-0.6-0.1-0.9-0.1c-0.1,0-0.2,0-0.3,0c-0.1,0-0.2,0-0.3,0V108.1L177.9,108.1z M187.1,107.4h-2.3
		l-0.4,1.4c-0.1,0-0.1,0-0.2,0c-0.1,0-0.1,0-0.2,0c-0.1,0-0.2,0-0.2,0c-0.1,0-0.1,0-0.2,0l1.9-5.9c0.1,0,0.1,0,0.2,0
		c0.1,0,0.2,0,0.3,0c0.1,0,0.2,0,0.2,0c0.1,0,0.2,0,0.2,0l1.9,5.9c-0.1,0-0.1,0-0.2,0c-0.1,0-0.2,0-0.2,0c-0.1,0-0.1,0-0.2,0
		c-0.1,0-0.1,0-0.2,0L187.1,107.4L187.1,107.4z M185.1,106.7h1.8l-0.9-3L185.1,106.7L185.1,106.7z M191.7,103.6h-1.5
		c0-0.1,0-0.1,0-0.2c0-0.1,0-0.1,0-0.2c0-0.1,0-0.1,0-0.2c0-0.1,0-0.1,0-0.2h3.9c0,0.1,0,0.1,0,0.2c0,0.1,0,0.1,0,0.2
		c0,0.1,0,0.1,0,0.2c0,0.1,0,0.1,0,0.2h-1.5v5.2c-0.1,0-0.3,0-0.4,0c-0.2,0-0.3,0-0.4,0V103.6L191.7,103.6z"/>
	<path fill="#647883" d="M235.6,83.7l-0.1-0.3l3.8-4.1c0.4-0.4,0.8-0.8,1.1-1.2c0.3-0.4,0.6-0.8,0.9-1.2c0.3-0.4,0.5-0.8,0.6-1.2
		c0.1-0.4,0.2-0.8,0.2-1.2c0-0.8-0.2-1.4-0.7-1.8c-0.5-0.4-1.2-0.6-2.1-0.6c-0.7,0-1.2,0.1-1.7,0.3s-0.9,0.3-1.3,0.5
		c-0.1-0.2-0.1-0.4-0.2-0.6c-0.1-0.2-0.1-0.4-0.2-0.6c0.4-0.2,0.8-0.4,1.4-0.6c0.6-0.2,1.3-0.3,2-0.3c0.6,0,1.2,0.1,1.7,0.2
		c0.5,0.1,1,0.4,1.3,0.7c0.4,0.3,0.7,0.7,0.9,1.1c0.2,0.4,0.3,1,0.3,1.6c0,0.4-0.1,0.8-0.2,1.2c-0.1,0.4-0.3,0.8-0.5,1.2
		c-0.2,0.4-0.5,0.8-0.9,1.3c-0.4,0.4-0.8,0.9-1.3,1.4l-2.5,2.7h5.9c0,0.1,0,0.2,0,0.3c0,0.1,0,0.2,0,0.4c0,0.1,0,0.2,0,0.3
		c0,0.1,0,0.2,0,0.3H235.6L235.6,83.7z M247.1,77.5c0-0.9,0.1-1.8,0.3-2.6c0.2-0.8,0.5-1.5,0.9-2c0.4-0.6,0.9-1,1.5-1.3
		c0.6-0.3,1.3-0.5,2.1-0.5c0.8,0,1.5,0.2,2.1,0.5c0.6,0.3,1.1,0.8,1.5,1.3c0.4,0.6,0.7,1.3,0.9,2c0.2,0.8,0.3,1.7,0.3,2.6
		c0,0.9-0.1,1.8-0.3,2.6c-0.2,0.8-0.5,1.5-0.9,2c-0.4,0.6-0.9,1-1.5,1.3c-0.6,0.3-1.3,0.5-2.1,0.5c-0.8,0-1.5-0.2-2.1-0.5
		s-1.1-0.8-1.5-1.3c-0.4-0.6-0.7-1.3-0.9-2C247.2,79.3,247.1,78.4,247.1,77.5L247.1,77.5z M251.9,72.3c-1.1,0-1.9,0.4-2.5,1.3
		c-0.6,0.9-0.9,2.2-0.9,3.9c0,1.7,0.3,3,0.9,3.9c0.6,0.9,1.4,1.3,2.5,1.3c1.1,0,1.9-0.4,2.5-1.3c0.6-0.9,0.9-2.2,0.9-3.9
		c0-1.7-0.3-3-0.9-3.9C253.8,72.7,253,72.3,251.9,72.3L251.9,72.3z M259,83.7l-0.1-0.3l3.8-4.1c0.4-0.4,0.8-0.8,1.1-1.2
		c0.3-0.4,0.6-0.8,0.9-1.2c0.3-0.4,0.5-0.8,0.6-1.2c0.1-0.4,0.2-0.8,0.2-1.2c0-0.8-0.2-1.4-0.7-1.8c-0.5-0.4-1.2-0.6-2.1-0.6
		c-0.7,0-1.2,0.1-1.7,0.3c-0.5,0.2-0.9,0.3-1.3,0.5c-0.1-0.2-0.1-0.4-0.2-0.6c-0.1-0.2-0.1-0.4-0.2-0.6c0.4-0.2,0.8-0.4,1.4-0.6
		c0.6-0.2,1.3-0.3,2-0.3c0.6,0,1.2,0.1,1.7,0.2c0.5,0.1,1,0.4,1.3,0.7c0.4,0.3,0.7,0.7,0.9,1.1c0.2,0.4,0.3,1,0.3,1.6
		c0,0.4-0.1,0.8-0.2,1.2c-0.1,0.4-0.3,0.8-0.5,1.2c-0.2,0.4-0.5,0.8-0.9,1.3c-0.4,0.4-0.8,0.9-1.3,1.4l-2.5,2.7h5.9
		c0,0.1,0,0.2,0,0.3c0,0.1,0,0.2,0,0.4c0,0.1,0,0.2,0,0.3c0,0.1,0,0.2,0,0.3H259L259,83.7z M272.1,74.5c-0.1-0.1-0.2-0.3-0.3-0.4
		c-0.1-0.2-0.1-0.3-0.2-0.5l4.9-2.5h0.1v11.5h2.8c0,0.1,0,0.2,0,0.3c0,0.1,0,0.2,0,0.3c0,0.1,0,0.2,0,0.3c0,0.1,0,0.2,0,0.3h-7.1
		c0-0.1,0-0.3,0-0.5c0-0.1,0-0.3,0-0.4c0-0.1,0-0.2,0-0.2h3V73L272.1,74.5L272.1,74.5z"/>
	<polygon fill-rule="evenodd" clip-rule="evenodd" fill="#647883" points="118,59.2 276.7,59.2 276.7,60.1 118,60.1 118,59.2 	"/>
</g>
</svg>
