<!-- Generator: Adobe Illustrator 19.2.1, SVG Export Plug-In  -->
<svg version="1.1"
	 xmlns="http://www.w3.org/2000/svg" xmlns:xlink="http://www.w3.org/1999/xlink" xmlns:a="http://ns.adobe.com/AdobeSVGViewerExtensions/3.0/"
	 x="0px" y="0px" width="271.5px" height="137.5px" viewBox="0 0 271.5 137.5" enable-background="new 0 0 271.5 137.5"
	 xml:space="preserve">
<defs>
</defs>
<path fill='#868789' fill-rule="evenodd" clip-rule="evenodd" d="M259.8,126.4v11.2h-248v-11.2H2.5c-2.5,0-2.5,0-2.5-2.4C0,87,0.1,50.2,0,13.3
	c0-1.7,0.5-2.2,2.2-2.1c2.6,0.1,5.3,0,7.9,0.1c1.3,0,1.8-0.4,1.7-1.7c-0.1-3.1,0-6.3,0-9.6h248.4v11.2h11.2c0,0.8,0.1,1.4,0.1,1.9
	v111c0,2.3,0,2.3-2.3,2.3H259.8z M256.9,3.4H15v11.2H3.6v108.5h11.5v11.2h2.8h235c3.5,0,3.5,0,3.5-3.5c0-2.6,0-5.1,0-7.8H268V14.5
	h-11.1V3.4z M125.5,63c-1,1.2-2,2.4-3,3.6c-0.8,1-1.7,1.9-3.1,0.9c-1.2-0.8-1.4-2.2-0.3-3.5c1.6-1.9,3.2-3.7,5-5.3
	c1-0.8,2.4-1.3,3.7-1.3c2.7-0.2,4.3,1.7,4.2,4.4c-0.3,5.5-0.6,11.1-0.9,16.6c0,0.6,0,1.1,0,2c1.6-0.7,2.9-1.2,4.2-1.8
	c0.7-0.3,1.5-0.9,2.1-0.7c0.9,0.2,1.8,0.8,2.4,1.5c0.2,0.3-0.4,1.7-0.9,2c-2,1.1-4.1,2-6.3,2.7c-1.4,0.5-1.9,1.2-2,2.7
	c-0.4,7.2-1.7,14.2-5.4,20.6c-3.6,6.3-8.8,10.1-16.2,10.3c-8.5,0.2-13.4-7.3-10.2-15.2c2.1-5,5.9-8.4,10.3-11.1
	c5-3,10.2-5.6,15.4-8.2c1.1-0.6,1.6-1.2,1.6-2.5c-0.1-5.1-0.1-10.3-0.1-15.4c0-0.7-0.1-1.3-0.1-2.1C125.8,63.1,125.7,63,125.5,63
	 M125.4,87.6c-6.9,3.1-13.7,6.2-18.8,11.9c-1.7,1.9-3,4-3.4,6.6c-0.7,4.4,2.3,7.7,6.8,7.4c2.9-0.2,5.3-1.5,7.2-3.6
	C122.7,103.6,124.1,95.6,125.4,87.6 M174.3,65.9c-0.8-0.1-1.4,0-1.8-0.2c-0.7-0.6-1.4-1.2-1.7-2c-0.1-0.4,0.6-1.4,1.2-1.6
	c1.7-0.7,2.2-1.8,2.3-3.6c0.7-9.7,2.2-19.3,6.5-28.2c1.3-2.7,2.9-5.2,4.6-7.6c1.6-2.2,4-3,6.7-2.8c3.4,0.2,5.7,2.8,6.3,6.9
	c1,6.5-0.9,12.5-3.9,18.2c-3.4,6.5-8,12-13.8,16.6c-0.8,0.7-1.2,1.3-1,2.3c0.8,4.5,1.2,9,2.3,13.4c0.8,3.2,2.5,3.7,5.3,2
	c1.8-1,3.3-2.4,4.8-3.8c0.9-0.8,1.7-1.5,2.9-0.6c1.1,0.9,1.2,2,0.3,3.1c-2.8,3.7-6.4,6-11,6.4c-3.7,0.3-6.8-1.6-7.8-5.2
	c-1-3.4-1.3-7-1.9-10.5C174.3,67.8,174.4,66.9,174.3,65.9 M179.6,56.6c0.5-0.3,0.6-0.3,0.7-0.4c6.5-6.1,11-13.3,12.9-22
	c0.5-2.3,0.4-4.9,0.1-7.2c-0.2-1.9-1.2-2.2-3-1.6c-2.6,0.8-4.1,2.9-5.2,5.1C181.1,38.6,180.4,47.4,179.6,56.6 M65.7,65.9
	c-0.6-0.1-1.4,0.1-1.7-0.2c-0.7-0.5-1.4-1.3-1.6-2c-0.1-0.4,0.6-1.4,1.2-1.6c1.8-0.7,2.2-2,2.3-3.8c0.7-11.2,2.8-22,8.5-31.9
	c1.1-1.9,2.5-3.7,4.3-5c4.6-3.3,10-1.1,11.2,4.4c1.1,5.1,0.2,10-1.7,14.7c-3.4,8.3-8.6,15.2-15.6,20.8c-1,0.8-1.4,1.5-1.3,2.8
	c0.4,4.7,0.7,9.5,2.5,13.9c0.9,2.2,1.9,2.9,4.1,1.8c2.1-1.1,3.9-2.7,5.8-4.2c0.9-0.8,1.7-1.7,3-0.6c1.2,1.1,1,2.2,0.1,3.4
	c-2.8,3.4-6.3,5.8-10.9,6c-3.9,0.2-6.9-1.7-7.8-5.4c-1-3.7-1.4-7.5-2-11.3C65.8,67.1,65.8,66.5,65.7,65.9 M71.1,56.7
	c0.9-0.7,1.3-1,1.7-1.4c5.4-5.4,9.3-11.7,11.5-19c0.9-2.9,1.5-5.9,0.9-9c-0.5-2.4-1.6-2.9-3.8-2c-2.2,1-3.6,2.8-4.6,4.8
	C72.6,38.4,71.9,47.3,71.1,56.7 M27.9,61c0.4-2.1,0.7-6,1.7-9.8c1.6-5.8,4.9-10.6,10.5-13.3c6.2-3.1,12-1.1,15.1,5
	c0.1,0.2,0.2,0.5,0.3,0.6c0.7,0.4,1.5,1.1,2.2,1c0.7-0.1,1.7-0.9,1.8-1.5c0.2-1.1,0.2-2.5-0.1-3.5c-2.1-5.3-6.3-7.7-11.7-7.9
	c-7.2-0.3-12.9,2.8-17.1,8.4c-9,12-10.9,25.3-5.9,39.3c4.6,12.9,17.2,19.4,30.6,16.1c3.9-0.9,7.5-2.5,10.2-5.8
	c1.1-1.4,2-2.9,1.3-4.7c-0.4-0.9-1.2-1.8-2-2.1c-0.4-0.2-1.6,0.7-2,1.4C55.6,95,41.3,95.2,34,84.8C29.4,78.2,28.2,70.6,27.9,61
	 M106.9,76.8c0.2,1,0.4,1.8,0.6,2.6c1.1,3.4,3.8,5,7.2,4c1.9-0.5,3.7-1.5,5.3-2.5c0.5-0.3,1-1.5,0.8-2.1c-0.3-1.1-1.3-1.7-2.5-1.3
	c-0.8,0.2-1.5,0.6-2.2,1c-2,0.9-2.7,0.7-3.4-1.4c-1.2-3.7-1.3-7.5-0.5-11.4c0.3-1.3,0.6-2.7,0.6-4.1c0-1.7-1.5-2.8-3.5-2.9
	c-1.8,0-2.3,0.4-2.5,2.6c-0.2,2.7-0.3,5.5-0.6,8.2c-0.1,0.8-0.2,1.8-0.7,2.2c-2.2,2.2-4.5,4.2-6.9,6.2c-0.5,0.5-1.3,0.6-2.1,1
	c0-3-0.1-5.7,0-8.4c0.1-2.6,0.5-5.3,0.4-7.9c-0.1-2.9-2-4.6-4.7-3.9c-2.4,0.6-4.6,1.8-6.8,3c-0.5,0.3-0.8,1.6-0.6,2.4
	c0.3,1.2,1.4,1.2,2.4,0.9c0.8-0.2,1.6-0.7,2.4-1c1.6-0.6,2.2-0.4,2.1,1.3c0,2.8-0.3,5.6-0.6,8.3c-0.2,2-0.5,4.1-0.5,6.1
	c0.1,2.9,2.1,4.7,4.9,4c2-0.5,4-1.5,5.8-2.6C103.3,79.8,105,78.3,106.9,76.8 M158.2,76.7c0.3,1.1,0.5,2,0.8,2.9c1,3,3.6,4.6,6.6,3.8
	c2-0.5,3.9-1.6,5.9-2.6c0.9-0.4,1.5-1.3,0.8-2.1c-0.5-0.6-1.5-1.2-2.4-1.2c-0.8-0.1-1.6,0.6-2.4,0.9c-2,0.9-2.7,0.7-3.4-1.4
	c-1.2-3.9-1.4-7.8-0.4-11.7c0.3-1.3,0.5-2.6,0.4-4c-0.1-1.7-1.6-2.6-3.5-2.7c-1.8-0.1-2.3,0.9-2.4,2.5c-0.2,2.9-0.4,5.8-0.6,8.7
	c-0.1,0.7-0.3,1.6-0.8,2c-1.7,1.8-3.5,3.6-5.4,5.2c-1,0.8-2.1,1.3-3.2,1.9c-0.2-0.1-0.4-0.2-0.6-0.3c0.2-3.2,0.3-6.3,0.5-9.5
	c0.1-2.4,0.4-4.8,0.2-7.1c-0.2-2.4-2-3.9-4.2-3.3c-2.6,0.6-5,1.9-7.3,3.1c-0.5,0.3-0.8,1.8-0.5,2.3c0.3,0.5,1.5,0.8,2.3,0.8
	c0.8-0.1,1.6-0.7,2.4-1c1.6-0.6,2.2-0.3,2.2,1.4c0,1.8,0,3.5-0.2,5.2c-0.3,2.5-0.7,5-1,7.5c-0.5,4.6,2.5,6.9,6.8,5.2
	c1.6-0.6,3-1.5,4.4-2.5C155,79.5,156.5,78.1,158.2,76.7 M238.7,112.7h-2.9c0-1.7,0-3.3,0-4.9c0-2.7-0.8-3.4-3.8-3v7.8
	c-2.7,0.5-2.8,0.4-2.8-1.8c0-5.3,0-10.6,0-15.9c0-1.2,0.3-1.8,1.6-1.6c0.5,0.1,1.1,0,1.6,0c5.2,0,7.7,4,5.4,8.8
	c-0.4,0.9-0.1,1.5,0,2.3C238.3,107.1,238.5,109.8,238.7,112.7 M232.1,102.3c1.3-0.6,2.9-0.8,3.2-1.5c0.4-1.3,0.3-2.9-0.2-4.1
	c-0.2-0.6-1.8-0.6-3-1V102.3z M202.1,112.7h-2.9c0-1.5,0-3,0-4.4c0-0.8,0-1.5-0.2-2.3c-0.3-1.3-1.5-1.5-2.6-1.5
	c-1.4,0.1-0.9,1.1-1,1.8c0,2,0,4.1,0,6.2h-2.6V93.3c1.9,0,3.8-0.3,5.4,0.1c1.1,0.2,2.1,1.4,3,2.3c0.3,0.3,0.3,1,0.5,1.5
	c1.1,2.5-1.4,4.8-0.4,7.5C202.2,107.1,201.9,109.9,202.1,112.7 M195.5,102.3c1.4-0.6,2.9-0.8,3.2-1.5c0.5-1.2,0.4-2.8-0.1-4
	c-0.3-0.7-1.9-0.8-3.1-1.3V102.3z M249.3,103c0,1.7,0,3.4,0,5.1c-0.1,3-1.8,4.7-4.5,4.7c-2.8,0.1-4.6-1.5-4.7-4.4
	c-0.1-3.6-0.1-7.2,0-10.8c0.1-2.8,1.9-4.3,4.7-4.2c2.7,0,4.4,1.6,4.5,4.5C249.4,99.5,249.3,101.3,249.3,103L249.3,103z M246.7,103.2
	c0-1.6,0-3.3,0-4.9c0-1.3-0.5-2.3-2-2.4c-1.6,0-2,1.1-2,2.4c-0.1,3.1-0.1,6.3,0,9.4c0,1.2,0.4,2.4,2,2.4c1.5,0,2-1.1,2-2.4
	C246.7,106.2,246.7,104.7,246.7,103.2 M152,97.3c0,3.5,0,7,0,10.5c0,2.8,1.2,4.5,3.3,4.9c3.1,0.7,5.5-1.1,5.5-4.4
	c0.1-4.7,0-9.5,0-14.2c0-0.3-0.1-0.5-0.2-0.7h-2.4V96c0,3.7,0,7.5,0,11.2c0,1.3,0.1,2.9-1.7,2.9c-1.8,0-1.8-1.5-1.8-2.8v-10v-3.9
	H152V97.3z M214.5,112.6c-2.7,0.5-2.7,0.5-3.2-1.7c-0.3-1.1-0.5-2.1-0.8-3.2c-2.9-0.7-3.1-0.6-3.7,2.3c0,0.3-0.2,0.6-0.2,0.8
	c-0.5,2.2-0.5,2.2-3.1,1.8c0.4-1.9,0.8-3.8,1.3-5.7c0.9-4.1,1.8-8.2,2.9-12.2c0.1-0.5,0.8-1.2,1.2-1.3c0.4,0,1.3,0.5,1.4,0.9
	C211.7,100.3,213.1,106.4,214.5,112.6 M209.9,104.7c-0.3-1.3-0.6-2.2-0.8-3.2c-0.1,0-0.2,0-0.4,0.1c-0.2,0.9-0.4,1.9-0.6,3
	C208.7,104.6,209.1,104.6,209.9,104.7 M182.3,93.4c0,5.2-0.1,10.3,0,15.3c0.1,2.7,1.9,4.1,4.5,4.1c2.5,0,4.2-1.7,4.2-4.4
	c0.1-2.5,0-5,0-7.5v-7.6h-2.6v2V107c0,0.5,0.1,1.1-0.1,1.5c-0.4,0.6-1.1,1.6-1.6,1.5c-0.6-0.1-1.5-0.9-1.6-1.6
	c-0.3-1.4-0.2-2.9-0.2-4.4c0-3.5,0-7.1,0-10.7H182.3z M151.2,100c-0.1-1.2-0.2-2.3-0.4-3.4c-0.6-2.2-2.1-3.3-4.5-3.3
	c-2.3,0-4.2,1.2-4.4,3.4c-0.2,4.2-0.3,8.4,0,12.5c0.1,2.2,1.8,3.4,3.9,3.5c3.8,0.3,6-2.8,5-6.8h-2.3c-0.1,0.6-0.1,1.1-0.2,1.6
	c-0.1,1.3-0.3,2.6-2,2.5c-1.6,0-1.9-1.3-1.9-2.6c0-3,0-6.1,0-9.1c0-1.3,0.4-2.4,1.8-2.5c1.5-0.1,1.9,0.9,2.1,2.2
	C148.6,100.4,148.6,100.4,151.2,100 M176.9,95.9c1.2,0,2.1,0,3,0c1,0.1,1.3-0.4,1.3-1.3c0-1-0.3-1.3-1.3-1.3c-2.6,0-5.2,0-7.9,0
	c-2.3,0-2.3,0.1-1.8,2.6h3.9v16.8h2.7V95.9z M218,93.4h-2.6v19.4h6.4c2.4,0,2.5-0.1,2-2.6H218V93.4z M162.7,112.7h8.4v-2.5h-5.9
	V93.3h-2.5V112.7z M131,45.4c0-2-1.3-3.6-3-3.7c-1.6-0.1-3.1,1.6-3.2,3.3c0,1.7,1.4,3.4,2.9,3.4C129.4,48.5,131,47,131,45.4
	 M225,112.7h2.4v-2.8H225V112.7z"/>
</svg>
