<!-- Generator: Adobe Illustrator 22.1.0, SVG Export Plug-In  -->
<svg version="1.1"
	 xmlns="http://www.w3.org/2000/svg" xmlns:xlink="http://www.w3.org/1999/xlink" xmlns:a="http://ns.adobe.com/AdobeSVGViewerExtensions/3.0/"
	 x="0px" y="0px" width="100.6px" height="54.5px" viewBox="0 0 100.6 54.5" style="enable-background:new 0 0 100.6 54.5;"
	 xml:space="preserve">
<path fill="#868789" d="M31.5,11c-0.1-0.2,0-0.5,0.2-0.7c0.2-0.2,0.5-0.1,0.7,0.1c0.7,0.6,1.5,1,2,1c0.5,0,0.9,0.2,1.2,0.5l0.5,0.5
	c0.1,0.1,0.3,0.2,1,0.3c0.3,0.1,0.6,0.3,0.4,0.5c-0.3,0.3-0.6,0.6-0.7,1c-0.2,0.9-0.1,1.6,0.7,2.4c0.3,0.3,0.6,0.4,1,0.4
	c0.3-0.1,0.5-0.1,0.5-0.5c0-0.3-0.2-0.5-0.4-0.6c-0.5-0.4-0.4-1.2,0.1-1.5c0.4-0.3,0.8-0.2,1.2-0.1c0.6,0.3,0.8,1,0.3,1.6
	c-0.1,0.2,0,0.4,0.1,0.6c0.2,0.4,0.5,0.5,1,0.4c0.7-0.3,1.1-1.4,0.9-2c-0.3-0.5-0.6-1-1.1-1.4c0.5-0.6,1.1-1.2,1.8-1.6
	c0.7,0.4,1.3,1,1.7,1.6c-0.3,0.4-0.6,0.9-0.8,1.4c-0.1,0.4-0.1,1.3,0.4,1.9c0.5,0.4,1.1,0.5,1.4,0.2c0.3-0.3,0.3-0.7,0.1-1
	c-0.3-0.5-0.3-1.1,0.2-1.4c0.4-0.3,0.8-0.2,1.2,0c0.5,0.3,0.4,0.9,0.1,1.4c-0.1,0.2-0.1,0.4,0.1,0.6c0.4,0.7,1,0.7,1.5,0.4
	c1.1-0.8,1.1-2.2-0.3-3.4c-0.3-0.2-0.1-0.7,0.4-0.8c0.9-0.2,1.9-0.6,2.3-1.4c0.5-1.1,1.3-1.2,1.8,0c0.5,0.8,1.4,1.3,2.3,1.4
	c0.5,0.1,0.7,0.6,0.4,0.9c-1.3,1.1-1.4,2.3-0.3,3.4c0.6,0.4,1.3,0.3,1.5-0.4c0.1-0.2,0.2-0.4,0.1-0.6c-0.4-0.6-0.4-1,0.1-1.4
	c0.3-0.2,0.7-0.3,1.1,0c0.5,0.4,0.5,0.9,0.2,1.4c-0.2,0.4-0.3,0.9,0.1,1.1c0.5,0.3,1.1,0.2,1.4-0.2c0.5-0.6,0.6-1.3,0.4-1.9
	c-0.1-0.5-0.5-0.9-0.9-1.3c0.4-0.7,1-1.3,1.8-1.6c0.7,0.3,1.3,0.9,1.7,1.6c-0.4,0.4-0.7,0.9-1.1,1.3c-0.3,0.6,0.3,1.8,0.9,2.1
	c0.4,0.2,0.7-0.1,1-0.4c0.1-0.3,0.2-0.6,0.1-0.7c-0.4-0.6-0.4-1.3,0.3-1.6c0.4-0.2,0.8-0.1,1.1,0.1c0.5,0.4,0.5,1.1,0.1,1.5
	c-0.3,0.2-0.4,0.4-0.4,0.7c0,0.3,0.2,0.4,0.5,0.4c0.4,0.1,0.8-0.1,1.1-0.4c0.7-0.7,0.9-1.6,0.7-2.3c-0.1-0.4-0.4-0.7-0.6-1.1
	c-0.2-0.2,0.2-0.5,0.4-0.5c0.7-0.1,0.8-0.2,1-0.3l0.5-0.5c0.3-0.4,0.7-0.6,1.2-0.6c0.5-0.1,1.2-0.4,2-1c0.2-0.2,0.5-0.3,0.7-0.1
	c0.3,0.2,0.2,0.6,0.1,0.7c-2.8,2.4-3.7,5.3-3.9,6.8h-33C35.3,16.3,34.4,13.5,31.5,11z M33.5,8.7c0.4-0.6,1.2-1.1,1.8-1.1
	c0.3,0.1,0.6,0.1,0.9-0.3c0.5-0.9,1.4-1.2,2.6-1c0.6-0.7,1.4-0.9,2.3-0.8c0.7-0.8,1.6-0.9,2.6-0.7c0.9-0.6,1.9-0.9,2.7-0.4
	c1.3-0.5,2.3-0.3,3.2,0.3C49.8,4,50.3,3.5,51,3.2V2.4h-1.2V1.2H51V0h1.1h1v1.2h1.2v1.2H53v0.9c0.7,0.3,1.2,0.7,1.5,1.4
	c0.9-0.6,2-0.7,3.3-0.3c0.7-0.4,1.6-0.2,2.7,0.4c0.9-0.2,1.8-0.1,2.6,0.7c0.9-0.1,1.6,0.1,2.2,0.8c1.2-0.2,2.1,0.1,2.7,1
	c0.2,0.3,0.5,0.3,0.8,0.3c0.7,0,1.4,0.5,1.8,1.1c0.3,0.5,0,1.1-0.6,1.1c-0.9,0.3-1.7,0.5-2.4,1c-0.4,0.2-1,0.1-1.4-0.3
	c-2-1.6-4.3-2.9-7-3.7c-0.4-0.1-0.8,0.2-0.5,0.4c1.1,0.8,1.8,1.9,2.3,3.2c0.1,0.4-0.3,0.7-0.9,0.5c-0.4-0.2-0.8-0.1-1.1,0.1
	c-0.3,0.2-0.8,0-1-0.6c-0.3-1.8-1.3-3-2.8-3.8c-0.7-0.3-1.4,0.5-1,1c0.6,0.6,1.1,1.2,1.2,2c0.1,0.6-0.4,0.9-1.1,0.7
	c-0.3-0.2-0.6-0.4-0.8-1c-0.2-0.5-0.8-0.9-1.3-0.9c-0.6,0-1.1,0.3-1.4,0.9c-0.3,0.6-0.5,0.8-0.9,1c-0.6,0.2-1-0.2-1-0.7
	c0.2-0.7,0.6-1.4,1.2-2c0.3-0.4-0.2-1.2-1.1-0.8c-1.6,0.9-2.6,1.9-2.8,3.7c-0.1,0.6-0.6,0.9-1,0.6c-0.3-0.2-0.6-0.2-1.1-0.1
	c-0.5,0.2-1-0.2-0.9-0.5C43.6,9,44.4,8,45.5,7.2c0.3-0.2,0-0.6-0.5-0.4C42.3,7.6,40,8.9,38,10.5c-0.5,0.4-1.1,0.5-1.5,0.3
	c-0.7-0.4-1.6-0.7-2.4-1C33.5,9.6,33.3,9.2,33.5,8.7z M50.9,5.3c0,0.8,0.5,1.5,1.2,1.5c0.6,0,1.1-0.7,1.1-1.5c0-0.8-0.5-1.4-1.1-1.4
	C51.4,3.9,50.9,4.5,50.9,5.3z M68.6,23.2h-3.7h-6.3h-6.5h-6.5h-6.3h-3.7v-3.1h3.7h6.3h6.5h6.5h6.3h3.7V23.2z M40.2,21.7
	c0-0.5-0.4-0.9-0.9-0.9c-0.5,0-0.9,0.4-0.9,0.9c0,0.5,0.4,0.9,0.9,0.9C39.7,22.6,40.2,22.2,40.2,21.7z M46.5,21.7
	c0-0.5-0.4-0.9-0.9-0.9c-0.5,0-0.9,0.4-0.9,0.9c0,0.5,0.4,0.9,0.9,0.9C46.1,22.6,46.5,22.2,46.5,21.7z M53,21.7
	c0-0.5-0.4-0.9-0.9-0.9c-0.5,0-0.9,0.4-0.9,0.9c0,0.5,0.4,0.9,0.9,0.9C52.5,22.6,53,22.2,53,21.7z M59.5,21.7c0-0.5-0.4-0.9-0.9-0.9
	c-0.5,0-0.9,0.4-0.9,0.9c0,0.5,0.4,0.9,0.9,0.9C59,22.6,59.5,22.2,59.5,21.7z M65.8,21.7c0-0.5-0.4-0.9-0.9-0.9
	c-0.5,0-0.9,0.4-0.9,0.9c0,0.5,0.4,0.9,0.9,0.9C65.4,22.6,65.8,22.2,65.8,21.7z M68.6,18.6h-33v0.9h33V18.6z M26.9,42.3v-9.4
	c0,0-0.6-0.8-0.6-1.2c0,0,3.8-0.2,6.1-2.2l0.2,0.1c0.7,0.4,4.4,1.9,6.7,2.2c0,0-0.7,0.6-0.7,1.1v9.7c0,0.2,0.2,1.1,0.9,1.4
	c0,0-3.9,0.5-6.3,3.2c0,0-0.2-0.2-0.5-0.5c-0.9-0.8-3.1-2.3-6.9-2.8c0,0,0.2-0.3,0.3-0.5C26.6,42.4,26.9,42.3,26.9,42.3z M30.8,42
	c0,0,0.3,0.4,1.7,0.8c0.4,0.1,1,0.3,1.7,0.4v-9.8c0,0-0.9-0.3-1.7-0.7c-0.9-0.3-1.7-0.6-1.7-0.5V42z M53.7,42.3v-9.4
	c0,0-0.6-0.8-0.6-1.2c0,0,3.8-0.2,6.1-2.2l0.2,0.1c0.7,0.4,4.4,1.9,6.7,2.2c0,0-0.7,0.6-0.7,1.1v9.7c0,0.2,0.2,1.1,0.9,1.4
	c0,0-4,0.5-6.3,3.2c0,0-0.2-0.2-0.5-0.5c-0.9-0.8-3.1-2.3-6.9-2.8c0,0,0.2-0.3,0.3-0.5C53.5,42.4,53.7,42.3,53.7,42.3z M57.7,42
	c0,0,0.3,0.4,1.7,0.8c0.4,0.1,1,0.3,1.7,0.4v-9.8c0,0-0.9-0.3-1.7-0.7c-0.9-0.3-1.7-0.6-1.7-0.5V42z M97.5,43.8l-3.2,3.3l-2.8-2.7
	l-2.4,2.7c0,0-0.1-0.1-0.1-0.1c-0.5-0.4-3.6-2.9-6.3-3.2c0.1-0.1,0.3-0.3,0.4-0.5c0.3-0.4,0.4-0.5,0.4-0.5v-9.9c0,0-0.6-0.8-0.6-1.2
	c0,0,3.1-0.5,5.9-2.2l0.3,0.1c0.8,0.3,3.3,1.2,5.8,2v1.1v9.6c0,0.3,0.4,1.2,1.4,1.4C97.3,43.7,97.5,43.8,97.5,43.8z M90.5,33.4
	c0,0-0.7-0.3-1.5-0.6c-0.7-0.3-1.4-0.5-1.5-0.6v9.4c0,0,0.7,0.3,1.5,0.7c0.5,0.3,1.1,0.6,1.5,1V33.4z M47.1,32.7
	c3.6,2,4.9,0.4,5.2-0.9c-1.4-0.3-3.1-2.3-3.1-2.3l-0.5,0.4c-2.9,1.9-2.5,1.5-2.5,1.5c-0.4-0.5-2.7-1.9-2.7-1.9L40,31.6
	c1.3,0.1,1.8,1.3,1.8,1.9v10.3h-1.3c2.8,1.6,3.5,3.3,3.5,3.3s0.7-1.7,3.5-3.3h-1.3V33C46.3,32.4,47.1,32.7,47.1,32.7z M80.6,33
	c0,0,0.7-1.2,0.4-1.3c-1.4-0.6-4.1-2.2-4.1-2.2l-0.5,0.4c-2.9,1.9-3.6,1.6-3.6,1.6c-0.4-0.6-2.7-1.9-2.7-1.9l-3.5,2.1
	c1.3,0.1,1.8,1.3,1.8,1.9v10.3h-1.3c2.8,1.6,3.5,3.3,3.5,3.3s0.7-1.7,3.6-3.3H73V33.4l1.9-1.1l1.4,1.1v10.4H75
	c2.8,1.6,3.4,3.3,3.4,3.3s0.7-1.7,3.5-3.3h-1.3V33z M27.1,45.8c-0.2,0.2-0.2,0.3-0.4,0.4c-0.8,0.8-1.4,1.4-2.3,2v4.5
	c0,1-0.9,1.7-1.9,1.7c-1.1,0-1.9-0.7-1.9-1.7c0-1,0.9-1.8,1.9-1.8c0.2,0,0.5,0.1,0.7,0.1v-2.2c-1.4,0.7-2.9,1.2-4.5,1.6
	c-1.3,0.3-2.6,0.4-3.9,0.4c-8.4,0-14.1-5-14.7-12.6c0-0.1,0-0.1,0-0.2v-1.6c0.5-8.3,8.7-14.2,17.1-14.3c-6.1,1.8-10.5,8-10.2,13.8
	c0.3,3.8,2.3,7.1,5.5,9.1l1.6-1.4V29.6c0,0,0.2-1.5-1.1-2.1c0,0,2.3-0.1,5.7-1.9c1.6-0.9,3.5-2.1,5.4-3.9c0,0,3,3.8,6.2,3.8
	c0,0-2.1,2.1-5.9,1.5V47c1-0.3,1.5-0.5,2.3-1L27.1,45.8z M23.1,26.7c-0.9-0.3-1.8-0.6-2.8-1.2l-0.6,0.4v15.4l-1.1,1l-4.5,3.9
	c1.3,0.6,2.9,1.1,4.5,1.2c0.7,0.1,1.5,0.1,2.3,0c0.7,0,1.4-0.1,2.1-0.2V26.7z M98.5,48.4h-0.3v-1.8h0.8c0.5,0,0.7,0.2,0.7,0.5
	c0,0.4-0.4,0.5-0.4,0.5c0.3,0.3,0.6,0.8,0.6,0.8h-0.4c-0.2-0.4-0.5-0.8-0.5-0.8h-0.4V48.4z M98.5,47.4c0,0,0.3,0,0.4,0
	c0.2,0,0.3-0.1,0.3-0.3c0-0.2-0.2-0.3-0.3-0.3h-0.4V47.4z M98.9,45.8c1,0,1.7,0.8,1.7,1.7c0,1-0.8,1.7-1.7,1.7c-1,0-1.7-0.8-1.7-1.7
	C97.2,46.5,97.9,45.8,98.9,45.8z M97.5,47.5c0,0.8,0.6,1.4,1.4,1.4c0.8,0,1.4-0.6,1.4-1.4c0-0.8-0.6-1.4-1.4-1.4
	C98.1,46.1,97.5,46.7,97.5,47.5z"/>
</svg>
