<!-- Generator: Adobe Illustrator 21.1.0, SVG Export Plug-In  -->
<svg version="1.1"
	 xmlns="http://www.w3.org/2000/svg" xmlns:xlink="http://www.w3.org/1999/xlink" xmlns:a="http://ns.adobe.com/AdobeSVGViewerExtensions/3.0/"
	 x="0px" y="0px" width="54.2px" height="34.6px" viewBox="0 0 54.2 34.6" style="enable-background:new 0 0 54.2 34.6;"
	 xml:space="preserve">
<style type="text/css">
	.st0{fill-rule:evenodd;clip-rule:evenodd;fill:#868789;}
</style>
<defs>
</defs>
<path class="st0" d="M27.9,9.6l-0.8-0.8h13.5l-0.1,0.9h-8.9v11.3h-0.8V9.6H27.9z M35.4,11.4v9.5h0.9v-9.5h2.1l0.7-0.9h-5.3v0.9H35.4
	z M50.3,10.5l-0.9,0v10.4h0.9v-9.4l2.1,1.4v8h0.9V10.5h-0.9V12L50.3,10.5z M42.3,33.3h2.6v-0.7h-2v-9.5h-0.6V33.3z M46,23l-0.7,0
	v8.9c0.6,2.1,3.4,1.8,3.7,0v-8.8h-0.6v8.3c-0.1,1.7-2.4,1.6-2.4,0V23z M50.3,23.7c0.8,0,1.1,0.4,1.1,0.9c0,0.5-0.2,1.1-1.1,1.1V23.7
	 M50.3,32.6l0.1-6.2C54.6,26.3,54.7,32.6,50.3,32.6z M52.1,25.2c-0.3,0.4-0.3,0.8,0.2,1c2.6,1.1,3,6.8-1.3,7l-1.3,0V23.1l1.1,0
	C51.8,23.3,52.3,23.9,52.1,25.2z M41.4,22.8c-6.9,0.2-8.6,10.6,0,11.8v-0.7c-7.4-1.2-6-10,0-10.4V22.8 M43.4,10.1
	c3-0.1,5.5,2.3,5.6,5.3c0.1,3-2.3,5.5-5.3,5.6c-3,0.1-5.5-2.3-5.6-5.3C38,12.7,40.4,10.2,43.4,10.1 M48.1,15.5
	c0.1,2.6-2,4.7-4.5,4.7c-2.6,0.1-4.7-2-4.7-4.5c-0.1-2.6,2-4.7,4.5-4.7C45.9,10.9,48.1,12.9,48.1,15.5z M23.3,10.1
	c3,0,5.5,2.4,5.5,5.5c0,3-2.4,5.5-5.5,5.5s-5.5-2.4-5.5-5.5C17.9,12.6,20.3,10.1,23.3,10.1 M28,15.6c0,2.6-2.1,4.6-4.6,4.6
	c-2.6,0-4.6-2.1-4.6-4.6c0-2.6,2.1-4.6,4.6-4.6C25.9,11,28,13,28,15.6z M22.1,23.2l-0.9-0.4c-5,4.6-12.1,3.4-16.4-0.9
	c-2.4-2.4-4-5.6-3.9-9.1c0.2-11.3,15.8-17.1,23.1-6h0.8C22.4,2.9,19,0,13.3,0C8,0.4,4.1,2.9,1.9,6.4C0.5,8.7-0.2,11.3,0,14
	C0.8,24.5,14,31.2,22.1,23.2"/>
</svg>
