<!-- Generator: Adobe Illustrator 23.0.4, SVG Export Plug-In  -->
<svg version="1.1" xmlns="http://www.w3.org/2000/svg" xmlns:xlink="http://www.w3.org/1999/xlink" x="0px" y="0px"
	 width="410.085px" height="104.358px" viewBox="0 0 410.085 104.358" enable-background="new 0 0 410.085 104.358"
	 xml:space="preserve">
<path fill="#868789" d="M0,37.967c0.221-1.522,0.311-3.077,0.684-4.561c2.153-8.577,7.549-14.145,15.937-16.804
	c5.581-1.769,11.284-1.584,16.947-0.562c3.378,0.609,6.683,1.628,10.025,2.442c0.904,0.22,1.214,0.731,1.201,1.662
	c-0.047,3.337-0.018,6.676-0.018,10.013c0,0.243,0,0.486,0,0.866c-0.378-0.153-0.648-0.255-0.912-0.372
	c-4.079-1.8-8.283-3.177-12.723-3.739c-4.156-0.526-8.231-0.234-12.023,1.686c-7.899,4-7.997,14.511-1.565,19.303
	c2.717,2.024,5.871,2.522,9.136,2.665c6.12,0.267,11.867-1.133,17.327-3.84c0.247-0.122,0.5-0.231,0.753-0.341
	c0.046-0.02,0.104-0.012,0.244-0.026c0.016,0.261,0.044,0.52,0.044,0.778c0.003,3.338-0.019,6.676,0.017,10.014
	c0.009,0.837-0.281,1.312-1.055,1.65c-4.813,2.101-9.864,3.097-15.086,3.349c-4.019,0.194-8-0.044-11.873-1.195
	c-9.335-2.774-15.037-8.83-16.595-18.566C0.275,41.196,0.154,39.993,0,38.794C0,38.518,0,38.242,0,37.967z M282.952,104.358
	c0.277-0.106,0.55-0.229,0.833-0.317c1.495-0.464,2.658-1.323,3.309-2.782c1.241-2.783,0.25-5.643-2.506-7.088
	c-1.266-0.664-2.616-1.169-3.883-1.83c-0.957-0.5-1.234-1.154-1.021-1.939c0.214-0.791,0.907-1.248,1.901-1.3
	c1.512-0.078,2.798,0.465,3.983,1.48c0.469-0.748,0.876-1.464,1.351-2.132c0.335-0.472,0.261-0.762-0.199-1.074
	c-2.353-1.592-4.901-2.03-7.552-1.016c-2.985,1.142-3.811,4.093-2.902,6.679c0.587,1.67,2.041,2.462,3.548,3.149
	c1.051,0.479,2.124,0.917,3.14,1.461c0.736,0.394,1.104,1.063,0.892,1.946c-0.194,0.808-0.877,1.467-1.788,1.453
	c-0.946-0.015-1.928-0.121-2.821-0.411c-0.757-0.246-1.41-0.812-2.184-1.282c-0.335,0.522-0.692,1.068-1.038,1.621
	c-0.712,1.137-0.765,1.238,0.411,1.894c1.113,0.621,2.36,1.002,3.548,1.489C280.965,104.358,281.959,104.358,282.952,104.358z
	 M293.88,104.358c0.198-0.141,0.395-0.283,0.593-0.423c0.748-0.524,1.086-1.414,0.846-2.233c-0.27-0.921-1.068-1.533-2.009-1.541
	c-0.915-0.008-1.706,0.571-1.981,1.449c-0.276,0.88,0.032,1.775,0.798,2.323c0.198,0.141,0.396,0.283,0.594,0.424
	C293.107,104.358,293.493,104.358,293.88,104.358z M280.572,15.963c-0.168,0.001-0.466,0.412-0.477,0.642
	c-0.065,1.404-0.09,2.812-0.082,4.218c0.035,6.233,0.046,12.468,0.148,18.7c0.054,3.313,0.403,6.606,1.287,9.819
	c1.465,5.321,4.455,9.363,9.818,11.208c7.057,2.429,13.853,1.507,20.373-1.952c0.967-0.513,1.907-1.078,3.028-1.714
	c0,1.583,0,3.019,0,4.447c4.261,0,8.384,0,12.521,0c0-15.145,0-30.225,0-45.4c-0.323,0-0.592,0-0.862,0
	c-3.559,0-7.119,0.025-10.678-0.019c-0.807-0.01-1.007,0.232-1.003,1.019c0.032,5.766,0.018,11.533,0.018,17.3
	c0,3.449-0.005,6.898,0.004,10.347c0.002,0.734-0.173,1.347-0.829,1.778c-3.776,2.481-7.844,3.967-12.437,3.827
	c-3.896-0.119-6.343-1.716-7.451-5.45c-0.587-1.978-0.844-4.115-0.873-6.185c-0.102-7.172-0.039-14.347-0.039-21.521
	c0-0.325,0-0.649,0-1.092C288.788,15.935,284.68,15.927,280.572,15.963z M100.221,60.587c0.002-14.594-0.003-29.188,0.014-43.782
	c0.001-0.686-0.202-0.894-0.89-0.888c-3.559,0.031-7.118,0.036-10.676-0.003c-0.767-0.009-0.983,0.214-0.976,0.974
	c0.035,3.917,0.016,7.835,0.016,11.752c0,5.242-0.003,10.483,0.004,15.725c0.001,0.81-0.131,1.528-0.878,2.014
	c-3.807,2.48-7.901,3.982-12.523,3.801c-3.928-0.154-6.247-1.881-7.447-5.62c-0.657-2.049-0.795-4.165-0.8-6.291
	c-0.018-7.118-0.02-14.235,0.012-21.353c0.004-0.816-0.247-1.011-1.029-1.002c-3.669,0.039-7.338,0.043-11.007-0.002
	c-0.823-0.01-1.004,0.254-0.998,1.03c0.051,7.089,0.036,14.178,0.099,21.266c0.035,3.922,0.349,7.825,1.471,11.613
	c1.166,3.937,3.232,7.248,6.841,9.398c3.813,2.271,8.018,2.844,12.357,2.601c4.62-0.259,8.806-1.885,12.722-4.279
	c0.332-0.203,0.69-0.366,1.182-0.625c0,1.583,0,2.978,0,4.424c4.19,0,8.288,0,12.466,0
	C100.199,61.021,100.221,60.804,100.221,60.587z M235.724,29.985c0-3.31-0.036-6.621,0.023-9.93c0.017-0.929-0.329-1.373-1.171-1.58
	c-3.342-0.821-6.65-1.819-10.028-2.441c-4.963-0.913-9.959-1.039-14.954,0.03c-12.536,2.683-20.325,14.257-18.127,26.547
	c1.717,9.599,7.328,15.59,16.563,18.333c3.874,1.151,7.852,1.394,11.871,1.205c5.224-0.245,10.275-1.247,15.09-3.344
	c0.756-0.329,1.078-0.786,1.067-1.637c-0.041-3.337-0.016-6.675-0.019-10.013c0-0.259-0.03-0.519-0.052-0.871
	c-0.333,0.153-0.555,0.251-0.773,0.356c-3.795,1.834-7.724,3.254-11.943,3.695c-3.913,0.409-7.808,0.467-11.625-0.774
	c-6.497-2.112-9.731-10.332-6.385-16.295c2.171-3.869,5.703-5.563,9.89-6.265c4.581-0.768,9.014-0.04,13.369,1.316
	c2.387,0.743,4.716,1.669,7.204,2.56C235.724,30.575,235.724,30.28,235.724,29.985z M370.9,28.847c0-2.731-0.038-5.464,0.021-8.194
	c0.02-0.923-0.334-1.388-1.13-1.773c-5.708-2.765-11.749-3.884-18.051-3.652c-3.582,0.132-6.964,0.998-10.011,2.998
	c-4.675,3.069-6.934,8.357-5.736,13.668c0.993,4.406,3.704,7.393,7.848,9.039c3.788,1.504,7.653,2.816,11.439,4.324
	c1.233,0.491,2.405,1.232,3.458,2.048c1.055,0.818,1.081,2.315,0.089,3.207c-0.605,0.544-1.427,1.024-2.214,1.157
	c-3.584,0.604-7.14,0.192-10.667-0.57c-3.478-0.751-6.69-2.204-9.872-3.738c-0.227-0.11-0.47-0.187-0.81-0.321
	c0,3.242,0.021,6.329-0.015,9.416c-0.008,0.717,0.261,1.078,0.883,1.393c4.228,2.144,8.688,3.494,13.407,3.931
	c3.934,0.364,7.872,0.553,11.766-0.381c3.819-0.916,7.114-2.654,9.352-6.029c4.116-6.208,2.561-13.904-3.632-17.774
	c-2.874-1.796-6.106-2.777-9.255-3.955c-2.47-0.924-4.904-1.957-7.307-3.044c-0.976-0.441-1.565-1.314-1.446-2.482
	c0.117-1.146,0.845-1.865,1.844-2.24c0.762-0.286,1.597-0.451,2.412-0.515c4.051-0.319,7.978,0.334,11.76,1.766
	c1.949,0.738,3.827,1.666,5.868,2.566C370.9,29.389,370.9,29.118,370.9,28.847z M135.846,15.881c-4.276,0-8.553-0.026-12.828,0.021
	c-0.864,0.009-1.046-0.251-1.039-1.071c0.04-4.634,0.02-9.269,0.018-13.904c0-0.288-0.025-0.577-0.041-0.927
	c-0.232,0.044-0.364,0.06-0.491,0.095c-3.801,1.036-7.594,2.101-11.408,3.09c-0.763,0.198-0.909,0.541-0.908,1.252
	c0.02,12.635-0.026,25.27,0.047,37.904c0.015,2.661,0.32,5.339,0.723,7.974c0.46,3.008,1.753,5.681,4.036,7.783
	c3.478,3.202,7.757,4.078,12.272,3.955c4.422-0.121,8.438-1.739,12.263-3.867c0.534-0.297,0.789-0.679,0.784-1.321
	c-0.025-3.421-0.01-6.842-0.015-10.263c0-0.197-0.052-0.393-0.09-0.668c-0.404,0.24-0.708,0.425-1.016,0.601
	c-2.686,1.536-5.434,2.932-8.477,3.635c-3.616,0.836-6.483-0.938-7.247-4.546c-0.221-1.045-0.351-2.128-0.359-3.195
	c-0.037-4.855-0.017-9.711-0.016-14.566c0-1.068,0.002-1.069,1.111-1.069c4.249-0.001,8.497,0.001,12.746-0.003
	c0.317,0,0.634-0.036,0.946-0.055c0-3.648,0-7.197,0-10.857C136.49,15.881,136.168,15.881,135.846,15.881z M408.815,46.618
	c-2.62,1.484-5.297,2.841-8.255,3.533c-3.082,0.72-5.645-0.338-6.79-2.964c-0.464-1.063-0.79-2.276-0.811-3.428
	c-0.096-5.43-0.057-10.862-0.089-16.293c-0.004-0.667,0.363-0.675,0.847-0.674c4.304,0.007,8.607,0.004,12.911,0.004
	c0.322,0,0.643,0,0.991,0c0-3.689,0-7.258,0-10.94c-4.952,0-9.846,0-14.841,0c0-5.335,0-10.558,0-15.841
	c-0.239,0.032-0.373,0.034-0.498,0.068c-3.854,1.051-7.702,2.122-11.564,3.142c-0.62,0.164-0.755,0.455-0.754,1.037
	c0.006,4-0.032,7.999-0.03,11.999c0.005,8.165-0.031,16.331,0.07,24.495c0.038,3.105,0.261,6.225,0.667,9.303
	c0.413,3.128,1.748,5.909,4.132,8.088c3.467,3.167,7.723,4.021,12.204,3.908c4.423-0.111,8.434-1.741,12.265-3.855
	c0.613-0.338,0.818-0.804,0.814-1.482c-0.021-3.338-0.009-6.676-0.012-10.014c0-0.211-0.032-0.422-0.062-0.801
	C409.518,46.198,409.171,46.416,408.815,46.618z M180.171,44.632c-1.689,1.174-3.454,1.319-5.301,0.375
	c-1.76-0.899-2.977-2.403-4.33-3.732c0.073-0.151,0.098-0.233,0.147-0.297c4.769-6.249,9.534-12.502,14.331-18.73
	c0.221-0.287,0.72-0.485,1.1-0.503c1.283-0.062,2.571-0.023,3.873-0.023c0-2.005,0-3.889,0-5.77c-5.843,0-11.62,0-17.407,0
	c0,1.958,0,3.845,0,5.849c1.519,0,2.984,0,4.638,0c-3.947,5.073-7.763,9.977-11.613,14.925c-0.279-0.231-0.477-0.374-0.65-0.543
	c-1.279-1.246-2.553-2.497-3.862-3.78c0.923-0.83,1.78-1.519,2.543-2.3c3.115-3.188,3.476-8.015,0.699-11.285
	c-2.603-3.064-6.053-3.961-9.945-3.295c-2.368,0.405-4.397,1.449-5.862,3.406c-2.502,3.345-2.296,7.835,0.473,10.978
	c0.427,0.485,0.853,0.971,1.328,1.51c-0.363,0.234-0.614,0.398-0.867,0.559c-4.371,2.783-5.976,7.769-4.026,12.574
	c1.326,3.268,3.827,5.256,7.17,6.058c4.404,1.057,8.56,0.607,12.035-2.695c0.455-0.433,0.947-0.827,1.481-1.29
	c0.877,0.832,1.713,1.622,2.547,2.416c3.259,3.104,6.998,4.008,11.278,2.481c2.212-0.79,2.214-0.783,2.214-3.15
	c0-0.91,0-1.821,0-2.731c0-0.737,0-1.474,0-2.479C181.351,43.761,180.773,44.214,180.171,44.632z M151.799,39.97
	c0.044-1.272,0.738-2.154,1.695-2.876c1.828-1.379,1.84-1.383,3.421,0.257c1.336,1.386,2.639,2.803,3.979,4.185
	c0.34,0.351,0.349,0.598,0.035,0.972c-1.163,1.387-2.59,2.188-4.55,2.122C153.555,44.618,151.702,42.772,151.799,39.97z
	 M157.867,21.694c1.519,0.549,2.079,1.921,1.41,3.395c-0.592,1.303-1.739,2.026-2.906,2.712c-0.137,0.081-0.477,0.035-0.582-0.081
	c-0.771-0.847-1.647-1.644-2.217-2.617c-0.752-1.284-0.128-2.752,1.25-3.335c0.498-0.211,1.052-0.289,1.579-0.428
	C156.912,21.46,157.407,21.528,157.867,21.694z M244.621,16.699c-0.002,14.566,0.003,29.133-0.015,43.699
	c-0.001,0.684,0.189,0.894,0.881,0.887c3.503-0.032,7.007-0.014,10.511-0.015c1.081,0,1.082-0.001,1.082-1.087
	c0-9.049,0.01-18.098-0.015-27.146c-0.003-0.938,0.27-1.611,1.017-2.2c3.719-2.932,7.961-4.017,12.625-3.708
	c1.388,0.092,2.778,0.148,4.246,0.225c0-3.968,0.007-7.798-0.024-11.627c-0.001-0.173-0.349-0.481-0.549-0.492
	c-0.933-0.052-1.872-0.055-2.806-0.016c-5.249,0.22-10.016,1.754-14.065,5.219c-0.128,0.11-0.293,0.177-0.569,0.34
	c0-1.7,0-3.259,0-4.85c-4.133,0-8.177,0-12.278,0C244.647,16.215,244.622,16.457,244.621,16.699z M203.872,86.142
	c-0.619-0.024-0.865,0.214-1.047,0.775c-0.92,2.83-1.88,5.648-2.828,8.469c-0.097,0.29-0.211,0.575-0.401,1.092
	c-0.178-0.452-0.265-0.644-0.331-0.843c-0.967-2.902-1.924-5.808-2.907-8.705c-0.095-0.28-0.336-0.719-0.524-0.726
	c-1.5-0.06-3.004-0.033-4.506-0.033c0,6.022,0,11.91,0,17.876c0.941,0,1.821-0.039,2.696,0.013c0.687,0.041,0.901-0.192,0.894-0.883
	c-0.034-3.172-0.019-6.345-0.018-9.517c0-0.268,0.026-0.536,0.041-0.804c0.071-0.003,0.142-0.006,0.213-0.009
	c0.123,0.357,0.25,0.713,0.37,1.072c1.055,3.163,2.115,6.325,3.156,9.493c0.165,0.502,0.446,0.664,0.969,0.654
	c0.509-0.01,0.713-0.211,0.865-0.676c0.942-2.881,1.914-5.752,2.88-8.624c0.23-0.683,0.477-1.36,0.717-2.04
	c0.071,0.013,0.142,0.027,0.212,0.04c0,3.727,0,7.454,0,11.231c1.22,0,2.335,0,3.512,0c0-5.928,0-11.816,0-17.836
	C206.458,86.157,205.163,86.192,203.872,86.142z M272.239,103.677c-0.827-1.802-1.656-3.602-2.486-5.402
	c-0.538-1.167-0.539-1.167,0.489-1.913c1.939-1.407,2.625-4.534,1.526-7.072c-0.706-1.631-1.935-2.799-3.698-2.951
	c-2.435-0.21-4.895-0.136-7.345-0.177c-0.184-0.003-0.368,0.041-0.56,0.064c0,5.953,0,11.858,0,17.819
	c0.925,0,1.78-0.043,2.628,0.013c0.712,0.047,0.974-0.161,0.948-0.913c-0.055-1.597-0.024-3.197-0.009-4.796
	c0.002-0.232,0.031-0.54,0.176-0.679c0.399-0.382,1.749-0.025,1.974,0.495c0.755,1.744,1.483,3.5,2.264,5.232
	c0.121,0.268,0.459,0.603,0.713,0.618c1.123,0.067,2.252,0.029,3.456,0.029C272.273,103.832,272.271,103.747,272.239,103.677z
	 M263.718,90.025c-0.022-0.486,0.144-0.717,0.655-0.695c0.742,0.032,1.491-0.023,2.227,0.056c1.208,0.13,1.966,1.107,1.977,2.442
	c0.012,1.38-0.75,2.413-1.975,2.545c-0.79,0.085-1.597,0.065-2.391,0.012c-0.174-0.012-0.445-0.353-0.464-0.562
	c-0.06-0.655-0.022-1.32-0.022-1.98C263.725,91.236,263.746,90.63,263.718,90.025z M234.485,97.885
	c1.083,1.824,2.156,3.655,3.254,5.471c0.159,0.262,0.427,0.634,0.66,0.645c1.275,0.063,2.554,0.03,3.96,0.03
	c-0.18-0.335-0.267-0.529-0.382-0.706c-1.76-2.702-3.509-5.411-5.3-8.092c-0.332-0.497-0.317-0.833,0.014-1.308
	c1.589-2.285,3.146-4.593,4.71-6.896c0.16-0.236,0.296-0.489,0.526-0.873c-1.243,0-2.311,0.031-3.377-0.013
	c-0.569-0.023-0.901,0.173-1.196,0.658c-1.302,2.143-2.641,4.264-3.969,6.391c-0.136,0.218-0.287,0.426-0.43,0.638
	c-0.062-0.016-0.124-0.032-0.187-0.049c0-2.512,0-5.024,0-7.627c-1.015,0-1.92,0.043-2.818-0.014
	c-0.687-0.044-0.835,0.236-0.829,0.86c0.026,2.674,0.011,5.349,0.011,8.024c0,2.73-0.012,5.46,0.018,8.189
	c0.003,0.275,0.247,0.774,0.406,0.785c1.034,0.071,2.074,0.037,3.212,0.037c0-1.305,0.09-2.519-0.025-3.713
	c-0.122-1.266,0.513-2.133,1.282-3.148C234.221,97.478,234.361,97.677,234.485,97.885z M225.427,102.089
	c-1.511-5.069-3.03-10.135-4.523-15.21c-0.16-0.543-0.401-0.763-0.979-0.735c-0.936,0.046-1.876,0.042-2.812,0.001
	c-0.563-0.025-0.821,0.153-0.987,0.717c-1.32,4.493-2.677,8.975-4.021,13.461c-0.36,1.2-0.714,2.402-1.105,3.718
	c1.255,0,2.355,0.023,3.452-0.021c0.194-0.008,0.478-0.257,0.547-0.455c0.244-0.7,0.437-1.422,0.602-2.146
	c0.107-0.469,0.357-0.606,0.816-0.598c1.379,0.023,2.758,0.02,4.137,0.001c0.477-0.006,0.776,0.104,0.873,0.637
	c0.118,0.649,0.272,1.301,0.505,1.915c0.102,0.269,0.427,0.623,0.671,0.639c1.066,0.07,2.14,0.03,3.401,0.03
	C225.782,103.291,225.606,102.69,225.427,102.089z M216.484,97.657c0.64-2.445,1.258-4.807,1.876-7.17
	c0.083-0.012,0.166-0.024,0.249-0.037c0.638,2.359,1.275,4.718,1.947,7.206C219.125,97.657,217.899,97.657,216.484,97.657z
	 M181.499,103.431c-1.665-5.595-3.326-11.19-5.024-16.775c-0.071-0.234-0.481-0.501-0.748-0.517
	c-1.016-0.061-2.039-0.003-3.058-0.034c-0.502-0.015-0.712,0.166-0.856,0.655c-1.339,4.542-2.709,9.075-4.069,13.611
	c-0.344,1.149-0.682,2.301-1.067,3.6c1.297,0,2.444,0.019,3.589-0.023c0.154-0.006,0.364-0.299,0.43-0.498
	c0.218-0.652,0.409-1.316,0.557-1.987c0.1-0.454,0.306-0.648,0.784-0.641c1.433,0.021,2.868-0.02,4.3,0.034
	c0.252,0.009,0.615,0.31,0.713,0.56c0.25,0.636,0.346,1.332,0.574,1.979c0.081,0.231,0.357,0.548,0.557,0.558
	c1.094,0.055,2.193,0.026,3.409,0.026C181.542,103.69,181.536,103.556,181.499,103.431z M176.215,97.637c-1.396,0-2.645,0-4.074,0
	c0.64-2.428,1.261-4.784,1.882-7.14c0.095,0.005,0.191,0.011,0.286,0.016C174.936,92.857,175.563,95.201,176.215,97.637z
	 M254.801,100.825c-1.627,0-3.255-0.02-4.881,0.01c-0.575,0.01-0.778-0.175-0.752-0.758c0.042-0.963,0.034-1.931,0.003-2.895
	c-0.017-0.508,0.169-0.679,0.667-0.669c1.158,0.024,2.316,0.007,3.475,0.007c2.394,0,2.373,0,2.353-2.378
	c-0.005-0.63-0.224-0.806-0.822-0.795c-1.599,0.03-3.2-0.019-4.798,0.024c-0.7,0.019-0.923-0.229-0.878-0.906
	c0.05-0.741,0.063-1.493-0.003-2.232c-0.068-0.765,0.246-0.931,0.946-0.913c1.681,0.043,3.364-0.001,5.046,0.022
	c0.506,0.007,0.693-0.169,0.667-0.671c-0.03-0.578-0.044-1.161,0.003-1.736c0.052-0.629-0.192-0.796-0.802-0.79
	c-2.923,0.028-5.846,0.011-8.77,0.015c-0.184,0-0.368,0.039-0.647,0.07c0,0.579,0,1.125,0,1.67c0,5.102-0.002,10.204,0.003,15.306
	c0,0.39-0.131,0.851,0.559,0.846c3.033-0.018,6.067,0,9.1-0.032c0.183-0.002,0.507-0.317,0.52-0.503
	c0.056-0.847,0.025-1.699,0.025-2.692C255.397,100.825,255.099,100.825,254.801,100.825z M114.827,87.065c0,3.474,0,6.947,0,10.421
	c0,1.93-0.013,3.86,0.016,5.789c0.003,0.234,0.216,0.659,0.35,0.667c1.036,0.056,2.076,0.031,3.154,0.031
	c0.017-0.355,0.038-0.598,0.038-0.841c0.003-1.627,0.022-3.254-0.009-4.88c-0.011-0.577,0.175-0.787,0.756-0.754
	c0.742,0.041,1.488,0.012,2.233,0.009c3.48-0.015,5.717-2.343,5.611-5.837c-0.092-3.004-1.796-5.192-4.615-5.437
	c-2.456-0.213-4.945-0.044-7.532-0.044C114.827,86.52,114.827,86.792,114.827,87.065z M121.388,89.375
	c1.152,0.108,1.934,1.207,1.911,2.509c-0.023,1.334-0.863,2.338-2.076,2.483c-0.027,0.003-0.055,0.003-0.082,0.005
	c-2.754,0.238-2.754,0.238-2.754-2.517c0-0.793,0-1.586,0-2.498C119.477,89.357,120.44,89.286,121.388,89.375z M142.875,100.793
	c0.101-0.244,0.132-0.349,0.185-0.443c1.858-3.317,3.652-6.674,5.611-9.93c0.827-1.375,0.793-2.741,0.706-4.244
	c-3.628,0-7.218,0-10.894,0c0,0.827,0.03,1.595-0.01,2.36c-0.032,0.607,0.172,0.826,0.799,0.81c1.543-0.039,3.088-0.015,4.632-0.01
	c0.287,0.001,0.575,0.033,0.997,0.059c-0.197,0.37-0.318,0.608-0.448,0.841c-1.66,2.985-3.261,6.007-5.011,8.938
	c-0.777,1.302-1.067,2.607-0.973,4.075c0.033,0.51,0.141,0.743,0.702,0.74c3.253-0.019,6.507-0.014,9.761-0.004
	c0.437,0.001,0.672-0.11,0.656-0.601c-0.025-0.797-0.007-1.596-0.007-2.59C147.308,100.793,145.129,100.793,142.875,100.793z
	 M157.456,100.788c0.212-0.397,0.337-0.639,0.47-0.877c1.765-3.15,3.463-6.341,5.328-9.431c0.846-1.402,0.746-2.804,0.693-4.296
	c-3.645,0-7.236,0-10.874,0c0,0.894,0.015,1.719-0.006,2.543c-0.012,0.47,0.184,0.62,0.64,0.613c1.351-0.02,2.703-0.007,4.055-0.007
	c0.538,0,1.076,0,1.742,0c-0.18,0.376-0.272,0.596-0.387,0.803c-1.677,3.01-3.295,6.056-5.064,9.01
	c-0.81,1.352-1.106,2.715-0.99,4.236c0.03,0.39,0.096,0.606,0.558,0.604c3.338-0.014,6.676-0.001,10.013-0.027
	c0.188-0.001,0.525-0.259,0.535-0.412c0.052-0.872,0.025-1.748,0.025-2.76C161.922,100.788,159.745,100.788,157.456,100.788z
	 M130.726,87.057c0,5.27,0,10.54,0,15.809c0,0.221-0.045,0.457,0.02,0.657c0.055,0.171,0.235,0.423,0.367,0.428
	c1.039,0.035,2.079,0.02,3.149,0.02c0-6,0-11.886,0-17.815c-1.179,0-2.3,0-3.536,0C130.726,86.514,130.726,86.786,130.726,87.057z"
	/>
</svg>
