<!-- Generator: Adobe Illustrator 18.1.1, SVG Export Plug-In  -->
<svg version="1.1"
	 xmlns="http://www.w3.org/2000/svg" xmlns:xlink="http://www.w3.org/1999/xlink" xmlns:a="http://ns.adobe.com/AdobeSVGViewerExtensions/3.0/"
	 x="0px" y="0px" width="52.52px" height="14.45px" viewBox="0 0 52.52 14.45" enable-background="new 0 0 52.52 14.45"
	 xml:space="preserve">
<defs>
</defs>
<path fill-rule="evenodd" clip-rule="evenodd" fill="#878787" d="M5.48,0c0.24,0.02,0.49,0.06,0.73,0.07
	c1.23,0.05,2.41,0.3,3.53,0.81c1.98,0.89,3.18,2.39,3.57,4.54c0.28,1.54,0.22,3.06-0.36,4.53c-0.77,1.97-2.21,3.23-4.17,3.93
	c-1.1,0.39-2.24,0.56-3.41,0.57c-1.79,0.01-3.58,0.01-5.37,0.01c0-1.85,0-3.7,0-5.55c0.1-0.11,0.19-0.24,0.3-0.34
	C1.35,7.6,2.4,6.64,3.45,5.68C3.8,5.35,4.16,5.02,4.53,4.69C4.6,4.74,4.66,4.78,4.71,4.83C5.89,5.9,7.07,6.98,8.25,8.06
	c0.36,0.33,0.71,0.66,1.08,0.98c0.25,0.22,0.53,0.36,0.88,0.23c0.58-0.21,0.69-0.91,0.21-1.35C9.89,7.44,9.37,6.96,8.83,6.5
	c-0.25-0.22-0.37-0.46-0.37-0.8c0.02-0.68,0.01-1.35,0.01-2.03c0-0.62-0.06-0.68-0.7-0.68c-0.59,0-0.66,0.07-0.66,0.64
	c0,0.39,0,0.79,0,1.26c-0.15-0.13-0.24-0.2-0.33-0.27c-0.55-0.5-1.1-1.01-1.66-1.51C4.73,2.74,4.4,2.74,3.97,3.09
	C3.9,3.15,3.83,3.21,3.76,3.27C2.61,4.32,1.47,5.37,0.32,6.41C0.23,6.5,0.11,6.55,0,6.62C0,4.42,0,2.22,0,0C1.83,0,3.65,0,5.48,0z
	 M52.52,1.68c-0.03-0.05-0.06-0.1-0.08-0.15c-0.3-0.76-1.31-0.96-1.88-0.37c-0.28,0.29-0.37,0.78-0.19,1.16
	c0.21,0.44,0.56,0.65,1.05,0.64c0.46-0.01,0.83-0.26,1-0.67c0.03-0.09,0.07-0.17,0.1-0.26C52.52,1.91,52.52,1.79,52.52,1.68z
	 M51.96,2.45c-0.35,0.3-0.78,0.32-1.09,0.05c-0.3-0.26-0.37-0.73-0.15-1.07c0.22-0.34,0.67-0.46,1.04-0.28
	c0.36,0.18,0.53,0.63,0.36,1.04C52.08,2.29,52.01,2.38,51.96,2.45L51.96,2.45z M18.68,7.31c1.79-0.07,2.72-1.4,2.4-3.14
	c-0.18-1.01-1.04-1.7-2.09-1.76c-0.76-0.04-1.51-0.04-2.27-0.06c-0.07,0-0.13,0.02-0.21,0.03c0,1.66,0,3.3,0,4.93
	C17.27,7.32,17.98,7.34,18.68,7.31z M17.94,6.03c0-0.81,0-1.63,0-2.49c0.53-0.01,1.05-0.09,1.43,0.39c0.31,0.39,0.33,1.28,0.05,1.76
	c-0.34,0.57-0.9,0.5-1.45,0.5C17.95,6.12,17.94,6.08,17.94,6.03z M49.67,5.08c0.48-0.33,0.68-0.81,0.63-1.38
	c-0.05-0.54-0.33-0.94-0.83-1.15c-0.25-0.1-0.52-0.16-0.79-0.17c-0.65-0.03-1.3-0.03-1.95-0.04c-0.1,0-0.21,0.01-0.31,0.02
	c0,1.66,0,3.3,0,4.95c0.48,0,0.93,0,1.44,0c0-0.61,0-1.19,0-1.77c0.03-0.01,0.06-0.03,0.09-0.04c0.09,0.09,0.2,0.17,0.27,0.28
	c0.28,0.44,0.55,0.89,0.8,1.34c0.1,0.17,0.22,0.26,0.43,0.25c0.33-0.01,0.66,0,1-0.01c0.08,0,0.15-0.03,0.29-0.05
	c-0.45-0.71-0.87-1.39-1.3-2.07C49.5,5.19,49.59,5.14,49.67,5.08z M47.86,3.41c0.25,0.02,0.48,0.03,0.7,0.07
	c0.21,0.04,0.32,0.26,0.31,0.5c-0.01,0.25-0.14,0.43-0.36,0.47c-0.21,0.04-0.42,0.05-0.66,0.08C47.86,4.14,47.86,3.8,47.86,3.41z
	 M27.15,7.09c-0.59-1.48-1.18-2.96-1.76-4.45c-0.09-0.22-0.23-0.31-0.46-0.3c-0.24,0.01-0.47,0-0.71,0c-0.33,0-0.33,0-0.46,0.32
	c-0.56,1.47-1.12,2.93-1.68,4.4c-0.03,0.08-0.05,0.17-0.09,0.31c0.35,0,0.67,0,0.98,0c0.47,0,0.48,0,0.62-0.45
	c0.07-0.21,0.17-0.28,0.38-0.27c0.29,0.02,0.59,0.01,0.89,0.01c0.18,0,0.39-0.05,0.52,0.03c0.12,0.08,0.14,0.31,0.22,0.46
	c0.05,0.08,0.13,0.19,0.21,0.19c0.46,0.02,0.92,0.01,1.41,0.01C27.19,7.24,27.17,7.16,27.15,7.09z M24.09,5.5
	c0.14-0.48,0.27-0.92,0.4-1.37c0.02-0.01,0.04-0.01,0.06-0.02C24.7,4.55,24.85,5,25.01,5.5C24.69,5.5,24.42,5.5,24.09,5.5z
	 M43.36,3.53c0.34,0,0.69,0,1.03,0c0.14,0,0.28-0.03,0.28-0.2c0.01-0.32,0-0.63,0-0.96c-1.06,0-2.08,0-3.1,0
	c-0.08,0.55-0.04,4.7,0.03,4.93c1.03,0,2.05,0,3.07,0c0-0.39,0-0.75,0-1.15c-0.57,0-1.13,0-1.67,0c0-0.29,0-0.54,0-0.83
	c0.5,0,0.96,0,1.44,0c0-0.38,0-0.71,0-1.09c-0.5,0-0.98,0-1.46,0c0-0.24,0-0.44,0-0.7C43.12,3.53,43.24,3.53,43.36,3.53z
	 M32.76,2.37c-0.56,0.16-0.93,0.51-1.02,1.1c-0.1,0.67,0.04,1.25,0.65,1.64c0.21,0.13,0.44,0.23,0.66,0.34
	c0.18,0.09,0.38,0.15,0.55,0.25c0.08,0.05,0.19,0.16,0.18,0.23c-0.01,0.1-0.11,0.19-0.2,0.26c-0.06,0.05-0.15,0.05-0.24,0.06
	c-0.3,0.03-0.59-0.01-0.86-0.15c-0.1-0.05-0.21-0.09-0.32-0.14c-0.19,0.34-0.37,0.65-0.55,0.97c0.05,0.05,0.08,0.08,0.12,0.11
	c0.82,0.47,1.67,0.54,2.56,0.21c0.36-0.13,0.64-0.38,0.76-0.74c0.3-0.84,0.13-1.61-0.74-2.03c-0.15-0.07-0.3-0.14-0.45-0.21
	c-0.2-0.09-0.41-0.18-0.61-0.29c-0.08-0.05-0.17-0.18-0.15-0.24c0.04-0.11,0.14-0.24,0.24-0.26c0.19-0.03,0.4-0.01,0.59,0.02
	c0.19,0.03,0.38,0.11,0.59,0.18c0.18-0.33,0.34-0.63,0.53-0.98C34.3,2.24,33.55,2.15,32.76,2.37z M36.75,7.3c1.07,0,2.11,0,3.15,0
	c0-0.39,0-0.75,0-1.14c-0.58,0-1.13,0-1.71,0c0-1.29,0-2.54,0-3.8c-0.5,0-0.95,0-1.44,0C36.75,4.03,36.75,5.66,36.75,7.3z
	 M30.06,2.37c-0.49,0-0.96,0-1.42,0c0,1.66,0,3.3,0,4.96c0.42,0,0.81,0,1.2,0c0.07,0,0.14-0.02,0.23-0.03
	C30.07,5.64,30.06,4.01,30.06,2.37z M40.99,10.34c-0.05-1.05-1.01-1.77-2.03-1.54c-0.88,0.2-1.42,1-1.3,1.96
	c0.17,1.41,1.45,1.89,2.44,1.38c0.65-0.33,0.87-0.93,0.89-1.62C40.99,10.46,40.99,10.4,40.99,10.34z M40.57,11.09
	c-0.19,0.67-0.67,0.97-1.24,0.97c-0.62,0-1.08-0.37-1.26-0.97c-0.15-0.51-0.13-1.01,0.16-1.47c0.24-0.37,0.56-0.63,1.02-0.6
	c0.52,0.03,0.98,0.23,1.22,0.72c0.12,0.24,0.15,0.51,0.2,0.71C40.64,10.72,40.62,10.91,40.57,11.09z M27.45,8.83
	c-0.09,0-0.16,0-0.25,0c-0.02,0.94,0.01,1.86-0.04,2.78c-0.1-0.09-0.17-0.18-0.24-0.28c-0.52-0.75-1.03-1.5-1.55-2.25
	c-0.11-0.15-0.21-0.32-0.45-0.24c0,1.15,0,2.28,0,3.42c0.22,0.06,0.27-0.03,0.27-0.21c0-0.62,0-1.23,0-1.85c0-0.23,0-0.47,0-0.79
	c0.12,0.16,0.2,0.25,0.26,0.34c0.53,0.77,1.07,1.53,1.6,2.31c0.1,0.15,0.2,0.27,0.41,0.2C27.45,11.11,27.45,9.97,27.45,8.83z
	 M19.67,12.1c0,0.22,0.14,0.2,0.33,0.14c0-0.52,0-1.05,0-1.56c0.25-0.07,0.35,0.07,0.45,0.2c0.29,0.39,0.57,0.78,0.86,1.17
	c0.17,0.24,0.24,0.25,0.5,0.15c-0.39-0.53-0.77-1.05-1.16-1.58c0.12-0.02,0.21-0.04,0.3-0.06c0.46-0.14,0.69-0.44,0.67-0.88
	c-0.01-0.43-0.23-0.71-0.71-0.79c-0.39-0.07-0.8-0.06-1.25-0.09C19.66,9.95,19.66,11.02,19.67,12.1z M20,9.11
	c0.32-0.02,0.62-0.05,0.92,0.06c0.28,0.11,0.4,0.32,0.37,0.65c-0.02,0.26-0.16,0.42-0.45,0.47c-0.26,0.04-0.54,0.06-0.84,0.09
	C20,9.93,20,9.53,20,9.11z M33.71,10.02c0,0.68,0,1.35,0,2.03c0,0.23,0.01,0.23,0.31,0.17c0-0.53,0-1.07,0-1.61
	c0.71,0,1.37,0,2.07,0c0,0.57,0,1.11,0,1.64c0.24,0.07,0.27-0.05,0.27-0.21c0-1.03,0-2.06-0.01-3.09c0-0.03-0.02-0.07-0.03-0.11
	c-0.08,0-0.16,0-0.28,0c0,0.5,0,0.97,0,1.44c-0.71,0-1.36,0-2.05,0c0-0.5,0-0.97,0-1.45c-0.1,0-0.17,0-0.29,0
	C33.71,9.24,33.71,9.63,33.71,10.02z M42.24,11.33c0.01,0.31,0.15,0.62,0.44,0.77c0.22,0.12,0.48,0.21,0.73,0.22
	c0.85,0.06,1.35-0.39,1.35-1.22c0-0.44,0-0.88,0-1.32c0-0.32,0-0.64,0-0.97c-0.11,0.01-0.18,0.01-0.28,0.02c0,0.15,0,0.28,0,0.41
	c0,0.62,0.01,1.23,0,1.85c-0.01,0.84-0.83,1.16-1.37,0.89c-0.37-0.18-0.57-0.49-0.57-0.91c0-0.63,0-1.26,0-1.88
	c0-0.12,0-0.23,0-0.36c-0.13,0-0.21,0-0.31,0C42.23,9.67,42.22,10.5,42.24,11.33z M17.73,10.73c0.45-0.11,0.69-0.44,0.69-0.91
	c0-0.44-0.23-0.79-0.64-0.92c-0.42-0.14-0.86-0.08-1.32-0.07c0,1.11,0,2.19,0,3.26c0,0.2,0.05,0.21,0.33,0.1c0-0.44,0-0.88,0-1.33
	C17.13,10.83,17.44,10.8,17.73,10.73z M16.8,10.26c0-0.38,0-0.75,0-1.15c0.34-0.03,0.64-0.05,0.93,0.08
	c0.27,0.12,0.38,0.35,0.36,0.71c-0.02,0.3-0.15,0.49-0.45,0.55c-0.26,0.06-0.53,0.07-0.82,0.11C16.81,10.45,16.8,10.36,16.8,10.26z
	 M49.27,12.27c0.53,0,1.03,0,1.54,0c0.19,0,0.15-0.12,0.12-0.28c-0.45,0-0.9,0-1.35,0c0-0.49,0-0.95,0-1.43c0.34,0,0.66,0,0.98,0
	c0.2,0,0.21-0.1,0.14-0.28c-0.38,0-0.76,0-1.14,0c0-0.42,0-0.8,0-1.2c0.41,0,0.78,0,1.16,0c0.19,0,0.27-0.06,0.17-0.26
	c-0.54,0-1.07,0-1.63,0C49.27,9.97,49.27,11.1,49.27,12.27z M47.25,12.28c0.36-0.1,0.62-0.31,0.7-0.68
	c0.08-0.38-0.04-0.71-0.36-0.94c-0.2-0.14-0.42-0.26-0.63-0.39c-0.15-0.09-0.32-0.17-0.44-0.29c-0.32-0.3-0.22-0.74,0.18-0.91
	c0.3-0.13,0.58-0.05,0.85,0.09c0.19,0.1,0.25,0.02,0.31-0.15c-0.41-0.27-0.83-0.35-1.29-0.2C46,9,45.83,9.74,46.25,10.17
	c0.11,0.12,0.26,0.2,0.4,0.29c0.25,0.16,0.51,0.3,0.75,0.47c0.2,0.14,0.28,0.34,0.24,0.59c-0.05,0.26-0.22,0.43-0.47,0.47
	c-0.18,0.03-0.37,0.03-0.56,0c-0.15-0.02-0.29-0.09-0.43-0.15c-0.12-0.05-0.2-0.03-0.26,0.14C46.33,12.3,46.76,12.42,47.25,12.28z
	 M29.59,9.52c0,0.83,0,1.66,0,2.49c0,0.26,0.01,0.26,0.31,0.22c0-1.03,0-2.07,0-3.14c0.29,0,0.55,0,0.81,0
	c0.2,0,0.19-0.12,0.14-0.26c-0.75,0-1.48,0-2.22,0c-0.01,0.06-0.02,0.11-0.02,0.15c0,0.03,0.03,0.06,0.05,0.11c0.29,0,0.59,0,0.93,0
	C29.59,9.27,29.59,9.39,29.59,9.52z M23.06,12.26c0.07,0.01,0.11,0.02,0.16,0.02c0.03,0,0.06-0.02,0.11-0.04c0-1.13,0-2.26,0-3.41
	c-0.09,0-0.16,0-0.26,0C23.06,9.99,23.06,11.12,23.06,12.26z M51.95,2.46c-0.02-0.04-0.03-0.09-0.04-0.13
	c-0.06-0.2-0.2-0.39-0.04-0.62c0.07-0.1,0.01-0.29-0.13-0.32c-0.21-0.04-0.44-0.03-0.66-0.03c-0.04,0-0.1,0.1-0.1,0.16
	c-0.01,0.3,0,0.61,0,0.94c0.12-0.01,0.19-0.02,0.26-0.03c0.01-0.14,0.02-0.26,0.03-0.37c0.16-0.05,0.26,0,0.28,0.13
	C51.59,2.43,51.74,2.49,51.95,2.46L51.95,2.46z"/>
</svg>
