<!-- Generator: Adobe Illustrator 21.1.0, SVG Export Plug-In  -->
<svg version="1.1"
	 xmlns="http://www.w3.org/2000/svg" xmlns:xlink="http://www.w3.org/1999/xlink" xmlns:a="http://ns.adobe.com/AdobeSVGViewerExtensions/3.0/"
	 x="0px" y="0px" width="170.3px" height="51.3px" viewBox="0 0 170.3 51.3" style="enable-background:new 0 0 170.3 51.3;"
	 xml:space="preserve">
<style type="text/css">
	.st0{fill-rule:evenodd;clip-rule:evenodd;fill:#868789;}
</style>
<defs>
</defs>
<g>
	<path class="st0" d="M41.8,31h-8.7v11.7c0,0.7,0.2,1.5,0.7,2c0.5,0.6,1.1,0.8,1.7,0.8h6.3c2.4,0,4.2-0.5,5.4-1.9
		c1.2-1.3,1.9-3.2,1.9-5.4c0-2.1-0.7-3.9-1.8-5.2C46.1,31.6,44,31,41.8,31 M43.5,40.9c-0.6,0.7-1.4,0.9-2.5,0.9h-2.9v-7h2.9
		c1.2,0,2,0.2,2.6,1c0.5,0.6,0.9,1.5,0.9,2.5C44.3,39.4,44,40.2,43.5,40.9z M55,40.2h7.4v-3.6H55v-1.9h9.7V31H50.3v11.7
		c0,0.7,0.2,1.5,0.7,2c0.5,0.6,1.1,0.8,1.7,0.8h12v-3.6H55V40.2z M8.7,31H0v11.7c0,0.7,0.2,1.5,0.7,2c0.5,0.6,1.1,0.8,1.7,0.8h6.3
		c2.3,0,4.2-0.5,5.4-1.9c1.2-1.3,1.9-3.2,1.9-5.4c0-2.1-0.7-3.9-1.8-5.2C13,31.6,10.9,31,8.7,31z M10.5,41.1
		c-0.6,0.7-1.5,0.7-2.7,0.7H5v-7h2.9c1.2,0,2.2,0.1,2.8,0.8c0.5,0.6,0.6,1.7,0.6,2.7C11.3,39.4,11,40.5,10.5,41.1z M21.9,40.2h7.4
		v-3.6h-7.4v-1.9h9.7V31H17.2v11.7c0,0.7,0.2,1.5,0.7,2c0.5,0.6,1.1,0.8,1.7,0.8h12v-3.6h-9.7V40.2z M78.6,31.5
		c-0.4,0.3-0.7,0.8-0.9,1.3l-1.6,4.7h-0.1l-1.6-4.7c-0.2-0.5-0.5-1-0.9-1.3c-0.4-0.3-0.9-0.5-1.4-0.5h-5.8v14.6h4.6v-9.6h0.1
		l3.2,9.6h3.5l3.2-9.6h0.1v9.6h4.6V31H80C79.5,31,79.1,31.2,78.6,31.5z M114.6,31v7.4h-0.1l-4.5-6.4c-0.2-0.3-0.5-0.6-0.8-0.8
		c-0.3-0.2-0.7-0.3-1-0.3h-4.2v14.6h4.6V38h0.1l4.7,6.6c0.2,0.3,0.5,0.6,0.8,0.7c0.3,0.2,0.7,0.3,1,0.3h4V31H114.6z M93.7,31
		c-0.5,0-0.9,0.1-1.3,0.5c-0.4,0.3-0.7,0.8-0.9,1.3l-4.7,12.9h4.7l0.9-2.6h5l0.9,2.6h4.7L97.6,31H93.7z M93.6,39.4l1.2-3.6h0.1
		l1.2,3.6H93.6z"/>
	<path class="st0" d="M170.3,15.8v2.1h-44v-2.1l3.8-2.4C130.9,4.9,136,0,143.7,0c7.5,0,14.9,4.8,16.2,13l0,0L170.3,15.8z
		 M134.8,10.6c0.4-1.6,1.1-2.9,2.1-4c1.5-1.7,3.8-2.6,6.6-2.6c0.4,0,0.9,0,1.3,0.1l0-2c-0.4,0-0.9-0.1-1.3-0.1
		c-3.4,0-6.1,1.1-8.1,3.3c-1.1,1.2-1.9,2.7-2.4,4.5L134.8,10.6z"/>
	<path class="st0" d="M159.3,21.2c-0.4-0.6-0.8-1.2-1.2-1.7h-3.7c0.3,0.5,0.5,1.2,0.2,1.8c-0.4,0.9-1.6,1.2-2.4,0.8
		c-0.8-0.4-1.2-1.5-0.8-2.4c0-0.1,0.1-0.1,0.1-0.2h-19c-1.6,2-2.9,4.2-3.9,7c0.9,1.4,2.2,2.6,3.7,3.3c3.6,1.8,6.8,0.3,8.4-3.3l1-2.2
		l1.7,0.9l-1.1,2.3c-2.6,5.5-7.2,6.2-12,3.4c-1.3,1.3-3.1,4.6-3.8,6.7l23.6,13.7c1.1-7.9-5-14.1-3.7-17.2c1.3-3.1,6.2,1.3,12.8,0.1
		c2.1-0.4,7.2-3.9,7.2-11L159.3,21.2z"/>
</g>
</svg>
