<!-- Generator: Adobe Illustrator 22.1.0, SVG Export Plug-In  -->
<svg version="1.1"
	 xmlns="http://www.w3.org/2000/svg" xmlns:xlink="http://www.w3.org/1999/xlink" xmlns:a="http://ns.adobe.com/AdobeSVGViewerExtensions/3.0/"
	 x="0px" y="0px" width="110.5px" height="33.6px" viewBox="0 0 110.5 33.6" enable-background="new 0 0 110.5 33.6"
	 xml:space="preserve">
<path fill="#868789" d="M22.9,0.2c0.3-0.3,0.3-0.3,0.6,0c0.7,5.6,1.4,11.1,2.2,16.7c-3,1.3-6,2.6-9.1,3.8c0,0,0,0,0,0.1
	c1.8,0.7,3.6,1.4,5.4,2.1c-0.1,0.6-0.2,1.1-0.3,1.7c-0.4,2.5-0.9,5-1.3,7.5c-0.1,0.4-0.1,0.8-0.2,1.1c0,0.2-0.1,0.3-0.3,0.4
	c-0.3-0.1-0.3-0.1-0.3-0.4c0-0.1,0-0.2,0-0.2c0-0.6-0.2-1.1-0.6-1.6c-1.7-2-3.4-4-5-6c-0.1-0.2-0.3-0.4-0.5-0.6c0-0.1,0-0.2,0-0.3
	c0-2,0-4,0-6c0-0.3,0.1-0.5,0.2-0.7c2.9-5,5.7-10,8.6-15.1c0.4-0.7,0.6-1.4,0.7-2.2C22.9,0.4,22.9,0.3,22.9,0.2z M3.6,23.2
	c0.4,2,0.7,4,1.1,6c0.2,1.4,0.5,2.7,0.7,4.1c0,0.2,0.2,0.4,0.3,0.4c0.2,0,0.3-0.1,0.3-0.4c0-0.1,0-0.3,0-0.4c0-0.5,0.2-0.9,0.5-1.3
	c1.5-1.8,3.1-3.6,4.6-5.5c0.3-0.4,0.7-0.8,1-1.2c0-0.1,0-0.3,0-0.4c0-1.9,0-3.8,0-5.8c0-0.4-0.1-0.7-0.3-1C9,12.6,6.1,7.5,3.2,2.4
	C3,2,2.9,1.7,2.8,1.3C2.8,1,2.7,0.6,2.7,0.2C2.6,0.1,2.5,0.1,2.4,0C2.3,0.1,2.2,0.1,2.1,0.2C1.9,1.2,0,16.7,0,17c3,1.3,6,2.5,9,3.8
	c0,0,0,0,0,0.1c-1.8,0.7-3.6,1.4-5.5,2.1C3.6,23,3.6,23.1,3.6,23.2z M39.1,13.2c0-0.1-0.1-0.1-0.1-0.2c-0.3-0.6-0.7-1-1.3-1.3
	c-0.9-0.5-1.9-0.5-2.9-0.2c-1.2,0.4-2,1.3-2.4,2.5c-0.4,1.3-0.4,2.6,0,3.9c0.5,1.6,1.8,2.9,3.9,2.8c1.2-0.1,2.2-0.6,2.9-1.7
	c0,0,0.1-0.1,0.1-0.1c0,0,0,0,0.1,0c0,0.5,0,1,0,1.5c0.4,0.1,0.7,0.1,1,0c0-4,0-8.1,0-12.1c-0.3,0-0.7,0-1,0
	C39.1,9.9,39.1,11.6,39.1,13.2C39.1,13.2,39.1,13.2,39.1,13.2z M38.8,18c-0.6,1.5-1.9,2.1-3.5,1.8c-0.7-0.1-1.2-0.6-1.5-1.1
	c-0.3-0.5-0.5-1-0.6-1.6c-0.2-0.9-0.1-1.8,0.2-2.7c0.1-0.3,0.2-0.5,0.3-0.7c0.6-1,1.6-1.5,2.8-1.3c1.3,0.2,2.2,1.1,2.5,2.4
	c0.1,0.4,0.1,0.9,0.2,1.1C39.1,16.7,39,17.4,38.8,18z M60,18.9c0.1,0,0.1,0.1,0.1,0.1c0.4,0.7,0.9,1.2,1.7,1.5
	c0.8,0.3,1.5,0.3,2.3,0.1c1.3-0.3,2.1-1.2,2.6-2.4c0.4-1.2,0.5-2.4,0.2-3.6c-0.2-0.7-0.4-1.3-0.9-1.9c-0.8-0.9-1.8-1.3-3-1.2
	c-1.3,0.1-2.3,0.6-2.9,1.7c0,0-0.1,0.1-0.2,0.2c0-0.6,0-1.1,0-1.6c-0.3,0-0.6-0.1-0.9,0c-0.1,0.6,0,11.2,0,11.5c0.3,0,0.6,0,1,0
	C59.9,21.7,59.9,20.3,60,18.9z M65.7,17.7c-0.1,0.2-0.2,0.5-0.3,0.7c-1.1,2.1-3.8,1.8-4.8,0.3c-0.4-0.6-0.6-1.2-0.6-1.8
	c-0.1-0.8-0.1-1.5,0.1-2.3c0.4-1.8,2.2-2.7,3.9-2.1c0.7,0.2,1.1,0.7,1.4,1.3c0.4,0.7,0.5,1.5,0.5,2.4C66,16.6,65.9,17.1,65.7,17.7z
	 M105.1,16.3c0.5,0,0.9,0,1.4,0c0.4,0,0.9,0,1.3,0c0.5,0,0.9,0,1.4,0c0.4,0,0.9,0,1.3,0c0-1.1-0.1-2.1-0.6-3c-0.3-0.5-0.7-1-1.2-1.3
	c-1.1-0.7-2.2-0.7-3.4-0.4c-1.1,0.3-1.8,1.1-2.2,2.2c-0.4,0.9-0.5,1.9-0.4,2.9c0.1,0.7,0.2,1.5,0.6,2.1c0.6,1,1.4,1.7,2.6,1.9
	c0.6,0.1,1.3,0.1,1.9,0c0.7-0.1,1.3-0.4,1.7-1c0.5-0.5,0.8-1.2,1-1.9c0-0.1,0-0.1,0-0.2c-0.3,0-0.7,0-1,0c-0.1,0.3-0.2,0.6-0.4,0.8
	c-0.9,1.8-3.3,1.8-4.4,0.6c-0.5-0.5-0.8-1.1-0.9-1.8c-0.1-0.3-0.1-0.6-0.1-0.9C104.2,16.3,104.6,16.3,105.1,16.3z M103.7,15.4
	c0-1.4,1.1-2.9,2.5-3.1c0.8-0.1,1.5,0.1,2.2,0.6c0.7,0.6,1.1,1.6,1.1,2.5C107.5,15.4,105.6,15.4,103.7,15.4z M76.6,18.1
	c-0.4,0.9-1,1.6-2.1,1.7c-1.3,0.2-2.4-0.3-3-1.5c-0.2-0.4-0.3-0.8-0.4-1.2c0-0.2,0-0.5-0.1-0.8c0.2,0,0.3,0,0.5,0c2,0,4,0,6,0
	c0.1,0,0.3,0,0.4,0c0-0.5,0-1-0.1-1.5c0-0.2-0.1-0.5-0.2-0.7c-0.8-2.3-2.8-3.1-4.9-2.5c-1.1,0.3-1.8,1.2-2.3,2.2
	c-0.4,0.9-0.5,1.8-0.4,2.7c0.1,0.8,0.2,1.6,0.6,2.3c0.5,0.9,1.3,1.6,2.3,1.8c0.5,0.1,1,0.1,1.6,0.1c1.4-0.1,2.4-0.8,3-2.1
	c0.1-0.2,0.2-0.5,0.3-0.8c0-0.1,0-0.2,0-0.3c-0.3,0-0.7,0-1,0C76.7,17.8,76.7,17.9,76.6,18.1z M71.1,15.4c0-1.5,1.1-2.9,2.4-3.1
	c0.7-0.1,1.3,0,1.9,0.4c0.8,0.6,1.4,1.7,1.3,2.7C74.9,15.4,73,15.4,71.1,15.4z M92.7,11.6c-1.1-0.4-2.3-0.3-3.4,0.2
	c-0.4,0.2-0.7,0.4-0.9,0.8c-0.7,1-0.4,2.5,0.6,3.1c0.2,0.1,0.4,0.2,0.7,0.3c0.6,0.2,1.3,0.3,1.9,0.5c0.5,0.1,1,0.2,1.5,0.5
	c0.9,0.5,0.9,1.7,0.2,2.2c-0.2,0.2-0.5,0.3-0.8,0.4c-0.7,0.2-1.4,0.3-2.1,0.1c-0.9-0.2-1.6-0.8-1.7-1.8c0-0.1,0-0.2-0.1-0.3
	c-0.3,0-0.7,0-1,0c0,1.3,0.8,2.4,2,2.8c0.7,0.2,1.5,0.3,2.2,0.2c0.6-0.1,1.2-0.3,1.8-0.6c1.5-1,1.5-3.2-0.2-4
	c-0.4-0.2-0.8-0.3-1.2-0.4c-0.7-0.2-1.3-0.3-2-0.5c-0.4-0.1-0.7-0.3-1-0.6c-0.2-0.2-0.3-0.5-0.3-0.8c0-0.6,0.3-1,0.8-1.3
	c0.8-0.4,1.6-0.4,2.4-0.1c0.7,0.2,1.1,0.7,1.2,1.4c0,0.1,0,0.2,0.1,0.3c0.3,0,0.7,0,1,0C94.6,13.1,93.8,12,92.7,11.6z M55.2,14.1
	c0-0.1,0-0.1,0-0.2c-0.2-1.1-0.8-1.9-1.8-2.2c-1.2-0.4-2.3-0.3-3.4,0.2c-0.9,0.4-1.4,1.2-1.3,2.3c0,0.6,0.3,1.1,0.9,1.5
	c0.3,0.2,0.7,0.4,1,0.5c0.6,0.2,1.3,0.3,2,0.5c0.4,0.1,0.9,0.3,1.2,0.5c0.9,0.5,0.9,1.7,0.2,2.2c-0.2,0.2-0.5,0.3-0.7,0.4
	c-0.7,0.3-1.4,0.3-2.1,0.1c-1-0.3-1.6-0.9-1.7-1.9c0-0.1,0-0.1,0-0.1c-0.3,0-0.7,0-1,0c0,0.2,0,0.4,0.1,0.5c0.2,1.2,0.9,2,2.1,2.3
	c0.7,0.2,1.4,0.2,2.1,0.2c0.7-0.1,1.3-0.3,1.9-0.6c1.4-1,1.4-3.1-0.2-4c-0.4-0.2-0.8-0.3-1.2-0.4c-0.7-0.1-1.3-0.3-2-0.5
	c-0.3-0.1-0.7-0.3-0.9-0.5c-0.3-0.3-0.4-0.7-0.4-1.1c0.1-0.6,0.5-1,1.1-1.2c0.6-0.2,1.2-0.2,1.8-0.1c0.8,0.2,1.4,0.7,1.5,1.6
	c0,0.1,0,0.1,0.1,0.2c0.3,0,0.7,0,1,0C55.2,14.1,55.2,14.1,55.2,14.1z M82.1,20c0-1.3,0-2.7,0-4c0-0.2,0-0.5,0-0.7
	c0.2-1.5,1.3-2.6,2.7-2.7c0.2,0,0.3,0,0.5,0c0-0.3,0-0.7,0-1c-0.5-0.1-1,0-1.5,0.2c-0.9,0.4-1.5,1-1.9,1.9c0-0.3,0-0.7,0-1
	c0-0.3,0-0.7,0-1c-0.2,0-0.3,0-0.5,0c-0.1,0-0.3,0-0.4,0c-0.1,0.5,0,8.5,0,8.8c0.3,0,0.6,0,1,0C82.1,20.3,82.1,20.1,82.1,20z
	 M45,11.7c-0.3,0-0.6,0-1,0c0,2.9,0,5.8,0,8.8c0.3,0,0.7,0,1,0C45.1,19.9,45.1,11.9,45,11.7z M98.3,20.4c0.3,0,0.6,0,1,0
	c0-2.9,0-5.8,0-8.8c-0.3,0-0.7,0-1,0C98.2,12.1,98.2,20.2,98.3,20.4z M82.4,26.9c0-0.2,0-0.4,0-0.6c-0.1-0.4-0.6-0.6-0.9-0.4
	c-0.1,0.1-0.2,0.1-0.2,0.1c-0.2-0.1-0.4-0.2-0.6-0.2c-0.2,0-0.4,0.1-0.6,0.2c0,0-0.1-0.1-0.1-0.2c-0.1,0-0.2,0-0.3,0
	c0,0.6,0,1.2,0,1.8c0.2,0,0.3,0,0.5,0c0-0.3,0-0.6,0-0.9c0-0.1,0-0.2,0-0.3c0-0.1,0.1-0.2,0.3-0.2c0.2,0,0.3,0.1,0.3,0.3
	c0,0.2,0,0.5,0,0.7c0,0.2,0,0.3,0,0.5c0.2,0,0.3,0,0.5,0c0-0.3,0-0.6,0-0.8c0-0.1,0-0.3,0-0.4c0-0.1,0.1-0.2,0.3-0.2
	c0.1,0,0.2,0.1,0.3,0.2c0,0.1,0,0.2,0,0.4c0,0.3,0,0.5,0,0.8c0.1,0,0.1,0,0.2,0c0.1,0,0.2,0,0.3,0C82.4,27.4,82.4,27.1,82.4,26.9z
	 M69.6,25.9c-0.5-0.2-1,0-1.1,0.6c0,0.2,0,0.5,0,0.7c0.1,0.5,0.7,0.8,1.2,0.4c0,0,0.1,0,0.1-0.1c0,0.1,0.1,0.1,0.1,0.2
	c0.1,0,0.3,0,0.4,0c0-0.9,0-1.8,0-2.6c-0.2,0-0.3,0-0.5,0c0,0.2,0,0.3,0,0.4c0,0.1,0,0.3,0,0.5C69.7,25.9,69.6,25.9,69.6,25.9z
	 M69.8,27c0,0.2-0.2,0.3-0.4,0.3c-0.2,0-0.3-0.1-0.4-0.3c0-0.1,0-0.3,0-0.4c0-0.2,0.2-0.3,0.4-0.3c0.2,0,0.3,0.1,0.4,0.4
	c0,0.1,0,0.1,0,0.2C69.8,26.9,69.8,26.9,69.8,27z M97.2,25.9c-0.4-0.1-0.8,0.1-1,0.5c-0.1,0.3-0.1,0.6,0,0.9
	c0.2,0.5,0.7,0.6,1.1,0.4c0,0,0.1-0.1,0.1-0.1c0,0.1,0.1,0.1,0.1,0.2c0.1,0,0.3,0,0.4,0c0-0.5,0-0.9,0-1.3c0-0.4,0-0.9,0-1.3
	c-0.2,0-0.3,0-0.5,0c0,0.2,0,0.3,0,0.4c0,0.1,0,0.3,0,0.5C97.4,25.9,97.3,25.9,97.2,25.9z M97.5,27c0,0.2-0.1,0.3-0.3,0.4
	c-0.2,0-0.4-0.1-0.4-0.3c0-0.2,0-0.4,0-0.5c0.1-0.2,0.2-0.3,0.4-0.3c0.2,0,0.3,0.2,0.3,0.4c0,0.1,0,0.1,0,0.2c0,0,0,0,0,0
	C97.5,26.8,97.5,26.9,97.5,27z M51.1,27.7c0.5,0.2,1,0,1.1-0.5c0-0.1,0.1-0.3,0-0.5c0-0.7-0.7-1-1.3-0.7c0,0-0.1,0-0.1,0
	c0-0.1-0.1-0.1-0.1-0.2c-0.1,0-0.3,0-0.4,0c0,0.9,0,1.7,0,2.6c0.2,0,0.3,0,0.5,0c0-0.3,0-0.5,0-0.8C51,27.6,51.1,27.7,51.1,27.7z
	 M50.9,26.8c0-0.3,0.1-0.5,0.4-0.5c0.2,0,0.4,0.2,0.4,0.5c0,0.1,0,0.2,0,0.3c-0.1,0.2-0.2,0.3-0.4,0.3c-0.2,0-0.3-0.1-0.3-0.4
	C50.9,26.9,50.9,26.9,50.9,26.8C50.9,26.8,50.9,26.8,50.9,26.8z M40.5,26.4c0-0.3-0.2-0.4-0.4-0.5c-0.3-0.1-0.7-0.1-1,0.1
	c0,0.1,0.1,0.2,0.1,0.3c0.7-0.1,0.7-0.1,0.8,0.2c-0.1,0-0.2,0-0.4,0.1c-0.1,0-0.3,0.1-0.4,0.1c-0.3,0.2-0.4,0.5-0.3,0.7
	c0.1,0.3,0.4,0.4,0.7,0.3c0.1,0,0.2-0.1,0.4-0.2c0.1,0.2,0.3,0.1,0.5,0.1C40.5,27.2,40.5,26.8,40.5,26.4z M39.8,27.4
	c-0.1,0.1-0.3,0-0.3-0.1c-0.1-0.1,0-0.3,0.1-0.3c0.1-0.1,0.2-0.1,0.4-0.1C40,27.1,40,27.3,39.8,27.4z M62.4,27.7c0.2,0,0.3,0,0.5,0
	c0-0.3,0-0.6,0-0.9c0-0.1,0-0.2,0-0.3c0-0.1,0.2-0.2,0.3-0.2c0.2,0,0.3,0.1,0.3,0.3c0,0.1,0,0.2,0,0.3c0,0.3,0,0.5,0,0.8
	c0.2,0,0.4,0,0.5,0c0-0.5,0-0.9,0-1.3c0-0.4-0.4-0.6-0.8-0.5c-0.1,0-0.2,0.1-0.3,0.2c0,0-0.1,0-0.1,0c0-0.1-0.1-0.1-0.1-0.2
	c-0.1,0-0.3,0-0.4,0C62.4,26.5,62.4,27.1,62.4,27.7z M57.3,26.5c-0.2,0-0.4,0.1-0.5,0.1c-0.3,0.1-0.5,0.5-0.3,0.8
	c0.1,0.3,0.4,0.4,0.8,0.3c0.1,0,0.2-0.1,0.3-0.1c0.2,0.1,0.2,0.2,0.5,0.1c0-0.4,0-0.8,0-1.2c0-0.3-0.1-0.5-0.4-0.6
	c-0.4-0.1-0.7-0.1-1.1,0.1c0,0.1,0.1,0.2,0.1,0.3c0.6-0.1,0.7-0.1,0.8,0.2C57.4,26.5,57.4,26.5,57.3,26.5z M57.5,27.2
	c-0.3,0.3-0.4,0.3-0.6,0c0.1-0.3,0.3-0.3,0.6-0.3C57.5,27,57.5,27.1,57.5,27.2z M103.6,25.9c-0.3-0.2-0.6-0.2-0.9,0
	c-0.3,0.2-0.4,0.6-0.4,1c0,0.3,0.2,0.6,0.6,0.7c0.3,0.1,0.7,0.1,1.1-0.1c0-0.1,0-0.2-0.1-0.3c-0.8,0-0.9,0-1-0.4c0.4,0,0.8,0,1.2,0
	C104.1,26.5,104,26.2,103.6,25.9z M103.2,26.2c0.2,0,0.2,0.1,0.3,0.4c-0.2,0.1-0.4,0.1-0.7,0C102.9,26.3,103,26.2,103.2,26.2z
	 M99.2,8.3c-0.3,0-0.7,0-1,0c0,0.6,0,1.1,0,1.6c0.3,0,0.7,0,1,0C99.2,9.4,99.2,8.9,99.2,8.3z M45,9.9c0-0.6,0-1.1,0-1.6
	c-0.4,0-0.7,0-1,0c0,0.6,0,1.1,0,1.6C44.4,10,44.7,10,45,9.9z M44.9,27.3c0,0.1,0,0.2-0.1,0.3c0.3,0.2,0.6,0.2,1,0.1
	c0.2-0.1,0.4-0.2,0.4-0.5c0-0.2-0.1-0.4-0.3-0.5c-0.1,0-0.2-0.1-0.3-0.1c-0.1,0-0.2-0.1-0.2-0.2c0.2-0.3,0.4-0.1,0.7-0.1
	c0-0.1,0-0.2,0.1-0.3c-0.3-0.1-0.6-0.1-0.8,0c-0.2,0.1-0.4,0.2-0.4,0.5c0,0.3,0.1,0.4,0.3,0.5c0.1,0,0.2,0.1,0.3,0.1
	c0.1,0,0.2,0.1,0.2,0.2C45.4,27.6,45.1,27.3,44.9,27.3z M34.3,26.9c0-0.4,0.1-0.5,0.5-0.6c0,0,0,0,0.1,0c0-0.1,0-0.3,0-0.4
	c-0.3-0.1-0.4,0.1-0.6,0.3c0-0.1,0-0.2-0.1-0.3c-0.1,0-0.3,0-0.4,0c0,0.6,0,1.2,0,1.8c0.2,0,0.3,0,0.5,0
	C34.3,27.4,34.3,27.2,34.3,26.9z M108.8,25.9c-0.2,0-0.3,0-0.5,0c-0.1,0.4,0,1.5,0,1.8c0.2,0,0.3,0,0.5,0
	C108.8,27.1,108.8,26.5,108.8,25.9z M91.9,25.9c-0.2,0-0.3,0-0.5,0c0,0.6,0,1.2,0,1.8c0.2,0,0.3,0,0.5,0
	C91.9,27.1,91.9,26.5,91.9,25.9z M74.7,27.7c0.2,0,0.3,0,0.5,0c0-0.6,0-1.2,0-1.8c-0.2,0-0.3,0-0.5,0C74.7,26.5,74.7,27.1,74.7,27.7
	z M57.3,25.3c0.1,0.1,0.2,0.2,0.2,0.3c0.1,0,0.2,0,0.3,0c-0.1-0.2-0.2-0.3-0.3-0.5c-0.1,0-0.2,0-0.4,0c-0.1,0.2-0.2,0.3-0.3,0.5
	c0.1,0,0.2,0,0.3,0C57.1,25.5,57.2,25.4,57.3,25.3z M39.7,25.6c0.3,0,0.5-0.1,0.5-0.5c-0.3-0.2-0.3,0.3-0.5,0.2
	c-0.2,0-0.2-0.3-0.4-0.2C39.3,25.5,39.4,25.6,39.7,25.6z M91.8,25.1c-0.1-0.1-0.3-0.1-0.4,0c-0.1,0.1-0.1,0.2,0.1,0.4
	c0.1,0,0.2,0,0.3,0C91.9,25.3,91.9,25.2,91.8,25.1z M75.1,25.1c-0.1-0.1-0.2-0.1-0.3,0c-0.1,0.1-0.2,0.2-0.1,0.3
	c0,0.1,0.1,0.2,0.4,0.1C75.3,25.4,75.3,25.3,75.1,25.1z M108.7,25.1c-0.1-0.1-0.3-0.1-0.4,0c-0.1,0.1-0.1,0.2,0,0.4
	c0.1,0,0.2,0,0.3,0C108.9,25.3,108.9,25.2,108.7,25.1z"/>
</svg>
