<!-- Generator: Adobe Illustrator 18.1.1, SVG Export Plug-In  -->
<svg version="1.1"
	 xmlns="http://www.w3.org/2000/svg" xmlns:xlink="http://www.w3.org/1999/xlink" xmlns:a="http://ns.adobe.com/AdobeSVGViewerExtensions/3.0/"
	 x="0px" y="0px" width="54.78px" height="14.59px" viewBox="0 0 54.78 14.59" enable-background="new 0 0 54.78 14.59"
	 xml:space="preserve">
<defs>
</defs>
<path fill="#868789" d="M6,6.58c0.77,0,1.5,0,2.14-0.23v2.01C7.52,8.51,6.87,8.59,6.18,8.59C2.77,8.59,0,7.01,0,4.23
	C0,2.19,1.97,0.48,4.64,0C2.62,0.41,1.15,1.73,1.15,3.28C1.15,5.17,2.64,6.58,6,6.58z M1.36,2.98c0,1.59,1.73,2.89,3.86,2.89
	c0.24,0,0.46-0.02,0.68-0.05V4.78H4.22v-1.2h4.66c0.05-0.19,0.08-0.4,0.08-0.6c0-1.59-1.61-2.89-3.74-2.89S1.36,1.38,1.36,2.98z
	 M9.89,7.75c-0.09-0.2-0.1-0.43-0.06-0.69c0.07-0.38,0.24-0.68,0.53-0.92c0.28-0.23,0.63-0.35,1.06-0.35c0.34,0,0.61,0.05,0.79,0.16
	c0.18,0.1,0.31,0.26,0.38,0.45c0.07,0.2,0.08,0.46,0.02,0.77l-0.02,0.1h-1.85c-0.01,0.15,0.01,0.26,0.06,0.33
	c0.07,0.1,0.18,0.16,0.32,0.16c0.09,0,0.18-0.02,0.27-0.07c0.05-0.03,0.12-0.08,0.19-0.15l0.89,0.08c-0.18,0.24-0.38,0.41-0.59,0.52
	c-0.22,0.1-0.51,0.16-0.87,0.16c-0.32,0-0.56-0.04-0.73-0.13C10.11,8.09,9.98,7.94,9.89,7.75z M10.82,6.84h0.91
	c0.01-0.18-0.01-0.31-0.08-0.38c-0.06-0.08-0.16-0.12-0.29-0.12c-0.15,0-0.27,0.06-0.38,0.17C10.91,6.59,10.86,6.69,10.82,6.84z
	 M13.55,4.93l-0.59,3.33h0.93l0.59-3.33H13.55z M17.31,7.63c-0.18,0.24-0.38,0.41-0.6,0.52c-0.22,0.1-0.51,0.16-0.87,0.16
	c-0.32,0-0.56-0.04-0.73-0.13c-0.16-0.09-0.29-0.23-0.38-0.43c-0.09-0.2-0.11-0.43-0.06-0.69c0.07-0.38,0.24-0.68,0.53-0.92
	c0.28-0.23,0.63-0.35,1.06-0.35c0.34,0,0.61,0.05,0.79,0.16c0.18,0.1,0.31,0.26,0.38,0.45c0.07,0.2,0.08,0.46,0.02,0.77l-0.02,0.1
	h-1.85c-0.01,0.15,0.01,0.26,0.06,0.33c0.07,0.1,0.18,0.16,0.32,0.16c0.09,0,0.18-0.02,0.27-0.07c0.06-0.03,0.12-0.08,0.19-0.15
	L17.31,7.63z M15.65,6.84h0.91c0.01-0.18-0.01-0.31-0.08-0.38c-0.06-0.08-0.16-0.12-0.29-0.12c-0.15,0-0.27,0.06-0.38,0.17
	C15.74,6.59,15.69,6.69,15.65,6.84z M18.09,8.01c0.1,0.11,0.24,0.18,0.4,0.23c0.16,0.05,0.37,0.07,0.62,0.07
	c0.26,0,0.49-0.04,0.68-0.11c0.18-0.07,0.34-0.18,0.48-0.31c0.14-0.13,0.24-0.29,0.32-0.48l-0.86-0.1
	c-0.06,0.13-0.14,0.22-0.24,0.29c-0.09,0.06-0.2,0.09-0.32,0.09c-0.15,0-0.26-0.05-0.33-0.16c-0.08-0.1-0.1-0.25-0.06-0.45
	c0.04-0.22,0.12-0.39,0.23-0.5c0.11-0.11,0.25-0.16,0.4-0.16c0.12,0,0.21,0.03,0.28,0.08c0.06,0.05,0.1,0.13,0.11,0.23l0.89-0.12
	C20.65,6.35,20.54,6.14,20.36,6c-0.18-0.14-0.47-0.21-0.86-0.21c-0.28,0-0.52,0.04-0.71,0.11c-0.12,0.05-0.24,0.12-0.37,0.21
	c-0.12,0.1-0.23,0.21-0.31,0.33c-0.11,0.16-0.19,0.37-0.24,0.62c-0.04,0.24-0.04,0.43,0,0.57C17.91,7.78,17.99,7.9,18.09,8.01z
	 M21.3,7.37c-0.05,0.27-0.06,0.46-0.03,0.58c0.03,0.12,0.1,0.21,0.2,0.27c0.1,0.06,0.26,0.09,0.49,0.09c0.2,0,0.42-0.03,0.65-0.07
	l0.05-0.64c-0.13,0.04-0.23,0.06-0.3,0.06c-0.08,0-0.12-0.03-0.14-0.08c-0.02-0.03-0.01-0.1,0.01-0.2l0.15-0.85h0.51l0.12-0.68H22.5
	l0.16-0.92L21.65,5.4l-0.08,0.44h-0.34l-0.12,0.68h0.34L21.3,7.37z M25.03,6.58l0.4-0.66c-0.15-0.09-0.29-0.13-0.43-0.13
	c-0.13,0-0.25,0.03-0.35,0.1c-0.1,0.07-0.21,0.18-0.32,0.35l0.07-0.39h-0.87l-0.42,2.41h0.93l0.14-0.81
	c0.07-0.39,0.16-0.65,0.28-0.79c0.08-0.1,0.19-0.15,0.31-0.15C24.85,6.51,24.93,6.53,25.03,6.58z M26.81,4.93h-0.92l-0.11,0.63h0.92
	L26.81,4.93z M26.23,8.26l0.42-2.41h-0.92L25.3,8.26H26.23z M29.41,7.89c0.14-0.13,0.24-0.29,0.32-0.48l-0.86-0.1
	c-0.06,0.13-0.14,0.22-0.23,0.29c-0.09,0.06-0.2,0.09-0.32,0.09c-0.15,0-0.26-0.05-0.33-0.16c-0.08-0.1-0.1-0.25-0.06-0.45
	c0.04-0.22,0.12-0.39,0.23-0.5c0.11-0.11,0.25-0.16,0.4-0.16c0.12,0,0.21,0.03,0.28,0.08c0.06,0.05,0.1,0.13,0.11,0.23l0.89-0.12
	C29.79,6.35,29.68,6.14,29.5,6c-0.18-0.14-0.47-0.21-0.86-0.21c-0.28,0-0.52,0.04-0.71,0.11c-0.12,0.05-0.25,0.12-0.37,0.21
	c-0.12,0.1-0.23,0.21-0.31,0.33c-0.11,0.16-0.19,0.37-0.24,0.62c-0.04,0.24-0.04,0.43,0,0.57c0.04,0.14,0.12,0.27,0.22,0.38
	c0.1,0.11,0.24,0.18,0.4,0.23c0.16,0.05,0.37,0.07,0.63,0.07c0.26,0,0.49-0.04,0.67-0.11C29.12,8.12,29.28,8.02,29.41,7.89z
	 M30.86,8.31c-0.29,0-0.49-0.07-0.62-0.2c-0.13-0.13-0.17-0.3-0.14-0.49c0.03-0.18,0.11-0.33,0.24-0.45
	c0.13-0.12,0.34-0.21,0.64-0.26c0.36-0.07,0.59-0.12,0.7-0.15c0.11-0.03,0.22-0.06,0.35-0.11c0.02-0.11,0.01-0.19-0.03-0.24
	c-0.04-0.05-0.12-0.07-0.23-0.07c-0.15,0-0.27,0.02-0.35,0.07c-0.07,0.04-0.13,0.11-0.18,0.21l-0.86-0.09
	c0.06-0.15,0.13-0.27,0.21-0.36c0.08-0.09,0.18-0.17,0.31-0.23c0.09-0.05,0.22-0.08,0.37-0.11c0.15-0.02,0.32-0.04,0.49-0.04
	c0.28,0,0.5,0.02,0.66,0.05c0.16,0.03,0.29,0.1,0.39,0.19c0.07,0.07,0.11,0.16,0.14,0.29c0.03,0.12,0.03,0.24,0,0.36l-0.19,1.06
	c-0.02,0.11-0.03,0.2-0.03,0.27c0,0.06,0.02,0.14,0.05,0.25H31.9c-0.02-0.06-0.04-0.11-0.04-0.14c-0.01-0.03-0.01-0.08-0.01-0.15
	c-0.14,0.12-0.28,0.2-0.4,0.25C31.27,8.28,31.08,8.31,30.86,8.31z M31.04,7.55c-0.01,0.07,0,0.13,0.04,0.18
	C31.13,7.77,31.2,7.8,31.3,7.8c0.1,0,0.2-0.02,0.3-0.07c0.1-0.05,0.17-0.11,0.22-0.18c0.05-0.07,0.08-0.17,0.11-0.28l0.03-0.15
	c-0.14,0.04-0.28,0.09-0.42,0.12c-0.2,0.05-0.32,0.1-0.38,0.15C31.09,7.43,31.05,7.49,31.04,7.55z M39.39,7.76
	c0.15-0.18,0.24-0.38,0.28-0.59c0.03-0.18,0.01-0.35-0.05-0.49c-0.06-0.15-0.18-0.27-0.36-0.37c-0.18-0.1-0.48-0.2-0.91-0.29
	c-0.18-0.04-0.28-0.08-0.32-0.12c-0.04-0.04-0.06-0.09-0.05-0.14c0.01-0.07,0.05-0.13,0.12-0.19c0.07-0.05,0.16-0.08,0.28-0.08
	c0.14,0,0.25,0.03,0.32,0.1c0.07,0.07,0.11,0.18,0.1,0.33l0.98-0.06c0.02-0.34-0.07-0.6-0.26-0.75c-0.19-0.16-0.5-0.24-0.93-0.24
	c-0.35,0-0.63,0.04-0.84,0.13c-0.21,0.09-0.38,0.21-0.51,0.36c-0.13,0.15-0.21,0.31-0.24,0.48c-0.04,0.26,0.01,0.47,0.18,0.64
	c0.16,0.17,0.46,0.3,0.89,0.4c0.26,0.06,0.43,0.12,0.49,0.19c0.06,0.07,0.09,0.15,0.07,0.23c-0.02,0.09-0.07,0.17-0.16,0.24
	c-0.09,0.07-0.21,0.1-0.36,0.1c-0.2,0-0.34-0.07-0.42-0.2c-0.05-0.08-0.07-0.2-0.06-0.36l-0.99,0.06c-0.03,0.34,0.04,0.61,0.22,0.83
	C37.06,8.2,37.44,8.31,38,8.31c0.32,0,0.6-0.05,0.83-0.14C39.06,8.08,39.24,7.94,39.39,7.76z M42.88,6.4
	c0.07,0.2,0.08,0.46,0.02,0.77l-0.02,0.1h-1.85c-0.01,0.15,0.01,0.26,0.06,0.33c0.07,0.1,0.18,0.16,0.32,0.16
	c0.09,0,0.18-0.02,0.27-0.07c0.05-0.03,0.12-0.08,0.19-0.15l0.89,0.08c-0.18,0.24-0.38,0.41-0.59,0.52
	c-0.22,0.1-0.51,0.16-0.88,0.16c-0.32,0-0.56-0.04-0.73-0.13c-0.17-0.09-0.29-0.23-0.38-0.43c-0.09-0.2-0.11-0.43-0.06-0.69
	c0.07-0.38,0.24-0.68,0.52-0.92c0.28-0.23,0.64-0.35,1.06-0.35c0.35,0,0.61,0.05,0.79,0.16C42.69,6.05,42.81,6.2,42.88,6.4z
	 M41.94,6.45c-0.07-0.08-0.16-0.12-0.29-0.12c-0.15,0-0.27,0.06-0.38,0.17c-0.07,0.07-0.12,0.18-0.17,0.32h0.91
	C42.03,6.66,42.01,6.53,41.94,6.45z M44.3,7.45c0.07-0.39,0.16-0.65,0.28-0.79c0.08-0.1,0.19-0.15,0.31-0.15
	c0.06,0,0.15,0.02,0.25,0.07l0.4-0.66c-0.15-0.09-0.29-0.13-0.42-0.13c-0.13,0-0.24,0.03-0.34,0.1c-0.1,0.07-0.21,0.18-0.32,0.35
	l0.07-0.39h-0.87l-0.42,2.41h0.93L44.3,7.45z M48.65,5.85h-0.93l-0.75,1.53l-0.2-1.53H45.8l0.58,2.41h0.82L48.65,5.85z M10.02,13.13
	c-0.12-0.06-0.31-0.12-0.56-0.18c-0.25-0.06-0.41-0.12-0.47-0.17c-0.05-0.04-0.08-0.09-0.08-0.15c0-0.07,0.03-0.12,0.08-0.16
	c0.08-0.06,0.2-0.09,0.35-0.09c0.15,0,0.25,0.03,0.33,0.09c0.07,0.06,0.12,0.15,0.14,0.28l0.51-0.02c-0.01-0.23-0.09-0.42-0.25-0.56
	c-0.16-0.14-0.4-0.21-0.72-0.21c-0.2,0-0.37,0.03-0.5,0.09c-0.14,0.06-0.24,0.14-0.32,0.26c-0.07,0.11-0.11,0.23-0.11,0.36
	c0,0.2,0.08,0.37,0.24,0.51c0.11,0.1,0.31,0.18,0.58,0.25c0.22,0.05,0.35,0.09,0.41,0.11c0.09,0.03,0.15,0.07,0.18,0.11
	c0.04,0.04,0.06,0.09,0.06,0.15c0,0.09-0.04,0.18-0.13,0.25c-0.08,0.07-0.21,0.1-0.38,0.1c-0.16,0-0.28-0.04-0.37-0.12
	c-0.09-0.08-0.15-0.2-0.18-0.37l-0.5,0.05c0.03,0.29,0.14,0.5,0.31,0.65c0.17,0.15,0.42,0.22,0.75,0.22c0.22,0,0.41-0.03,0.55-0.09
	c0.15-0.06,0.26-0.16,0.34-0.28c0.08-0.13,0.12-0.27,0.12-0.41c0-0.16-0.04-0.3-0.1-0.41C10.24,13.28,10.14,13.2,10.02,13.13z
	 M10.78,14.54h0.52v-2.55h-0.52V14.54z M13.3,13.13c-0.12-0.06-0.31-0.12-0.56-0.18c-0.25-0.06-0.41-0.12-0.48-0.17
	c-0.05-0.04-0.08-0.09-0.08-0.15c0-0.07,0.03-0.12,0.08-0.16c0.09-0.06,0.2-0.09,0.35-0.09c0.15,0,0.26,0.03,0.33,0.09
	c0.07,0.06,0.12,0.15,0.14,0.28l0.52-0.02c-0.01-0.23-0.09-0.42-0.25-0.56c-0.16-0.14-0.4-0.21-0.72-0.21c-0.2,0-0.36,0.03-0.5,0.09
	c-0.14,0.06-0.25,0.14-0.32,0.26c-0.07,0.11-0.11,0.23-0.11,0.36c0,0.2,0.08,0.37,0.23,0.51c0.11,0.1,0.31,0.18,0.58,0.25
	c0.22,0.05,0.35,0.09,0.41,0.11c0.09,0.03,0.15,0.07,0.19,0.11c0.04,0.04,0.05,0.09,0.05,0.15c0,0.09-0.04,0.18-0.13,0.25
	c-0.08,0.07-0.21,0.1-0.38,0.1c-0.16,0-0.28-0.04-0.37-0.12c-0.09-0.08-0.15-0.2-0.18-0.37l-0.5,0.05c0.03,0.29,0.14,0.5,0.31,0.65
	c0.17,0.15,0.42,0.22,0.75,0.22c0.22,0,0.41-0.03,0.56-0.09c0.15-0.06,0.26-0.16,0.34-0.28c0.08-0.13,0.12-0.27,0.12-0.41
	c0-0.16-0.03-0.3-0.1-0.41C13.52,13.28,13.42,13.2,13.3,13.13z M14.59,13.42h1.28v-0.43h-1.28v-0.57h1.38v-0.43h-1.89v2.55h1.94
	v-0.43h-1.43V13.42z M17.17,12.42h0.76v2.12h0.52v-2.12h0.76v-0.43h-2.03V12.42z M19.93,12.71c-0.06,0.04-0.13,0.12-0.21,0.25v-0.26
	h-0.45v1.85h0.49v-0.57c0-0.32,0.01-0.52,0.04-0.62c0.03-0.1,0.07-0.17,0.11-0.21c0.05-0.04,0.11-0.06,0.17-0.06
	c0.07,0,0.15,0.03,0.23,0.08l0.15-0.43c-0.1-0.06-0.21-0.09-0.32-0.09C20.06,12.65,19.99,12.67,19.93,12.71z M22.15,14.29
	c0.02,0.08,0.05,0.16,0.09,0.25h-0.48c-0.01-0.03-0.03-0.08-0.05-0.14c-0.01-0.03-0.01-0.05-0.02-0.06
	c-0.08,0.08-0.17,0.14-0.27,0.18c-0.1,0.04-0.2,0.06-0.3,0.06c-0.19,0-0.34-0.05-0.45-0.16c-0.11-0.1-0.17-0.23-0.17-0.39
	c0-0.11,0.03-0.2,0.08-0.28c0.05-0.08,0.12-0.15,0.21-0.19c0.09-0.04,0.22-0.08,0.39-0.11c0.23-0.04,0.39-0.08,0.48-0.12v-0.05
	c0-0.09-0.02-0.16-0.07-0.2c-0.05-0.04-0.14-0.06-0.26-0.06c-0.09,0-0.16,0.02-0.2,0.05c-0.05,0.03-0.09,0.09-0.12,0.18l-0.44-0.08
	c0.05-0.18,0.14-0.31,0.26-0.4c0.12-0.09,0.3-0.13,0.54-0.13c0.22,0,0.38,0.03,0.49,0.08c0.11,0.05,0.18,0.12,0.22,0.2
	c0.04,0.08,0.06,0.23,0.06,0.44l0,0.57C22.12,14.1,22.13,14.22,22.15,14.29z M21.65,13.65c-0.06,0.02-0.16,0.04-0.3,0.07
	c-0.14,0.03-0.22,0.06-0.27,0.08c-0.06,0.05-0.09,0.1-0.09,0.17c0,0.07,0.03,0.13,0.08,0.18c0.05,0.05,0.12,0.07,0.19,0.07
	c0.09,0,0.17-0.03,0.25-0.09c0.06-0.04,0.1-0.1,0.12-0.16c0.01-0.04,0.02-0.12,0.02-0.24V13.65z M24.12,12.86
	c-0.05-0.06-0.11-0.11-0.2-0.15c-0.09-0.04-0.19-0.06-0.3-0.06c-0.25,0-0.45,0.1-0.61,0.31v-0.27h-0.45v1.85h0.49V13.7
	c0-0.21,0.01-0.35,0.04-0.43c0.03-0.08,0.07-0.14,0.14-0.19c0.07-0.05,0.14-0.07,0.23-0.07c0.07,0,0.12,0.02,0.17,0.05
	c0.05,0.03,0.08,0.08,0.1,0.14c0.02,0.06,0.03,0.19,0.03,0.39v0.94h0.49v-1.15c0-0.14-0.01-0.25-0.03-0.33
	C24.2,12.99,24.17,12.92,24.12,12.86z M25.55,13.38c-0.26-0.06-0.41-0.11-0.46-0.14c-0.03-0.02-0.05-0.05-0.05-0.09
	c0-0.04,0.02-0.07,0.06-0.1c0.06-0.04,0.15-0.05,0.28-0.05c0.1,0,0.18,0.02,0.23,0.06c0.06,0.04,0.09,0.09,0.11,0.17l0.46-0.08
	c-0.05-0.16-0.13-0.28-0.25-0.37c-0.13-0.08-0.31-0.12-0.57-0.12c-0.27,0-0.46,0.05-0.59,0.16c-0.13,0.11-0.19,0.24-0.19,0.4
	c0,0.18,0.07,0.32,0.22,0.42c0.11,0.07,0.36,0.15,0.75,0.24c0.08,0.02,0.14,0.04,0.16,0.06c0.03,0.02,0.04,0.06,0.04,0.09
	c0,0.06-0.02,0.1-0.06,0.13c-0.06,0.05-0.16,0.07-0.29,0.07c-0.12,0-0.21-0.02-0.27-0.07c-0.06-0.05-0.11-0.12-0.13-0.22l-0.49,0.07
	c0.05,0.18,0.14,0.31,0.29,0.42c0.14,0.1,0.35,0.15,0.6,0.15c0.28,0,0.49-0.06,0.63-0.18c0.14-0.12,0.21-0.27,0.21-0.44
	c0-0.16-0.05-0.28-0.15-0.36C26,13.51,25.81,13.44,25.55,13.38z M26.63,14.54h0.49v-1.85h-0.49V14.54z M26.63,12.44h0.49v-0.45
	h-0.49V12.44z M27.58,14.54h0.49v-2.55h-0.49V14.54z M29.36,13.64c-0.02,0.05-0.04,0.1-0.05,0.16c-0.01,0.02-0.02,0.08-0.05,0.16
	l-0.1-0.32l-0.35-0.94h-0.51l0.75,1.85h0.44l0.74-1.85h-0.5L29.36,13.64z M31.98,14.29c0.02,0.08,0.05,0.16,0.09,0.25h-0.48
	c-0.01-0.03-0.03-0.08-0.05-0.14c-0.01-0.03-0.01-0.05-0.01-0.06c-0.08,0.08-0.17,0.14-0.27,0.18c-0.09,0.04-0.2,0.06-0.31,0.06
	c-0.19,0-0.34-0.05-0.45-0.16c-0.11-0.1-0.17-0.23-0.17-0.39c0-0.11,0.03-0.2,0.07-0.28c0.05-0.08,0.12-0.15,0.21-0.19
	c0.09-0.04,0.22-0.08,0.39-0.11c0.23-0.04,0.39-0.08,0.48-0.12v-0.05c0-0.09-0.02-0.16-0.07-0.2c-0.05-0.04-0.13-0.06-0.26-0.06
	c-0.09,0-0.15,0.02-0.2,0.05c-0.05,0.03-0.09,0.09-0.12,0.18l-0.44-0.08c0.05-0.18,0.13-0.31,0.26-0.4c0.12-0.09,0.3-0.13,0.54-0.13
	c0.22,0,0.38,0.03,0.49,0.08c0.11,0.05,0.18,0.12,0.23,0.2c0.04,0.08,0.07,0.23,0.07,0.44l0,0.57
	C31.96,14.1,31.97,14.22,31.98,14.29z M31.49,13.65c-0.06,0.02-0.16,0.04-0.3,0.07c-0.13,0.03-0.23,0.06-0.27,0.08
	c-0.06,0.05-0.09,0.1-0.09,0.17c0,0.07,0.02,0.13,0.08,0.18c0.05,0.05,0.11,0.07,0.19,0.07c0.09,0,0.17-0.03,0.25-0.09
	c0.06-0.04,0.1-0.1,0.12-0.16c0.01-0.04,0.02-0.12,0.02-0.24V13.65z M33.96,12.86c-0.05-0.06-0.11-0.11-0.2-0.15
	c-0.09-0.04-0.19-0.06-0.3-0.06c-0.25,0-0.45,0.1-0.61,0.31v-0.27H32.4v1.85h0.49V13.7c0-0.21,0.01-0.35,0.04-0.43
	c0.03-0.08,0.07-0.14,0.14-0.19c0.07-0.05,0.14-0.07,0.23-0.07c0.06,0,0.12,0.02,0.17,0.05c0.04,0.03,0.08,0.08,0.1,0.14
	c0.02,0.06,0.03,0.19,0.03,0.39v0.94h0.49v-1.15c0-0.14-0.01-0.25-0.03-0.33C34.04,12.99,34.01,12.92,33.96,12.86z M34.54,12.44
	h0.49v-0.45h-0.49V12.44z M34.54,14.54h0.49v-1.85h-0.49V14.54z M37,14.29c0.02,0.08,0.04,0.16,0.09,0.25H36.6
	c-0.01-0.03-0.03-0.08-0.05-0.14c-0.01-0.03-0.01-0.05-0.02-0.06c-0.08,0.08-0.17,0.14-0.27,0.18c-0.09,0.04-0.2,0.06-0.31,0.06
	c-0.19,0-0.34-0.05-0.45-0.16c-0.11-0.1-0.17-0.23-0.17-0.39c0-0.11,0.03-0.2,0.08-0.28c0.05-0.08,0.12-0.15,0.21-0.19
	c0.09-0.04,0.22-0.08,0.39-0.11c0.23-0.04,0.39-0.08,0.48-0.12v-0.05c0-0.09-0.02-0.16-0.07-0.2c-0.04-0.04-0.13-0.06-0.26-0.06
	c-0.09,0-0.16,0.02-0.21,0.05c-0.05,0.03-0.09,0.09-0.12,0.18l-0.44-0.08c0.05-0.18,0.14-0.31,0.26-0.4
	c0.12-0.09,0.3-0.13,0.54-0.13c0.22,0,0.38,0.03,0.49,0.08c0.11,0.05,0.18,0.12,0.22,0.2c0.04,0.08,0.06,0.23,0.06,0.44l0,0.57
	C36.98,14.1,36.98,14.22,37,14.29z M36.5,13.65c-0.06,0.02-0.16,0.04-0.3,0.07c-0.13,0.03-0.22,0.06-0.26,0.08
	c-0.07,0.05-0.1,0.1-0.1,0.17c0,0.07,0.02,0.13,0.08,0.18c0.05,0.05,0.12,0.07,0.19,0.07c0.09,0,0.17-0.03,0.25-0.09
	c0.06-0.04,0.1-0.1,0.12-0.16c0.01-0.04,0.02-0.12,0.02-0.24V13.65z M39.92,13.69l-1.05-1.71h-0.5v2.55h0.48v-1.67l1.03,1.67h0.52
	v-2.55h-0.48V13.69z M42.42,12.92c0.18,0.18,0.27,0.41,0.27,0.69c0,0.28-0.09,0.51-0.27,0.7c-0.18,0.18-0.41,0.28-0.68,0.28
	c-0.17,0-0.33-0.04-0.49-0.12c-0.15-0.08-0.27-0.19-0.35-0.34c-0.08-0.15-0.12-0.33-0.12-0.54c0-0.16,0.04-0.32,0.12-0.47
	c0.08-0.15,0.19-0.27,0.34-0.35c0.15-0.08,0.31-0.12,0.49-0.12C42.01,12.65,42.24,12.74,42.42,12.92z M42.19,13.61
	c0-0.18-0.04-0.32-0.13-0.42c-0.09-0.1-0.2-0.15-0.32-0.15c-0.13,0-0.23,0.05-0.32,0.15c-0.09,0.1-0.13,0.24-0.13,0.42
	c0,0.18,0.04,0.32,0.13,0.42c0.09,0.1,0.19,0.15,0.32,0.15c0.13,0,0.23-0.05,0.32-0.15C42.14,13.94,42.19,13.8,42.19,13.61z
	 M43.67,12.71c-0.06,0.04-0.13,0.12-0.21,0.25v-0.26h-0.46v1.85h0.49v-0.57c0-0.32,0.02-0.52,0.04-0.62
	c0.03-0.1,0.06-0.17,0.11-0.21c0.05-0.04,0.11-0.06,0.17-0.06c0.07,0,0.15,0.03,0.23,0.08l0.15-0.43c-0.1-0.06-0.21-0.09-0.32-0.09
	C43.8,12.65,43.73,12.67,43.67,12.71z M45.58,11.99h0.49v2.55h-0.46v-0.27c-0.08,0.11-0.16,0.18-0.27,0.24
	c-0.1,0.05-0.21,0.08-0.31,0.08c-0.21,0-0.39-0.09-0.55-0.26c-0.15-0.17-0.23-0.41-0.23-0.72c0-0.31,0.07-0.55,0.22-0.72
	c0.15-0.16,0.33-0.24,0.56-0.24c0.21,0,0.39,0.09,0.54,0.26V11.99z M45.58,13.62c0-0.21-0.04-0.37-0.12-0.46
	c-0.08-0.09-0.18-0.14-0.29-0.14c-0.12,0-0.21,0.05-0.29,0.14c-0.08,0.09-0.12,0.23-0.12,0.41c0,0.2,0.03,0.34,0.08,0.43
	c0.08,0.13,0.19,0.19,0.33,0.19c0.11,0,0.21-0.05,0.29-0.14C45.54,13.96,45.58,13.81,45.58,13.62z M48.23,9.16
	c0.14,0,0.25,0.03,0.35,0.09c0.07,0.04,0.12,0.11,0.15,0.2l0.6-0.1c-0.04-0.2-0.14-0.35-0.3-0.47c-0.16-0.11-0.39-0.17-0.7-0.17
	c-0.39,0-0.68,0.1-0.88,0.29c-0.14,0.14-0.21,0.31-0.21,0.5c0,0.19,0.07,0.35,0.22,0.47c0.09,0.08,0.34,0.18,0.73,0.31
	c0.15,0.05,0.24,0.09,0.27,0.12c0.03,0.03,0.05,0.08,0.05,0.12c0,0.07-0.03,0.12-0.09,0.17c-0.09,0.07-0.21,0.1-0.36,0.1
	c-0.14,0-0.26-0.03-0.34-0.08c-0.08-0.06-0.15-0.15-0.21-0.29l-0.63,0.1c0.07,0.24,0.2,0.42,0.39,0.55c0.19,0.13,0.46,0.2,0.81,0.2
	c0.35,0,0.62-0.08,0.81-0.26c0.19-0.17,0.29-0.37,0.29-0.6c0-0.18-0.08-0.33-0.23-0.46c-0.11-0.09-0.32-0.18-0.64-0.28
	c-0.21-0.06-0.33-0.1-0.37-0.13c-0.06-0.04-0.09-0.09-0.09-0.15c0-0.06,0.03-0.11,0.09-0.16C48,9.18,48.1,9.16,48.23,9.16z
	 M49.75,11.21h0.64l0.13-0.64h-0.64L49.75,11.21z M53.28,8.9c0.15,0.13,0.22,0.28,0.22,0.46c0,0.07-0.01,0.15-0.02,0.23
	c-0.01,0.08-0.06,0.3-0.13,0.66c-0.06,0.29-0.09,0.5-0.09,0.61c0,0.1,0.02,0.22,0.05,0.35h-0.63c-0.02-0.09-0.04-0.18-0.05-0.28
	c-0.09,0.11-0.21,0.19-0.33,0.25c-0.12,0.06-0.25,0.09-0.38,0.09c-0.2,0-0.37-0.07-0.5-0.2c-0.13-0.13-0.19-0.31-0.19-0.51
	c0-0.23,0.07-0.42,0.21-0.56c0.14-0.14,0.4-0.23,0.77-0.25c0.31-0.03,0.52-0.06,0.62-0.09c0.03-0.09,0.04-0.16,0.04-0.22
	c0-0.07-0.03-0.13-0.08-0.18c-0.05-0.05-0.14-0.07-0.25-0.07c-0.12,0-0.21,0.02-0.27,0.07c-0.07,0.05-0.11,0.12-0.14,0.21L51.49,9.4
	c0.07-0.22,0.2-0.39,0.38-0.51c0.18-0.12,0.42-0.19,0.72-0.19C52.9,8.71,53.13,8.77,53.28,8.9z M52.75,10.07
	c-0.04,0.01-0.09,0.02-0.16,0.03c-0.33,0.04-0.54,0.1-0.64,0.18c-0.07,0.06-0.11,0.13-0.11,0.22c0,0.08,0.03,0.14,0.08,0.2
	c0.05,0.05,0.13,0.08,0.22,0.08c0.1,0,0.19-0.02,0.28-0.07c0.09-0.05,0.15-0.11,0.2-0.19c0.04-0.08,0.08-0.2,0.12-0.36L52.75,10.07z
	 M54.13,10.57L54,11.21h0.64l0.13-0.64H54.13z"/>
</svg>
