<!-- Generator: Adobe Illustrator 22.1.0, SVG Export Plug-In  -->
<svg version="1.1"
	 xmlns="http://www.w3.org/2000/svg" xmlns:xlink="http://www.w3.org/1999/xlink" xmlns:a="http://ns.adobe.com/AdobeSVGViewerExtensions/3.0/"
	 x="0px" y="0px" width="135px" height="20px" viewBox="0 0 135 20" enable-background="new 0 0 135 20" xml:space="preserve">
<defs>
</defs>
<path fill="#868789" d="M14.4,2.7c-2-3.5-5.4-3.5-7.4,0L1.6,12h3h0.8h11.3c1,0,1.6,1.1,0.9,1.7l-5.3,3.6c-1,0.5-1.9,0.5-2.8,0
	c0,0-3.8-2.6-4.8-3.2c-0.6-0.4-1.3-0.7-2.3-0.7c0,0,0,0-1.6,0c-2,3.5-0.4,6.4,3.7,6.4h12.3c4.1,0,5.7-2.9,3.7-6.4L14.4,2.7z
	 M13.3,10.5H8.5c-0.8,0-1.1-0.6-0.6-1.2l2.4-3c0.5-0.6,0.7-0.6,1.3,0l2.4,2.9C14.3,9.8,14,10.5,13.3,10.5z M124.1,12.9
	c0.1-1.8-1-2.9-3.4-3.3h-5.5l-0.9,7.7c0.4,0.3,0.6,0.8,0.6,1.5c0,0.1,0,0.3,0,0.4l2.6,0l0.4-3h0.6l1.6,3h3.8l-1.6-3.1
	C123.5,15.3,124.1,14.2,124.1,12.9z M120,13.7l-1.8,0l0.2-1.7h1.8c0.7,0.1,1,0.4,0.9,0.9C121,13.4,120.6,13.7,120,13.7z M131.5,9.5
	l-2.7,0c-2.6,0-4,1.7-4.4,5c-0.4,3.3,0.6,4.9,3,4.9h3.7c2.3,0,3.6-1.7,3.8-5.1C135.3,11.1,134.2,9.5,131.5,9.5z M131.7,14.3
	c-0.1,1-0.3,1.6-0.6,1.9c-0.2,0.4-0.6,0.6-1.1,0.6l-1.4,0c-0.5-0.1-0.8-0.3-1-0.8c-0.1-0.2-0.1-0.7,0-1.6c0.1-0.9,0.3-1.4,0.5-1.7
	c0.3-0.5,0.8-0.8,1.5-0.9h0.7c0.5,0,0.9,0.2,1.2,0.5C131.7,12.7,131.8,13.3,131.7,14.3z M40.3,2.8c0.4,0,0.7,0,0.9,0
	c0,0.3,0,0.5-0.1,0.7l-0.3,2.5c-0.1,0.5-0.4,0.8-0.8,0.8h-4c-1,0-1.8,0.4-2.2,1.2l-0.1,0.9l6.7,0l-0.5,3.9l-6.6,0l-0.8,6.4h-5.9
	L28,9c0.4-3.9,2.8-6,7.1-6.1L40.3,2.8z M48.7,2.8h6.1l-0.4,3.2c-0.1,0.5-0.4,0.8-0.8,0.8l-3.9,0c-1,0-1.6,0.2-1.8,0.6l-0.5,1.4
	l6.6,0l-0.5,3.9l-6.5,0l0,0.9c0,0.8,0.4,1.2,1,1.3l5.3,0l-0.5,4.3h-6.5c-4-0.2-5.6-2.9-5-8.2C42,5.7,44.4,3,48.7,2.8z M77.3,2.9
	l-7.5,0l-2,16.3l7.9,0c4-0.2,6.3-2.9,7-8.2C83.4,5.8,81.6,3.1,77.3,2.9z M77.9,11.1c-0.2,1.3-0.5,2.3-0.9,2.9
	c-0.4,0.6-0.9,1-1.8,1.1l-1.8,0l1-8.2h1.3c0.9,0,1.5,0.3,1.8,0.9C78,8.7,78.1,9.8,77.9,11.1z M111.9,17l-1.6-3.2
	c2.1-1.3,3.2-3.2,3.3-5.5c0.2-3.1-1.7-5-5.9-5.6h-9.2l-2,16.4l5.9,0l0.6-5.1h0.8l2.7,5.2h4.4l0-0.3C110.9,18,111.2,17.4,111.9,17z
	 M108.3,8.4c-0.2,0.9-0.8,1.3-1.9,1.3l-2.8,0l0.3-2.8h2.9C108,7.1,108.5,7.6,108.3,8.4z M61.5,7.5l-0.5,1.4l6.6,0l-0.5,3.9l-6.5,0
	l0,0.9c0,0.8,0.4,1.2,1,1.3l5.3,0l-0.5,4.3H60c-4-0.2-5.6-2.9-5-8.2c0.6-5.3,3.1-8,7.3-8.2h6.1L68,6.1c-0.1,0.5-0.4,0.8-0.8,0.8
	l-3.9,0C62.3,6.8,61.7,7,61.5,7.5z M90.2,7.5l-0.5,1.4l6.6,0l-0.5,3.9l-6.5,0l0,0.9c0,0.8,0.4,1.2,1,1.3l5.3,0l-0.5,4.3h-6.5
	c-4-0.2-5.6-2.9-5-8.2c0.6-5.3,3.1-8,7.3-8.2h6.1l-0.4,3.2c-0.1,0.5-0.4,0.8-0.8,0.8l-3.9,0C91,6.8,90.4,7,90.2,7.5z M114,18.8
	c0,0.8-0.4,1.1-1.2,1.2c-0.7-0.1-1-0.4-1.1-1c0-0.8,0.4-1.2,1.1-1.3C113.6,17.7,114,18,114,18.8z"/>
</svg>
