<!-- Generator: Adobe Illustrator 19.2.1, SVG Export Plug-In  -->
<svg version="1.1"
	 xmlns="http://www.w3.org/2000/svg" xmlns:xlink="http://www.w3.org/1999/xlink" xmlns:a="http://ns.adobe.com/AdobeSVGViewerExtensions/3.0/"
	 x="0px" y="0px" width="244.6px" height="119.4px" viewBox="0 0 244.6 119.4" enable-background="new 0 0 244.6 119.4"
	 xml:space="preserve">
<defs>
</defs>
<path fill-rule="evenodd" clip-rule="evenodd" fill='#868789' d="M234.9,35.3c0.2,1.9,0.2,3.9,0.6,5.8c0.2,1.3,0.8,2.6,1.5,3.7
	c1.5,2.4,3.3,4.8,4.9,7.2c1.5,2.2,2.7,4.5,2.8,7.2c0.1,2.2-0.4,4.2-1.5,6c-1.6,2.6-3.2,5-5,7.5c-2.1,3-3.1,6.2-3.1,9.8
	c0,2.7-0.1,5.5-0.3,8.2c-0.3,4.2-2.4,7.2-6.2,9c-2,0.9-4,1.6-6.1,2.3c-2.6,0.9-5.3,1.7-7.6,3.5c-1.8,1.5-3.1,3.4-4.5,5.3
	c-1.4,1.8-2.7,3.5-4.2,5.2c-2.9,3.2-6.6,4-10.7,3c-2.8-0.7-5.5-1.6-8.2-2.4c-3.3-1-6.6-1-9.9,0.1c-2.7,0.8-5.4,1.7-8.1,2.3
	c-4,0.9-7.7,0.2-10.5-2.9c-2-2.3-3.9-4.7-5.7-7.1c-1.6-2.1-3.4-4.1-6-5.1c-1.9-0.8-4-1.4-6-2.1c-3.1-1.1-6.1-2.1-8.4-4.5
	c-1.2-1.2-1.8-2.7-2.3-4.3c-0.8-2.4-0.7-4.8-0.7-7.3c0-2.2-0.1-4.5-0.3-6.7c-0.2-2.3-1.4-4.3-2.7-6.2c-1.7-2.4-3.4-4.8-4.9-7.3
	c-2.2-3.7-2.1-7.6,0.1-11.4c1.4-2.4,3.1-4.7,4.7-7c2.2-3,3.2-6.4,3.2-10.1c0-2.6,0.1-5.2,0.2-7.7c0.3-4.8,2.8-8,7.2-9.8
	c2.5-1,5.2-1.9,7.8-2.8c3.1-1,5.7-2.8,7.6-5.4c1.5-2,2.9-4,4.5-5.9c1.1-1.2,2.3-2.4,3.6-3.4c2.4-1.8,5.2-2.1,8.1-1.5
	c2.4,0.5,4.7,1.3,7.1,2c2.3,0.7,4.5,1.4,6.9,1.3c2.2-0.1,4.3-0.7,6.4-1.3c2.4-0.7,4.7-1.5,7.2-2c3.7-0.8,7.1,0.1,9.7,2.9
	c1.9,2.1,3.6,4.4,5.3,6.6c1.8,2.3,3.5,4.6,6.3,5.7c1.9,0.8,3.8,1.5,5.8,2.1c2.4,0.8,4.8,1.6,6.9,3.1c2.7,1.8,4.1,4.3,4.5,7.5
	c0.3,2.4,0.4,4.8,0.5,7.2C235.1,35.3,235,35.3,234.9,35.3 M142.5,53.5c-0.2,0.3-0.3,0.4-0.3,0.5c-0.5,1.4-1,2.7-1.5,4.1
	c-0.6,1.6-1.1,3.2-1.7,4.7c-0.5,1.4-0.9,2.8-1.3,4.3c-0.5,1.5-1,2.9-1.5,4.4c-0.5,1.4-0.9,2.8-1.3,4.2c-0.5,1.5-1,2.9-1.4,4.4
	c-0.5,1.6-1,3.2-1.5,4.9c-0.2,0.8-0.5,1.6-0.5,2.5c0,1,0.1,2,0.2,3c0.4,4,2.5,6.7,6.2,8.1c2.5,0.9,5,1.8,7.4,2.6
	c3.1,1.1,5.8,2.7,7.9,5.3c1.4,1.8,2.7,3.6,4.1,5.4c0.8,1.1,1.6,2.1,2.6,3c2.8,2.8,6.1,3.2,9.8,2.2c2.6-0.8,5.2-1.5,7.8-2.3
	c3.7-1.1,7.2-0.8,10.8,0.3c2.6,0.8,5.3,1.6,8,2.3c3.5,0.9,6.5-0.2,8.8-2.9c1.7-2,3.3-4.1,4.9-6.2c2.3-3,5-5.5,8.6-6.7
	c2.4-0.8,4.9-1.7,7.3-2.6c1.8-0.7,3.5-1.6,4.8-3c0.4-0.5,0.5-0.9,0.1-1.4c-1.1-1.7-2.2-3.5-3.2-5.2c-0.2-0.4-0.5-0.4-0.9-0.4
	c-0.6,0.1-1.3,0.2-1.9,0.2c-13.2,0-26.5,0-39.7,0c-1.9,0-3.9,0.3-5.8-0.6c-0.8,2.9-1.5,5.6-2.2,8.4c-0.1,0-0.2,0-0.3,0
	c-0.1-0.4-0.3-0.8-0.5-1.2c-0.2-0.6-0.4-1.3-0.6-2c-0.4-1.3-0.9-2.6-1.3-4c-0.6-1.9-1.2-3.7-1.8-5.6c-0.4-1.3-0.9-2.5-1.3-3.7
	c-0.5-1.3-0.9-2.7-1.3-4c-0.2-0.4-0.4-0.7-0.9-0.4c-1.9,1.1-3.8,2.2-5.7,3.2c-5.3,3-10.6,6-15.9,9c-0.3,0.1-0.6,0.3-0.9,0.2
	c-2.3-0.2-4.1-2.1-4-4.4c0-9.9,0-19.8,0-29.7C142.6,54.2,142.6,53.9,142.5,53.5 M203.8,17.1c0.9-1.1,1.7-2.1,2.7-3
	c0.9-0.9,2-1.7,3-2.6c0.1-0.1,0.2-0.6,0-0.8c-1.6-2-3.1-4.1-4.8-6c-2.5-2.8-5.8-3.4-9.3-2.4c-2.7,0.7-5.4,1.6-8.1,2.4
	c-3.3,1-6.5,1-9.8,0.1c-2.7-0.8-5.4-1.7-8.2-2.4c-3.9-1.1-7.4-0.3-10,2.9c-1.5,1.8-2.9,3.6-4.3,5.5c-2.7,3.8-6.1,6.5-10.6,7.9
	c-2.5,0.7-4.9,1.7-7.3,2.7c-3,1.3-4.9,3.6-5.2,6.9c-0.3,2.8-0.2,5.7-0.4,8.5c-0.1,1.7-0.3,3.4-0.6,5c-0.4,2.4-1.8,4.4-3.1,6.4
	c-1.5,2.3-3.2,4.5-4.6,6.9c-1.7,2.8-2,5.9-0.3,8.8c1.4,2.4,3,4.7,4.6,7c1.5,2.2,2.9,4.3,3.5,6.9c0.1,0.7,0.2,1.3,0.3,2
	c0.1,0,0.1,0,0.2,0c0.1-0.2,0.2-0.4,0.3-0.6c0.2-0.7,0.4-1.5,0.6-2.2c0.4-1.4,0.9-2.8,1.3-4.1c0.5-1.5,0.9-2.9,1.4-4.4
	c0.7-2.1,1.4-4.2,2.1-6.4c0.7-2.1,1.4-4.2,2.1-6.2c0.7-1.9,1.4-3.8,2.2-5.8c1.1-2.7,2.3-5.4,3.4-8.2c0.2-0.4,0.1-0.6-0.2-0.8
	c-0.4-0.4-0.9-0.8-1.1-1.2c-0.4-0.7-0.6-0.6-1.2-0.2c-1.6,1.2-3.4,1.3-5.2,0.5c-2-0.9-3-2.5-3.1-4.7c-0.1-2.7,1.8-4.9,4.5-5.3
	c0.2,0,0.6-0.3,0.6-0.5c0.2-0.7,0.1-1.5,0.3-2.2c0.9-3.3,4.4-5.2,7.8-4.1c2.5,0.8,3.9,2.6,4.3,5.2c0.1,0.5,0.2,0.6,0.7,0.6
	c0.8,0,1.6,0.1,2.3,0.4c3,1.5,3.6,5,1.3,7.5c-0.2,0.2-0.3,0.6-0.2,0.8c1.4,2.7,3,5.3,4.2,8.1c1.8,3.8,3.3,7.8,5,11.7
	c0.4,0.8,0.7,1.5,1.6,2c1.5,0.8,3,1.7,4.5,2.5c0.5,0.3,0.8,0.7,0.8,1.3c0,3.1,0,6.2,0,9.2c0,0.7,0.2,1.4-0.4,2
	c-0.1,0.1,0,0.4,0.1,0.6c0.4,1.3,0.9,2.6,1.3,3.9c0.4,1.2,0.8,2.5,1.3,3.7c0.5,1.4,1,2.8,1.4,4.2c0.3,0.9,0.6,1.9,0.9,2.8
	c0.1,0,0.2,0.1,0.3,0.1c0.1-0.1,0.1-0.3,0.2-0.4c0.2-0.8,0.4-1.5,0.5-2.3c0-0.2,0-0.4-0.1-0.5c-0.9-1.5-0.8-3.1-0.8-4.7
	c0-7,0-13.9,0-20.8c0-2.8,2.2-5,5-5c1.8,0,3.5,0,5.2,0c0.6,0,0.9-0.1,1.2-0.7c0.2-0.7,0.7-1.4,1-2.1c0.2-0.5,0.1-0.8-0.5-0.8
	c-1,0-2,0-3.1,0c-3.5,0.1-6.8-0.7-10-2.1c-7.7-3.6-12-9.7-13.2-18c-0.5-3.5-0.1-7,1.2-10.3c1.3-3.5,3.3-6.5,6.1-9.1
	c3.8-3.5,8.3-5.3,13.3-5.9c3.6-0.4,7.1,0.2,10.4,1.5c4.1,1.6,7.4,4.3,10,7.8C203.5,16.8,203.7,16.9,203.8,17.1 M204.5,52.7
	c1,1.3,1.9,2.3,2.8,3.4c0.1,0.1,0.5,0.1,0.7,0.1c5.8,0,11.5,0.1,17.3,0c2.6,0,5.1,2.4,5,5.1c-0.1,7.5,0,14.9,0,22.4
	c0,1.3-0.3,2.5-1.1,3.6c-0.2,0.2-0.2,0.7,0,0.9c0.8,1.4,1.7,2.7,2.5,4c0.1,0.2,0.3,0.3,0.5,0.5c0.1,0,0.1,0,0.2-0.1
	c0.2-1,0.4-2,0.5-3c0.1-3,0.2-6,0.3-9c0.1-2.8,0.8-5.3,2.3-7.6c1.6-2.5,3.4-4.9,5.1-7.4c2.2-3.3,2.9-6.9,0.8-10.5
	c-1.3-2.2-2.8-4.3-4.3-6.4c-0.6-0.9-0.6-0.9-1.5-0.2c-1.7,1.2-3.6,2.2-5.6,2.8c-1.1,0.3-2.2,0.6-3.3,0.9c-1,0.2-2,0.5-3.1,0.5
	c-6.1,0-12.3,0-18.4,0C205.1,52.7,205,52.7,204.5,52.7 M175.3,30c0,5.3,4.3,9.8,9.8,9.7c5.7,0,9.6-4.6,9.7-9.6
	c0.1-5.5-4.3-10-9.7-10.1C179.6,20.1,175.1,24.7,175.3,30 M212.9,29.9c0,5.2,3.9,9.8,9.7,9.8c5.6,0.1,9.9-4.3,9.8-9.9
	c0-5.4-4.2-9.7-9.8-9.7C217.2,20.1,212.9,24.5,212.9,29.9 M162.6,57.2c0-0.1,0.1-0.1,0.2-0.2c-0.1-0.2-0.1-0.4-0.2-0.7
	c-1.2-2.9-2.4-5.8-3.8-8.6c-1.4-3-3-5.9-4.5-8.8c-0.4-0.8-1.9-0.8-2.3,0.1c-0.9,1.8-2.3,2.8-4.3,2.9c-0.3,0-0.7,0.3-0.9,0.6
	c-0.8,1.7-1.6,3.5-2.3,5.2c-0.2,0.5-0.3,0.9-0.5,1.4c0.1,0,0.1,0.1,0.2,0.1c0.2-0.1,0.4-0.3,0.6-0.4c0.9-0.4,1.8-0.8,2.9-0.2
	c4.5,2.6,9,5.1,13.5,7.7C161.8,56.7,162.2,57,162.6,57.2 M204.9,56.2c-1-1.2-1.8-2.1-2.6-3.1c-0.4-0.4-0.8-0.5-1.4-0.5
	c-2.8,0-5.5,0-8.3,0c-0.7,0-1,0.3-1.2,0.8c-0.3,0.7-0.6,1.3-0.9,2c-0.4,0.8-0.4,0.9,0.6,0.9h12.8C204.1,56.3,204.4,56.2,204.9,56.2
	 M187.8,76.2c-1.6,0-2.8,1.3-2.8,2.8c0,1.5,1.3,2.7,2.8,2.7c1.5,0,2.8-1.3,2.8-2.8C190.6,77.4,189.3,76.2,187.8,76.2 M200.7,78.9
	c0-1.5-1.1-2.7-2.6-2.7c-1.6,0-2.9,1.2-2.9,2.7c0,1.5,1.2,2.8,2.7,2.8C199.4,81.7,200.7,80.5,200.7,78.9 M99.8,56.1
	c-0.5,0.6-0.9,1.2-1.4,1.7c-2.9,2.8-7.2,2.4-9.4-1c-0.3-0.4-0.5-0.4-0.9-0.1c-1,0.8-2,1.8-3.2,2.4c-3.4,1.6-8.4,0.9-10.3-3
	c0-0.1-0.1-0.1-0.2-0.2c-0.2,0.3-0.3,0.5-0.5,0.7c-0.9,1.5-2,2.7-3.8,3c-2.3,0.3-4.8-1.3-5.1-3.6c-0.4-2.6-0.4-5.1-0.7-7.7
	c-0.1-1.1-0.2-2.1-0.5-3.2c-0.3-1.2-1-2.3-2.5-2.4c-1.5-0.2-2.8,0.3-3.7,1.5c-0.8,1.1-1,2.4-1.1,3.8c-0.2,2.7,0.3,5.2,1.3,7.7
	c0.2,0.5,0.3,1.1,0.3,1.6c0.1,1.5-0.3,2-1.4,2.4c-1,0.4-2.1-0.1-2.8-1.1c-0.8-1.2-0.9-2.6-1.1-3.9c-0.2-2.4-0.3-4.8-0.5-7.2
	c-0.1-1-0.4-2-0.7-2.9c-1-2.4-4.2-2.7-5.7-0.6c-1.1,1.5-1.3,3.2-1.6,5c-0.4,2.5,0.6,4.7,1.3,7c0.2,0.7,0.3,1.4,0.2,2.1
	c-0.1,1.3-1.6,2.1-2.8,1.6c-1-0.4-1.6-1.3-2.1-2.4c-1.7,2-3.9,2.6-6.4,2.2c-2.5-0.3-4.3-1.8-5.7-4c-1.2,2.4-2.8,4-5.5,4.1
	c-2.5,0.1-4.6-0.7-6.2-2.8c-1.3,1.4-2.8,2.3-4.5,2.5c-1.7,0.2-3.4,0-5.2-0.6c0.2,1.1,0.5,2,0.6,2.9c0.4,2.5,0.9,4.9,1.3,7.4
	c0.4,2.4,0.4,4.8-0.1,7.2c-0.2,0.9-0.6,1.8-1.6,2c-1,0.2-1.9,0.1-2.6-0.8c-0.6-0.7-0.6-1.5-0.4-2.2c0.9-2.6,0.9-5.2,0.7-7.8
	c-0.3-4.7-1.1-9.4-2.2-14c-0.1-0.4-0.2-0.7-0.7-0.7c-1.1-0.1-1.9-0.9-2.2-2c-0.2-1.2,0.2-2.5,1.2-3c0.5-0.3,0.5-0.5,0.5-1.1
	c-0.4-2.8-0.7-5.6-1-8.5c-0.1-1.2-0.2-2.4-0.2-3.6c0.1-2.9,0.1-5.8,1-8.6c0.6-2,1.6-3.7,3.7-4.4c1.4-0.5,2.9-0.1,3.8,1.2
	c1.3,1.7,1.8,3.7,1.9,5.8c0.2,4-0.3,7.9-1.3,11.7c-0.7,2.8-1.9,5.5-3.3,8c-0.6,1.1-1,2-0.5,3.3c0.8,2.1,1.8,4,4.1,4.8
	c2.5,0.8,4.8,0.2,5.9-2.4c0.1-0.3,0.2-0.6,0.2-0.9c0-2.6-0.1-5.3-0.2-7.9c0-0.8-0.2-1.5-0.2-2.3c0-1,0.4-1.7,1.1-1.9
	c0.8-0.3,1.9,0.1,2.4,0.8c0.7,0.9,0.9,1.9,0.9,3c-0.1,2.3-0.3,4.5-0.3,6.8c0,1.5,0.1,3.1,1.3,4.3c1.4,1.4,3.1,1.4,4.5,0.1
	c0.9-0.8,1.5-1.8,1.7-3c0.1-0.6-0.2-1.3-0.4-1.9c-1.5-4.4-2.4-9-2.3-13.6c0-2.7,0-5.4,0.3-8.1c0.2-2.1,0.6-4.3,1.8-6.1
	c0.5-0.7,1.1-1.4,1.9-1.8c1.3-0.7,2.6-0.4,3.7,0.8c1.3,1.3,2,2.8,2.3,4.5c0.7,3.6,0.4,7.2-0.1,10.8c-0.7,4.4-2.1,8.7-3.7,12.9
	c-0.2,0.5-0.2,1.1,0,1.5c0.7,1.8,1.6,3.4,3.5,4.3c3,1.5,6.3-0.5,6.3-3.9c0-3.1-0.1-6.1-0.1-9.2c0-0.2,0-0.5,0-0.7
	c0.1-1.4,1.6-2.2,2.8-1.4c0.5,0.4,0.9,0.3,1.3-0.1c2.5-2,6.3-1.9,8.5-0.6c0.6,0.4,1.1,1,1.6,1.5c0.2,0.2,0.3,0.4,0.4,0.5
	c1.1-0.8,2-1.7,3-2.2c3-1.5,7-1,8.8,1.9c1.1,1.7,1.4,3.6,1.4,5.5c0,1.6-0.1,3.3,0,4.9c0,0.9,0.2,1.8,0.6,2.7
	c0.4,1.1,1.4,1.2,2.3,0.4c0.9-0.7,1.4-1.7,1.6-2.7c0.7-3.1,0.6-6.1-0.2-9.1c-0.1-0.2-0.1-0.5-0.1-0.7c-0.1-0.7-0.1-1.5,0.6-1.9
	c0.8-0.5,1.6-0.6,2.4-0.2c1.2,0.6,1.6,1.7,1.8,3c0.3,2.2,0,4.4-0.2,6.6c-0.2,2.3,0.7,4.8,3.1,5.7c2.4,0.9,4.9,0.3,6.2-2
	c0.6-1.1,0.9-2.5,1-3.8c0.1-1.8-0.2-3.7-0.3-5.5c0-0.7-0.1-1.4-0.1-2.1c0-1.1,0.6-1.9,1.5-2.1c1.1-0.2,2,0.2,2.5,1.1
	c0.7,1.4,0.8,3,0.6,4.5c-0.4,2.6-0.3,5.3,0.2,7.9c0.2,1.1,0.9,2,2.1,2.4c1.1,0.3,2.1-0.1,2.9-0.9c0.8-0.8,1.2-1.8,1.5-2.9
	c0.1-0.3,0-0.7-0.1-1c-1.4-4-2.4-8.1-2.6-12.4c0-1.1-0.2-2.3-0.2-3.4c0.1-3.9,0.1-7.8,1.4-11.5c0.3-0.7,0.7-1.5,1.2-2.1
	c1.6-1.9,3.6-2,5.4-0.1c1.2,1.3,1.8,2.8,2.1,4.5c0.6,3.6,0.4,7.2-0.2,10.8c-0.7,4.3-2,8.4-3.6,12.5c-0.2,0.6-0.3,1.1,0,1.8
	c0.9,2.1,2.1,3.9,4.5,4.6c2.3,0.7,4.1-0.6,4.8-2.3c0.5-1.1,0.6-2.3,0.8-3.4c0.1-0.3,0-0.7,0.1-1c0.1-0.8,0.5-1.2,1.1-1.1
	c0.7,0.1,1.1,0.6,1,1.2c-0.1,1.1,0,2.2-0.3,3.2c-0.4,1.3-0.9,2.5-1.6,3.6c-1.4,2.2-3.6,2.8-6.1,2.5c-2.2-0.2-3.9-1.3-5.3-2.9
	C100.1,56.5,100,56.3,99.8,56.1 M99.6,47.7c0.1,0,0.2,0,0.3,0c0-0.1,0.1-0.3,0.1-0.4c0.7-3.2,1.5-6.4,2.1-9.6
	c0.6-3.5,0.7-7,0.2-10.5c-0.1-0.7-0.3-1.4-0.6-2.1c-0.1-0.3-0.5-0.7-0.8-0.7c-0.3,0-0.7,0.4-0.8,0.7c-0.4,1.3-0.9,2.6-1,3.9
	c-0.2,2.6-0.3,5.3-0.3,8c0,2.2,0.1,4.3,0.3,6.5C99.1,44.9,99.4,46.3,99.6,47.7 M29,47.7c0.1,0,0.1,0,0.2,0c0-0.1,0.1-0.3,0.1-0.4
	c1-3.4,1.8-6.8,2.2-10.3c0.4-3.2,0.6-6.5,0.1-9.7c-0.1-0.7-0.3-1.5-0.6-2.1c-0.1-0.3-0.5-0.7-0.8-0.7c-0.3,0-0.7,0.4-0.8,0.7
	c-0.4,1.3-0.8,2.6-1,3.9c-0.5,3.5-0.4,7-0.2,10.6c0.1,2,0.3,4,0.5,6C28.7,46.3,28.8,47,29,47.7 M4.6,45.5c0.1,0,0.2,0,0.2,0
	c0.1-0.1,0.2-0.2,0.2-0.4c0.8-2.4,1.7-4.7,2.4-7c0.9-3.2,1.2-6.5,0.8-9.8c-0.1-0.8-0.2-1.6-0.5-2.3c-0.2-0.5-0.7-1-1.1-1.2
	c-0.3-0.1-0.8,0.5-1.2,0.9c-0.2,0.2-0.3,0.4-0.3,0.7c-0.4,2.2-0.9,4.3-1.1,6.5c-0.3,3.9,0.1,7.7,0.4,11.6
	C4.5,44.8,4.6,45.1,4.6,45.5 M11.1,104c0,0.2,0,0.5,0,0.7c0,3.4,0,6.7,0,10.1c0,0.7-0.2,1-1,1c-2.1,0-4.1,0-6.2,0
	c-0.6,0-0.8-0.2-0.8-0.8c0-9.5,0-19,0-28.6c0-0.6,0.2-0.8,0.8-0.8c2,0,4,0,6,0c1.1,0,1.1,0,1.1,1.1c0,0.2,0,0.5,0,0.7
	c0,0.1,0.1,0.1,0.2,0.2c0.2-0.2,0.4-0.5,0.5-0.7c0.7-0.8,1.4-1.4,2.6-1.3c1,0.1,2.1,0,3,0.3c2.3,0.7,3.5,2.6,4.2,4.8
	c1.2,3.7,1.2,7.4,0,11c-0.6,2-1.7,3.7-3.8,4.5c-2.1,0.8-4.6,0.1-6-1.6c-0.1-0.2-0.3-0.3-0.4-0.5C11.2,104,11.1,104,11.1,104
	 M11,96.3c0.2,0.8,0.3,1.9,0.8,3c0.3,0.9,1.3,0.8,1.9,0.1c0.2-0.3,0.3-0.5,0.4-0.8c0.5-1.7,0.5-3.4,0-5.1c-0.3-0.9-0.8-1.4-1.4-1.4
	c-0.6,0-1.1,0.6-1.3,1.4C11.3,94.3,11.2,95.1,11,96.3 M47.2,87.9c0-0.5,0-1.1-0.1-1.6c-0.1-0.5,0.1-0.7,0.5-0.7c2.3,0,4.6,0,6.9,0
	c0.5,0,0.6,0.2,0.6,0.7c0,6.5,0,13,0,19.4c0,0.5-0.2,0.7-0.7,0.7c-2.2,0-4.4,0-6.6,0c-0.5,0-0.6-0.2-0.6-0.7c0-0.6,0-1.2,0-1.9
	c-0.7,0.6-1.2,1.2-1.8,1.6c-2.4,1.6-6,1.3-7.8-1.8c-0.6-1.1-1.1-2.3-1.3-3.5c-0.6-3-0.6-6,0.1-9c0.6-2.3,1.6-4.4,3.9-5.3
	c2.4-0.9,4.8-0.3,6.3,1.5c0.1,0.2,0.3,0.3,0.5,0.5C47,87.9,47.1,87.9,47.2,87.9 M43.7,96.4c0.2,0.8,0.3,1.8,0.6,2.6
	c0.4,1,1.5,1.1,2.1,0.3c0.2-0.3,0.4-0.7,0.5-1c0.3-1.6,0.4-3.2,0.1-4.9c-0.2-0.9-0.6-1.4-1.3-1.5c-0.6,0-1.2,0.5-1.4,1.3
	C44,94.3,43.9,95.4,43.7,96.4 M97.9,87.9c0-0.6,0-1.1-0.1-1.7c-0.1-0.5,0.1-0.6,0.5-0.6c2.3,0,4.6,0,6.9,0c0.5,0,0.7,0.2,0.6,0.7
	c0,0.2,0,0.4,0,0.6v18.5c0,1,0,1-1,1c-2,0-4.1,0-6.2,0c-0.6,0-0.8-0.2-0.8-0.8c0-0.5,0-1.1,0-1.9c-0.4,0.4-0.7,0.7-0.9,1
	c-2.3,2.5-6.9,2.4-8.8-1.2c-0.6-1.2-1.1-2.6-1.4-3.9c-0.5-3.5-0.7-7,0.9-10.3c1.3-2.9,3.2-4.1,6.4-3.7c1.2,0.2,2.2,0.8,3,1.8
	c0.2,0.2,0.3,0.4,0.5,0.6C97.8,87.9,97.8,87.9,97.9,87.9 M94.4,96.4c0,0,0.1,0,0.1,0c0,0.3,0,0.6,0,0.8c0,0.4,0.1,0.9,0.2,1.3
	c0.2,0.7,0.5,1.3,1.4,1.3c0.6,0,1.2-0.6,1.4-1.5c0.3-1.6,0.4-3.2,0.1-4.8c-0.2-1-0.6-1.5-1.3-1.5c-0.6,0-1.2,0.5-1.4,1.5
	C94.7,94.5,94.6,95.4,94.4,96.4 M67.2,93.6c0-1.6,0-1.7,1.6-1.7c0.6,0,0.8-0.2,0.8-0.8c0-1.2,0-2.5,0-3.8c0-2,0.3-1.8-1.8-1.8
	c-0.6,0-0.7-0.2-0.7-0.7c0-1.4,0-2.9,0-4.4c0-0.5-0.1-0.8-0.7-0.8c-2.1,0-4.3,0-6.4,0c-0.6,0-0.8,0.2-0.8,0.8c0,1.2,0,2.5,0,3.7
	c0,1.4,0,1.4-1.3,1.4c-0.6,0-0.9,0.2-0.9,0.9c0,1.4,0,2.8,0,4.2c0,1.3,0,1.3,1.3,1.3c0.7,0,0.9,0.2,0.9,0.9c0,4.2,0,8.4,0,12.7
	c0,0.6,0.2,0.9,0.9,0.9c2.1,0,4.1,0,6.2,0c0.7,0,0.9-0.2,0.9-0.9c0-2.1,0-4.2,0-6.4V93.6z M79.5,88c-0.1,0-0.2-0.1-0.2-0.1
	c0-0.5,0-1,0.1-1.6c0.1-0.6-0.1-0.9-0.7-0.9c-2.2,0-4.3,0-6.4,0c-0.6,0-0.8,0.2-0.8,0.8v19.2c0,0.6,0.2,0.8,0.8,0.8
	c2.1,0,4.2,0,6.4,0c0.6,0,0.8-0.2,0.8-0.9c0-2.4,0-4.7,0-7.1c0-0.8,0.1-1.6,0.2-2.4c0.2-2,1.9-3.6,4.3-2.5c0.7,0.3,0.8,0.2,0.8-0.5
	c0-2.4,0-4.8,0-7.2c0-0.6-0.2-0.8-0.8-0.8c-1.7,0.1-3,0.9-4,2.3C79.8,87.6,79.7,87.8,79.5,88 M33,95.9c0-3.2,0-6.4,0-9.5
	c0-0.7-0.2-0.9-0.9-0.9c-2.1,0-4.1,0-6.1,0c-0.6,0-0.9,0.1-0.9,0.8c0,6.4,0,12.7,0,19.1c0,0.7,0.3,0.9,1,0.9c2,0,4,0,6,0
	c0.7,0,1-0.2,1-1C33,102.2,33,99.1,33,95.9 M29.1,74.7c-2.6,0-4.6,2-4.6,4.6c0,2.5,2,4.5,4.5,4.6c2.6,0.1,4.8-2.1,4.7-4.6
	C33.6,76.7,31.6,74.7,29.1,74.7 M56.7,72.9c0.6,0.9,1.2,1.2,2.1,1c0.9-0.2,1.8-0.9,2-1.8c0-0.1,0-0.3,0.1-0.4
	c0.1-0.2,0.3-0.3,0.4-0.5c0.1,0.2,0.3,0.4,0.3,0.6c-0.1,1.3-0.8,2.3-1.9,2.8c-1.2,0.6-2.3,0.4-3.3-0.4c-0.5-0.4-0.7-0.4-1.3-0.2
	c-0.3,0.2-0.9,0.2-1.2,0c-0.6-0.3-1.1-0.1-1.6,0.3c-2,1.4-4.5,0.4-4.8-1.9c-0.2-1.4,0.6-3,2-3.6c0.5-0.2,0.5-0.5,0.6-0.9
	c0.1-1.3,0.2-2.6,0.4-3.9c0.1-0.5,0.4-1,0.8-1.2c0.5-0.4,1.1-0.3,1.6,0.2c1.1,1,1.3,2.4,1.5,3.8c0.3,1.9,0.1,3.7-0.5,5.5
	c-0.1,0.2,0,0.7,0.2,0.8c0.3,0.2,0.7,0.2,1,0.1c0.2-0.1,0.3-0.6,0.3-0.8c-0.2-1.2,0.1-2.2,0.9-3.1c0.7-0.7,1.5-0.9,2.4-0.7
	c1.2,0.3,1.5,1.9,0.6,3c-0.3,0.4-0.7,0.7-1.1,0.9C57.7,72.6,57.2,72.7,56.7,72.9 M52.8,71.9c0.2-0.2,0.2-0.2,0.2-0.3
	c0.1-0.3,0.1-0.6,0.2-1c0.5-2.2,0.2-4.3-0.5-6.3c-0.1-0.3-0.5-0.6-0.8-0.8c-0.2,0.3-0.5,0.5-0.6,0.8c-0.5,2.4-0.3,4.7,1,6.9
	C52.4,71.4,52.6,71.6,52.8,71.9 M50.7,74.1c0.1,0,0.3-0.1,0.5-0.1c1-0.3,1.1-0.7,0.5-1.6c-0.4-0.5-0.7-1-1-1.6
	c-0.2-0.5-0.5-0.7-1.1-0.4c-0.8,0.4-1.3,1.3-1.1,2.1C48.8,73.4,49.6,74.1,50.7,74.1 M58.6,70.1c0-0.7-0.5-1-1.1-0.7
	c-0.6,0.3-1.2,1.3-1.1,2c0,0.2,0.3,0.4,0.4,0.4C57.6,71.9,58.6,70.9,58.6,70.1 M18.3,38.1c0.2,0,0.5-0.1,0.9-0.3
	c1.7-0.9,2.5-2.4,2.7-4.2c0.1-1-0.2-2-1.1-2.7c-1-0.7-2-0.6-3,0c-1.6,0.9-2.4,2.3-2.5,4.1C15.2,36.9,16.4,38.1,18.3,38.1"/>
</svg>
