<!-- Generator: Adobe Illustrator 23.0.4, SVG Export Plug-In  -->
<svg version="1.1" xmlns="http://www.w3.org/2000/svg" xmlns:xlink="http://www.w3.org/1999/xlink" x="0px" y="0px"
	 width="394.997px" height="191.907px" viewBox="0 0 394.997 191.907" enable-background="new 0 0 394.997 191.907"
	 xml:space="preserve">
	<path fill="#868789" d="M59.516,173.136c22.424,0,40.669-18.242,40.669-40.669h18.771c0,32.775-26.666,59.44-59.44,59.44V173.136z
		 M59.44,18.771c22.424,0,40.669,18.245,40.669,40.669s-18.245,40.667-40.669,40.667c-22.427,0-40.669-18.243-40.669-40.667
		S37.014,18.771,59.44,18.771 M59.44,118.878c32.774,0,59.44-26.663,59.44-59.438S92.215,0,59.44,0C26.666,0,0,26.666,0,59.44
		S26.666,118.878,59.44,118.878 M171.467,19.931h4.278v3.756c-0.808,0.186-1.694,0.279-2.653,0.279
		c-1.763,0-3.111-0.588-4.045-1.763c-0.933-1.175-1.404-2.884-1.404-5.125c0-2.286,0.519-4.044,1.551-5.273
		c1.033-1.231,2.498-1.846,4.386-1.846c2.07,0,3.967,0.427,5.691,1.28l2.053-5.085c-0.994-0.438-2.165-0.798-3.5-1.083
		c-1.34-0.284-2.766-0.427-4.274-0.427c-3.98,0-7.074,1.077-9.287,3.231c-2.208,2.154-3.31,5.167-3.31,9.038
		c0,3.969,1.007,7.026,3.025,9.169s4.875,3.215,8.57,3.215c3.371,0,6.456-0.482,9.27-1.443V14.929h-10.35V19.931z M199.138,29.002
		c1.072-0.197,2.109-0.552,3.116-1.065v-4.61c-1.106,0.514-2.13,0.877-3.077,1.091c-0.946,0.213-1.979,0.32-3.107,0.32
		c-1.236,0-2.213-0.295-2.93-0.886c-0.713-0.591-1.093-1.404-1.137-2.444h11.465v-2.854c0-2.744-0.765-4.847-2.29-6.307
		c-1.525-1.46-3.686-2.189-6.487-2.189c-2.943,0-5.203,0.838-6.789,2.517c-1.586,1.679-2.381,4.087-2.381,7.226
		c0,3.04,0.856,5.382,2.567,7.029c1.711,1.645,4.114,2.469,7.213,2.469C196.787,29.298,198.066,29.2,199.138,29.002z
		 M196.882,15.224c0.484,0.536,0.739,1.252,0.761,2.149h-5.51c0.086-1.017,0.385-1.763,0.895-2.239
		c0.51-0.476,1.141-0.714,1.893-0.714C195.741,14.42,196.394,14.688,196.882,15.224z M223.697,14.56
		c-0.756-1.449-1.837-2.562-3.237-3.337c-1.4-0.777-3.012-1.165-4.84-1.165c-2.952,0-5.246,0.838-6.88,2.517
		c-1.634,1.679-2.455,4.033-2.455,7.061c0,2.963,0.834,5.314,2.502,7.054c1.668,1.738,3.915,2.608,6.733,2.608
		c2.943,0,5.233-0.85,6.867-2.551s2.45-4.071,2.45-7.111C224.838,17.701,224.458,16.008,223.697,14.56z M213.438,16.036
		c0.428-0.804,1.132-1.206,2.118-1.206c1.007,0,1.716,0.404,2.13,1.213c0.419,0.809,0.627,2.007,0.627,3.592
		c0,1.597-0.207,2.813-0.618,3.65c-0.411,0.837-1.111,1.255-2.105,1.255c-1.007,0-1.724-0.418-2.152-1.255
		c-0.424-0.836-0.64-2.053-0.64-3.65S213.014,16.84,213.438,16.036z M236.821,10.967c-0.959,0.607-1.703,1.402-2.239,2.387h-0.315
		l-0.998-2.969h-4.775V28.97h6.413v-9.137c0-1.202,0.32-2.124,0.955-2.764c0.631-0.64,1.651-0.959,3.051-0.959
		c0.929,0,1.655,0.066,2.178,0.197l0.575-6.052l-0.359-0.066c-0.506-0.088-1.033-0.131-1.59-0.131
		C238.74,10.058,237.776,10.36,236.821,10.967z M255.317,10.385c-0.393-0.066-1.007-0.136-1.837-0.213
		c-0.834-0.077-1.417-0.115-1.759-0.115c-2.558,0-4.525,0.557-5.903,1.672c-1.379,1.116-2.066,2.685-2.066,4.708
		c0,1.301,0.277,2.405,0.825,3.312c0.553,0.909,1.309,1.575,2.273,2.002c-1.007,0.613-1.668,1.14-1.984,1.583
		c-0.32,0.443-0.475,0.954-0.475,1.533c0,0.525,0.207,1.056,0.631,1.591c0.419,0.536,0.916,0.925,1.482,1.165
		c-2.753,0.645-4.131,2.078-4.131,4.298c0,1.651,0.713,2.917,2.139,3.798c1.426,0.879,3.457,1.32,6.093,1.32
		c3.487,0,6.197-0.629,8.129-1.886c1.932-1.258,2.895-3.019,2.895-5.282c0-3.51-2.083-5.266-6.249-5.266h-3.086
		c-0.83,0-1.504-0.084-2.018-0.254s-0.769-0.413-0.769-0.729c0-0.252,0.078-0.52,0.229-0.804c0.406,0.088,0.951,0.131,1.642,0.131
		c2.787,0,4.883-0.552,6.288-1.656c1.404-1.105,2.109-2.658,2.109-4.659c0-0.843-0.173-1.581-0.523-2.215l2.541-0.935v-3.101
		H255.317z M248.502,30.093c0.475-0.323,1.054-0.484,1.746-0.484h2.511c1.059,0,1.871,0.102,2.442,0.304
		c0.57,0.202,0.851,0.55,0.851,1.041c0,0.613-0.467,1.113-1.4,1.501c-0.933,0.388-2.178,0.582-3.734,0.582
		c-0.951,0-1.711-0.161-2.277-0.484c-0.57-0.322-0.856-0.745-0.856-1.271C247.785,30.812,248.027,30.415,248.502,30.093z
		 M251.791,13.616c1.279,0,1.919,0.963,1.919,2.887c0,0.941-0.169,1.646-0.501,2.116c-0.333,0.47-0.808,0.705-1.417,0.705
		c-1.327,0-1.988-0.952-1.988-2.854S250.464,13.616,251.791,13.616z M277.426,29.002c1.072-0.197,2.109-0.552,3.116-1.065v-4.61
		c-1.106,0.514-2.13,0.877-3.077,1.091c-0.946,0.213-1.979,0.32-3.107,0.32c-1.236,0-2.213-0.295-2.93-0.886
		c-0.713-0.591-1.093-1.404-1.137-2.444h11.465v-2.854c0-2.744-0.765-4.847-2.29-6.307c-1.525-1.46-3.686-2.189-6.487-2.189
		c-2.943,0-5.203,0.838-6.789,2.517c-1.586,1.679-2.381,4.087-2.381,7.226c0,3.04,0.856,5.382,2.567,7.029
		c1.711,1.645,4.114,2.469,7.213,2.469C275.075,29.298,276.354,29.2,277.426,29.002z M275.17,15.224
		c0.484,0.536,0.739,1.252,0.761,2.149h-5.51c0.086-1.017,0.385-1.763,0.895-2.239c0.51-0.476,1.141-0.714,1.893-0.714
		C274.029,14.42,274.682,14.688,275.17,15.224z M168.758,45.301h-6.214v23.981h2.787V59.85h2.822c3.086,0,5.454-0.654,7.109-1.96
		c1.659-1.307,2.485-3.174,2.485-5.602C177.746,47.63,174.752,45.301,168.758,45.301z M165.331,47.712h3.116
		c2.2,0,3.816,0.388,4.857,1.165c1.037,0.777,1.556,1.958,1.556,3.543c0,1.761-0.549,3.04-1.655,3.839s-2.891,1.197-5.363,1.197
		h-2.511V47.712z M187.457,51.928c-0.938,0.634-1.742,1.536-2.407,2.706h-0.134l-0.311-3.33h-2.247v17.977h2.723v-9.645
		c0-1.761,0.519-3.231,1.551-4.412c1.033-1.182,2.277-1.772,3.729-1.772c0.57,0,1.227,0.082,1.971,0.246l0.376-2.526
		c-0.635-0.132-1.348-0.198-2.148-0.198C189.432,50.976,188.399,51.293,187.457,51.928z M196.299,47.803
		c0.307,0.3,0.691,0.451,1.15,0.451c0.436,0,0.812-0.15,1.132-0.451c0.315-0.301,0.475-0.757,0.475-1.37
		c0-0.613-0.16-1.066-0.475-1.361c-0.32-0.296-0.696-0.443-1.132-0.443c-0.458,0-0.843,0.145-1.15,0.434
		c-0.307,0.29-0.458,0.747-0.458,1.37C195.841,47.045,195.992,47.501,196.299,47.803z M198.792,51.304h-2.723v17.977h2.723V51.304z
		 M230.205,69.282V57.554c0-2.297-0.506-3.967-1.521-5.012c-1.011-1.044-2.532-1.567-4.568-1.567c-1.301,0-2.459,0.273-3.474,0.82
		c-1.02,0.548-1.793,1.291-2.329,2.231h-0.134c-0.864-2.033-2.701-3.051-5.51-3.051c-1.158,0-2.204,0.246-3.142,0.739
		c-0.933,0.492-1.659,1.175-2.174,2.049h-0.13l-0.445-2.46h-2.213v17.977h2.723V59.85c0-2.329,0.398-4.005,1.188-5.027
		c0.795-1.023,2.044-1.534,3.751-1.534c1.301,0,2.256,0.359,2.869,1.075s0.916,1.79,0.916,3.223v11.695h2.723V59.243
		c0-2.022,0.406-3.521,1.214-4.494c0.812-0.972,2.061-1.46,3.76-1.46c1.288,0,2.239,0.359,2.852,1.075
		c0.614,0.716,0.92,1.79,0.92,3.223v11.695H230.205z M235.616,51.304v11.761c0,2.285,0.545,3.948,1.634,4.986
		c1.089,1.039,2.727,1.559,4.914,1.559c1.266,0,2.398-0.236,3.388-0.705s1.763-1.148,2.321-2.034h0.147l0.393,2.411h2.247V51.304
		h-2.723v9.448c0,2.329-0.436,4.008-1.305,5.036c-0.869,1.029-2.243,1.542-4.123,1.542c-1.422,0-2.468-0.361-3.133-1.083
		c-0.67-0.722-1.003-1.815-1.003-3.28V51.304H235.616z M259.155,43.759h-2.723v25.523h2.723V43.759z M276.376,53.699h-0.13
		c0.086-1.105,0.13-2.351,0.13-3.74v-6.2h-2.723v25.523h1.953l0.575-2.313h0.194c0.657,0.897,1.469,1.561,2.437,1.993
		s2.035,0.648,3.207,0.648c2.338,0,4.166-0.818,5.484-2.452c1.318-1.635,1.979-3.928,1.979-6.881c0-2.953-0.653-5.236-1.962-6.848
		c-1.305-1.613-3.142-2.419-5.501-2.419C279.526,51.009,277.647,51.906,276.376,53.699z M285.43,55.011
		c0.821,1.148,1.232,2.893,1.232,5.232c0,2.286-0.411,4.038-1.232,5.257c-0.817,1.22-2.066,1.829-3.738,1.829
		c-1.858,0-3.211-0.543-4.054-1.631c-0.843-1.088-1.262-2.895-1.262-5.421s0.411-4.323,1.232-5.389
		c0.821-1.066,2.156-1.599,4.019-1.599C283.342,53.289,284.613,53.863,285.43,55.011z M307.309,69.282v-12.27
		c0-2.099-0.514-3.625-1.551-4.575c-1.033-0.952-2.619-1.427-4.762-1.427c-1.063,0-2.118,0.136-3.176,0.409
		c-1.054,0.273-2.022,0.651-2.908,1.132l0.834,2.083c1.893-0.918,3.587-1.377,5.086-1.377c1.335,0,2.303,0.336,2.913,1.008
		c0.605,0.673,0.908,1.715,0.908,3.126v1.115l-3.051,0.098c-5.804,0.175-8.708,2.078-8.708,5.709c0,1.695,0.506,3.001,1.517,3.92
		c1.011,0.919,2.407,1.379,4.192,1.379c1.331,0,2.446-0.2,3.336-0.6c0.89-0.399,1.785-1.161,2.684-2.287h0.13l0.54,2.558H307.309z
		 M296.64,66.592c-0.596-0.514-0.895-1.263-0.895-2.247c0-1.258,0.48-2.185,1.435-2.78c0.959-0.596,2.519-0.932,4.685-1.009
		l2.723-0.115v1.624c0,1.672-0.484,2.974-1.452,3.903c-0.968,0.93-2.299,1.395-3.993,1.395
		C298.07,67.363,297.236,67.106,296.64,66.592z M327.944,69.282V57.554c0-2.297-0.549-3.967-1.642-5.012
		c-1.093-1.044-2.723-1.567-4.888-1.567c-1.236,0-2.355,0.244-3.362,0.73c-1.007,0.486-1.789,1.173-2.347,2.058h-0.13l-0.445-2.46
		h-2.213v17.977h2.723V59.85c0-2.34,0.436-4.019,1.314-5.036c0.873-1.017,2.252-1.525,4.131-1.525c1.422,0,2.468,0.361,3.133,1.083
		c0.67,0.722,1.003,1.815,1.003,3.281v11.629H327.944z M336.095,60.08c0.086-1.258,0.134-2.188,0.134-2.788V43.759h-2.692v25.523
		h2.692v-6.725l2.048-1.772l6.348,8.497h3.297l-7.792-10.318l7.282-7.66h-3.232l-5.804,6.151c-0.964,1.083-1.681,1.958-2.148,2.625
		H336.095z M351.397,47.803c0.307,0.3,0.691,0.451,1.15,0.451c0.436,0,0.812-0.15,1.132-0.451c0.315-0.301,0.475-0.757,0.475-1.37
		c0-0.613-0.16-1.066-0.475-1.361c-0.32-0.296-0.696-0.443-1.132-0.443c-0.458,0-0.843,0.145-1.15,0.434
		c-0.307,0.29-0.458,0.747-0.458,1.37C350.939,47.045,351.09,47.501,351.397,47.803z M353.891,51.304h-2.723v17.977h2.723V51.304z
		 M374.69,69.282V57.554c0-2.297-0.549-3.967-1.642-5.012c-1.093-1.044-2.723-1.567-4.888-1.567c-1.236,0-2.355,0.244-3.362,0.73
		c-1.007,0.486-1.789,1.173-2.347,2.058h-0.13l-0.445-2.46h-2.213v17.977h2.723V59.85c0-2.34,0.436-4.019,1.314-5.036
		c0.873-1.017,2.252-1.525,4.131-1.525c1.422,0,2.468,0.361,3.133,1.083c0.67,0.722,1.003,1.815,1.003,3.281v11.629H374.69z
		 M388.778,51.304c-0.752-0.218-1.603-0.328-2.541-0.328c-2.165,0-3.837,0.534-5.022,1.6c-1.18,1.065-1.772,2.583-1.772,4.552
		c0,1.181,0.294,2.231,0.882,3.149c0.583,0.918,1.34,1.569,2.269,1.952c-0.752,0.459-1.305,0.935-1.655,1.426
		c-0.35,0.493-0.527,1.066-0.527,1.723c0,0.579,0.156,1.088,0.471,1.525c0.311,0.436,0.696,0.759,1.154,0.967
		c-1.266,0.285-2.252,0.826-2.952,1.624c-0.7,0.798-1.05,1.745-1.05,2.838c0,1.597,0.635,2.832,1.91,3.707s3.086,1.313,5.436,1.313
		c3.064,0,5.393-0.523,6.988-1.567c1.599-1.045,2.398-2.562,2.398-4.552c0-1.564-0.523-2.756-1.569-3.576
		c-1.046-0.82-2.541-1.231-4.486-1.231h-3.181c-0.985,0-1.681-0.117-2.083-0.352c-0.406-0.236-0.609-0.599-0.609-1.091
		c0-0.929,0.579-1.701,1.737-2.313c0.471,0.089,0.977,0.132,1.513,0.132c2.1,0,3.751-0.525,4.952-1.575
		c1.201-1.049,1.802-2.455,1.802-4.216c0-0.776-0.117-1.473-0.359-2.091c-0.242-0.618-0.514-1.118-0.821-1.501l3.332-0.394v-1.722
		H388.778z M381.691,69.757c0.691-0.59,1.655-0.886,2.887-0.886h3.267c1.659,0,2.792,0.189,3.397,0.566
		c0.601,0.377,0.899,1.052,0.899,2.026c0,1.17-0.549,2.097-1.647,2.781c-1.102,0.683-2.792,1.025-5.078,1.025
		c-1.53,0-2.705-0.252-3.526-0.755c-0.821-0.502-1.232-1.241-1.232-2.214C380.658,71.195,381.004,70.348,381.691,69.757z
		 M383.169,53.994c0.687-0.689,1.672-1.034,2.952-1.034c2.692,0,4.036,1.352,4.036,4.051c0,2.581-1.327,3.872-3.984,3.872
		c-1.271,0-2.26-0.323-2.969-0.968c-0.713-0.645-1.067-1.597-1.067-2.854C382.136,55.706,382.482,54.684,383.169,53.994z
		 M162.362,88.114c0.307,0.3,0.691,0.451,1.15,0.451c0.436,0,0.812-0.15,1.132-0.451c0.315-0.301,0.475-0.757,0.475-1.37
		c0-0.613-0.16-1.066-0.475-1.361c-0.32-0.296-0.696-0.443-1.132-0.443c-0.458,0-0.843,0.145-1.15,0.434
		c-0.307,0.29-0.458,0.747-0.458,1.37C161.904,87.356,162.055,87.812,162.362,88.114z M164.855,91.615h-2.723v17.977h2.723V91.615z
		 M185.655,109.593V97.865c0-2.297-0.549-3.967-1.642-5.012c-1.093-1.044-2.723-1.567-4.888-1.567c-1.236,0-2.355,0.244-3.362,0.73
		c-1.007,0.486-1.789,1.173-2.347,2.058h-0.13l-0.445-2.46h-2.213v17.977h2.723v-9.432c0-2.34,0.436-4.019,1.314-5.036
		c0.873-1.017,2.252-1.525,4.131-1.525c1.422,0,2.468,0.361,3.133,1.083c0.67,0.722,1.003,1.815,1.003,3.281v11.629H185.655z
		 M194.937,106.804c-0.514-0.579-0.769-1.411-0.769-2.494V93.732h5.216v-2.116h-5.216v-4.166h-1.577l-1.145,3.837l-2.576,1.132
		v1.313h2.576v10.695c0,3.662,1.737,5.495,5.216,5.495c0.458,0,0.972-0.048,1.547-0.139c0.575-0.094,1.011-0.211,1.305-0.353v-2.083
		c-0.264,0.077-0.618,0.15-1.067,0.221c-0.445,0.071-0.912,0.107-1.392,0.107C196.156,107.674,195.452,107.384,194.937,106.804z
		 M213.809,109.65c0.856-0.18,1.768-0.479,2.731-0.893v-2.428c-1.893,0.809-3.807,1.213-5.743,1.213
		c-1.837,0-3.263-0.547-4.274-1.64s-1.543-2.696-1.599-4.807h12.385v-1.722c0-2.428-0.657-4.382-1.966-5.863
		c-1.314-1.482-3.099-2.223-5.35-2.223c-2.407,0-4.321,0.853-5.748,2.559c-1.426,1.706-2.143,4.008-2.143,6.906
		c0,2.876,0.769,5.123,2.308,6.742c1.534,1.618,3.634,2.428,6.288,2.428C211.912,109.921,212.949,109.83,213.809,109.65z
		 M213.243,94.936c0.765,0.914,1.145,2.229,1.145,3.946h-9.395c0.151-1.663,0.657-2.963,1.517-3.904
		c0.856-0.94,2.009-1.41,3.453-1.41C211.385,93.567,212.478,94.023,213.243,94.936z M224.674,84.07h-2.723v25.523h2.723V84.07z
		 M230.676,88.114c0.307,0.3,0.691,0.451,1.15,0.451c0.436,0,0.812-0.15,1.132-0.451c0.315-0.301,0.475-0.757,0.475-1.37
		c0-0.613-0.16-1.066-0.475-1.361c-0.32-0.296-0.696-0.443-1.132-0.443c-0.458,0-0.843,0.145-1.15,0.434
		c-0.307,0.29-0.458,0.747-0.458,1.37C230.218,87.356,230.369,87.812,230.676,88.114z M233.17,91.615h-2.723v17.977h2.723V91.615z
		 M247.439,91.615c-0.752-0.218-1.603-0.328-2.541-0.328c-2.165,0-3.837,0.534-5.022,1.6c-1.18,1.065-1.772,2.583-1.772,4.552
		c0,1.181,0.294,2.231,0.882,3.149c0.583,0.918,1.34,1.569,2.269,1.952c-0.752,0.459-1.305,0.935-1.655,1.426
		c-0.35,0.493-0.527,1.066-0.527,1.723c0,0.579,0.156,1.088,0.471,1.525c0.311,0.436,0.696,0.759,1.154,0.967
		c-1.266,0.285-2.252,0.826-2.952,1.624c-0.7,0.798-1.05,1.745-1.05,2.838c0,1.597,0.635,2.832,1.91,3.707
		c1.275,0.875,3.086,1.313,5.436,1.313c3.064,0,5.393-0.523,6.988-1.567c1.599-1.045,2.398-2.562,2.398-4.552
		c0-1.564-0.523-2.756-1.569-3.576c-1.046-0.82-2.541-1.231-4.486-1.231h-3.181c-0.985,0-1.681-0.117-2.083-0.352
		c-0.406-0.236-0.609-0.599-0.609-1.091c0-0.929,0.579-1.701,1.737-2.313c0.471,0.089,0.977,0.132,1.513,0.132
		c2.1,0,3.751-0.525,4.952-1.575c1.201-1.049,1.802-2.455,1.802-4.216c0-0.776-0.117-1.473-0.359-2.091s-0.514-1.118-0.821-1.501
		l3.332-0.394v-1.722H247.439z M240.352,110.068c0.691-0.59,1.655-0.886,2.887-0.886h3.267c1.659,0,2.792,0.189,3.397,0.566
		c0.601,0.377,0.899,1.052,0.899,2.026c0,1.17-0.549,2.097-1.646,2.781c-1.102,0.683-2.792,1.025-5.078,1.025
		c-1.53,0-2.705-0.252-3.526-0.755c-0.821-0.502-1.232-1.241-1.232-2.214C239.319,111.506,239.665,110.659,240.352,110.068z
		 M241.83,94.305c0.687-0.689,1.672-1.034,2.952-1.034c2.692,0,4.036,1.352,4.036,4.051c0,2.581-1.327,3.872-3.984,3.872
		c-1.271,0-2.26-0.323-2.969-0.968c-0.713-0.645-1.067-1.597-1.067-2.854C240.797,96.017,241.143,94.995,241.83,94.305z
		 M268.053,109.65c0.856-0.18,1.768-0.479,2.731-0.893v-2.428c-1.893,0.809-3.807,1.213-5.743,1.213
		c-1.837,0-3.263-0.547-4.274-1.64s-1.543-2.696-1.599-4.807h12.385v-1.722c0-2.428-0.657-4.382-1.966-5.863
		c-1.314-1.482-3.099-2.223-5.35-2.223c-2.407,0-4.322,0.853-5.748,2.559c-1.426,1.706-2.143,4.008-2.143,6.906
		c0,2.876,0.769,5.123,2.308,6.742c1.534,1.618,3.634,2.428,6.288,2.428C266.156,109.921,267.193,109.83,268.053,109.65z
		 M267.487,94.936c0.765,0.914,1.145,2.229,1.145,3.946h-9.395c0.151-1.663,0.657-2.963,1.517-3.904
		c0.856-0.94,2.009-1.41,3.453-1.41C265.628,93.567,266.722,94.023,267.487,94.936z M291.22,109.593V97.865
		c0-2.297-0.549-3.967-1.642-5.012c-1.093-1.044-2.723-1.567-4.888-1.567c-1.236,0-2.355,0.244-3.362,0.73
		c-1.007,0.486-1.789,1.173-2.347,2.058h-0.13l-0.445-2.46h-2.213v17.977h2.723v-9.432c0-2.34,0.436-4.019,1.314-5.036
		c0.873-1.017,2.251-1.525,4.131-1.525c1.422,0,2.468,0.361,3.133,1.083c0.67,0.722,1.003,1.815,1.003,3.281v11.629H291.22z
		 M300.503,106.804c-0.514-0.579-0.769-1.411-0.769-2.494V93.732h5.216v-2.116h-5.216v-4.166h-1.577l-1.145,3.837l-2.576,1.132
		v1.313h2.576v10.695c0,3.662,1.737,5.495,5.216,5.495c0.458,0,0.972-0.048,1.547-0.139c0.575-0.094,1.011-0.211,1.305-0.353v-2.083
		c-0.264,0.077-0.618,0.15-1.067,0.221c-0.445,0.071-0.912,0.107-1.392,0.107C301.722,107.674,301.017,107.384,300.503,106.804z"/>
</svg>
