<!-- Generator: Adobe Illustrator 21.1.0, SVG Export Plug-In  -->
<svg version="1.1"
	 xmlns="http://www.w3.org/2000/svg" xmlns:xlink="http://www.w3.org/1999/xlink" xmlns:a="http://ns.adobe.com/AdobeSVGViewerExtensions/3.0/"
	 x="0px" y="0px" width="48.8px" height="84.2px" viewBox="0 0 48.8 84.2" style="enable-background:new 0 0 48.8 84.2;"
	 xml:space="preserve">
<style type="text/css">
	.st0{fill:#868789;}
</style>
<defs>
</defs>
<path class="st0" d="M24.4,38c-7.4,0.1-13.6-6-13.6-13.6c0-7.7,6.2-13.5,13.5-13.6c7.5-0.1,13.8,6,13.7,13.6
	C37.9,32,31.9,38,24.4,38z M36.2,69.6c0-2.8,0-5.7,0-8.5c0-0.9,0.3-1.5,1-2c0.7-0.5,1.5-0.9,2.4-0.8c1.4,0.1,2.1,1,2.5,2.2
	c0.3,1,0.3,1.9,0.3,2.9c0,2.1,0,4.2,0,6.3c0,0.1,0,0.2,0,0.4c-0.5,0-0.9,0-1.4,0c0,0.3,0,0.5,0,0.8c1.9,0,3.7,0,5.5,0
	c0-0.3,0-0.5,0-0.8c-0.5,0-0.9,0-1.4,0c0-0.3,0-0.5,0-0.7c0-1.7,0-3.4,0-5.1c0-0.8,0-1.6-0.1-2.4c-0.2-1.6-0.8-2.9-2.1-3.8
	c-1.8-1.2-4.6-1.1-6.3,0.3c-0.1,0.1-0.2,0.2-0.4,0.3c0-0.4,0-0.7,0-1c-1.4,0-2.7,0-4.1,0c0,0.3,0,0.5,0,0.8c0.5,0,0.9,0,1.4,0
	c0,3.9,0,7.7,0,11.6c-0.5,0-0.9,0-1.4,0c0,0.3,0,0.6,0,0.8c1.8,0,3.7,0,5.5,0c0-0.3,0-0.5,0-0.8c-0.5,0-0.9,0-1.4,0
	C36.2,69.9,36.2,69.8,36.2,69.6z M25.7,58.6c0,0.2,0,0.4,0,0.6c0,2.8-0.1,5.6,0,8.4c0,1-0.4,1.7-1.1,2.2c-0.1,0.1-0.3,0.2-0.4,0.3
	c-1.4,0.8-3.5,0.6-4.2-1.4c-0.4-1.1-0.5-2.2-0.5-3.3c0-2.4,0-4.7,0-7.1c0-0.2,0-0.3,0-0.5c-1.4,0-2.8,0-4.1,0c0,0.3,0,0.5,0,0.8
	c0.5,0,0.9,0,1.4,0c0,0.5,0,1,0,1.5c0,2.2,0,4.4,0.1,6.7c0.1,1.3,0.6,2.5,1.6,3.4c1.6,1.5,4.9,1.7,6.8,0.2c0.1-0.1,0.3-0.2,0.4-0.3
	c0,0.4,0,0.7,0,1c1.4,0,2.7,0,4.1,0c0-0.3,0-0.5,0-0.8c-0.5,0-0.9,0-1.3,0c0-4.2,0-8.3,0-12.4c-1.4,0-2.8,0-4.1,0c0,0.3,0,0.5,0,0.8
	C24.8,58.6,25.2,58.6,25.7,58.6z M4.4,71c0.5-0.3,0.9-0.3,1.4-0.1c1.4,0.5,2.7,0.6,4.1,0.3c0.5-0.1,1-0.3,1.5-0.5
	c1.7-0.8,2.2-2.2,1.8-4c-0.3-1.6-1.4-2.5-2.8-3c-1-0.4-1.9-0.7-2.9-1.1c-0.8-0.3-1.3-0.9-1.3-1.8c0-1.7,1.5-2.8,3.3-2.5
	c1.5,0.3,2.3,1.4,2.8,2.8c0.2,0,0.5,0,0.7,0c0-1.1,0-2.2,0-3.4c-0.3,0-0.7,0-0.9,0.1C11.8,58,11.4,58,11.1,58
	c-0.3-0.1-0.7-0.1-1-0.3c-0.9-0.3-1.9-0.4-2.9-0.2c-1.1,0.2-2.1,0.7-2.9,1.6c-1.4,1.6-0.7,4.3,1.3,5.2c1,0.4,2,0.8,2.9,1.3
	c0.5,0.2,1,0.5,1.5,0.9c1.2,0.9,0.9,2.3,0.3,3.1c-0.6,0.8-1.4,1.1-2.4,1.1c-1.6,0.1-3.1-1-3.5-2.9c-0.2,0-0.5,0-0.8,0
	c0,1.1,0,2.2,0,3.4C3.9,71,4.2,71.1,4.4,71z M23.9,1.9c0,1.1,0.9,2.1,2,2.1c1.1,0,2-0.9,2.1-2c0-1.1-0.9-2-2-2
	C24.8,0,23.9,0.9,23.9,1.9z M15.9,44.3c0-1.1-0.9-2.1-2-2.1c-1.1,0-2,0.9-2,2c0,1.1,0.9,2,2,2C14.9,46.3,15.8,45.4,15.9,44.3z
	 M8.5,38.3c-1.1,0-2.1,0.9-2.1,2c0,1.1,0.9,2,2,2c1.1,0,2-0.9,2-2.1C10.5,39.2,9.6,38.3,8.5,38.3z M5.8,15.6c0-1.1-0.9-2-1.9-2.1
	c-1.1,0-2.1,0.8-2.1,2c0,1.1,0.9,2,2,2.1C4.9,17.6,5.8,16.7,5.8,15.6z M33.2,43c-1.1,0-2,0.9-2.1,2c0,1.1,0.9,2,2,2.1
	c1.1,0,2-0.9,2.1-2C35.2,44,34.3,43.1,33.2,43z M0,22.1c0,1.1,0.9,2,2,2c1.1,0,2-0.9,2-2c0-1.1-0.9-2-2-2C0.9,20.1,0,20.9,0,22.1z
	 M40.7,11.5c0,1.1,0.9,2,2,2c1.2,0,2.1-0.9,2.1-2c0-1.1-0.9-2-2-2C41.9,9.4,40.7,10.2,40.7,11.5z M19.3,4.6c1.1,0,2-1,2-2.1
	c0-1.1-1-2-2.1-2c-1.1,0-2,1-1.9,2C17.3,3.7,18.2,4.6,19.3,4.6z M47.7,17.5c0-1.1-0.9-2-2-2c-1.1,0-2.1,0.9-2,2c0,1.1,0.9,2,2,2
	C46.8,19.5,47.7,18.6,47.7,17.5z M38.1,4.7c-1.1,0-2,0.9-2,2c0,1.1,0.9,2.1,2,2.1c1.1,0,2-0.9,2-2C40.2,5.6,39.3,4.7,38.1,4.7z
	 M4.5,37c1.1,0,2-0.9,2-2c0-1.1-0.9-2.1-2-2c-1.1,0-2,0.9-2,2C2.5,36.1,3.4,37,4.5,37z M34.4,3.5c0-1.2-0.9-2-2-2c-1.1,0-2,0.9-2,2
	c0,1.2,0.8,2,2,2C33.5,5.5,34.4,4.6,34.4,3.5z M7.5,7.6c-1.2,0-2,0.8-2,2c0,1.2,0.8,2,2,2c1.1,0,2-0.9,2-2C9.5,8.5,8.7,7.7,7.5,7.6z
	 M24.7,46.7c0,1.2,0.9,2.1,2,2.1c1.1,0,2-0.9,2-2c0-1.1-0.9-2-2-2C25.6,44.7,24.7,45.6,24.7,46.7z M46,32.6c1.1,0,2-0.9,2-2
	c0-1.1-0.9-2-2-2c-1.1,0-2,0.9-2,2C43.9,31.7,44.8,32.6,46,32.6z M46.8,22c-1.1,0-2,0.9-2.1,1.9c0,1.1,0.8,2.1,2,2.1
	c1.2,0,2.1-0.8,2.1-2C48.8,22.9,47.9,22,46.8,22z M38.8,43.6c1.2,0,2-0.9,2-2.1c0-1.1-0.9-2-2.1-2c-1.1,0-2,0.9-2,2
	C36.8,42.7,37.7,43.6,38.8,43.6z M15.1,5c0-1.2-0.9-2-2-2c-1.2,0-2,0.9-2,2c0,1.1,0.9,2,2,2C14.2,7,15.2,6.1,15.1,5z M22.1,46.5
	c0-1.1-0.9-2.1-2-2.1c-1.2,0-2,0.9-2.1,2c0,1.1,0.9,2.1,2,2.1C21.2,48.5,22.1,47.6,22.1,46.5z M45.2,36.6c0-1.1-0.9-2-2-2
	c-1.1,0-2,0.9-2,2c0,1.1,0.9,2,2,2C44.3,38.6,45.2,37.8,45.2,36.6z M2.4,26.7c-1.2,0-2.1,0.8-2.1,1.9c0,1.2,0.8,2.1,2,2.1
	c1.1,0,2-0.8,2-2C4.3,27.6,3.5,26.7,2.4,26.7z M30.5,6.2c0-0.8-0.7-1.5-1.5-1.5c-0.9,0-1.5,0.7-1.6,1.5c0,0.9,0.7,1.5,1.5,1.5
	C29.8,7.8,30.5,7.1,30.5,6.2z M35.6,8.4c0-0.8-0.7-1.5-1.5-1.5c-0.8,0-1.5,0.7-1.5,1.6c0,0.8,0.7,1.5,1.5,1.5
	C34.9,10,35.6,9.2,35.6,8.4z M38,38.8c0.9,0,1.6-0.7,1.6-1.5c0-0.8-0.7-1.5-1.6-1.5c-0.8,0-1.5,0.7-1.5,1.5
	C36.5,38.1,37.1,38.8,38,38.8z M5.6,23.1c-0.9,0-1.5,0.7-1.5,1.6c0,0.8,0.7,1.5,1.6,1.5c0.9,0,1.5-0.7,1.5-1.5
	C7.1,23.8,6.4,23.1,5.6,23.1z M17.6,40.4c-0.9,0-1.6,0.7-1.6,1.5c0,0.8,0.7,1.6,1.5,1.6c0.8,0,1.5-0.7,1.6-1.5
	C19.1,41.1,18.4,40.4,17.6,40.4z M23,44.6c0.8,0,1.5-0.7,1.5-1.5c0-0.9-0.7-1.5-1.5-1.5c-0.8,0-1.5,0.7-1.5,1.5
	C21.5,44,22.1,44.7,23,44.6z M38.3,10.4c-0.8,0-1.5,0.7-1.5,1.5c0,0.8,0.7,1.5,1.5,1.5c0.8,0,1.5-0.7,1.5-1.5
	C39.9,11,39.2,10.4,38.3,10.4z M10.5,35.1c0-0.8-0.7-1.5-1.5-1.5c-0.9,0-1.5,0.7-1.5,1.5c0,0.9,0.7,1.5,1.5,1.5
	C9.8,36.6,10.5,36,10.5,35.1z M12.8,37.6c-0.8,0-1.6,0.7-1.6,1.5c0,0.8,0.7,1.5,1.6,1.5c0.8,0,1.5-0.6,1.5-1.5
	C14.3,38.3,13.6,37.6,12.8,37.6z M6.5,17.5c-0.8,0-1.5,0.7-1.6,1.5c0,0.8,0.7,1.5,1.5,1.5C7.3,20.6,8,20,8,19.1
	C8,18.2,7.3,17.5,6.5,17.5z M41.4,15c-0.8,0-1.6,0.7-1.6,1.5c0,0.8,0.7,1.5,1.5,1.5c0.9,0,1.6-0.6,1.6-1.5
	C42.9,15.7,42.3,15,41.4,15z M10.5,13.8c0-0.9-0.7-1.6-1.5-1.5c-0.9,0-1.5,0.7-1.5,1.6c0,0.8,0.7,1.5,1.5,1.5
	C9.9,15.3,10.5,14.7,10.5,13.8z M30.1,42.7c0-0.8-0.7-1.5-1.6-1.5c-0.8,0-1.5,0.7-1.5,1.5c0,0.9,0.6,1.5,1.5,1.5
	C29.4,44.2,30.1,43.5,30.1,42.7z M11.6,9.4c0,0.9,0.7,1.5,1.5,1.5c0.8,0,1.5-0.7,1.5-1.6c0-0.8-0.7-1.5-1.5-1.5
	C12.2,7.9,11.6,8.5,11.6,9.4z M44.4,27.4c0-0.8-0.7-1.5-1.5-1.6c-0.8,0-1.5,0.7-1.5,1.5c0,0.9,0.6,1.5,1.5,1.5
	C43.7,28.9,44.4,28.3,44.4,27.4z M44.5,21.9c0-0.9-0.7-1.5-1.6-1.5c-0.8,0-1.5,0.7-1.5,1.5c0,0.9,0.6,1.5,1.6,1.5
	C43.8,23.4,44.5,22.7,44.5,21.9z M21.9,5.7c0,0.8,0.7,1.5,1.5,1.6c0.8,0,1.5-0.7,1.5-1.5c0-0.8-0.7-1.5-1.5-1.5
	C22.6,4.2,21.9,4.8,21.9,5.7z M41.2,34.2c0.8,0,1.5-0.7,1.5-1.5c0-0.8-0.7-1.5-1.5-1.5c-0.9,0-1.5,0.6-1.5,1.5
	C39.7,33.6,40.3,34.2,41.2,34.2z M5,30.1c0,0.9,0.6,1.5,1.5,1.5C7.3,31.7,8,31,8,30.2c0-0.9-0.7-1.5-1.6-1.5C5.6,28.6,5,29.3,5,30.1
	z M35.2,40.7c0-0.9-0.6-1.5-1.5-1.6c-0.8,0-1.5,0.6-1.5,1.5c0,0.9,0.6,1.5,1.5,1.6C34.5,42.2,35.2,41.6,35.2,40.7z M19.5,6.8
	c0-0.9-0.6-1.6-1.5-1.6c-0.8,0-1.6,0.6-1.6,1.5c0,0.8,0.6,1.5,1.5,1.6C18.8,8.3,19.5,7.7,19.5,6.8z M16.7,83.6
	c0.4,0.2,0.7,0.4,1.1,0.6c-0.1-0.5-0.1-0.9-0.2-1.4c0.3-0.2,0.6-0.4,0.9-0.7c0,0,0-0.1-0.1-0.1c-0.4-0.1-0.8-0.1-1.2-0.2
	c-0.2-0.4-0.4-0.7-0.6-1.1c-0.2,0.4-0.4,0.8-0.6,1.1c-0.4,0.1-0.8,0.1-1.2,0.2c0,0,0,0.1,0,0.1c0.3,0.3,0.6,0.5,0.9,0.7
	c-0.1,0.5-0.1,0.9-0.2,1.4C16,83.9,16.3,83.7,16.7,83.6z M34.4,82.7c0.3-0.2,0.6-0.4,0.9-0.7c-0.5-0.1-0.9-0.1-1.3-0.2
	c-0.2-0.4-0.4-0.7-0.6-1.1c-0.2,0.4-0.4,0.8-0.6,1.1c-0.4,0.1-0.8,0.1-1.3,0.2c0.4,0.3,0.7,0.6,0.9,0.8c-0.1,0.5-0.1,0.9-0.2,1.4
	c0.4-0.2,0.8-0.4,1.2-0.6c0.4,0.2,0.7,0.4,1.1,0.6C34.5,83.7,34.4,83.3,34.4,82.7z M28.8,83.3c-0.1-0.3,0-0.5,0.2-0.6
	c0.2-0.2,0.4-0.4,0.7-0.5c0,0-0.1-0.1-0.1-0.1c-0.4-0.1-0.8-0.1-1.2-0.2c-0.2-0.4-0.4-0.7-0.6-1.1c-0.2,0.4-0.4,0.8-0.6,1.1
	c-0.4,0.1-0.8,0.1-1.3,0.2c0.4,0.3,0.7,0.6,0.9,0.8c-0.1,0.5-0.1,0.8-0.2,1.3c0.4-0.2,0.8-0.4,1.1-0.6c0.4,0.2,0.7,0.4,1.1,0.6
	C28.9,83.8,28.9,83.5,28.8,83.3z M21.1,82.7c0.1,0.1,0.2,0.3,0.1,0.5c0,0.3-0.1,0.6-0.1,1c0.4-0.2,0.8-0.4,1.1-0.6
	c0.4,0.2,0.7,0.4,1.1,0.6c-0.1-0.5-0.1-0.9-0.2-1.4c0.3-0.2,0.6-0.5,0.9-0.8c-0.5-0.1-0.9-0.1-1.3-0.2c-0.2-0.4-0.4-0.7-0.6-1.1
	c-0.2,0.4-0.4,0.8-0.6,1.1c-0.4,0.1-0.8,0.1-1.3,0.2C20.7,82.3,20.9,82.5,21.1,82.7z M22.2,76.8c-0.3-0.7-0.5-1.3-0.8-2
	c-0.1,0-0.3,0-0.4,0c0,1.1,0,2.2,0,3.4c0.2,0,0.3,0,0.4,0c0-0.7,0-1.3,0-1.9c0,0,0.1,0,0.1,0c0.2,0.7,0.5,1.3,0.8,2
	c0.1,0,0.2,0,0.4,0c0-1.1,0-2.2,0-3.4c-0.1,0-0.2,0-0.4,0C22.3,75.4,22.3,76.1,22.2,76.8C22.3,76.7,22.3,76.8,22.2,76.8z M9.6,21.8
	c0-0.6-0.5-1.1-1.1-1c-0.5,0-1,0.5-1,1c0,0.6,0.5,1,1.1,1C9.1,22.8,9.5,22.4,9.6,21.8z M13.2,11.8c-0.6,0-1.1,0.4-1.1,1
	c0,0.6,0.4,1.1,1,1.1c0.5,0,1-0.4,1.1-1C14.2,12.3,13.7,11.8,13.2,11.8z M25.3,8.4c0,0.6,0.5,1,1,1c0.6,0,1.1-0.5,1.1-1.1
	c0-0.5-0.5-1-1-1C25.7,7.3,25.3,7.8,25.3,8.4z M41.5,24.9c0-0.5-0.5-1-1-1c-0.6,0-1.1,0.5-1.1,1c0,0.6,0.4,1,1,1
	C41.1,26,41.5,25.5,41.5,24.9z M15.9,10c0,0.5,0.5,1,1,1c0.6,0,1.1-0.4,1.1-1c0-0.6-0.4-1-1-1C16.4,9,16,9.4,15.9,10z M11.2,17
	c0-0.6-0.4-1-1-1c-0.6,0-1,0.4-1,1.1c0,0.6,0.4,1,1,1C10.8,18,11.2,17.6,11.2,17z M39.6,28.6c-0.6,0-1,0.5-1,1c0,0.5,0.5,1,1,1
	c0.6,0,1.1-0.5,1.1-1C40.7,29.1,40.2,28.6,39.6,28.6z M10.8,31.2c0-0.5-0.5-1-1-1c-0.6,0-1,0.4-1,1c0,0.6,0.4,1.1,1,1.1
	C10.3,32.3,10.8,31.8,10.8,31.2z M37.4,32.8c-0.6,0-1.1,0.5-1,1.1c0,0.6,0.5,1,1,1c0.6,0,1.1-0.5,1.1-1.1
	C38.5,33.3,38,32.9,37.4,32.8z M33.1,37.3c0,0.6,0.5,1,1,1c0.6,0,1.1-0.5,1.1-1c0-0.6-0.4-1-1.1-1C33.5,36.3,33,36.7,33.1,37.3z
	 M25.2,41.6c0.6,0,1-0.4,1-1c0-0.6-0.4-1.1-1-1.1c-0.6,0-1,0.4-1,1C24.2,41.1,24.6,41.6,25.2,41.6z M34.9,11.2c-0.5,0-1,0.5-1,1
	c0,0.5,0.5,1,1,1.1c0.6,0,1.1-0.5,1.1-1.1C36,11.6,35.5,11.2,34.9,11.2z M22.6,8.5c0-0.6-0.5-1-1-1.1c-0.6,0-1.1,0.4-1.1,1
	c0,0.5,0.4,1,1,1C22.1,9.5,22.6,9.1,22.6,8.5z M16.1,37.2c-0.6,0-1.1,0.5-1.1,1c0,0.6,0.5,1,1.1,1c0.6,0,1-0.4,1-1
	C17.1,37.7,16.6,37.3,16.1,37.2z M9.4,26.7c0-0.6-0.5-1-1.1-1c-0.6,0-1,0.5-1,1c0,0.6,0.5,1.1,1,1.1C8.9,27.7,9.4,27.3,9.4,26.7z
	 M38.9,20.2c0,0.6,0.5,1,1.1,1c0.5,0,1-0.5,1-1c0-0.5-0.5-1-1-1C39.4,19.2,38.9,19.6,38.9,20.2z M39.1,15.8c0-0.6-0.5-1-1-1
	c-0.6,0-1.1,0.4-1.1,1c0,0.6,0.4,1,1,1C38.6,16.8,39.1,16.4,39.1,15.8z M29.9,38.5c-0.5,0-1,0.5-1,1c0,0.6,0.4,1.1,1,1.1
	c0.6,0,1-0.5,1-1.1C30.9,39,30.5,38.5,29.9,38.5z M30.9,8.6c-0.6,0-1.1,0.5-1,1.1c0,0.6,0.4,1,1,1c0.6,0,1.1-0.5,1-1
	C31.9,9.1,31.5,8.6,30.9,8.6z M35.7,76.7c0.2,0.5,0.3,0.9,0.5,1.4c0.2,0,0.3,0,0.4,0c-0.2-0.5-0.3-1-0.5-1.5
	c0.4-0.5,0.5-1.2,0.2-1.6c-0.4-0.5-0.9-0.3-1.4-0.3c0,1.2,0,2.2,0,3.4c0.1,0,0.3,0,0.4,0c0-0.5,0-0.9,0-1.4
	C35.5,76.7,35.6,76.7,35.7,76.7z M35.9,75.2c0.2,0.3,0.3,0.7,0.1,1c-0.1,0.1-0.4,0.1-0.6,0.2c0-0.5,0-0.8,0-1.2
	C35.6,75.2,35.7,75.2,35.9,75.2z M20.4,39.1c-0.5,0-1,0.5-1,1c0,0.5,0.5,1,1,1c0.6,0,1-0.5,1-1.1C21.5,39.5,21,39,20.4,39.1z
	 M12.3,36.3c0.6,0,1.1-0.4,1.1-1c0-0.6-0.5-1.1-1-1.1c-0.6,0-1,0.5-1,1C11.3,35.8,11.8,36.3,12.3,36.3z M28.1,74.8
	c0,1.2,0,2.3,0,3.4c0.1,0,0.3,0,0.4,0c0-0.5,0-1,0-1.5c0.3,0,0.5,0,0.7,0c0,0.5,0,1,0,1.5c0.2,0,0.3,0,0.4,0c0-1.1,0-2.2,0-3.4
	c-0.2,0-0.3,0-0.4,0c0,0.5,0,1,0,1.4c-0.2,0-0.5,0-0.7,0c0-0.5,0-0.9,0-1.4C28.3,74.8,28.2,74.8,28.1,74.8z M5,76.7c0,0.5,0,1,0,1.5
	c0.2,0,0.3,0,0.4,0c0-1.1,0-2.2,0-3.4c-0.1,0-0.3,0-0.4,0.1c0,0.5,0,0.9,0,1.4c-0.2,0-0.4,0-0.7,0c0-0.5,0-1,0-1.4
	c-0.2,0-0.3,0-0.4,0c0,1.1,0,2.2,0,3.4c0.1,0,0.3,0,0.4,0c0-0.5,0-1,0-1.5C4.5,76.7,4.7,76.7,5,76.7z M46,75.1
	c-0.4-0.5-0.9-0.3-1.4-0.3c0,1.2,0,2.3,0,3.4c0.1,0,0.2,0,0.4,0c0-0.5,0-0.9,0-1.4c0.1,0,0.2,0,0.3,0c0.2,0.5,0.3,0.9,0.5,1.4
	c0.1,0,0.3,0,0.4,0c-0.2-0.5-0.3-1-0.5-1.4C46.2,76.2,46.3,75.5,46,75.1z M45,75.2c0.2,0,0.4,0,0.5,0c0.2,0.3,0.2,0.7,0,1.1
	c-0.2,0-0.3,0-0.6,0.1C45,75.9,45,75.6,45,75.2z M8.2,75.3c-0.1-0.4-0.4-0.6-0.8-0.6c-0.4,0-0.7,0.2-0.7,0.6c0,0.7,0,1.5,0,2.2
	c0,0.4,0.4,0.6,0.7,0.6c0.4,0,0.7-0.2,0.8-0.6c0.1-0.4,0.1-0.7,0.1-1.1C8.3,76.1,8.3,75.7,8.2,75.3z M7.8,77.5
	c0,0.1-0.2,0.3-0.3,0.3c-0.1,0-0.3-0.2-0.3-0.3c0-0.7,0-1.4,0-2.1c0-0.1,0.2-0.3,0.3-0.3c0.1,0,0.3,0.2,0.3,0.3
	c0.1,0.3,0.1,0.7,0.1,1C7.9,76.8,7.9,77.2,7.8,77.5z M19.9,76.4c0-0.1,0-0.2,0-0.3c0-0.2,0-0.4,0-0.6c0-0.5-0.3-0.8-0.8-0.8
	c-0.5,0-0.8,0.3-0.8,0.8c0,0.6,0,1.2,0,1.9c0,0.5,0.3,0.8,0.8,0.8c0.5,0,0.8-0.3,0.8-0.8C19.9,77.1,19.9,76.7,19.9,76.4
	C19.9,76.4,19.9,76.4,19.9,76.4z M19.4,77.3c0,0.2-0.1,0.4-0.4,0.4c-0.3,0-0.4-0.2-0.4-0.4c0-0.6,0-1.2,0-1.9c0-0.2,0.1-0.5,0.4-0.4
	c0.1,0,0.3,0.3,0.3,0.4c0.1,0.3,0,0.6,0,0.9h0C19.4,76.8,19.4,77.1,19.4,77.3z M39.2,74.8c0.2,1.1,0.5,2.3,0.7,3.4
	c0.2,0,0.3,0,0.4,0c0.2-1.1,0.5-2.2,0.7-3.4c-0.2,0-0.3,0-0.5,0c-0.2,0.8-0.3,1.6-0.5,2.4c0,0,0,0-0.1,0c-0.1-0.8-0.3-1.6-0.5-2.5
	C39.5,74.7,39.4,74.8,39.2,74.8z M43.3,76.6c0-0.1,0-0.2,0-0.3c-0.3,0-0.5,0-0.7-0.1c0-0.4,0-0.7,0-1c0.3,0,0.6,0,0.8,0
	c0-0.1,0-0.3,0-0.4c-0.4,0-0.9,0-1.3,0c0,1.1,0,2.2,0,3.3c0.4,0,0.9,0,1.3,0c0-0.1,0-0.2,0-0.3c-0.3,0-0.6-0.1-0.9-0.1
	c0-0.4,0-0.7,0-1.1C42.8,76.6,43,76.6,43.3,76.6z M12.3,77.7c0-0.4,0-0.7,0-1.1c0.2,0,0.5,0,0.7,0c0-0.1,0-0.2,0-0.3
	c-0.3,0-0.5,0-0.7,0c0-0.4,0-0.7,0-1.1c0.3,0,0.5,0,0.8,0c0-0.1,0-0.3,0-0.4c-0.5,0-0.9,0-1.3,0c0,1.1,0,2.2,0,3.4
	c0.4,0,0.8,0,1.3,0c0-0.1,0-0.2,0-0.3C12.9,77.8,12.6,77.8,12.3,77.7z M30.9,78.1c0.4,0,0.9,0,1.3,0c0-0.1,0-0.2,0-0.4
	c-0.3,0-0.6,0-0.8,0c0-0.4,0-0.7,0-1.1c0.3,0,0.5,0,0.8-0.1c0-0.1,0-0.2,0-0.3c-0.2,0-0.5,0-0.7,0c0-0.4,0-0.7,0-1.1
	c0.3,0,0.6,0,0.8,0c0-0.1,0-0.3,0-0.4c-0.4,0-0.8,0-1.3,0C30.9,75.9,30.9,77,30.9,78.1z M26.4,75.2c0.2,0,0.4-0.1,0.5-0.1
	c0-0.1,0-0.2,0-0.3c-0.5,0-1,0-1.6,0c0,0.2,0,0.3,0.1,0.4c0.2,0,0.3,0,0.5,0.1c0,1,0,2,0,2.9c0.2,0,0.2,0,0.4,0
	C26.4,77.1,26.4,76.2,26.4,75.2z M9.2,74.8c0,0.1,0,0.2,0,0.4c0.2,0,0.3,0.1,0.5,0.1c0,1,0,1.9,0,3c0.2,0,0.3,0,0.5-0.1
	c0-1,0-1.9,0-2.9c0.2,0,0.3-0.1,0.5-0.1c0-0.1,0-0.2,0-0.3C10.2,74.8,9.7,74.8,9.2,74.8z M15.6,78.1c0-0.1,0-0.2,0-0.3
	c-0.3,0-0.6,0-0.9-0.1c0-1,0-2,0-3c-0.2,0-0.3,0-0.4,0c0,1.1,0,2.2,0,3.4C14.8,78.1,15.2,78.1,15.6,78.1z M37.8,78.1
	c0.1,0,0.2,0,0.4,0c0-1.1,0-2.2,0-3.3c-0.1,0-0.2,0-0.4,0C37.8,75.9,37.8,77,37.8,78.1z"/>
</svg>
