<!-- Generator: Adobe Illustrator 23.0.4, SVG Export Plug-In  -->
<svg version="1.1" xmlns="http://www.w3.org/2000/svg" xmlns:xlink="http://www.w3.org/1999/xlink" x="0px" y="0px"
	 width="339.985px" height="163.156px" viewBox="0 0 339.985 163.156" enable-background="new 0 0 339.985 163.156"
	 xml:space="preserve">
<path fill="#868789" d="M163.315,54.025c-0.015-0.05-0.03-0.099-0.047-0.148c0.009-0.078,0.025-0.156,0.025-0.234
	c0.003-5.904,0.005-11.808,0.002-17.712c0-0.198-0.052-0.396-0.078-0.575c-2.624,0-5.181,0-7.756,0
	c-0.011,0.249-0.043,0.433-0.023,0.612c0.392,3.648,0.798,7.294,1.183,10.943c0.245,2.319,0.463,4.641,0.692,6.961
	c-1.25,0-2.501,0-3.751,0.001c-0.112-1.227-0.233-2.453-0.333-3.681c-0.286-3.475-0.56-6.95-0.844-10.425
	c-0.293-3.579-0.599-7.157-0.885-10.736c-0.307-3.841-0.581-7.684-0.912-11.523c-0.062-0.72,0.155-1.026,0.856-1.056
	c1.467-0.063,2.933-0.142,4.399-0.214c2.514-0.123,5.027-0.26,7.542-0.362c2.746-0.112,5.497-0.322,8.24-0.255
	c4.638,0.114,9.271,0.41,13.906,0.635c1.231,0.06,2.46,0.141,3.69,0.208c0.572,0.031,0.801,0.234,0.742,0.888
	c-0.31,3.42-0.567,6.844-0.831,10.268c-0.335,4.338-0.645,8.678-0.992,13.015c-0.344,4.311-0.72,8.62-1.082,12.93
	c-0.178,0.142-0.357,0.409-0.533,0.407c-1.085-0.011-2.169-0.083-3.253-0.135c0.062-0.731,0.113-1.463,0.189-2.193
	c0.393-3.753,0.794-7.505,1.189-11.258c0.175-1.662,0.345-3.325,0.528-5.094c-2.66,0-5.251,0-7.841,0
	c-0.06,0.409-0.172,0.817-0.173,1.226c-0.012,5.476-0.006,10.952-0.01,16.428c-0.001,0.993-0.086,1.074-1.078,1.08
	c-0.891,0.006-1.782,0-2.672-0.001c0.099-1.568,0.203-3.136,0.296-4.705c0.192-3.27,0.382-6.539,0.565-9.809
	c0.086-1.532,0.153-3.065,0.231-4.643c-2.863,0-5.6,0-8.364,0c-0.015,0.176-0.042,0.303-0.035,0.429
	c0.142,2.669,0.286,5.338,0.434,8.007c0.188,3.401,0.378,6.802,0.568,10.203c-0.277,0.173-0.547,0.477-0.834,0.495
	C165.285,54.063,164.299,54.025,163.315,54.025z M154.533,21.947c0.35,3.094,0.687,6.071,1.018,8.999c1.154,0,2.213,0,3.369,0
	c-0.237-3.065-0.465-6.023-0.695-8.999C156.995,21.947,155.829,21.947,154.533,21.947z M182.338,21.96
	c-0.227,2.967-0.454,5.927-0.689,8.992c1.188,0,2.248,0,3.36,0c0.334-2.957,0.671-5.936,1.017-8.992
	C184.774,21.96,183.629,21.96,182.338,21.96z M166.396,21.77c0.137,2.893,0.263,5.714,0.425,8.532
	c0.01,0.166,0.298,0.437,0.475,0.453c0.954,0.086,1.914,0.107,2.925,0.153c-0.149-3.118-0.292-6.112-0.437-9.138
	C168.639,21.77,167.599,21.77,166.396,21.77z M162.712,30.737c-0.154-3.066-0.302-6.002-0.453-9.004
	c-1.19,0.06-2.269,0.114-3.381,0.17c0.257,3.056,0.503,5.99,0.756,9.005C160.676,30.85,161.632,30.797,162.712,30.737z
	 M181.68,21.865c-1.145,0-2.227,0-3.381,0c-0.145,2.906-0.292,5.844-0.443,8.872c1.048,0.055,2.047,0.108,3.079,0.162
	C181.186,27.859,181.426,24.944,181.68,21.865z M170.889,21.776c0,3.064,0,6.06,0,9.018c0.967,0,1.848,0,2.831,0
	c0.157-3.042,0.31-6.004,0.465-9.018C173.009,21.776,171.972,21.776,170.889,21.776z M282.627,80.432l-0.216-0.574
	c-0.963-4.227-4.244-6.317-7.812-8.257c-5.149-2.803-10.819-4.467-15.729-5.807c-0.581-0.158-1.158-0.334-1.735-0.511l-1.232-0.371
	l0.389-1.377c0.23-0.83,0.462-1.66,0.727-2.479c0.099-0.307,0.35-0.485,0.551-0.629c0.059-0.042,0.117-0.083,0.167-0.127
	l0.169-0.151l1.16,0.14l0.208-4.098h3.396v-4.261c0-1.646,0.552-2.319,2.083-2.477c0.508-0.687,1.596-1.037,2.509-0.755
	c0.366,0.112,0.789,0.233,1.182,0.248c0.728,0.027,1.455,0.022,2.231,0.018l1.571-0.005l-0.062,0.555
	c-0.357,3.223-0.327,6.49-0.299,9.649c0.015,1.637,0.03,3.322-0.008,5h0.226c0.007-0.104,0.012-0.21,0.012-0.315l0.006-1.341
	c0.007-1.491,0.014-2.983-0.018-4.474c-0.007-0.328,0.022-0.743,0.321-1.037c0.297-0.292,0.711-0.311,1.045-0.305
	c0.855,0.031,1.713,0.024,2.587,0.019l1.654-0.006l-0.271,8.512h0.602c0.006-0.091,0.011-0.181,0.011-0.271l0.001-0.938
	c0.004-3.229,0.008-6.458-0.014-9.687c-0.006-0.031-0.062-0.136-0.101-0.205c-0.081-0.147-0.183-0.331-0.218-0.55l-0.035-0.208
	c-0.086-0.514-0.184-1.097-0.062-1.651c0.134-0.59,1.056-0.858,1.456-0.891c0.649-0.055,1.307-0.044,1.941-0.033
	c0.109,0.001,0.219,0.003,0.328,0.005l0.125-1.056l0.945-0.002c0.461-0.002,0.922-0.005,1.381,0.012
	c0.234,0.009,0.422,0.118,0.56,0.198l1.213,0.594l0.071,0.182c0.035,0.089,0.076,0.176,0.117,0.264
	c0.105,0.227,0.225,0.482,0.269,0.772c0.986,6.38,1.136,11.65,0.472,16.586c-0.578,4.301-1.441,7.772-2.716,10.924
	c-0.083,0.206-0.178,0.409-0.277,0.608c-0.088,0.176-0.234,0.247-0.313,0.286L282.627,80.432z M257.132,64.238l0.295,0.09
	c0.567,0.173,1.135,0.347,1.706,0.502c4.965,1.354,10.7,3.039,15.945,5.893c3.297,1.793,6.595,3.867,7.959,7.709
	c1.145-2.952,1.933-6.218,2.473-10.226c0.65-4.838,0.501-10.019-0.47-16.302c-0.022-0.149-0.103-0.32-0.187-0.502
	c-0.021-0.044-0.042-0.089-0.062-0.134l-0.762-0.368c-0.058-0.027-0.116-0.061-0.175-0.095c-0.041-0.023-0.103-0.06-0.126-0.067
	c-0.417-0.014-0.861-0.01-1.305-0.007h-0.063l-0.125,1.061h-0.444c-0.264,0-0.526-0.004-0.788-0.008
	c-0.64-0.013-1.245-0.021-1.845,0.029c-0.199,0.017-0.467,0.121-0.576,0.195c-0.054,0.348,0.018,0.773,0.087,1.186l0.036,0.214
	c0.007,0.047,0.062,0.146,0.106,0.228c0.1,0.18,0.223,0.404,0.225,0.68c0.021,3.231,0.018,6.463,0.014,9.694l-0.001,0.938
	c0,0.183-0.015,0.366-0.03,0.557l-0.049,0.713h-2.566l0.271-8.509l-0.613,0.003c-0.889,0.006-1.762,0.013-2.632-0.019
	c-0.22-0.01-0.295,0.017-0.312,0.023c0.005,0.006-0.021,0.083-0.017,0.297c0.031,1.5,0.024,3,0.018,4.499l-0.006,1.338
	c0,0.203-0.015,0.407-0.03,0.606l-0.045,0.708h-2.189l0.015-0.515c0.054-1.827,0.037-3.682,0.021-5.476
	c-0.027-3.009-0.056-6.114,0.247-9.211l-0.451,0.002c-0.79,0.005-1.535,0.01-2.275-0.018c-0.515-0.02-1.012-0.161-1.438-0.293
	c-0.547-0.167-1.274,0.071-1.466,0.486l-0.125,0.271l-0.298,0.019c-1.212,0.075-1.409,0.285-1.409,1.5v5.261h-3.444l-0.216,4.219
	l-1.793-0.216c-0.021,0.016-0.044,0.031-0.065,0.048c-0.068,0.048-0.171,0.121-0.196,0.155c-0.244,0.772-0.472,1.589-0.699,2.406
	L257.132,64.238z M55.043,78.213l-0.433-1.111c-0.081-0.201-0.152-0.379-0.21-0.562c-1.176-3.75-1.842-7.779-1.979-11.976
	c-0.14-4.239,0.174-8.675,0.93-13.186c0.076-0.458,0.203-1.215,1.094-1.334l1.463-0.005l0.151,0.993
	c0.098-0.002,0.194-0.004,0.292-0.006c0.593-0.011,1.205-0.023,1.816,0.034c0.062,0.006,1.547,0.157,1.664,0.919
	c0.015,0.095,0.038,0.193,0.062,0.295c0.117,0.499,0.311,1.324-0.475,1.904c-0.022,3.301-0.021,6.524-0.021,9.797v1.506l0.61,0.03
	l-0.276-8.473h5.598v7.394h0.311l0.002-3.292c0.002-2.816,0.005-5.633-0.015-8.447c-0.003-0.395-0.072-0.797-0.146-1.223
	c-0.044-0.257-0.088-0.514-0.118-0.771c-0.024-0.2-0.02-0.405-0.014-0.603l0.005-0.496l0.25-0.144
	c0.169-0.113,0.3-0.203,0.487-0.212l2.227-0.121c1.007-0.054,2.014-0.108,3.02-0.168c0.446-0.026,0.898-0.006,1.233,0.309
	c0.134,0.126,0.229,0.284,0.288,0.473l1.08,0.058l0.14,0.169c0.94,1.143,0.873,2.415,0.812,3.539
	c-0.023,0.438-0.046,0.852-0.015,1.251c0.04,0.501,0.03,0.99,0.021,1.509c-0.001,0.071-0.003,0.143-0.004,0.215h3.493v4.132
	l1.505-0.231l-0.056-0.452c-0.084-0.667-0.166-1.318-0.24-1.971c-0.142-1.234,0.284-1.923,1.471-2.374l0.303-0.115l0.229,0.229
	c0.041,0.041,0.09,0.079,0.138,0.118c0.176,0.142,0.395,0.318,0.478,0.606c0.565,1.97,1.112,3.944,1.658,5.919l0.548,1.977
	l-0.508,0.119c-7.879,1.841-14.398,3.707-20.606,6.828c-1.9,0.956-4.327,2.323-6.235,4.423c-0.334,0.368-0.639,0.764-0.97,1.19
	c-0.163,0.211-0.332,0.429-0.513,0.655L55.043,78.213z M54.511,51.04c-0.068,0.014-0.093,0.017-0.165,0.453
	c-0.754,4.496-1.062,8.865-0.925,13.038c0.134,4.097,0.781,8.028,1.925,11.684c0.333-0.43,0.644-0.828,0.982-1.201
	c2.019-2.223,4.548-3.649,6.526-4.644c6.161-3.099,12.6-4.972,20.321-6.791l-0.27-0.974c-0.545-1.972-1.091-3.942-1.655-5.909
	c0,0.001-0.001,0.001-0.001,0.001c-0.009,0-0.053-0.033-0.097-0.068c-0.529,0.253-0.643,0.538-0.564,1.213
	c0.073,0.649,0.155,1.297,0.238,1.96l0.176,1.419l-3.617,0.554v-4.296h-3.498v-0.5c0-0.252,0.005-0.495,0.009-0.733
	c0.01-0.494,0.019-0.96-0.017-1.412c-0.037-0.466-0.012-0.932,0.012-1.383c0.055-1.006,0.102-1.884-0.456-2.68l-1.507-0.08
	l-0.003-0.472c-0.001-0.179-0.04-0.224-0.04-0.224c-0.017-0.016-0.104-0.062-0.489-0.04c-1.008,0.061-2.017,0.114-3.025,0.168
	l-2.026,0.111c-0.003,0.115-0.004,0.232,0.01,0.348c0.029,0.241,0.07,0.48,0.111,0.72c0.077,0.447,0.157,0.909,0.16,1.385
	c0.02,2.818,0.017,5.638,0.015,8.456l-0.002,4.291h-2.311V58.04h-3.564l0.278,8.523l-2.646-0.128v-2.459
	c0-3.282-0.001-6.516,0.006-9.748c0.002-0.268,0.103-0.642,0.379-0.823c0.267-0.175,0.27-0.34,0.138-0.902
	c-0.018-0.077-0.035-0.153-0.051-0.228c-0.153-0.08-0.503-0.19-0.797-0.218c-0.553-0.054-1.11-0.041-1.7-0.03
	c-0.248,0.005-0.495,0.01-0.741,0.01H55.2l-0.152-0.997H54.511z M254.316,60.79c-0.318,0.868-0.636,1.737-0.978,2.669
	c-0.285-0.171-0.521-0.314-0.571-0.344c0.059-1.098,0.111-2.048,0.162-2.999c-0.196,0.076-0.427,0.259-0.584,0.209
	c-0.846-0.27-1.682-0.578-2.501-0.921c-0.18-0.075-0.281-0.342-0.418-0.52c-0.244,0.765-0.487,1.529-0.761,2.386
	c-1.546-0.325-3.09-0.649-4.688-0.985c0.192-1.026,0.372-1.989,0.553-2.952c-0.883-0.365-1.766-0.729-2.649-1.094
	c-0.205,0.744-0.411,1.489-0.649,2.35c-0.991-0.48-1.932-0.915-2.846-1.4c-0.136-0.072-0.193-0.376-0.205-0.577
	c-0.016-0.282,0.045-0.568,0.072-0.853c-0.585-0.122-1.17-0.243-1.756-0.365c-0.423,1.401-0.423,1.408-1.933,1.294
	c-0.667-0.05-1.331-0.133-2.002-0.202c0-0.432,0-0.816,0-1.201c-0.362-0.059-0.724-0.118-1.086-0.178
	c-0.013,0.022-0.032,0.043-0.039,0.067c-0.358,1.346-0.357,1.343-1.806,1.165c-0.535-0.066-1.072-0.114-1.632-0.173
	c0-0.427,0-0.812,0-1.197c-0.47-0.167-0.94-0.334-1.41-0.501c-0.12,0.504-0.24,1.009-0.384,1.614
	c-1.12-0.072-2.235-0.131-3.345-0.233c-0.13-0.012-0.311-0.254-0.341-0.413c-0.056-0.304-0.021-0.624-0.023-0.938
	c-0.417-0.052-0.833-0.105-1.25-0.157c-0.016,0.021-0.039,0.04-0.045,0.063c-0.112,0.432-0.172,1.214-0.341,1.238
	c-0.706,0.101-1.446-0.006-2.168-0.09c-0.108-0.012-0.243-0.301-0.261-0.472c-0.037-0.358-0.005-0.722-0.001-1.084
	c-1.298-0.056-2.598-0.081-3.893-0.176c-2.366-0.173-4.73-0.386-7.094-0.586c-0.541-0.046-1.123-0.012-1.414-0.628
	c-0.122,1.158-0.245,2.317-0.367,3.475c-1.625-0.008-3.249-0.016-4.874-0.024c0.088-1.15,0.176-2.3,0.264-3.45
	c-0.791-0.055-1.582-0.11-2.373-0.165c-0.105,0.957-0.231,1.912-0.309,2.872c-0.051,0.624-0.333,0.837-0.957,0.8
	c-0.861-0.051-1.729-0.056-2.589,0c-0.76,0.05-0.859-0.294-0.794-0.937c0.123-1.22,0.18-2.447,0.264-3.67
	c-0.37,0.935-0.994,0.461-1.565,0.281c-0.155,1.424-0.309,2.848-0.464,4.273c-0.565,0.102-1.131,0.203-1.696,0.305
	c3.901,0.207,7.811,0.316,11.702,0.642c7.967,0.667,15.936,1.345,23.882,2.213c8.918,0.974,17.75,2.534,26.5,4.531
	c0.965,0.22,1.933,0.425,2.9,0.637c0.214-0.882,0.427-1.764,0.641-2.646C255.568,61.423,254.942,61.107,254.316,60.79z
	 M134.967,56.383c-0.101-0.945-0.201-1.891-0.302-2.836c-3.765,0.16-7.532,0.3-11.295,0.497c-0.783,0.041-1.262-0.106-1.3-0.964
	c0.046,1.066,0.076,2.133,0.146,3.198c0.033,0.502-0.142,0.716-0.649,0.721c-2.122,0.02-1.927,0.356-2.065-1.722
	c-0.039-0.593-0.177-1.18-0.27-1.77c-0.165,0.922-0.452,1.04-1.258,0.518c0.055,0.83,0.082,1.664,0.177,2.489
	c0.05,0.431-0.035,0.646-0.496,0.66c-0.911,0.028-1.823,0.113-2.731,0.081c-0.204-0.007-0.513-0.369-0.57-0.615
	c-0.164-0.702-0.224-1.428-0.325-2.145c-0.553-0.052-1.2,0.208-1.564-0.471c0.081,0.858,0.138,1.719,0.253,2.572
	c0.071,0.527-0.039,0.773-0.629,0.778c-0.831,0.006-1.662,0.093-2.559,0.15c-0.189-1.182-0.364-2.279-0.54-3.377
	c-0.147,0.207-0.278,0.564-0.447,0.583c-0.199,0.022-0.431-0.247-0.648-0.391c0.076,0.776,0.11,1.558,0.24,2.325
	c0.107,0.627-0.029,0.949-0.716,0.949c-0.808-0.001-1.619,0.071-2.424,0.028c-0.205-0.011-0.507-0.301-0.569-0.518
	c-0.169-0.594-0.234-1.217-0.34-1.828c-0.575,0.207-1.15,0.414-1.725,0.621c0.081,0.592,0.196,1.182,0.225,1.776
	c0.011,0.221-0.129,0.601-0.287,0.655c-0.909,0.309-1.844,0.541-2.824,0.815c-0.25-0.878-0.482-1.692-0.714-2.507
	c-0.414,0.783-1.923,1.253-2.674,0.834c0.159,0.897,0.318,1.794,0.493,2.786c-1.551,0.333-3.072,0.66-4.659,1.002
	c-0.254-0.76-0.497-1.49-0.741-2.219c-0.246,0.233-0.453,0.571-0.744,0.679c-0.945,0.347-1.92,0.609-2.884,0.904
	c0.174,0.783,0.348,1.566,0.521,2.348c6.045-1.05,12.071-2.227,18.139-3.114c5.706-0.834,11.45-1.42,17.189-2.004
	c3.834-0.39,7.687-0.587,11.532-0.87C134.945,56.794,134.956,56.589,134.967,56.383z M177.165,36.517
	c-0.012,5.476-0.006,10.952-0.01,16.428c-0.001,0.993-0.086,1.074-1.078,1.08c-0.891,0.006-1.782,0-2.672-0.001
	c-0.068,0.631-0.136,1.261-0.204,1.892c1.383,0,2.766-0.001,4.149-0.001c-0.004-6.874-0.008-13.749-0.011-20.623
	C177.277,35.7,177.165,36.109,177.165,36.517z M140.497,53.229c-0.323,0.054-0.663,0.007-0.996,0.005
	c0.074,1.151,0.149,2.302,0.223,3.454c0.87-0.049,1.741-0.098,2.611-0.147c-0.142-1.22-0.283-2.441-0.425-3.661
	C141.44,52.999,140.974,53.15,140.497,53.229z M183.552,56.169c1.114,0.031,2.229,0.024,3.343,0.029
	c0.054-0.878,0.109-1.757,0.163-2.635c-0.178,0.142-0.357,0.409-0.533,0.407c-1.085-0.011-2.169-0.083-3.253-0.135
	c-0.11,0.693-0.22,1.386-0.33,2.078C183.146,56.003,183.347,56.164,183.552,56.169z M153.563,53.873
	c-0.001,2.102-0.001,2.102,2.042,2.207c0.051,0.003,0.103,0.012,0.154,0.018c0.637-0.061,1.273-0.122,1.91-0.183
	c-0.118-0.681-0.237-1.362-0.355-2.043C156.064,53.872,154.813,53.872,153.563,53.873z M166.265,54
	c-0.98,0.063-1.966,0.025-2.95,0.025c-0.013,0.465-0.018,0.931-0.041,1.396c-0.021,0.429,0.165,0.613,0.598,0.597
	c1.164-0.045,2.328-0.075,3.492-0.111c-0.089-0.801-0.177-1.602-0.266-2.402C166.821,53.678,166.552,53.982,166.265,54z
	 M148.325,56.229c-0.147-1.375-0.294-2.75-0.441-4.125c-0.022,0.444-0.121,0.784-0.683,0.82c-0.713,0.046-0.722-0.5-0.882-0.936
	c0.106,1.464,0.211,2.928,0.317,4.392C147.199,56.329,147.762,56.279,148.325,56.229z M84.277,61.728
	c0.148,0.631,0.296,1.262,0.444,1.894c0.782-0.155,1.563-0.309,2.345-0.464c-0.248-0.746-0.496-1.491-0.744-2.237
	C85.64,61.189,84.958,61.459,84.277,61.728z M338.905,96.07c-0.613-2.264-2.058-3.921-3.958-5.215
	c-2.964-2.018-6.328-3.017-9.78-3.758c-4.733-1.016-9.537-1.444-14.367-1.624c-1.311-0.049-2.621-0.109-3.932-0.121
	c-3.601-0.034-5.195-1.974-4.414-5.509c0.786-3.559,1.682-7.093,2.465-10.652c1.454-6.613,2.611-13.278,3.212-20.026
	c0.506-5.683,0.675-11.369-0.435-17.012c-0.582-2.961-1.526-5.788-3.405-8.211c-2.602-3.355-6.149-4.562-10.263-4.44
	c-4.522,0.134-8.684,1.627-12.763,3.412c-1.317,0.576-2.601,1.228-3.962,1.875c0.477,1.165,0.929,2.248,1.365,3.338
	c2.841,7.101,5.198,14.349,6.563,21.892c0.051,0.281-0.033,0.587-0.053,0.881c0.122,0.309,0.308,0.608,0.357,0.928
	c0.843,5.46,1.213,10.92,0.47,16.444c-0.5,3.716-1.28,7.329-2.685,10.803c-0.078,0.194-0.167,0.384-0.261,0.572
	c-0.019,0.038-0.082,0.053-0.161,0.1c-1.011-4.437-4.455-6.625-8.059-8.586c-4.988-2.713-10.387-4.362-15.838-5.849
	c-0.833-0.227-1.655-0.491-2.483-0.737c-0.321-0.063-0.643-0.126-0.965-0.188c-0.967-0.212-1.935-0.416-2.9-0.637
	c-8.75-1.996-17.581-3.556-26.5-4.531c-7.947-0.868-15.916-1.546-23.883-2.213c-3.891-0.326-7.8-0.435-11.702-0.642
	c-0.903-0.041-1.806-0.083-2.708-0.124c-0.322-0.014-0.643-0.028-0.965-0.042c-1.115-0.006-2.229,0.002-3.344-0.029
	c-0.205-0.006-0.406-0.166-0.609-0.255c-1.865,0-3.729,0.001-5.594,0.001c-1.383,0-2.766,0-4.149,0.001
	c-1.945-0.003-3.89-0.006-5.835-0.008c-1.164,0.036-2.328,0.065-3.492,0.11c-0.433,0.017-0.619-0.168-0.598-0.597
	c0.022-0.465,0.028-0.931,0.041-1.396c-0.015-0.05-0.03-0.099-0.047-0.149c-0.044,0.358-0.139,0.718-0.122,1.074
	c0.033,0.699-0.242,0.986-0.955,0.971c-1.507-0.03-3.015-0.008-4.522-0.007c-0.637,0.061-1.273,0.122-1.91,0.183
	c-0.828,0.033-1.656,0.1-2.483,0.077c-0.228-0.006-0.449-0.283-0.673-0.436c-0.284,0.164-0.563,0.454-0.854,0.468
	c-1.139,0.055-2.282,0.022-3.424,0.022c-0.563,0.05-1.126,0.1-1.689,0.151c-1.434,0.053-2.867,0.107-4.301,0.161
	c-0.87,0.049-1.741,0.098-2.611,0.147c-0.283,0.007-0.565,0.014-0.847,0.021c-1.315,0.097-2.629,0.194-3.943,0.291
	c-3.845,0.283-7.698,0.479-11.532,0.87c-5.739,0.584-11.484,1.17-17.189,2.004c-6.069,0.887-12.094,2.064-18.139,3.114
	c-0.336,0.057-0.672,0.113-1.008,0.169c-0.782,0.155-1.563,0.309-2.345,0.464c-0.308,0.109-0.616,0.217-0.923,0.326
	c-7.114,1.663-14.149,3.566-20.718,6.87c-2.355,1.185-4.587,2.558-6.381,4.533c-0.506,0.557-0.948,1.174-1.503,1.87
	c-0.126-0.326-0.238-0.573-0.318-0.83c-1.209-3.855-1.824-7.811-1.956-11.841c-0.144-4.392,0.196-8.753,0.923-13.086
	c0.072-0.428,0.121-0.849,0.668-0.922c-0.525-0.118-0.434-0.486-0.344-0.852c0.824-3.359,1.47-6.776,2.515-10.065
	c1.451-4.569,3.202-9.042,4.826-13.555c0.105-0.291,0.223-0.577,0.392-1.009c-2.073-0.937-4.074-1.912-6.13-2.752
	c-3.29-1.344-6.67-2.384-10.269-2.468c-6.172-0.145-10.254,2.615-12.427,8.414c-1.446,3.86-1.863,7.89-1.947,11.976
	c-0.174,8.492,1.033,16.843,2.67,25.136c0.944,4.782,2.109,9.52,3.152,14.283c0.15,0.686,0.23,1.4,0.237,2.103
	c0.023,2.362-1.431,3.796-3.779,3.921c-4.345,0.232-8.698,0.402-13.026,0.82c-4.448,0.429-8.816,1.34-12.908,3.254
	c-1.628,0.761-3.13,1.715-4.364,3.041c-1.898,2.041-2.479,4.623-2.949,7.249c-0.055,0.306-0.106,0.613-0.159,0.92
	c0,0.892,0,1.785,0,2.677c0.126,0.583,0.254,1.165,0.379,1.748c0.677,3.165,2.158,5.949,4.092,8.503
	c0.379,0.5,0.432,0.903,0.216,1.491c-1.587,4.327-0.899,8.471,1.182,12.44c0.727,1.387,1.686,2.65,2.498,3.994
	c0.161,0.267,0.277,0.708,0.17,0.969c-1.866,4.54-1.204,8.825,1.245,12.938c0.415,0.697,0.854,1.39,1.367,2.016
	c0.413,0.505,0.466,0.932,0.265,1.559c-1.28,3.979-0.397,7.565,2.202,10.738c1.436,1.753,3.472,2.459,5.647,2.812
	c0.563,0.091,1.12,0.21,1.68,0.316c1.05,0,2.1,0,3.15,0c1.388-0.236,2.781-0.453,4.165-0.713c6.27-1.178,12.236-3.331,18.135-5.695
	c0.17-0.068,0.334-0.167,0.511-0.202c1.438-0.288,2.009-1.211,2.035-2.621c0.038-2.073,0.249-4.161-1.22-5.926
	c-1.18-1.419-2.631-2.48-4.274-3.282c-0.229-0.112-0.62-0.063-0.866,0.055c-3.168,1.521-6.329,3.056-9.48,4.612
	c-3.911,1.932-8.012,2.295-12.267,1.601c-2.094-0.342-4.201-0.604-6.303-0.902c-0.13-0.019-0.299,0.013-0.382-0.059
	c-0.194-0.166-0.347-0.381-0.517-0.576c0.209-0.109,0.429-0.328,0.626-0.31c1.095,0.102,2.185,0.266,3.277,0.401
	c2.236,0.277,4.466,0.666,6.711,0.795c3.61,0.208,6.909-0.918,10.074-2.602c2.452-1.305,5.028-2.379,7.48-3.683
	c1.139-0.606,2.214-1.415,3.145-2.312c1.547-1.492,1.903-3.384,1.06-5.353c-0.489-1.141-1.254-2.166-1.908-3.235
	c-0.149-0.244-0.403-0.435-0.513-0.691c-0.075-0.174,0.016-0.419,0.034-0.633c0.213,0.021,0.431,0.024,0.637,0.073
	c0.087,0.021,0.166,0.13,0.221,0.216c0.816,1.275,1.792,2.48,2.403,3.847c1.086,2.43,0.508,4.669-1.316,6.581
	c-0.432,0.453-0.921,0.851-1.462,1.345c0.259,0.166,0.484,0.318,0.716,0.457c1.541,0.927,2.963,1.99,4.009,3.484
	c1.233,1.76,1.54,3.694,1.078,5.771c-0.06,0.271-0.114,0.543-0.193,0.921c6.588-2.432,13.056-4.82,19.643-7.251
	c0.149,1.324,0.267,2.411,0.395,3.498c0.146,1.239,0.531,1.486,1.732,1.111c0.751-0.234,1.492-0.504,2.249-0.716
	c0.732-0.205,1.029-0.658,0.946-1.399c-0.122-1.095-0.218-2.192-0.359-3.284c-0.06-0.467,0.04-0.711,0.541-0.844
	c7.578-2.005,15.152-4.028,22.727-6.045c0.073-0.019,0.156-0.002,0.352-0.002c0.037,0.3,0.089,0.618,0.113,0.937
	c0.065,0.86,0.071,1.728,0.193,2.58c0.094,0.656,0.584,0.915,1.223,0.781c4.312-0.905,8.62-1.827,12.934-2.725
	c0.697-0.145,0.888-0.537,0.797-1.189c-0.249-1.77-0.441-1.911-2.174-1.506c-1.915,0.447-3.827,0.911-5.746,1.338
	c-0.479,0.107-0.988,0.161-1.475,0.126c-0.569-0.041-0.632-0.511-0.662-0.992c-0.03-0.469,0.165-0.639,0.61-0.711
	c5.67-0.913,11.337-1.84,17.006-2.759c0.124-0.02,0.256,0.014,0.532,0.033c0,0.576-0.012,1.142,0.002,1.708
	c0.042,1.684,1.015,2.547,2.672,2.199c0.847-0.178,1.762-0.497,2.417-1.033c1.351-1.107,2.534-2.417,3.817-3.61
	c0.302-0.281,0.706-0.559,1.096-0.62c1.471-0.229,2.955-0.367,4.585-0.557c-0.131,0.976-0.246,1.843-0.363,2.71
	c-0.038,0.286-0.102,0.57-0.119,0.857c-0.039,0.655,0.264,0.959,0.903,0.807c0.968-0.23,1.93-0.505,2.868-0.834
	c0.227-0.08,0.459-0.431,0.506-0.69c0.16-0.876,0.252-1.765,0.341-2.651c0.047-0.464,0.226-0.671,0.726-0.724
	c1.816-0.192,1.81-0.211,2.672,1.381c0.224,0.414,0.458,0.828,0.732,1.211c1.286,1.799,2.979,2.244,4.97,1.271
	c1.993-0.973,3.581-2.467,5.017-4.119c0.41-0.472,0.812-0.744,1.453-0.739c1.022,0.009,2.045-0.044,3.067-0.096
	c0.432-0.022,0.639,0.124,0.792,0.551c0.872,2.446,2.328,3.427,4.928,3.448c2.438,0.019,4.62-0.844,6.757-1.881
	c0.354-0.171,0.741-0.316,1.033-0.566c2.055-1.762,4.475-1.872,7.01-1.694c6.461,0.454,12.927,0.843,19.389,1.288
	c0.336,0.023,0.786,0.241,0.959,0.511c1.845,2.88,4.595,4.236,7.862,4.63c1.554,0.188,3.138,0.141,4.709,0.167
	c1.796,0.03,3.2-0.803,4.236-2.192c0.487-0.653,0.96-0.768,1.712-0.639c2.713,0.466,5.439,0.862,8.159,1.288
	c0.127,0.02,0.248,0.07,0.469,0.133c-0.064,0.413-0.129,0.814-0.188,1.217c-0.218,1.484,0.249,2.336,1.724,2.566
	c1.056,0.165,2.221,0.149,3.246-0.125c1.43-0.382,2.769-1.099,4.161-1.632c0.367-0.14,0.81-0.243,1.183-0.175
	c1.488,0.272,2.962,0.62,4.479,0.947c-0.131,0.659-0.286,1.213-0.343,1.777c-0.15,1.484,0.561,2.329,2.048,2.516
	c1.321,0.166,2.558-0.169,3.759-0.651c0.801-0.322,1.598-0.678,2.34-1.117c0.643-0.381,1.217-0.398,1.916,0.013
	c-0.194,0.44-0.39,0.886-0.586,1.331c-0.612,1.388-0.228,2.457,1.132,3.126c1.277,0.629,2.63,0.607,3.917,0.186
	c1.861-0.61,3.662-1.401,5.502-2.079c0.364-0.134,0.814-0.218,1.179-0.132c1.165,0.277,2.309,0.644,3.586,1.013
	c-0.602,1.043-1.134,1.995-1.694,2.929c-0.877,1.461-1.718,2.947-2.678,4.352c-0.78,1.141-1.377,1.113-2.32,0.084
	c-0.414-0.451-0.784-1.228-1.494-0.83c-0.72,0.402-1.435,0.998-1.863,1.688c-0.471,0.76,0.47,2.03,1.584,2.186
	c0.737,0.103,1.524,0.074,2.256-0.067c3.635-0.698,6.354-2.737,8.314-5.839c0.533-0.843,1.102-1.665,1.591-2.532
	c0.303-0.536,0.609-0.644,1.195-0.429c5.638,2.068,11.287,4.106,16.931,6.157c0.68,0.247,1.351,0.518,2.162,0.829
	c-1.659-5.498,1.464-8.379,5.6-10.737c-0.579-0.542-1.144-1.007-1.634-1.542c-1.894-2.07-2.236-4.421-0.981-6.903
	c0.597-1.181,1.441-2.243,2.234-3.314c0.156-0.21,0.593-0.213,0.901-0.311c-0.07,0.314-0.065,0.673-0.222,0.934
	c-0.714,1.185-1.613,2.277-2.184,3.522c-0.926,2.014-0.52,3.956,1.067,5.484c0.93,0.895,2.028,1.68,3.176,2.271
	c3.053,1.571,6.179,3.002,9.269,4.504c3.749,1.822,7.679,2.122,11.743,1.487c2.174-0.34,4.359-0.621,6.544-0.879
	c0.311-0.037,0.655,0.208,0.983,0.323c-0.291,0.198-0.563,0.531-0.875,0.575c-2.957,0.421-5.914,0.86-8.884,1.161
	c-3.581,0.363-6.984-0.356-10.217-1.947c-3.129-1.54-6.278-3.04-9.433-4.526c-0.257-0.121-0.695-0.114-0.936,0.027
	c-0.97,0.569-1.926,1.173-2.832,1.838c-2.48,1.82-2.827,4.405-2.628,7.239c0.103,1.47,0.71,2.201,2.114,2.738
	c5.909,2.263,11.832,4.46,18.06,5.696c3.22,0.639,6.445,1.106,9.759,0.584c5.38-0.847,8.905-5.03,8.655-10.521
	c-0.047-1.035-0.265-2.084-0.568-3.077c-0.195-0.639-0.109-1.051,0.285-1.554c1.285-1.642,2.314-3.435,2.992-5.418
	c1.063-3.108,0.999-6.191-0.266-9.222c-0.249-0.596-0.164-0.984,0.208-1.479c2.122-2.819,3.806-5.852,4.32-9.409
	c0.328-2.269,0.193-4.516-0.654-6.66c-0.294-0.745-0.152-1.231,0.302-1.835c2.046-2.714,3.578-5.676,4.149-9.071
	c0.073-0.435,0.153-0.869,0.23-1.304c0-0.84,0-1.68,0-2.52C339.628,99.011,339.3,97.531,338.905,96.07z M8.707,118.063
	c-0.051-0.011-0.113-0.016-0.148-0.048c-0.221-0.204-0.436-0.414-0.653-0.622c0.283-0.1,0.583-0.32,0.845-0.28
	c1.06,0.162,2.104,0.427,3.161,0.611c6.638,1.157,13.256,1.296,19.759-0.733c2.01-0.627,3.982-1.483,5.837-2.484
	c2.807-1.513,3.737-4.103,3.51-7.174c-0.216-2.929-1.29-5.595-2.519-8.218c-0.196-0.42-0.788-1.025-0.079-1.343
	c0.618-0.278,0.733,0.521,0.926,0.924c1.184,2.463,2.18,4.988,2.583,7.72c0.652,4.418-0.913,7.529-4.945,9.54
	c-4.11,2.05-8.486,3.136-13.064,3.425c-1.046,0.066-2.092,0.125-2.661,0.159C16.703,119.468,12.682,118.957,8.707,118.063z
	 M43.5,127.09c-0.207,2.335-1.29,4.216-3.129,5.595c-3.175,2.382-6.813,3.796-10.663,4.617c-1.86,0.397-3.781,0.511-4.739,0.634
	c-4.784-0.066-8.505-0.751-12.137-1.948c-0.173-0.057-0.384-0.099-0.493-0.223c-0.119-0.135-0.207-0.368-0.178-0.536
	c0.019-0.108,0.27-0.242,0.421-0.246c0.227-0.006,0.462,0.074,0.685,0.147c4.179,1.369,8.458,2.013,12.855,1.724
	c3.143-0.207,6.152-0.984,9.001-2.335c1.229-0.583,2.499-1.116,3.639-1.846c3.464-2.218,4.556-5.214,3.359-9.153
	c-0.348-1.145-0.94-2.213-1.375-3.334c-0.092-0.238,0.009-0.552,0.022-0.831c0.257,0.108,0.646,0.145,0.749,0.336
	C42.754,121.998,43.74,124.381,43.5,127.09z M73.624,150.347c-0.944,0.365-1.918,0.651-3.016,1.007
	c-0.128-1-0.243-1.846-0.344-2.694c-0.627-5.256-1.258-10.511-1.871-15.768c-0.2-1.717-0.335-3.443-0.533-5.161
	c-0.079-0.681,0.197-1.018,0.832-1.19c0.754-0.203,1.492-0.464,2.384-0.747c0.142,1.12,0.276,2.142,0.399,3.165
	c0.393,3.251,0.789,6.503,1.172,9.755c0.429,3.643,0.853,7.286,1.253,10.932C73.927,149.876,73.788,150.284,73.624,150.347z
	 M104.603,140.663c2.264-0.425,4.508-0.964,6.752-1.49c0.553-0.13,0.886-0.115,1.026,0.536c0.144,0.669-0.269,0.741-0.73,0.838
	c-3.974,0.834-7.949,1.663-11.918,2.519c-0.618,0.134-0.825-0.109-0.859-0.658c-0.039-0.627-0.105-1.255-0.113-1.882
	c-0.08-5.742-0.147-11.483-0.227-17.225c-0.018-1.31-0.059-2.62-0.112-3.929c-0.023-0.562,0.157-0.876,0.758-0.967
	c0.867-0.131,1.723-0.335,2.68-0.527c0.063,1.813,0.138,3.483,0.175,5.154c0.116,5.242,0.212,10.484,0.329,15.725
	C102.4,140.357,103.041,140.956,104.603,140.663z M125.281,138.209c-0.156,0.094-0.326,0.168-0.496,0.236
	c-1.875,0.754-2.807,0.179-2.721-1.817c0.11-2.562,0.343-5.118,0.534-7.676c0.091-1.227,0.162-2.458,0.343-3.673
	c0.061-0.41,0.356-0.856,0.674-1.142c0.616-0.554,1.323-1.005,2.203-1.654c-0.077,1.17-0.128,2.112-0.202,3.052
	c-0.253,3.21-0.528,6.418-0.766,9.629c-0.084,1.14,0.431,1.507,1.425,0.939c1.086-0.621,2.083-1.399,3.114-2.116
	c0.209-0.145,0.396-0.322,0.593-0.484C128.712,135.404,127.225,137.043,125.281,138.209z M122.678,118.245
	c-0.016-1.077,0.854-2.017,1.869-2.018c0.807,0,1.298,0.568,1.309,1.517c0.014,1.092-0.817,2.015-1.851,2.058
	C123.297,119.831,122.691,119.12,122.678,118.245z M127.142,134.748c-0.597,0.34-1.014,0.576-1.487,0.845
	C125.612,134.777,125.802,134.668,127.142,134.748z M124.893,110.434c-12.42-2.304-24.728-5.107-36.926-8.386
	c-4.629-1.244-9.248-2.537-13.816-3.985c-1.902-0.603-3.665-1.654-5.477-2.53c-0.314-0.151-0.56-0.443-0.838-0.669
	c0.034-0.059,0.068-0.118,0.102-0.178c0.768,0.243,1.588,0.384,2.294,0.747c3.671,1.891,7.663,2.82,11.589,3.941
	c12.475,3.563,25.091,6.552,37.814,9.077c6.164,1.223,12.367,2.253,18.553,3.37c0.329,0.059,0.718,0.026,0.673,0.551
	c-0.051,0.61-0.475,0.446-0.815,0.387C133.661,111.992,129.271,111.246,124.893,110.434z M148.451,136.374
	c-1.406,0.608-2.505,0.377-3.41-0.879c-0.79-1.097-1.39-2.337-2.02-3.541c-0.461-0.881-0.824-1.814-1.254-2.712
	c-0.325-0.68-0.633-0.68-1.182-0.168c-1.074,1.001-1.058,2.341-1.213,3.632c-0.125,1.04-0.213,2.085-0.355,3.122
	c-0.032,0.23-0.177,0.57-0.352,0.633c-0.753,0.272-1.537,0.46-2.476,0.726c0.148-1.177,0.267-2.205,0.409-3.229
	c0.976-7.03,1.955-14.059,2.944-21.086c0.038-0.27,0.121-0.626,0.311-0.767c0.793-0.586,1.635-1.104,2.459-1.647
	c0.074,0.036,0.148,0.073,0.222,0.11c-0.138,0.987-0.264,1.976-0.415,2.962c-0.702,4.609-1.41,9.216-2.115,13.825
	c-0.015,0.103-0.04,0.215-0.018,0.313c0.064,0.287,0.151,0.57,0.228,0.855c0.249-0.141,0.563-0.226,0.737-0.431
	c1.303-1.541,2.538-3.14,3.879-4.647c0.637-0.716,1.415-1.329,2.206-1.878c0.952-0.661,1.818-0.625,2.377-0.058
	c0.637,0.646,0.779,1.981,0.155,2.772c-0.528,0.669-1.156,1.306-1.861,1.775c-0.864,0.575-1.84,0.993-2.795,1.417
	c-0.611,0.272-0.785,0.61-0.495,1.226c0.68,1.447,1.379,2.888,1.988,4.365c0.552,1.338,1.441,1.873,3.14,1.228
	c1.279-0.485,2.417-1.341,3.615-2.036c0.172-0.1,0.329-0.226,0.493-0.339c0.038,0.053,0.076,0.105,0.114,0.158
	C152.226,133.789,150.62,135.436,148.451,136.374z M151.413,132.246c0.025,0.077,0.051,0.154,0.076,0.231
	c-0.971,0.571-1.895,1.266-3.107,1.3c-0.741,0.021-1.112-0.442-1.247-1.269C148.587,132.419,150,132.333,151.413,132.246z
	 M174.648,131.088c-2.563,1.71-5.195,3.299-8.264,3.912c-0.961,0.192-1.988,0.264-2.959,0.157c-1.746-0.193-2.87-1.287-3.273-2.969
	c-0.939-3.918,0.217-7.366,2.612-10.451c1.369-1.763,3.13-3.039,5.363-3.486c0.785-0.157,1.625-0.196,2.42-0.111
	c2.252,0.241,3.351,2.518,2.191,4.462c-0.652,1.092-1.607,1.892-2.751,2.396c-1.678,0.738-3.386,1.411-5.106,2.044
	c-1.907,0.702-1.572,0.577-1.572,2.266c0,0.591,0.074,1.218,0.279,1.767c0.671,1.798,2.18,2.498,4.491,1.908
	c1.564-0.399,3.062-1.066,4.576-1.649c1.064-0.41,2.104-0.88,3.155-1.323c0.033,0.063,0.066,0.126,0.099,0.189
	C175.489,130.497,175.076,130.803,174.648,131.088z M168.988,131.838c-0.847,0.688-2.871,0.759-3.933,0
	C166.5,131.838,167.744,131.838,168.988,131.838z M198.51,124.24c-1.983-0.472-3.905-0.962-5.842-1.384
	c-6.189-1.347-12.385-2.66-18.572-4.016c-0.538-0.118-1.032-0.444-1.54-0.689c-0.548-0.265-1.088-0.547-1.631-0.822
	c-0.017-0.003-0.034-0.006-0.051-0.009l0.011-0.011c0,0-0.011,0.011-0.011,0.011c-0.01-0.002-0.019-0.005-0.029-0.008
	c-3.887,0.551-7.607-0.58-11.38-1.155c-5.177-0.788-10.345-1.631-15.516-2.454c-0.329-0.053-0.654-0.133-1.037-0.212
	c0.049-0.31,0.089-0.555,0.139-0.87c1.577,0.226,3.104,0.413,4.619,0.668c7.333,1.233,14.662,2.482,21.992,3.732
	c0.399,0.068,0.788,0.192,1.182,0.291c0.013-0.002,0.026-0.002,0.039-0.004c0.013,0.007,0.027,0.013,0.04,0.02
	c2.245,0.421,4.503,0.788,6.734,1.277c6.749,1.48,13.489,3.008,20.231,4.52c0.274,0.062,0.54,0.16,0.872,0.261
	C198.673,123.692,198.602,123.931,198.51,124.24z M217.26,132.469c-0.54,1.811-1.231,3.539-2.951,4.578
	c-0.415,0.25-0.907,0.449-1.383,0.508c-2.678,0.333-5.343,0.268-7.923-0.608c-3.866-1.312-6.122-4.51-6.112-8.605
	c0.016-6.287,2.721-11.011,8.356-13.872c3.054-1.551,6.35-1.984,9.719-1.19c3.267,0.769,4.861,3.309,4.096,6.393
	c-0.095,0.382-0.31,0.733-0.469,1.099c-0.112-0.016-0.224-0.032-0.336-0.048c-0.062-0.578-0.144-1.155-0.181-1.735
	c-0.303-4.772-4.097-5.845-7.645-4.991c-3.582,0.863-6.017,3.264-7.632,6.444c-1.794,3.534-2.628,7.298-1.791,11.272
	c0.175,0.833,0.496,1.67,0.915,2.411c1.687,2.977,5.422,3.85,8.46,1.879c1.346-0.873,2.479-2.077,3.699-3.142
	c0.333-0.291,0.631-0.622,1.074-1.064C217.22,132.186,217.298,132.345,217.26,132.469z M204.734,133.795
	c2.694,0.349,5.252,0.681,7.871,1.021C210.554,137.09,206.06,136.563,204.734,133.795z M223.75,131.334
	c-6.36-1.853-12.729-3.678-19.09-5.527c-0.363-0.105-1.027-0.025-0.73-0.773c0.054-0.137,0.211-0.234,0.297-0.324
	c0.246,0.065,0.399,0.102,0.549,0.146c7.634,2.254,15.269,4.508,22.902,6.764c0.176,0.052,0.381,0.079,0.511,0.19
	c0.163,0.138,0.264,0.351,0.391,0.531c-0.241,0.113-0.525,0.371-0.716,0.314C226.483,132.248,225.132,131.737,223.75,131.334z
	 M229.553,140.277c-0.077,0.009-0.157,0-0.235-0.006c-1.936-0.144-2.499-0.796-1.911-2.648c0.648-2.043,1.49-4.03,2.32-6.01
	c1.968-4.693,3.989-9.362,5.959-14.054c0.268-0.639,0.647-1.046,1.305-1.231c0.915-0.256,1.825-0.535,2.951-0.867
	c-0.198,0.517-0.289,0.782-0.4,1.039c-2.762,6.436-5.53,12.869-8.285,19.308c-0.183,0.427-0.35,0.886-0.393,1.343
	c-0.085,0.887,0.208,1.258,1.062,1.113c1.462-0.249,2.902-0.639,4.335-1.03c0.563-0.154,1.083-0.472,1.659-0.629
	C235.377,138.392,232.726,139.928,229.553,140.277z M235.643,135.47c-0.949-0.355-1.899-0.709-2.864-1.07
	c0.087-0.774,0.398-0.889,0.981-0.659c1.602,0.632,3.219,1.224,4.912,1.863C236.922,135.95,236.923,135.949,235.643,135.47z
	 M239.307,136.874c0.038-0.325,0.067-0.579,0.111-0.959c1.054,0.413,2.058,0.806,3.095,1.211c-0.099,0.633-0.295,0.963-0.973,0.658
	C240.826,137.463,240.09,137.191,239.307,136.874z M253.355,146.445c-0.527-0.003-1.09-0.174-1.572-0.402
	c-0.913-0.434-1.118-1.088-0.694-2.015c0.568-1.239,1.188-2.455,1.741-3.701c0.121-0.272,0.053-0.628,0.071-0.945
	c-0.3,0.067-0.656,0.054-0.892,0.215c-2.043,1.388-4.088,2.781-6.497,3.458c-0.786,0.221-1.653,0.328-2.462,0.254
	c-1.177-0.107-1.557-0.66-1.317-1.84c0.181-0.889,0.444-1.801,0.873-2.593c1.807-3.343,3.69-6.646,5.546-9.963
	c0.489-0.874,1.271-1.215,2.235-1.179c0.73,0.028,0.975,0.378,0.776,1.095c-0.062,0.224-0.172,0.438-0.279,0.647
	c-1.709,3.337-3.425,6.671-5.127,10.012c-0.294,0.577-0.712,1.232-0.212,1.827c0.501,0.597,1.269,0.478,1.911,0.222
	c3.216-1.282,6.163-2.932,7.89-6.131c0.71-1.315,1.405-2.639,2.065-3.979c0.239-0.485,0.535-0.725,1.085-0.707
	c0.855,0.027,1.712,0.007,2.715,0.007c-0.192,0.414-0.306,0.695-0.448,0.963c-1.825,3.455-3.653,6.908-5.48,10.361
	c-0.074,0.139-0.15,0.277-0.218,0.418c-0.283,0.588-0.776,1.303-0.23,1.802c0.402,0.368,1.222,0.497,1.804,0.405
	c1.417-0.224,2.804-0.634,4.202-0.978c0.321-0.079,0.632-0.196,0.971-0.223C259.174,144.983,256.52,146.46,253.355,146.445z
	 M249.158,139.881c-0.979,1.017-1.757,0.238-2.616-0.087c0.107-0.763,0.439-0.896,1.035-0.594
	C248.076,139.452,248.605,139.645,249.158,139.881z M257.819,143.792c-0.642,0.055-1.284,0.141-1.925,0.142
	c-0.147,0-0.295-0.291-0.443-0.448c0.195-0.146,0.416-0.441,0.58-0.412c0.606,0.108,1.192,0.323,1.786,0.497
	C257.818,143.646,257.818,143.719,257.819,143.792z M274.698,137.443c-2.51,4.153-5.005,8.315-7.541,12.452
	c-1.738,2.836-4.204,4.721-7.489,5.438c-0.634,0.138-1.298,0.236-1.942,0.205c-0.625-0.03-1.33-0.39-1.269-1.04
	c0.045-0.475,0.635-0.926,1.05-1.316c0.089-0.083,0.561,0.07,0.703,0.241c1.644,1.993,3.019,1.484,4.195-0.483
	c2.854-4.773,5.687-9.558,8.438-14.391c0.586-1.03,1.302-1.48,2.403-1.535c0.515-0.026,1.028-0.101,1.712-0.172
	C274.818,137.167,274.775,137.316,274.698,137.443z M275.622,133.579c-0.941,0.021-1.596-0.565-1.605-1.436
	c-0.01-0.971,0.921-1.891,1.917-1.893c0.962-0.002,1.546,0.514,1.549,1.373C277.488,132.623,276.599,133.557,275.622,133.579z
	 M279.522,83.801c-1.062,1.546-2.514,2.668-4.084,3.641c-3.643,2.259-7.632,3.722-11.694,4.998
	c-8.353,2.624-16.895,4.466-25.534,5.792c-7.54,1.157-15.112,2.145-22.697,2.957c-6.046,0.647-12.126,1.021-18.202,1.323
	c-6.809,0.338-13.629,0.483-20.445,0.662c-2.752,0.072-5.508,0.012-8.261,0.012c0-0.024,0-0.048,0-0.073
	c-4.984,0-9.973,0.131-14.952-0.031c-7.469-0.243-14.941-0.558-22.395-1.079c-16.111-1.126-32.104-3.159-47.847-6.875
	c-6.159-1.454-12.258-3.115-18.028-5.786c-1.093-0.506-2.131-1.13-3.204-1.68c-2.587-1.326-4.232-3.472-5.264-6.119
	c-0.187-0.48-0.218-1.093-0.113-1.602c0.453-2.199,1.935-3.682,3.683-4.915c3.201-2.256,6.751-3.816,10.434-5.088
	c7.584-2.62,15.395-4.342,23.264-5.818c9.158-1.718,18.379-3.006,27.662-3.796c6.662-0.567,13.335-1.029,20.01-1.415
	c4.712-0.273,9.434-0.424,14.153-0.482c7.949-0.097,15.902-0.222,23.848-0.064c7.916,0.157,15.829,0.567,23.736,1.011
	c10.768,0.606,21.484,1.771,32.135,3.478c10.059,1.612,20.043,3.57,29.736,6.784c3.767,1.249,7.484,2.665,10.739,4.99
	c1.24,0.885,2.399,1.981,3.324,3.188C281.007,79.744,280.903,81.79,279.522,83.801z M326.56,135.79
	c-3.616,1.168-7.327,1.822-11.129,1.805c-5.598-0.026-10.766-1.66-15.472-4.616c-3.684-2.313-4.861-5.781-3.589-9.95
	c0.365-1.195,0.92-2.338,1.457-3.472c0.121-0.255,0.627-0.588,0.792-0.515c0.521,0.232,0.165,0.629,0.032,0.99
	c-0.57,1.541-1.292,3.053-1.629,4.645c-0.667,3.153,0.632,5.639,3.24,7.353c3.275,2.152,6.889,3.555,10.766,4.187
	c1.546,0.252,3.123,0.32,4.685,0.472c3.639-0.062,7.147-0.762,10.606-1.795c0.446-0.133,1.151-0.654,1.366,0.045
	C327.914,135.682,327.022,135.641,326.56,135.79z M331.428,117.635c-1.897,0.391-3.794,0.814-5.713,1.058
	c-2.285,0.29-4.591,0.412-5.833,0.518c-6.739-0.069-12.222-1.039-17.349-3.587c-2.523-1.254-4.476-3.022-5.011-5.96
	c-0.361-1.982-0.139-3.945,0.482-5.82c0.657-1.984,1.524-3.898,2.3-5.842c0.019-0.048,0.034-0.116,0.072-0.137
	c0.26-0.145,0.525-0.281,0.788-0.419c0.024,0.28,0.15,0.601,0.057,0.834c-0.566,1.409-1.25,2.774-1.765,4.2
	c-0.779,2.157-1.289,4.37-0.944,6.701c0.322,2.17,1.446,3.798,3.293,4.926c2.857,1.746,6.009,2.719,9.262,3.366
	c6.648,1.323,13.246,0.768,19.81-0.649c0.128-0.028,0.268-0.119,0.377-0.088c0.25,0.07,0.484,0.198,0.724,0.302
	C331.796,117.245,331.643,117.591,331.428,117.635z M257.817,143.572c-0.594-0.175-1.18-0.39-1.786-0.497
	c-0.164-0.029-0.385,0.266-0.58,0.412c0.148,0.157,0.296,0.448,0.443,0.448c0.642-0.001,1.283-0.087,1.925-0.142
	C257.818,143.719,257.818,143.646,257.817,143.572z M187.868,56.063c-0.002,0.059-0.005,0.118-0.007,0.177
	c0.903,0.041,1.806,0.083,2.708,0.124c0.565-0.102,1.131-0.203,1.696-0.305C190.8,56.061,189.334,56.062,187.868,56.063z
	 M134.934,57c1.314-0.097,2.629-0.194,3.943-0.291c-1.039,0.004-2.079,0.03-3.116-0.004c-0.268-0.009-0.529-0.209-0.793-0.321
	C134.956,56.589,134.945,56.794,134.934,57z M189.412,6.012c-1.36-2.792-3.392-4.822-6.265-6.006
	C174.586,0.004,166.025,0.002,157.464,0c-2.31,0.921-4.12,2.435-5.491,4.514c-1.128,1.71-1.671,3.525-1.257,5.57
	c0.419-0.015,0.84-0.008,1.256-0.048c1.929-0.185,3.858-0.383,5.786-0.578c2.867-0.29,5.731-0.615,8.601-0.863
	c1.688-0.146,3.403-0.361,5.078-0.22c5.795,0.486,11.577,1.122,17.367,1.672c0.351,0.033,0.724-0.177,1.087-0.274
	C189.947,8.493,190.015,7.25,189.412,6.012z M131.438,22.97c-2.52-0.768-4.898-0.518-7.19,0.793
	c-2.309,1.321-3.607,3.21-3.513,5.938c0.015,0.445,0.027,0.89,0.041,1.335c0.337-0.05,0.673-0.111,1.011-0.149
	c3.646-0.408,7.292-0.804,10.937-1.222c1.103-0.127,2.195-0.315,3.088,0.611c0.089,0.092,0.273,0.092,0.477,0.154
	c0.038-0.373,0.069-0.68,0.1-0.987C136.302,26.143,134.59,23.93,131.438,22.97z M147.385,11.574
	c-1.985,0.826-3.379,3.355-3.104,5.499c0.097,0.754,0.01,1.379-0.39,1.991c1.618,0.049,3.236,0.094,4.854,0.148
	c0.87,0.029,0.992-0.094,0.909-0.89c-0.068-0.649-0.145-1.301-0.143-1.951c0.001-0.246,0.209-0.492,0.325-0.738
	c0.132-0.28,0.381-0.559,0.379-0.838c-0.008-1.2-0.089-2.399-0.144-3.599C149.171,11.31,148.193,11.238,147.385,11.574z
	 M217.294,24.409c-2.405-1.74-5.029-2.348-7.947-1.506c-2.701,0.778-4.513,2.385-5.03,5.222c-0.154,0.844-0.145,1.718-0.211,2.578
	c1.18-1.04,2.486-1.245,4.062-1.019c3.6,0.516,7.23,0.827,10.85,1.201c0.257,0.027,0.532-0.108,0.798-0.168
	C220.065,28.179,219.453,25.971,217.294,24.409z M196.3,16.992c0.176-0.975-0.069-1.902-0.54-2.796
	c-1.114-2.117-2.814-3.155-5.218-2.998c-0.053,0.913-0.122,1.826-0.153,2.74c-0.023,0.69-0.372,1.471,0.51,1.953
	c0.113,0.062,0.115,0.39,0.11,0.594c-0.014,0.574-0.034,1.15-0.096,1.721c-0.093,0.854,0.067,1.031,0.916,1.002
	c1.62-0.056,3.241-0.094,4.862-0.14C196.24,18.436,196.161,17.765,196.3,16.992z M127.789,64.571c-2.805,0-5.612-0.06-8.415,0.016
	c-3.063,0.084-6.134,0.179-9.182,0.475c-5.059,0.49-10.122,1.013-15.148,1.761c-6.867,1.022-13.591,2.686-20.035,5.332
	c-2.362,0.97-4.616,2.144-6.406,4.044c-2.131,2.262-2.081,5.146,0.064,7.392c1.292,1.353,2.808,2.386,4.454,3.191
	c4.675,2.285,9.646,3.693,14.73,4.71c1.928,0.386,3.871,0.609,5.86,0.334c2.547-0.353,4.083-2.145,3.712-4.613
	c-0.155-1.03-0.42-2.065-0.793-3.037c-0.601-1.564-1.424-3.046-1.99-4.621c-1.065-2.968-0.159-5.082,2.693-6.478
	c3.022-1.48,6.312-1.777,9.586-1.846c3.428-0.072,6.874,0.023,10.292,0.298c4.648,0.373,9.28,0.959,13.913,1.503
	c4.765,0.56,9.518,1.235,14.287,1.756c4.636,0.506,9.283,0.935,13.933,1.296c3.682,0.285,7.373,0.494,11.064,0.585
	c2.168,0.053,4.357-0.073,6.51-0.341c1.541-0.192,3.081-0.633,4.538-1.184c1.395-0.528,1.429-1.557,0.187-2.368
	c-0.655-0.428-1.347-0.837-2.076-1.107c-1.82-0.673-3.648-1.339-5.512-1.87c-6.726-1.915-13.571-3.269-20.529-3.977
	c-4.847-0.493-9.703-0.95-14.567-1.201c-3.714-0.192-7.446-0.038-11.17-0.038C127.789,64.58,127.789,64.575,127.789,64.571z
	 M86.321,60.92c-0.682,0.269-1.363,0.538-2.045,0.808c-1.888-6.662-3.774-13.324-5.67-19.983c-0.133-0.465-0.063-0.774,0.368-1.061
	c1.66-1.105,3.285-2.262,4.953-3.353c0.323-0.211,0.791-0.325,1.177-0.297c2.666,0.198,5.328,0.437,7.989,0.69
	c0.292,0.028,0.683,0.145,0.828,0.357c0.439,0.644,1.031,0.705,1.719,0.697c6.452-0.077,12.905-0.133,19.357-0.208
	c2.019-0.023,4.037-0.09,6.055-0.127c0.488-0.009,0.838-0.112,1.003-0.669c0.071-0.24,0.428-0.536,0.68-0.561
	c3.963-0.405,7.933-0.741,11.894-1.164c0.92-0.098,1.886-0.317,2.701-0.735c2.496-1.278,5.216-1.516,7.91-1.892
	c1.427-0.199,2.867-0.298,4.3-0.456c1.168-0.129,1.225-0.096,1.355,1.071c0.052,0.468,0.123,0.942,0.101,1.409
	c-0.012,0.255-0.2,0.502-0.309,0.753c-1.262,0.228-2.524,0.457-3.874,0.701c0.358,5.089,0.715,10.146,1.071,15.204
	c-0.022,0.444-0.121,0.784-0.683,0.82c-0.713,0.046-0.722-0.5-0.882-0.936c-0.379-4.466-0.761-8.931-1.136-13.397
	c-0.108-1.283-0.385-1.497-1.68-1.2c-0.766,0.176-1.519,0.405-2.286,0.576c-0.469,0.104-0.644,0.338-0.596,0.821
	c0.246,2.451,0.482,4.903,0.705,7.356c0.205,2.244,0.39,4.49,0.583,6.735c-0.471,0.12-0.936,0.271-1.413,0.35
	c-0.323,0.054-0.663,0.007-0.996,0.005c-0.201-2.243-0.404-4.486-0.603-6.73c-0.199-2.244-0.385-4.489-0.606-6.73
	c-0.023-0.228-0.244-0.62-0.383-0.624c-1.484-0.046-2.97-0.028-4.537-0.028c0.438,4.889,0.866,9.658,1.294,14.426
	c-3.765,0.16-7.532,0.3-11.295,0.497c-0.783,0.041-1.262-0.106-1.3-0.964c-0.272-3.525-0.538-7.05-0.833-10.573
	c-0.018-0.212-0.262-0.567-0.42-0.579c-0.825-0.059-1.656-0.027-2.583-0.027c0.093,1.082,0.175,2.04,0.258,2.998
	c0.247,2.869,0.494,5.738,0.741,8.607c-0.165,0.922-0.452,1.04-1.258,0.518c-0.437-4.131-0.874-8.261-1.31-12.385
	c-1.414,0-2.711,0-4.102,0c0.091,0.846,0.169,1.621,0.259,2.395c0.401,3.487,0.805,6.974,1.208,10.46
	c-0.553-0.052-1.2,0.208-1.564-0.471c-0.493-4.175-0.986-8.35-1.478-12.517c-1.141,0-2.193,0-3.34,0
	c0.157,1.462,0.305,2.837,0.451,4.212c0.298,2.809,0.595,5.618,0.893,8.428c-0.147,0.207-0.278,0.564-0.447,0.583
	c-0.199,0.022-0.431-0.247-0.648-0.391c-0.06-0.414-0.127-0.828-0.18-1.243c-0.477-3.791-0.946-7.582-1.442-11.37
	c-0.026-0.2-0.267-0.526-0.419-0.532c-1.141-0.045-2.284-0.025-3.439-0.025c-0.022,0.242-0.059,0.373-0.043,0.498
	c0.277,2.18,0.567,4.359,0.841,6.54c0.297,2.362,0.582,4.725,0.872,7.088c-0.575,0.207-1.15,0.414-1.725,0.621
	c-0.039-0.125-0.091-0.247-0.115-0.375c-0.797-4.162-1.586-8.325-2.389-12.486c-0.142-0.737-0.11-1.741-0.571-2.12
	c-0.466-0.383-1.444-0.164-2.198-0.172c-1.295-0.014-1.574,0.328-1.308,1.608c0.426,2.049,0.878,4.091,1.305,6.14
	c0.566,2.713,1.118,5.429,1.675,8.144c-0.414,0.783-1.923,1.253-2.674,0.834c-0.067-0.28-0.137-0.558-0.2-0.839
	c-1.102-4.952-2.202-9.905-3.306-14.857c-0.198-0.886-0.681-1.19-1.594-0.993c-0.869,0.188-1.734,0.395-2.601,0.593
	c-1.223,0.28-1.419,0.593-1.113,1.822c0.589,2.36,1.193,4.716,1.775,7.078c0.719,2.919,1.422,5.842,2.131,8.764
	c-0.246,0.233-0.453,0.571-0.744,0.679c-0.945,0.347-1.92,0.609-2.884,0.904c0.006-0.131-0.029-0.281,0.023-0.39
	c0.587-1.237,0.091-2.391-0.246-3.562c-1.12-3.898-2.212-7.804-3.369-11.69c-0.194-0.653-0.606-1.267-1.025-1.817
	c-0.194-0.255-0.847-0.516-0.945-0.42c-0.282,0.277-0.454,0.719-0.54,1.124c-0.053,0.25,0.127,0.55,0.207,0.826
	c1.501,5.174,3.004,10.349,4.504,15.524C86.227,60.46,86.269,60.692,86.321,60.92z M126.173,47.018c0,1.336,0.021,2.672-0.01,4.007
	c-0.013,0.586,0.205,0.794,0.78,0.768c0.758-0.034,1.519-0.023,2.278-0.005c0.462,0.011,0.659-0.164,0.659-0.642
	c0-1.99,0.057-3.981,0.024-5.971c-0.021-1.246-0.502-2.353-1.393-3.241c-0.726-0.723-1.269-0.7-1.841,0.13
	c-0.262,0.38-0.451,0.882-0.476,1.34C126.129,44.606,126.173,45.814,126.173,47.018z M228,54.97c-0.47-0.167-0.94-0.334-1.41-0.501
	c0.294-2.682,0.585-5.365,0.882-8.047c0.175-1.579,0.36-3.156,0.552-4.844c-0.856,0-1.61,0-2.364,0c-1.724,0-1.725,0-1.937,1.667
	c-0.04,0.312-0.079,0.624-0.112,0.936c-0.372,3.439-0.743,6.878-1.114,10.318c-0.417-0.052-0.833-0.105-1.25-0.157
	c0.355-4.112,0.71-8.224,1.068-12.378c-1.002,0-1.951,0-2.947,0c-0.166,2.204-0.322,4.343-0.489,6.481
	c-0.144,1.851-0.299,3.701-0.449,5.552c-1.298-0.056-2.598-0.081-3.893-0.176c-2.366-0.173-4.73-0.386-7.094-0.586
	c-0.541-0.046-1.123-0.012-1.414-0.628c0.04-0.258,0.095-0.514,0.118-0.773c0.349-4.011,0.684-8.024,1.051-12.033
	c0.053-0.584-0.159-0.746-0.69-0.738c-1.154,0.017-2.309,0.028-3.463-0.004c-0.615-0.017-0.821,0.25-0.87,0.828
	c-0.362,4.241-0.746,8.481-1.122,12.721c-0.791-0.055-1.582-0.11-2.373-0.165c0.1-1.148,0.194-2.297,0.3-3.444
	c0.319-3.468,0.648-6.936,0.95-10.406c0.014-0.166-0.159-0.471-0.298-0.507c-1.086-0.281-2.181-0.526-3.28-0.753
	c-0.681-0.14-0.886,0.199-0.939,0.863c-0.35,4.439-0.741,8.874-1.119,13.31c-0.37,0.935-0.994,0.461-1.565,0.281
	c0.14-2.116,0.274-4.233,0.42-6.348c0.18-2.613,0.357-5.226,0.565-7.836c0.043-0.535-0.14-0.746-0.649-0.833
	c-1.212-0.206-2.417-0.455-3.624-0.687c0.069-0.73,0.163-1.459,0.2-2.19c0.04-0.764,0.377-1.061,1.153-0.959
	c2.675,0.35,5.365,0.606,8.029,1.026c1.224,0.193,2.464,0.548,3.585,1.07c1.609,0.749,3.276,1.042,5.008,1.194
	c3.471,0.304,6.94,0.63,10.406,0.989c0.267,0.028,0.641,0.343,0.719,0.599c0.146,0.482,0.413,0.626,0.853,0.627
	c0.787,0.001,1.574,0,2.36,0.009c4.457,0.054,8.913,0.108,13.37,0.169c3.303,0.045,6.605,0.097,9.908,0.159
	c0.631,0.012,1.167-0.056,1.576-0.649c0.16-0.232,0.574-0.373,0.887-0.403c2.66-0.256,5.321-0.497,7.986-0.689
	c0.407-0.029,0.894,0.12,1.239,0.346c1.622,1.064,3.201,2.194,4.811,3.277c0.441,0.297,0.551,0.628,0.406,1.133
	c-1.869,6.528-3.726,13.06-5.589,19.59c-0.036,0.125-0.103,0.24-0.155,0.36c-0.626-0.317-1.252-0.634-1.878-0.951
	c0.017-0.129,0.018-0.263,0.054-0.387c1.162-4.026,2.327-8.051,3.491-12.077c0.4-1.384,0.858-2.756,1.167-4.16
	c0.093-0.423-0.078-1.12-0.387-1.367c-0.493-0.393-0.928,0.15-1.189,0.556c-0.362,0.565-0.724,1.164-0.912,1.8
	c-1.115,3.769-2.187,7.55-3.255,11.332c-0.335,1.184-0.917,2.354-0.357,3.63c-0.196,0.076-0.427,0.259-0.584,0.209
	c-0.846-0.27-1.682-0.578-2.501-0.921c-0.18-0.075-0.281-0.342-0.418-0.52c0.4-1.679,0.79-3.361,1.203-5.037
	c0.877-3.558,1.766-7.112,2.649-10.668c0.293-1.18,0.089-1.511-1.073-1.777c-0.867-0.198-1.732-0.407-2.601-0.6
	c-0.934-0.207-1.414,0.102-1.626,1.05c-1.151,5.16-2.299,10.321-3.447,15.481c-0.883-0.365-1.766-0.729-2.649-1.094
	c0.654-3.148,1.305-6.296,1.962-9.443c0.326-1.561,0.674-3.118,0.988-4.681c0.195-0.97-0.107-1.343-1.047-1.352
	c-0.681-0.007-1.362,0.019-2.042-0.007c-0.45-0.017-0.641,0.153-0.72,0.604c-0.271,1.545-0.581,3.082-0.878,4.622
	c-0.629,3.259-1.26,6.518-1.89,9.777c-0.585-0.122-1.17-0.243-1.756-0.365c0.403-3.323,0.806-6.646,1.21-9.968
	c0.169-1.389,0.342-2.778,0.518-4.206c-1.349,0-2.59,0-3.864,0c-0.605,4.729-1.202,9.397-1.8,14.065
	c-0.362-0.059-0.724-0.118-1.086-0.178c0.476-4.522,0.952-9.044,1.427-13.556c-0.163-0.057-0.235-0.103-0.307-0.104
	c-0.656-0.01-1.311-0.016-1.967-0.017c-1.087-0.001-1.069,0.003-1.188,1.048C228.968,46.643,228.482,50.807,228,54.97z
	 M210.728,51.766c1.118,0,2.185,0.017,3.249-0.022c0.131-0.005,0.358-0.31,0.359-0.477c0.021-2.806,0.062-5.615-0.036-8.418
	c-0.017-0.48-0.57-1.113-1.038-1.342c-0.289-0.141-1.058,0.228-1.309,0.583c-0.516,0.73-1.116,1.585-1.171,2.422
	C210.627,46.882,210.728,49.269,210.728,51.766z M166.763,9.608c-4.954,0.483-9.908,0.965-14.864,1.436
	c-0.518,0.049-0.765,0.27-0.735,0.796c0.053,0.915,0.134,1.831,0.136,2.747c0.002,0.702,0.31,0.904,0.967,0.867
	c2.328-0.128,4.659-0.213,6.988-0.337c2.407-0.127,4.812-0.293,7.219-0.416c1.543-0.079,3.09-0.171,4.633-0.148
	c1.754,0.026,3.506,0.168,5.258,0.267c2.459,0.139,4.917,0.293,7.376,0.423c1.596,0.084,3.194,0.136,4.791,0.203
	c0.416,0.018,0.721-0.081,0.744-0.582c0.043-0.942,0.09-1.885,0.168-2.825c0.058-0.701-0.219-0.951-0.929-1.014
	c-3.522-0.314-7.04-0.689-10.559-1.034c-2.555-0.25-5.111-0.488-7.741-0.738C169.107,9.366,167.936,9.493,166.763,9.608z
	 M134.648,30.754c-0.254-0.166-0.659-0.184-0.981-0.149c-4.169,0.45-8.335,0.928-12.504,1.383c-0.523,0.057-0.676,0.279-0.561,0.779
	c0.147,0.639,0.255,1.286,0.38,1.93c0.284,1.473,0.215,1.557-1.31,1.557c-7.451,0-14.902,0-22.354,0
	c-1.812,0-1.652,0.093-1.99-1.569c-0.118-0.582-0.387-0.851-0.953-0.959c-2.628-0.499-5.249-1.036-7.879-1.519
	c-0.355-0.065-0.817-0.006-1.12,0.177c-2.492,1.506-4.962,3.048-7.424,4.603c-0.208,0.132-0.46,0.466-0.426,0.66
	c0.132,0.757,0.372,1.496,0.602,2.356c0.389-0.237,0.635-0.373,0.867-0.531c1.541-1.046,3.072-2.107,4.625-3.135
	c0.291-0.192,0.677-0.384,1.002-0.359c2.978,0.232,5.954,0.501,8.927,0.793c0.338,0.033,0.771,0.186,0.957,0.435
	c0.387,0.518,0.851,0.614,1.434,0.605c4.301-0.064,8.601-0.11,12.902-0.166c3.724-0.049,7.447-0.094,11.17-0.172
	c0.305-0.006,0.826-0.207,0.865-0.396c0.127-0.617,0.527-0.737,1.015-0.79c0.782-0.084,1.566-0.143,2.349-0.217
	c3.522-0.331,7.045-0.665,10.567-0.994c1.391-0.13,2.561-0.818,3.978-1.487C137.286,32.552,135.985,31.626,134.648,30.754z
	 M262.999,38.059c0.198-0.556,0.006-0.86-0.471-1.152c-2.374-1.45-4.714-2.955-7.107-4.372c-0.444-0.263-1.104-0.362-1.619-0.273
	c-2.403,0.415-4.784,0.96-7.187,1.377c-0.883,0.153-1.32,0.507-1.454,1.417c-0.173,1.173-0.276,1.198-1.506,1.198
	c-5.354,0.001-10.708,0.001-16.061,0.001c-2.441,0-4.881-0.009-7.322,0.003c-0.694,0.003-0.961-0.262-0.799-0.965
	c0.188-0.817,0.324-1.647,0.495-2.469c0.107-0.512-0.033-0.775-0.604-0.837c-4.144-0.451-8.284-0.941-12.43-1.368
	c-0.447-0.046-0.988,0.128-1.38,0.371c-1.024,0.635-1.992,1.361-2.977,2.059c-0.219,0.155-0.415,0.341-0.622,0.512
	c0.001,0.098,0.003,0.196,0.004,0.294c1.283,0.408,2.54,0.991,3.854,1.187c2.408,0.36,4.849,0.491,7.277,0.718
	c1.853,0.173,3.709,0.32,5.557,0.542c0.349,0.042,0.914,0.344,0.945,0.582c0.082,0.64,0.449,0.603,0.878,0.61
	c2.78,0.046,5.559,0.106,8.339,0.14c5.299,0.065,10.598,0.123,15.898,0.16c0.361,0.003,0.865-0.076,1.057-0.315
	c0.491-0.61,1.102-0.721,1.803-0.778c2.639-0.214,5.274-0.478,7.915-0.661c0.506-0.035,1.107,0.089,1.533,0.352
	c1.294,0.798,2.523,1.701,3.779,2.561c0.491,0.336,0.987,0.665,1.632,1.1C262.65,39.257,262.79,38.646,262.999,38.059z
	 M191.126,31.994c1.147,0.105,2.302,0.176,3.436,0.366c0.795,0.134,0.959-0.23,1.006-0.878c0.143-1.958,0.307-3.915,0.462-5.873
	c0.074-0.931-0.059-1.1-1.018-1.15c-1.308-0.068-2.617-0.098-3.925-0.162c-0.505-0.025-0.699,0.203-0.734,0.686
	c-0.139,1.88-0.299,3.758-0.43,5.378C189.885,31.889,189.885,31.88,191.126,31.994z M145.049,31.848
	c0.036,0.493,0.3,0.59,0.747,0.537c1.274-0.151,2.55-0.285,3.828-0.398c1.053-0.093,1.139-0.169,1.056-1.253
	c-0.147-1.906-0.318-3.81-0.444-5.717c-0.036-0.538-0.246-0.75-0.775-0.724c-1.282,0.063-2.565,0.099-3.847,0.157
	c-0.973,0.044-1.068,0.155-1.052,0.976C144.733,27.67,144.895,29.758,145.049,31.848z M149.429,23.325
	c0.471-0.021,0.669-0.237,0.631-0.691c-0.046-0.548-0.135-1.096-0.14-1.644c-0.005-0.611-0.271-0.817-0.867-0.822
	c-1.284-0.01-2.568-0.072-3.851-0.126c-1.061-0.044-1.198,0.094-1.071,1.15c0.013,0.104,0.035,0.207,0.05,0.311
	c0.284,1.986,0.284,1.986,2.265,2.006C147.44,23.445,148.434,23.369,149.429,23.325z M195.47,23.494
	c0.478,0.018,0.728-0.171,0.77-0.667c0.058-0.678,0.137-1.355,0.24-2.027c0.084-0.551-0.121-0.784-0.674-0.763
	c-1.492,0.056-2.985,0.082-4.474,0.167c-0.212,0.012-0.553,0.265-0.588,0.451c-0.123,0.666-0.144,1.351-0.195,2.03
	c-0.031,0.425,0.181,0.615,0.604,0.636c0.967,0.05,1.934,0.122,2.67,0.169C194.527,23.49,194.999,23.476,195.47,23.494z
	 M205.663,56.081c-1.625-0.008-3.249-0.016-4.874-0.024C202.414,56.065,204.038,56.073,205.663,56.081z M147.174,123.242
	c-1.614,0.226-2.788,1.182-3.672,2.465c-0.186,0.27-0.015,0.903,0.18,1.269c0.094,0.177,0.695,0.268,0.943,0.147
	c1.029-0.503,2.047-1.051,2.994-1.692c0.387-0.262,0.586-0.803,0.735-1.02C148.341,123.442,147.962,123.131,147.174,123.242z
	 M168.871,119.115c-1.068-0.337-1.974,0.024-2.688,0.821c-1.531,1.709-2.315,3.772-2.695,6.001c-0.102,0.599,0.283,0.963,0.833,0.77
	c1.751-0.615,3.521-1.207,4.825-2.653c0.66-0.732,1.025-1.566,1.074-2.545C170.206,120.433,169.625,119.353,168.871,119.115z"/>
</svg>
