<!-- Generator: Adobe Illustrator 18.1.1, SVG Export Plug-In  -->
<svg version="1.1"
	 xmlns="http://www.w3.org/2000/svg" xmlns:xlink="http://www.w3.org/1999/xlink" xmlns:a="http://ns.adobe.com/AdobeSVGViewerExtensions/3.0/"
	 x="0px" y="0px" width="38.76px" height="32.86px" viewBox="0 0 38.76 32.86" enable-background="new 0 0 38.76 32.86"
	 xml:space="preserve">
<defs>
</defs>
<path fill-rule="evenodd" clip-rule="evenodd" fill="#868789" d="M26.36,0c-1.35,0-2.44,1.07-2.44,2.39s1.09,2.39,2.44,2.39
	c1.34,0,2.42-1.07,2.42-2.39S27.7,0,26.36,0z M13.04,9.06c1.15,0,2.09,0.36,2.99,1.03c0.23,0.14,0.53,0.3,0.97,0.3
	c0.87,0,1.59-0.67,1.59-1.54c0-0.56-0.29-1.01-0.63-1.26c-1.22-0.88-2.7-1.46-4.9-1.46c-4.51,0-7.65,3.36-7.65,7.46v0.05
	c0,2.36,1.04,4.45,2.63,5.92c2.32,2.39,5.8,3.94,8.2,4.79c0.85,0.3,1.7,0.03,2.13-0.73c0.44-0.77,0.05-1.79-0.8-2.11
	c-2.88-1.07-5.43-2.19-7.33-4.26c-0.79-0.86-1.46-2.23-1.46-3.66v-0.04C8.78,11.08,10.56,9.06,13.04,9.06z M25.72,9.06
	c-1.15,0-2.09,0.36-3,1.03c-0.23,0.14-0.52,0.3-0.95,0.3c-0.89,0-1.61-0.67-1.61-1.54c0-0.56,0.3-1.01,0.64-1.26
	c1.21-0.88,2.7-1.46,4.9-1.46c4.51,0,7.65,3.36,7.65,7.46v0.05c0,2.36-1.04,4.45-2.64,5.92c-2.31,2.39-5.79,3.94-8.19,4.79
	c-0.85,0.3-1.71,0.03-2.13-0.73c-0.44-0.77-0.05-1.79,0.79-2.11c2.89-1.07,5.44-2.19,7.34-4.26c0.79-0.86,1.46-2.23,1.46-3.66v-0.04
	C29.98,11.08,28.2,9.06,25.72,9.06z M35.86,32.44c-0.11-0.08-0.19-0.22-0.19-0.38c0-0.27,0.21-0.49,0.49-0.49
	c0.12,0,0.21,0.03,0.3,0.11c0.21,0.15,0.39,0.23,0.62,0.23c0.41,0,0.65-0.23,0.65-0.77v-2.49c0-0.28,0.23-0.5,0.51-0.5
	c0.29,0,0.52,0.22,0.52,0.5v2.54c0,0.55-0.17,0.95-0.44,1.23c-0.29,0.28-0.71,0.42-1.22,0.42C36.56,32.84,36.16,32.66,35.86,32.44z
	 M31.32,30.81v-2.16c0-0.28,0.23-0.5,0.52-0.5c0.28,0,0.51,0.22,0.51,0.5v2.14c0,0.74,0.38,1.13,1.01,1.13c0.62,0,1-0.38,1-1.11
	v-2.16c0-0.28,0.23-0.5,0.52-0.5c0.29,0,0.51,0.22,0.51,0.5v2.13c0,1.39-0.79,2.07-2.05,2.07C32.09,32.85,31.32,32.16,31.32,30.81z
	 M27.67,28.65c0-0.28,0.23-0.5,0.51-0.5c0.29,0,0.51,0.22,0.51,0.5v3.21h1.91c0.26,0,0.46,0.2,0.46,0.46c0,0.25-0.2,0.46-0.46,0.46
	h-2.42c-0.28,0-0.51-0.23-0.51-0.51V28.65z M22.81,30.5v-0.02c0-1.3,0.99-2.37,2.43-2.37c0.7,0,1.17,0.18,1.56,0.46
	c0.11,0.08,0.2,0.23,0.2,0.4c0,0.28-0.23,0.49-0.51,0.49c-0.14,0-0.23-0.05-0.3-0.1c-0.29-0.2-0.59-0.32-0.96-0.32
	c-0.79,0-1.35,0.64-1.35,1.43v0.01c0,0.79,0.55,1.44,1.35,1.44c0.44,0,0.72-0.13,1.02-0.35c0.07-0.08,0.18-0.12,0.3-0.12
	c0.26,0,0.48,0.21,0.48,0.47c0,0.16-0.08,0.28-0.17,0.36c-0.42,0.36-0.91,0.58-1.66,0.58C23.82,32.86,22.81,31.81,22.81,30.5z
	 M17.07,32.27v-3.58c0-0.28,0.23-0.5,0.52-0.5h2.59c0.25,0,0.45,0.2,0.45,0.45c0,0.24-0.2,0.45-0.45,0.45h-2.09v0.93h1.79
	c0.25,0,0.46,0.2,0.46,0.45s-0.21,0.45-0.46,0.45h-1.79v0.96h2.12c0.25,0,0.46,0.21,0.46,0.45c0,0.25-0.21,0.45-0.46,0.45h-2.62
	C17.3,32.78,17.07,32.55,17.07,32.27z M13.75,32.45l-1.51-3.57c-0.04-0.07-0.07-0.15-0.07-0.24c0-0.28,0.23-0.49,0.52-0.49
	c0.26,0,0.43,0.15,0.51,0.35l1.17,2.97l1.18-3c0.07-0.16,0.25-0.32,0.5-0.32c0.27,0,0.5,0.21,0.5,0.48c0,0.08-0.02,0.17-0.05,0.22
	l-1.52,3.6c-0.11,0.25-0.31,0.4-0.59,0.4h-0.06C14.05,32.85,13.85,32.7,13.75,32.45z M10.95,30.5v-0.02c0-0.78-0.59-1.44-1.42-1.44
	s-1.4,0.64-1.4,1.43v0.01c0,0.79,0.59,1.44,1.41,1.44C10.37,31.92,10.95,31.28,10.95,30.5z M7.06,30.5v-0.02
	c0-1.3,1.04-2.37,2.48-2.37s2.48,1.06,2.48,2.36v0.01c0,1.31-1.05,2.38-2.49,2.38S7.06,31.8,7.06,30.5z M3.67,28.65
	c0-0.28,0.22-0.5,0.51-0.5s0.51,0.22,0.51,0.5v3.21H6.6c0.26,0,0.46,0.2,0.46,0.46c0,0.25-0.2,0.46-0.46,0.46H4.18
	c-0.29,0-0.51-0.23-0.51-0.51V28.65z M0,28.65c0-0.28,0.23-0.5,0.52-0.5s0.51,0.22,0.51,0.5v3.66c0,0.28-0.22,0.51-0.51,0.51
	S0,32.59,0,32.31V28.65z"/>
</svg>
