<!-- Generator: Adobe Illustrator 23.0.4, SVG Export Plug-In  -->
<svg version="1.1" xmlns="http://www.w3.org/2000/svg" xmlns:xlink="http://www.w3.org/1999/xlink" x="0px" y="0px"
	 width="677.799px" height="112.432px" viewBox="0 0 677.799 112.432" enable-background="new 0 0 677.799 112.432"
	 xml:space="preserve">
<path fill="#868789" d="M0,79.334l0.001-41.119l4.349-0.001l0.002,41.124L0,79.334L0,79.334z M36.568,47.157L36.568,47.157h-4.166
	l-9.329,27.824l-0.121,0.003l-8.897-27.824L9.71,47.153l10.908,32.185l4.661-0.001L36.568,47.157L36.568,47.157z M60.587,74.159
	l-0.129,0.005c-0.449,0.959-1.04,1.804-1.771,2.551c-0.746,0.738-1.576,1.355-2.502,1.858c-0.927,0.498-1.899,0.878-2.911,1.133
	c-1.016,0.255-2.028,0.384-3.03,0.384c-1.811-0.009-3.35-0.226-4.608-0.655c-1.257-0.44-2.282-1.004-3.071-1.708
	c-0.783-0.692-1.384-1.452-1.821-2.276c-0.419-0.804-0.705-1.601-0.868-2.389c-0.156-0.774-0.233-1.469-0.219-2.059
	c0.012-1.789,0.305-3.323,0.891-4.582c0.58-1.264,1.382-2.314,2.392-3.134c1.014-0.829,2.181-1.489,3.495-1.975
	c1.309-0.482,2.706-0.846,4.189-1.073c1.47-0.225,2.962-0.366,4.476-0.443c1.503-0.064,2.952-0.096,4.351-0.09l0.758,0.01
	l0.001-1.644c0.003-1.834-0.225-3.358-0.705-4.585c-0.485-1.222-1.257-2.142-2.335-2.757c-1.069-0.625-2.501-0.921-4.28-0.923
	c-1.664-0.009-3.284,0.194-4.861,0.607c-1.584,0.422-3.109,1.103-4.596,2.04l0.007-3.843c0.618-0.312,1.315-0.595,2.109-0.857
	c0.786-0.261,1.62-0.494,2.483-0.706c0.849-0.197,1.699-0.356,2.529-0.473c0.842-0.107,1.618-0.181,2.329-0.179
	c2.64-0.004,4.795,0.411,6.464,1.244c1.661,0.845,2.879,2.142,3.665,3.914c0.776,1.766,1.168,4.047,1.158,6.833l0.003,14.196
	c-0.005,0.857-0.001,1.661,0.011,2.408c0.012,0.747,0.044,1.479,0.085,2.184c0.042,0.704,0.112,1.417,0.221,2.156l-3.913-0.001
	L60.587,74.159z M55.26,75.815c1.192-0.568,2.136-1.31,2.818-2.22c0.671-0.906,1.164-1.885,1.469-2.942
	c0.303-1.049,0.493-2.056,0.566-3.051c0.074-0.972,0.109-1.809,0.092-2.526l0.002-1.966l-1.129,0.005
	c-1.392-0.011-2.788,0.031-4.214,0.125c-1.415,0.097-2.771,0.289-4.06,0.571c-1.291,0.285-2.458,0.718-3.478,1.28
	c-1.016,0.577-1.815,1.33-2.417,2.267c-0.59,0.942-0.893,2.109-0.904,3.518c0.009,1.399,0.324,2.536,0.921,3.388
	c0.592,0.854,1.4,1.47,2.399,1.853c1.012,0.39,2.133,0.578,3.366,0.566C52.547,76.665,54.071,76.377,55.26,75.815z M73.635,79.33
	L73.635,79.33l3.976,0.003l-0.007-17.789c0.004-1.089,0.097-2.181,0.299-3.29c0.2-1.097,0.529-2.149,0.971-3.161
	c0.447-1.009,1.03-1.911,1.768-2.705c0.74-0.8,1.641-1.417,2.708-1.884c1.079-0.458,2.331-0.691,3.776-0.7
	c1.816,0.007,3.292,0.418,4.41,1.235c1.129,0.814,1.949,1.968,2.468,3.454c0.51,1.489,0.763,3.248,0.753,5.274l0.001,19.56
	l3.979,0.006l-0.006-20.57c0.002-1.779-0.191-3.42-0.6-4.912c-0.4-1.509-1.038-2.811-1.903-3.921
	c-0.874-1.119-2.009-1.976-3.403-2.6c-1.398-0.607-3.08-0.928-5.062-0.936c-1.665,0.011-3.084,0.206-4.259,0.61
	c-1.175,0.39-2.167,0.904-2.956,1.545c-0.8,0.64-1.436,1.347-1.951,2.099c-0.507,0.76-0.918,1.512-1.241,2.242l-0.122,0.005
	l-0.002-5.746l-3.848,0.001c0.129,1.294,0.2,2.568,0.221,3.83c0.031,1.262,0.04,2.511,0.029,3.74L73.635,79.33L73.635,79.33z
	 M131.009,79.918l-4.351-0.004V39.377l10.843-0.001c2.771-0.001,5.169,0.465,7.195,1.38c2.04,0.937,3.618,2.322,4.728,4.166
	c1.117,1.858,1.696,4.171,1.695,6.952c0.001,2.044-0.379,3.853-1.095,5.41c-0.708,1.549-1.708,2.856-2.979,3.899
	c-1.277,1.049-2.765,1.849-4.459,2.375c-1.702,0.532-3.542,0.801-5.523,0.804h-6.05L131.009,79.918z M134.033,60.573
	c1.648-0.001,3.243-0.064,4.76-0.237c1.509-0.18,2.869-0.566,4.066-1.143c1.197-0.571,2.141-1.45,2.839-2.61
	c0.695-1.177,1.074-2.748,1.071-4.717c0.001-2.793-0.775-4.942-2.272-6.433c-1.491-1.495-3.633-2.275-6.426-2.271l-7.062-0.001
	l-0.003,17.414L134.033,60.573z M176.212,74.15l-0.125,0.005c-0.454,0.969-1.043,1.805-1.776,2.557
	c-0.747,0.74-1.578,1.349-2.504,1.848c-0.926,0.51-1.901,0.889-2.908,1.146c-1.02,0.25-2.028,0.382-3.026,0.381
	c-1.816-0.008-3.35-0.226-4.613-0.663c-1.253-0.43-2.281-0.993-3.068-1.7c-0.786-0.7-1.383-1.452-1.813-2.272
	c-0.419-0.809-0.719-1.609-0.881-2.384c-0.157-0.782-0.227-1.474-0.217-2.064c0.007-1.786,0.3-3.328,0.893-4.587
	c0.579-1.26,1.377-2.315,2.395-3.129c1.008-0.832,2.175-1.5,3.488-1.98c1.31-0.488,2.711-0.841,4.189-1.074
	c1.472-0.217,2.969-0.367,4.481-0.438c1.502-0.065,2.951-0.094,4.349-0.089l0.758,0.001l-0.002-1.639
	c0.014-1.831-0.222-3.355-0.704-4.586c-0.482-1.222-1.262-2.146-2.337-2.756c-1.064-0.618-2.495-0.931-4.274-0.922
	c-1.67-0.018-3.287,0.201-4.859,0.611c-1.593,0.414-3.114,1.096-4.599,2.039l-0.001-3.855c0.625-0.3,1.327-0.591,2.113-0.846
	c0.795-0.257,1.62-0.495,2.485-0.711c0.843-0.197,1.703-0.355,2.526-0.471c0.849-0.112,1.622-0.177,2.334-0.177
	c2.641-0.009,4.791,0.41,6.464,1.242c1.666,0.838,2.883,2.147,3.67,3.911c0.78,1.77,1.164,4.049,1.148,6.832l0.009,14.199
	c-0.004,0.85-0.001,1.662,0.006,2.411c0.013,0.742,0.042,1.474,0.086,2.186c0.042,0.702,0.113,1.417,0.218,2.154l-3.906,0.004
	L176.212,74.15z M170.877,75.812c1.204-0.572,2.143-1.308,2.825-2.222c0.674-0.907,1.159-1.886,1.472-2.938
	c0.3-1.047,0.491-2.057,0.567-3.049c0.073-0.977,0.098-1.816,0.09-2.533l-0.001-1.956l-1.136,0.001
	c-1.385-0.01-2.785,0.029-4.202,0.124c-1.418,0.094-2.773,0.291-4.067,0.571c-1.287,0.283-2.457,0.718-3.471,1.285
	c-1.025,0.568-1.821,1.325-2.415,2.26c-0.596,0.942-0.899,2.115-0.91,3.519c0.013,1.404,0.324,2.535,0.928,3.392
	c0.585,0.847,1.399,1.469,2.392,1.85c1.013,0.39,2.139,0.577,3.362,0.566C168.176,76.657,169.693,76.374,170.877,75.812z
	 M203.132,47.149L203.132,47.149l-7.317,0.005l-0.001-9.157l-3.974,1.39l0.001,7.758l-6.305,0.005l0.004,3.41l6.302-0.003
	l0.004,18.801c-0.018,1.472,0.036,2.863,0.149,4.15c0.115,1.294,0.405,2.433,0.863,3.418c0.446,0.982,1.185,1.756,2.178,2.307
	c1.005,0.557,2.38,0.842,4.123,0.853c0.662,0,1.294-0.057,1.914-0.151c0.621-0.095,1.189-0.197,1.701-0.332
	c0.507-0.135,0.914-0.272,1.238-0.4l-0.25-3.283c-0.554,0.222-1.117,0.407-1.69,0.547c-0.567,0.138-1.225,0.209-1.967,0.214
	c-1.062-0.02-1.912-0.255-2.545-0.726c-0.631-0.477-1.066-1.117-1.342-1.914c-0.274-0.794-0.409-1.684-0.401-2.661l0.003-20.817
	l7.31-0.012L203.132,47.149L203.132,47.149z M207.291,79.332L207.291,79.332l23.955-0.001l0.004-3.41l-19.354-0.002l19.35-25.362
	l0.003-3.408l-23.202,0.001l0.004,3.405l18.596,0.003l-19.354,25.422L207.291,79.332L207.291,79.332z M256.722,74.154l-0.134-0.003
	c-0.449,0.972-1.037,1.811-1.769,2.553c-0.751,0.741-1.574,1.363-2.505,1.853c-0.924,0.506-1.899,0.886-2.912,1.138
	c-1.012,0.262-2.027,0.384-3.018,0.386c-1.819-0.011-3.36-0.231-4.617-0.66c-1.252-0.437-2.285-1.004-3.07-1.705
	c-0.788-0.692-1.39-1.452-1.818-2.271c-0.418-0.809-0.713-1.606-0.873-2.389c-0.154-0.777-0.231-1.466-0.213-2.056
	c0.004-1.791,0.299-3.323,0.886-4.592c0.579-1.257,1.381-2.304,2.398-3.129c1.003-0.832,2.177-1.492,3.483-1.978
	c1.315-0.482,2.713-0.843,4.192-1.068c1.474-0.222,2.966-0.371,4.486-0.444c1.492-0.066,2.947-0.091,4.35-0.085l0.752-0.005
	l-0.001-1.631c0.009-1.834-0.224-3.358-0.708-4.595c-0.482-1.212-1.257-2.14-2.329-2.747c-1.074-0.63-2.5-0.926-4.276-0.928
	c-1.674-0.014-3.286,0.201-4.865,0.607c-1.583,0.425-3.112,1.108-4.598,2.043l0.003-3.848c0.622-0.305,1.321-0.59,2.116-0.852
	c0.788-0.269,1.616-0.491,2.481-0.706c0.847-0.197,1.698-0.364,2.532-0.468c0.839-0.122,1.617-0.185,2.327-0.186
	c2.638-0.011,4.793,0.413,6.463,1.239c1.665,0.842,2.884,2.145,3.665,3.914c0.781,1.766,1.173,4.053,1.16,6.838l0.006,14.191
	c-0.003,0.849-0.007,1.669,0.001,2.413c0.016,0.744,0.042,1.482,0.09,2.181c0.04,0.709,0.114,1.429,0.218,2.161l-3.909,0.004
	L256.722,74.154z M251.393,75.805c1.197-0.571,2.134-1.303,2.813-2.217c0.67-0.911,1.171-1.888,1.475-2.937
	c0.3-1.049,0.493-2.061,0.563-3.051c0.072-0.977,0.107-1.819,0.099-2.533l0.001-1.956l-1.137-0.002
	c-1.391-0.006-2.787,0.031-4.204,0.13c-1.414,0.092-2.772,0.286-4.067,0.573c-1.291,0.277-2.459,0.716-3.472,1.271
	c-1.026,0.577-1.823,1.333-2.424,2.267c-0.585,0.952-0.895,2.111-0.902,3.52c0.013,1.397,0.325,2.541,0.926,3.39
	c0.589,0.847,1.392,1.473,2.395,1.848c1.012,0.395,2.131,0.578,3.36,0.571C248.68,76.657,250.201,76.372,251.393,75.805z
	 M269.77,79.325L269.77,79.325h3.97l-0.001-32.182l-3.97,0.005L269.77,79.325L269.77,79.325z M273.738,37.931L273.738,37.931h-3.968
	l-0.004,5.304h3.971L273.738,37.931L273.738,37.931z M305.015,47.654L305.015,47.654c-0.385-0.137-0.942-0.305-1.667-0.497
	c-0.722-0.197-1.599-0.366-2.623-0.531c-1.03-0.15-2.184-0.224-3.469-0.236c-2.389,0.009-4.549,0.423-6.495,1.239
	c-1.941,0.813-3.625,1.968-5.021,3.473c-1.399,1.492-2.47,3.27-3.229,5.318c-0.754,2.059-1.131,4.325-1.144,6.816
	c0.004,1.799,0.201,3.533,0.614,5.197c0.394,1.661,1.004,3.195,1.824,4.603c0.81,1.414,1.838,2.643,3.067,3.689
	c1.219,1.067,2.659,1.875,4.311,2.467c1.642,0.588,3.503,0.878,5.567,0.889c1.502,0.013,2.913-0.059,4.252-0.209
	c1.326-0.156,2.665-0.466,4.007-0.926l-0.376-3.725c-1.202,0.45-2.386,0.799-3.583,1.066c-1.189,0.25-2.415,0.391-3.667,0.381
	c-1.816-0.006-3.448-0.364-4.89-1.067c-1.425-0.692-2.656-1.659-3.664-2.904c-1.008-1.222-1.775-2.663-2.315-4.277
	c-0.523-1.605-0.796-3.342-0.794-5.178c-0.001-1.974,0.271-3.77,0.798-5.415c0.536-1.624,1.315-3.046,2.342-4.245
	c1.029-1.195,2.303-2.137,3.806-2.783c1.487-0.662,3.213-0.993,5.159-1.001c0.712-0.002,1.466,0.074,2.256,0.216
	c0.787,0.137,1.567,0.325,2.354,0.573c0.79,0.252,1.536,0.535,2.257,0.847L305.015,47.654L305.015,47.654z M311.756,79.323
	L311.756,79.323l3.97,0.001l0.006-17.227c0.003-1.134,0.104-2.276,0.311-3.435c0.209-1.157,0.544-2.261,1.001-3.318
	c0.459-1.054,1.059-2.005,1.8-2.835c0.74-0.837,1.641-1.494,2.703-1.978c1.057-0.485,2.296-0.73,3.703-0.738
	c1.626,0.01,2.951,0.286,3.962,0.831c1.007,0.547,1.771,1.303,2.312,2.257c0.527,0.959,0.889,2.061,1.077,3.293
	c0.204,1.244,0.286,2.571,0.275,3.967v19.183l3.972-0.001V60.079c0.004-1.999-0.157-3.825-0.495-5.489
	c-0.348-1.666-0.936-3.111-1.756-4.34c-0.825-1.225-1.941-2.172-3.355-2.837c-1.422-0.676-3.208-1.011-5.367-1.027
	c-1.574,0.006-3.02,0.286-4.317,0.821c-1.297,0.536-2.438,1.266-3.4,2.192c-0.959,0.926-1.733,1.98-2.307,3.169h-0.122
	l-0.001-20.567l-3.973,0.006L311.756,79.323L311.756,79.323z M346.809,79.324L346.809,79.324l3.973-0.004l-0.004-32.18l-3.973,0.006
	L346.809,79.324L346.809,79.324z M350.775,33.264L350.775,33.264l-3.967-0.004v5.302l3.975-0.001L350.775,33.264L350.775,33.264z
	 M360.805,79.327l3.968-0.004l0.005-17.796c-0.002-1.077,0.091-2.171,0.294-3.276c0.2-1.104,0.526-2.16,0.963-3.169
	c0.455-1.007,1.041-1.911,1.78-2.703c0.73-0.797,1.636-1.42,2.706-1.878c1.073-0.465,2.322-0.693,3.779-0.711
	c1.819,0.014,3.285,0.426,4.408,1.244c1.124,0.809,1.949,1.964,2.46,3.453c0.515,1.493,0.768,3.249,0.753,5.278l0.004,19.555
	l3.97,0.006l-0.004-20.575c0.01-1.776-0.184-3.418-0.596-4.914c-0.401-1.499-1.036-2.802-1.901-3.914
	c-0.869-1.122-2.011-1.984-3.403-2.597c-1.395-0.615-3.077-0.926-5.066-0.939c-1.659,0.008-3.078,0.207-4.252,0.608
	c-1.18,0.392-2.165,0.903-2.954,1.545c-0.799,0.647-1.439,1.349-1.955,2.101c-0.502,0.761-0.909,1.508-1.247,2.24l-0.12,0.002
	l-0.005-5.744l-3.84-0.001c0.124,1.299,0.199,2.568,0.222,3.83c0.027,1.264,0.04,2.518,0.031,3.745V79.327L360.805,79.327z
	 M403.987,64.496l15.823-0.001l0.001-4.357l-15.823,0.004L403.987,64.496z M440.111,79.663l4.35-0.001l0.001-39.683l0.12-0.004
	l16.523,39.686l3.723,0.006l16.014-39.691h0.12l-0.001,39.685l4.355,0.006l-0.002-44.043h-6.241l-16.137,38.74l-16.08-38.742
	l-6.746-0.003L440.111,79.663z M501.598,80.008l3.968-0.004l0.003-32.175l-3.978-0.001L501.598,80.008z M505.561,33.948
	l-3.973,0.004l0.008,5.299l3.972-0.001L505.561,33.948z M521.365,79.315l3.977,0.001l-0.009-47.32L521.367,32L521.365,79.315z
	 M554.417,79.318l0.002-5.177h-0.13c-0.452,0.967-1.038,1.809-1.778,2.558c-0.745,0.736-1.571,1.358-2.496,1.845
	c-0.923,0.505-1.91,0.888-2.912,1.136c-1.024,0.26-2.029,0.393-3.023,0.393c-1.819-0.009-3.355-0.239-4.615-0.665
	c-1.252-0.43-2.282-0.994-3.067-1.709c-0.792-0.688-1.387-1.448-1.82-2.262c-0.42-0.815-0.715-1.612-0.872-2.389
	c-0.159-0.782-0.234-1.469-0.221-2.064c0.011-1.786,0.299-3.318,0.893-4.585c0.576-1.262,1.375-2.314,2.4-3.129
	c1.003-0.834,2.172-1.494,3.482-1.983c1.317-0.477,2.716-0.838,4.195-1.073c1.471-0.214,2.963-0.366,4.478-0.436
	c1.502-0.066,2.948-0.094,4.345-0.082l0.757-0.003l0.005-1.639c0.009-1.829-0.221-3.355-0.712-4.587
	c-0.48-1.219-1.257-2.15-2.331-2.757c-1.071-0.615-2.495-0.921-4.274-0.928c-1.671-0.006-3.291,0.209-4.861,0.617
	c-1.586,0.42-3.113,1.101-4.592,2.038l-0.009-3.848c0.625-0.307,1.332-0.59,2.119-0.85c0.787-0.266,1.619-0.496,2.477-0.708
	c0.852-0.199,1.701-0.364,2.536-0.471c0.837-0.12,1.619-0.181,2.331-0.181c2.631-0.011,4.789,0.411,6.462,1.239
	c1.661,0.842,2.883,2.142,3.666,3.911c0.777,1.766,1.166,4.053,1.154,6.836l0.001,14.201c0,0.842-0.005,1.654,0.01,2.399
	c0.009,0.752,0.044,1.492,0.081,2.194c0.043,0.705,0.12,1.424,0.221,2.156L554.417,79.318L554.417,79.318z M554.041,63.101h-1.144
	c-1.379-0.011-2.778,0.031-4.193,0.125c-1.419,0.097-2.781,0.287-4.067,0.573c-1.294,0.277-2.461,0.711-3.483,1.278
	c-1.019,0.57-1.813,1.33-2.415,2.26c-0.585,0.947-0.896,2.116-0.906,3.53c0.008,1.392,0.331,2.533,0.928,3.378
	c0.587,0.852,1.395,1.47,2.395,1.853c1.009,0.392,2.134,0.581,3.36,0.568c1.861-0.021,3.383-0.306,4.575-0.874
	c1.198-0.57,2.13-1.302,2.812-2.219c0.675-0.903,1.166-1.883,1.473-2.932c0.302-1.052,0.493-2.061,0.568-3.048
	c0.073-0.979,0.104-1.824,0.094-2.536l0,0L554.041,63.101z M677.799,56.841c0.004,30.698-24.881,55.585-55.579,55.592
	c-30.701,0-55.593-24.882-55.589-55.585c0.002-30.703,24.884-55.596,55.583-55.591C652.917,1.258,677.804,26.145,677.799,56.841z
	 M668.67,56.837c0.001-25.654-20.801-46.456-46.455-46.454c-25.656,0.002-46.456,20.803-46.455,46.46
	c0,25.659,20.805,46.455,46.456,46.457C647.878,103.298,668.677,82.503,668.67,56.837z M665.409,56.841
	c-0.001,23.855-19.339,43.188-43.195,43.194c-23.853,0-43.188-19.33-43.189-43.193c0-23.848,19.338-43.191,43.19-43.193
	C646.066,13.65,665.399,32.99,665.409,56.841z M618.6,72.792h-20.012c0.678-0.615,1.448-1.301,2.29-2.045
	c0.832-0.732,1.685-1.499,2.565-2.282c0.879-0.8,1.706-1.572,2.492-2.366c0.932-0.928,1.939-1.948,3.026-3.062
	c1.076-1.128,2.153-2.32,3.21-3.599c1.062-1.263,2.031-2.575,2.905-3.944c0.889-1.363,1.585-2.75,2.112-4.144
	c0.526-1.402,0.803-2.796,0.811-4.19c-0.004-1.966-0.365-3.678-1.052-5.159c-0.696-1.484-1.66-2.727-2.897-3.724
	c-1.248-0.997-2.68-1.748-4.309-2.25c-1.641-0.509-3.413-0.758-5.302-0.76c-1.881,0.009-3.748,0.229-5.577,0.667
	c-1.831,0.425-3.618,1.026-5.355,1.78l0.591,5.142c0.77-0.432,1.656-0.849,2.671-1.258c1.007-0.405,2.099-0.744,3.279-1.01
	c1.164-0.27,2.368-0.412,3.615-0.419c1.536,0.01,2.896,0.286,4.094,0.851c1.202,0.562,2.151,1.335,2.841,2.335
	c0.703,0.979,1.061,2.136,1.071,3.443c-0.009,1.362-0.281,2.701-0.802,4.035c-0.535,1.334-1.232,2.638-2.092,3.919
	c-0.882,1.264-1.845,2.493-2.897,3.669c-1.062,1.184-2.12,2.291-3.199,3.332c-1.074,1.042-2.077,1.989-3.019,2.857
	c-1.322,1.234-2.625,2.406-3.916,3.539c-1.284,1.137-2.465,2.187-3.559,3.152l0.008,6.396l26.409-0.005L618.6,72.792z
	 M651.467,66.575c-0.011-1.969-0.41-3.653-1.187-5.053c-0.767-1.409-1.85-2.543-3.244-3.409c-1.399-0.872-3.034-1.497-4.893-1.87
	v-0.12c1.209-0.227,2.343-0.598,3.415-1.128c1.074-0.519,2.031-1.183,2.86-1.992c0.827-0.804,1.476-1.741,1.96-2.804
	c0.48-1.069,0.717-2.266,0.728-3.578c-0.005-1.971-0.379-3.678-1.106-5.098c-0.716-1.437-1.715-2.611-2.977-3.532
	c-1.27-0.932-2.72-1.616-4.363-2.06c-1.639-0.445-3.388-0.661-5.234-0.66c-1.189-0.005-2.414,0.087-3.67,0.248
	c-1.257,0.167-2.471,0.389-3.643,0.661c-1.167,0.28-2.219,0.596-3.148,0.936l0.36,5.317c1.257-0.646,2.641-1.178,4.165-1.599
	c1.518-0.425,3.222-0.661,5.101-0.666c1.094,0.001,2.136,0.109,3.113,0.346c0.982,0.247,1.848,0.626,2.61,1.148
	c0.767,0.515,1.362,1.189,1.791,2.03c0.441,0.837,0.656,1.857,0.671,3.048c-0.011,1.057-0.231,1.971-0.658,2.743
	c-0.445,0.781-1.018,1.43-1.745,1.95c-0.725,0.525-1.547,0.944-2.439,1.251c-0.894,0.312-1.824,0.532-2.773,0.668
	c-0.943,0.145-1.85,0.202-2.725,0.203l-3.343-0.011l-0.004,4.909h3.648c1.352-0.007,2.656,0.108,3.892,0.369
	c1.237,0.242,2.351,0.671,3.322,1.27c0.977,0.6,1.746,1.414,2.311,2.442c0.576,1.024,0.856,2.316,0.872,3.865
	c-0.01,1.064-0.222,1.989-0.622,2.776c-0.406,0.795-0.956,1.475-1.65,2.027c-0.69,0.552-1.467,0.99-2.355,1.335
	c-0.872,0.342-1.776,0.582-2.733,0.737c-0.949,0.166-1.879,0.236-2.798,0.231c-1.204-0.004-2.364-0.111-3.483-0.341
	c-1.127-0.229-2.169-0.516-3.132-0.861c-0.967-0.338-1.796-0.703-2.531-1.068l-0.357,5.559c0.887,0.272,1.854,0.522,2.908,0.768
	c1.042,0.232,2.141,0.437,3.275,0.598c1.124,0.16,2.254,0.24,3.38,0.244c1.656,0.02,3.286-0.094,4.872-0.306
	c1.589-0.224,3.081-0.588,4.475-1.107c1.389-0.517,2.608-1.219,3.676-2.12c1.057-0.897,1.894-2.029,2.487-3.392
	C651.148,70.11,651.454,68.481,651.467,66.575z M349.104,25.638l10.461-24.512l3.69,0.004l10.353,24.506l-3.82,0.004l-2.493-6.185
	l-12.01,0.003l-2.493,6.184L349.104,25.638L349.104,25.638z M366.167,16.578l-4.88-12.145l-4.884,12.146L366.167,16.578
	L366.167,16.578L366.167,16.578z M385.847,25.078l0.175-2.951c0.445,0.277,0.914,0.515,1.434,0.699
	c0.51,0.191,0.997,0.324,1.474,0.424c0.467,0.092,0.867,0.142,1.197,0.137c0.382-0.002,0.775-0.041,1.164-0.129
	c0.397-0.09,0.757-0.225,1.089-0.422c0.337-0.2,0.61-0.467,0.807-0.794c0.199-0.335,0.309-0.735,0.311-1.214
	c-0.005-0.462-0.152-0.872-0.427-1.204c-0.282-0.345-0.647-0.657-1.113-0.932c-0.455-0.28-0.964-0.55-1.512-0.808
	c-0.555-0.257-1.099-0.537-1.649-0.83c-0.557-0.302-1.054-0.645-1.522-1.018c-0.457-0.39-0.831-0.839-1.103-1.354
	c-0.282-0.527-0.427-1.147-0.432-1.859c0.006-0.929,0.169-1.746,0.494-2.433c0.312-0.69,0.761-1.267,1.335-1.721
	c0.577-0.446,1.244-0.796,2.009-1.018c0.757-0.23,1.594-0.344,2.488-0.344c0.76,0.003,1.474,0.078,2.141,0.209
	c0.662,0.13,1.317,0.295,1.964,0.492l-0.284,2.881c-0.192-0.115-0.437-0.225-0.747-0.332c-0.302-0.112-0.632-0.212-0.979-0.295
	c-0.345-0.084-0.677-0.151-0.984-0.209c-0.31-0.045-0.567-0.072-0.765-0.077c-0.575-0.003-1.092,0.072-1.572,0.237
	c-0.472,0.164-0.859,0.393-1.144,0.721c-0.285,0.325-0.437,0.73-0.445,1.224c0.001,0.515,0.151,0.952,0.426,1.307
	c0.28,0.352,0.65,0.67,1.114,0.936c0.45,0.267,0.964,0.52,1.514,0.76c0.547,0.245,1.098,0.502,1.645,0.786
	c0.555,0.287,1.062,0.615,1.521,1.014c0.462,0.397,0.827,0.874,1.114,1.442c0.274,0.572,0.419,1.264,0.431,2.079
	c-0.017,0.954-0.189,1.779-0.533,2.481c-0.345,0.702-0.814,1.282-1.399,1.742c-0.588,0.452-1.256,0.803-2,1.023
	c-0.74,0.222-1.514,0.332-2.326,0.333c-0.844,0.01-1.689-0.057-2.521-0.19C387.4,25.73,386.608,25.468,385.847,25.078
	L385.847,25.078L385.847,25.078z M406.472,16.683c0.004-1.372,0.221-2.625,0.653-3.766c0.434-1.139,1.056-2.131,1.855-2.963
	c0.803-0.843,1.76-1.485,2.879-1.95c1.117-0.456,2.366-0.698,3.74-0.701c1.364,0.009,2.606,0.246,3.715,0.697
	c1.112,0.467,2.071,1.119,2.875,1.954c0.799,0.833,1.417,1.825,1.85,2.972c0.435,1.137,0.652,2.386,0.656,3.755
	c-0.008,1.292-0.226,2.501-0.671,3.63c-0.437,1.129-1.061,2.119-1.863,2.982c-0.805,0.859-1.764,1.537-2.877,2.021
	c-1.104,0.483-2.339,0.733-3.68,0.744c-1.362-0.01-2.596-0.257-3.71-0.746c-1.115-0.485-2.077-1.164-2.884-2.023
	c-0.809-0.859-1.435-1.849-1.872-2.978C406.696,19.18,406.472,17.973,406.472,16.683L406.472,16.683L406.472,16.683z
	 M409.987,16.681c-0.005,0.645,0.067,1.292,0.205,1.929c0.139,0.637,0.356,1.242,0.643,1.811c0.297,0.572,0.655,1.084,1.106,1.529
	c0.445,0.445,0.964,0.797,1.579,1.051c0.607,0.25,1.297,0.382,2.086,0.392c0.772-0.011,1.457-0.139,2.059-0.398
	c0.602-0.247,1.124-0.605,1.572-1.044c0.444-0.446,0.806-0.956,1.093-1.525c0.292-0.58,0.5-1.184,0.641-1.819
	c0.142-0.635,0.215-1.284,0.21-1.921c0.008-0.862-0.124-1.696-0.374-2.491c-0.255-0.795-0.62-1.512-1.103-2.139
	c-0.475-0.638-1.059-1.141-1.749-1.508c-0.692-0.375-1.474-0.565-2.353-0.571c-0.892,0.005-1.679,0.197-2.379,0.567
	c-0.687,0.374-1.282,0.873-1.764,1.508c-0.481,0.632-0.846,1.349-1.103,2.141C410.111,14.992,409.982,15.819,409.987,16.681
	L409.987,16.681L409.987,16.681z M447.777,8.014l-0.279,2.735c-0.642-0.267-1.259-0.457-1.871-0.587
	c-0.612-0.127-1.182-0.186-1.711-0.186c-0.922,0.005-1.749,0.197-2.458,0.567c-0.712,0.374-1.312,0.873-1.809,1.505
	c-0.481,0.635-0.861,1.344-1.11,2.139c-0.252,0.804-0.381,1.635-0.381,2.492c0.003,0.645,0.07,1.289,0.21,1.93
	c0.149,0.635,0.371,1.242,0.668,1.814c0.302,0.572,0.687,1.079,1.151,1.524c0.475,0.45,1.034,0.797,1.684,1.05
	c0.655,0.255,1.409,0.387,2.254,0.392c0.382,0,0.782-0.039,1.192-0.116c0.42-0.08,0.829-0.19,1.234-0.34
	c0.397-0.157,0.78-0.34,1.127-0.557l0.246,2.944c-0.465,0.209-0.937,0.356-1.424,0.473c-0.482,0.102-0.954,0.177-1.422,0.205
	c-0.467,0.04-0.899,0.059-1.304,0.059c-1.357-0.015-2.588-0.259-3.705-0.746c-1.118-0.485-2.075-1.163-2.879-2.022
	c-0.817-0.862-1.433-1.846-1.875-2.976c-0.437-1.131-0.663-2.345-0.668-3.627c0.006-1.372,0.224-2.628,0.658-3.766
	c0.433-1.147,1.048-2.131,1.853-2.966c0.803-0.842,1.763-1.49,2.877-1.947c1.122-0.457,2.364-0.696,3.743-0.701
	c0.45,0,0.922,0.031,1.422,0.089c0.492,0.07,0.964,0.15,1.417,0.257C447.065,7.763,447.455,7.883,447.777,8.014L447.777,8.014
	L447.777,8.014z M457.384,25.634l-0.003-17.906l3.296,0.001l0.005,17.901L457.384,25.634L457.384,25.634L457.384,25.634z
	 M460.887,0.001l-0.004,3.725l-3.715,0.002l0.001-3.728H460.887L460.887,0.001L460.887,0.001z M472.978,11.795l-0.176-2.798
	c0.829-0.513,1.734-0.913,2.716-1.218c0.989-0.309,2.046-0.468,3.19-0.471c1.701-0.001,3.083,0.279,4.135,0.834
	c1.067,0.555,1.845,1.384,2.337,2.478c0.487,1.104,0.731,2.467,0.726,4.091l-0.004,7.41c0,0.67,0.008,1.239,0.027,1.696
	c0.008,0.455,0.027,0.83,0.042,1.122c0.029,0.29,0.049,0.525,0.071,0.694l-3.091,0.001l0.001-2.321l-0.065,0.002
	c-0.195,0.282-0.455,0.576-0.772,0.888c-0.322,0.307-0.704,0.612-1.165,0.889c-0.455,0.282-0.982,0.502-1.586,0.688
	c-0.592,0.167-1.272,0.267-2.029,0.275c-1.299-0.001-2.433-0.196-3.42-0.583c-0.979-0.388-1.748-0.996-2.302-1.823
	c-0.55-0.822-0.826-1.884-0.841-3.183c0.007-0.892,0.185-1.672,0.541-2.341c0.352-0.66,0.814-1.219,1.409-1.674
	c0.59-0.458,1.244-0.828,1.97-1.096c0.727-0.282,1.474-0.482,2.229-0.603c0.75-0.125,1.482-0.18,2.171-0.177
	c0.425-0.006,0.832-0.009,1.199-0.004c0.367,0.005,0.742,0.007,1.109,0.022c0.375,0.01,0.777,0.025,1.207,0.046
	c0-1.029-0.135-1.89-0.421-2.585c-0.282-0.692-0.742-1.214-1.394-1.564c-0.647-0.342-1.519-0.521-2.613-0.521
	c-0.627,0-1.252,0.072-1.879,0.22c-0.622,0.149-1.227,0.358-1.786,0.633C473.945,11.099,473.433,11.417,472.978,11.795
	L472.978,11.795L472.978,11.795z M482.602,18.676l0.003-1.576c-0.35-0.001-0.705-0.014-1.054-0.034
	c-0.35-0.02-0.702-0.032-1.047-0.035c-0.375,0-0.819,0.013-1.344,0.056c-0.512,0.035-1.059,0.115-1.624,0.24
	c-0.555,0.127-1.087,0.32-1.579,0.573c-0.485,0.252-0.897,0.585-1.2,0.999c-0.305,0.417-0.462,0.947-0.472,1.571
	c0.003,0.477,0.112,0.897,0.315,1.257c0.191,0.362,0.458,0.667,0.783,0.912c0.33,0.245,0.692,0.427,1.077,0.558
	c0.397,0.122,0.78,0.187,1.159,0.19c1.087-0.005,2.009-0.219,2.743-0.631c0.737-0.407,1.303-0.964,1.673-1.671
	C482.418,20.379,482.606,19.575,482.602,18.676L482.602,18.676L482.602,18.676z M509.409,7.725l0.006,2.668l-4.745-0.002
	l-0.001,9.799c0.008,0.692,0.132,1.278,0.381,1.745c0.25,0.482,0.58,0.834,0.999,1.084c0.42,0.245,0.884,0.37,1.397,0.367
	c0.51-0.009,0.942-0.071,1.322-0.199c0.367-0.122,0.68-0.272,0.919-0.432l0.004,2.806c-0.372,0.11-0.805,0.222-1.287,0.32
	c-0.477,0.107-0.992,0.166-1.521,0.174c-1.142,0-2.119-0.182-2.946-0.551c-0.815-0.37-1.455-0.942-1.895-1.709
	c-0.445-0.77-0.672-1.74-0.676-2.939l0.001-10.458l-4.038,0.001l0.001-2.676l4.035,0.006l0.004-4.147l3.297-1.053l0.005,5.199
	L509.409,7.725L509.409,7.725L509.409,7.725z M521.326,25.634V7.725l3.3-0.001l0.005,17.909L521.326,25.634L521.326,25.634
	L521.326,25.634z M524.839,0.001l-0.001,3.725l-3.725-0.006L521.119,0L524.839,0.001L524.839,0.001L524.839,0.001z M541.49,11.798
	l-0.171-2.816c0.822-0.497,1.726-0.898,2.711-1.203c0.989-0.317,2.046-0.471,3.186-0.476c1.704,0.005,3.091,0.281,4.147,0.841
	c1.054,0.548,1.838,1.375,2.327,2.477c0.492,1.099,0.731,2.461,0.723,4.09l0.001,7.41c0,0.67,0.005,1.242,0.025,1.701
	c0.01,0.452,0.03,0.822,0.045,1.114c0.026,0.287,0.054,0.522,0.074,0.7l-3.091-0.009l-0.001-2.316l-0.067,0.005
	c-0.195,0.277-0.45,0.567-0.77,0.885c-0.325,0.315-0.707,0.61-1.161,0.889c-0.46,0.281-0.989,0.513-1.586,0.688
	c-0.597,0.175-1.279,0.267-2.031,0.266c-1.299,0.007-2.436-0.187-3.418-0.571c-0.984-0.395-1.748-1.002-2.307-1.826
	c-0.55-0.822-0.831-1.882-0.843-3.177c0.015-0.899,0.19-1.674,0.543-2.337c0.345-0.667,0.815-1.232,1.409-1.684
	c0.59-0.457,1.247-0.819,1.968-1.091c0.73-0.285,1.469-0.485,2.231-0.61c0.755-0.119,1.479-0.179,2.171-0.176
	c0.422-0.005,0.829-0.003,1.204,0c0.362,0.004,0.74,0.009,1.102,0.024c0.38,0.003,0.777,0.02,1.204,0.045
	c0.003-1.034-0.13-1.891-0.418-2.591c-0.28-0.692-0.74-1.209-1.387-1.559c-0.65-0.346-1.524-0.521-2.616-0.526
	c-0.627,0.008-1.249,0.081-1.881,0.231c-0.622,0.145-1.219,0.352-1.789,0.63C542.452,11.096,541.945,11.423,541.49,11.798
	L541.49,11.798L541.49,11.798z M551.117,17.093c-0.352,0-0.702-0.01-1.052-0.03c-0.352-0.023-0.7-0.035-1.054-0.034
	c-0.367-0.008-0.815,0.013-1.334,0.05c-0.522,0.045-1.067,0.12-1.631,0.252c-0.555,0.124-1.084,0.311-1.579,0.563
	c-0.487,0.252-0.895,0.585-1.196,0.999c-0.3,0.422-0.47,0.952-0.475,1.574c0.005,0.472,0.11,0.899,0.315,1.262
	c0.196,0.35,0.458,0.657,0.786,0.912c0.327,0.24,0.689,0.43,1.074,0.55c0.392,0.127,0.777,0.192,1.159,0.189
	c1.087,0,2.011-0.217,2.743-0.625c0.74-0.409,1.3-0.963,1.68-1.67c0.375-0.707,0.567-1.509,0.566-2.403l0,0L551.117,17.093z"/>
</svg>
