<!-- Generator: Adobe Illustrator 23.0.4, SVG Export Plug-In  -->
<svg version="1.1" xmlns="http://www.w3.org/2000/svg" xmlns:xlink="http://www.w3.org/1999/xlink" x="0px" y="0px"
	 width="171.635px" height="233.581px" viewBox="0 0 171.635 233.581" enable-background="new 0 0 171.635 233.581"
	 xml:space="preserve">
<path fill="#868789" d="M77.197,69.276c0,17.804-0.025,35.607,0.041,53.411c0.006,1.67-0.476,2.575-1.942,3.403
	c-6.738,3.808-13.422,7.715-20.07,11.677c-1.346,0.802-2.332,0.906-3.742,0.059c-6.769-4.062-13.603-8.016-20.455-11.938
	c-1.207-0.691-1.699-1.456-1.697-2.881c0.039-35.991,0.038-71.982,0.002-107.973c-0.001-1.327,0.414-2.067,1.567-2.72
	C37.901,8.345,44.839,4.265,51.86,0.334c0.736-0.412,2.086-0.458,2.805-0.055c7.022,3.929,13.949,8.029,20.961,11.977
	c1.278,0.72,1.601,1.551,1.598,2.918C77.184,33.208,77.197,51.242,77.197,69.276z M34.538,19.108c0,33.486,0,66.574,0,99.935
	c5.29-3.054,10.351-5.916,15.324-8.925c0.582-0.352,0.943-1.502,0.956-2.29c0.083-5.218,0.043-10.437,0.043-15.656
	c0-20.492,0.008-40.984-0.03-61.476c-0.002-0.821-0.177-2.066-0.712-2.395C45.045,25.187,39.874,22.227,34.538,19.108z
	 M72.167,119.078c0-33.511,0-66.585,0-99.988c-5.371,3.121-10.481,6.04-15.512,9.09c-0.531,0.322-0.84,1.413-0.841,2.147
	c-0.042,25.87-0.049,51.74,0.026,77.61c0.002,0.847,0.704,2.008,1.431,2.481c2.632,1.71,5.415,3.185,8.139,4.754
	C67.574,116.419,69.734,117.672,72.167,119.078z M36.822,14.685c3.516,2.055,6.608,3.883,9.721,5.676
	c2.248,1.295,4.524,3.536,6.786,3.535c2.26-0.002,4.531-2.248,6.776-3.546c3.132-1.81,6.245-3.654,9.693-5.675
	c-5.482-3.166-10.558-6.121-15.672-9.007c-0.427-0.241-1.234-0.221-1.669,0.025C47.347,8.58,42.275,11.534,36.822,14.685z
	 M69.816,123.475c-5.242-3.027-10.098-5.771-14.883-8.633c-1.231-0.736-2.128-0.666-3.324,0.053
	c-4.199,2.526-8.472,4.928-12.713,7.384c-0.61,0.354-1.201,0.741-2.001,1.237c5.348,3.126,10.357,6.081,15.409,8.963
	c0.485,0.277,1.375,0.346,1.835,0.085C59.266,129.658,64.344,126.667,69.816,123.475z M89.635,98.81
	c0-7.908,0.036-15.816-0.034-23.723c-0.012-1.407,0.414-2.191,1.647-2.888c6.941-3.925,13.809-7.978,20.769-11.869
	c0.735-0.411,2.102-0.406,2.838,0.007c7.42,4.169,14.774,8.454,22.135,12.727c2.167,1.258,2.155,2.045-0.035,3.315
	c-6.435,3.729-12.863,7.473-19.341,11.129c-1.293,0.73-1.789,1.533-1.761,3.051c0.104,5.603,0.093,11.209,0.006,16.812
	c-0.022,1.423,0.453,2.165,1.678,2.856c6.478,3.654,12.902,7.402,19.337,11.132c2.263,1.312,2.262,2.128,0.003,3.438
	c-7.297,4.229-14.617,8.419-21.886,12.697c-1.166,0.686-2.017,0.609-3.138-0.05c-6.873-4.042-13.771-8.044-20.704-11.982
	c-1.156-0.657-1.553-1.389-1.543-2.697C89.665,114.779,89.635,106.794,89.635,98.81z M94.582,118.316
	c0.492-0.075,0.743-0.049,0.92-0.15c4.782-2.741,9.583-5.452,14.3-8.3c0.594-0.359,1.041-1.448,1.052-2.206
	c0.086-5.824,0.105-11.651-0.017-17.474c-0.018-0.844-0.692-1.982-1.41-2.448c-2.694-1.747-5.531-3.274-8.316-4.881
	c-2.087-1.204-4.176-2.405-6.53-3.76C94.582,92.401,94.582,105.253,94.582,118.316z M129.918,123.075
	c-5.377-3.107-10.39-6.049-15.467-8.874c-0.562-0.313-1.628-0.208-2.232,0.121c-3.495,1.904-6.925,3.926-10.369,5.923
	c-1.541,0.894-3.061,1.822-4.813,2.866c5.346,3.095,10.364,6.035,15.434,8.881c0.52,0.292,1.499,0.262,2.029-0.036
	C119.567,129.105,124.583,126.165,129.918,123.075z M96.974,74.703c5.398,3.127,10.421,6.055,15.474,8.929
	c0.444,0.252,1.231,0.389,1.626,0.166c5.216-2.936,10.39-5.946,15.849-9.096c-5.443-3.134-10.535-6.087-15.663-8.976
	c-0.426-0.24-1.218-0.25-1.64-0.012C107.497,68.606,102.41,71.565,96.974,74.703z M91.256,193.676
	c0.056-3.831-0.039-7.677,0.265-11.49c0.328-4.109,3.147-6.548,6.77-6.314c3.252,0.21,5.16,2.749,5.164,6.893
	c0.005,5.669,0.001,11.338,0.001,17.118c3.56,0,6.966,0,10.471,0c0-7.299,0.307-14.442-0.085-21.547
	c-0.404-7.34-5.351-11.858-12.319-12.004c-3.702-0.078-7.028,1.11-10.284,3.865c0-6.617,0-12.693,0-19.217
	c-3.171,1.825-5.89,3.494-8.711,4.97c-1.352,0.708-1.765,1.57-1.758,3.068c0.061,12.962,0.033,25.925,0.042,38.888
	c0,0.657,0.098,1.314,0.155,2.026c3.448,0,6.714,0,10.284,0C91.251,197.654,91.227,195.665,91.256,193.676z M1.728,155.973
	c-1.382,0.718-1.734,1.62-1.728,3.09c0.053,12.885,0.029,25.771,0.037,38.657c0,0.732,0.08,1.464,0.124,2.206
	c3.542,0,6.815,0,10.348,0c0-3.911,0-7.701,0-12.181c1.27,0.779,2.172,1.113,2.77,1.737c2.119,2.214,4.341,4.377,6.137,6.841
	c2.207,3.027,4.841,4.263,8.583,3.795c2.576-0.323,5.225-0.062,8.392-0.062c-5.551-6.017-10.629-11.521-15.781-17.105
	c4.683-5.114,9.292-10.148,14.284-15.599c-4.396,0-8.14-0.066-11.878,0.059c-0.695,0.023-1.481,0.7-2.026,1.267
	c-2.708,2.819-5.329,5.72-8.029,8.546c-0.558,0.585-1.321,0.974-2.486,1.81c0-5.124,0-9.551,0-13.978c0-4.519,0-9.038,0-14.091
	C7.284,152.811,4.563,154.5,1.728,155.973z M55.538,166.548c6.992,0.052,12.644,2.797,15.919,9.062
	c3.134,5.995,2.927,12.271-0.989,17.9c-4.639,6.667-11.484,8.522-19.121,7.079c-6.849-1.294-11.656-5.365-13.484-12.31
	C34.805,176.663,43.075,166.561,55.538,166.548z M55.488,175.343c-4.487-0.026-7.956,3.59-7.999,8.339
	c-0.043,4.755,3.362,8.368,7.9,8.383c4.465,0.015,7.932-3.667,7.908-8.399C63.274,179.101,59.77,175.367,55.488,175.343z
	 M157.034,183.675c0.057,10.042-7.378,17.27-17.797,17.302c-10.598,0.032-18.239-7.136-18.275-17.145
	c-0.035-9.876,7.468-17.21,17.653-17.255C149.576,166.529,156.976,173.398,157.034,183.675z M146.896,183.667
	c-0.042-4.757-3.548-8.414-7.979-8.325c-4.311,0.087-7.8,3.809-7.817,8.336c-0.017,4.8,3.55,8.458,8.175,8.384
	C143.647,191.992,146.938,188.366,146.896,183.667z M161.393,167.5c5.589,0.008,5.59,0.008,7.137-5.435
	c1.032-3.631,2.064-7.262,3.105-10.923c-4.036,0-7.758,0-11.627,0c-0.473,5.452-0.934,10.767-1.419,16.359
	C159.745,167.5,160.569,167.499,161.393,167.5z M99.198,232.991c-2.696,0.181-5.297,0.494-7.898,0.491
	c-2.624-0.004-4.469-1.488-5.5-3.852c-1.203-2.759-0.877-5.421,1.032-7.758c1.723-2.11,4.058-2.601,6.646-2.078
	c0.589,0.119,1.154,0.36,2.029,0.64c-0.054-2.965-0.507-6.128,3.691-6.691C99.198,220.09,99.198,226.461,99.198,232.991z
	 M92.214,230.12c1.744-0.015,3.301-1.635,3.329-3.463c0.03-1.962-1.549-3.592-3.433-3.546c-1.843,0.045-3.155,1.526-3.134,3.538
	C88.997,228.612,90.417,230.135,92.214,230.12z M60.613,220.188c0,0.774-0.001,1.378,0,1.981c0.003,2.146-0.075,4.295,0.031,6.436
	c0.139,2.798,2.115,4.867,4.82,4.87c2.611,0.003,5.222-0.304,7.928-0.481c0-4.273,0-8.523,0-12.799c-1.292,0-2.456,0-3.862,0
	c0,2.387,0.09,4.604-0.029,6.809c-0.092,1.697-0.862,2.984-2.868,2.819c-1.852-0.153-2.087-1.514-2.095-2.985
	c-0.012-2.138-0.003-4.276-0.003-6.65C63.089,220.188,61.917,220.188,60.613,220.188z M141.769,226.678
	c-0.017,4.02-2.876,6.781-7.018,6.774c-4.278-0.007-7.156-2.822-7.109-6.954c0.045-3.943,3.019-6.832,7.06-6.857
	C138.828,219.614,141.786,222.56,141.769,226.678z M138.004,226.544c-0.027-1.904-1.482-3.421-3.279-3.417
	c-1.924,0.004-3.328,1.576-3.257,3.647c0.063,1.842,1.654,3.419,3.379,3.351C136.573,230.056,138.03,228.404,138.004,226.544z
	 M22.712,233.444c2.555-0.371,4.146-1.885,4.265-4.058c0.123-2.24-1.166-3.622-3.92-4.269c-1.189-0.279-2.359-0.636-3.538-0.957
	c0.041-0.32,0.082-0.64,0.123-0.96c0.904,0,2.28-0.375,2.63,0.065c1.536,1.932,2.97,0.931,4.539,0.344
	c-1.122-3.088-3.275-4.319-6.743-3.963c-2.495,0.256-4.361,1.989-4.486,4.167c-0.119,2.063,1.197,3.465,3.856,4.121
	c1.201,0.296,2.398,0.604,3.801,0.958c-1.334,1.494-2.576,1.914-3.302,0.978c-1.439-1.857-2.91-0.812-4.63-0.49
	C15.978,232.673,18.588,234.043,22.712,233.444z M44.413,226.828c-0.003-1.119-0.001-2.239-0.001-3.407
	c1.475-0.084,2.655-0.151,3.809-0.217c0-1.157,0-2.102,0-3.091c-1.304-0.075-2.429-0.14-3.686-0.212
	c-0.085-1.573-0.164-3.037-0.246-4.566c-3.47,1.369-3.47,1.369-4.206,4.573c-0.716,0.08-1.455,0.163-2.301,0.258
	c0,1.037,0,1.987,0,3.013c0.913,0.103,1.709,0.192,2.636,0.296c0,1.672-0.008,3.193,0.002,4.715
	c0.013,2.023,0.492,3.867,2.511,4.772c2.155,0.966,4.269,0.806,6.322-0.588c-0.367-1.074-0.683-2.001-1.042-3.05
	C44.794,230.268,44.422,229.995,44.413,226.828z M116.089,233.048c0-4.417,0-8.655,0-12.904c-1.312,0-2.433,0-3.678,0
	c0,4.314,0,8.503,0,12.904C113.766,233.048,114.945,233.048,116.089,233.048z M116.862,215.07c-0.89-0.595-1.805-1.684-2.662-1.639
	c-0.766,0.04-1.899,1.229-2.098,2.09c-0.326,1.407,0.753,2.424,2.18,2.187c0.91-0.151,1.698-1.038,2.541-1.594
	C116.836,215.765,116.849,215.417,116.862,215.07z"/>
</svg>
