<!-- Generator: Adobe Illustrator 21.1.0, SVG Export Plug-In  -->
<svg version="1.1"
	 xmlns="http://www.w3.org/2000/svg" xmlns:xlink="http://www.w3.org/1999/xlink" xmlns:a="http://ns.adobe.com/AdobeSVGViewerExtensions/3.0/"
	 x="0px" y="0px" width="30.7px" height="58.3px" viewBox="0 0 30.7 58.3" style="enable-background:new 0 0 30.7 58.3;"
	 xml:space="preserve">
<style type="text/css">
	.st0{fill:#868789;}
</style>
<defs>
</defs>
<path class="st0" d="M4.5,55.9l1,1.9v0.4H4.9l-1-2H3.4v2H2.7v-4.5h0.7v1.9h0.5l1-1.9h0.6v0.3L4.5,55.9z M9.3,53.6
	c0.5,0,0.8,0.1,1,0.3c0.2,0.2,0.3,0.6,0.3,1v2c0,0.4-0.1,0.7-0.3,1c-0.2,0.2-0.6,0.3-1,0.3c-0.5,0-0.8-0.1-1-0.3
	c-0.2-0.2-0.3-0.6-0.3-1v-2c0-0.4,0.1-0.7,0.3-1C8.5,53.8,8.9,53.7,9.3,53.6L9.3,53.6z M8.6,54.9V57c0,0.4,0.2,0.6,0.7,0.6
	c0.5,0,0.7-0.2,0.7-0.6v-2.1c0-0.4-0.2-0.6-0.7-0.6C8.9,54.3,8.6,54.5,8.6,54.9z M14.6,53.6c0.5,0,0.8,0.1,1,0.3
	c0.2,0.2,0.3,0.6,0.3,1v2c0,0.4-0.1,0.7-0.3,1c-0.2,0.2-0.6,0.3-1,0.3c-0.5,0-0.8-0.1-1-0.3c-0.2-0.2-0.3-0.6-0.3-1v-2
	c0-0.4,0.1-0.7,0.3-1C13.8,53.8,14.1,53.7,14.6,53.6L14.6,53.6z M13.9,54.9V57c0,0.4,0.2,0.6,0.7,0.6s0.7-0.2,0.7-0.6v-2.1
	c0-0.4-0.2-0.6-0.7-0.6S13.9,54.5,13.9,54.9z M21.3,58.2h-0.7v-2h-1.4v2h-0.7v-4.5h0.7v1.9h1.4v-1.9h0.7V58.2z M25.2,53.6
	c0.5,0,0.8,0.1,1,0.3c0.2,0.2,0.3,0.6,0.3,1v2c0,0.4-0.1,0.7-0.3,1c-0.2,0.2-0.6,0.3-1,0.3c-0.5,0-0.8-0.1-1-0.3
	c-0.2-0.2-0.3-0.6-0.3-1v-2c0-0.4,0.1-0.7,0.3-1C24.4,53.8,24.8,53.7,25.2,53.6L25.2,53.6z M24.5,54.9V57c0,0.4,0.2,0.6,0.7,0.6
	c0.5,0,0.7-0.2,0.7-0.6v-2.1c0-0.4-0.2-0.6-0.7-0.6C24.8,54.3,24.5,54.5,24.5,54.9z M30.7,34.2C30.7,34.2,30.7,34.2,30.7,34.2
	c0-0.1-0.1-0.2-0.2-0.3l-1.7-1l-5-2.9c-0.1,0-0.1,0-0.2,0c-0.1,0-0.1,0-0.2,0l-6.7,3.9c-0.1,0.1-0.2,0.2-0.2,0.3
	c0,0.1,0.1,0.2,0.2,0.3l6.5,3.8v2.7l-6.5,3.8c-0.1,0.1-0.2,0.2-0.2,0.3c0,0.1,0.1,0.2,0.2,0.3l6.7,3.9c0.1,0,0.1,0,0.2,0
	c0.1,0,0.1,0,0.2,0l6.7-3.9c0.1-0.1,0.2-0.2,0.2-0.3l0,0V34.2z M24,30.9l5.1,2.9l0.5,0.3L24,37.4V30.9z M17.7,34.2l5.6-3.3v6.5
	L17.7,34.2z M23.7,48.5l-6-3.5l6-3.5l4.8,2.8l1.2,0.7L23.7,48.5z M29.6,19.9C29.6,19.9,29.6,19.9,29.6,19.9c0-0.1-0.1-0.1-0.1-0.1
	c0,0,0,0,0,0l-6.8-3.9c-0.1-0.1-0.2-0.1-0.4,0l-8.3,4.8V4.2c0,0,0,0,0,0s0,0,0,0v0c0-0.1-0.1-0.2-0.2-0.3c0,0-0.1,0-0.1,0L7.2,0
	C7.1,0,7,0,6.9,0L0.3,3.8c0,0-0.1,0-0.1,0C0.1,3.9,0,4.1,0,4.2v38.8c0,0.1,0.1,0.2,0.2,0.3l6.7,3.9c0.1,0,0.1,0,0.2,0
	c0.1,0,0.1,0,0.2,0l6.7-3.9c0.1-0.1,0.2-0.2,0.2-0.3v0c0,0,0,0,0,0c0,0,0,0,0,0V29.2l7.7-4.4l7.3,4.2c0.1,0,0.1,0,0.2,0
	c0.1,0,0.1,0,0.2,0c0.1-0.1,0.2-0.2,0.2-0.3v-8.6C29.7,20,29.7,20,29.6,19.9z M6.7,46.2l-5.6-3.3l5.6-3.3V46.2z M6.7,38.8l-6,3.5
	V4.8l6,3.5V38.8z M7,7.7l-6-3.5l6-3.4l6,3.4L7,7.7z M7.4,46.2v-6.5l5.6,3.3L7.4,46.2z M13.4,42.3l-6-3.5V8.3l6-3.5V42.3z M14.1,28.4
	v-6.9l8.4-4.9l6.1,3.5L14.1,28.4z"/>
</svg>
