<!-- Generator: Adobe Illustrator 22.1.0, SVG Export Plug-In  -->
<svg version="1.1"
	 xmlns="http://www.w3.org/2000/svg" xmlns:xlink="http://www.w3.org/1999/xlink" xmlns:a="http://ns.adobe.com/AdobeSVGViewerExtensions/3.0/"
	 x="0px" y="0px" width="1423.1px" height="217.64px" viewBox="0 0 1423.1 217.64"
	 style="enable-background:new 0 0 1423.1 217.64;" xml:space="preserve">
<style type="text/css">
	.st0{fill:#005997;}
	.st1{fill:#FFFFFF;}
	.st2{fill-rule:evenodd;clip-rule:evenodd;fill:#FFE800;}
	.st3{fill-rule:evenodd;clip-rule:evenodd;fill:#DF2626;}
	.st4{fill-rule:evenodd;clip-rule:evenodd;fill:#005997;}
</style>
<defs>
</defs>
<g id="text_1_">
	<g>
		<path class="st0" d="M8.32,68.04h4.09l8.32,7.99h-6.01l-4.36-4.36l-4.36,4.36H0L8.32,68.04z M7.79,80.78h5.15v46H7.79V80.78z"/>
		<path class="st0" d="M24.62,93.52h4.88v5.61c1.52-3.56,4.75-6.14,9.37-6.14c4.75,0,8.12,2.51,9.77,6.6
			c1.85-4.09,5.48-6.6,10.36-6.6c6.73,0,10.82,5.08,10.82,12.54v13.73c0,2.57,0.4,3.5,2.31,3.5c0.4,0,0.86-0.07,1.25-0.13v4.03
			c-0.66,0.26-1.45,0.33-2.11,0.33c-2.51,0-6.34-0.66-6.34-7.39v-13c0-5.54-2.71-9.04-7.26-9.04c-4.55,0-7.92,3.76-7.92,9.37v19.86
			h-4.88v-20.19c0-5.54-2.71-9.04-7.39-9.04c-4.55,0-7.99,3.76-7.99,9.37v19.86h-4.88V93.52z"/>
		<path class="st0" d="M80.45,93.52h4.88v4.95c1.65-2.84,5.28-5.94,11.81-5.94c9.31,0,16.83,7.46,16.83,17.62
			s-7.52,17.62-16.83,17.62c-6.53,0-10.16-3.1-11.81-5.94v17.69h-4.88V93.52z M97.15,123.22c6.86,0,11.95-5.61,11.95-13.07
			c0-7.46-5.08-13.07-11.95-13.07c-7.13,0-12.41,5.61-12.41,13.07C84.74,117.61,90.02,123.22,97.15,123.22z"/>
		<path class="st0" d="M121.64,93.52h4.88v5.61c1.65-3.56,5.21-6.14,10.23-6.14c0.73,0,1.58,0.07,2.05,0.13v5.28
			c-0.79-0.2-1.91-0.33-3.3-0.33c-5.15,0-8.97,3.76-8.97,9.37v19.34h-4.88V93.52z"/>
		<path class="st0" d="M142.62,110.28c0-10.76,7.13-17.75,16.63-17.75c9.24,0,15.31,7.39,15.31,16.56c0,0,0,1.12-0.07,2.11h-26.99
			c0.26,7.33,4.88,12.01,11.88,12.01c4.82,0,7.46-1.72,10.23-4.62l3.23,3.17c-4.16,4.62-8.65,5.87-13.46,5.87
			c-9.9,0-16.76-6.73-16.76-17.09V110.28z M169.35,106.92c0-5.35-4.49-9.83-10.1-9.83c-6.07,0-11.09,4.42-11.42,9.83H169.35z"/>
		<path class="st0" d="M181.63,93.52h4.88v20.19c0,5.54,3.1,9.04,8.25,9.04c5.28,0,9.04-3.76,9.04-9.37V93.52h4.88v25.54
			c0,2.9,0.66,4.16,2.51,4.16c0.46,0,1.25-0.07,1.72-0.13v3.7c-1.06,0.53-2.04,0.53-3.1,0.53c-1.25,0-2.9-0.2-4.09-1.52
			c-0.66-0.73-1.25-1.78-1.52-3.3c-1.52,2.31-4.82,4.82-10.62,4.82c-7.39,0-11.95-5.08-11.95-12.54V93.52z"/>
		<path class="st0" d="M219.71,93.52h4.88v5.61c1.72-3.56,5.34-6.14,10.49-6.14c7.52,0,12.14,5.08,12.14,12.54v13.73
			c0,2.57,0.33,3.5,2.31,3.5c0.4,0,0.86-0.07,1.25-0.13v4.03c-0.66,0.26-1.45,0.33-2.11,0.33c-2.51,0-6.34-0.66-6.34-7.39v-13
			c0-5.54-3.23-9.04-8.51-9.04c-5.41,0-9.24,3.76-9.24,9.37v19.86h-4.88V93.52z"/>
		<path class="st0" d="M272.58,92.53c6.53,0,10.16,3.1,11.81,5.94v-4.95h4.88v25.8c0,2.9,0.66,4.16,2.51,4.16
			c0.46,0,1.25-0.07,1.72-0.13v3.7c-1.06,0.46-2.05,0.53-3.1,0.53c-1.06,0-2.38-0.13-3.5-0.92c-1.06-0.79-1.98-2.18-2.24-4.75
			c-1.91,2.97-5.67,5.87-12.08,5.87c-9.31,0-16.83-7.46-16.83-17.62S263.27,92.53,272.58,92.53z M272.58,123.22
			c7.13,0,12.41-5.61,12.41-13.07c0-7.46-5.28-13.07-12.41-13.07c-6.86,0-11.95,5.61-11.95,13.07
			C260.63,117.61,265.71,123.22,272.58,123.22z M262.35,80.78h4.55c0.99,3.1,2.84,4.82,5.74,4.82c2.9,0,4.75-1.72,5.74-4.82h4.55
			c-0.73,5.61-5.15,9.17-10.29,9.17S263.07,86.39,262.35,80.78z"/>
		<path class="st0" d="M334.35,92.53c5.02,0,9.37,1.72,12.61,5.02l-2.97,3.43c-2.51-2.57-5.87-3.89-9.64-3.89
			c-7.39,0-12.8,5.61-12.8,13.07c0,7.46,5.41,13.07,12.8,13.07c3.76,0,7.13-1.32,9.64-3.89l2.97,3.43
			c-3.23,3.3-7.59,5.02-12.61,5.02c-9.77,0-17.69-7.46-17.69-17.62S324.58,92.53,334.35,92.53z"/>
		<path class="st0" d="M353.43,93.52h4.88v20.19c0,5.54,3.1,9.04,8.25,9.04c5.28,0,9.04-3.76,9.04-9.37V93.52h4.88v25.54
			c0,2.9,0.66,4.16,2.51,4.16c0.46,0,1.25-0.07,1.72-0.13v3.7c-1.06,0.53-2.04,0.53-3.1,0.53c-1.25,0-2.9-0.2-4.09-1.52
			c-0.66-0.73-1.25-1.78-1.52-3.3c-1.52,2.31-4.82,4.82-10.62,4.82c-7.39,0-11.95-5.08-11.95-12.54V93.52z"/>
	</g>
	<g>
		<path class="st0" d="M700.08,92.52h4.88v4.95c1.65-2.84,5.28-5.94,11.81-5.94c9.3,0,16.83,7.46,16.83,17.62
			s-7.52,17.62-16.83,17.62c-6.53,0-10.16-3.1-11.81-5.94v17.69h-4.88V92.52z M716.78,122.22c6.86,0,11.95-5.61,11.95-13.07
			c0-7.46-5.08-13.07-11.95-13.07c-7.13,0-12.41,5.61-12.41,13.07C704.37,116.61,709.65,122.22,716.78,122.22z"/>
		<path class="st0" d="M739.81,109.28c0-10.76,7.13-17.75,16.63-17.75c9.24,0,15.31,7.39,15.31,16.56c0,0,0,1.12-0.07,2.11H744.7
			c0.26,7.33,4.88,12.01,11.88,12.01c4.82,0,7.46-1.72,10.23-4.62l3.23,3.17c-4.16,4.62-8.65,5.87-13.46,5.87
			c-9.9,0-16.76-6.73-16.76-17.09V109.28z M766.54,105.92c0-5.35-4.49-9.83-10.1-9.83c-6.07,0-11.09,4.42-11.42,9.83H766.54z"/>
		<path class="st0" d="M779.21,92.52h4.88v5.61c1.72-3.56,5.35-6.14,10.49-6.14c7.52,0,12.14,5.08,12.14,12.54v13.73
			c0,2.57,0.33,3.5,2.31,3.5c0.4,0,0.86-0.07,1.25-0.13v4.03c-0.66,0.26-1.45,0.33-2.11,0.33c-2.51,0-6.34-0.66-6.34-7.39v-13
			c0-5.54-3.23-9.04-8.51-9.04c-5.41,0-9.24,3.76-9.24,9.37v19.86h-4.88V92.52z"/>
		<path class="st0" d="M818.16,97.07h-3.89v-4.55h3.89V79.78h4.88v12.74h7.72v4.55h-7.72v19.4c0,4.29,1.45,5.74,4.62,5.74
			c0.92,0,1.85,0,3.1-0.2v4.22c-0.86,0.4-2.31,0.53-3.7,0.53c-3.76,0-8.91-1.32-8.91-10.29V97.07z"/>
		<path class="st0" d="M837.95,92.52h4.88v5.61c1.65-3.56,5.21-6.14,10.23-6.14c0.73,0,1.58,0.07,2.05,0.13v5.28
			c-0.79-0.2-1.91-0.33-3.3-0.33c-5.15,0-8.98,3.76-8.98,9.37v19.34h-4.88V92.52z"/>
		<path class="st0" d="M862.97,92.52h4.88v20.19c0,5.54,3.1,9.04,8.25,9.04c5.28,0,9.04-3.76,9.04-9.37V92.52h4.88v25.54
			c0,2.9,0.66,4.16,2.51,4.16c0.46,0,1.25-0.07,1.72-0.13v3.7c-1.06,0.53-2.05,0.53-3.1,0.53c-1.25,0-2.9-0.2-4.09-1.52
			c-0.66-0.73-1.25-1.78-1.52-3.3c-1.52,2.31-4.82,4.82-10.62,4.82c-7.39,0-11.94-5.08-11.94-12.54V92.52z"/>
		<path class="st0" d="M919.13,92.52h4.88v20.19c0,5.54,3.1,9.04,8.25,9.04c5.28,0,9.04-3.76,9.04-9.37V92.52h4.88v25.54
			c0,2.9,0.66,4.16,2.51,4.16c0.46,0,1.25-0.07,1.72-0.13v3.7c-1.06,0.53-2.05,0.53-3.1,0.53c-1.25,0-2.9-0.2-4.09-1.52
			c-0.66-0.73-1.25-1.78-1.52-3.3c-1.52,2.31-4.82,4.82-10.62,4.82c-7.39,0-11.94-5.08-11.94-12.54V92.52z"/>
		<path class="st0" d="M957.22,92.52h4.88v5.61c1.72-3.56,5.35-6.14,10.49-6.14c7.52,0,12.14,5.08,12.14,12.54v13.73
			c0,2.57,0.33,3.5,2.31,3.5c0.4,0,0.86-0.07,1.25-0.13v4.03c-0.66,0.26-1.45,0.33-2.11,0.33c-2.51,0-6.33-0.66-6.33-7.39v-13
			c0-5.54-3.23-9.04-8.51-9.04c-5.41,0-9.24,3.76-9.24,9.37v19.86h-4.88V92.52z"/>
		<path class="st0" d="M1009.09,92.52h5.08l10.89,25.47l10.82-25.47h5.08l-14.25,33.26h-3.37L1009.09,92.52z"/>
		<path class="st0" d="M1046.45,83.67c0-1.91,1.58-3.3,3.3-3.3c1.72,0,3.3,1.39,3.3,3.3c0,1.91-1.58,3.3-3.3,3.3
			C1048.03,86.97,1046.45,85.59,1046.45,83.67z M1047.3,92.52h4.88v26.13c0,2.44,0.59,3.5,2.51,3.5c0.46,0,1.25-0.07,1.72-0.13v4.03
			c-1.06,0.46-2.05,0.53-3.1,0.53c-2.38,0-6-0.66-6-7.06V92.52z"/>
		<path class="st0" d="M1062.02,83.67c0-1.91,1.58-3.3,3.3-3.3c1.72,0,3.3,1.39,3.3,3.3c0,1.91-1.58,3.3-3.3,3.3
			C1063.61,86.97,1062.02,85.59,1062.02,83.67z M1062.88,92.52h4.88v26.13c0,2.44,0.59,3.5,2.51,3.5c0.46,0,1.25-0.07,1.72-0.13
			v4.03c-1.06,0.46-2.05,0.53-3.1,0.53c-2.38,0-6-0.66-6-7.06V92.52z"/>
		<path class="st0" d="M1079.18,97.07h-3.89v-4.55h3.89V79.78h4.88v12.74h7.72v4.55h-7.72v19.4c0,4.29,1.45,5.74,4.62,5.74
			c0.92,0,1.85,0,3.1-0.2v4.22c-0.86,0.4-2.31,0.53-3.7,0.53c-3.76,0-8.91-1.32-8.91-10.29V97.07z"/>
		<path class="st0" d="M1114.56,91.53c9.77,0,17.69,7.46,17.69,17.62s-7.92,17.62-17.69,17.62c-9.77,0-17.69-7.46-17.69-17.62
			S1104.79,91.53,1114.56,91.53z M1114.56,122.22c7.39,0,12.8-5.61,12.8-13.07c0-7.46-5.41-13.07-12.8-13.07
			c-7.39,0-12.8,5.61-12.8,13.07C1101.75,116.61,1107.17,122.22,1114.56,122.22z"/>
		<path class="st0" d="M1139.9,92.52h4.88v5.61c1.65-3.56,5.21-6.14,10.23-6.14c0.73,0,1.58,0.07,2.05,0.13v5.28
			c-0.79-0.2-1.91-0.33-3.3-0.33c-5.15,0-8.98,3.76-8.98,9.37v19.34h-4.88V92.52z"/>
		<path class="st0" d="M1180.82,92.52h4.88v5.61c1.52-3.56,4.75-6.14,9.37-6.14c4.75,0,8.12,2.51,9.77,6.6
			c1.85-4.09,5.48-6.6,10.36-6.6c6.73,0,10.82,5.08,10.82,12.54v13.73c0,2.57,0.4,3.5,2.31,3.5c0.4,0,0.86-0.07,1.25-0.13v4.03
			c-0.66,0.26-1.45,0.33-2.11,0.33c-2.51,0-6.34-0.66-6.34-7.39v-13c0-5.54-2.7-9.04-7.26-9.04c-4.55,0-7.92,3.76-7.92,9.37v19.86
			h-4.88v-20.19c0-5.54-2.71-9.04-7.39-9.04c-4.55,0-7.99,3.76-7.99,9.37v19.86h-4.88V92.52z"/>
		<path class="st0" d="M1251.37,91.53c6.53,0,10.16,3.1,11.81,5.94v-4.95h4.88v25.8c0,2.9,0.66,4.16,2.51,4.16
			c0.46,0,1.25-0.07,1.72-0.13v3.7c-1.06,0.46-2.05,0.53-3.1,0.53c-1.06,0-2.38-0.13-3.5-0.92c-1.06-0.79-1.98-2.18-2.24-4.75
			c-1.91,2.97-5.68,5.87-12.08,5.87c-9.31,0-16.83-7.46-16.83-17.62S1242.07,91.53,1251.37,91.53z M1251.37,122.22
			c7.13,0,12.41-5.61,12.41-13.07c0-7.46-5.28-13.07-12.41-13.07c-6.86,0-11.95,5.61-11.95,13.07
			C1239.43,116.61,1244.51,122.22,1251.37,122.22z"/>
		<path class="st0" d="M1278.3,83.67c0-1.91,1.58-3.3,3.3-3.3s3.3,1.39,3.3,3.3c0,1.91-1.58,3.3-3.3,3.3S1278.3,85.59,1278.3,83.67z
			 M1279.16,92.52h4.88v26.13c0,2.44,0.59,3.5,2.51,3.5c0.46,0,1.25-0.07,1.72-0.13v4.03c-1.06,0.46-2.05,0.53-3.1,0.53
			c-2.38,0-6.01-0.66-6.01-7.06V92.52z"/>
		<path class="st0" d="M1313.15,79.78h4.88v17.69c1.65-2.84,5.28-5.94,11.81-5.94c9.3,0,16.83,7.46,16.83,17.62
			s-7.52,17.62-16.83,17.62c-6.53,0-10.16-3.1-11.81-5.94v4.95h-4.88V79.78z M1329.85,122.22c6.86,0,11.95-5.61,11.95-13.07
			c0-7.46-5.08-13.07-11.95-13.07c-7.13,0-12.41,5.61-12.41,13.07C1317.44,116.61,1322.72,122.22,1329.85,122.22z"/>
		<path class="st0" d="M1353.94,92.52h4.88v20.19c0,5.54,3.1,9.04,8.25,9.04c5.28,0,9.04-3.76,9.04-9.37V92.52h4.88v25.54
			c0,2.9,0.66,4.16,2.51,4.16c0.46,0,1.25-0.07,1.72-0.13v3.7c-1.06,0.53-2.04,0.53-3.1,0.53c-1.25,0-2.9-0.2-4.09-1.52
			c-0.66-0.73-1.25-1.78-1.52-3.3c-1.52,2.31-4.82,4.82-10.62,4.82c-7.39,0-11.95-5.08-11.95-12.54V92.52z"/>
		<path class="st0" d="M1392.02,92.52h4.88v5.61c1.72-3.56,5.35-6.14,10.49-6.14c7.52,0,12.14,5.08,12.14,12.54v13.73
			c0,2.57,0.33,3.5,2.31,3.5c0.4,0,0.86-0.07,1.25-0.13v4.03c-0.66,0.26-1.45,0.33-2.11,0.33c-2.51,0-6.34-0.66-6.34-7.39v-13
			c0-5.54-3.23-9.04-8.51-9.04c-5.41,0-9.24,3.76-9.24,9.37v19.86h-4.88V92.52z"/>
	</g>
</g>
<g id="logo_lidl_2_">
	<rect x="433.2" class="st1" width="217.64" height="217.64"/>
	<rect x="439.36" y="6.16" class="st0" width="205.32" height="205.32"/>
	<path class="st2" d="M542.02,17.76c-50.28,0-91.08,40.79-91.08,91.09c0,50.26,40.79,91.04,91.08,91.04
		c50.28,0,91.07-40.78,91.07-91.04C633.09,58.54,592.3,17.76,542.02,17.76"/>
	<polygon class="st3" points="536.36,111.38 520.3,95.32 501.75,113.88 501.75,120.11 506.42,115.42 519.36,128.39 514.59,133.16 
		517.69,136.29 543.56,110.36 543.56,104.16 	"/>
	<polygon class="st4" points="461.3,91.93 489.94,91.93 489.94,98.11 485.16,98.11 485.16,118.08 501.75,108.85 501.75,125.78 
		461.3,125.78 461.3,119.57 466.1,119.57 466.1,98.11 461.3,98.11 	"/>
	<polygon class="st4" points="582.05,91.93 582.05,98.11 586.85,98.11 586.85,119.57 582.05,119.57 582.05,125.78 622.52,125.78 
		622.52,108.85 605.91,118.08 605.91,98.11 610.71,98.11 610.71,91.93 	"/>
	<path class="st3" d="M517.92,72.68c5.63,0,10.2,4.54,10.2,10.17c0,5.63-4.56,10.2-10.2,10.2c-5.63,0-10.2-4.57-10.2-10.2
		C507.72,77.21,512.29,72.68,517.92,72.68"/>
	<path class="st3" d="M542.02,11.6c-53.67,0-97.23,43.55-97.23,97.25c0,53.67,43.55,97.19,97.23,97.19
		c53.67,0,97.22-43.52,97.22-97.19C639.24,55.15,595.69,11.6,542.02,11.6 M542.02,199.89c-50.28,0-91.08-40.79-91.08-91.04
		c0-50.31,40.79-91.1,91.08-91.1c50.28,0,91.07,40.79,91.07,91.1C633.09,159.1,592.3,199.89,542.02,199.89"/>
	<path class="st4" d="M566.09,91.93h-27.31v6.18h4.77v21.46h-4.77v6.2h27.31C586.28,125.78,586.49,91.93,566.09,91.93
		 M562.26,115.22h-1.36v-12.78h1.15C568.02,102.43,568.02,115.24,562.26,115.22"/>
</g>
</svg>
