<!-- Generator: Adobe Illustrator 21.1.0, SVG Export Plug-In  -->
<svg version="1.1"
	 xmlns="http://www.w3.org/2000/svg" xmlns:xlink="http://www.w3.org/1999/xlink" xmlns:a="http://ns.adobe.com/AdobeSVGViewerExtensions/3.0/"
	 x="0px" y="0px" width="248.8px" height="84.5px" viewBox="0 0 248.8 84.5" style="enable-background:new 0 0 248.8 84.5;"
	 xml:space="preserve">
<style type="text/css">
	.st0{fill-rule:evenodd;clip-rule:evenodd;fill:#868789;}
</style>
<defs>
</defs>
<path class="st0" d="M39.8,0c8.9,22.5,12,40.5,6.5,65.4c-2.3,10.3-4.1,11.9-6.4,19.2c-3.1-1.3-6.4-5.3-9.7-7
	c0.5-2.7,3.5-9.5,4.8-16.2c6.3-33.2-4.9-51.2-4.7-54.3L39.8,0z M13.9,19.5c1.3,9.1,3.3,8.5,3.3,22.8c0,7.6-0.5,10.5-1.9,17.3
	c-0.4,1.9-1.1,3.8-1.3,5.4c1.2,0.9,7,5.7,8.2,6c3.2-8.7,4.9-18.6,4.9-29c0-8.6-1.6-20.5-4.9-28.4C20.7,14,15.5,18.7,13.9,19.5
	 M0,30.1c-0.1,1,0.5,4.6,0.7,6.1c1,9.9-0.8,15.4-0.7,18.2l6.9,5.1c2.9-4.6,3-29.8,0-34.4C4.6,26.3,2.5,28.7,0,30.1 M180.7,18.7
	c-3,0.7-3.9,1.7-5.2,4.1c-1.1,2.1-1.3,5.5-0.2,7.9c2.8,5.9,6.9,4.5,14.4,4.5c3,0,6.1,0,9.1,0c2.3,0,8.3,0.8,6.4-2.7
	c-0.9-1.6-6.5-0.8-8.6-0.8c-3.1,0-6.3,0-9.4,0c-2.8,0-6.2,0.4-7.9-1.2c-1.7-1.7-1.5-5.5,0-7c1.7-1.7,5.2-1.2,8.3-1.2
	c3.1,0,6.3,0,9.4,0c2.2,0,7.3,0.8,8.2-0.9c2-3.4-3.9-2.8-6-2.8C195,18.5,184,18,180.7,18.7 M112.9,19.3c-4.2-3-3.3,4.2-3.3,5.5
	c0,9.6,0.1,10.5,9.8,10.5c2.6,0,18.9,0.5,19.9-0.6c1.1-1.2,0.1-2.6-1.1-2.9c-1-0.2-13.4-0.1-15-0.1c-2.5,0-7.8,0.8-9.4-0.6
	C112.1,29,113.9,22.3,112.9,19.3 M174.5,19.5c-2.5-2.3-3.5,0.3-7.2,5.1c-8.1,10.7-4.7,10.6-16.6-4.9c-1.7-2.2-4.2-1-3.3,1.4
	c0.2,0.6,7.8,10.5,9.3,12.5c5,6.6,9.8-1.7,12.3-5.1C170.9,25.9,174.8,21.7,174.5,19.5 M203.6,25.7c-2-1.1-14.2-0.5-17.3-0.5
	c-0.8,0-3.3-0.1-3.9,0.1c-1.1,0.3-1.6,2-0.7,2.9c0.9,0.9,14.4,0.5,16.6,0.5C201.3,28.6,204.6,29.5,203.6,25.7 M144.8,19.5
	c-1-1.6-3-1-3.2,1.2c-0.2,1.8,0,4.4,0,6.3c0,3.6-1.2,10.2,3.4,7.5C145.5,32.5,145.6,20.5,144.8,19.5 M70.2,60.6
	c3-0.5,13.3-0.3,16,0.6c2,0.6,3.9,1.7,5.2,2.9c1.3,1.3,2.6,3.8,5,2.1c0.7-4.3-7-7.9-10.4-8.7c-3.7-0.9-9.6-0.7-13.8-0.6
	c-2.1,0-2.9-0.3-1.9-2.6c0.4-0.5,20.7-0.8,21.9,0.1c1.6,1,0.1,1.7,1.6,2.5c3.3,1.8,4.1-4.9-1.2-6.3c-2.4-0.7-13.8-0.3-17.3-0.3
	c-8,0-8.9,0.7-8.9,8.8c0,1.9-0.9,7.1,1.2,7.8C71,67.9,70.1,62.6,70.2,60.6 M106.9,67c3.9,0,7.7,0,11.6,0c1.9,0,10,0.7,10.8-1
	c1.8-3.6-6.3-2.6-8.6-2.6c-3.9,0-7.7,0-11.6,0c-3.9,0-6.9-0.1-6.9-4.7c0-4.8,2.6-4.7,6.9-4.7l17.3,0c4.3,0,4.1-3.7,0.3-3.7h-18.2
	c-3,0-5.3,0.1-7.1,1.7c-1.3,1.2-2.5,3.4-2.8,5.9c-0.3,2.4,0.8,5.2,1.9,6.6C102.1,66.4,103.6,67,106.9,67 M135,59.3
	c0-3.2,1-5.4,4.2-5.4c16.5,0,18.5-1.8,18.4,7.2c0,1.5-0.3,4.6,0.7,5.4c1.7,1.2,2.9-0.3,2.9-2.2c0-5,0.8-13.5-7-14.1
	c-4.1-0.3-11.2-0.2-15.4,0c-4.4,0.2-7.2,3.4-7.5,7.8c-0.1,1.1-0.1,6.9,0.1,7.7c0.6,1.8,3.5,1.9,3.5-1.7L135,59.3z M176.4,54
	c-0.4,3.2-1.4,5.7-0.9,11c0.2,2.2,2.3,2.5,3.2,1.2c1.9-2.8-2.9-12.2,5.1-12.2c2.3,0,9.5,1.1,8.3-2.5c-0.8-1.7-3-1.2-5.1-1.2
	c-3.6,0-22.8-0.5-24,0.4c-1.6,1.2-0.4,3,1.1,3.2C166.7,54.3,173.4,54,176.4,54 M222.2,51.3c-1.4-1.4-3.3-1.5-3.5,1.1
	c-0.1,2,0,4.5,0,6.6c0,4.7,0.6,7.8,5.5,8c6.4,0.2,13.8-0.1,20.4,0c2.6,0,4.3,0.4,4-2.6c-1.6-1.4-3.2-0.9-5.9-0.9H229
	c-2.5,0-5.3,0.4-6.2-0.7C221.5,61,222.6,54,222.2,51.3 M203,53.2c2,0.5,5.3,5.9,6.8,7.8c0.9,1.2,3.8,5.6,4.9,5.8
	c1.2,0.3,2.1-0.4,2.2-1.6c0-1.2-2.1-3.6-2.8-4.5l-6.2-8.2c-5.3-6.7-8.5-1.3-12.3,3.7c-0.6,0.8-5.9,7.7-6,8.4c-0.4,2.4,2,3,3.7,0.8
	C195.1,63,201.3,54.1,203,53.2 M105.9,60c1.4,0.8,19.7,0.6,21.5,0c0.4-0.8,0.5-1.4,0.3-2.4c-1.6-1.1-2.1-0.8-4.5-0.8h-15.4
	C105.2,56.9,104,58.6,105.9,60 M200.9,63.4c0.5,2.6,4.9,2.2,4.6-0.9C205.1,59.5,200.2,60.2,200.9,63.4"/>
</svg>
