<!-- Generator: Adobe Illustrator 21.1.0, SVG Export Plug-In  -->
<svg version="1.1"
	 xmlns="http://www.w3.org/2000/svg" xmlns:xlink="http://www.w3.org/1999/xlink" xmlns:a="http://ns.adobe.com/AdobeSVGViewerExtensions/3.0/"
	 x="0px" y="0px" width="75.3px" height="25px" viewBox="0 0 75.3 25" style="enable-background:new 0 0 75.3 25;"
	 xml:space="preserve">
<style type="text/css">
	.st0{fill-rule:evenodd;clip-rule:evenodd;fill:#868789;}
	.st1{fill:#868789;}
	.st2{font-family:'Roboto-Light';}
	.st3{font-size:2.5881px;}
</style>
<defs>
</defs>
<g>
	<g>
		<g>
			<path class="st0" d="M6.3,0.5C6.4,0.3,6.4,0.2,6.5,0c0.1,0,0.3,0.1,0.4,0.1c0.1,0.2,0.3,0.3,0.4,0.5c0,0.1,0,0.3-0.1,0.4
				c0,0.1,0,0.2,0.1,0.3c-0.1,0-0.2-0.1-0.2-0.1c0.4,0.7,0.3,1.6,0.2,2.4c0,0.5-0.3,0.8-0.6,1.2C6.6,4.6,6.5,4.3,6.5,4.1
				c0,0-0.1,0-0.1,0c0.1-0.4,0-0.8,0-1.2C6.2,2.1,6.4,1.3,6.3,0.5z"/>
			<path class="st0" d="M8.1,0.2c0.1,0,0.2-0.1,0.3-0.1c0.2,0,0.3,0.1,0.5,0.1C8.8,0.2,8.7,0.3,8.6,0.4c0.1-0.1,0.2-0.2,0.3-0.2
				c0.7,0.6,1.2,1.4,1.7,2.1c0.2,0.2,0.4,0.5,0.7,0.7c0-0.3-0.2-0.6-0.1-1c0,0-0.1-0.1-0.1-0.2c0.1-0.1,0.1-0.2,0.2-0.3
				c0,0-0.1-0.1-0.1-0.2c0.2-0.3,0.4-0.7,0.4-1.1c0.2-0.1,0.7-0.1,0.7,0.2c0.1,0.7,0,1.5,0.1,2.2c0.1,0.7,0,1.4-0.4,1.9
				c-0.1-0.1-0.3-0.1-0.4-0.2c-0.3-0.4-0.7-0.7-1-1.1c0,0.1,0,0.3,0,0.3c-0.4-0.4-0.7-0.9-1.2-1.3C9.3,2.3,9.2,2.4,9.2,2.6
				C9.1,3.2,9.3,3.9,8.9,4.5C8.8,4.6,8.7,4.6,8.6,4.7c-0.1,0-0.3-0.1-0.4-0.1C8.1,4.4,8,4.2,8,4c0-0.7,0-1.4,0-2.1
				c0-0.4,0-0.8,0.1-1.2c0.1,0,0.2,0.1,0.3,0.1c0,0,0-0.1,0-0.2C8.1,0.5,8,0.4,8.1,0.2z"/>
			<path class="st0" d="M13,0.4C13,0.3,13,0.1,13.1,0c0.1,0,0.3,0,0.4,0.1c0.1,0.2,0.3,0.3,0.4,0.5c0,0.2,0,0.4,0,0.7
				c-0.2,0.1-0.1,0.2,0,0.3C14,1.6,14,1.7,14,1.8c0.1,0.7,0,1.3-0.1,2c-0.1,0.3-0.2,0.5-0.4,0.7c-0.1,0-0.2,0.1-0.3,0.1
				C13.2,4.4,13.2,4.2,13,4c0,0,0.1-0.1,0.1-0.1c0-0.6-0.1-1.1-0.1-1.7C13,1.7,13,1.1,13,0.6c0,0-0.1,0-0.1,0
				C12.9,0.5,13,0.4,13,0.4z"/>
			<path class="st0" d="M0.1,1c0.2-0.3,0.1-0.7,0.5-0.9c0.3,0,0.6,0,0.8,0.2c0.4,0.5,0.6,1.1,1,1.6c0,0,0,0.1,0.1,0.1
				C2.7,2.3,2.9,2.7,3.1,3C3.1,2.9,3,2.8,3,2.7c0-0.4,0.4-0.7,0.6-1c0.3-0.5,0.6-1,1.1-1.4c0.4-0.1,0.7,0.2,1,0.4
				c0,0.4-0.1,0.9,0,1.3c0.1,0.9,0.1,1.9-0.4,2.7c-0.2,0-0.4,0-0.6,0C4.6,4.4,4.5,4.2,4.5,3.9c0-0.6,0-1.2-0.1-1.8
				C4.2,2.6,3.8,3,3.7,3.5C3.6,3.7,3.4,3.9,3.2,4.2c0-0.1,0-0.2-0.1-0.3c0,0.1,0,0.2,0,0.3c-0.1,0-0.2,0-0.3,0
				C2.5,3.7,2.2,3,1.6,2.6C1.5,2.5,1.3,2.3,1.2,2.1c-0.1,0.5-0.1,1.1,0,1.6C1.1,3.8,1,3.9,1,4C0.9,4.2,0.8,4.4,0.8,4.6
				C0.7,4.6,0.6,4.7,0.5,4.7C0.4,4.6,0.1,4.6,0.1,4.4C0,3.9,0.1,3.5,0,3C0,2.3,0,1.6,0.1,1 M2.8,3.4c0,0.1,0,0.3,0,0.4
				c0.1,0,0.2,0,0.3,0C3,3.6,2.9,3.5,2.8,3.4z"/>
			<path class="st0" d="M49.4,0.2c0.2,0.3,0.6,0.4,0.9,0.6c0.8,0.4,1.3,1.1,1.9,1.7c0.4,0.4,0.7,0.9,1.2,1.1c0.5,0.3,0.7,0.8,1.2,1
				c-0.1,0.1-0.3,0.1-0.4,0.2c0.1,0,0.2,0.1,0.2,0.2c-0.1,0.1-0.3,0.1-0.4,0.1c0.1,0.1,0.2,0.2,0.4,0.2c0,0.1,0,0.2,0,0.3
				c-0.3,0.1-0.5,0.1-0.8,0.2c-0.3-0.2-0.5-0.4-0.8-0.6c-0.3-0.1-0.4-0.4-0.6-0.6c-0.2-0.2-0.4-0.2-0.6-0.4C51.2,4,51,3.7,50.7,3.5
				c-0.4-0.2-0.7-0.6-0.9-0.9c-0.2-0.1-0.4-0.2-0.5-0.3c0-0.1-0.1-0.2-0.1-0.3c0.1-0.2,0.1-0.4,0.1-0.6c-0.1,0-0.2,0-0.3,0
				c0.1,0,0.2-0.1,0.3-0.1c0-0.2,0.1-0.3,0.1-0.5c0,0.1,0.1,0.2,0.1,0.3C49.6,1,49.8,0.9,50,0.8c-0.1-0.1-0.2-0.2-0.2-0.3
				c-0.1,0-0.2,0.1-0.2,0.1C49.5,0.5,49.4,0.3,49.4,0.2 M49.8,1c0,0.1,0,0.2,0,0.2c-0.1,0-0.2,0-0.3,0c0.1,0.1,0.3,0.1,0.4,0.2
				c-0.1,0.1-0.2,0.2-0.4,0.3l-0.1-0.1c0,0.1,0,0.2,0.1,0.3c0.3-0.1,0.4-0.4,0.5-0.7c0.1,0,0.2-0.1,0.2-0.1C50.1,1,49.9,1,49.8,1
				 M49.9,1.7c0,0.1,0,0.2,0,0.3c-0.1,0-0.2,0-0.4,0c0.2,0.1,0.4,0.2,0.6,0.2C50,2,50,1.9,49.9,1.7 M49.3,1.9"/>
			<path class="st0" d="M62.1,0.1c0.3,0,0.5,0.3,0.6,0.5c0,0.4-0.2,0.7-0.2,1c-0.1,0.2-0.3,0.4-0.3,0.7c0,0.5-0.4,0.9-0.4,1.3
				c0,0.4-0.3,0.7-0.4,1.2c0,0.2-0.1,0.4-0.3,0.6c-0.2,0-0.4,0-0.5,0.1c0,0.1,0.1,0.2,0.1,0.3c-0.1-0.1-0.2-0.1-0.2-0.1
				c-0.1,0-0.3,0-0.4,0c0,0,0.1-0.1,0.2-0.2C60.1,5.3,60,5.2,59.9,5c-0.1,0.2-0.1,0.4,0,0.6c-0.1-0.1-0.1-0.1-0.2-0.2
				c0-1,0.5-1.9,0.9-2.8c0.2-0.4,0.4-0.7,0.4-1.1C61,1,61.3,0.6,61.4,0.2c0.1,0.1,0.2,0.1,0.3,0.2c0,0,0.1-0.1,0.1-0.2
				c0.1,0.1,0.2,0.2,0.3,0.3C62.1,0.4,62.1,0.2,62.1,0.1 M60.9,4.6c-0.1,0-0.1,0.3,0,0.3C61,4.9,61,4.6,60.9,4.6 M60,4.8
				c0,0.1,0.1,0.2,0.1,0.3c0.1,0,0.2,0.1,0.2,0.1c0-0.1,0-0.2,0-0.2C60.3,4.9,60.1,4.9,60,4.8 M60.5,4.9c-0.1,0.2,0.2,0.2,0.3,0.2
				C60.8,5,60.6,4.9,60.5,4.9z"/>
			<path class="st0" d="M55.8,0.4c0,0.1,0.1,0.2,0.1,0.2c0.1,0,0.3,0.1,0.4,0.1c0-0.4,0.4-0.2,0.7-0.2c0.1,0.7,0.4,1.4,0.4,2.2
				c0.2,0.6,0.3,1.3,0.3,1.9c-0.1,0.2-0.1,0.4-0.1,0.6c-0.1,0-0.2,0.1-0.2,0.1c-0.3-0.1-0.7,0.2-1-0.2c0-0.1,0.1-0.2,0.1-0.3
				c-0.1,0-0.2-0.1-0.3-0.1c0-0.3-0.1-0.7,0-1C56.1,3.4,56.1,3,56,2.6c0.1-0.1,0.2-0.1,0.3-0.2c-0.1,0-0.2,0.1-0.2,0.1
				c0-0.1-0.1-0.2-0.1-0.3c0.1-0.2,0-0.5-0.1-0.7c-0.1-0.3,0-0.5-0.1-0.8C55.8,0.6,55.8,0.5,55.8,0.4z"/>
			<path class="st0" d="M49.3,1.9"/>
			<path class="st0" d="M65,3.4c0.4-0.4,0.8-0.9,1.4-0.9c-0.1,0.1-0.3,0.2-0.4,0.3c0.1,0,0.2,0,0.2-0.1c0,0.1,0.1,0.3,0.1,0.4
				c0,0-0.1,0-0.2,0.1c0.1,0,0.2,0.1,0.2,0.1c0,0.1,0,0.2,0.1,0.2c0-0.1,0-0.2,0-0.3c0.2,0.1,0.4,0.1,0.4,0.3c0,0.2-0.2,0.2-0.3,0.3
				c-0.1,0.2-0.3,0.3-0.4,0.4c-0.2,0.3-0.4,0.5-0.7,0.7c-0.6,0.7-1.2,1.3-2.1,1.7c-0.1,0-0.2-0.1-0.2-0.1c-0.1-0.2-0.3-0.4-0.5-0.6
				c0.1-0.2,0.5-0.4,0.4-0.7c0.1-0.1,0.3-0.1,0.4-0.2c0.1-0.1,0.1-0.1,0.2-0.2c0.1,0,0.2,0,0.3,0c0-0.1,0.1-0.2,0.1-0.3
				C64,4.4,64,4.3,64.1,4.2c0.1-0.1,0.3-0.2,0.4-0.4C64.7,3.7,64.8,3.5,65,3.4 M64.9,5.3"/>
			<path class="st0" d="M64.9,5.3"/>
			<path class="st0" d="M4.3,5.3c0.5-0.1,0.9,0.1,1.3,0.4C5.8,5.8,6,5.9,6.1,6.1C6,6.1,5.8,6,5.6,6c0.1,0,0.2,0.1,0.3,0.1
				c0,0.2,0.2,0.2,0.3,0.2c0.1,0.1,0.2,0.1,0.2,0.2c0-0.1,0-0.2,0-0.3C6.7,6.4,6.8,6.5,7,6.7C7.1,6.8,7.1,7,7.2,7.1
				c0.1,0.3,0,0.7,0.1,1.1c0.1,0.1,0.1,0.3,0.2,0.4c0,0.6-0.2,1.2-0.3,1.8c-0.1,0-0.2,0.1-0.3,0.1c-0.1,0.6-0.6,1-0.9,1.5
				c0.2,0.3,0.4,0.5,0.5,0.8c0.1,0.1,0.2,0.3,0.3,0.4l-0.2,0c0,0.1,0,0.3,0,0.4c0.1,0,0.2,0.1,0.2,0.1c-0.1-0.1-0.2-0.2-0.2-0.4
				c0.1,0.1,0.3,0.3,0.4,0.4c0.2,0.4,0.4,0.7,0.6,1.1c-0.2-0.1-0.4-0.1-0.7,0c0.1,0,0.3,0,0.4-0.1c0.1,0.1,0.2,0.2,0.3,0.3l-0.2,0.1
				c0-0.1,0-0.2,0-0.2c0,0-0.1,0.1-0.1,0.2c0.1,0,0.2,0.1,0.3,0.2c-0.2,0.1-0.3,0.1-0.5,0.2c0.3,0,0.6-0.1,0.8,0
				c-0.1,0-0.2-0.1-0.3-0.2c0,0,0.1-0.1,0.1-0.1C7.8,15,7.8,14.7,8,14.8c0.1,0.2,0.2,0.5,0.4,0.7c-0.1,0.1-0.1,0.2-0.2,0.2
				c0-0.1-0.1-0.2-0.1-0.3c0,0.1-0.1,0.2-0.1,0.3c0,0,0,0,0,0c-0.1,0-0.2-0.1-0.2-0.2c0.1,0.1,0.2,0.3,0.2,0.4l-0.2,0
				c-0.1-0.1-0.2-0.1-0.4-0.2c0-0.1,0-0.2,0-0.2c-0.1,0.1-0.1,0.2-0.1,0.3c0.1,0,0.2,0.1,0.3,0.2c-0.1,0-0.2,0.1-0.3,0.1
				c0.1,0,0.2,0,0.3,0c0.2,0.1,0.4,0.1,0.6,0.2L8,16.4c0.1,0.2,0.2,0.3,0.2,0.5c-0.1,0-0.2,0.1-0.2,0.2c0-0.1,0-0.3,0-0.3
				c-0.1,0.1-0.2,0.2-0.2,0.3c0-0.2-0.1-0.4-0.3-0.3c0,0.2-0.2,0.2-0.3,0.1c0.1-0.1,0.1-0.2,0.2-0.2c0,0-0.1-0.1-0.2-0.1
				C7,16.4,7.1,16.6,7,16.7c-0.1,0-0.3-0.1-0.5-0.1c0,0.2,0,0.4,0,0.6c-0.1,0-0.2-0.1-0.3-0.1c0-0.1,0-0.2,0-0.3
				c-0.2-0.3-0.4-0.6-0.5-0.9c-0.5-1-1.3-1.8-1.7-2.8c0.2-0.2,0.4-0.3,0.6-0.5c0.1,0.1,0.2,0.2,0.2,0.3c-0.1-0.1-0.2-0.3,0-0.4
				c-0.1,0-0.3-0.1-0.4-0.1C4.6,12.1,4.8,12,5,11.9c-0.2,0.1-0.5,0.2-0.6,0.3c0.1-0.1,0.3-0.4,0.3-0.5c0,0-0.1,0.1-0.1,0.1
				c-0.1,0-0.3,0-0.4,0c0,0-0.1-0.1-0.1-0.1c0.1,0.1,0.1,0.5,0.2,0.1c0.1,0,0.1,0.1,0.2,0.1c0,0.1,0,0.3,0,0.4
				c-0.1,0.1-0.1,0.1-0.2,0.2l0-0.2c0,0.1-0.1,0.2-0.1,0.2c-0.1-0.1-0.3-0.2-0.4-0.3c-0.1,0-0.2,0.1-0.4,0.1c0,0,0,0.1,0,0.2
				c0.1,0,0.2,0,0.3,0c0,0,0-0.1,0-0.1c0.1,0,0.3,0,0.4,0c0,0,0,0.1,0,0.2c0.1,0,0.2-0.1,0.2-0.1c0,0.1,0.1,0.2,0.1,0.3
				c-0.1,0-0.2,0.1-0.3,0.1c-0.4-0.1-0.8,0-1.2,0.1c0,0.6,0.1,1.1-0.1,1.7c-0.1,0.3,0,0.7-0.1,1c0,0.2,0.1,0.4,0.2,0.6
				c0,0.1,0,0.3,0,0.4c-0.2,0.3-0.4,0.5-0.5,0.8c0-0.2,0-0.3,0-0.5l0-0.1c0.1-0.1,0.2-0.2,0.3-0.2c-0.1,0.1-0.3,0.1-0.4,0.1
				c0,0-0.1,0.1-0.1,0.1C2,17,2,17,2,17l0,0c0,0,0,0.1,0,0.1l0,0.1c0,0,0.1,0,0.1,0c-0.1,0.2-0.2,0.5-0.5,0.6c0,0.1,0,0.3-0.1,0.4
				c-0.3,0.1-0.6,0.1-0.8,0.1c-0.1-0.1-0.2-0.2-0.3-0.4c-0.1-0.5-0.2-1-0.2-1.5c-0.2-0.6-0.1-1.2-0.1-1.8c0.1-0.7-0.1-1.3,0-2
				c0,0,0-0.1,0-0.1c0.1-0.5,0.1-1,0-1.5C0,10.1,0,9.3,0.1,8.5c0-0.5-0.1-1,0.1-1.4c0-0.5,0-1,0.3-1.5c0.2,0,0.4,0,0.6,0
				c0,0,0.1-0.1,0.1-0.1C1.6,5.6,2,5.5,2.4,5.5c0.6,0,1.2,0,1.8,0C4.2,5.5,4.3,5.4,4.3,5.3 M3.2,7.3c0.1,0,0.2,0.1,0.2,0.2
				c-0.3,0-0.5,0.1-0.8,0.2c0.3,0,0.1,0.5,0.1,0.7c0,0,0.1,0,0.1,0c0,0.2-0.1,0.3-0.1,0.4l0,0c0,0,0.1,0,0.2,0c0.1,0.6,0,1.2,0,1.8
				c0.3,0,0.6,0,0.9-0.1c0,0.1,0.1,0.2,0.1,0.3c0.1-0.1,0.1-0.3,0-0.4c0.5-0.1,0.9-0.4,1.1-0.8C5,9,4.9,8.4,4.6,7.9
				C4.3,7.6,3.9,7.7,3.5,7.5c0,0-0.1,0-0.1,0C3.4,7.4,3.3,7.3,3.2,7.3 M3.9,7.5C3.9,7.5,3.9,7.5,3.9,7.5 M6.5,10.6
				C6.4,10.8,6.7,11,6.8,11C6.8,10.8,6.7,10.6,6.5,10.6 M6.3,11C6.2,11.3,6.6,11,6.3,11 M2.2,11.5c-0.1,0.2,0.3,0.3,0.4,0.1
				C2.5,11.4,2.3,11.4,2.2,11.5 M6.5,13.7c0.1,0,0.2,0,0.2-0.1C6.6,13.5,6.5,13.6,6.5,13.7 M6.1,14.3C6.1,14.6,6.3,14.1,6.1,14.3
				 M7.2,14.3c-0.1,0.2,0.1,0.3,0.3,0.2C7.6,14.4,7.3,14.2,7.2,14.3 M6.6,14.7"/>
			<path class="st0" d="M70.6,5.5c0-0.3,0.4-0.2,0.6-0.2c0.3,0.1,0.6,0.3,0.9,0.4c0.2,0.1,0.3,0.2,0.5,0.3c-0.1,0-0.4,0-0.5-0.1
				c0.1,0,0.2,0.1,0.3,0.1c0.1,0.1,0.2,0.2,0.2,0.3c0-0.1,0-0.3,0-0.4l0,0c0,0.2,0.1,0.4,0.3,0.5c-0.1-0.1-0.1-0.2-0.2-0.4
				c0.2,0.2,0.5,0.4,0.7,0.7c0.1,0.2,0.2,0.5,0.2,0.8c0,0.1-0.1,0.2-0.1,0.2c0.1,0.2,0.2,0.5,0.4,0.7c0,0.2,0,0.5,0,0.7
				c0,0-0.1,0.1-0.1,0.1c0,0.3-0.1,0.6-0.1,1c-0.1,0.1-0.2,0.1-0.3,0.2c-0.1-0.1-0.3-0.2-0.4-0.4c0.1,0.2,0.3,0.3,0.4,0.5
				c0,0.1-0.1,0.3-0.1,0.4c-0.1-0.1-0.2-0.2-0.3-0.4c-0.1,0-0.1,0-0.2,0.1c0.1,0.1,0.3,0.3,0.4,0.4c-0.1,0.4-0.5,0.6-0.7,1
				c0.3,0.4,0.5,0.7,0.7,1.1l-0.1,0.1l0,0c0,0.1,0,0.2,0,0.2c-0.1,0.1-0.2,0.2-0.3,0.3c0.1-0.1,0.2-0.2,0.3-0.3
				c0.1,0.1,0.2,0.1,0.2,0.2c0-0.1-0.3-0.4,0-0.3c0.2,0.2,0.3,0.6,0.5,0.8c0.1,0.2,0.2,0.4,0.3,0.6c-0.1,0-0.2-0.1-0.3-0.2
				c-0.1,0.1-0.2,0.1-0.3,0.2c0.2,0,0.5-0.1,0.5,0.2c0,0-0.1,0-0.2,0c0,0-0.1,0.1-0.1,0.1c0.1,0,0.2,0.1,0.3,0.2
				c-0.2,0-0.4,0.1-0.5,0.1c0.3,0,0.5,0,0.8,0c-0.1-0.1-0.2-0.2-0.2-0.2c0.1-0.1,0.2-0.1,0.3-0.2c-0.1,0-0.2,0-0.3,0
				c0-0.1,0-0.2,0.1-0.3c0.2,0.1,0.3,0.5,0.4,0.7c-0.2,0.2-0.1,0.5-0.1,0.7c0.1-0.1,0.2-0.3,0.2-0.5c0.1,0.1,0.2,0.3,0.3,0.4
				C75.2,16,75,16,75,15.9c-0.1,0.1-0.1,0.4-0.3,0.3c0,0-0.1-0.1-0.2-0.1c0,0.2-0.1,0.3-0.2,0.4c0.1,0,0.1,0,0.2,0
				c0.1,0.2,0.1,0.3,0.2,0.5c-0.1-0.1-0.3-0.1-0.4-0.2c0,0.1,0,0.2,0,0.3c0-0.1-0.1-0.2-0.1-0.4c-0.1,0-0.2,0-0.2,0
				c-0.1,0.2-0.3,0.2-0.4,0c-0.2,0-0.3-0.1-0.5-0.1c0,0.1,0,0.2,0,0.3l-0.2,0c0,0.1,0.1,0.2,0.1,0.3c-0.2-0.1-0.4-0.2-0.3-0.5
				c-0.1-0.1-0.2-0.1-0.2-0.3c-0.2-0.3-0.4-0.7-0.5-1c-0.4-0.6-0.8-1.2-1.2-1.8c0-0.1-0.1-0.3-0.1-0.4c-0.1-0.1-0.1-0.2-0.2-0.3
				c0.1-0.1,0.3-0.2,0.4-0.2c-0.1,0-0.2,0.1-0.4,0.1c-0.4,0-0.9,0-1.3,0.1c0,0.6,0.1,1.2-0.1,1.7c-0.1,0.3,0,0.7-0.1,1
				c0,0.2,0.1,0.4,0.2,0.6c0.1,0.3-0.1,0.6-0.2,0.8c0,0-0.1,0.1-0.2,0.1c-0.1,0.4-0.2,0.7-0.4,1c0-0.1-0.1-0.2-0.1-0.4
				c0.1-0.2,0.3-0.2,0.4-0.3c-0.1-0.2-0.1-0.4-0.2-0.6c0,0,0.1,0,0.1,0.1c0.1-0.1,0.2-0.2,0.3-0.2c0,0,0,0-0.1,0
				c-0.1,0.1-0.2,0.1-0.3,0.2c0-0.1-0.1-0.2-0.1-0.3c0,0.2,0,0.5,0.1,0.7c-0.1,0.2-0.2,0.4-0.5,0.5c0,0,0.1,0.1,0.1,0.2
				C68,18,68,18.1,67.9,18.2c-0.3,0-0.5,0-0.8,0.1c-0.1-0.1-0.2-0.2-0.3-0.4c-0.1-0.5-0.2-1-0.2-1.5c-0.2-0.8-0.1-1.7-0.1-2.6
				c-0.1-0.7-0.1-1.4,0-2c0.1-0.4-0.1-0.9-0.1-1.3c0-0.6-0.1-1.3,0.1-1.9c0-0.4,0-0.8,0-1.3c0.2-0.2,0.1-0.5,0.1-0.7
				c0-0.3,0.1-0.7,0.2-1c0.6-0.1,1.2,0,1.8,0C69.3,5.5,69.9,5.5,70.6,5.5 M69.6,7.3c0.1,0.1,0.1,0.1,0.2,0.2c-0.2,0-0.4,0-0.6,0.1
				c0,0.2,0,0.4,0,0.7c-0.1,0-0.2,0-0.2,0c0.1,0,0.2,0,0.2,0c0,0.3,0,0.7,0.1,1c-0.1,0-0.2-0.1-0.3-0.1c0.1,0.1,0.2,0.2,0.3,0.2
				c0,0.4,0,0.8,0,1.2c0.2,0,0.5,0,0.7,0c0.1,0.1,0.3,0.2,0.4,0c-0.1-0.1-0.1-0.1-0.2-0.2c0.6-0.1,1.3-0.6,1.2-1.3
				c0-0.5-0.1-1-0.4-1.4c-0.3-0.2-0.7-0.3-1-0.3c0-0.1,0-0.3,0-0.4c0,0-0.1,0.1-0.1,0.2C69.8,7.4,69.7,7.3,69.6,7.3 M68.1,10.5
				C68.2,10.6,68.2,10.6,68.1,10.5 M72.7,11C72.5,11.3,73,11.1,72.7,11 M73.2,13.8c-0.1,0.1,0,0.3,0.1,0.2
				C73.4,13.9,73.3,13.7,73.2,13.8 M73.6,14.2c0,0.1,0,0.2,0.1,0.3c0.1,0,0.3,0,0.4,0C73.9,14.4,73.7,14.3,73.6,14.2 M74.1,15.6
				c0.1,0.1,0.1,0.1,0.2,0.2c-0.2,0.1-0.4-0.1-0.6-0.1c0.1,0.1,0.3,0.2,0.4,0.2c0,0,0,0.1,0,0.2c0,0,0.1-0.1,0.1-0.2
				c0.1,0,0.1,0.1,0.2,0.1c0-0.2,0.1-0.3,0.2-0.4c0-0.1,0-0.3,0-0.3c0,0.1-0.1,0.3-0.2,0.4c0-0.1-0.1-0.2-0.1-0.3
				C74.2,15.5,74.2,15.6,74.1,15.6 M73.8,15.6C73.8,15.9,74,15.4,73.8,15.6 M73.5,15.8C73.5,15.9,73.5,15.9,73.5,15.8 M74,16.3
				c-0.1,0.2,0.2,0.4,0.3,0.2C74.3,16.3,74.1,16.2,74,16.3z"/>
			<path class="st0" d="M13.6,5.5c0.6,0.1,1.2-0.2,1.7,0c0.6-0.1,1.3,0.1,1.9,0.2c0.4,0,0.4,0.4,0.5,0.7c0.1,0,0.2-0.1,0.3-0.1
				c0.1,0.1,0.1,0.2,0.2,0.4c-0.2,0.2-0.4,0.1-0.6,0c0.1,0.2,0.1,0.4,0.2,0.5L17.8,7c0,0-0.1,0-0.1,0l-0.1,0c0,0.1-0.1,0.2-0.1,0.2
				c0-0.1,0-0.3,0-0.4c-0.1,0.1-0.1,0.3-0.2,0.4c-0.1,0-0.2-0.1-0.3-0.1c0,0.1,0,0.2,0,0.3c0.2,0,0.5,0,0.3,0.3
				c-0.1,0-0.2,0-0.2,0.1c0.1,0.1,0.2,0.2,0.3,0.1c0,0.1,0.1,0.2,0.1,0.2l0.2-0.1c-0.2,0.3-0.6,0.2-0.9,0.3c0-0.1,0-0.1,0-0.2
				c-0.2,0.5-0.8,0.5-1.2,0.5c-0.7,0-1.3-0.2-2,0c-0.3,0.1-0.7,0-0.7,0.4c0,0.5-0.1,1.1,0.1,1.6c1-0.1,2.1,0,3.1,0
				c0.4-0.1,0.9,0.1,1.3,0.2c0.6-0.2,1.1,0.6,0.9,1.1c-0.2,0.4-0.5,0.7-0.8,1.1c-0.6,0.1-1.3,0.1-1.9,0.2c-0.8-0.1-1.7,0.2-2.5,0.3
				c0,0.6,0,1.1,0.1,1.7c-0.1,0-0.2,0-0.2,0c0.1,0.1,0.3,0.2,0.4,0.3c0.7-0.2,1.4-0.2,2.2-0.2c0.3,0,0.6,0.2,0.9,0.1
				c0.4-0.1,0.8,0,1.1,0.1c0.4,0.2,0.8,0.5,0.8,1c0.1,0.3,0.2,0.5,0.3,0.8c-0.2,0.1-0.4,0.3-0.7,0.4c0,0.1-0.1,0.2-0.1,0.2
				c-0.6,0.2-1.2,0.3-1.8,0.3c0-0.1,0.1-0.2,0.1-0.3c-0.1,0.1-0.1,0.2-0.2,0.3c-0.7,0.1-1.4,0.1-2,0.1c0,0,0-0.1,0-0.1
				c0.1,0,0.3-0.1,0.4-0.1c-0.1-0.1-0.1-0.3-0.2-0.4c-0.1-0.1-0.2-0.1-0.3-0.2c0,0.1-0.1,0.3-0.1,0.4c0.1,0,0.2,0,0.3,0
				c-0.1,0-0.2,0.1-0.2,0.2l0.2,0.1C14,18,14,18,13.9,18.1c0-0.1-0.1-0.2-0.2-0.3c-0.2-0.1-0.2-0.4,0-0.5l-0.2-0.1
				c0,0,0.1,0.1,0.1,0.2c-0.1,0.1-0.2,0.2-0.3,0.2c0.1,0.1,0.3,0.2,0.4,0.3c-0.1,0-0.3,0-0.4,0l0-0.2c0,0,0,0.1,0,0.2
				c-0.6,0.1-1.1,0.1-1.7,0.3c-0.3,0.1-0.8,0.1-1-0.2c-0.2-0.2-0.4-0.4-0.4-0.7c0.2,0,0.3,0,0.5-0.1c0,0.1,0,0.3-0.1,0.4
				c0.1-0.1,0.2-0.1,0.3-0.2c0,0-0.1,0-0.1,0c0,0,0.1-0.1,0.1-0.1c0-0.1-0.1-0.2-0.1-0.3c0-0.2,0.3-0.1,0.4-0.2
				c-0.2,0-0.3,0.1-0.5,0.1c0,0,0,0.1,0,0.1c0,0-0.1,0.1-0.2,0.2c-0.1,0-0.1,0-0.2-0.1c0.2-0.7-0.1-1.5-0.1-2.2
				c-0.2-0.7-0.1-1.5-0.1-2.2c0-1.1-0.2-2.1,0-3.2c0-0.8,0-1.5,0-2.3c0-0.2,0.1-0.5,0.1-0.7c0.1,0,0.2,0.1,0.2,0.2
				c0-0.1-0.1-0.2-0.2-0.2c0-0.1,0-0.3,0-0.4c0.3-0.3,0.8-0.3,1.2-0.4c0.3,0,0.6-0.2,0.9-0.2C12.8,5.6,13.2,5.5,13.6,5.5 M17.2,6.2
				c0,0.1,0.1,0.2,0.1,0.3c-0.1,0-0.2,0.1-0.3,0.1c0,0.1,0,0.3,0,0.4c0.1-0.2,0.2-0.4,0.4-0.6C17.4,6.3,17.3,6.3,17.2,6.2 M17,7.8
				C17.1,7.9,17.1,7.9,17,7.8 M10.8,14.6C10.8,14.6,10.8,14.6,10.8,14.6 M10.6,15C10.6,15.1,10.6,15.1,10.6,15 M16.4,15.4
				C16.5,15.5,16.5,15.5,16.4,15.4 M15.8,15.6c0.1,0.1,0.3,0.2,0.4,0.2c-0.1,0-0.3,0.1-0.4,0.1c0.2,0,0.5-0.1,0.5-0.4
				C16.2,15.6,16,15.6,15.8,15.6 M15.3,15.9C15.3,16,15.3,16,15.3,15.9 M14.6,17.5"/>
			<path class="st0" d="M47.3,5.5c0.2,0,0.5,0,0.7,0c-0.1,0.3-0.4,0.2-0.5,0.1c0,0.1,0,0.2,0,0.3c0,0,0.1,0,0.1,0l-0.1-0.2
				C47.7,5.7,48,5.8,48.2,6c-0.1-0.2-0.3-0.5,0.1-0.5l-0.1,0.4c0.1-0.1,0.1-0.2,0.2-0.3l0.3,0c-0.1,0.1-0.2,0.3-0.3,0.4
				c0.1-0.1,0.2-0.2,0.4-0.3c0,0.1,0.1,0.2,0.2,0.3l-0.2,0c0.1,0,0.2,0,0.2,0c-0.1,0.1-0.1,0.2-0.2,0.3C48.8,6.2,48.9,6.1,49,6
				c0,0,0.1,0.1,0.2,0.2C49.3,6.1,49.4,6,49.5,6c0,0.1-0.1,0.2-0.1,0.3l0.3-0.2c-0.1,0.1-0.2,0.3-0.2,0.4c0.1,0,0.2,0,0.3,0
				c0,0.1,0.1,0.3,0.1,0.4c0,0.1,0,0.2,0.2,0.3c0,0.1,0,0.3,0.1,0.4c0.1-0.3,0-0.5-0.1-0.7c0-0.1,0-0.2,0-0.2
				c-0.1-0.1-0.2-0.1-0.3-0.2c0.1-0.1,0.2-0.1,0.3-0.2c0,0.1,0,0.3,0,0.3c0.1-0.1,0.1-0.5,0.4-0.4c0-0.1,0-0.2,0-0.2
				c0.1,0,0.2,0,0.3,0c-0.1-0.1-0.3-0.1-0.4-0.2c0,0-0.1,0.1-0.2,0.1c-0.2-0.1-0.4-0.3-0.6-0.2c-0.2-0.1-0.4-0.1-0.6-0.2
				c0.5,0,1.1,0,1.6,0c0.3,0.1,0.5,0.1,0.7,0.3C51.4,6,51.6,6,51.8,6.1c0,0.2,0,0.4,0,0.6c0.2,0.2,0.3,0.4,0.4,0.7
				c0,0.2,0.2,0.5,0,0.7c-0.3,0.5-0.9,0.7-1.4,0.5c-0.1,0-0.2,0.1-0.3,0.1c-0.5,0.2-1.1,0.2-1.6,0.1c0,0.4,0,0.9,0,1.3
				c0,0-0.1,0.1-0.1,0.2c0,0.1,0.1,0.2,0.1,0.3c0,0.7,0,1.4,0.1,2.1c0,0.8-0.1,1.6-0.1,2.4c0.1,0.6,0.3,1.2,0.1,1.7
				c-0.2,0.3-0.4,0.6-0.6,0.9c-0.3,0.2-0.7,0.3-1.1,0.5c-0.2-0.1-0.4-0.2-0.6-0.4c0,0,0.1-0.1,0.2-0.1c0,0-0.1,0-0.2,0
				c-0.1-0.4-0.3-0.7-0.3-1.1c-0.3-0.7-0.1-1.5-0.3-2.3c0-0.3,0-0.5,0-0.8c0-1.2,0.1-2.3-0.1-3.5c0-0.4,0-0.8-0.1-1.2
				c0-0.2-0.2-0.3-0.3-0.3c-0.3,0-0.6,0-1,0c-0.4-0.3-0.8-0.2-1.2-0.2c-0.3,0-0.6,0.1-0.8,0c0-0.1-0.1-0.2-0.1-0.2
				c-0.1,0-0.2-0.1-0.2-0.1c0.1,0,0.2-0.1,0.2-0.1c0-0.2,0-0.4,0-0.5c0,0.1,0.1,0.1,0.1,0.2l0,0c0,0,0.1,0.1,0.1,0.2
				c0.1-0.2,0.2-0.4,0.3-0.6c0,0.2,0.1,0.4,0.2,0.7c0.1-0.2,0.1-0.3,0.2-0.5c0,0,0.1,0.1,0.1,0.1c0.1,0,0.2-0.1,0.3-0.1
				c-0.1-0.1-0.3-0.2-0.4-0.1c0-0.1,0-0.2,0.1-0.4c0,0.1,0.1,0.2,0.2,0.2c0-0.2,0-0.4,0-0.6c-0.1,0-0.2,0.1-0.3,0.1
				c0-0.1,0-0.2,0-0.3l-0.2,0c0-0.1,0-0.2,0-0.3c0.1,0,0.3,0.1,0.5,0.1c0-0.1,0-0.2,0.1-0.3c0,0-0.1,0.1-0.2,0.2
				c0-0.1-0.1-0.2-0.1-0.3c0,0,0,0.1-0.1,0.2c-0.2,0-0.5-0.1-0.6,0.1c0.1,0.1,0.1,0.2,0.2,0.3c0,0-0.1,0.1-0.1,0.1
				c-0.1-0.2-0.1-0.5-0.3-0.3c0.2,0.2,0.1,0.3-0.1,0.5c0-0.1,0-0.2,0-0.2c-0.1,0-0.2,0-0.3,0c0.1,0,0.2,0.1,0.2,0.1
				C42.2,6.7,42.1,6.8,42,7c0,0.2,0,0.3,0,0.5c0,0,0.1,0.1,0.2,0.2c-0.1,0-0.2,0-0.4,0c0-0.1,0-0.3,0-0.4c0.1-0.4,0.1-0.8,0.3-1.1
				c0.2-0.1,0.3-0.2,0.5-0.3c0.1,0,0.2-0.1,0.3-0.1c0.8,0.2,1.7,0.1,2.5-0.1c0.6,0,1.2,0,1.7-0.1c0,0.1,0,0.2,0.1,0.2
				C47.3,5.6,47.3,5.5,47.3,5.5z"/>
			<path class="st0" d="M23.3,5.8c0.3-0.1,0.6-0.2,1-0.3c0.2,0,0.5,0.1,0.7,0.2c0.2,0,0.3,0.1,0.5,0.1c0.4,0.4,0.6,0.9,1,1.3
				c0.1,0.2,0.1,0.4,0.2,0.5c0.2,0.2,0.3,0.5,0.4,0.8c0.1,0.2,0.3,0.4,0.4,0.6c0.1,0.2,0.2,0.3,0.3,0.5c0.2,0.5,0.2,1,0.6,1.4
				c0,0.1,0,0.2,0,0.3c-0.1,0-0.2-0.1-0.2-0.2c0,0.1,0,0.3,0,0.4c0,0,0.1,0,0.2-0.1c0,0.2,0.1,0.3,0.1,0.5c0.1,0.2,0.2,0.4,0.2,0.5
				c0-0.1,0.1-0.2,0.1-0.3c0,0.1,0,0.2,0,0.3c0,0,0.1,0,0.1,0c0.1,0.3,0.2,0.5,0.4,0.7c0,0.1,0,0.2,0,0.3c0,0,0.1,0,0.2,0
				c0,0.2,0,0.3,0.1,0.5c0,0,0.1,0,0.2,0c0.1,0.2,0.2,0.4,0.4,0.6c0.1,0.1,0.1,0.2,0.2,0.3c0.1,0.4,0.2,0.8,0.2,1.2
				c0,0,0.1,0.1,0.1,0.1c0,0.2,0,0.5,0.1,0.7c-0.3,0.2-0.2,0.6-0.3,0.9c0,0.1-0.1,0.1-0.1,0.2c-0.1-0.1-0.2,0-0.3,0c0,0,0-0.1,0-0.2
				c-0.1,0-0.1-0.1-0.2-0.1c-0.1,0.1-0.2,0.1-0.3,0.2c0.1-0.1,0.1-0.2,0.2-0.3c-0.1-0.1-0.2-0.1-0.3-0.2c0,0.1,0,0.2,0,0.3
				c-0.1,0-0.2,0.1-0.3,0.1c0,0-0.1-0.1-0.1-0.2l-0.2,0.1c-0.3-0.1-0.4-0.5-0.6-0.7c-0.1-0.2-0.1-0.3-0.1-0.5
				c-0.1-0.1-0.1-0.2-0.2-0.2c-0.1-0.2-0.1-0.4-0.2-0.6c0,0-0.1-0.1-0.1-0.1c-0.1-0.4-0.5-0.7-0.8-0.9c-0.1-0.2-0.3-0.4-0.5-0.6
				c0-0.1,0-0.2,0-0.2c-0.1,0-0.3-0.1-0.4-0.1c-0.1-0.2-0.1-0.4-0.1-0.6c0-0.1,0.1-0.2,0.2-0.2c0.1,0,0.2,0,0.3,0
				c-0.1,0-0.2-0.1-0.3-0.1c0-0.1,0.1-0.2,0.1-0.2c0,0-0.1-0.1-0.2-0.1c0.2,0,0.4-0.1,0.6-0.1c-0.1-0.1-0.1-0.3-0.2-0.4
				c0,0.1,0.1,0.3,0.1,0.4c-0.2,0-0.3,0-0.5,0c0-0.3,0.1-0.7-0.1-0.9c-0.2-0.4-0.4-0.8-0.7-1.2c-0.2-0.3-0.3-0.7-0.5-1.1
				c-0.2,0.3-0.3,0.5-0.5,0.8c0,0.1,0,0.2,0,0.2c0,0-0.1,0.1-0.2,0.1c-0.2,0.6-0.4,1.1-0.6,1.6c0.2,0,0.3-0.1,0.5-0.1
				c0,0.1,0.1,0.2,0.1,0.3c0.1-0.1,0.3-0.1,0.4,0c0,0.1,0,0.2,0,0.2c0,0-0.1,0-0.2,0c0,0.1,0,0.3,0,0.4c0.1,0,0.2,0,0.2,0
				c0,0.1,0,0.2,0,0.3c-0.1,0-0.1,0.1-0.2,0.1c-0.1-0.2-0.1-0.4-0.2-0.6c0-0.1,0-0.2,0-0.3c-0.1,0-0.2,0.1-0.3,0.1
				c0,0,0.1,0.1,0.1,0.1c0,0.1,0,0.2,0,0.4c-0.1,0.1-0.3,0.3-0.1,0.4c0,0-0.1-0.1-0.2-0.1c0,0-0.1,0.1-0.2,0.1c0,0-0.1-0.1-0.1-0.1
				c-0.1,0.1-0.2,0.1-0.3,0.1c0.1,0,0.2,0.1,0.2,0.2c0,0-0.1,0.1-0.2,0.2c0.1,0.1,0.3,0.2,0.4,0.3c-0.2,0-0.5,0-0.7,0.1
				c-0.1,0.1-0.1,0.2-0.2,0.4c0,0-0.1,0-0.2,0c0,0-0.1-0.1-0.1-0.2c0,0.2,0,0.5,0.3,0.4c0,0.2-0.2,0.3-0.3,0.4
				c0,0.2-0.1,0.3-0.1,0.5c-0.1,0-0.2,0-0.2-0.1c0,0,0.1,0.1,0.2,0.1c-0.1,0.1-0.1,0.2-0.2,0.3c0,0-0.1,0-0.2,0c0.1,0,0.2,0,0.2,0
				c-0.1,0.7-0.7,1.1-0.8,1.8c-0.1,0-0.2,0-0.2,0.1c-0.2,0.2-0.3,0.4-0.5,0.6c-0.2-0.1-0.4-0.2-0.6-0.3c-0.1,0.1-0.1,0.2-0.2,0.3
				c0-0.1,0-0.2,0-0.2c0,0-0.1,0-0.1,0.1c-0.1,0-0.2-0.1-0.3-0.1c0-0.1,0-0.2,0-0.2c0,0-0.1-0.1-0.2-0.1c-0.1-0.3-0.3-0.7-0.2-1
				c0.2-0.2,0.2-0.5,0.3-0.8c0,0,0.1-0.1,0.1-0.2c0.1-0.6,0.2-1.1,0.5-1.6c0.1-0.2,0.2-0.4,0.4-0.5c0.1-0.6,0.3-1.1,0.5-1.6
				c0.1-0.3,0.3-0.5,0.4-0.8c0.1-0.2,0.1-0.4,0.2-0.6c0.1-0.4,0.3-0.7,0.5-1.1c0.4-0.9,0.7-1.8,1.1-2.7c0.1-0.1,0.1-0.1,0.2-0.2
				C23,6.3,23.1,6.1,23.3,5.8 M20,13.8C20,13.9,20,13.9,20,13.8 M29,17.1C29.1,17.1,29.1,17.1,29,17.1 M28.9,17.3
				c-0.2,0.1,0,0.4,0.1,0.3C29.1,17.4,29,17.2,28.9,17.3z"/>
			<path class="st0" d="M36.1,5.9c0.7-0.4,1.6-0.4,2.3-0.2c0.5,0.2,0.9,0.4,1.4,0.5c0,0,0,0.1,0,0.2c0.1,0,0.3,0,0.4,0
				c0.3,0.3,0.7,0.5,0.9,0.9c0.1,0,0.3,0.1,0.4,0.1c-0.1,0.3,0.1,0.5,0.1,0.8c0,0.2,0,0.5-0.1,0.7c-0.1,0.1-0.1,0.2-0.2,0.3
				c-0.1,0-0.2,0-0.3-0.1c0,0.1,0,0.3,0,0.4c-0.4,0.1-0.8,0.1-1.1,0.1c-0.5-0.2-1-0.6-1.4-1c0,0,0-0.1,0-0.1c0,0-0.1,0-0.1,0
				c0,0-0.1,0-0.1,0.1c0,0-0.1,0-0.1,0c0,0-0.1,0.1-0.1,0.2c-1.2-0.5-2.5-0.1-3.6,0.5C34.3,9.3,34,9.6,34,10
				c-0.3,0.3-0.3,0.8-0.4,1.2c-0.2,0.9,0.2,1.7,0.5,2.5c0.2,0.2,0.3,0.4,0.4,0.6c0.3,0.5,0.8,0.7,1.3,0.9c0.2,0.2,0.5,0.4,0.9,0.5
				c0-0.1-0.1-0.2-0.1-0.2c0.3,0.1,0.7,0.1,1.1,0c0.2-0.1,0.4-0.1,0.5,0c0,0,0.1,0,0.1-0.1c0.4-0.2,0.8-0.4,1.3-0.6
				c0,0,0.1,0.1,0.1,0.1c0,0,0-0.1,0-0.2c0.4-0.2,0.9-0.3,1.4-0.3c0.2,0.2,0.4,0.3,0.5,0.5c0,0,0.1-0.1,0.1-0.1
				c0.1,0.1,0.2,0.2,0.3,0.3c0.1,0.3,0,0.6,0,1c-0.1,0-0.2,0-0.3-0.1c0,0,0,0.1,0.1,0.1c-0.1,0.2-0.2,0.3-0.3,0.5c0,0-0.1,0-0.2,0
				c-0.1,0.1-0.2,0.3-0.3,0.4c0-0.2,0-0.4,0.1-0.6c0.1-0.1,0.3-0.1,0.4-0.2c-0.1-0.2-0.1-0.3-0.2-0.5c0.2-0.3,0.5-0.4,0.5-0.8
				c-0.1,0.1-0.3,0.2-0.3,0.2c0-0.1,0.1-0.2,0.1-0.3c-0.2,0-0.4,0.1-0.2,0.3c-0.1,0.1-0.2,0.2-0.2,0.3c-0.1-0.2-0.2-0.4-0.5-0.3
				c0,0,0-0.1,0-0.2c-0.1,0.1-0.2,0.2-0.3,0.3c0.1,0,0.4-0.1,0.5-0.1c-0.1,0.2-0.3,0.3-0.4,0.5c0.1,0,0.3,0,0.4-0.1
				c0.1,0.1,0.1,0.2,0.2,0.3c-0.1-0.1-0.2-0.1-0.3-0.2c-0.1,0.2-0.4,0.2-0.6,0.2c0.1,0,0.2-0.1,0.2-0.2c0-0.1-0.1-0.2-0.2-0.3
				c-0.1,0-0.2,0.1-0.2,0.1c0-0.1,0.1-0.2,0.1-0.2c-0.1,0-0.2-0.1-0.2-0.1c0-0.1-0.1-0.2-0.1-0.2c-0.1,0.1-0.3,0.1-0.4,0.2
				c0,0.1-0.1,0.4,0.1,0.4c-0.2,0-0.5,0-0.7-0.1c-0.1,0.2-0.1,0.4-0.1,0.5c0.1,0.2,0.2,0.3,0.3,0.4c-0.2,0-0.3-0.2-0.5-0.3
				c-0.1,0.1-0.2,0.2-0.2,0.2c-0.1-0.1-0.2-0.3-0.2-0.4c0,0.1,0.1,0.2,0.1,0.3c-0.2,0-0.3,0.1-0.5,0.1c0,0.1,0,0.3,0,0.4
				c0.1-0.1,0.3-0.1,0.5-0.1c0,0,0-0.1,0-0.2c0,0.1,0,0.2,0,0.3c-0.1,0-0.2,0-0.2,0c0,0.2,0,0.4,0,0.7c0.1,0,0.2,0,0.4-0.1
				c0.1,0,0.2,0.1,0.2,0.1c0,0.1,0,0.2,0,0.3c0.1-0.1,0.2-0.1,0.4-0.2c0.1,0,0.3,0,0.4,0.1c0.1-0.1,0.2-0.1,0.3-0.2
				c0,0.1,0,0.2,0,0.2c-0.4,0.2-0.8,0.3-1.2,0.4c-0.2,0-0.5-0.1-0.7-0.1c0,0,0-0.1,0-0.2c-0.1,0.1-0.3,0.3-0.4,0.3
				c-0.8,0-1.6-0.2-2.3-0.4c-0.5-0.2-1-0.3-1.4-0.6c-0.4-0.3-0.6-0.9-1-1.3c-0.3-0.3-0.4-0.8-0.8-1c-0.1-0.2-0.2-0.3-0.3-0.5
				c0-0.1,0-0.2,0-0.2c-0.1-0.1-0.1-0.2-0.2-0.3c-0.1-0.4-0.3-0.8-0.3-1.2c0-0.9-0.1-1.8,0.2-2.6c0.1-0.6,0.4-1.1,0.7-1.6
				C32,8.5,32,8.4,32,8.2c0.2-0.2,0.4-0.5,0.7-0.7c0.3-0.3,0.7-0.6,1.1-0.9c0.4-0.2,0.9-0.4,1.3-0.6C35.4,6,35.8,6,36.1,5.9
				 M41,15.1C41.1,15.4,41.3,14.9,41,15.1 M40.7,15.2c0,0.1,0.3,0.1,0.4,0.1C41.1,15.2,40.8,15.1,40.7,15.2 M38.7,15.6
				c0,0.2,0.4,0.1,0.4-0.1C38.9,15.4,38.8,15.5,38.7,15.6 M37.1,17.9c0.1,0.1,0.1,0.1,0.2,0.2c0.1,0,0.2,0,0.3,0
				c-0.1-0.1-0.1-0.1-0.2-0.2c0.1,0,0.2-0.1,0.3-0.1c0.1-0.2-0.1-0.2-0.2-0.2C37.4,17.7,37.4,17.9,37.1,17.9 M38,17.8
				c0,0.1,0,0.2,0.1,0.1C38.2,17.8,38.2,17.8,38,17.8 M37.1,18"/>
			<path class="st0" d="M56.5,5.9c0.7-0.2,1.4-0.1,2.1-0.2c0.3,0,0.5,0,0.8,0.1c0,0,0.1,0,0.1-0.1c0.2,0.1,0.5,0.2,0.7,0.2
				c0.7,0.3,1.3,0.5,1.9,1c0.6,0.5,1.3,0.9,1.9,1.4c0.1,0.1,0.1,0.3,0.3,0.4c0.1,0.2,0.2,0.4,0.1,0.6c0.1,0.1,0.2,0.2,0.3,0.2
				c0,0,0,0.1,0,0.1c0,0.1,0,0.3-0.1,0.4c0.4,0.4,0.2,1,0.3,1.4c0.2,0.5,0,1,0,1.5c0,0.2-0.1,0.3,0,0.5c0,0-0.1,0-0.1,0
				c0,0.1,0,0.2,0,0.3c-0.1,0.1-0.2,0.2-0.3,0.3c0,0.4-0.2,0.8-0.3,1.1c-0.1,0.1-0.2,0.2-0.2,0.4c-0.2,0.4-0.6,0.5-0.9,0.8
				c-0.4,0.1-0.9,0.3-1.1,0.7c-0.4,0.1-0.7,0.3-0.9,0.6c-0.4,0.2-0.8,0.4-1.3,0.6c-0.7,0.1-1.5,0.2-2.2-0.1c0,0,0,0.1-0.1,0.2
				c-0.2,0-0.3-0.1-0.5-0.2c-0.4-0.3-1-0.3-1.4-0.6c-0.4,0-0.8-0.1-1.1-0.5c-0.3-0.2-0.4-0.6-0.7-0.7c-0.3-0.2-0.6-0.5-0.7-0.9
				c-0.3-0.6-0.5-1.3-0.7-2c-0.1-0.7,0-1.4,0-2.2c0.1-0.5,0.3-1,0.5-1.5c0.1-0.4,0.4-0.7,0.6-1.1c0.3-0.6,0.8-1,1.2-1.4
				c0.2-0.4,0.6-0.5,0.9-0.8C56.1,6.2,56.3,5.9,56.5,5.9 M56.9,9.5c-0.4,0.1-0.9,0.1-1.2,0.4c-0.1,0.2-0.2,0.5-0.3,0.7
				c-0.1,0.9,0.9,1.8,1.7,1.3c0.5-0.2,0.6-0.8,0.6-1.3c0-0.4-0.2-0.7-0.3-1C57.2,9.6,57,9.5,56.9,9.5 M61.4,9.5
				c-0.4,0.1-0.9,0.1-1.2,0.4c-0.1,0.2-0.2,0.5-0.3,0.7c-0.1,0.9,0.9,1.8,1.7,1.3c0.5-0.3,0.6-0.9,0.6-1.4c0-0.3-0.2-0.6-0.3-0.9
				C61.7,9.6,61.6,9.5,61.4,9.5 M55.5,13.7c0,0.1-0.1,0.2-0.1,0.3c0.3,0.3,0.6,0.7,1,0.9c0.4,0.3,0.9,0.4,1.4,0.5
				c0.2,0,0.4,0.1,0.6,0c0.8,0.4,1.6,0,2.4-0.2c0.1,0,0.2-0.1,0.3-0.2c0.3,0,0.6-0.2,0.7-0.5c-0.2,0-0.3,0-0.5,0
				c0-0.1-0.1-0.2-0.1-0.2c0.2-0.2,0-0.4-0.1-0.6c-0.5,0.1-1,0.3-1.6,0.4c-0.2,0.1-0.5,0-0.7,0c-0.4-0.1-0.7,0-1.1,0
				c-0.3-0.2-0.6-0.4-0.8-0.6c-0.1,0-0.3,0-0.4,0.1c0-0.1-0.1-0.2-0.1-0.2c-0.1,0-0.2-0.1-0.4-0.1C55.9,13.5,55.8,13.6,55.5,13.7z"
				/>
			<path class="st0" d="M3.9,7.5"/>
			<path class="st0" d="M42.4,7.7C42.4,7.7,42.4,7.7,42.4,7.7L42.4,7.7z"/>
			<path class="st0" d="M17,7.8"/>
			<path class="st0" d="M68.1,10.5"/>
			<path class="st0" d="M25.4,12.4"/>
			<path class="st0" d="M20,13.8"/>
			<path class="st0" d="M10.8,14.6"/>
			<path class="st0" d="M6.6,14.7"/>
			<path class="st0" d="M10.6,15"/>
			<path class="st0" d="M41,15.1"/>
			<path class="st0" d="M40.7,15.2c0.1-0.2,0.4-0.1,0.4,0.1C41,15.4,40.7,15.4,40.7,15.2z"/>
			<path class="st0" d="M16.4,15.4"/>
			<path class="st0" d="M38.7,15.6c0.1-0.1,0.3-0.1,0.4-0.1C39.1,15.7,38.7,15.8,38.7,15.6z"/>
			<path class="st0" d="M8.5,15.6c0.1,0.1,0.2,0.3,0.3,0.4C8.7,16,8.6,16,8.6,15.9c0,0.2-0.1,0.3-0.4,0.3c0.1-0.1,0.2-0.1,0.2-0.2
				C8.4,15.9,8.5,15.7,8.5,15.6z"/>
			<path class="st0" d="M8,15.8c0.1-0.2,0.4,0.1,0.2,0.2C8.1,16.1,7.9,15.9,8,15.8z"/>
			<path class="st0" d="M73.5,15.8"/>
			<path class="st0" d="M15.3,15.9"/>
			<path class="st0" d="M52.9,16.3c0-0.1,0-0.2,0-0.3c0.1,0.2,0.4,0.4,0.6,0.5c-0.1,0-0.2,0.1-0.4,0.1c0.1,0.2,0.1,0.4,0.2,0.6
				c0.1-0.1,0.3-0.2,0.3-0.4c0,0,0.1,0,0.2,0c-0.4,0.8-1.2,1.5-1.9,2c-0.4,0.3-0.8,0.6-1.2,0.8c-0.5,0.3-0.8,1-1.4,1.2
				c-0.1,0.1-0.2,0.3-0.4,0.4c-0.1-0.1-0.1-0.3-0.2-0.4c-0.1,0-0.2,0.1-0.2,0.2c0-0.1,0-0.4-0.2-0.5c-0.1,0.1-0.1,0.3-0.2,0.4
				c-0.1-0.1-0.2-0.1-0.3-0.2c0-0.3,0-0.5,0-0.8c0.3-0.3,0.6-0.5,0.8-0.9c0.3-0.2,0.6-0.3,0.8-0.6c0.3-0.4,0.7-0.6,1-0.9
				c0.2-0.4,0.5-0.6,0.9-0.8c0.4-0.2,0.6-0.7,1.1-0.7c-0.1,0.1-0.2,0.2-0.4,0.3c0,0.2,0,0.3,0,0.5c0,0-0.1,0.1-0.2,0.1
				c0.1,0,0.3,0.1,0.4,0.2c0-0.2,0-0.4,0-0.6c0.3,0.2,0.6,0.5,0.9,0.8c0-0.2,0-0.3,0.1-0.5c-0.2,0-0.3,0-0.5,0l0.1-0.1
				c-0.1,0-0.2,0-0.3,0c0,0,0.1-0.1,0.2-0.2c-0.1,0-0.5,0.1-0.5-0.1c0.1,0,0.2-0.1,0.2-0.1l0-0.1C52.5,16.2,52.7,16.2,52.9,16.3z"/>
			<path class="st0" d="M38.9,16.1"/>
			<path class="st0" d="M39.2,16.1"/>
			<path class="st0" d="M75.3,16.3"/>
			<path class="st0" d="M29,17.1"/>
			<path class="st0" d="M38.8,17.1"/>
			<path class="st0" d="M6.6,17.3c0.2,0,0.2,0,0.2,0.2C6.6,17.5,6.5,17.4,6.6,17.3z"/>
			<path class="st0" d="M8,17.3"/>
			<path class="st0" d="M28.9,17.3c0.1,0,0.2,0.2,0.1,0.3C28.9,17.7,28.7,17.3,28.9,17.3z"/>
			<path class="st0" d="M14.6,17.5"/>
			<path class="st0" d="M37.1,17.9c0.2,0,0.3-0.2,0.3-0.4c0.2-0.1,0.3,0,0.2,0.2c-0.1,0-0.2,0.1-0.3,0.1c0.1,0.1,0.1,0.1,0.2,0.2
				c-0.1,0-0.2,0-0.3,0C37.3,18,37.2,17.9,37.1,17.9z"/>
			<path class="st0" d="M74.1,17.5"/>
			<path class="st0" d="M38,17.8c0.1,0,0.2,0,0.1,0.1C38,18,38,18,38,17.8z"/>
			<path class="st0" d="M37.1,18"/>
			<path class="st0" d="M64,18c0.6,0.3,1.3,0.7,1.8,1.2c0.5,0.5,1,1,1.5,1.6c0.3,0.4,0.9,0.6,1.2,1c0.2,0.2,0.4,0.4,0.6,0.6
				c-0.1,0.1-0.3,0.1-0.4,0.2c0.1,0.1,0.2,0.2,0.2,0.2c-0.1,0-0.3,0.1-0.4,0.1c0.1,0.2,0.3,0.2,0.4,0.3c-0.1,0.1-0.1,0.2-0.2,0.3
				c-0.2,0-0.4,0.1-0.7,0.1c-0.1-0.1-0.3-0.2-0.3-0.4c0,0,0,0.1,0,0.2c-0.2-0.2-0.4-0.3-0.7-0.4c-0.1-0.1-0.3-0.3-0.4-0.5
				c-0.3-0.2-0.6-0.3-0.8-0.6c-0.2-0.2-0.3-0.4-0.5-0.5c-0.4-0.2-0.7-0.5-0.9-0.8c-0.3-0.4-0.8-0.5-0.8-1c0.1,0.1,0.2,0.2,0.3,0.3
				c0.2,0,0.4,0,0.6,0.2c0-0.1,0-0.3,0-0.4c-0.1,0-0.2-0.1-0.2-0.1c0,0.1,0.1,0.2,0.1,0.2c-0.2,0-0.3,0-0.5,0
				c-0.1-0.1-0.1-0.2-0.2-0.3c0-0.1,0.1-0.3,0.1-0.4c-0.1,0-0.2,0-0.3,0c0.1-0.1,0.2-0.1,0.3-0.2c0-0.2,0.1-0.3,0.1-0.5
				c0,0.1,0.1,0.2,0.1,0.4c0.2-0.1,0.4-0.1,0.5-0.2c-0.1-0.1-0.1-0.2-0.2-0.3c-0.1,0-0.2,0.1-0.3,0.1C64,18.2,64,18.1,64,18
				 M64.3,18.7c0,0.2,0,0.3,0,0.5c0.1-0.1,0.2-0.1,0.2-0.3c0.1-0.1,0.2-0.2,0.2-0.2C64.6,18.6,64.4,18.7,64.3,18.7 M63.9,19.2
				c0,0.1,0.1,0.2,0.1,0.4c0.1-0.1,0.3-0.2,0.4-0.3c-0.1,0-0.2-0.1-0.3-0.1l0,0.3C64.1,19.3,64,19.2,63.9,19.2z"/>
			<path class="st0" d="M59.6,19c0.3-0.2,0.7-0.1,1-0.2c0.1,0.1,0.2,0.2,0.2,0.2c0,0-0.1,0.1-0.1,0.2c0.1,0.1,0.2,0.2,0.3,0.2
				c0,0.3,0,0.6,0,0.9c0.1,0.2,0.2,0.3,0.3,0.5c0,0.1,0,0.2,0,0.4c0,0.1,0.1,0.2,0.2,0.2c-0.1,0.1-0.3,0.1-0.4,0.1
				c0.1,0.1,0.3,0.1,0.4,0.2c0,0.7,0.4,1.4,0,2c0-0.1,0-0.3,0-0.4c0,0.1-0.1,0.2-0.1,0.3c-0.2-0.1-0.3-0.2-0.5-0.3
				c-0.1,0.1-0.2,0.2-0.3,0.4c-0.1,0-0.3,0-0.3-0.2c-0.1-0.6-0.4-1.3-0.4-1.9c-0.2-0.7-0.3-1.3-0.4-2C59.6,19.4,59.6,19.2,59.6,19z"
				/>
			<path class="st0" d="M54.9,19.7c0.1-0.2,0.2-0.4,0.3-0.6c0.1,0.1,0.1,0.2,0.2,0.4c0.1,0,0.1-0.1,0.2-0.1c0.1,0.1,0.1,0.3,0.2,0.4
				c0.1-0.2,0.1-0.4,0.2-0.5c0,0.1,0.1,0.2,0.1,0.3c0-0.1,0-0.2,0-0.3c0.2,0.3,0.5,1.1-0.1,1.1c0,0,0.1,0,0.2,0
				c-0.2,0.4-0.4,0.8-0.8,1.1c-0.2,0.3-0.3,0.6-0.5,0.8c-0.2,0.2-0.3,0.4-0.5,0.6c-0.1,0.4-0.3,0.7-0.6,0.9c-0.4,0.3-0.4,0.9-0.9,1
				c0-0.1,0-0.3,0-0.4c0,0.1-0.1,0.2-0.1,0.2c-0.1,0-0.3,0-0.4,0l0.1,0.2c-0.2-0.2-0.4-0.2-0.7-0.2c0.1-0.1,0.2-0.1,0.3-0.2
				c-0.1-0.2-0.2-0.3-0.3-0.5c-0.1,0.1-0.2,0.2-0.3,0.3c0,0.1,0.1,0.2,0.1,0.2c-0.1,0-0.3,0.1-0.4,0.2c0.2-0.2,0.3-0.4,0.4-0.7
				c0.4-1,1.2-1.8,1.9-2.7c0.5-0.4,0.7-1.1,1.1-1.6C54.7,19.7,54.8,19.7,54.9,19.7 M55.5,20.2C55.6,20.3,55.6,20.3,55.5,20.2
				 M52.1,23.8c0,0.1,0,0.3,0,0.4c0.1,0,0.2,0,0.2,0c0,0.1,0,0.2-0.1,0.3c0.1-0.1,0.1-0.4,0.2-0.3l0,0c0,0,0.1,0,0.2,0
				c0,0.1,0.1,0.2,0.1,0.3c0-0.1,0.1-0.2,0.1-0.2C52.7,24.1,52.3,24.1,52.1,23.8z"/>
			<path class="st0" d="M55.5,20.2"/>
		</g>
	</g>
	<text transform="matrix(1 0 0 1 0.1191 22.0181)" class="st1 st2 st3">Str. Petőfi Sándor nr. 4</text>
</g>
</svg>
