<!-- Generator: Adobe Illustrator 22.1.0, SVG Export Plug-In  -->
<svg version="1.1"
	 xmlns="http://www.w3.org/2000/svg" xmlns:xlink="http://www.w3.org/1999/xlink" xmlns:a="http://ns.adobe.com/AdobeSVGViewerExtensions/3.0/"
	 x="0px" y="0px" width="96.4px" height="28.5px" viewBox="0 0 96.4 28.5" enable-background="new 0 0 96.4 28.5"
	 xml:space="preserve">
<defs>
</defs>
<path fill-rule="evenodd" clip-rule="evenodd" fill="#868789" d="M75.1,3.1C75.1,3.1,75.1,3.1,75.1,3.1c0.1-0.1,0.2,0,0.2,0
	c0.2,0,0.2,0.1,0.3,0.2c0.1-0.1,0.2-0.2,0.2-0.2c0,0,0.3-0.1,0.4-0.1h0.4c0,0,0.1,0,0.1,0c0,0-0.3,0.3-0.3,0.4
	c-0.1,0.1-0.2,0.2-0.3,0.4c0,0-0.1,0.1-0.1,0.2c-0.1,0.1-0.1,0.1-0.1,0.2c-0.1,0.1-0.2,0.4-0.3,0.4c-0.1,0.2-0.9,1.6-0.9,1.9l0,0v0
	c-1.1-0.2-2.2-0.3-3.3-0.5v0l-0.6-0.1L69.4,6v0L69,6l-3,0.2l0,0V6c-0.1-0.1-0.2-0.3-0.2-0.4c-0.1-0.2-0.1-0.2-0.2-0.4
	c0-0.1-0.2-0.3-0.2-0.4c-0.1-0.1-0.1-0.2-0.2-0.4c0-0.1-0.2-0.3-0.3-0.4c-0.1-0.1-0.2-0.3-0.2-0.4c-0.1-0.1-0.2-0.2-0.3-0.3
	c-0.1-0.1-0.1-0.1-0.1-0.2c-0.1,0-0.2-0.1-0.2-0.1C64,3,64,3,64.1,3h0.4c0.2,0,0.5,0.4,0.6,0.4c0-0.1,0.1-0.2,0.1-0.2
	c0,0,0.2-0.1,0.2-0.1h0c0,0,0.2,0.1,0.3,0.1c0.1,0.1,0.1,0.2,0.1,0.3c-0.1,0.1,0,0.2-0.1,0.3c-0.1,0.1-0.2,0.1-0.2,0.2
	c0,0.1,0.3,0.4,0.4,0.4c0.1,0.1,0.3,0.3,0.5,0.3h0.2c0.1,0,0.4-0.2,0.5-0.3c0.1-0.1,0.1-0.1,0.2-0.2c0,0,0.1-0.2,0.1-0.3l0.1-0.4
	c0,0,0-0.1-0.1-0.2h-0.1c-0.2,0-0.4-0.3-0.4-0.5c0,0,0.1-0.2,0.1-0.3C67,2.6,67,2.6,67.1,2.5c0.2,0,0.2-0.1,0.2-0.1
	c0,0,0.3,0.1,0.3,0.2c0.1,0.1,0.1,0.2,0.2,0.4c-0.1,0.1-0.1,0.3-0.2,0.4v0.1c0,0.2,0.6,0.6,0.9,0.6c0,0,0,0,0.1,0H69c0,0,0,0,0.1,0
	c0.2,0,0.5-0.2,0.5-0.3c0.1-0.2,0.3-0.3,0.3-0.6c-0.1,0-0.2,0.1-0.3,0.1h-0.1c-0.1,0-0.3-0.1-0.4-0.2c-0.1-0.1-0.2-0.2-0.2-0.4
	c0,0,0-0.1,0-0.1c0,0,0-0.3,0.1-0.3C69,2.1,69,2.1,69.1,2c0.1-0.1,0.3-0.2,0.5-0.2c0,0,0.1,0,0.1-0.1c0-0.1,0-0.1-0.1-0.1
	c0-0.1,0-0.2,0-0.3l0-0.2c0.1-0.1,0.1-0.2,0.1-0.3c0.1-0.1,0.1-0.2,0.2-0.3C70,0.4,70.2,0.1,70.2,0h0.1c0.1,0,0.4,0.9,0.6,0.9
	c0,0.2,0.1,0.3,0.1,0.4v0.1c0,0-0.1,0.2-0.1,0.4c0,0.1,0.2,0,0.3,0.1c0.2,0.1,0.4,0.2,0.4,0.5v0.2c0,0.1-0.1,0.3-0.2,0.3
	C71.3,3,71.1,3.1,71,3.1h-0.1c-0.1,0-0.2-0.1-0.3-0.1v0.1c0,0.2,0.2,0.4,0.3,0.5C71.1,3.8,71.4,4,71.6,4h0.3c0.1,0,0.1,0,0.3,0
	c0.1-0.1,0.3-0.1,0.4-0.2c0.1-0.1,0.3-0.2,0.3-0.3v0c0-0.1-0.2-0.2-0.2-0.4V2.9c0-0.2,0.2-0.3,0.2-0.4c0.1,0,0.2,0,0.2,0
	c0.1,0,0.1,0,0.2,0c0.1,0.1,0.3,0.2,0.3,0.4V3c0,0.1-0.1,0.3-0.1,0.3c-0.1,0.1-0.4,0.1-0.4,0.1v0.4c0,0.1,0.2,0.5,0.3,0.6
	c0.1,0.1,0.3,0.3,0.6,0.3h0.1c0.1,0,0.4-0.3,0.5-0.3c0.1,0,0.4-0.4,0.4-0.5l-0.1-0.1h-0.1c0-0.1-0.2-0.2-0.2-0.3V3.5
	C74.7,3.3,74.8,3.1,75.1,3.1z M0,22.1 M2.1,22.1c0-0.8,0-1.5,0-2.3c0-0.8,0-1.5,0-2.3c0-0.8,0-1.5,0-2.3c0-0.8,0-1.5,0-2.3
	c0.1,0.8,0.2,1.5,0.4,2.3c0.1,0.8,0.2,1.5,0.4,2.3c0.1,0.8,0.2,1.5,0.4,2.3c0.1,0.8,0.3,1.5,0.4,2.3c0.5,0,1,0,1.5,0.1
	c0.1-0.8,0.3-1.5,0.4-2.3c0.1-0.8,0.3-1.6,0.4-2.3c0.1-0.8,0.3-1.6,0.4-2.4c0.1-0.8,0.3-1.6,0.4-2.4c0,0.8,0,1.6,0,2.4
	c0,0.8,0,1.6,0,2.4c0,0.8,0,1.6,0,2.4c0,0.8,0,1.6,0,2.4c0.5,0,1,0,1.5,0.1c0-1,0-2,0-3c0-1,0-2,0-3c0-1,0-2,0-3c0-1,0-2,0-3
	c-0.8,0-1.7,0.1-2.5,0.1c-0.1,0.7-0.2,1.4-0.4,2c-0.1,0.7-0.2,1.4-0.4,2c-0.2,1.3-0.5,2.7-0.7,4c-0.2-1.3-0.5-2.7-0.7-4
	c-0.2-1.3-0.5-2.6-0.7-4c-0.8,0-1.5,0.1-2.3,0.1c0,1,0,1.9,0,2.9c0,1,0,1.9,0,2.9c0,1,0,1.9,0,2.9c0,1,0,1.9,0,2.9
	C1.2,22.1,1.6,22.1,2.1,22.1z M9.1,22.4 M9.6,16.4c0,1,0.1,1.8,0.3,2.6c0.2,0.8,0.5,1.4,0.8,2c0.8,1.1,1.8,1.7,3.1,1.8
	c1.3,0.1,2.4-0.5,3.2-1.6c0.4-0.6,0.7-1.3,0.9-2.1c0.2-0.8,0.3-1.8,0.3-2.8c0-1.1-0.1-2-0.3-2.8c-0.2-0.8-0.5-1.5-0.9-2.1
	c-0.8-1.1-1.9-1.7-3.3-1.6c-0.7,0-1.4,0.2-1.9,0.6c-0.4,0.3-0.8,0.7-1.1,1.2c-0.3,0.5-0.6,1.1-0.8,1.7C9.7,14.1,9.6,15.1,9.6,16.4
	L9.6,16.4z M12,13.1c0.5-0.7,1-1.1,1.8-1.1c0.8,0,1.4,0.3,1.8,1c0.5,0.7,0.7,1.8,0.7,3.3c0,0.7-0.1,1.4-0.2,2
	c-0.1,0.6-0.3,1-0.5,1.4c-0.5,0.7-1.1,1.1-1.8,1.1c-0.7,0-1.3-0.4-1.8-1.1c-0.5-0.7-0.7-1.8-0.7-3.2C11.4,14.9,11.6,13.8,12,13.1z
	 M18.9,22.8 M19.9,9.6c0,1.1,0,2.2,0,3.3c0,1.1,0,2.2,0,3.3c0,1.1,0,2.2,0,3.3c0,1.1,0,2.2,0,3.3c1.2,0,2.5,0.1,3.8,0.1
	c0.8,0,1.4,0,1.9-0.2c0.6-0.2,1.1-0.6,1.5-1c0.5-0.6,0.9-1.4,1.2-2.4c0.2-0.8,0.3-1.8,0.3-3c0-1.3-0.1-2.4-0.4-3.3
	c-0.2-0.9-0.6-1.6-1-2.2c-0.5-0.6-1-1-1.6-1.2c-0.5-0.2-1.1-0.2-2-0.2C22.3,9.5,21.1,9.6,19.9,9.6L19.9,9.6z M22.8,11.8
	c0.9,0,1.4,0,1.7,0.1c0.4,0.1,0.7,0.3,1,0.6c0.3,0.3,0.5,0.7,0.6,1.3c0.1,0.6,0.2,1.4,0.2,2.4c0,1.1-0.1,1.9-0.2,2.5
	c-0.1,0.6-0.3,1.1-0.6,1.3c-0.2,0.3-0.5,0.4-0.9,0.5c-0.3,0.1-0.7,0.1-1.3,0.1c-0.5,0-1,0-1.5,0c0-0.7,0-1.5,0-2.2s0-1.5,0-2.2
	c0-0.7,0-1.5,0-2.2c0-0.7,0-1.5,0-2.2C22.2,11.8,22.5,11.8,22.8,11.8z M29.3,23.2 M39.6,23.6c0-0.8,0-1.7,0-2.5
	c-2.3-0.1-4.6-0.1-6.8-0.2c0-0.6,0-1.3,0-2c0-0.7,0-1.3,0-2c2,0,4,0,6.1,0c0-0.8,0-1.7,0-2.5c-2.1,0-4.1,0.1-6.1,0.1
	c0-1.1,0-2.1,0-3.2c2.1-0.1,4.3-0.2,6.6-0.2c0-0.8,0-1.7,0-2.5c-3.1,0.2-6,0.3-8.9,0.5c0,1.2,0,2.4,0,3.5c0,1.2,0,2.4,0,3.5
	c0,1.2,0,2.4,0,3.5c0,1.2,0,2.4,0,3.5C33.4,23.3,36.4,23.5,39.6,23.6z M40.5,23.6 M41.8,23.7c0.9,0,1.8,0.1,2.7,0.1
	c0-1.1,0-2.1,0-3.2c0-1.1,0-2.1,0-3.2c0.2,0,0.4,0,0.5,0c0.6,0,1.1,0.1,1.4,0.2c0.3,0.1,0.6,0.3,0.8,0.7c0.3,0.3,0.8,1.1,1.5,2.3
	c0.7,1.2,1.4,2.3,2.1,3.5c1.2,0,2.4,0.1,3.6,0.1c-0.6-1.1-1.2-2.2-1.8-3.2c-0.7-1.3-1.3-2.1-1.7-2.6c-0.4-0.5-0.9-0.9-1.5-1.3
	c1.3-0.2,2.2-0.7,2.9-1.5c0.7-0.8,1-1.8,1-3c0-1-0.2-1.8-0.6-2.5c-0.4-0.7-1-1.2-1.7-1.5c-0.7-0.2-1.8-0.3-3.3-0.3
	c-2,0.1-3.9,0.2-5.7,0.3c0,1.3,0,2.5,0,3.8c0,1.3,0,2.5,0,3.8c0,1.3,0,2.5,0,3.8C41.8,21.1,41.8,22.4,41.8,23.7L41.8,23.7z
	 M44.5,10.9c0.7,0,1.4-0.1,2.1-0.1c1.1,0,1.8-0.1,2,0c0.5,0.1,0.8,0.3,1.1,0.6c0.3,0.3,0.4,0.8,0.4,1.3c0,0.5-0.1,0.9-0.3,1.2
	c-0.2,0.3-0.5,0.6-0.8,0.7c-0.3,0.1-1.2,0.2-2.5,0.2c-0.7,0-1.4,0-2,0C44.5,13.5,44.5,12.2,44.5,10.9z M54.5,24.2 M59.1,24.3
	c0-0.9,0-1.8,0-2.7c0-0.9,0-1.8,0-2.7s0-1.8,0-2.7s0-1.8,0-2.7c0.5,0.9,1.1,1.8,1.6,2.7c0.5,0.9,1.1,1.8,1.6,2.8
	c0.6,0.9,1.1,1.9,1.7,2.8c0.6,0.9,1.1,1.9,1.7,2.9c1.2,0,2.3,0.1,3.5,0.1c0-1.5,0-2.9,0-4.4c0-1.5,0-3,0-4.4c0-1.5,0-3,0-4.4
	c0-1.5,0-3,0-4.4C68.1,7.1,67,7.1,66,7.2c0,1,0,1.9,0,2.9c0,1,0,1.9,0,2.9c0,1,0,1.9,0,2.9s0,1.9,0,2.9c-0.6-1-1.2-1.9-1.7-2.9
	c-0.6-1-1.1-1.9-1.7-2.8c-0.6-0.9-1.1-1.9-1.7-2.8c-0.6-0.9-1.1-1.8-1.7-2.8c-1,0.1-2.1,0.1-3.1,0.2c0,1.4,0,2.8,0,4.1s0,2.8,0,4.1
	c0,1.4,0,2.8,0,4.1c0,1.4,0,2.8,0,4.1C57.1,24.3,58.1,24.3,59.1,24.3z M69.2,24.7 M74.2,24.2c0-1.4,0-2.8,0-4.2s0-2.8,0-4.2
	c0-1.4,0-2.8,0-4.2c0-1.4,0-2.8,0-4.2C73.2,7.4,72,7.2,70.9,7c0,1.5,0,2.9,0,4.4c0,1.5,0,2.9,0,4.4c0,1.5,0,2.9,0,4.4
	c0,1.5,0,2.9,0,4.4C72,24.4,73.2,24.3,74.2,24.2z M75.6,24.1 M78.1,22.7c0.9,0.8,2.2,1.1,3.8,1c1.1-0.1,1.9-0.4,2.6-0.8
	c0.7-0.4,1.1-1,1.5-1.7c0.3-0.7,0.5-1.5,0.5-2.2c0-0.9-0.1-1.6-0.4-2.2c-0.3-0.6-0.7-1.1-1.2-1.4c-0.5-0.4-1.4-0.8-2.5-1.2
	c-1.2-0.4-2-0.8-2.4-1.2c-0.3-0.3-0.4-0.6-0.4-1c0-0.4,0.1-0.7,0.4-0.9c0.4-0.3,1-0.4,1.8-0.4c0.7,0.1,1.2,0.3,1.5,0.7
	c0.3,0.4,0.5,0.9,0.6,1.7c0.8,0,1.5,0,2.2,0c0-1.3-0.4-2.3-1.1-3.2c-0.7-0.9-1.8-1.4-3.3-1.7c-1-0.1-1.8-0.1-2.5,0.2
	c-0.7,0.3-1.3,0.7-1.7,1.4c-0.4,0.7-0.6,1.4-0.6,2.2c0,1.3,0.4,2.4,1.3,3.3c0.6,0.6,1.6,1.2,3,1.6c1,0.3,1.7,0.5,2,0.7
	c0.4,0.2,0.7,0.4,0.8,0.6c0.2,0.2,0.2,0.5,0.2,0.9c0,0.5-0.2,1-0.6,1.4c-0.4,0.4-1,0.7-1.8,0.7c-0.8,0-1.4-0.1-1.9-0.6
	c-0.5-0.5-0.8-1.2-1-2.2c-0.9,0.1-1.8,0.2-2.8,0.3C76.6,20.6,77.2,21.9,78.1,22.7z M87.2,23 M90,22.7c0-0.8,0-1.7,0-2.5
	c0-0.8,0-1.7,0-2.5c0-0.8,0-1.7,0-2.5c0-0.8,0-1.7,0-2.5c0.2,0.9,0.3,1.7,0.5,2.5c0.2,0.8,0.3,1.7,0.5,2.5c0.1,0.8,0.3,1.6,0.4,2.5
	c0.1,0.8,0.3,1.6,0.4,2.4c0.6-0.1,1.1-0.1,1.6-0.2c0.1-0.8,0.3-1.6,0.4-2.4c0.1-0.8,0.3-1.6,0.4-2.4c0.1-0.8,0.3-1.5,0.4-2.3
	c0.1-0.8,0.3-1.5,0.4-2.3c0,0.8,0,1.5,0,2.3c0,0.8,0,1.5,0,2.3c0,0.8,0,1.5,0,2.3c0,0.8,0,1.5,0,2.3c0.5,0,0.9-0.1,1.4-0.1
	c0-0.9,0-1.9,0-2.8c0-0.9,0-1.9,0-2.8c0-0.9,0-1.9,0-2.8c0-0.9,0-1.9,0-2.8c-0.7-0.1-1.5-0.2-2.3-0.3c-0.2,1.3-0.5,2.7-0.7,4
	c-0.2,1.4-0.5,2.7-0.7,4.1c-0.3-1.4-0.5-2.8-0.8-4.2c-0.1-0.7-0.3-1.4-0.4-2.2c-0.1-0.7-0.3-1.5-0.4-2.2c-0.9-0.1-1.9-0.3-2.8-0.4
	c0,1.1,0,2.2,0,3.3c0,1.1,0,2.2,0,3.3c0,1.1,0,2.2,0,3.3c0,1.1,0,2.2,0,3.3C88.8,22.8,89.4,22.7,90,22.7z M51.5,28.5v-2.4h0.9v-0.3
	h-2.2v0.3h0.9v2.4H51.5z M52.2,28.5h0.4l0.3-0.8h1.1l0.3,0.8h0.4l-1.1-2.7h-0.4L52.2,28.5L52.2,28.5z M53.3,26.6
	c0.1-0.2,0.1-0.3,0.1-0.5c0,0.1,0.1,0.3,0.2,0.6l0.3,0.8H53L53.3,26.6z M55.1,28.5h1c0.2,0,0.3,0,0.4,0c0.1,0,0.2-0.1,0.3-0.1
	c0.1-0.1,0.1-0.1,0.2-0.3c0.1-0.1,0.1-0.2,0.1-0.4c0-0.2,0-0.3-0.1-0.4c-0.1-0.1-0.2-0.2-0.4-0.2c0.1-0.1,0.2-0.1,0.3-0.2
	c0.1-0.1,0.1-0.2,0.1-0.3c0-0.1,0-0.2-0.1-0.4c-0.1-0.1-0.2-0.2-0.3-0.3c-0.1-0.1-0.3-0.1-0.5-0.1h-1V28.5L55.1,28.5z M55.4,26.9
	v-0.8H56c0.2,0,0.3,0,0.4,0c0.1,0,0.1,0.1,0.2,0.1c0,0.1,0.1,0.1,0.1,0.2c0,0.1,0,0.2-0.1,0.2c0,0.1-0.1,0.1-0.2,0.1
	c-0.1,0-0.2,0-0.3,0H55.4L55.4,26.9z M55.4,27.2H56c0.2,0,0.3,0,0.4,0c0.1,0,0.2,0.1,0.2,0.2c0.1,0.1,0.1,0.2,0.1,0.3
	c0,0.1,0,0.2-0.1,0.2c0,0.1-0.1,0.1-0.1,0.2c-0.1,0-0.1,0.1-0.2,0.1c0,0-0.1,0-0.2,0h-0.7V27.2z M59.3,28.5v-0.3H58v-2.4h-0.4v2.7
	H59.3z M59.6,27.1c0,0.2,0.1,0.5,0.2,0.7c0.1,0.2,0.3,0.4,0.5,0.5c0.2,0.1,0.4,0.2,0.7,0.2c0.2,0,0.5-0.1,0.7-0.2
	c0.2-0.1,0.4-0.3,0.5-0.5c0.1-0.2,0.2-0.5,0.2-0.7c0-0.3-0.1-0.5-0.2-0.7c-0.1-0.2-0.3-0.4-0.5-0.5c-0.2-0.1-0.4-0.2-0.7-0.2
	c-0.4,0-0.7,0.1-0.9,0.4C59.7,26.3,59.6,26.7,59.6,27.1L59.6,27.1z M60.3,26.3c0.2-0.2,0.4-0.3,0.7-0.3c0.2,0,0.3,0,0.5,0.1
	c0.1,0.1,0.3,0.2,0.3,0.4c0.1,0.2,0.1,0.4,0.1,0.6c0,0.4-0.1,0.6-0.3,0.8c-0.2,0.2-0.4,0.3-0.7,0.3c-0.3,0-0.5-0.1-0.7-0.3
	c-0.2-0.2-0.3-0.4-0.3-0.8C60,26.7,60.1,26.4,60.3,26.3z M63.1,28.5v-2.7h-0.4v2.7H63.1z M63.8,28.5h1c0.2,0,0.3,0,0.4,0
	c0.1,0,0.2-0.1,0.3-0.1c0.1-0.1,0.2-0.1,0.2-0.2c0.1-0.1,0.1-0.2,0.2-0.4c0-0.2,0.1-0.3,0.1-0.6c0-0.2,0-0.5-0.1-0.6
	c-0.1-0.2-0.2-0.3-0.3-0.5c-0.1-0.1-0.2-0.2-0.4-0.2c-0.1,0-0.3,0-0.5,0h-0.9V28.5L63.8,28.5z M64.1,26.1h0.6c0.2,0,0.4,0,0.5,0.1
	c0.1,0.1,0.2,0.2,0.3,0.3c0.1,0.2,0.1,0.4,0.1,0.7c0,0.2,0,0.4-0.1,0.5c0,0.1-0.1,0.3-0.2,0.3c-0.1,0.1-0.1,0.1-0.2,0.1
	c-0.1,0-0.2,0.1-0.4,0.1h-0.6V26.1z M67.6,28.5h1c0.2,0,0.3,0,0.4,0c0.1,0,0.2-0.1,0.3-0.1c0.1-0.1,0.2-0.1,0.2-0.2
	c0.1-0.1,0.1-0.2,0.2-0.4c0-0.2,0.1-0.3,0.1-0.6c0-0.2,0-0.5-0.1-0.6c-0.1-0.2-0.2-0.3-0.3-0.5c-0.1-0.1-0.2-0.2-0.4-0.2
	c-0.1,0-0.3,0-0.5,0h-0.9V28.5L67.6,28.5z M67.9,26.1h0.6c0.2,0,0.4,0,0.5,0.1c0.1,0.1,0.2,0.2,0.3,0.3c0.1,0.2,0.1,0.4,0.1,0.7
	c0,0.2,0,0.4-0.1,0.5c0,0.1-0.1,0.3-0.2,0.3c-0.1,0.1-0.1,0.1-0.2,0.1c-0.1,0-0.2,0.1-0.4,0.1h-0.6V26.1z M72.3,28.5v-0.3h-1.7v-0.9
	h1.5v-0.3h-1.5v-0.8h1.6v-0.3h-2v2.7H72.3z M73.4,28.5h0.4l0.3-0.8h1.1l0.3,0.8h0.4l-1.1-2.7h-0.4L73.4,28.5L73.4,28.5z M74.5,26.6
	c0.1-0.2,0.1-0.3,0.1-0.5c0,0.1,0.1,0.3,0.2,0.6l0.3,0.8h-0.9L74.5,26.6z M76.2,28.5h0.4v-1.2H77c0.1,0,0.2,0,0.2,0
	c0.1,0,0.1,0,0.2,0.1c0.1,0,0.1,0.1,0.2,0.2c0.1,0.1,0.2,0.2,0.3,0.4l0.4,0.6h0.5l-0.5-0.7c-0.1-0.1-0.2-0.3-0.3-0.4
	c0,0-0.1-0.1-0.2-0.1c0.3,0,0.5-0.1,0.6-0.3c0.1-0.1,0.2-0.3,0.2-0.5c0-0.1,0-0.3-0.1-0.4c-0.1-0.1-0.2-0.2-0.3-0.3
	c-0.1,0-0.3-0.1-0.6-0.1h-1.2V28.5L76.2,28.5z M76.6,26h0.9c0.2,0,0.4,0,0.4,0.1c0.1,0.1,0.1,0.2,0.1,0.3c0,0.1,0,0.2-0.1,0.2
	c0,0.1-0.1,0.1-0.2,0.2c-0.1,0-0.2,0.1-0.4,0.1h-0.8V26z M80,28.5v-2.4h0.9v-0.3h-2.2v0.3h0.9v2.4H80z M86.4,28.2
	c0.1,0.2,0.3,0.3,0.4,0.4l0.2-0.3c-0.2-0.1-0.3-0.3-0.4-0.4c0.1-0.2,0.2-0.3,0.2-0.6l-0.3-0.1c0,0.1-0.1,0.3-0.1,0.4l-0.5-0.6
	c0.3-0.2,0.5-0.4,0.5-0.7c0-0.2-0.1-0.3-0.2-0.4c-0.1-0.1-0.3-0.2-0.5-0.2c-0.2,0-0.4,0.1-0.5,0.2c-0.1,0.1-0.2,0.3-0.2,0.4
	c0,0.1,0,0.2,0.1,0.3c0,0.1,0.1,0.2,0.2,0.3c-0.2,0.1-0.4,0.2-0.5,0.4c-0.1,0.1-0.2,0.3-0.2,0.5c0,0.2,0.1,0.4,0.2,0.5
	c0.2,0.2,0.4,0.3,0.7,0.3c0.2,0,0.3,0,0.4-0.1C86.1,28.4,86.2,28.3,86.4,28.2L86.4,28.2z M85.7,26.7l-0.1-0.2c0-0.1-0.1-0.1-0.1-0.1
	c0,0,0-0.1,0-0.1c0-0.1,0-0.2,0.1-0.2c0.1-0.1,0.1-0.1,0.2-0.1c0.1,0,0.2,0,0.2,0.1c0.1,0.1,0.1,0.1,0.1,0.2c0,0.1,0,0.1-0.1,0.2
	C85.9,26.6,85.8,26.6,85.7,26.7L85.7,26.7z M85.9,28.1c-0.1,0.1-0.2,0.1-0.3,0.1c-0.2,0-0.3-0.1-0.4-0.2c-0.1-0.1-0.1-0.2-0.1-0.3
	c0-0.1,0-0.2,0.1-0.3c0.1-0.1,0.2-0.2,0.4-0.3l0.6,0.8C86.1,28,86,28.1,85.9,28.1z M88.5,28.1c0.1,0.1,0.2,0.3,0.4,0.3
	c0.2,0.1,0.4,0.1,0.6,0.1c0.2,0,0.4,0,0.5-0.1c0.2-0.1,0.3-0.2,0.4-0.3c0.1-0.1,0.1-0.3,0.1-0.4c0-0.1,0-0.3-0.1-0.4
	c-0.1-0.1-0.2-0.2-0.4-0.3c-0.1,0-0.3-0.1-0.6-0.2c-0.3-0.1-0.5-0.1-0.5-0.2c-0.1-0.1-0.1-0.1-0.1-0.2c0-0.1,0.1-0.2,0.1-0.3
	c0.1-0.1,0.3-0.1,0.5-0.1c0.2,0,0.4,0,0.5,0.1c0.1,0.1,0.2,0.2,0.2,0.4l0.3,0c0-0.2-0.1-0.3-0.1-0.4c-0.1-0.1-0.2-0.2-0.4-0.3
	c-0.2-0.1-0.3-0.1-0.5-0.1c-0.2,0-0.3,0-0.5,0.1c-0.1,0.1-0.3,0.2-0.3,0.3c-0.1,0.1-0.1,0.2-0.1,0.4c0,0.1,0,0.2,0.1,0.3
	c0.1,0.1,0.2,0.2,0.3,0.3c0.1,0.1,0.3,0.1,0.5,0.2c0.3,0.1,0.4,0.1,0.5,0.1c0.1,0,0.2,0.1,0.2,0.2c0.1,0.1,0.1,0.1,0.1,0.2
	c0,0.1,0,0.2-0.1,0.2c-0.1,0.1-0.1,0.1-0.2,0.2c-0.1,0-0.2,0.1-0.4,0.1c-0.2,0-0.3,0-0.4-0.1c-0.1-0.1-0.2-0.1-0.3-0.2
	c-0.1-0.1-0.1-0.2-0.1-0.3l-0.3,0C88.3,27.8,88.4,27.9,88.5,28.1z M92,28.5v-2.4h0.9v-0.3h-2.2v0.3h0.9v2.4H92z M93.7,28.5v-2.7
	h-0.4v2.7H93.7z M96,28.5v-0.3h-1.3v-2.4h-0.4v2.7H96z M80.9,28.5h0.4l0.3-0.8h1.1l0.3,0.8h0.4l-1.1-2.7H82L80.9,28.5L80.9,28.5z
	 M81.7,27.4l0.3-0.8c0.1-0.2,0.1-0.3,0.1-0.5c0,0.1,0.1,0.3,0.2,0.6l0.3,0.8H81.7L81.7,27.4z M82.4,25.3c-0.1,0-0.1,0.1-0.2,0.1
	c-0.1,0-0.2,0-0.2-0.1c-0.1,0-0.1-0.1-0.1-0.2h-0.2c0,0.2,0.1,0.3,0.2,0.4c0.1,0.1,0.2,0.1,0.4,0.1c0.2,0,0.3,0,0.4-0.1
	c0.1-0.1,0.2-0.2,0.2-0.4h-0.2C82.5,25.2,82.5,25.2,82.4,25.3z"/>
</svg>
