<!-- Generator: Adobe Illustrator 23.0.4, SVG Export Plug-In  -->
<svg version="1.1" xmlns="http://www.w3.org/2000/svg" xmlns:xlink="http://www.w3.org/1999/xlink" x="0px" y="0px"
	 width="444.392px" height="89.21px" viewBox="0 0 444.392 89.21" enable-background="new 0 0 444.392 89.21" xml:space="preserve">
<path fill="#868789" d="M376.464,39.95c0.432-2.915,0.842-5.833,1.299-8.744c1.134-7.224,2.293-14.445,3.435-21.668
	c0.418-2.641,0.824-5.283,1.221-7.927c0.082-0.547,0.287-0.807,0.911-0.806c7.369,0.023,14.738,0.026,22.107,0.007
	c0.735-0.002,0.784,0.394,0.878,0.952c1.023,6.086,2.071,12.168,3.115,18.251c0.04,0.231,0.118,0.455,0.233,0.893
	c0.267-0.486,0.463-0.821,0.638-1.166c3.058-6.025,6.121-12.047,9.155-18.084c0.298-0.593,0.599-0.888,1.315-0.884
	c7.645,0.039,15.29,0.04,22.935,0.058c0.228,0.001,0.457,0.075,0.685,0.114c0,0.316,0,0.631,0,0.947
	c-0.719,2.042-0.812,4.202-1.15,6.312c-1.263,7.885-2.46,15.78-3.674,23.673c-0.921,5.988-1.832,11.977-2.74,17.967
	c-0.288,1.901-0.276,1.94-2.131,1.941c-5.363,0.002-10.725-0.04-16.088-0.032c-0.792,0.001-0.94-0.17-0.807-0.996
	c1.315-8.196,2.57-16.402,3.839-24.606c0.03-0.192,0.025-0.389,0.044-0.695c-0.56,0.354-0.725,0.875-0.963,1.324
	c-4.093,7.709-8.204,15.409-12.24,23.147c-0.695,1.333-1.451,2.072-3.065,1.831c-1.158-0.173-2.363-0.08-3.543-0.024
	c-0.669,0.031-0.883-0.257-1.001-0.847c-1.259-6.322-2.535-12.641-3.806-18.961c-0.426-2.117-0.853-4.233-1.516-6.377
	c-1.086,6.626-2.172,13.251-3.258,19.877c-0.541-0.159-0.214-0.604-0.288-0.869c-0.277,1.939-0.328,3.949-0.787,5.907
	c-0.132,0.561-0.42,0.898-0.997,1.02c-0.47,0.099-0.938,0.1-1.41,0.1c-4.134-0.003-8.268,0.034-12.402-0.112
	c-1.481-0.052-2.124-1.067-1.267-2.318c0.788-1.149,0.936-2.387,0.985-3.689C376.195,43.624,376.286,41.784,376.464,39.95z
	 M27.043,40.093c0.405,1.024,0.818,2.071,0.953,3.187c0.048,0.089,0.096,0.179,0.144,0.268c0.73,0.531,0.826,1.293,0.767,2.111
	c0.604,1.619,1.266,3.221,1.791,4.866c0.297,0.931,0.734,1.27,1.748,1.259c5.007-0.058,10.015-0.069,15.022,0.006
	c1.215,0.018,1.603-0.389,1.772-1.536c0.922-6.267,1.911-12.525,2.89-18.784c1.538-9.837,3.077-19.673,4.641-29.505
	c0.152-0.953-0.126-1.21-1.081-1.196c-4.809,0.067-9.619,0.093-14.429,0.068c-0.878-0.005-1.151,0.319-1.275,1.108
	c-1.024,6.532-2.075,13.059-3.117,19.587c-0.238,0.837-0.257,0.851-0.631,0.467c-0.086-0.173-0.192-0.339-0.255-0.521
	c-2.268-6.57-4.54-13.139-6.781-19.718c-0.218-0.64-0.462-0.995-1.207-0.991C23.703,0.79,19.414,0.773,15.125,0.77
	c-0.46,0.121-0.929,0.044-1.393,0.061c-1.82,0.068-3.646-0.133-5.463,0.105L8.269,0.934C8.213,1.08,8.09,1.217,8.076,1.356
	C7.895,3.221,7.38,5.024,7.081,6.867c-0.345,0.931-0.38,1.919-0.535,2.885c-1.211,7.561-2.426,15.122-3.64,22.683
	c0.062,0.307,0.133,0.621,0.083,0.931c-0.179,1.121-0.491,2.225-0.585,3.355c-0.098,1.177-0.408,2.314-0.533,3.486
	c-0.097,0.902,0.574,1.919-0.41,2.726c-0.241,0.198,0.168,0.782-0.297,1.037c-0.33,0.849-0.239,1.781-0.495,2.634
	C0.409,47.468,0.79,48.497,0,49.219c0,0.868,0,1.735,0,2.603c5.156-0.021,10.312-0.085,15.467-0.031
	c1.159,0.012,1.499-0.406,1.586-1.443c0.158-1.876,0.431-3.762,0.785-5.589c0.911-4.705,1.538-9.451,2.352-14.168
	c0.284-1.646,0.554-3.295,0.886-5.272c1.487,3.796,2.844,7.261,4.201,10.726C26.135,37.276,26.503,38.727,27.043,40.093z
	 M272.937,31.579c-4.217,0.029-8.435,0.025-12.652,0.008c-0.94-0.004-1.886,0.118-2.821-0.085c-1.012-0.271-1.539,0.164-1.767,1.144
	c-0.114,0.493-0.323,0.969-0.532,1.433c-1.047,2.329-3.922,3.932-6.699,3.749c-2.559-0.168-4.381-1.699-5.245-4.374
	c-0.718-2.223-0.694-4.492-0.425-6.77c0.361-3.063,0.97-6.056,2.777-8.658c1.815-2.612,4.64-3.758,7.584-3.089
	c0.802,0.182,1.416,0.503,1.731,1.379c0.491,1.365,1.117,2.683,1.697,4.015c0.163,0.374,0.226,0.902,0.864,0.715
	c0.118-0.253,0.323-0.123,0.505-0.121c5.422,0.039,10.845-0.002,16.267,0.009c1.014,0.002,1.299-0.319,1.329-1.35
	c0.009-0.309-0.015-0.619-0.004-0.824c0.083,0.718,0.02,1.52-0.343,2.277c0.819,0.217,0.997-0.149,0.961-0.914
	c-0.457-9.532-5.423-16.707-15.468-19.177c-1.465-0.36-2.951-0.632-4.427-0.945c-0.394,0-0.789,0-1.183,0
	c-0.473,0.194-0.947,0.194-1.42,0c-0.868,0-1.735,0-2.603,0c-0.473,0.194-0.947,0.194-1.42,0c-0.394,0-0.789,0-1.183,0
	c-0.895,0.429-1.883,0.361-2.827,0.526c-14.919,2.603-21.683,14.09-22.675,25.991c0.076,2.278-0.023,4.555-0.004,6.833
	c0.794,7.786,4.447,13.663,11.754,16.797c7.551,3.238,15.433,3.407,23.257,1.256c9.514-2.616,15.206-8.934,16.87-18.741
	c0.063-0.372,0.369-0.818-0.122-1.151C274.142,31.926,273.527,31.575,272.937,31.579z M253.668,0c0.473,0.343,0.947,0.379,1.42,0
	C254.615,0,254.141,0,253.668,0z M249.645,0c0.473,0.383,0.947,0.344,1.42,0C250.592,0,250.119,0,249.645,0z M356.84,16.381
	c0.134-0.812,0.455-1.051,1.301-1.042c5.047,0.055,10.096,0.012,15.143,0.058c1.006,0.009,1.409-0.405,1.543-1.328
	c0.533-3.66,1.108-7.315,1.632-10.976c0.322-2.251,0.294-2.269-1.964-2.269c-11.081-0.001-22.163,0.014-33.244-0.004
	c-0.821-0.001-1.269,0.127-1.371,1.077c-0.185,1.719-0.517,3.422-0.788,5.132c-1.232,7.772-2.468,15.543-3.694,23.317
	c-1.078,6.839-2.134,13.683-3.233,20.518c-0.1,0.619-0.044,0.853,0.628,0.861c5.756,0.072,11.513,0.222,17.268-0.057
	c0.609-0.03,1.004-0.14,1.116-0.884c0.672-4.474,1.434-8.936,2.072-13.414c0.13-0.914,0.411-1.195,1.306-1.186
	c3.983,0.039,7.967-0.032,11.948,0.055c1.132,0.025,1.535-0.419,1.684-1.399c0.556-3.656,1.047-7.324,1.724-10.957
	c0.239-1.283-0.07-1.454-1.247-1.435c-4.293,0.069-8.588,0.027-12.96,0.027C356.1,20.381,356.509,18.387,356.84,16.381z
	 M374.6,51.082c-0.102,0.605,0.261,0.614,0.695,0.614c5.075,0.006,10.15,0.015,15.225,0.037c0.537,0.002,0.841-0.074,0.923-0.73
	c0.232-1.866,0.56-3.72,0.85-5.579c-0.445-0.476,0.023-1.144-0.243-1.531c-1.081,1.777-0.553,3.9-1.014,5.899
	c-0.338,1.466-1.029,1.537-2.033,1.544c-4.291,0.027-8.581,0.016-12.872,0.004c-0.359-0.001-0.899,0.192-1.002-0.337
	c-0.108-0.552-0.357-1.336,0.152-1.661c1.209-0.772,1.094-2,1.159-3.074c0.128-2.099,0.029-4.211,0.024-6.318
	C375.844,43.661,375.226,47.372,374.6,51.082z M307.901,50.852c0.046,0.661,0.328,0.933,1.046,0.92
	c2.437-0.044,4.876-0.015,7.314-0.014c3.46,0.002,6.921,0.012,10.381-0.004c0.445-0.002,1.179,0.228,1.039-0.656
	c-0.227-1.429-0.2-2.897-0.639-4.294c-0.248,0.643-0.267,1.278-0.026,1.939c0.245,0.67,0.307,1.373,0.223,2.086
	c-0.062,0.528-0.251,0.778-0.881,0.774c-5.701-0.032-11.402-0.025-17.103-0.011c-0.615,0.002-0.951-0.127-0.941-0.84
	c0.01-0.67-0.098-1.278,0.178-1.988c0.303-0.778-0.705-1.363-0.9-2.14C307.696,48.034,307.804,49.442,307.901,50.852z
	 M275.206,21.036c0.885-0.833,0.303-1.836,0.351-2.761c-0.119,0.258-0.136,0.527-0.115,0.793c0.05,0.656,0.029,1.359-0.654,1.618
	c-0.569,0.216-1.286,0.462-1.759-0.313c-0.144-0.236-0.334-0.157-0.424,0.076c-0.199,0.518-0.644,0.369-1.011,0.369
	c-4.296,0.009-8.593,0.008-12.889,0.001c-0.341,0-0.713,0.097-0.99-0.235c-0.161-0.192-0.35-0.593-0.622-0.279
	c-0.304,0.351,0.224,0.492,0.36,0.74C263.37,21.042,269.288,21.039,275.206,21.036z M257.464,31.501
	c0.364,0.349,0.82,0.199,1.234,0.2c4.469,0.011,8.938,0.003,13.407,0.01c0.876,0.001,1.845-0.269,2.321,0.756
	c0.558-0.268-0.369-0.767,0.292-0.957C268.966,31.508,263.215,31.505,257.464,31.501z M323.95,25.338
	c-0.497-2.773-0.704-5.595-1.391-8.336c-0.462,2.071,0.858,4.069,0.257,6.148c-0.017,0.06,0.026,0.181,0.077,0.211
	c0.775,0.457,0.463,1.236,0.606,1.893c0.178,0.819,0.29,1.671,0.717,2.421C324.131,26.896,324.088,26.109,323.95,25.338z
	 M222.957,33.35c0.305-2.277,0.3-4.555,0.004-6.833C222.721,28.794,222.66,31.072,222.957,33.35z M219.155,15.135
	c-0.488,0.405-0.054,0.537,0.213,0.718C219.378,15.59,219.378,15.33,219.155,15.135z M322.466,15.872
	c-0.226,0.407-0.346,0.804,0.115,1.142C322.542,16.633,322.504,16.252,322.466,15.872z M220.291,23.902
	c-0.177,5.184-1.238,10.151-3.859,14.692c-3.897,6.752-9.818,10.854-17.235,12.848c-8.187,2.202-16.256,1.868-23.921-1.969
	c-6.977-3.493-10.484-9.436-11.048-17.108c-0.498-6.763,0.752-13.206,4.363-19.024c4.638-7.473,11.57-11.465,20.122-12.894
	c0.751-0.125,1.553-0.029,2.248-0.447c0.473,0,0.947,0,1.42,0c1.025,0.393,2.051,0.376,3.076,0c0.71,0,1.42,0,2.13,0
	c1.638,0.316,3.287,0.581,4.912,0.957c6.39,1.475,11.756,4.475,15.111,10.371c0.679,1.194,1.293,2.432,1.545,3.808
	c-0.034,0.27,0.01,0.518,0.213,0.718C220.207,18.475,220.384,21.179,220.291,23.902z M200.25,20.72
	c-0.766-4.416-3.702-6.427-8.131-5.829c-2.843,0.384-4.683,2.168-5.972,4.528c-1.631,2.987-2.299,6.257-2.379,9.989
	c0.029,0.489,0.043,1.318,0.135,2.139c0.388,3.437,2.408,5.89,5.287,6.278c3.63,0.489,6.638-0.61,8.627-3.825
	C200.354,29.902,201.063,25.409,200.25,20.72z M164.589,27.21c-0.038,1.988-0.368,3.988,0.39,5.937
	C164.655,31.182,165.199,29.16,164.589,27.21z M342.588,88.259l-0.17-0.001c0.664-4.387,1.314-8.776,1.996-13.159
	c0.64-4.115,1.314-8.225,1.976-12.337c0.075-0.467,0.112-0.823-0.571-0.835c-4.305-0.08-8.68-0.558-12.281,2.658
	c-0.489,0.436-1.136,0.695-1.709,1.037c-0.307,0.183-0.595,0.372-0.658,0.776c-0.399,2.545-0.807,5.089-1.249,7.867
	c1.783-0.912,3.334-1.706,5.026-2.571c-0.831,5.476-1.637,10.789-2.444,16.103c0.333,0.144,0.406,0.365,0.197,0.669
	c0,0,0.001,0,0.001,0c0,0,0,0-0.001,0c-0.1,0.026-0.201,0.053-0.301,0.079c-0.004,0.049-0.005,0.098-0.002,0.147
	c0.888,0.008,1.776,0.015,2.663,0.023v0c1.899,0,3.799,0,5.698-0.001c0.489-0.005,0.978-0.01,1.467-0.015c0,0,0,0,0,0
	c0.074,0,0.148,0,0.222,0C342.467,88.546,342.515,88.397,342.588,88.259z M372.333,81.612c-1.341,3.111-3.628,5.265-6.717,6.601
	c0.014,0,0.029,0,0.043,0c-0.822,0.269-1.62,0.66-2.478,0.816c-0.313,0.057-0.625,0.118-0.936,0.181h-5.643
	c-0.148-0.173-0.388-0.092-0.558-0.203c-0.385-0.274-0.826-0.003-1.227-0.121c-0.116-0.033-0.235-0.051-0.355-0.062
	c-0.109-0.292-0.363-0.521-0.794-0.58c-0.111-0.015-0.216-0.044-0.32-0.078c0.015-0.029-0.021-0.069-0.165-0.132
	c-5.377-2.355-6.781-7.697-5.723-13.597c0.277-1.548,0.583-3.089,1.175-4.549c2.19-5.402,6.363-7.988,12.039-8.346
	c2.456-0.155,4.861,0.147,7.159,1.122c3.809,1.616,5.861,4.562,6.24,8.59C374.409,74.827,373.76,78.302,372.333,81.612z
	 M364.131,70.746c-0.145-0.95-0.864-1.53-1.881-1.692c-1.992-0.316-3.452,0.522-4.203,2.561c-0.713,1.933-0.86,3.977-1.042,5.959
	c0,0.404-0.02,0.759,0.003,1.11c0.11,1.685,0.616,2.429,1.868,2.772c1.498,0.411,3.078,0.022,3.734-1.249
	C364.141,77.246,364.636,74.047,364.131,70.746z M405.086,89.055c0.101-0.066,0.213-0.112,0.337-0.131
	c0.462-0.071,0.649-0.179,1.046-0.349c0.098-0.042-0.046,0.034,0.115-0.052c0.017-0.009,0.05-0.032,0.086-0.056
	c0.025-0.039,0.052-0.077,0.077-0.113c0.102-0.146,0.228-0.27,0.368-0.366c0.127-0.14,0.21-0.231,0.286-0.325
	c1.668-2.056,1.427-4.781-0.563-6.405c-2.008-1.638-5.069-1.321-6.656,0.689c-1.463,1.852-1.249,4.008,0.624,6.297
	c0.002,0.009,0.001,0.016,0.003,0.024c1.089,0.63,2.427,0.676,3.652,0.764C404.673,89.047,404.882,89.057,405.086,89.055z
	 M396.389,88.468c0.001-0.004,0.002-0.008,0.003-0.013c-0.055-0.004-0.109-0.007-0.164-0.012c0.056-0.051,0.106-0.109,0.144-0.187
	c0.087-2.01,0.522-3.973,0.834-5.951c0.118-0.75,0.019-0.954-0.759-0.932c-1.867,0.052-3.737,0.017-5.925,0.017
	c1.11-0.946,1.969-1.675,2.825-2.407c1.559-1.333,3.112-2.674,4.18-4.463c3.191-5.347,0.771-11.087-5.264-12.552
	c-1.782-0.432-3.579-0.53-5.394-0.43c-6.081,0.336-10.304,4.102-11.179,9.881c-0.118,0.782-0.021,1.018,0.812,0.999
	c2.363-0.052,4.729-0.058,7.092,0.003c0.772,0.02,1.042-0.292,1.168-0.956c0.11-0.583,0.341-1.126,0.71-1.601
	c0.69-0.89,1.769-1.249,2.593-0.813c1.034,0.548,1.06,1.435,0.794,2.44c-0.379,1.432-1.26,2.53-2.307,3.498
	c-4.192,3.879-8.402,7.739-12.617,11.593c-0.467,0.427-0.899,0.846-0.993,1.485c0.003,0.127-0.016,0.263-0.064,0.408
	c-0.08,0.243-0.143,0.488-0.2,0.733h23.513C396.274,88.971,396.349,88.732,396.389,88.468z M409.56,89.21
	c7.666,0,15.331-0.002,22.997-0.006c0.079-0.14,0.136-0.298,0.157-0.48c0.011-0.096,0.031-0.185,0.059-0.269
	c-0.025-0.213,0.004-0.391,0.067-0.543c0.007-0.113,0.038-0.238,0.058-0.36c0.272-1.708,0.508-3.422,0.82-5.123
	c0.15-0.821-0.043-1.091-0.919-1.059c-1.831,0.069-3.667,0.021-5.772,0.021c1.602-1.37,2.992-2.561,4.384-3.749
	c1.37-1.169,2.42-2.579,3.15-4.221c2.186-4.913,0.071-9.614-5.048-11.254c-2.613-0.837-5.267-0.829-7.938-0.395
	c-5.09,0.827-8.958,4.849-9.391,9.691c-0.061,0.682-0.01,0.976,0.806,0.956c2.402-0.059,4.808-0.049,7.211-0.003
	c0.664,0.013,0.898-0.233,1.005-0.831c0.125-0.704,0.415-1.359,0.922-1.879c0.714-0.731,1.547-1.117,2.546-0.604
	c1.044,0.536,0.916,1.498,0.677,2.374c-0.393,1.44-1.283,2.596-2.373,3.597c-4.178,3.837-8.359,7.671-12.535,11.511
	c-0.288,0.265-0.732,0.535-0.78,0.851c-0.018,0.119-0.044,0.221-0.077,0.309c0.23,0.343,0.305,0.8,0.083,1.241
	C409.63,89.06,409.595,89.135,409.56,89.21z M58.614,51.614c0.446,0.029,0.893,0.049,1.339,0.065
	C59.506,51.661,59.06,51.641,58.614,51.614z M107.697,51.77c-5.756-0.06-11.514-0.038-17.271,0.009
	c-0.89,0.007-1.277-0.227-1.342-1.136c-0.115-1.61-0.333-3.212-0.473-4.821c-0.052-0.596-0.211-0.881-0.907-0.875
	c-4.179,0.036-8.359,0.034-12.539,0.005c-0.634-0.004-0.874,0.271-1.111,0.789c-0.682,1.49-1.424,2.953-2.142,4.427v0
	c-0.434,0.371-1.276,0.547-0.678,1.414l-0.015,0.01c-4.202,0.007-8.404,0.015-12.606,0.022c-1.719,0-3.437,0-5.314,0
	c1.253-2.693,2.444-5.255,3.637-7.815c6.468-13.878,12.949-27.75,19.382-41.645c0.475-1.026,0.976-1.436,2.165-1.423
	c7.176,0.075,14.353,0.061,21.529,0.033c0.979-0.004,1.405,0.175,1.567,1.295c1.406,9.739,2.903,19.465,4.368,29.195
	c0.961,6.383,1.906,12.768,2.887,19.147C108.983,51.372,108.864,51.782,107.697,51.77z M85.599,32.545c0.318,0,0.637,0,0.956,0
	C86.236,32.53,85.918,32.532,85.599,32.545c-1.976,0-3.952,0-5.929,0C81.656,33.107,83.624,32.621,85.599,32.545z M87.276,30.795
	c-0.318-3.363-0.594-6.73-0.972-10.087c-0.142-1.26-0.067-2.558-0.464-3.82c-0.122,0.082-0.218,0.111-0.242,0.169
	c-1.985,4.826-3.959,9.658-5.953,14.481c-0.29,0.702,0.106,0.708,0.594,0.709c1.887,0.004,3.775,0.015,5.662,0.02
	C87.417,32.27,87.415,32.268,87.276,30.795z M97.905,1.357c0.005-0.039,0.01-0.079,0.015-0.118c-6.054,0-12.108,0-18.163,0
	c0,0.039,0,0.079,0,0.118C85.806,1.357,91.855,1.357,97.905,1.357z M105.937,51.499c0-0.028-0.001-0.056-0.001-0.084
	c-4.936,0-9.872,0-14.808,0c0,0.028,0.001,0.056,0.001,0.084C96.065,51.499,101.001,51.499,105.937,51.499z M326.37,51.718
	c-5.713-0.036-11.427-0.037-17.14,0.003c-0.853,0.006-1.098-0.334-1.133-1.078c-0.064-1.351,0.022-2.724-0.504-4.018l0.01,0.012
	c0,0,0,0,0,0c0,0,0,0,0,0c0.136-0.409-0.27-1.038,0.473-1.199c0.006,0.004,0.013,0.008,0.019,0.012
	c0.048,0.577-0.121,1.186,0.24,1.717c0.166-0.614,0.631-1.272-0.241-1.734c-0.187-0.273-0.479-0.365-0.774-0.452c0,0,0,0,0,0l0,0
	c-0.298-0.02-0.595-0.039-0.893-0.059c-0.372-0.338-0.827-0.19-1.245-0.192c-2.915-0.013-5.834,0.083-8.744-0.046
	c-1.07-0.047-2.116,0.025-3.165,0.154c-0.122,0,0.037-0.048-0.096,0.002c-0.015,0.006-0.023,0.01-0.033,0.015
	c-0.282,0.036-0.564,0.075-0.847,0.118c0.308,0,0.616,0,0.923,0l0,0c-0.915,1.961-1.854,3.911-2.731,5.889
	c-0.27,0.608-0.632,0.769-1.268,0.767c-5.323-0.013-10.646-0.01-15.968,0.038c-0.953,0.009-1.133-0.126-0.695-1.06
	c4.817-10.26,9.592-20.54,14.382-30.813c2.778-5.957,5.561-11.911,8.344-17.865c0.082-0.176,0.192-0.339,0.289-0.509l0,0
	c0.948-0.653,2.028-0.469,3.072-0.471c6.467-0.007,12.934,0.032,19.4-0.034c1.203-0.012,2.047,0.149,2.318,1.443
	c0.7,4.504,1.401,9.008,2.101,13.512c-0.034,0.388-0.22,0.791,0.115,1.142l-0.021-0.011c0.344,3.59,0.913,7.145,1.657,10.673
	c0.58,2.531,0.842,5.114,1.232,7.676c0.527,3.462,1.042,6.926,1.551,10.391c0.051,0.348,0.03,0.707,0.043,1.061
	c-0.121,1.262,0.324,2.466,0.379,3.716C327.46,51.37,327.317,51.724,326.37,51.718z M299.194,32.269
	c2.01-0.006,4.021-0.032,6.031,0.016c0.8,0.019,1.022-0.248,0.928-1.022c-0.189-1.563-0.306-3.135-0.449-4.704
	c-0.3-3.289-0.599-6.578-0.898-9.867c-0.113-0.007-0.225-0.015-0.338-0.022c-2.008,4.948-4.022,9.893-6.018,14.846
	C298.158,32.24,298.67,32.27,299.194,32.269z M306.512,32.529c-2.036,0-4.072,0-6.108,0c-0.331-0.013-0.662-0.015-0.994,0
	c0.331,0,0.663,0,0.994,0C302.438,32.606,304.462,33.091,306.512,32.529z M317.716,1.333c0-0.039,0-0.078-0.001-0.117
	c-6.969,0-13.938,0-20.907,0c-0.014,0.039-0.028,0.078-0.042,0.117C303.75,1.333,310.733,1.333,317.716,1.333z M308.077,45.437
	c0.006,0.003,0.011,0.007,0.017,0.01c0-0.005,0-0.01-0.001-0.015C308.087,45.434,308.083,45.436,308.077,45.437z M162.006,20.244
	c-1.783,9.251-7.758,14.641-17.13,15.772c-2.714,0.328-5.43,0.185-8.147,0.229c-2.024,0.032-2.038,0.074-2.332,2.029
	c-0.621,4.124-1.289,8.241-1.9,12.367c-0.148,0.999-0.761,1.159-1.588,1.157c-4.533-0.011-9.066-0.01-13.599-0.016
	c-0.985-0.001-1.975-0.074-2.955-0.008c-0.939,0.063-1.154-0.288-1.006-1.165c0.517-3.065,0.984-6.137,1.472-9.207
	c1.24-7.81,2.477-15.621,3.722-23.43c0.879-5.517,1.769-11.032,2.655-16.548c0,0,0,0,0,0c6.102-0.034,12.207,0.33,18.311-0.212
	c-0.034,0.024-0.068,0.044-0.103,0.059c0.04,0.001,0.079,0.001,0.119,0.003c0.028-0.02,0.042-0.044,0.051-0.068
	c0.084-0.008,0.167-0.013,0.251-0.021c-0.081,0-0.162,0-0.243,0c0.021-0.1-0.069-0.195-0.022-0.084
	c0.018,0.042,0.007,0.064-0.016,0.084c-0.292,0-0.583,0-0.875,0c-5.313,0-10.626,0.005-15.939-0.008
	c-0.45-0.001-0.953,0.178-1.342-0.23c0.301-0.284,0.676-0.156,1.015-0.158c7.449-0.045,14.903-0.216,22.345,0.185
	c4.972,0.268,9.687,1.452,13.388,5.085C162.16,10.01,163.028,14.943,162.006,20.244z M144.325,17.864
	c-0.224-1.984-1.844-3.129-4.544-3.209c-0.039-0.001-0.079,0-0.302,0c-0.496,0.18-1.523-0.493-1.707,0.889
	c-0.337,2.532-0.748,5.055-1.158,7.577c-0.086,0.53,0.061,0.714,0.587,0.723c1.146,0.021,2.293-0.027,3.405-0.281
	C143.301,22.948,144.66,20.824,144.325,17.864z"/>
</svg>
