<!-- Generator: Adobe Illustrator 18.1.1, SVG Export Plug-In  -->
<svg version="1.1"
	 xmlns="http://www.w3.org/2000/svg" xmlns:xlink="http://www.w3.org/1999/xlink" xmlns:a="http://ns.adobe.com/AdobeSVGViewerExtensions/3.0/"
	 x="0px" y="0px" width="97.18px" height="34.86px" viewBox="0 0 97.18 34.86" enable-background="new 0 0 97.18 34.86"
	 xml:space="preserve">
<defs>
</defs>
<path fill-rule="evenodd" clip-rule="evenodd" fill="#868789" d="M78.57,17.2c-0.51,0.13-0.62,0.64-0.95,0.98
	c0.74,0.24,1.03-0.39,1.5-0.65c-0.11,0.5,0.28,0.76,1,0.66C79.75,17.58,79.4,16.99,78.57,17.2z M82.56,11.49h-0.9v5.17h0.9V11.49z
	 M88.22,18.42H87.3v5.17h0.92V18.42z M51.63,18.42h-0.92v5.17h0.92V18.42z M61.23,4.5v5.21h0.93V4.5H61.23z M62.15,11.48h-0.93v5.17
	h0.93V11.48z M83.43,16.65h3.63v-0.87h-2.71v-4.3h-0.92V16.65z M74.26,4.51h-0.94V9.7h3.66V8.85h-2.72V4.51z M76.77,12.35h1.63v4.3
	h0.97v-4.32h1.62v-0.85h-4.22V12.35z M64.48,16.68c0.18,0,0.31-0.02,0.45,0c0.4,0.06,0.54-0.08,0.52-0.51
	c-0.03-1.13-0.01-2.26,0-3.39c0-0.14,0.01-0.28,0.02-0.46h1.61v-0.84h-4.27c-0.01,0.14-0.01,0.28-0.03,0.41
	c-0.05,0.36,0.09,0.49,0.46,0.46c0.39-0.04,0.78-0.01,1.24-0.01V16.68z M73.2,15.35c-0.63-0.67-0.65-1.8-0.06-2.52
	c0.62-0.75,1.55-0.77,2.68-0.05l0.59-0.69c-1.23-1.08-3.13-0.95-4.12,0.24c-0.95,1.15-0.75,2.99,0.43,3.88
	c1.14,0.86,2.98,0.7,3.7-0.35l-0.57-0.54C74.79,16.06,73.86,16.07,73.2,15.35z M47.38,14.58h1.77l-0.89-2.14L47.38,14.58z
	 M50.99,16.65c-0.97,0.09-0.99,0.1-1.29-0.74c-0.13-0.38-0.34-0.48-0.71-0.46c-0.54,0.03-1.07,0.02-1.61,0
	c-0.29-0.02-0.43,0.09-0.5,0.35c-0.02,0.06-0.05,0.13-0.08,0.19c-0.3,0.75-0.3,0.75-1.2,0.65c0.04-0.12,0.07-0.25,0.12-0.37
	c0.64-1.5,1.3-2.99,1.92-4.5c0.15-0.39,0.4-0.35,0.7-0.37c0.31-0.03,0.46,0.09,0.58,0.37c0.63,1.52,1.29,3.03,1.93,4.54L50.99,16.65
	z M90.34,21.51h1.75l-0.87-2.12L90.34,21.51z M88.53,23.56c0.72-1.69,1.43-3.36,2.15-5.01c0.05-0.1,0.26-0.19,0.38-0.19
	c0.24,0.01,0.63,0.02,0.69,0.15c0.75,1.67,1.46,3.35,2.21,5.1c-0.31,0-0.57,0.03-0.82-0.01c-0.11-0.02-0.27-0.16-0.29-0.27
	c-0.16-0.83-0.67-1.06-1.46-0.94c-0.37,0.06-0.74,0.02-1.11,0c-0.23-0.01-0.36,0.08-0.42,0.29c-0.03,0.11-0.08,0.21-0.12,0.31
	C89.45,23.7,89.4,23.72,88.53,23.56z M79.74,21.53l-0.89-2.14l-0.87,2.14H79.74z M81.58,23.61c-0.31,0-0.58,0.03-0.85-0.01
	c-0.09-0.01-0.23-0.16-0.24-0.27c-0.15-0.85-0.68-1.05-1.47-0.94c-0.36,0.05-0.74,0.02-1.1,0c-0.24-0.01-0.36,0.08-0.42,0.29
	c-0.03,0.09-0.07,0.18-0.11,0.27c-0.3,0.76-0.31,0.76-1.22,0.62l0.23-0.56c0.62-1.43,1.24-2.87,1.83-4.31
	c0.13-0.29,0.29-0.39,0.59-0.36c0.28,0.03,0.53-0.04,0.68,0.34c0.63,1.55,1.3,3.08,1.96,4.61L81.58,23.61z M40.12,28.07l0.38-0.03
	V0.03L40.12,0V28.07z M68.1,4.63c0,1.02-0.02,2.04,0,3.07c0.02,1.21,0.66,1.95,1.86,2.09c1.33,0.16,2.64-0.37,2.68-2.16
	c0.02-0.83,0.01-1.66,0.01-2.49V4.48c-0.2,0-0.34,0.01-0.47-0.01c-0.42-0.06-0.54,0.09-0.53,0.51c0.03,0.92,0.02,1.83,0,2.74
	c-0.03,0.76-0.52,1.21-1.27,1.21c-0.76,0-1.26-0.46-1.29-1.23c-0.02-0.41-0.02-0.82-0.02-1.23V4.5h-0.93
	C68.12,4.55,68.1,4.59,68.1,4.63z M56.04,16.64H57V14.5h2.44v2.15h0.93v-5.16h-0.96v2.07h-2.44v-2.08h-0.93V16.64z M67.79,16.65
	h3.85c0.15-0.81,0.13-0.83-0.61-0.83h-0.74h-1.55v-1.36h2.54V13.6h-2.54v-1.33h2.87v-0.79h-3.82V16.65z M46.55,22.75h1.05
	c0.95-0.01,1.63-0.61,1.74-1.55c0.11-0.94-0.45-1.74-1.39-1.91c-0.45-0.08-0.92-0.05-1.4-0.07V22.75z M45.59,18.35
	c0.97,0.05,1.94,0,2.87,0.18c1.25,0.24,2,1.4,1.89,2.68c-0.11,1.28-1.04,2.26-2.32,2.35c-0.8,0.06-1.6,0.01-2.44,0.01V18.35z
	 M52.24,14.08c0.53,0,1.02,0.02,1.51,0c0.46-0.02,0.8-0.34,0.85-0.75c0.07-0.42-0.14-0.86-0.54-0.93c-0.6-0.1-1.21-0.09-1.84-0.14
	l0.01,1.53L52.24,14.08z M51.28,11.47c0.93,0,1.82-0.03,2.71,0c0.85,0.04,1.46,0.58,1.59,1.34c0.15,0.9-0.22,1.53-1.2,1.99L55,15.7
	l0.66,0.98c-0.39,0-0.69,0.01-0.98-0.01c-0.1-0.01-0.21-0.11-0.27-0.2c-0.27-0.38-0.55-0.75-0.78-1.16
	c-0.18-0.31-0.39-0.45-0.76-0.4c-0.19,0.03-0.4,0.01-0.64,0.01v1.73h-0.95V11.47z M93.78,14.08c0.53,0,1.03,0.02,1.51,0
	c0.48-0.03,0.8-0.36,0.85-0.8c0.04-0.41-0.2-0.84-0.61-0.9c-0.58-0.08-1.16-0.08-1.75-0.11V14.08z M92.82,11.47
	c0.92,0,1.81-0.03,2.7,0.01c0.87,0.03,1.44,0.56,1.59,1.38c0.15,0.84-0.24,1.48-1.2,1.93l1.27,1.89c-0.37,0-0.67,0.02-0.96-0.01
	c-0.11-0.02-0.23-0.13-0.3-0.23c-0.24-0.33-0.5-0.66-0.69-1.02c-0.22-0.41-0.52-0.58-0.99-0.51c-0.13,0.02-0.27,0.01-0.46,0.01v1.73
	h-0.96V11.47z M61.07,21.06c0.59-0.03,1.16-0.02,1.72-0.1c0.44-0.07,0.63-0.4,0.63-0.83c0-0.44-0.2-0.75-0.65-0.82
	c-0.55-0.08-1.12-0.07-1.7-0.1V21.06z M60.11,18.43c0.97,0,1.93-0.05,2.89,0.01c0.73,0.04,1.28,0.6,1.39,1.25
	c0.15,0.88-0.17,1.54-0.91,1.91l-0.28,0.14l1.22,1.8c-0.75,0.22-1.03,0.13-1.42-0.46l-0.34-0.51c-0.55-0.81-0.55-0.81-1.62-0.68
	v0.84v0.85h-0.93V18.43z M57.01,8.85c0.42,0,0.81,0.01,1.2,0c0.83-0.03,1.5-0.64,1.58-1.43c0.12-1.03-0.35-1.83-1.24-2.01
	c-0.5-0.1-1.02-0.08-1.54-0.11V8.85z M56.02,9.66V4.48c1.08,0.05,2.17-0.18,3.21,0.21c1.1,0.42,1.73,1.5,1.62,2.67
	c-0.11,1.15-0.97,2.14-2.12,2.28C57.85,9.74,56.96,9.66,56.02,9.66z M52.25,7.13c0.54,0,1.03,0.01,1.52-0.01
	c0.48-0.02,0.81-0.34,0.85-0.77c0.04-0.54-0.17-0.9-0.71-0.96c-0.54-0.07-1.1-0.02-1.68-0.02V6.8L52.25,7.13z M51.27,9.71V4.55
	c1.05,0,2.07-0.08,3.09,0.02c0.78,0.08,1.18,0.65,1.26,1.4c0.08,0.81-0.23,1.39-0.94,1.74L54.4,7.84l1.24,1.82
	c-0.74,0.22-1.05,0.11-1.44-0.47c-0.13-0.18-0.28-0.34-0.36-0.54c-0.3-0.74-0.88-0.78-1.59-0.64v1.7H51.27z M65.7,20.99
	c0.01,1.05,0.78,1.85,1.78,1.84c0.99-0.01,1.76-0.81,1.75-1.83c0-1.02-0.81-1.85-1.79-1.84C66.44,19.17,65.7,19.95,65.7,20.99z
	 M70.24,21c0,1.53-1.21,2.71-2.78,2.71c-1.57,0.01-2.8-1.18-2.81-2.7c0-1.53,1.25-2.73,2.83-2.72C69.08,18.31,70.25,19.45,70.24,21z
	 M87.91,14.07c0.01,1.04,0.76,1.81,1.76,1.81s1.74-0.76,1.74-1.81c0-1.06-0.75-1.84-1.78-1.83C88.62,12.26,87.91,13.01,87.91,14.07z
	 M89.68,11.37c1.6,0.01,2.78,1.15,2.77,2.7c0,1.52-1.24,2.71-2.81,2.7s-2.78-1.19-2.78-2.72C86.87,12.53,88.09,11.37,89.68,11.37z
	 M48.11,8.93c1.03,0,1.79-0.79,1.78-1.84c-0.01-1.03-0.81-1.85-1.8-1.84c-0.99,0.01-1.76,0.81-1.76,1.83
	C46.32,8.13,47.1,8.93,48.11,8.93z M50.91,7.09c0,1.56-1.21,2.73-2.81,2.73c-1.59,0-2.79-1.15-2.79-2.69
	c-0.01-1.58,1.22-2.78,2.83-2.76C49.73,4.39,50.91,5.55,50.91,7.09z M67.43,4.51h-0.96v3.53C65.64,6.96,64.86,6.01,64.16,5
	c-0.36-0.52-0.77-0.61-1.33-0.48v5.19h0.93V6.02c0.86,1.12,1.67,2.13,2.42,3.18c0.33,0.45,0.66,0.66,1.25,0.49V4.51z M52.34,23.58
	h0.97v-3.64l0.23,0.27l2.29,2.99c0.36,0.46,0.57,0.53,1.13,0.34v-5.16H56v3.54c-0.82-1.08-1.61-2.04-2.31-3.06
	c-0.36-0.51-0.77-0.6-1.35-0.47V23.58z M81.89,23.59h0.95v-3.67l0.29,0.36c0.73,0.95,1.49,1.88,2.18,2.86
	c0.32,0.46,0.68,0.56,1.19,0.43v-5.21h-0.94v3.45c-0.84-0.97-1.62-1.93-2.32-2.95c-0.36-0.51-0.78-0.6-1.35-0.47V23.59z
	 M71.88,18.69c-0.07-0.12-0.19-0.27-0.31-0.28c-0.32-0.04-0.64-0.01-0.96-0.01v5.18h0.94c0-1-0.01-1.96,0-2.93
	c0-0.14,0.09-0.28,0.14-0.42c0.1,0.1,0.23,0.17,0.31,0.29c0.39,0.57,0.78,1.16,1.19,1.78l1.59-2.37l0.07,0.02v3.63h0.95V18.4
	c-0.2,0-0.38,0.02-0.55-0.01c-0.41-0.06-0.64,0.11-0.84,0.46c-0.36,0.64-0.77,1.25-1.2,1.94C72.74,20.04,72.32,19.36,71.88,18.69z
	 M14.83,23.57v-8.75c0.91,0,1.77,0,2.63,0c1.31,0.01,2.36,0.85,2.63,2.1c0.27,1.18-0.35,2.4-1.49,2.94l-0.28,0.15
	c0.61,1.1,1.22,2.17,1.8,3.24c0.15,0.27,0.31,0.36,0.61,0.36c2.32-0.02,4.63-0.01,6.95-0.01c0.14,0,0.28-0.01,0.48-0.03L17.52,5.25
	L6.89,23.57H14.83z M35.04,17.45c-0.01,9.65-7.85,17.42-17.57,17.41C7.82,34.84-0.01,27.02,0,17.42C0,7.78,7.87-0.01,17.58,0.01
	C27.24,0.03,35.05,7.83,35.04,17.45z"/>
</svg>
