<!-- Generator: Adobe Illustrator 21.1.0, SVG Export Plug-In  -->
<svg version="1.1"
	 xmlns="http://www.w3.org/2000/svg" xmlns:xlink="http://www.w3.org/1999/xlink" xmlns:a="http://ns.adobe.com/AdobeSVGViewerExtensions/3.0/"
	 x="0px" y="0px" width="76.5px" height="19.5px" viewBox="0 0 76.5 19.5" style="enable-background:new 0 0 76.5 19.5;"
	 xml:space="preserve">
<style type="text/css">
	.st0{fill-rule:evenodd;clip-rule:evenodd;fill:#868789;}
</style>
<defs>
</defs>
<path class="st0" d="M0,1.8c0-0.9,0.7-1.6,1.6-1.6c0.9,0,1.6,0.7,1.6,1.6c0,0.9-0.7,1.6-1.6,1.6C0.7,3.3,0,2.6,0,1.8z M6.1,3.3
	c0.9,0,1.6-0.7,1.6-1.6c0-0.9-0.7-1.6-1.6-1.6c-0.9,0-1.6,0.7-1.6,1.6C4.6,2.6,5.3,3.3,6.1,3.3z M10.7,3.3c0.9,0,1.6-0.7,1.6-1.6
	c0-0.9-0.7-1.6-1.6-1.6c-0.9,0-1.6,0.7-1.6,1.6C9.1,2.6,9.8,3.3,10.7,3.3z M10.7,7.9c0.9,0,1.6-0.7,1.6-1.6c0-0.9-0.7-1.6-1.6-1.6
	c-0.9,0-1.6,0.7-1.6,1.6C9.1,7.2,9.8,7.9,10.7,7.9z M6.1,7.9c0.9,0,1.6-0.7,1.6-1.6c0-0.9-0.7-1.6-1.6-1.6c-0.9,0-1.6,0.7-1.6,1.6
	C4.6,7.2,5.3,7.9,6.1,7.9z M1.6,7.9c0.9,0,1.6-0.7,1.6-1.6c0-0.9-0.7-1.6-1.6-1.6C0.7,4.8,0,5.5,0,6.3C0,7.2,0.7,7.9,1.6,7.9z
	 M10.7,12.5c0.9,0,1.6-0.7,1.6-1.6c0-0.9-0.7-1.5-1.6-1.5c-0.9,0-1.6,0.7-1.6,1.5C9.1,11.8,9.8,12.5,10.7,12.5z M6.1,12.5
	c0.9,0,1.6-0.7,1.6-1.6C7.7,10,7,9.3,6.1,9.3c-0.9,0-1.6,0.7-1.6,1.5C4.6,11.8,5.3,12.5,6.1,12.5z M1.6,12.5c0.9,0,1.6-0.7,1.6-1.6
	c0-0.9-0.7-1.5-1.6-1.5C0.7,9.3,0,10,0,10.9C0,11.8,0.7,12.5,1.6,12.5z M70,18.1c0.1,0,0.2-0.1,0.3-0.2c0.1-0.1,0.2-0.2,0.2-0.2
	c0,0.2,0,0.3,0,0.4h0.9c0-0.2,0-0.4,0-0.5c0-0.2,0-0.3,0-0.3V16c0-0.3,0-0.5-0.1-0.6c0-0.1-0.1-0.2-0.2-0.3
	c-0.2-0.2-0.5-0.2-0.9-0.2c0,0-0.1,0-0.1,0v0.7c0.2,0,0.4,0.1,0.4,0.3c0,0.1,0,0.2,0,0.3c0,0,0,0-0.1,0c0,0-0.1,0-0.1,0
	c-0.1,0-0.2,0-0.3,0v0.5c0.1,0,0.3,0,0.5,0v0.2c0,0.3-0.1,0.5-0.3,0.7c-0.1,0-0.1,0.1-0.2,0.1V18.1L70,18.1z M72.8,15.2
	c0-0.1,0-0.2,0-0.3h-0.9c0,0.3,0,0.6,0,0.8v2.4h1v-1.9c0-0.2,0-0.3,0.1-0.4c0.1-0.1,0.2-0.2,0.3-0.2c0.1,0,0.1,0,0.2,0.1
	c0.1,0.1,0.1,0.2,0.1,0.4v2h1v-1.9c0-0.2,0.1-0.4,0.2-0.5c0.1,0,0.1-0.1,0.2-0.1c0.1,0,0.2,0,0.3,0.1c0,0.1,0.1,0.2,0.1,0.4v2h1
	v-2.2c0-0.2,0-0.3-0.1-0.4c-0.1-0.4-0.4-0.6-0.9-0.6c-0.3,0-0.6,0.1-0.8,0.3c0,0-0.1,0.1-0.1,0.2c-0.2-0.3-0.5-0.5-0.8-0.5
	c-0.4,0-0.7,0.2-0.9,0.6V15.2L72.8,15.2z M70.5,9.7c0,1,0.2,1.7,0.7,2.1c0.4,0.4,1.2,0.6,2.3,0.6s1.9-0.2,2.3-0.6
	c0.4-0.4,0.7-1.1,0.7-2.1V0.4c-0.8-0.2-1.5-0.2-2.3,0v8.4V9c0,0.6,0,1-0.1,1.2c-0.1,0.2-0.3,0.2-0.5,0.2c-0.3,0-0.4-0.1-0.5-0.2
	c-0.1-0.2-0.1-0.5-0.1-1.2V0.4c-0.8-0.2-1.5-0.2-2.3,0V9.7z M70,14.9c-0.3,0-0.6,0.1-1,0.2l0,0.7c0.3-0.2,0.6-0.3,0.9-0.3
	c0,0,0.1,0,0.1,0V14.9L70,14.9z M70,16.1C70,16.1,70,16.1,70,16.1c-0.6,0-1,0.2-1.2,0.5c-0.1,0.2-0.2,0.4-0.2,0.6
	c0,0.3,0.1,0.6,0.3,0.8c0.2,0.1,0.4,0.2,0.6,0.2c0.1,0,0.3,0,0.4-0.1v-0.5c0,0,0,0-0.1,0c-0.1,0-0.2,0-0.2-0.1
	c-0.1-0.1-0.1-0.2-0.1-0.3c0-0.2,0.1-0.3,0.2-0.4c0.1,0,0.1-0.1,0.3-0.1V16.1L70,16.1z M66.9,18.2c0.1,0,0.1,0,0.2,0
	c0.3,0,0.7-0.1,1.1-0.2l0-0.7c-0.3,0.2-0.6,0.2-1,0.2c-0.1,0-0.2,0-0.3,0V18.2L66.9,18.2z M66.9,16.8h1.4c0,0,0,0,0-0.1
	c0,0,0-0.1,0-0.1c0-0.5-0.1-0.9-0.3-1.2c-0.1-0.1-0.1-0.2-0.2-0.3c-0.2-0.2-0.5-0.3-0.8-0.3c0,0,0,0,0,0v0.6c0,0,0,0,0,0
	c0.2,0,0.3,0.1,0.4,0.3c0,0.1,0.1,0.3,0.1,0.5h-0.5V16.8L66.9,16.8z M68.3,12.2V9.4h0.8c0.2-0.7,0.2-1.3,0-2h-0.8V1
	c-0.4-0.2-0.9-0.3-1.4-0.3v11.5H68.3z M66.9,0.7c-0.5,0-1,0-1.6,0.2v4.4L66.2,3L66,7.5h-0.7v1.9H66v2.8h0.9V0.7L66.9,0.7z
	 M66.1,15.1c-0.2,0.2-0.4,0.4-0.5,0.7c-0.1,0.2-0.1,0.4-0.1,0.7c0,0.4,0.1,0.7,0.3,1c0.1,0.2,0.3,0.4,0.5,0.5
	c0.2,0.1,0.4,0.1,0.7,0.2v-0.7c-0.2-0.1-0.4-0.2-0.5-0.5c0-0.1,0-0.1,0-0.2h0.5v-0.5h-0.5c0-0.3,0.1-0.5,0.2-0.7
	c0.1-0.1,0.2-0.1,0.3-0.1v-0.6C66.6,14.9,66.3,15,66.1,15.1z M65.3,0.9C65.2,0.9,65.1,1,65,1l-2.5,6.3c-0.3,0.7-0.3,1.4,0,2.1h2.8
	V7.5h-0.8l0.8-2.2V0.9L65.3,0.9z M54.4,18.2C54.4,18.2,54.4,18.2,54.4,18.2c0.2,0,0.4,0,0.5-0.1c0.5-0.1,0.8-0.5,1-1
	c0-0.1,0.1-0.3,0.1-0.5c0-0.6-0.2-1-0.5-1.3c-0.3-0.2-0.6-0.3-1-0.3c0,0,0,0,0,0v0.7c0.2,0,0.3,0.1,0.4,0.2c0.1,0.2,0.2,0.4,0.2,0.8
	c0,0.4-0.1,0.6-0.2,0.8c-0.1,0.1-0.2,0.1-0.3,0.1c0,0,0,0,0,0V18.2L54.4,18.2z M54.4,12.2c0.3-0.1,0.5-0.2,0.7-0.4
	c0.4-0.4,0.6-1.1,0.6-2.1V6.1c0-1-0.2-1.7-0.7-2.1c-0.2-0.2-0.4-0.3-0.7-0.4V12.2L54.4,12.2z M59.2,14.9h-1v1.8c0,0.2,0,0.4-0.1,0.5
	c-0.1,0.1-0.2,0.2-0.4,0.2s-0.2-0.1-0.3-0.2c0-0.1,0-0.2,0-0.3v-2h-1v2c0,0.3,0.1,0.6,0.2,0.8c0.1,0.3,0.4,0.4,0.8,0.4
	c0.1,0,0.3,0,0.4,0c0.2-0.1,0.3-0.2,0.4-0.3c0,0,0.1-0.1,0.1-0.2c0,0.2,0,0.3,0,0.5h0.9c0-0.5,0-0.7,0-0.8V14.9L59.2,14.9z
	 M59.6,14.9c0,0.4,0.1,0.8,0.1,1.1v2.1h1v-1.6c0-0.1,0-0.2,0-0.3c0-0.1,0.1-0.2,0.2-0.3c0.1-0.1,0.3-0.2,0.5-0.2c0.1,0,0.2,0,0.2,0
	v-0.9c0,0,0,0-0.1,0c0,0,0,0-0.1,0c-0.4,0-0.7,0.2-0.9,0.6c0-0.3,0-0.5,0-0.6H59.6L59.6,14.9z M65.2,14.9h-0.6v-1l-0.9,0.3l0,0.7
	h-0.6v0.7h0.5v1.5c0,0.2,0,0.4,0,0.5c0.1,0.4,0.4,0.6,1,0.6c0.2,0,0.3,0,0.6-0.1l0-0.7c-0.1,0-0.2,0-0.2,0c-0.1,0-0.1,0-0.2,0
	c-0.1-0.1-0.2-0.2-0.2-0.4v-1.5h0.6V14.9L65.2,14.9z M59.5,12.2v-4c0-0.6,0.1-1,0.3-1.3c0.2-0.3,0.6-0.4,1.1-0.4c0.1,0,0.1,0,0.2,0
	c0.1,0,0.2,0,0.3,0c0.5-1.1,0.5-2.1,0-3c-0.5,0.2-1,0.4-1.3,0.7c-0.3,0.3-0.6,0.6-0.7,1.1l0.1-1.6c-0.8-0.5-1.6-0.5-2.3,0v8.5H59.5z
	 M54.4,3.7c-0.4-0.1-0.9-0.2-1.5-0.2l0,0v1.8c0.2,0,0.4,0.1,0.5,0.2c0.1,0.1,0.1,0.4,0.1,0.9v3.1c0,0.5,0,0.8-0.1,0.9
	c-0.1,0.1-0.3,0.2-0.5,0.2v1.8l0,0c0.6,0,1.1-0.1,1.5-0.2V3.7L54.4,3.7z M53.1,15.5c-0.1,0.2-0.2,0.4-0.2,0.6v0.7
	c0,0.2,0.1,0.4,0.2,0.6c0.2,0.3,0.4,0.5,0.7,0.6c0.2,0.1,0.4,0.1,0.6,0.1v-0.7c-0.3,0-0.5-0.3-0.5-1c0-0.4,0.1-0.7,0.3-0.9
	c0.1,0,0.2-0.1,0.3-0.1l0,0v-0.7C53.8,14.9,53.4,15.1,53.1,15.5z M52.9,3.4c-1.1,0-1.8,0.2-2.2,0.6C50.2,4.4,50,5.1,50,6.1v3.6
	c0,1,0.2,1.7,0.6,2.1c0.4,0.4,1.2,0.6,2.3,0.6v-1.8h0c-0.2,0-0.4-0.1-0.5-0.2c-0.1-0.2-0.1-0.4-0.1-0.8V6.3c0-0.5,0-0.8,0.1-0.9
	c0.1-0.1,0.3-0.2,0.5-0.2h0V3.4L52.9,3.4z M52.9,16.1c0,0.1,0,0.2,0,0.3s0,0.2,0,0.3V16.1L52.9,16.1z M46.2,18.1
	c0.2-0.1,0.4-0.2,0.5-0.5c0,0.3,0,0.4,0,0.5h0.9c0-0.1,0-0.2,0-0.3c0-0.2,0-0.3,0-0.4v-3.9h-1V15l0,0.4c-0.1-0.2-0.3-0.4-0.5-0.5
	v0.6c0.2,0,0.3,0.1,0.4,0.3c0,0.1,0.1,0.3,0.1,0.6c0,0.4-0.1,0.7-0.2,0.9c-0.1,0.1-0.2,0.1-0.2,0.1V18.1L46.2,18.1z M46.2,12.4
	c0.9,0,1.6-0.2,1.9-0.6c0.4-0.4,0.6-1.1,0.6-2.1V6.1c0-1-0.2-1.7-0.6-2.1c-0.4-0.3-1-0.5-1.9-0.6v1.8c0.1,0,0.1,0.1,0.2,0.1
	c0.1,0.1,0.1,0.4,0.1,0.9v3.1c0,0.5,0,0.8-0.1,0.9c0,0.1-0.1,0.1-0.2,0.1V12.4L46.2,12.4z M50.6,18.1c0,0.1,0,0.1,0,0.2
	c-0.1,0.3-0.2,0.4-0.5,0.4c-0.1,0-0.2,0-0.3,0l0,0.7c0.2,0,0.4,0.1,0.6,0.1c0.4,0,0.7-0.1,0.9-0.4c0.1-0.1,0.1-0.2,0.2-0.3
	c0-0.1,0.1-0.2,0.1-0.3l1.1-3.5h-1l-0.6,2.3l-0.6-2.3h-1L50.6,18.1z M46.2,3.5c-0.1,0-0.2,0-0.3,0c-1,0-1.8,0.2-2.2,0.6
	C43.2,4.4,43,5.1,43,6.1v3.6c0,1,0.2,1.7,0.6,2.1c0.4,0.4,1.2,0.6,2.3,0.6c0.1,0,0.2,0,0.3,0v-1.8c-0.1,0-0.2,0-0.3,0
	c-0.2,0-0.4-0.1-0.5-0.2c-0.1-0.2-0.1-0.4-0.1-0.8V6.3c0-0.5,0-0.8,0.1-0.9c0.1-0.1,0.2-0.2,0.5-0.2c0.1,0,0.2,0,0.3,0.1V3.5
	L46.2,3.5z M46.2,14.9c-0.1,0-0.2-0.1-0.3-0.1c-0.3,0-0.6,0.1-0.8,0.4c-0.2,0.3-0.4,0.7-0.4,1.3c0,0.6,0.1,1.1,0.4,1.4
	c0.2,0.2,0.4,0.3,0.7,0.3c0.1,0,0.2,0,0.3,0v-0.6c0,0,0,0,0,0c-0.1,0-0.3-0.1-0.3-0.2c0-0.1-0.1-0.2-0.1-0.2c0-0.1,0-0.3,0-0.5
	c0-0.4,0.1-0.7,0.2-0.9c0.1-0.1,0.2-0.1,0.3-0.1h0V14.9L46.2,14.9z M43.2,17.9c0.1-0.1,0.2-0.2,0.2-0.2c0,0.2,0,0.3,0,0.4h0.9
	c0-0.2,0-0.4,0-0.5c0-0.2,0-0.3,0-0.3V16c0-0.3,0-0.5-0.1-0.6c-0.1-0.1-0.1-0.2-0.2-0.3c-0.2-0.2-0.5-0.2-0.9-0.2c0,0-0.1,0-0.1,0
	v0.7c0.2,0,0.4,0.1,0.4,0.3c0,0.1,0.1,0.2,0.1,0.3c0,0,0,0-0.1,0s-0.1,0-0.1,0c-0.1,0-0.2,0-0.3,0v0.5c0.1,0,0.3,0,0.5,0v0.2
	c0,0.3-0.1,0.5-0.3,0.7c-0.1,0-0.1,0.1-0.2,0.1v0.5C43,18.1,43.1,18,43.2,17.9z M42.9,14.9c-0.3,0-0.6,0.1-1,0.2l0,0.7
	c0.3-0.2,0.6-0.3,0.9-0.3c0,0,0.1,0,0.1,0V14.9L42.9,14.9z M42.9,16.1C42.9,16.1,42.9,16.1,42.9,16.1c-0.6,0-1,0.2-1.2,0.5
	c-0.1,0.2-0.2,0.4-0.2,0.6c0,0.3,0.1,0.6,0.4,0.8c0.2,0.1,0.4,0.2,0.6,0.2c0.1,0,0.3,0,0.4-0.1v-0.5c0,0,0,0-0.1,0
	c-0.1,0-0.2,0-0.2-0.1c-0.1-0.1-0.2-0.2-0.2-0.3c0-0.2,0.1-0.3,0.2-0.4c0.1,0,0.1-0.1,0.3-0.1V16.1L42.9,16.1z M39.6,18.2
	C39.7,18.2,39.7,18.2,39.6,18.2c0.2,0,0.4,0,0.5-0.1c0.5-0.1,0.8-0.5,1-1c0-0.1,0-0.3,0-0.5c0-0.6-0.2-1-0.5-1.3
	c-0.3-0.2-0.6-0.3-1-0.3l0,0v0.7c0.2,0,0.3,0.1,0.4,0.2c0.1,0.2,0.2,0.4,0.2,0.8c0,0.4-0.1,0.6-0.2,0.8c-0.1,0.1-0.2,0.1-0.3,0.1
	l0,0V18.2L39.6,18.2z M41.7,12.2V0.4c-0.7-0.5-1.4-0.6-2-0.1v11.9H41.7z M39.6,0.3c-0.1,0-0.1,0.1-0.2,0.1v4.3
	c-0.2-0.3-0.4-0.6-0.6-0.8v1.4c0.2,0,0.4,0.1,0.5,0.2c0.1,0.1,0.1,0.4,0.1,0.7v3.4c0,0.4-0.1,0.6-0.1,0.7c-0.1,0.1-0.2,0.2-0.5,0.2
	V12c0.3-0.2,0.5-0.5,0.7-0.9v1.1h0.1V0.3L39.6,0.3z M38.8,15V18c0.1,0,0.1,0.1,0.2,0.1c0.2,0.1,0.4,0.1,0.6,0.1v-0.7
	c-0.4,0-0.5-0.3-0.5-1c0-0.4,0.1-0.7,0.3-0.9c0.1,0,0.2-0.1,0.3-0.1l0,0v-0.7C39.3,14.9,39.1,14.9,38.8,15z M38.8,3.9
	c0,0-0.1-0.1-0.1-0.1c-0.3-0.2-0.7-0.3-1.1-0.3c-0.6,0-1,0.2-1.3,0.6C36.1,4.4,36,4.9,36,5.7v4.4c0,0.8,0.1,1.4,0.4,1.7
	s0.7,0.5,1.3,0.5c0.4,0,0.8-0.1,1.1-0.3c0,0,0.1,0,0.1-0.1v-1.4c0,0,0,0,0,0c-0.2,0-0.4,0-0.5-0.2c-0.1-0.1-0.1-0.4-0.1-0.7V6.2
	c0-0.4,0-0.6,0.1-0.8c0.1-0.1,0.2-0.2,0.5-0.2c0,0,0,0,0,0V3.9L38.8,3.9z M38.8,15c-0.2,0.1-0.4,0.2-0.5,0.4c-0.2,0.3-0.2,0.6-0.2,1
	c0,0.4,0.1,0.7,0.2,0.9c0.1,0.2,0.3,0.4,0.5,0.5V15L38.8,15z M34.8,18.2c0.1,0,0.1,0,0.2,0c0.3,0,0.7-0.1,1.1-0.2l0-0.7
	c-0.3,0.2-0.6,0.2-1,0.2c-0.1,0-0.2,0-0.3,0V18.2L34.8,18.2z M34.8,16.8h1.4c0,0,0,0,0-0.1c0,0,0-0.1,0-0.1c0-0.5-0.1-0.9-0.3-1.2
	c-0.1-0.1-0.2-0.2-0.2-0.3c-0.2-0.2-0.5-0.3-0.8-0.3c0,0,0,0,0,0v0.6c0,0,0,0,0,0c0.2,0,0.3,0.1,0.4,0.3c0.1,0.1,0.1,0.3,0.1,0.5
	h-0.5V16.8L34.8,16.8z M34.8,12.1c0.5-0.7,0.5-1.4,0-2V12.1L34.8,12.1z M34.8,5.5c0.4-0.6,0.4-1.2,0-1.8V5.5L34.8,5.5z M36.7,18.1h1
	v-4.7h-1V18.1z M22.1,9.3V3.3c0-1.2-0.2-2-0.7-2.4c-0.4-0.4-1.2-0.7-2.4-0.7v2.1c0,0,0,0,0,0c0.3,0,0.5,0.1,0.6,0.2
	c0.1,0.1,0.2,0.4,0.2,0.8v5.9c0,0.5-0.1,0.8-0.2,0.9c-0.1,0.1-0.3,0.2-0.6,0.2v2.1c1.1,0,1.9-0.2,2.4-0.7
	C21.9,11.3,22.1,10.5,22.1,9.3L22.1,9.3z M34.8,3.7C34.8,3.7,34.8,3.7,34.8,3.7l-1.3-0.1V1.5c-0.8-0.5-1.5-0.4-2.3,0v2.2h-0.7
	c-0.5,0.6-0.5,1.3,0,1.9h0.7v4.9c0,0.6,0.1,1.1,0.4,1.3c0.2,0.2,0.8,0.4,1.5,0.4h1.7c0,0,0,0,0-0.1v-2c0,0,0,0,0-0.1
	c0,0-0.1,0-0.2,0c-0.1,0-0.1,0-0.1,0c-0.3,0-0.6-0.1-0.8-0.2c-0.1-0.1-0.2-0.3-0.2-0.6V5.6h1.3c0,0,0,0,0-0.1V3.7L34.8,3.7z
	 M34.8,14.9c-0.3,0-0.6,0.1-0.8,0.3c-0.2,0.2-0.4,0.4-0.5,0.7c-0.1,0.2-0.1,0.4-0.1,0.7c0,0.4,0.1,0.7,0.3,1
	c0.1,0.2,0.3,0.4,0.5,0.5c0.2,0.1,0.4,0.1,0.6,0.2v-0.7c-0.2-0.1-0.4-0.2-0.5-0.5c0-0.1,0-0.1,0-0.2h0.5v-0.5h-0.5
	c0-0.3,0.1-0.5,0.2-0.7c0.1-0.1,0.2-0.1,0.3-0.1V14.9L34.8,14.9z M31.3,14.9c0,0.4,0.1,0.8,0.1,1.1v2.1h1v-1.6c0-0.1,0-0.2,0-0.3
	c0-0.1,0.1-0.2,0.2-0.3c0.1-0.1,0.3-0.2,0.5-0.2c0.1,0,0.2,0,0.2,0v-0.9c0,0,0,0-0.1,0c0,0,0,0-0.1,0c-0.4,0-0.7,0.2-0.9,0.6
	c0-0.3,0-0.5,0-0.6H31.3L31.3,14.9z M27.1,3.7v5.8c0,0.4,0,0.7-0.2,0.9c-0.1,0.2-0.3,0.3-0.5,0.3c-0.2,0-0.4-0.1-0.5-0.2
	c-0.1-0.1-0.1-0.4-0.1-0.9V3.7c-0.8-0.5-1.5-0.5-2.3,0v6.5c0,0.8,0.1,1.3,0.4,1.7c0.3,0.4,0.7,0.6,1.3,0.6c0.4,0,0.8-0.1,1.1-0.3
	c0.3-0.2,0.6-0.5,0.9-1v1.1h2.1V3.7C28.5,3.2,27.8,3.2,27.1,3.7z M19.1,10.3C19.1,10.3,19.1,10.3,19.1,10.3c-0.3,0-0.4-0.1-0.6-0.2
	c-0.1-0.2-0.2-0.4-0.2-0.8v-6c0-0.4,0.1-0.6,0.2-0.8c0.1-0.2,0.3-0.2,0.6-0.2V0.2l0,0c-1.1,0-1.9,0.2-2.4,0.7
	c-0.4,0.4-0.7,1.2-0.7,2.4v6.1c0,1.1,0.2,1.9,0.7,2.4c0.4,0.4,1.2,0.7,2.4,0.7l0,0V10.3z"/>
</svg>
