<!-- Generator: Adobe Illustrator 21.1.0, SVG Export Plug-In  -->
<svg version="1.1"
	 xmlns="http://www.w3.org/2000/svg" xmlns:xlink="http://www.w3.org/1999/xlink" xmlns:a="http://ns.adobe.com/AdobeSVGViewerExtensions/3.0/"
	 x="0px" y="0px" width="207.2px" height="397.1px" viewBox="0 0 207.2 397.1" style="enable-background:new 0 0 207.2 397.1;"
	 xml:space="preserve">
<path fill="#868789" d="M3.9,25.6c-2.3-0.8-3.7-2.2-3.8-4.7c-0.1-2.1,0.8-3.7,2.7-4.6c2.1-1.1,4.1-0.5,5.8,1c0.1,0,0.1,0,0.1,0
	c0,0,0.1,0,0.1,0c6-3.4,11.9-6.9,17.9-10.3c0.2-0.1,0.4-0.2,0.6-0.4c0.1,0,0.1-0.1,0.2-0.2c-0.5-2.3,0.1-4.3,2.2-5.6
	c1.8-1.1,3.6-1.1,5.4,0.1c1.9,1.3,2.4,3.2,2,5.5c0.2,0.3,0.6,0.4,0.9,0.6c4.8,2.8,9.7,5.6,14.5,8.4C73.6,27.7,94.9,40,116.2,52.3
	c0.4,0.2,0.8,0.4,1.2,0.6c1.8-1.7,3.9-2.3,6.1-1c2.3,1.3,2.9,3.3,2.4,5.9c15.1,8.7,30.2,17.5,45.2,26.2c1.9-1.7,3.9-2.2,6.1-0.9
	c2.2,1.3,2.8,3.3,2.4,5.7c0.6,0.5,17.6,10.4,18.8,10.9c0.2-0.1,0.3-0.3,0.5-0.4c1.6-1.3,3.7-1.5,5.6-0.5c1.8,1,2.7,3,2.4,5.1
	c-0.3,2-1.8,3.6-3.8,4c-1.4,0.3-2.8,0-4-0.9c-0.2-0.2-0.4-0.3-0.6-0.5c-0.1,0-0.1,0-0.2,0c0,0-0.1,0-0.1,0c-0.2,0.1-0.5,0.3-0.7,0.4
	c-14.8,8.8-29.5,17.6-44.3,26.4c-0.1,0-0.1,0.1-0.1,0.1c0.6,3-0.5,5.3-3.6,6.4c0,0,0,0.1-0.1,0.1c0,0,0,0.1,0,0.1
	c0,6.9,0,13.9,0,20.8c0,0.2,0,0.5,0,0.6c0.2,0.3,0.4,0.3,0.6,0.4c2.2,0.8,3.7,3.2,3.1,5.8c0,0.1,0,0.2,0,0.3c0,0.1,0,0.1,0,0.1
	c0,0,0,0.1,0.1,0.1c5.7,3.3,11.4,6.6,17.1,9.9c0.2,0.1,0.3,0.2,0.5,0.3c0.1,0,0.1,0,0.2,0c0.2-0.1,0.4-0.3,0.6-0.5
	c2.8-2.2,6.8-0.9,7.8,2.5c0.2,0.8,0.2,1.5,0.1,2.3c0,0.2-0.1,0.3-0.1,0.5c0.1,0.1,0.3,0.2,0.5,0.3c6,3.5,12,6.9,18,10.4
	c0.1,0,0.2,0.1,0.3,0.2c0.3-0.2,0.6-0.4,0.8-0.6c2.5-1.8,5.8-0.9,7.2,1.6c1.5,2.7,0.2,5.9-2.3,6.9c-0.3,0.1-0.6,0.3-0.9,0.4
	c-0.1,0.8-0.1,20.7,0,21.8c0.2,0.1,0.5,0.2,0.8,0.3c1.9,0.8,2.9,2.2,3,4.2c0.1,1.9-0.7,3.5-2.4,4.5c-1.8,1.1-4.1,0.9-5.7-0.4
	c-0.2-0.1-0.3-0.3-0.4-0.4c-0.1,0-0.1,0-0.1,0c0,0-0.1,0-0.1,0c-0.2,0.1-0.4,0.2-0.6,0.3c-26.5,15.4-53,30.7-79.6,46.1
	c-0.1,0-0.1,0.1-0.2,0.2c0,0.2,0,0.5,0.1,0.8c0.4,2.9-1.9,5.8-5.3,5.5c-3.1-0.3-4.7-2.9-4.5-5.4c0-0.3,0.1-0.7,0.1-0.9
	c0-0.1-0.1-0.1-0.1-0.1c0,0,0-0.1-0.1-0.1c-6.1-3.5-12.1-7-18.2-10.5c-0.1-0.1-0.3-0.2-0.5-0.2c-0.2,0.2-0.5,0.4-0.7,0.5
	c-1.6,1.3-3.9,1.4-5.6,0.3c-1.9-1.2-2.6-3.5-2.2-5.2c0-0.2,0-0.3,0.1-0.5c-24.1-13.9-48.3-27.9-72.4-41.8c-1.8,1.6-3.8,2.1-6,1
	c-1.8-0.9-2.7-2.5-2.6-4.6c0.1-2.4,1.5-3.9,3.8-4.6c0-17.7,0-35.4,0-53.1c-0.2-0.3-0.5-0.3-0.8-0.4c-1.5-0.7-2.5-1.7-2.9-3.3
	c-0.6-2.6,0.7-4.7,2.7-5.7c0.3-0.1,0.6-0.2,1-0.4c0-0.2,0.1-0.4,0.1-0.6c0-0.2,0-0.5,0-0.7c0-40.6,0-81.3,0-121.9
	C3.9,26.5,3.9,26.1,3.9,25.6z M124.8,154.2c-0.3,0.2-0.5,0.4-0.8,0.6c-1.6,1.1-3.3,1.3-5.1,0.5c-1.9-1-2.9-2.6-2.7-4.7
	c0.1-2.1,1.2-3.5,3.1-4.3c0.2-0.1,0.5-0.2,0.7-0.3c0.1-1.2,0.1-21,0-21.8c-0.3-0.1-0.6-0.2-0.9-0.4c-1.8-0.9-2.8-2.3-2.9-4.2
	c-0.1-2,0.8-3.6,2.5-4.5c1.8-1,3.6-0.8,5.4,0.4c0.2,0.2,0.5,0.4,0.7,0.5c1.8-0.9,44.6-26.5,45.3-27.1c-0.3-1-0.2-2,0-3.1
	C155,77,139.9,68.3,124.8,59.5c-0.7,0.8-1.6,1.2-2.6,1.6c0,0.2-0.1,0.4-0.1,0.6c-0.1,4.7-0.1,20.2,0.1,21.2c0.2,0.1,0.5,0.2,0.7,0.3
	c1.8,0.7,3.1,2.5,3.1,4.5c0,2-0.9,3.5-2.7,4.5c-1.8,0.9-3.6,0.7-5.3-0.5c-0.2-0.2-0.5-0.4-0.7-0.6c-1.3,0.7-2.5,1.5-3.8,2.2
	c-1.3,0.7-2.5,1.5-3.8,2.2c-1.2,0.7-2.5,1.4-3.7,2.2c-1.3,0.7-2.5,1.5-3.8,2.2c-1.2,0.7-2.5,1.4-3.7,2.2c0,0.4,0.1,0.6,0.1,0.9
	c0.1,1.2-0.1,2.4-0.9,3.4c-1.5,2.1-4.5,2.9-7,1.1c-0.3-0.2-0.5-0.4-0.7-0.6c-2.2,1.1-52.6,30.3-53.2,30.9c0,0.2,0.1,0.4,0.1,0.7
	c0.3,2.4-0.9,4.5-3.2,5.4c-0.2,0.1-0.4,0.2-0.6,0.3c0,0.1-0.1,0.2-0.1,0.2c0,17.3,0,34.5,0,51.8c0,0.3,0,0.6,0,0.9c0,0,0,0.1,0,0.1
	c0,0,0,0.1,0,0.1c0.3,0.1,0.5,0.2,0.8,0.3c2.2,1,3.4,3.4,2.8,5.7c-0.9,3.5-4.9,4.8-7.7,2.8c-0.3-0.2-0.5-0.4-0.8-0.6
	c-0.2,0.1-0.3,0.1-0.4,0.2c-6,3.5-11.9,6.9-17.9,10.4c-0.2,0.1-0.4,0.3-0.5,0.4c0.1,0.6,0.2,1.1,0.1,1.6c0,0.5-0.1,1-0.1,1.5
	c1.1,0.7,71.8,41.5,72.5,41.8c0.1-0.1,0.2-0.2,0.3-0.2c1.9-1.7,4.7-1.8,6.7,0c0.1,0.1,0.3,0.2,0.4,0.3c0.3-0.1,0.5-0.3,0.7-0.4
	c26.5-15.3,53.1-30.7,79.6-46c0,0,0.1,0,0.1-0.1c0,0,0-0.1,0.1-0.1c-0.2-0.8-0.3-1.7,0-2.6c0.2-0.9,0.7-1.7,1.4-2.4
	c0.6-0.7,1.5-1,2.3-1.3c0.1-1.1,0.1-21,0-21.8c-3-1.1-4.2-3.2-3.7-6.4c-0.2-0.1-0.4-0.2-0.5-0.3c-5.7-3.3-11.3-6.5-17-9.8
	c-0.2-0.1-0.4-0.2-0.5-0.2c-0.3,0.3-0.6,0.5-0.9,0.7c-0.9,0.6-2,0.9-3.1,0.8c-3-0.3-4.9-2.8-4.5-5.8c0-0.2,0.1-0.4,0.1-0.7
	C137.3,161.4,131.1,157.8,124.8,154.2z M33.3,38.3c-0.2,1.2-0.2,90.6-0.1,95.5c0,0.2,0,0.4,0.1,0.6c0.5,0.2,1,0.4,1.4,0.6
	c0.4,0.2,0.8,0.6,1.2,0.8c1.2-0.6,52.6-30.4,53.2-30.8c0-0.3-0.1-0.6-0.1-0.9c0-0.4-0.1-0.8,0-1.2c0.3-1.9,1.3-3.3,3.2-4
	c0.2-0.1,0.5-0.2,0.7-0.3c0-7.3,0-14.5,0-21.7c-0.3-0.1-0.6-0.3-0.9-0.4c-2.1-0.9-3.2-3-2.9-5.3c0-0.3,0-0.5,0.1-0.8
	C70.5,59.8,52,49.1,33.3,38.3z M6,25.6c0,0.2,0,0.3,0,0.4c0,41.3,0,82.6,0,123.9c0,0,0,0.1,0,0.1c0,0,0,0.1,0.1,0.1
	c0.4,0.2,0.9,0.4,1.3,0.6c0.4,0.2,0.8,0.6,1.2,0.9c0.8-0.3,18.2-10.4,18.8-10.9c-0.3-1.3-0.2-2.6,0.5-3.9c0.7-1.3,1.8-2,3.1-2.4
	c0.1-0.1,0.1-0.1,0.1-0.2c0-0.1,0-0.1,0-0.2c0-0.2,0-0.4,0-0.6c0-32.1,0-64.2,0-96.3c0,0,0-0.1,0-0.1c0,0,0-0.1-0.1-0.1
	c-0.7-0.4-1.5-0.9-2.3-1.3c-6.4-3.7-12.9-7.4-19.3-11.1c-0.3-0.2-0.5-0.4-0.9-0.4c-0.4,0.3-0.8,0.6-1.2,0.8C7,25.2,6.5,25.4,6,25.6z
	 M116.9,277.1c26.8-15.5,53.6-31,80.4-46.5c-0.1-0.5-0.1-1-0.1-1.5c0-0.5,0.1-1,0.1-1.6c-0.2-0.1-0.4-0.3-0.6-0.4
	c-6-3.5-12-6.9-18-10.4c0,0-0.1,0-0.1,0c0,0-0.1,0-0.1,0c-2.1,1.8-4.7,2.2-7.3,0c0,0-0.1,0-0.1,0c-0.1,0-0.1,0-0.2,0.1
	c-0.1,0.1-0.3,0.2-0.4,0.2c-26.6,15.4-53.1,30.7-79.7,46.1c0,0-0.1,0-0.1,0.1c0,0,0,0.1-0.1,0.2c0.2,0.9,0.2,1.8,0,2.8
	c0.1,0.1,0.1,0.1,0.2,0.2c6,3.5,11.9,6.9,17.9,10.4c0.2,0.1,0.4,0.2,0.6,0.3c0,0,0.1,0,0.1,0c0,0,0.1,0,0.1,0
	C111.6,275.1,114.4,274.9,116.9,277.1z M35.9,8.3c-0.8,0.8-1.6,1.3-2.6,1.5c-0.1,1.1-0.1,25.3,0,26.1c18.9,10.9,37.9,21.9,56.8,32.8
	c2.9-2.4,5.4-1.8,7.4,0c0.1,0,0.2-0.1,0.3-0.1c6.1-3.6,12.3-7.1,18.4-10.7c0,0,0,0,0.1-0.1c0,0,0-0.1,0,0c0-1,0-2,0-3
	C89.5,39.3,62.7,23.8,35.9,8.3z M171.2,90.8c-0.1,0-0.1,0-0.2,0c-14.7,8.8-29.5,17.6-44.2,26.3c-0.3,0.2-0.5,0.3-0.8,0.5
	c0,0,0,0-0.1,0.1c0,0,0,0.1-0.1,0.1c0.1,0.5,0.2,1,0.2,1.5c0,0.5-0.1,1-0.1,1.6c1.1,0.8,18.1,10.5,18.8,10.8c2.4-2,4.9-2.1,7.3,0
	c0.9-0.4,44.6-26.4,45.3-27c-0.1-0.5-0.1-1-0.1-1.5c0-0.5,0.1-1.1,0.1-1.6c-0.8-0.6-18-10.6-18.8-10.9
	C175.7,92.9,173.3,92.6,171.2,90.8z M8.5,214.6c0.2-0.1,0.3-0.1,0.4-0.1c6.1-3.6,12.3-7.1,18.4-10.7c0,0,0.1,0,0.1-0.1
	c0,0,0-0.1,0.1-0.1c0-0.2-0.1-0.4-0.1-0.6c-0.4-2.8,1.4-4.8,3.3-5.4c0.2-0.1,0.3-0.2,0.5-0.2c0-0.2,0-0.4,0-0.6
	c0-17.5,0-34.9,0-52.4c0,0,0-0.1,0-0.1c0,0,0-0.1-0.1-0.2c-0.9-0.2-1.7-0.8-2.5-1.4c-1,0.5-18.2,10.4-18.8,10.9
	c0.1,0.4,0.1,0.8,0.2,1.2c0.1,1.8-0.8,4-3.1,4.9c-0.3,0.1-0.6,0.1-0.8,0.5c0,0.3,0,0.7,0,1c0,17.3,0,34.5,0,51.8c0,0,0,0.1,0,0.1
	c0,0,0,0,0.1,0.1C6.9,213.4,7.8,213.8,8.5,214.6z M117.4,59.6c-6.3,3.7-12.6,7.3-18.8,10.9c0.6,3.2-0.6,5.4-3.6,6.4
	c-0.1,0.8-0.1,20.5,0,21.7c0.4,0.2,0.9,0.4,1.3,0.6c0.5,0.3,0.9,0.6,1.3,0.9c0.3-0.2,0.6-0.3,0.9-0.5c5.9-3.4,11.8-6.8,17.7-10.3
	c0,0,0,0,0.1-0.1c0,0,0-0.1,0.1-0.1c0-0.3-0.1-0.6-0.1-1c-0.2-2.4,1-4.3,3.3-5.1c0.2-0.1,0.3-0.2,0.5-0.3c0-0.3,0-0.6,0-0.8
	c0-6.9,0-13.9,0-20.8c0,0,0-0.1,0-0.1c0,0,0-0.1-0.1-0.1C119,60.8,118.2,60.3,117.4,59.6z M122.2,124.2c0,0.2,0,0.3,0,0.4
	c0,7,0,14.1,0,21.1c0,0,0,0.1,0,0.1c0,0,0,0.1,0.2,0.2c1.3,0.3,2.4,1.1,3.1,2.3c0.7,1.2,0.8,2.6,0.5,4c0.2,0.2,0.4,0.3,0.6,0.4
	c5.9,3.4,11.8,6.8,17.6,10.2c0.2,0.1,0.4,0.2,0.6,0.3c0.7-0.7,1.6-1.2,2.6-1.5c0-0.4,0-0.8,0-1.1c0-2.6,0-5.1,0-7.7
	c0-4,0-7.9,0-11.9c0-0.4,0.1-0.7-0.2-1.1c-1.3-0.3-2.4-1.1-3.1-2.3c-0.7-1.2-0.8-2.6-0.5-4c-0.2-0.1-0.3-0.2-0.4-0.3
	c-6-3.4-11.9-6.9-17.9-10.3c-0.2-0.1-0.4-0.1-0.5-0.2c-0.5,0.3-0.9,0.6-1.3,0.9C123.1,123.8,122.6,124,122.2,124.2z M200.9,224.2
	c0.1-0.9,0.1-20.7,0-21.8c-1.3-0.4-2.4-1.1-3.2-2.4c-0.7-1.2-0.8-2.6-0.5-3.9c-0.1-0.1-0.1-0.2-0.2-0.2c-6-3.5-12-6.9-18-10.4
	c-0.2-0.1-0.4-0.2-0.5-0.3c0,0-0.1,0-0.1,0c0,0-0.1,0-0.1,0c-0.7,0.7-1.5,1.1-2.4,1.4c-0.1,0.9-0.1,20.9,0,21.8
	c0.3,0.1,0.7,0.3,1,0.4c1.8,0.9,2.8,2.4,2.8,4.4c0,0.5-0.1,1.1-0.1,1.6c0.2,0.1,0.4,0.3,0.6,0.4c6,3.5,12,6.9,18,10.4
	c0,0,0.1,0,0.1,0c0,0,0.1,0,0.2,0C199.1,225,199.9,224.5,200.9,224.2z M9.6,22.2c7.1,4.1,14.1,8.1,21.1,12.2c0.1,0,0.2,0,0.3,0.1
	c0,0,0.1-0.1,0.1-0.1c0,0,0-0.1,0-0.1c0-0.1,0-0.1,0-0.2c0-7.8,0-15.6,0-23.4c0-0.2,0-0.5,0-0.7c0,0,0-0.1,0-0.1c0,0,0-0.1-0.1-0.2
	c-1-0.1-1.7-0.8-2.5-1.4c-0.2,0.1-0.3,0.1-0.4,0.2c-6,3.5-12,6.9-18,10.4c-0.2,0.1-0.3,0.2-0.5,0.4C9.9,20.3,9.9,21.2,9.6,22.2z
	 M106.6,355.3c0.1,1.1,0.1,38.3,0,39.1c0,0,0,0-0.1,0.1c0,0-0.1,0-0.1,0c-2.6,0-5.3,0-7.9,0c-0.1,0-0.2,0-0.3,0
	c-0.1,0-0.1-0.1-0.2-0.1c-0.2-0.7,0.1-1.5-0.2-2.3c-0.2,0.2-0.3,0.3-0.5,0.5c-1.2,1.4-2.8,2.2-4.6,2.5c-4.1,0.7-7.7-0.4-10.8-3.2
	c-1.7-1.6-2.8-3.6-3.3-5.8c-0.6-2.5-0.6-5.1,0-7.6c0.9-3.2,2.8-5.7,5.7-7.3c3.3-1.9,6.8-2.1,10.4-0.8c1.1,0.4,2.1,1.1,3,1.9
	c0.3,0,0.2-0.2,0.2-0.4c0-0.3,0-0.6,0-0.9c0-4.8,0-9.6,0-14.4c0-0.4,0-0.8,0.1-1.2c0.2,0,0.4-0.1,0.6-0.1
	C101.3,355.3,103.9,355.3,106.6,355.3z M92.8,376.7c-0.9,0-1.9,0.2-2.7,0.7c-3.5,2.1-3.8,7.4-0.1,9.8c1.2,0.8,2.5,1,3.9,0.7
	c3.5-0.7,6-5.2,3.2-9C96,377.6,94.6,376.8,92.8,376.7z M176.9,312.8c0.9-0.1,7.6-0.1,8.6,0c0,0.2,0.1,0.4,0.1,0.6
	c0,0.5,0,1.1,0.1,1.6c0.2,0.1,0.3-0.1,0.4-0.2c1.7-2,4-2.8,6.6-2.9c2.7-0.1,5.2,0.6,7.4,2.2c3.1,2.2,4.8,5.2,5.2,8.9
	c0.2,1.7,0.2,3.5-0.2,5.2c-1,4.5-3.8,7.4-8.1,8.9c-2.6,0.9-5.3,0.8-7.9-0.1c-0.9-0.3-1.7-0.8-2.5-1.4c-0.3-0.2-0.5-0.4-0.7-0.6
	c-0.3,0.1-0.2,0.3-0.2,0.5c0,1.5,0,3,0,4.5c0,2.7,0,5.3,0,8c0,0.4,0,0.7-0.1,1.1c-0.1,0-0.2,0.1-0.3,0.1c-2.6,0-5.2,0-7.8,0
	c-0.1,0-0.3,0-0.4-0.1c0-0.2-0.1-0.4-0.1-0.6c0-0.2,0-0.5,0-0.7c0-11.2,0-22.4,0-33.7C176.9,313.7,176.9,313.3,176.9,312.8z
	 M196.3,324.6c0-1.2-0.5-2.5-1.3-3.6c-1.6-2.2-4.6-2.4-6.6-1.3c-3.7,2.1-4.1,7.2-0.6,9.8c1.7,1.2,4.5,1.5,6.4-0.2
	C195.6,328.1,196.3,326.7,196.3,324.6z M14.7,334.8c-0.1,1.1-0.1,2-0.1,3c0,0.9,0,1.9,0,2.8c0,0.9,0,1.9,0,2.8c0,0.9,0,1.9,0,2.8
	c0,0.9,0,1.9,0,2.8c-0.2,0.1-0.4,0.1-0.6,0.1c-2.5,0-4.9,0-7.4,0c-0.2,0-0.4,0-0.6-0.1c0-0.2-0.1-0.3-0.1-0.4c0-11.9,0-23.8,0-35.7
	c0.2-0.1,0.3-0.1,0.5-0.1c2.6,0,5.1,0,7.7,0c0.1,0,0.3,0,0.4,0.1c0.2,0.7,0,1.5,0.1,2.2c0.2,0.1,0.3,0,0.4-0.2
	c1.4-1.7,3.3-2.5,5.4-2.8c2.5-0.3,5,0,7.3,1.2c2.7,1.4,4.6,3.5,5.7,6.3c0.3,0.8,0.6,1.6,0.7,2.5c0.5,2.6,0.4,5.2-0.5,7.7
	c-0.9,2.5-2.4,4.4-4.6,5.9c-1.1,0.7-2.2,1.3-3.5,1.7c-2.7,0.8-5.3,0.6-7.9-0.5c-0.8-0.3-1.5-0.8-2.1-1.3
	C15.3,335.3,15,335.1,14.7,334.8z M14.4,324.7c0,2.3,1,3.9,2.7,5c2,1.2,4.6,1.1,6.3-0.5c2.4-2.3,2.4-5.4,0.8-7.7
	c-1.6-2.4-4.6-2.9-6.8-1.7C15.4,320.8,14.4,322.6,14.4,324.7z M140.9,395.3c-2.6,0-4.9-0.3-7.1-1.2c-4.2-1.7-6.8-4.8-7.7-9.2
	c-0.6-2.9-0.3-5.7,1.1-8.4c1.8-3.4,4.6-5.5,8.3-6.6c2.2-0.6,4.5-0.8,6.8-0.6c3.3,0.2,6.4,1.3,8.9,3.6c1.9,1.6,3.1,3.7,3.6,6.1
	c0.9,3.9,0.4,7.5-2,10.8c-1.8,2.5-4.2,4.1-7.1,4.8C144,395.1,142.3,395.4,140.9,395.3z M135,382.5c0,0.1,0,0.4,0,0.7
	c0.3,2.6,2.1,4.2,3.9,4.7c3.4,1,6.7-1.3,7.1-4.9c0.2-1.5-0.3-2.8-1.1-4.1c-1.4-2.2-4.6-3-6.9-1.8C136.1,378.2,135,379.9,135,382.5z
	 M75.4,311.7c1.1-0.1,2.6,0.2,4.1,0.5c2,0.4,3.7,1.4,5.3,2.6c2.4,1.9,4,4.4,4.5,7.5c0.6,4-0.1,7.6-2.8,10.8
	c-1.7,1.9-3.7,3.2-6.1,3.9c-2.2,0.6-4.4,0.9-6.7,0.7c-2.4-0.2-4.8-0.6-6.9-1.8c-4.1-2.3-6.3-5.9-6.5-10.6c-0.1-1.3,0-2.7,0.4-4
	c1.1-4,3.7-6.8,7.5-8.4C70.4,312,72.7,311.7,75.4,311.7z M74.8,318.9c-0.3,0-0.7,0-1,0.1c-0.3,0.1-0.6,0.2-1,0.3
	c-2.3,0.9-3.7,3.2-3.6,5.7c0.1,1.7,0.7,3.1,2,4.2c2.9,2.4,7,1.4,8.5-1.8c1-2.1,0.8-4.1-0.5-6C78.3,319.7,76.8,319,74.8,318.9z
	 M125.7,311.7c1.5-0.1,3,0.1,4.4,0.5c2.1,0.5,4.1,1.5,5.7,2.9c1.6,1.3,2.7,2.9,3.5,4.8c0.4,1,0.6,2,0.7,3c0.2,1.7,0.1,3.3-0.2,5
	c-0.4,1.7-1.2,3.3-2.2,4.6c-1.8,2.3-4.1,3.8-7,4.6c-2.1,0.6-4.3,0.8-6.4,0.6c-2.4-0.2-4.7-0.6-6.8-1.8c-3.9-2.2-6.1-5.6-6.5-10.1
	c-0.2-1.9,0-3.7,0.7-5.5c1.1-2.9,3-5.2,5.7-6.7c1.6-0.9,3.2-1.4,5-1.6C123.4,311.8,124.5,311.7,125.7,311.7z M125.6,318.9
	c-0.7,0-1.4,0.1-2.1,0.4c-4.2,1.7-4.5,6.8-2.2,9.3c3,3.3,7.7,2,9.2-1.4c0.9-2.1,0.7-4-0.6-5.9C128.9,319.7,127.4,319,125.6,318.9z
	 M64.8,371.5c0,3.2,0,6.5,0,9.7c0,1,0,1.9,0,2.9c0,0.9-0.2,1.8-0.7,2.6c-0.2,0.4-0.5,0.7-0.9,0.9c-1.8,1-3.6,0.9-5.4-0.1
	c-0.3-0.2-0.6-0.4-0.8-0.8c-0.4-0.8-0.7-1.6-0.7-2.6c0-2.4,0-4.8,0-7.2c0-2,0-3.9,0-5.9c0-0.3,0.1-0.5-0.2-0.7c-0.1,0-0.1,0-0.2,0
	c-2.6,0-5.3,0-7.9,0c-0.1,0-0.2,0.1-0.4,0.1c0,0.3,0,0.6,0,0.9c0,4.7,0,9.3,0,14c0,0.5,0,1,0,1.5c0.1,1.3,0.4,2.5,1.1,3.6
	c0.7,1.1,1.6,2,2.7,2.7c1.4,1,3,1.5,4.6,1.8c2.8,0.5,5.6,0.5,8.4,0.2c1.8-0.2,3.6-0.8,5.1-1.8c1.2-0.8,2.2-1.7,2.8-3
	c0.7-1.4,1-2.8,1-4.3c0-1.3,0-2.6,0-3.9c0-3.6,0-7.1,0-10.7c0-0.3,0.1-0.7-0.1-1c-0.8-0.1-7.4-0.1-8.5,0
	C64.8,370.8,64.8,371.2,64.8,371.5z M10,394.9c2.4,0.5,4.8,0.6,7.3,0.2c2.6-0.4,4.8-1.4,6.5-3.3c0.4-0.5,0.8-1,1.1-1.5
	c0.7-1.4,0.9-2.8,0.9-4.4c-0.1-2.8-1.5-4.7-4-5.8c-1.2-0.6-2.5-0.9-3.8-1.1c-0.4-0.1-0.9-0.2-1.3-0.2c-0.8-0.2-1.4-0.6-1.8-1.3
	c0-0.2,0-0.3,0-0.5c0.1-0.9,0.4-1.3,1.2-1.5c0.3-0.1,0.6-0.2,1-0.2c1.3-0.1,2.5,0.1,3.7,0.6c0.5,0.2,1,0.4,1.5,0.5
	c0.1-0.1,0.1-0.1,0.2-0.1c0.1-0.2,0.2-0.4,0.3-0.6c0.8-1.5,1.6-3,2.3-4.5c0,0,0-0.1,0-0.1c0,0,0-0.1-0.1-0.1
	c-0.1-0.1-0.3-0.1-0.5-0.2c-3.4-1.2-7-1.5-10.5-0.9c-1.5,0.2-2.9,0.7-4.1,1.6c-1.9,1.4-3.1,3.2-3.5,5.6c-0.2,1.2,0,2.4,0.2,3.6
	c0.1,0.5,0.3,1,0.6,1.4c0.5,0.6,1,1.1,1.7,1.5c0.8,0.5,1.8,0.8,2.7,1c1.3,0.3,2.5,0.7,3.8,1c0.3,0.1,0.6,0.2,0.9,0.3
	c0.6,0.2,0.9,0.7,0.9,1.3c0,0.6-0.3,1.1-0.8,1.4c-0.5,0.2-1,0.3-1.4,0.4c-0.6,0-1.2,0-1.8-0.1c-1.8-0.2-3.4-0.8-5-1.6
	c-0.2-0.1-0.4-0.2-0.7-0.3c-1,2-2,3.9-3.1,5.9C6.1,393.8,8,394.5,10,394.9z M95.3,320.8c0,5,0,9.9,0,14.9c0,0.4-0.1,0.7,0.1,1.1
	c0.1,0,0.3,0.1,0.4,0.1c2.6,0,5.1,0,7.7,0c0.2,0,0.3-0.1,0.5-0.1c0-0.4,0-0.7,0-1c0-1.6,0-3.2,0-4.8c0-3.4,0-6.9,0-10.3
	c0-0.4-0.1-0.7,0.1-1.1c1.6-0.1,3.1,0,4.7,0c0-0.3,0.1-0.5,0.1-0.7c0.1-2.9,0-5.2-0.1-6c-0.3,0-0.6,0-0.9,0c-1.1,0-2.1,0-3.2,0
	c-0.2,0-0.4,0-0.7-0.1c0-0.4,0-0.7,0-1c0-1.8,0-3.5,0-5.3c0-0.3,0.1-0.5-0.2-0.8c-0.2,0-0.4,0-0.7,0c-2.5,0-5.1,0-7.6,0
	c0,0-0.1,0-0.1,0c0,0,0,0-0.1,0.2c-0.1,0.7,0,1.4,0,2.2c0,0.8,0,1.6,0,2.4c0,0.8,0.1,1.5-0.1,2.3c-0.9,0.1-1.8,0-2.7,0.1
	c-0.1,0.6,0,1.2-0.1,1.7c0,0.5,0,1.1,0,1.6c0,0.6,0,1.1,0,1.7c0,0.6-0.1,1.1,0.1,1.7c0.9,0,1.7,0,2.7,0
	C95.3,320.1,95.3,320.5,95.3,320.8z M159.5,319.5c0.2-1.1,0.1-2.2,0.1-3.3c0-1.1,0.1-2.2-0.1-3.4c-0.6,0-1.1,0-1.6,0
	c-0.5,0-1,0-1.5,0c-0.5,0-1.1,0.1-1.6-0.1c0-0.4,0-0.7,0-1c0-1.8,0-3.5,0-5.3c0-0.3,0.1-0.5-0.2-0.8c-2.6,0-5.3,0-8,0
	c-0.1,0-0.2,0-0.4,0.1c0,0.3,0,0.7,0,1c0,1.8,0,3.5,0,5.3c0,0.3,0.1,0.5-0.2,0.8c-0.6,0-1.3,0-1.9,0c-0.2,0-0.4,0.1-0.7,0.1
	c0,0.4,0,0.7,0,1c0,1.8,0,3.7,0,5.5c0,0,0,0.1,0,0.1c0,0,0,0,0.1,0.1c0.8,0.1,1.7-0.1,2.6,0.1c0,0.4,0,0.8,0,1.1c0,5,0,10,0,15
	c0,0.4-0.1,0.7,0.1,1.1c0.2,0,0.3,0.1,0.4,0.1c2.6,0,5.2,0,7.8,0c0.1,0,0.2-0.1,0.4-0.1c0-1.5,0-2.9,0-4.3c0-1.4,0-2.8,0-4.2
	c0-1.4,0-2.9,0-4.3c0-1.4,0-2.9,0-4.4C156.3,319.4,157.9,319.6,159.5,319.5z M39.3,363.1c-2.6,0-5.1,0-7.7,0c-0.2,0-0.3,0.1-0.5,0.1
	c0,0.6,0,1.2,0,1.7c0,0.6,0,1.2,0,1.8c0,0.6,0,1.1,0,1.7c0,0.6,0.1,1.2-0.1,1.8c-0.9,0.1-1.8,0-2.8,0.1c0,0.6,0,1.2,0,1.7
	c0,0.5,0,1.1,0,1.6c0,0.6,0,1.1,0,1.7c0,0.6-0.1,1.1,0.1,1.7c0.9,0.2,1.8-0.1,2.8,0.2c0,0.4,0,0.8,0,1.1c0,5,0,10,0,15
	c0,0.4-0.1,0.7,0.1,1.1c0.2,0,0.3,0.1,0.4,0.1c2.6,0,5.2,0,7.8,0c0.1,0,0.2-0.1,0.3-0.1c0.2-0.4,0.1-0.7,0.1-1.1c0-2.1,0-4.1,0-6.2
	c0-3,0-5.9,0-8.9c0-0.4-0.1-0.7,0.2-1.1c0.3,0,0.6,0,1,0c1,0,2.1,0,3.1,0c0.2,0,0.4-0.1,0.7-0.1c0-0.8,0-1.5,0-2.2
	c0-0.7,0-1.5,0-2.2c0-0.7,0.1-1.4-0.1-2.2c-0.6-0.1-1.1,0-1.6,0c-0.5,0-1.1,0-1.6,0c-0.5,0-1.1,0.1-1.6-0.1c-0.1-0.8,0-1.6,0-2.3
	c0-0.8,0-1.6,0-2.4c0-0.8,0.1-1.5-0.1-2.3C39.5,363.2,39.4,363.1,39.3,363.1z M53.9,312.4c-1.7,0.3-3.3,0.9-4.5,2.2
	c-0.4,0.4-0.8,0.9-1.2,1.4c-0.1,0.1-0.1,0.2-0.4,0.1c-0.1-0.5,0-1.1,0-1.6c0-0.6,0.1-1.1-0.1-1.7c-0.2,0-0.3-0.1-0.4-0.1
	c-2.6,0-5.2,0-7.8,0c-0.1,0-0.2,0.1-0.3,0.1c-0.1,0.8-0.2,21.5-0.1,23.5c0,0.2,0.1,0.3,0.1,0.5c0.2,0,0.3,0.1,0.4,0.1
	c2.6,0,5.1,0,7.7,0c0.2,0,0.3-0.1,0.5-0.1c0-0.3,0-0.6,0-0.9c0-3,0-6.1,0-9.1c0-0.9,0.1-1.9,0.2-2.8c0.4-2.2,1.9-3.9,4.3-4.3
	c1.3-0.2,2.6-0.2,3.9,0.3c0.3,0.1,0.6,0.2,0.9,0.3c0.1-0.8,0.1-6.7,0-7.9C56.1,312.3,55,312.3,53.9,312.4z M171.1,335.6
	c0-7.2,0-14.4,0-21.6c0-0.2,0-0.5,0-0.7c0-0.2-0.1-0.4-0.1-0.6c-1,0-1.9,0-2.8,0c-1,0-1.9,0-2.9,0c-0.9,0-1.8-0.1-2.7,0.1
	c-0.1,0.9-0.2,20.7-0.1,23.5c0,0.2,0,0.3,0.1,0.5c0.1,0,0.2,0.1,0.3,0.1c2.6,0,5.3,0,7.9,0c0.1,0,0.2-0.1,0.3-0.1
	C171.2,336.4,171.1,336,171.1,335.6z M112.5,371.6c0,7.2,0,14.4,0,21.6c0,0.2,0,0.5,0,0.7c0,0.2,0.1,0.4,0.1,0.5
	c0.2,0,0.2,0.1,0.3,0.1c2.6,0,5.1,0,7.7,0c0.2,0,0.3-0.1,0.5-0.1c0-0.4,0-0.8,0-1.1c0-3.7,0-7.3,0-11c0-3.6,0-7.2,0-10.8
	c0-0.4,0-0.7-0.1-1.1c-2.8,0-5.6,0-8.5,0C112.5,370.9,112.5,371.2,112.5,371.6z M197.3,392.2c0,2.6,2.1,4.9,4.9,4.9
	c2.7,0,5-2.1,5-4.9c0-2.7-2.1-4.8-4.9-4.9C199,387.3,197.3,389.9,197.3,392.2z M171.3,303.5c0.2-2.5-2.4-4.8-4.7-4.8
	c-2.4,0-4.8,2.3-4.8,4.7c-0.1,2.6,2.4,5,4.7,4.8C168.9,308.4,171.5,305.8,171.3,303.5z M116.6,356.3c-2.4-0.2-4.8,2.3-4.8,4.7
	c0,2.3,2.2,4.8,4.8,4.8c2.4,0,5-2.4,4.7-4.7C121.6,358.5,118.9,356.1,116.6,356.3z"/>
</svg>
