<!-- Generator: Adobe Illustrator 21.1.0, SVG Export Plug-In  -->
<svg version="1.1"
	 xmlns="http://www.w3.org/2000/svg" xmlns:xlink="http://www.w3.org/1999/xlink" xmlns:a="http://ns.adobe.com/AdobeSVGViewerExtensions/3.0/"
	 x="0px" y="0px" width="490.1px" height="310.6px" viewBox="0 0 490.1 310.6" style="enable-background:new 0 0 490.1 310.6;"
	 xml:space="preserve">
<path fill="#868789" d="M403.3,95.7c3.3,1.5,0.9,4.4-2.6,4.2c-0.6,0-1.2,0.5-1.7,0.4c-0.6-0.1-1.2-0.6-1.8,0l0,0
	c-0.6-1-1.2,0.1-1.8,0.1c-2.1,0-4.3,0.4-6.4,0.6c-1.1,1.7,0.3,0.1-2.5,0.8c-0.1-0.7-0.1-0.8,0,0c0.6,1.9-0.1,0.5,4.6,1.3
	c0.6,0.1,5.3,1.1,5.4,1.6c3-1,3.5,1.7,5.4,0.5c-0.8,1,6.4-1.1-0.8,6.2c-0.5,0.5-5.3,6.5-6.6,8.9c1.7-0.2,0.5,0.5,6.4-4.3
	c1-0.3,1.9-0.7,2-1.8c7.2-3.4,7-10.8,9.2,5.1c-1.8,0,0.9,2.8-0.8,5.6c0.3,1.6,1.4,3.3,0.1,5c0.3,1.7,1.1,3.3,0,5
	c-0.2,0.3,0.3,1.4,0.3,1.4c0.1,1.7,0.2,0.8-0.1,3.3c0-0.1,0.1,0.1,0.1,0.2c-0.2,2.5-1.2,4.8,0,7.2c0.8,1.7,0,31.5,0,31.5
	c0.9,4.6,0,4-5.6,3.5c-1.3-1-0.6-0.9-4-0.9c-7.8,0-30.8-11.2-30.2-19.4c-0.3-0.2-0.7-0.4-1.2-0.6c-0.3-2.8-1.6-5.6-0.9-8.8
	c-0.8-0.6-0.4-0.4-1.3-0.8c0.5-2.6,0.3-2,0.3-2c-0.5-1,0.7-1.4,0.9-2.5c0-6,1.9-0.6-0.2-6.1c-1.3-0.6-3,0.5-4-1.1
	c-7.4-0.6-17.5-9.1-18.6-12.3c0,0-1.5-1.8-6.1-12.9c-0.1,0-0.2,0.1-0.3,0.1c-0.2-3.8,0-3-1.1-4c0.2-0.2,0.4-0.4,0.4-0.3
	c-1.3-7.3-0.1-16.9-0.1-16.9c-0.3-1-0.3-0.3,1-4.2c1-0.7,0.7-0.3,0.9-2.2c0.2,0.1,1.4-2.4,1.5-2.7c-0.2-0.1,0.5-0.8,0.7-1
	c1.2-1.5,1-1.4,1-2.3c1.3-0.3,1.1-0.2,1.1-0.2c1.2-1.4,3.1-3.4,3.1-3.4c0.9-1.5,3.9-2.5,4.1-2.2c0.4-1,3.6-2.7,4.4-3.2
	c0.8-3-0.5-3.1-3.6-10.9c-1.6-6.6-0.1-8.8-0.6-14c0.1,0,0.2,0.1,0.4,0.1c4.5-9.5,10.2-13.6,10-12.6c1.2-1.5,3.3-1.1,5.1-2.7
	c0.4-0.4,3.3-0.8,2.6-0.6c1.4-0.9,3.2-0.5,4.7-0.7c2.7-0.3,2.5-0.4,2.2,0.4c0.1,0.3,0.1-0.9,0.6-0.8c1.1,0.3-1.6,0.2,4,0.6
	c1.3,1.2,3.9,1.4,5.7,0.3c0.1-1.9,0.2-4,0.3-5.9c2-3,1.8-4.4,3.5-5.7c0.2-0.2,0.4,0.2,0.6,0c-0.1,0.1,1-1.1,1-1.2
	c0.5-1.6,2.5-1.8,6.6-4.2c3.2-2-0.5-1.3,7.5-2.3c6.5,0.3,1.1-0.9,6.6,0.5c0.4-0.5,0.3-0.4,0.3-0.4c0.3,0.1,1.4,0.5,1.4,0.5
	c2-1.1,1.1-0.2,2.4-0.2c2.4-0.5,2-0.5,3.5-0.4c0,0,7.4,1.3,8.2,2.2c0.1,0.1,0.7-0.2,1.1-0.3c0.5,1,1.5,1.6,2.4,2.2
	c2.5,1.4,2.2,1.3,4.4,4.6c0.7-0.3,0.4-0.1,0.4-0.1c2.8,5.9,1.9,2.4,3.2,11.3c2.2,1.4,0.7,0.8,2.6,0.5c9.4-1.8,18.4-0.1,18.9,2
	c0,0,0.2-0.6,0.2-0.6c5.6,3.5,4.1,2.1,7.8,7.1c0,0,0.2-0.1,0.5-0.1c0.4,0.8,0.9,1.6,1.3,2.4c2.2,0.6,1,4.6,3.1,7.4l0,0
	c-0.2,4.5-2-2.5,0.4,8.4c-0.3,0-0.7,2.7-0.8,3c-0.1,0-0.3,0-0.6,0.1c0.3,3-2,4.9-3.2,7.4c0,4.9-0.4,4,1.9,4.7c0.7,1.2,0.2,1,2.9,1
	c2.3,2.5,5.4,4.3,7.3,7.5c2.8,1,0.7,2.9,2.7,3.5c0.4,5.8,3.2-0.1,3.2,22.8c-1.6,1.3,0,3.9-1.7,4.6c-1.7,8.5-1.2,7.5-2.2,7.6
	c-1.1,5.1-8.9,13.9-10.9,14.5c-0.5,0.1-0.8,1.1-1.2,1.8c-2.3-0.7-0.9,0.9-3.3,0.9c-0.2,0.3-0.4,0.6-0.4,0.6c-0.3,0.1-5.1,2-5,2.2
	c-1.4,0.1-3-0.2-6.2,1.4c0.6,4.5,0.4,3.8,0.4,3.8c-0.5,2-0.6,1.6,0.7,2.1c0,0,0.2,0.7-1.4,9.7c-0.3-0.2-0.5-0.4-0.6-0.1
	c0.7,0.1,0.8-0.1,0,0.9c0.2,0.1-1.2,2.7-1.3,2.9c-0.2-0.4-0.3-0.8-1.2-0.6c0.6,0.2,1,0.4,1.3,0.5c-0.3,2.4-2.6,4.9-2.2,3.7
	c-0.3-0.1-0.2,1.2-0.2,1.5c-0.1-0.1-0.7,0.3-0.9,1.2c-1.2,3.8-10.1,8.1-14.3,9.3c-1.2-0.9-1-1-1.2,0.6c-1.4,0.8-4.1,0.6-4.1,0.6
	c2.2-0.8-11.2,4.4-15.2,3.5c-4.3-1-1.1,1.9-1.1-71c1.3-1.7,0.8-1.3,2.6-1.8c14.5,12.3,13.5,11.7,13.3,10.4c1,0,0.8,0.1,0.8,0.1
	s0.2-0.1-0.8-0.1c-0.2-0.6-0.9-3.6-1.6-3.5c-2.1-1.4-1.9-2.7-7-8.2c0.1-0.7,0.1-1.2,0.1-1.8c0.8-0.1,2-1.7,2.4-0.5
	c0.8-0.8,0.4-0.4,0.4-0.4c7.6-0.5,5.7-0.9,15.2-2.5c-0.2-0.5-0.3-0.8-0.3-1.1c-0.1,0-0.2,0.1-0.2,0c-2.7-1.6-17.4-1.2-17.4-3.8
	c0.1,0-0.1-2.3-0.1-2.4c0.9-0.3,0.5-0.1,1.4-0.9c0.3,0.3,1,1.2,0.9,0.7c-1-4.4,8.9-9.6,5.2-10.9c-0.5,0.6,0.3,1-1.2,0.3
	c-1.6,2-4.4,2.6-5.8,5.1c-12.4,5.2-5.8-0.2-8.4-4.7c-1.8-6.4-1.2-3.9-2.1-9.4c-2.1,2-2,4.4-1.9,6.8c-2.1,2.9-0.8,6.1-1.4,9.1
	c-4.8,2.6-18.5-12.9-16.6-7.2c1-0.3,0.5-0.7,2.1,3.6C402.2,92.1,404.2,96.6,403.3,95.7z M349.8,77.9c0,0.1,0,0.1,0.1,0.1
	C349.8,78,349.9,78,349.8,77.9z M398,18.6L398,18.6L398,18.6z M441.2,31.7L441.2,31.7C441.1,31.6,441.2,31.7,441.2,31.7z
	 M458.5,143.8l0,0.1C458.5,144,458.5,144,458.5,143.8z M417.7,158.7c0,0.1-0.2,0.5-0.2,0.6C417.4,159.1,417.7,158.7,417.7,158.7z
	 M369.2,150.7l0.1,0.1C369.3,150.8,369.3,150.8,369.2,150.7z M471.5,72.2c-0.1,0-0.1,0-0.1-0.1C471.5,72.1,471.5,72.1,471.5,72.2z
	 M429.6,96.9c0.4,0,0.6-0.1,0.9-0.1C430,94.9,430.3,95.2,429.6,96.9z M435,120.7c0,0.4-0.1,0.6,0,0.7c0.2,0.2,0.5,0.3,0.7,0
	C435.5,121.3,435.3,121.1,435,120.7z M459.6,152.5c0,0.3,0.1,0.4,0.1,0.3C459.9,152.5,459.8,152.6,459.6,152.5z M452.1,101.6
	L452.1,101.6C452.2,101.7,452.1,101.7,452.1,101.6z M371.9,146.5L371.9,146.5C372,146.4,372,146.4,371.9,146.5z M417.3,168.8
	c0,0.1,0.1,0.2,0.1,0.1C417.5,168.8,417.4,168.8,417.3,168.8z M426.3,96.4L426.3,96.4C426.4,96.5,426.4,96.5,426.3,96.4z
	 M364.8,34.6l-0.1,0C364.8,34.7,364.7,34.7,364.8,34.6z M473.4,44.9l0.1,0C473.5,44.7,473.5,44.7,473.4,44.9z M411.4,123.1
	L411.4,123.1C411.3,123.2,411.3,123.1,411.4,123.1z M430.6,15.9l0.1,0.1C430.7,15.8,430.7,15.9,430.6,15.9z M401.1,16L401.1,16
	C401.1,15.9,401.2,15.9,401.1,16z M344.2,117.5l0.1,0C344.2,117.4,344.3,117.4,344.2,117.5z M355.4,74L355.4,74
	C355.5,74.1,355.5,74.1,355.4,74z M183.1,250.2c-0.5-4,0.8-3.1-7.1-3.4c-0.2-0.2,0,0.1,0,0c-21.5-0.2-10.4-2-10.1-9.1
	c0.1-0.1,22.4-42.4,26-47.7c1,0.3,48,89.5,51.6,97.6c3.1,6.9,6.7,6-4.3,6.7c-2.5,0.2,1.2,0.8-6.3-0.4c-3.6,1.2-4.9-0.9-8,0
	c-3.3,1-14.5-0.2-18.1,0.4c-4.3-2.8-87.8,2.2-97.7-3.7c-68-40.5-61.2-37.9-63.4-36.7c-0.1,1.1,70.1,44.7,72.4,44.8
	c92.1,2.9,138.4-3.7,128.5,3.9c1.1,0.9-127.9-0.1-128.1,0c-2.2,1.5-4.6-1-7.8-3c-62.3-37.6-57.5-34.4-57.5-34.4
	c-2.5-1.7-5.4-4.3-8.1-3.5c0.3,3.2-4.6-2,61.4,39.8c5.3,3.3,1.4,5.2,68,4.1c16.3-0.3,33.2,0.3,34.1-0.4c1.4-0.5,1.4-0.5,2.6,0.4
	c5.4,0,32.1-1.3,35.9,1c0,6.2-100.5,0.5-133.1,3.2c-35.9-20.3-35.2-23-35.8-17c-4.2,3.3,4.1,1.2-73,1.5c-6.3,0-4.2,8.2-4.2-104.3
	c5.6-0.9,55.1,0.1,61.3-0.9c-1.9-5.9-57.5-42.4-61.6-47.2c0.8-3.3,0.4-2.3,3.7-2.3c1.5,1,33.2,23,34,23.7c6.5,6.1,8.1,5,11,8.6
	c-0.3-0.1,5.9,3.2,6,3.3c14.9,13,13.8,7.6,14.4,14.3c38.7,1.8,48.6,40,36,54.6c0.5-0.2-5.1,9.2-7.5,10.7c-12.2,7.5-19,4.7-2.5,14.2
	c5.3,3.1,18.5,11.6,18.9,11.9c5.1,0.3,77.2,0.8,83.3-0.5c-0.4-2.5,0.2-2.5-3.9-2.5c-52.8-0.2-49.6,0.1-50.9-1.2
	c0-2.7-0.2-2.4,0.4-2.7c5.5-2.8,52.3,1,51-2.6c-1.3-3.3-3.1-2.5-8.5-2.5c-27-0.2-44.7,1.2-34-4.5c0.2,0.2,1.2,1,1.2,0.7
	c1.6-1,1.6-0.8,19.5-0.8c17.5,0,15.3,0.4,16.5-2.1c-0.8-0.7-2.5-0.6-4.3-0.5c-37.8,1.2-32.6-3.7-24.1-4.2c2.6-0.1,7.9,0.1,13.7-0.5
	c0.7,0.9,1.6,0.6,2.3,0.3c0.4-0.2,8.8-0.5,9.2-0.5c-0.1-1.3,0.4-2-2.9-2c-27.3-0.2-24.8,1-24.8-3.8
	C163.7,250.1,171.8,251.3,183.1,250.2z M54.5,275.5c0-0.1,0.2-0.3,0.1-0.1c-1.7-0.6-1.5-0.7-0.9,0.5C55,275.3,55.9,276.4,54.5,275.5
	z M51.8,273.3c1-0.3-0.9,0.2,0.6,1.1C52.3,274,52.1,273.2,51.8,273.3z M64.6,257.7c0.2-0.7,0-1.1-0.7-1
	C63.9,256.7,64.6,257.7,64.6,257.7z M69.4,260.8c0.4-1.7,0.9-1-3.5-3.4C65.5,259.2,65.4,258.7,69.4,260.8z M192.8,289.3
	c7.1,0,8.3,0.5,9.3-1.4c-2.8-5.5-90.5,2.3-93.7-5.4c-5-3.1-29.4-18.8-33.7-20.6c-2.4-1-2,0-2.7-1.3c1,0.3-1.5-0.8-2.2,0.4
	c6.6,4.9,14.1,8.5,20.6,12.7c24.8,16.3,22,16,32.3,15.9c1.9,0,4-0.6,5.8-0.3c1.9,0.4,3.6-0.1,5.3-0.2c0.6,0,1.6-0.6,2.1,0.5
	C135.8,289.7,192.8,289.4,192.8,289.3z M56.7,275.8c-0.4,0.3-0.6,0.5-1,0.8C58,278.5,57.7,278.6,56.7,275.8z M63,256.4
	c0,0.1,0,0.4,0.2,0.4C63.1,256.6,63.1,256.4,63,256.4z M48.9,272.1l-0.1,0C48.9,272.3,48.9,272.3,48.9,272.1z M50.5,273.1l-0.1-0.1
	C50.4,273.1,50.4,273.1,50.5,273.1z M61.7,256.1l0-0.2C61.6,256.1,61.6,256.1,61.7,256.1z M103.4,207.1L103.4,207.1
	C103.4,207,103.4,207,103.4,207.1z M265.4,215c-0.5-0.2-1.2-0.3-1.2-0.3c0.1-0.8-4-3.5-4.6-4.1c-3.3-2.7-3.2-4.3-6.8-6
	c-2-3-1.4-3.3,1.4-4.1c4,1.2,38.2,30.9,41.3,30.7c0-4.1,1.2-3.7-5.3-8.3c-9-6.4-13.8-10.9-15.6-11.3c-14-13.2-31.3-19.9-12.6-20
	c61.8-0.2,55.9,0.3,64.8,4.1c16.1,6.9,32.2,22.8,33.2,41.5c4.3-0.7-1.8,37.4-22,48.7c-20.4,11.4-16.7,9.2-84.8,9.2
	c-0.6-0.8-1-1.4-1.5-2c0,0,0.2-23.1,0.2-23.1c2.6-4.6-2.3-12.1,0.4-24.1c-1.5-2.1,0.6-2.4-0.4-7.2c1.9-1.6-0.4-3.8,9.7,4.9
	c0,0-3.1-2.7,33.3,25.6c0.6-3,0.9-2.1-1.6-4.2c-2.9-2.4-31.9-23.4-41.6-33.9c-0.9-0.9,0.4-3.2,4.3-2.9c1.2,2.3,24.3,20.7,14.8,10.2
	c-0.3-0.2-5.6-3.9-5.7-3.7c-0.5-1-1.5-3.1-3.7-3.7c-1.2-2.1-1.1-1.8-1.1-1.8c-4.6-1.5-2.3-2.3-5.4-3.4c-0.5-1.8-0.1-1.4-2.2-2.4
	c-1.7-3.3-1.9-2.3,0.9-4.7c4.1,0.2,33.9,28.6,41.5,31.3c0.5-2.2-1.7-2.5-2-3.9c-2.5-0.3-3.4-3.2-5.9-3.4c-1.6-3.1-0.7,0.3-1.8-2.6
	c-1.6-0.1-1.9-2.5-3.5-2.2c-14.4-13.1-30.5-23.3-30.2-27.2c4.5-4.6,18.5,11.9,31.5,20.4c0.1,0.1,0.3,0.2,0.4,0.4
	c0.5,1.5,1.8,2,3.1,2.7c3.5,2,1.1,2.5,6.1,4.9c10.5,5-23.9-21.3-23.9-21.3C269.5,218.5,267.4,215.9,265.4,215z M274.9,242.6
	c-0.4-0.5-1.4-1.6-1.4-1c0,3,6.8,6.4,3.3,1.4C276.9,243,274.9,242.6,274.9,242.6z M278.5,245.8c0.6,2.2,14.8,13.7,15.9,12.2
	C293.1,255.9,280.8,245.5,278.5,245.8z M444.3,192.6c-1-0.1-66.4-0.6-77.6-0.1c-0.2,1.3-1.3,72.3,1.4,72.2
	c73.7-1.6,81.8,7.2,97.4-11C489,226,466,193.8,444.3,192.6z M302,166C308.2,171.6,72.9-0.9,70,0c-1.6,1.8-1.6,1,0.1,3.8
	c1,0.7,256.3,186.3,258.1,186.5C334.2,184,314.3,177.1,302,166z M239.2,188.6c-4.5,4.1-225.4-159-231.8-164.3c-1.1-0.9-2.1-2-3.3-3
	c3.1-5.1,6,0.2,12.6,4.5c0.5,0.3,115.1,83.8,116.8,85.3c0.3,0,1.7,0,1.8,0.3C136.7,115.3,238.5,181.5,239.2,188.6z M214.4,169.8
	c-0.1-0.1-0.1,0-0.1-0.1C214.3,169.8,214.3,169.7,214.4,169.8z M52,51.9l0-0.1C51.8,51.9,51.8,51.9,52,51.9z M71,65.8L71,65.8
	C71,65.7,71,65.7,71,65.8z M137.5,175C19.2,90.1,12.4,77.8,0,76.6c0.1,4.5-2.9,0.2,39.3,32.1c0.3,0.2,5.1,4.4,8.5,6.5
	c3.4,2.1,92.5,68.8,93.5,69.5c8.3,5.9,8.2,6.2,11.5,3.9C153.4,186.1,142.2,178.4,137.5,175z M165.9,14.3c-0.5-0.6-0.9-1.2-1.4-1.9
	c-4-1.3-6.2-4.9-9.6-7.5c2.1-2.5,1.7-2.2,1.7-2.2c2.5-0.1,2.1-0.1,2.1-0.1c0.1,0.1,148.6,110.5,148.7,110.6c2.8,2.7,7.2,3.1,7.1,7
	c-2.8,2-0.8,3.1-22.7-12.9C291.4,107.2,166.2,14.4,165.9,14.3z M214.1,45.5c-0.2,0-0.1,0-0.1,0C214,45.6,213.9,45.6,214.1,45.5z
	 M273,88.9l0.1-0.1C272.9,88.8,272.9,88.7,273,88.9z M293.4,299.3c-0.2,0-0.8-0.6-0.6-0.5c-1.4,1.1-13.8,0-15.6,0.2
	c-1,0.1-24.7,0.3-24.7,0.3c-2-0.1-2.8,1.6-2.8,1.6c1.4,2.2,0.9,2,2.7,2.3c1,0.2,167.4,2.6,171.8-0.4c0-6.5-49.6-1.9-113.4-3.9
	C306,298.8,293.4,299.3,293.4,299.3z M250.5,306.6c0,2.5-0.4,3.9,1.2,2.7c2.3,0.4,164.9,2.6,172.2,0.4c0.4-2.2,0.7-1.5-1.4-3.3
	C421.5,306.4,252.8,304.7,250.5,306.6z M320,70c-3,1.6-55.5-39.6-58.7-41c0.4,0.6-31.7-23.8-32.3-24.2c0-10.7,17.7,9.3,23.6,11.7
	c0,0,67.5,48.8,68.2,49.5C323,68.2,321,69.1,320,70z M235.4,7.6c0,0,0.1,0,0.1,0C235.4,7.5,235.4,7.5,235.4,7.6z M268.8,30.3
	C268.7,30.2,268.7,30.2,268.8,30.3C268.8,30.2,268.7,30.2,268.8,30.3z M271.4,31.2c0.2,0.1,0.3,0.1,0.2,0
	C271.6,31,271.5,31.1,271.4,31.2z M412.9,282.2c2.4-1.5,3.3,0.7,9.2-0.9c0.5-0.1,1.9-1,2.1-0.7c0.8-1.4,0.8-1-0.1-2.3
	c-2.2-1.9-4.6-1.6-6.9-1.4c-3.6,0.3-30.4-0.7-32.4-0.1c-2.9,0.9-16.6-3.2-17.4,3.4c3.6,2.6,17.7,1.6,17.7,1.6c0.1,0,2.7,0.3,2.7,0.3
	c2.4-1.4,2.3,1,5.3-0.3c0.4-0.2,1-0.2,1.4,0c1.6,0.8,3.1,0.5,4.6-0.2c6.8,0.8,8.5,1.3,10.5,0c0.9-0.1,1.7,1.1,2.7,0.3
	C412.4,282,412.8,282.3,412.9,282.2z M139.8,70.9c-1.1-2.3-5.7,5.2-10.5,8.6c-1-5.9-0.3-10.2,0.3-12.2c-1-1.4,0.7-2.8-0.1-4.5
	c-3.6-2.3-2.5-2.3-5.3-0.2c-0.5,0.9-0.8,1.9-1.4,2.3c-1,0.6-1.3,1.7-2,2.4c-5.2,5.4-9.8,9.2-9.8,11.6c3.3,2,1.3,2.9,10.9-6.7
	c0.2,0.1,1.6,0.7,1.5,0.5c0.4,0.5,0.7,5.9-0.5,9c0,6.3-0.2,5,1.1,7.2c2.6,0.7,2.5,1.9,10.5-8.2C141.4,71.9,141.8,73.4,139.8,70.9z
	 M371.5,296c48.8,0.4,56.8,1.2,52.4-3.5c-3.4-1-0.1-1-13-1c-20.4-0.1-21.7-0.3-38.4-0.3C368.2,291.2,363.6,295.9,371.5,296z
	 M381.4,284.2c-11.2,0-15.3,0-13.4,4.4c0.4,0.3,47.1,1.2,56.1-0.3C427.2,284.4,421.4,284.4,381.4,284.2z M180.9,110.5
	c3.7-2.9,9.2-2.6,10.2-2.4c4.5,0.7,7.5,4.9,9.9,7.6c0,23.7-26.6,16.1-25.6,7.6C175.9,120.1,174.4,115.6,180.9,110.5z M181.3,126.1
	c3.7,3.6,6.4,2.4,11.3,0.5c3.2-3.8,6.3-7.8,3.2-11.5C188,105.7,173.6,119.1,181.3,126.1z M367.1,272.4c1.6,3.7,51.3,1.5,55.4,1.3
	c3-0.2,4.7-3.4-1.9-3.4c-57.1-0.2-51.1-1.7-53.8,2.1C366.7,272.2,367.1,272.5,367.1,272.4z M226.4,145.3c10.2-5.3,8.2-6.5,13-2.8
	c0,1.1,0,2.1,0,3.2c-0.6-0.1-6.2,17.7-6.4,18.2c-1.1,2.7-3.7,0.6-4.2-0.6c0.5-3.8,1-6.1-1.3-6.7c-2.2-1.7-3.9-3.8-6.6-3.7
	c-2.3,1.9-5.5,1.7-7-0.6C217.6,149.5,222,147.3,226.4,145.3z M226.6,152c1.5,0,2.1,2.2,4,1.9C239.6,143.7,225,147.6,226.6,152z
	 M155.9,85.1c-0.2,1.9-1.7,5.1-1.8,5.1c-5.6,18.8-5.1,16.9-8.8,13.5c1.8-6.2,2.9-4.2-5.6-10.4c-4.8-0.9-6.6,3.2-9.6-0.7
	c0.2-1.9,4-1.8,7-4.7c2.9-0.7,2.4-0.6,2.4-0.6c0,0,0-0.4,0-0.4C145.9,83.6,156.9,76.5,155.9,85.1z M147.7,87c0,0,0.2,0-3.5,2.2
	c-1.6,0.3-1.3-0.1-1.3,1.9c0.8,1.1,3.7,3.5,4.2,3c-0.2,0.1,0.1-0.3,0.2-0.6c-0.1-0.1,0.9,0,1,0c0.2-0.4,2.1-4.3,2.6-4.2
	C150.6,86.1,151.2,86.6,147.7,87z M158.3,102c8.8-9.4,8.5-14.6,17.1-5.7c4.5,4.6,3.3,0.8,4.8,6.5c-1.1,4.4-4.7,6.9-7.7,6.9
	c-4.2,0-5.2-2.9-11-4.5c-7.3,6.4-5.8,5.9-8.3,4.3C152.3,107.4,153.5,107.2,158.3,102z M166,99.7c-0.5-0.7-0.8,0.1-0.9,0.3
	c-2.1,3.6,1.8,3.4,2.8,5.2c1.6,0.2,3,0.4,4.6,0.6c3.3-1.6,3.6-2.9,2.9-5.5C171,95,168.2,96.4,166,99.7L166,99.7z M72.6,40
	c2.8-2.3,7-8.1,7.9-8.9c1.6-1.4,0.9-2.5,0.5-3.8c-2.2-0.4-11.7,10.8-11.7,10.8c-0.2,0.1-0.4,0.1-0.5,0.2c-0.3,1.5-1.5,2.6-2.3,4.2
	c0.5,2.8,1.6,5.3,3.3,6.3c1.1,0.7,1.4,2.1,2.9,2.4c1.4,0.4,2.7,1.1,4.3,1.7c5.6,0,5.6-2.1,6.9-2.8c4.8-2.9,3.8-5.2,6.7-6
	c0,0-0.6,0.5,2.3-3c3-3.6,1.8-3.7-0.1-4.7c-1.5,0.1-6,5.6-6.9,6.6c-7.3,8-7.8,7.7-13.7,4.5C70.3,44.2,69.3,42.7,72.6,40z
	 M333.5,28.7c3.6,0,2.8,0.3,4.4-1.4c-0.1-1.6,0.5-1.4-3.6-4.8c-0.5-0.4-16.5-12.2-16.9-12.7c-0.9-1.1-2-2.4-3.3-2.8
	c-2.3-0.8-3.8-2.7-5.7-3.7C302.5,4.7,300,2.7,333.5,28.7z M207.4,142.8c-1-0.9-4.2,0.3-5.2-3.1c-1-3.7-0.2-7.4,6.6-11.4
	c3.2-1.9,5.5,0.4,8.2,1.5c1.4,3.1,0.9,2.7,1.9,2.7c0,0-0.7,0-0.8,0c0,3.5-0.8,2.7,3.9,4.1c2.9-7.9-9.6-18.3-20.5-7.7
	c0.6-1.2-8.8,7.1-0.5,14.7C210.4,152.1,223,141.6,207.4,142.8z M37.3,19.7c8.3,1.8,5.5-2.2,9.2,1.8c1-1-1.8,4.7-10.3,1.7
	c-3.1-1.1-4.7-3.7-4.7-3.7c-1.6-1.5-1.3-0.7-1.5-4c-2.2-1.8,0.8-4.5,1.5-7.4C31.8,8,32.4,7.8,32.4,8c0.1-0.3-0.1-0.8,0.1-1
	c1.2-1.3,1.9-1.4,2.9-1.7c-0.2-5.6,19.2-7.7,19.2,7.4c-1.6,1.1-0.9,1-3.8-0.1c-0.1-3.7,0.2-4.3-1-4.8c-0.1-0.1-0.3-0.2-0.3-0.4
	c-0.3-4.8-12.6-6.2-15.7,5.7c0.1-0.1-0.5-0.1-0.5-0.2C33,15.4,34.9,19,34.9,19C34.9,19,34.6,18.9,37.3,19.7z M44.4,1.3l0,0.1
	C44.5,1.4,44.5,1.4,44.4,1.3z M87.3,54.1c-2.5,2.8-2,1.7-2.3,5.2c9.2,10.9,14.3,4.7,20.4-3.7c4-4.5,5-5,4.7-7
	c-3.3-1.5-2.2-1.9-4.5,1C101.5,52.4,97,63.8,91.4,61c-1.6-1.8-2.2-4-0.2-5.4C88.2,53.3,89.3,53.6,87.3,54.1z M52.5,29.3
	c5.4-4.1,8.3-9.2,12-12.7c1.3-1.2-0.8-1.9-2.8-2c-0.2,0.1-12.3,13.2-12.3,13.2c-2.9,4-5.3,1.9,8.4,12.1c0,0,0.8,0,2.9,0.5
	c0.4-2.1,1.1-0.8-4.8-5C50.8,31.6,52.5,32.2,52.5,29.3z M111.2,66.8c-5.5-3.6-5.3-1.8-6-0.4C112.7,74.5,113.9,68.5,111.2,66.8z
	 M403.3,95.7c0.1-0.5,0.3-1.1-0.2-1.1C403.1,94.7,403.3,95.7,403.3,95.7z M156.6,83.1v0.1C156.8,83.1,156.8,83.2,156.6,83.1z
	 M129.6,67.2C129.6,67.3,129.6,67.4,129.6,67.2C129.6,67.4,129.6,67.3,129.6,67.2z M202.3,40.9c0,0.1,0.1,0.2,0.1,0.3
	C202.5,41.2,202.4,40.9,202.3,40.9z M414.2,78.6c0,0.1-0.1,0.1-0.1,0.2C414.3,78.8,414.2,78.8,414.2,78.6z M11.9,145L11.9,145
	L11.9,145z M197.3,31.3c0.1,0,0.2,0,0.2,0C197.4,31.3,197.3,31.3,197.3,31.3z M78.4,274.3C78.3,274.3,78.4,274.3,78.4,274.3
	C78.5,274.3,78.3,274.4,78.4,274.3z M195.4,30c0,0.1-0.2-0.1-0.2-0.2C194.9,30.2,194.9,30,195.4,30z M0.5,199.1
	C0.5,198.9,0.5,199,0.5,199.1C4.8,190.1,0.5,198.8,0.5,199.1z M254.3,194.3c0,0,0,0.1,0,0.1C254.3,194.4,254.3,194.3,254.3,194.3z
	 M454.7,167L454.7,167L454.7,167z M169,76.2c0,0-0.1,0-0.1-0.1C168.9,76.2,169,76.3,169,76.2z M168.1,250.5
	C167.9,250.5,168,250.5,168.1,250.5C168.2,250.5,167.9,250.6,168.1,250.5z M252.8,232.3C252.8,232.4,252.8,232.3,252.8,232.3
	C252.8,232.1,252.9,232.4,252.8,232.3z M260.4,229.2c0,0,0,0.1,0,0.1C260.4,229.3,260.4,229.2,260.4,229.2z M421.9,92l0,0.1
	C422.1,92.1,422,92.1,421.9,92z M201.5,207.8C201.6,207.8,201.5,207.8,201.5,207.8C208.1,215.2,201.6,207.7,201.5,207.8z M46.6,21.5
	C46.5,21.6,46.5,21.8,46.6,21.5C46.4,21.8,46.6,21.5,46.6,21.5z M431,14.4C431,14.4,431,14.4,431,14.4
	C431.6,14.2,431.6,14.3,431,14.4z M314.3,303.8L314.3,303.8L314.3,303.8z M249.7,301c-0.1-0.1-0.2,0.9-0.2,1
	C249.6,302,249.7,301.1,249.7,301z M304.5,111.1c0-0.1-0.3-0.1-0.4-0.1C304.1,111.1,304.4,111.1,304.5,111.1z M239,6.6
	C239.1,6.4,239,6.5,239,6.6C246.5,13.1,239,6.4,239,6.6z M400.9,105.3c0.1-0.1-0.6,0-0.7,0C400.2,105.3,400.9,105.3,400.9,105.3z
	 M205.9,303.5c0.1,0,0.1-0.1,0.2-0.1C206,303.4,205.9,303.4,205.9,303.5z M169.5,11.3C169.6,11.2,169.6,11.3,169.5,11.3
	C169.6,11.4,169.5,11.2,169.5,11.3z M95.3,143.3l0-0.1C95.2,143.3,95.2,143.2,95.3,143.3z M458,161.2L458,161.2
	C458,161.3,458,161.3,458,161.2z M131.8,171l0.1,0.1C131.8,170.9,131.8,171,131.8,171z M114.9,165.1l-0.1-0.1
	C114.9,165.2,114.9,165.2,114.9,165.1z M202.5,166L202.5,166C202.4,165.9,202.5,165.9,202.5,166z M459.7,146.5l0,0.1
	C459.7,146.5,459.7,146.5,459.7,146.5z M365.2,140.5L365.2,140.5L365.2,140.5z M86.1,136.5L86.1,136.5
	C86.2,136.5,86.2,136.4,86.1,136.5z M96.5,145l-0.1-0.1C96.5,144.9,96.6,145,96.5,145z M266.5,146.5L266.5,146.5
	C266.5,146.4,266.4,146.4,266.5,146.5z M365.3,140.5h-0.1C365.1,140.5,365.2,140.5,365.3,140.5z M277.4,154.9c0,0.1,0.4,0,0.5,0
	C277.9,154.9,277.5,154.9,277.4,154.9z M165.3,132.8C165.2,132.8,165.2,132.9,165.3,132.8C165.3,132.8,165.3,132.8,165.3,132.8z
	 M411.9,136.3C411.9,136.3,411.9,136.3,411.9,136.3C411.9,136.4,411.9,136.4,411.9,136.3z M477.2,134.1L477.2,134.1L477.2,134.1z
	 M380.1,282L380.1,282L380.1,282z M387.9,282.1L387.9,282.1C387.9,282.2,387.9,282.2,387.9,282.1z M368.1,288.7l0.1-0.1
	C368,288.6,368,288.6,368.1,288.7z M237.7,294.7L237.7,294.7C237.7,294.8,237.7,294.8,237.7,294.7z M292.7,298.8L292.7,298.8
	C292.8,298.8,292.8,298.8,292.7,298.8z M88.5,278.4L88.5,278.4C88.4,278.4,88.4,278.4,88.5,278.4z M326.5,304.4c-0.1,0-0.5,0-0.4,0
	C326.1,304.4,326.4,304.4,326.5,304.4z M331,304.4L331,304.4C331,304.4,330.9,304.4,331,304.4z M351.6,304.3L351.6,304.3
	C351.6,304.3,351.6,304.3,351.6,304.3z M374.7,304.3L374.7,304.3L374.7,304.3z M376.1,304.3L376.1,304.3L376.1,304.3z M199.4,305.3
	C199.4,305.3,199.5,305.2,199.4,305.3C199.5,305.2,199.4,305.2,199.4,305.3z M302,305.8L302,305.8
	C301.9,305.8,301.9,305.8,302,305.8z M116.8,309.9L116.8,309.9C116.8,309.8,116.7,309.9,116.8,309.9z M118.2,309.8l-0.1,0
	C118.1,309.8,118.1,309.8,118.2,309.8z M305.6,299c0,0-0.4,0-0.4,0C305.2,299,305.5,299,305.6,299z M315.6,299.3L315.6,299.3
	C315.7,299.2,315.7,299.2,315.6,299.3z M249.5,302L249.5,302C249.6,302,249.5,302,249.5,302z M291.3,304l-0.1,0
	C291.3,304,291.3,304,291.3,304z M266.5,303.8L266.5,303.8C266.6,303.7,266.5,303.8,266.5,303.8z M255.1,303.6L255.1,303.6
	L255.1,303.6z M226.9,303.4L226.9,303.4C226.9,303.4,226.9,303.4,226.9,303.4z M215.5,303.3L215.5,303.3
	C215.4,303.4,215.4,303.4,215.5,303.3z M140.8,303.1l-0.1-0.1C140.7,303,140.8,303.1,140.8,303.1z M135.6,302.9L135.6,302.9
	C135.6,302.9,135.6,302.9,135.6,302.9z M246.7,302.7l0.1-0.1C246.7,302.7,246.6,302.7,246.7,302.7z M254.2,200.5L254.2,200.5
	C254.2,200.5,254.2,200.5,254.2,200.5z M381.5,172.9L381.5,172.9L381.5,172.9z M382.5,174L382.5,174C382.6,174,382.6,174,382.5,174z
	 M386,175.7C386,175.7,386,175.7,386,175.7C386,175.6,386,175.6,386,175.7z M178,250.6c0,0,0.1,0.1,0.1,0.1
	C178.1,250.7,178.1,250.7,178,250.6z M252.1,252.4C252,252.4,252,252.4,252.1,252.4C252.1,252.5,252.1,252.5,252.1,252.4z
	 M161.8,257.7l0.1-0.1C161.8,257.6,161.8,257.6,161.8,257.7z M174.7,257.3l-0.1,0.1C174.6,257.4,174.7,257.3,174.7,257.3z M53.7,258
	L53.7,258C53.8,258,53.7,258,53.7,258z M161.7,262.4l0.1-0.1C161.7,262.4,161.7,262.4,161.7,262.4z M153.3,265.5c0-0.1-0.4,0-0.4,0
	C152.9,265.5,153.2,265.5,153.3,265.5z M107.8,213.9L107.8,213.9C107.8,213.9,107.8,213.9,107.8,213.9z M264.1,214.7L264.1,214.7
	L264.1,214.7z M277.2,225.6c0,0,0.1,0,0.1,0C277.2,225.6,277.2,225.6,277.2,225.6z M277.3,226.5c0,0,0-0.8,0-0.9
	C277.3,225.6,277.2,226.5,277.3,226.5z M294.5,226.4L294.5,226.4C294.6,226.5,294.5,226.4,294.5,226.4z M222.1,246L222.1,246
	L222.1,246z M262.1,243.7L262.1,243.7C262.1,243.6,262.1,243.7,262.1,243.7z M284.1,242.2L284.1,242.2
	C284.1,242.2,284.1,242.2,284.1,242.2z M170.6,229.3L170.6,229.3C170.7,229.3,170.7,229.3,170.6,229.3z M258.2,228.6
	C258.3,228.6,258.3,228.5,258.2,228.6C258.2,228.5,258.2,228.5,258.2,228.6z M362.6,35.3L362.6,35.3
	C362.6,35.3,362.6,35.3,362.6,35.3z M56,38.2L56,38.2L56,38.2z M265.8,31.7L265.8,31.7C265.8,31.7,265.8,31.6,265.8,31.7z M463.6,34
	L463.6,34C463.5,33.9,463.5,34,463.6,34z M52.9,33L52.9,33L52.9,33z M476.3,50.7L476.3,50.7C476.3,50.6,476.3,50.7,476.3,50.7z
	 M88.7,53.7c0,0,0.1,0,0.1,0.1C88.9,53.7,88.8,53.7,88.7,53.7z M295.8,54.2L295.8,54.2C295.8,54.1,295.8,54.1,295.8,54.2z
	 M306.3,55.1c0,0-0.1,0-0.1,0C306.2,55.2,306.2,55.2,306.3,55.1z M54.2,59.6L54.2,59.6C54.3,59.5,54.3,59.5,54.2,59.6z M212.4,43.1
	L212.4,43.1C212.4,43.1,212.4,43.2,212.4,43.1z M211.3,41.9c0-0.1-0.4,0-0.4,0C210.8,42,211.2,41.9,211.3,41.9z M109,48L109,48
	C109,48,109,48,109,48z M83.4,45.8L83.4,45.8L83.4,45.8z M405.1,12.3L405.1,12.3C405,12.2,405,12.2,405.1,12.3z M415,12.4l-0.1,0.1
	C414.9,12.4,415,12.4,415,12.4z M415.8,12.5C415.8,12.5,415.8,12.6,415.8,12.5C415.8,12.5,415.9,12.6,415.8,12.5z M416.5,12.3
	L416.5,12.3C416.5,12.4,416.4,12.4,416.5,12.3z M420.7,12.3L420.7,12.3C420.7,12.3,420.7,12.3,420.7,12.3z M422.1,12.4l0.1,0
	C422.1,12.4,422.1,12.3,422.1,12.4z M425.3,12.1l-0.1,0.1C425.3,12.2,425.3,12.2,425.3,12.1z M90.5,12.6l0.1,0.1
	C90.5,12.7,90.5,12.6,90.5,12.6z M416.4,12.4c-0.1,0-0.7,0.2-0.6,0.2c0,0,0.4,0.4,0.4,0.4C416.3,12.9,416.4,12.3,416.4,12.4z
	 M418.2,12.7c0.1,0,0.3,0,0.4,0C418.5,12.7,418.3,12.7,418.2,12.7z M425.3,12.3c0,0,0,0,0-0.1C425.3,12.2,425.2,12.1,425.3,12.3z
	 M33.8,13.1C33.7,13.1,33.7,13.2,33.8,13.1C33.6,13.2,33.6,13.2,33.8,13.1z M93.1,15.3c-0.1,0,0.1-0.2,0.2-0.2
	C93,14.8,93.1,14.7,93.1,15.3z M33.9,5.8L33.9,5.8C33.9,5.8,34,5.8,33.9,5.8z M156.6,2.8C156.6,2.8,156.6,2.9,156.6,2.8
	C156.7,2.8,156.7,2.8,156.6,2.8z M158.7,2.7L158.7,2.7L158.7,2.7z M310.4,10.5L310.4,10.5C310.5,10.5,310.4,10.4,310.4,10.5z
	 M107.9,25.7c0,0-0.4,0-0.4,0C107.5,25.7,107.9,25.7,107.9,25.7z M261.3,29L261.3,29L261.3,29z M22,29.4L22,29.4
	C22,29.5,22,29.5,22,29.4z M80.2,27.2c0-0.1-0.4,0-0.4,0C79.8,27.2,80.2,27.2,80.2,27.2z M180.3,18.8L180.3,18.8L180.3,18.8z
	 M93.8,21.7L93.8,21.7L93.8,21.7z M438.7,20.9L438.7,20.9C438.7,20.8,438.7,20.8,438.7,20.9z M31.6,19.6L31.6,19.6
	C31.5,19.5,31.5,19.5,31.6,19.6z M440.2,103.4L440.2,103.4C440.3,103.3,440.3,103.3,440.2,103.4z M401.3,105.7c0.1-0.1-0.3,0-0.4,0
	C401.7,105.9,400.4,104.7,401.3,105.7z M154.9,105.5L154.9,105.5C154.8,105.5,154.9,105.5,154.9,105.5z M402.4,105.3
	c0,0-0.4,0-0.4,0C402,105.2,402.4,105.3,402.4,105.3z M425.4,98c0.1,0,0,0,0,0.1C425.4,98.6,425.4,98.5,425.4,98z M145.7,102
	c0-0.1,0,0.3,0,0.4C145.8,102.4,145.7,102.1,145.7,102z M388.5,101.8L388.5,101.8C388.6,101.8,388.5,101.8,388.5,101.8z M145.7,102
	c0.1,0,0.4,0,0.4,0.1c0-0.1,0-0.4,0-0.4C146,101.7,145.7,102.1,145.7,102z M282.8,101L282.8,101C282.8,100.9,282.9,100.9,282.8,101z
	 M397.2,100.3L397.2,100.3C397.1,100.3,397.2,100.3,397.2,100.3z M281.3,99.7L281.3,99.7C281.3,99.7,281.3,99.6,281.3,99.7z
	 M68.1,124.1L68.1,124.1C68,124.1,68,124.2,68.1,124.1z M148.7,121.1c0,0,0.1,0,0.1,0C148.8,121.1,148.8,121,148.7,121.1z
	 M57.4,115.9l0.1,0.1C57.4,116,57.4,115.9,57.4,115.9z M231.9,115.2L231.9,115.2C231.8,115.2,231.9,115.2,231.9,115.2z M221.1,114.3
	l-0.1-0.1C221.1,114.4,221.1,114.3,221.1,114.3z M160.8,70.3L160.8,70.3C160.7,70.3,160.7,70.3,160.8,70.3z M106.1,64.6L106.1,64.6
	L106.1,64.6z M58,62.2L58,62.2C58.1,62.3,58.1,62.2,58,62.2z M318.1,70.1L318.1,70.1C318,70.1,318,70.1,318.1,70.1z M108.1,69.5
	C108.1,69.5,108.1,69.5,108.1,69.5C108.1,69.4,108.1,69.4,108.1,69.5z M321.5,68.7L321.5,68.7C321.5,68.8,321.6,68.8,321.5,68.7z
	 M154.2,90.2L154.2,90.2C154.1,90.2,154.2,90.2,154.2,90.2z M339.7,93.8L339.7,93.8C339.7,93.7,339.7,93.7,339.7,93.8z M154.6,81.3
	l0.1,0.1C154.6,81.4,154.6,81.3,154.6,81.3z M139.6,86.9c0,0,0,0.4,0,0.4C139.6,87.3,139.6,86.9,139.6,86.9z M8.2,85.4
	c0,0.1,0.3,0.4,0.4,0.5C8.6,85.8,8.2,85.5,8.2,85.4z M71.3,262.1c0-0.1,0-0.3,0-0.4C71.4,261.9,71.4,262,71.3,262.1z M164.2,289.4
	c0.1,0,0.3,0.1,0.3,0.1C164.4,289.5,164.2,289.4,164.2,289.4z M169.8,289.6L169.8,289.6L169.8,289.6z M178.9,289.5L178.9,289.5
	L178.9,289.5z M99.7,279.4L99.7,279.4C99.8,279.2,99.8,279.3,99.7,279.4z M67,259.3L67,259.3C67.1,259.6,67.1,259.7,67,259.3z
	 M68.3,259.3L68.3,259.3L68.3,259.3z M68.2,259.4L68.2,259.4L68.2,259.4z M281.7,247.3L281.7,247.3
	C281.7,247.3,281.7,247.3,281.7,247.3z M291.1,255.8c0.1-0.1,0.3-0.3,0.4-0.4C291.4,255.5,291.3,255.6,291.1,255.8z M290.7,256.1
	c0.1-0.1,0.3-0.3,0.4-0.4C291,255.9,290.9,256,290.7,256.1z M290.7,256.2c0,0.1,0.1,0.2,0.1,0.3
	C290.8,255.9,290.7,256.1,290.7,256.2z M278.2,245.3c0-0.2,0-0.3,0-0.5C278.2,245,278.2,245.2,278.2,245.3z M274.9,242.6
	C274.9,242.6,274.9,242.6,274.9,242.6L274.9,242.6z M178.8,120.7c0,0.3,0,0.5,0,0.8C179.5,122.1,179.6,121.1,178.8,120.7z
	 M187.6,128.1L187.6,128.1C187.6,128.2,187.7,128.1,187.6,128.1z M147.2,93.5C147.2,93.6,147.2,93.6,147.2,93.5
	C147.3,93.6,147.3,93.6,147.2,93.5z M166,99.7L166,99.7C166.1,99.6,166,99.7,166,99.7z"/>
</svg>
