<!-- Generator: Adobe Illustrator 19.2.1, SVG Export Plug-In  -->
<svg version="1.1"
	 xmlns="http://www.w3.org/2000/svg" xmlns:xlink="http://www.w3.org/1999/xlink" xmlns:a="http://ns.adobe.com/AdobeSVGViewerExtensions/3.0/"
	 x="0px" y="0px" width="278.7px" height="166.7px" viewBox="0 0 278.7 166.7" enable-background="new 0 0 278.7 166.7"
	 xml:space="preserve">
<defs>
</defs>
<path fill-rule="evenodd" clip-rule="evenodd" fill='#868789' d="M155,135c-1.5,0-3,0.1-4.4,0.1c-1.7,0-3.4,0.1-5,0.1c-3.7,0.1-7.3,0.1-11,0.1
	c-1.6,0-3.3-0.1-4.9-0.1c-2.8-0.1-5.6-0.3-8.5-0.4c-1.3-0.1-2.7-0.1-4-0.2c-1.2-0.1-2.4-0.3-3.6-0.4c-0.3-0.1-0.7-0.1-1-0.1
	c-0.8-0.1-1.7-0.1-2.5-0.5c-0.1-0.1-0.3-0.1-0.4-0.1c-1.1,0-2.2-0.5-3.3-0.8c-0.6-0.2-1.2-0.4-1.8-0.6c-1.4-0.6-2.8-1.1-4.2-1.7
	c-0.7-0.3-1.5-0.6-2.2-0.9c-1-0.4-1.9-0.9-2.9-1.3c-0.8-0.4-1.6-0.7-2.5-1.2c-0.9-0.5-1.7-1-2.6-1.4c-1-0.5-2.1-1.1-3.1-1.6
	c-0.8-0.5-1.6-1-2.4-1.4c-1-0.6-1.9-1.1-2.9-1.7c-1.1-0.7-2.3-1.4-3.4-2.1c-2.1-1.2-4.1-2.5-6.2-3.8c-0.7-0.4-1.6-0.7-2.4-1
	c-0.2-0.1-0.5-0.2-0.7-0.3c-0.3-0.1-0.6-0.2-0.9-0.3c-0.3-0.1-0.6-0.2-0.8-0.3c-0.2,0-0.3-0.1-0.5-0.2c-2-0.5-4-1.1-6-1.6
	c-1.2-0.3-2.4-0.6-3.6-0.9c-0.3-0.1-0.5-0.1-0.8-0.2c-0.4-0.1-0.9-0.2-1.3-0.3c-0.1,0-0.2-0.1-0.3-0.1c-1-0.2-2.1-0.5-3.1-0.7
	c-1.8-0.4-3.6-0.7-5.5-1.1c-0.7-0.1-1.3-0.2-1.9-0.4c-0.2,0-0.5-0.1-0.7-0.2c-0.6-0.1-1.2-0.3-1.8-0.4c-0.5-0.1-0.8-0.3-1-0.7
	c-0.4-0.9-0.5-1.9-0.5-2.9c-0.1-1.5,0.5-2.8,1.3-4.1c0.2-0.2,0.4-0.5,0.6-0.7c0.4-0.6,1-0.6,1.6-0.4c1.5,0.4,2.9,0.7,4.4,1
	c1.9,0.4,3.8,0.8,5.8,1.2c1.3,0.3,2.5,0.6,3.8,0.9c0.5,0.1,1,0.3,1.5,0.4c2.4,0.5,4.9,1.1,7.2,1.8c1,0.3,2,0.5,3,0.8
	c0.3,0.1,0.6,0.3,1,0.4c1.4,0.3,2.7,0.9,4.1,1.4c0.7,0.2,1.3,0.5,2,0.8c1.2,0.6,2.3,1.1,3.5,1.7c1.2,0.6,2.4,1.1,3.5,1.6
	c1.1,0.5,2.3,1,3.4,1.5c1.2,0.5,2.3,1,3.5,1.6c0.7,0.3,1.5,0.6,2.2,0.9c0.5,0.2,1,0.4,1.5,0.6c1.3,0.5,2.5,1,3.8,1.5
	c0.9,0.4,1.8,0.7,2.7,1c0.8,0.3,1.6,0.6,2.3,0.9c0.7,0.3,1.5,0.5,2.2,0.7c1.5,0.4,3.1,0.8,4.7,1.2c0.1,0,0.2,0.1,0.3,0.1
	c1.8,0.2,3.6,0.7,5.5,0.7c1,0,2,0.2,3.1,0.3c1.3,0.1,2.7,0.2,4,0.3c1.2,0.1,2.4,0,3.6,0.1c1.4,0.1,2.7,0.2,4.1,0.2
	c0.7,0.1,1.4,0.1,2.1,0.1c4.6,0,9.1,0,13.7,0c1.5,0,3-0.2,4.5-0.3c1,0,1.9,0,2.9-0.1c2-0.1,4.1-0.2,6.1-0.3c1.6-0.1,3.3-0.2,4.9-0.5
	c1.3-0.3,2.7-0.4,4-0.8c1.2-0.4,2.5-0.7,3.8-1c0.9-0.3,1.8-0.6,2.8-0.9c0.8-0.3,1.6-0.5,2.4-0.8c1.4-0.5,2.9-1.1,4.3-1.6
	c0.7-0.3,1.5-0.5,2.2-0.8c0.7-0.3,1.5-0.6,2.2-0.9c0.6-0.2,1.1-0.5,1.7-0.7c1.4-0.6,2.9-1.2,4.3-1.9c1.5-0.7,3.1-1.3,4.6-2
	c1.1-0.5,2.2-1.1,3.3-1.6c1.7-0.8,3.4-1.6,5.2-2.2c0.9-0.3,1.8-0.6,2.7-1c0.1,0,0.2-0.1,0.2-0.1c2.3-0.6,4.6-1.3,6.9-1.9
	c1.2-0.3,2.4-0.5,3.6-0.8c1.2-0.3,2.3-0.6,3.5-0.9c0.2-0.1,0.3-0.1,0.5-0.1c1.9-0.4,3.9-0.8,5.8-1.2c1.5-0.3,2.9-0.6,4.4-0.9
	c0.5-0.1,1-0.3,1.5-0.4c0.5-0.2,0.9-0.1,1.3,0.3c2,2,2.7,5.3,1.4,8c-0.1,0.3-0.3,0.5-0.7,0.6c-0.8,0.1-1.6,0.3-2.3,0.5
	c-1.6,0.3-3.3,0.6-4.9,0.9c-1.4,0.3-2.9,0.7-4.3,1c-0.2,0-0.4,0.1-0.6,0.1c-0.2,0-0.3,0-0.5,0.1c-1.2,0.3-2.4,0.6-3.6,0.9
	c-1,0.2-2,0.4-3,0.7c-1.6,0.4-3.1,0.9-4.7,1.3c-0.9,0.3-1.9,0.5-2.8,0.8c-0.1,0-0.2,0-0.3,0.1c-1.3,0.6-2.7,1.1-4,1.7
	c-0.8,0.4-1.6,0.9-2.4,1.4c-1.2,0.7-2.5,1.5-3.7,2.3c-1.2,0.8-2.5,1.5-3.7,2.3c-0.9,0.5-1.7,1-2.6,1.5c-0.9,0.5-1.8,1-2.7,1.5
	c-1,0.6-2.1,1.1-3.1,1.6c-0.7,0.4-1.3,0.7-2,1.1c-1,0.5-2,0.9-3,1.4c-0.8,0.4-1.5,0.7-2.3,1.1c-0.7,0.3-1.4,0.5-2,0.8
	c-0.5,0.2-0.9,0.4-1.3,0.6c-0.9,0.4-1.7,0.7-2.6,1c-1,0.3-1.9,0.6-2.9,0.9c-0.2,0.1-0.4,0.1-0.6,0.2c-0.2,0-0.3,0.2-0.5,0.2
	c-1.3,0.2-2.5,0.6-3.8,0.8c-1.6,0.2-3.3,0.4-4.9,0.5C159.6,134.7,157.3,134.8,155,135 M215.7,47.6c-0.3,0-0.4-0.1-0.6-0.1
	c-0.2,0-0.4,0.1-0.6,0c-1.4-0.2-2.7-0.6-3.9-1.4c-2.3-1.6-3.4-3.7-3.5-6.4c-0.1-1.3,0.3-2.5,0.8-3.7c0.3-0.7,0.1-0.9-0.6-0.9
	c-0.4,0-0.9,0-1.3-0.1c-0.4,0-0.8-0.1-1.2-0.2c-0.3-0.1-0.6-0.1-0.9-0.2c-1.2-0.5-2.3-1.1-3.2-2c-1.4-1.5-2.3-3.2-2.3-5.3
	c0-0.9,0.1-1.7,0.2-2.6c0.1-0.5-0.1-0.7-0.6-0.7c-0.8,0.1-1.5,0.1-2.3,0.1c-1.6,0.1-3-0.4-4.3-1.2c-1.9-1.3-3.1-3-3.5-5.2
	c-0.2-0.7-0.1-1.5-0.2-2.3c0-0.6-0.2-0.8-0.8-0.7c-0.1,0-0.3,0.1-0.4,0.1c-0.6,0.2-1.2,0.4-1.9,0.5c-1.4,0.2-2.8,0.1-4.1-0.4
	c-1.9-0.8-3.3-2-4.3-3.7c-0.6-1-1-2.1-1.1-3.3c-0.1-0.6-0.5-0.7-0.9-0.4c-0.2,0.1-0.4,0.3-0.6,0.4c-0.8,0.3-1.5,0.5-2.3,0.8
	c-1.6,0.6-3.1,0.3-4.6-0.3c-0.9-0.3-1.7-0.8-2.4-1.5c-1.2-1.1-2.2-2.4-2.6-4.1c-0.2-0.6-0.6-0.7-1-0.3c-0.1,0.1-0.1,0.1-0.2,0.2
	c-1.1,0.9-2.3,1.6-3.7,2c-1.7,0.4-3.4,0.4-5.1-0.4c-1.9-0.9-3.2-2.2-4.2-4c-0.3-0.6-0.7-0.6-1.2-0.2c-0.1,0.1-0.1,0.1-0.2,0.2
	c-0.7,0.7-1.4,1.5-2.2,2.1c-0.2,0.2-0.6,0.4-0.9,0.5c-1,0.3-2,0.5-3.1,0.7c-0.3,0-0.7,0-1-0.1c-0.6-0.1-1.2-0.3-1.8-0.4
	c-1-0.1-1.9-0.6-2.6-1.4c-0.2-0.2-0.4-0.4-0.6-0.6c-0.4-0.4-0.7-0.8-1.1-1.1c-0.4-0.4-0.8-0.3-1,0.1c-0.4,0.8-0.9,1.4-1.5,2.1
	C128.7,4,127,5,124.9,5c-0.6,0-1.2,0-1.7,0c-1.1,0-2.1-0.5-3-1c-0.7-0.4-1.3-0.9-2-1.3c-0.4-0.3-0.8-0.2-0.9,0.3
	c-0.3,1.3-1,2.3-1.8,3.3c-0.7,0.8-1.5,1.5-2.5,2c-0.8,0.4-1.7,0.8-2.6,0.9c-2,0.2-3.8-0.5-5.6-1.5c-0.6-0.3-0.9-0.2-1,0.4
	c-0.2,1.5-0.8,2.9-1.7,4.2c-1.2,1.7-2.8,2.7-4.7,3.2c-1.3,0.4-2.8,0.3-4.1-0.2c-0.4-0.2-0.8-0.3-1.3-0.4c-0.4-0.1-0.7,0.1-0.7,0.5
	c0,0.1,0,0.2,0,0.3c0.1,1.9-0.4,3.7-1.5,5.2c-0.8,1.2-1.9,2.1-3.3,2.7c-1.8,0.8-3.6,0.8-5.5,0.5c-0.6-0.1-0.8,0.1-0.7,0.7
	c0.3,1.1,0.2,2.2,0.1,3.3c0,0.3-0.1,0.7-0.2,1c-0.4,1.1-0.9,2.1-1.6,3.1c-1,1.2-2.3,2.1-3.8,2.5c-1.1,0.3-2.2,0.6-3.4,0.4
	c-0.6-0.1-0.7,0.2-0.5,0.7c0.2,0.7,0.4,1.3,0.6,2c0.6,2.1,0.1,4.1-1,5.9c-0.9,1.4-2.1,2.5-3.7,3.1c-1.1,0.5-2.2,0.8-3.4,0.7
	c-0.1,0-0.2,0.1-0.4,0.1c0.1,0.2,0.2,0.4,0.3,0.6c1,1.2,1.5,2.6,1.7,4.1c0.1,0.8,0,1.7,0,2.5c-0.1,1-0.5,1.9-1,2.7
	c-1.1,1.7-2.6,2.8-4.4,3.6c-0.3,0.1-0.5,0.2-0.7,0.3c-0.4,0.3-0.4,0.5-0.2,0.9c0.3,0.3,0.5,0.7,0.8,1c1,1.4,1.7,3,1.7,4.7
	c0.1,2.3-0.9,4.3-2.5,5.9c-0.6,0.6-1.4,1.1-2.1,1.7c-0.6,0.4-0.6,0.7-0.1,1.2c0.3,0.2,0.6,0.5,0.8,0.8c0.9,1,1.7,2,2.1,3.3
	c0.3,0.7,0.5,1.3,0.4,2c0,0.5,0,1,0,1.5c0,0.3-0.1,0.7-0.2,1c-0.5,1.3-1.2,2.6-2.1,3.6c-0.4,0.4-0.8,0.8-1.2,1.2
	c-0.5,0.4-0.4,0.7,0.2,1c0.2,0.1,0.3,0.2,0.5,0.3c1,0.7,1.8,1.5,2.6,2.4c0.7,0.8,1.1,1.7,1.3,2.7c0.1,0.5,0.3,0.8,0.8,0.9
	c1.1,0.3,2.3,0.6,3.4,0.9c0.5,0.1,1.1,0.3,1.7,0.4c0-0.3,0-0.6-0.1-0.8c0-0.2-0.1-0.4-0.2-0.5c-0.3-2.1-0.6-4.3-0.9-6.4
	c-0.1-0.9-0.1-1.9-0.2-2.8c-0.1-1.4-0.2-2.7-0.2-4c0-3.9,0.3-7.7,0.8-11.6c0.3-2,0.7-4,1.1-6c0.1-0.8,0.4-1.5,0.6-2.3
	c0-0.1,0.1-0.1,0.1-0.2c0.3-1.1,0.7-2.1,1-3.2c0.5-1.5,1-2.9,1.5-4.4c0.2-0.6,0.5-1.2,0.8-1.8c0.3-0.6,0.6-1.3,0.9-1.9
	c0.4-0.8,0.7-1.6,1.1-2.3c0.7-1.3,1.4-2.6,2.1-3.8c0.7-1.3,1.4-2.6,2.3-3.8c1.3-1.9,2.6-3.7,4-5.5c1.6-2.2,3.4-4.2,5.3-6.1
	c2-2,4.1-4,6.4-5.8c2.4-2,5-3.7,7.6-5.4c0.8-0.5,1.7-1,2.6-1.5c1-0.6,2-1.1,3-1.6c0.7-0.4,1.4-0.7,2.2-1c0.7-0.3,1.5-0.7,2.2-1
	c1.1-0.5,2.2-0.9,3.3-1.3c0.8-0.3,1.7-0.7,2.5-1c1.9-0.6,3.9-1.2,5.9-1.5c0.1,0,0.2-0.1,0.4-0.1c1.4-0.3,2.9-0.6,4.3-1
	c0.2,0,0.3,0,0.5,0c0.3,0,0.7-0.1,1-0.1c1.1-0.2,2.2-0.3,3.4-0.5c1.6-0.1,3.2-0.2,4.7-0.3c2.4-0.2,4.8,0,7.2,0.1
	c1.1,0.1,2.3,0.1,3.4,0.3c1.7,0.2,3.5,0.5,5.2,0.7c0.1,0,0.1,0,0.2,0c0.8,0.2,1.5,0.3,2.3,0.5c0.5,0.1,1,0.3,1.5,0.4
	c1.5,0.4,2.9,0.7,4.4,1.1c0.6,0.2,1.2,0.3,1.7,0.5c0.8,0.3,1.6,0.6,2.4,0.9c0.9,0.3,1.8,0.7,2.7,1.1c1,0.4,2.1,0.9,3.1,1.4
	c1.2,0.6,2.4,1.2,3.6,1.8c2.1,1,4,2.2,5.9,3.5c3.5,2.4,6.9,5,9.9,8c1.5,1.4,2.9,2.9,4.2,4.3c1.2,1.3,2.4,2.8,3.5,4.2
	c1.1,1.4,2.1,2.8,3.1,4.2c0.9,1.3,1.7,2.7,2.5,4c0.7,1.3,1.4,2.5,2.1,3.8c0.9,1.9,1.8,3.9,2.6,5.9c0.5,1.2,0.9,2.4,1.3,3.6
	c0.2,0.7,0.4,1.4,0.7,2.1c0.3,1,0.6,1.9,0.9,2.9c0,0.2,0,0.3,0.1,0.5c0,0.2,0.1,0.5,0.2,0.7c0.5,1.4,0.7,2.8,0.9,4.2
	c0.3,1.2,0.3,2.4,0.5,3.5c0.5,3,0.6,6,0.6,9c0.1,3.8-0.2,7.6-0.7,11.4c-0.2,1.4-0.5,2.8-0.8,4.2c0,0.2,0,0.4,0,0.6
	c0.1,0,0.2,0,0.2,0c1.4-0.4,2.8-0.7,4.2-1.1c0.3-0.1,0.6-0.2,0.9-0.3c0.3-0.1,0.4-0.3,0.5-0.6c0.2-0.5,0.3-1,0.5-1.5
	c0.9-1.9,2.3-3.2,4-4.2c0.5-0.3,0.6-0.6,0.1-1c-0.5-0.5-1-0.9-1.4-1.4c-1.3-1.5-2.2-3.2-2.2-5.2c0-1.4,0.2-2.7,1-3.9
	c0.7-1.1,1.5-2.2,2.6-3c0.3-0.2,0.4-0.4,0.2-0.7c-0.1-0.2-0.3-0.3-0.5-0.4c-1.1-0.6-2-1.5-2.8-2.5c-1.6-1.9-2.1-4.1-1.6-6.6
	c0.3-1.5,1.1-2.8,2-3.9c0.6-0.8,0.6-0.9-0.3-1.4c0,0-0.1-0.1-0.2-0.1c-0.9-0.3-1.7-0.8-2.5-1.4c-2-1.5-3.1-3.6-3.1-6.1
	c0-1.9,0.5-3.7,1.7-5.2C215.4,48.2,215.5,47.9,215.7,47.6 M198.3,139.8c0.1-0.7,0.1-1.5,0.3-2.2c0.4-1.4,1.2-2.7,2.3-3.7
	c1.8-1.7,3.9-2.4,6.3-2.3c0.7,0,0.9-0.2,0.7-0.9c-0.4-1.1-0.7-2.2-0.7-3.3c0-2.1,0.7-4,2.1-5.5c0.7-0.8,1.6-1.5,2.6-1.9
	c0.8-0.4,1.7-0.9,2.6-0.8c0.1,0,0.3,0,0.3-0.1c0.4-0.1,0.5-0.4,0.4-0.7c-0.2-0.3-0.4-0.7-0.6-0.9c-0.1-0.1-0.3-0.2-0.4-0.1
	c-0.7,0.2-1.4,0.5-2.1,0.7c-0.2,0.1-0.4,0.1-0.5,0.2c-0.8,0.3-1.6,0.5-2.4,0.8c-0.5,0.2-0.9,0.4-1.4,0.7c-1.8,1.1-3.5,2.3-5.3,3.3
	c-0.8,0.5-1.3,1.1-1.8,1.8c-1.2,1.9-2.6,3.7-4.1,5.5c-2.2,2.7-4.6,5.2-7.1,7.6c-3.1,2.9-6.5,5.5-10,7.8c-1.1,0.7-2.2,1.3-3.3,2
	c-1.5,0.8-2.9,1.6-4.4,2.4c-1,0.5-1.9,0.9-2.9,1.3c-1,0.4-1.9,0.9-2.9,1.2c-1.8,0.7-3.7,1.4-5.6,1.9c-0.2,0-0.3,0.1-0.5,0.2
	c-0.2,0.1-0.4,0.2-0.7,0.2c-1.1,0.3-2.2,0.6-3.4,0.8c-2.1,0.4-4.3,0.8-6.4,1.1c-1.2,0.2-2.6,0.3-3.8,0.4c-0.5,0.1-1,0.2-1.5,0.2
	c-1.8,0.1-3.6,0.1-5.5,0.1c-1,0-2,0-3-0.1c-0.5,0-0.9,0-1.3-0.1c-0.8-0.1-1.6-0.3-2.4-0.3c-1.8,0-3.6-0.4-5.3-0.7
	c-1.5-0.2-3-0.6-4.5-0.9c-0.8-0.2-1.6-0.4-2.4-0.7c-0.9-0.3-1.9-0.6-2.8-0.9c-1.1-0.4-2.2-0.7-3.2-1.1c-0.6-0.2-1.1-0.4-1.6-0.6
	c-1.1-0.4-2.1-1-3.2-1.4c-0.8-0.4-1.5-0.7-2.3-1.1c-1.3-0.7-2.6-1.4-3.9-2.1c-1-0.5-1.9-1.1-2.8-1.7c-1-0.6-1.9-1.3-2.9-2
	c-1.5-1.1-3.1-2.3-4.6-3.5c-3.2-2.7-6.2-5.6-8.9-8.8c-2-2.3-3.8-4.8-5.5-7.3c-0.3-0.4-0.6-0.8-1-1c-1.1-0.7-2.3-1.4-3.4-2.1
	c-1.2-0.7-2.4-1.5-3.7-2.1c-0.6-0.3-1.2-0.5-1.9-0.8c-1-0.3-1.9-0.6-2.9-1c-0.3-0.1-0.5-0.1-0.7,0.1c-0.2,0.3-0.4,0.6-0.5,0.9
	c-0.2,0.3,0,0.6,0.3,0.7c0.2,0.1,0.4,0.1,0.6,0.1c0.3,0.1,0.7,0.1,1,0.2c1.5,0.5,2.8,1.3,3.9,2.4c1.7,1.8,2.4,4,2.1,6.5
	c-0.1,0.9-0.4,1.7-0.7,2.6c-0.1,0.5,0,0.8,0.5,0.8c0.3,0,0.5-0.1,0.8-0.1c2,0.2,3.8,0.7,5.3,2c1.8,1.6,2.9,3.5,2.9,5.9
	c0,0.8-0.1,1.7-0.2,2.6c-0.1,0.6,0.2,0.9,0.7,0.6c0.6-0.3,1.3-0.2,1.9-0.2c1.8-0.1,3.4,0.5,4.9,1.5c2,1.5,3.2,3.4,3.4,5.9
	c0,0.5,0,1,0.1,1.5c0,0.6,0.3,0.7,0.8,0.5c0.2-0.1,0.4-0.2,0.6-0.3c2.2-0.6,4.4-0.7,6.5,0.4c1.7,0.9,3,2.2,3.8,3.9
	c0.4,0.9,0.7,1.8,0.9,2.8c0.1,0.6,0.4,0.7,0.8,0.4c0.8-0.5,1.8-0.8,2.7-1.1c1.2-0.4,2.3-0.5,3.5-0.2c2.6,0.5,4.4,2,5.7,4.2
	c0.4,0.6,0.6,1.2,0.8,1.8c0.3,0.6,0.5,0.7,1,0.3c0,0,0.1,0,0.1-0.1c1.1-0.9,2.3-1.6,3.6-2c0.5-0.1,1-0.2,1.4-0.3
	c1.4-0.3,2.7,0,3.9,0.6c1.8,0.9,3.2,2.2,4.1,4c0.3,0.6,0.6,0.7,1.1,0.1c1.4-1.5,2.9-2.7,4.9-3.3c1.7-0.5,3.2-0.2,4.7,0.4
	c1.5,0.6,2.8,1.6,3.9,2.9c0.4,0.5,0.8,0.5,1-0.1c0.4-0.8,0.9-1.4,1.5-2c2-2.1,4.4-3.1,7.3-2.6c1.1,0.2,2.1,0.7,3.1,1.3
	c0.5,0.3,1,0.8,1.5,1.1c0.4,0.3,0.6,0.2,0.8-0.2c0.1-0.1,0.1-0.2,0.1-0.3c0.6-1.7,1.6-3.2,3.1-4.3c1.4-1,2.9-1.6,4.6-1.6
	c1.8,0,3.3,0.5,4.8,1.4c0.6,0.4,0.9,0.2,1-0.5c0.1-0.6,0.2-1.2,0.5-1.8c0.4-0.9,0.8-1.8,1.4-2.6c0.8-1.1,1.9-1.9,3.3-2.5
	c2.2-0.9,4.3-0.7,6.5,0.1c0.7,0.3,1,0.1,1-0.6c-0.1-1.4,0.2-2.8,0.8-4.1c0.7-1.6,1.9-2.8,3.4-3.6c1.3-0.7,2.8-1.2,4.4-1.1
	c0.2,0,0.4,0,0.6,0c0.3,0.1,0.7,0.1,1,0.2c0.6,0.2,0.9,0,0.8-0.6C198.4,141.3,198.4,140.5,198.3,139.8 M132.7,51.7
	c-0.2,0-0.3,0-0.5,0c-0.6-0.1-0.8-0.3-1-0.9c-0.1-0.4-0.3-0.8-0.4-1.3c-0.1-0.2-0.1-0.5-0.1-0.8c0-0.3,0.2-0.6,0.5-0.7
	c0.9-0.2,1.7-0.4,2.6-0.6c0.7-0.1,1.4-0.3,2.1-0.6c0.5-0.3,0.6-0.7,0.2-1.1c-0.3-0.3-0.7-0.4-1.2-0.4c-3.1,0-6.3,0-9.4,0
	c-0.2,0-0.4,0-0.6,0.1c-0.6,0.2-0.9,0.7-0.7,1.2c0.2,0.6,0.4,1.2,0.6,1.7c0.4,0.9,0.6,1,1.6,0.7c0.6-0.2,1.2-0.3,1.9-0.4
	c0.6-0.1,0.8,0.1,1,0.6c0.3,0.7,0.5,1.4,0.7,2.1c0.2,0.5,0.1,1-0.3,1.4c-0.6,0.9-1.3,1.8-1.9,2.7c-1.4,2-2.8,4-4.2,5.9
	c-0.4,0.6-0.8,0.6-1.4,0.3c-0.5-0.3-1.1-0.6-1.7-0.8c-1.3-0.4-2.7-0.7-4.1-0.7c-2.3-0.1-4.4,0.4-6.4,1.4c-1.6,0.8-3,1.9-4.1,3.3
	c-1.6,1.9-2.6,4-2.9,6.5c0,0.2-0.1,0.3-0.1,0.5c-0.3,1.7-0.1,3.4,0.3,5.1c0.4,1.7,1.2,3.3,2.3,4.7c1.6,2,3.5,3.4,5.8,4.3
	c1.2,0.5,2.5,0.8,3.9,0.8c1.6,0,3.2,0.1,4.7-0.6c0.1-0.1,0.2,0,0.3-0.1c0.8-0.3,1.6-0.6,2.4-1c0.8-0.4,1.4-0.9,2.1-1.5
	c1.6-1.3,2.7-2.9,3.6-4.8c0.5-1.1,0.8-2.2,0.9-3.4c0.1-0.8,0.5-1.1,1.3-1.1c0.6,0,1.1,0,1.7,0c1.5,0,3.1,0,4.6,0
	c0.7,0,1.2-0.2,1.7-0.7c2.6-2.9,5.3-5.9,7.9-8.8c2.2-2.4,4.3-4.8,6.5-7.2c0.8-0.9,1.7-1.8,2.5-2.8c0.3-0.3,0.5-0.6,1-0.5
	c0.4,0.1,0.4,0.5,0.5,0.8c0.5,1.5,0.8,3.2,1.5,4.6c0.3,0.7,0,1.2-0.6,1.5c-0.9,0.5-1.8,0.9-2.6,1.5c-1.9,1.4-3.4,3.3-4.3,5.6
	c-0.7,1.9-1,3.8-0.9,5.8c0.2,2.5,0.8,4.8,2.3,6.8c0.9,1.2,1.8,2.3,3.1,3.1c1,0.6,2,1.2,3,1.7c0.7,0.3,1.5,0.6,2.3,0.7
	c1.3,0.1,2.5,0.1,3.8,0.1c0.6,0,1.2,0,1.8-0.2c1.3-0.4,2.7-0.9,3.9-1.6c1.8-1.1,3.2-2.4,4.3-4.1c1.1-1.6,1.7-3.5,1.9-5.5
	c0.2-2,0.1-4-0.5-5.9c-0.6-1.8-1.4-3.3-2.6-4.7c-1.5-1.7-3.3-2.9-5.3-3.6c-2-0.8-4-1-6.1-0.7c-0.3,0-0.5,0.1-0.8,0.1
	c-0.6,0-0.8-0.1-1-0.7c-0.4-1.1-0.7-2.2-1.1-3.3c-0.3-1.1-0.6-2.2-0.9-3.3c-0.3-1-0.6-1.9-0.9-2.9c-0.1-0.2-0.1-0.4-0.1-0.5
	c-0.1-0.3-0.2-0.6-0.3-0.9c-0.1-0.3-0.2-0.7-0.3-1c-0.2-0.6-0.4-1.2-0.6-1.8c-0.2-0.4-0.6-0.7-0.9-0.6c-0.5,0.1-0.7,0.6-0.6,1
	c0,0.2,0.1,0.4,0.2,0.6c0.3,0.9,0.6,1.9,0.9,2.8c0,0.1,0,0.2,0.1,0.3c0.2,1.2,0.1,1.3-1.1,1.3h-10.7H132.7z M162.9,85.3
	c-0.5,0-1.1,0-1.6-0.1c-1.1-0.1-2.2-0.6-3.2-1c-1.2-0.5-2.2-1.3-3.2-2.2c-1.9-1.8-3.1-3.9-3.5-6.4c-0.4-2.4-0.1-4.7,0.9-6.9
	c0.6-1.4,1.5-2.6,2.7-3.6c0.7-0.7,1.6-1.2,2.4-1.8c0.1-0.1,0.3-0.2,0.5-0.2c0.6-0.2,0.9-0.1,1.1,0.5c0.3,0.7,0.5,1.5,0.7,2.2
	c0.4,1.3,0.7,2.7,1.1,4c0.3,0.9,0.6,1.8,0.9,2.7c0.1,0.3,0.1,0.6,0.2,0.9c0.1,0.3,0.3,0.7,0.5,0.9c0.2,0.1,0.5,0.2,0.8,0.1
	c0.3-0.1,0.4-0.4,0.4-0.7c-0.1-0.6-0.3-1.2-0.4-1.8c-0.1-0.4-0.2-0.7-0.4-1.1c-0.3-0.9-0.5-1.7-0.8-2.6c-0.4-1.4-0.8-2.8-1.2-4.2
	c-0.1-0.3-0.2-0.5-0.3-0.7c-0.3-0.6-0.1-1.1,0.7-1.2c1.5-0.3,3-0.2,4.5,0.2c2.6,0.7,4.6,2.1,6.3,4.2c0.8,1,1.3,2.1,1.8,3.3
	c0.9,2.1,0.8,4.3,0.4,6.5c-0.3,1.7-1,3.2-2.1,4.5c-0.7,0.9-1.6,1.6-2.4,2.4c-0.2,0.1-0.3,0.2-0.5,0.3c-1.1,0.7-2.4,1.3-3.7,1.6
	C164.8,85.2,163.8,85.3,162.9,85.3C162.9,85.3,162.9,85.3,162.9,85.3 M121.4,74.4c1.6,0,3.2,0,4.9,0c0.8,0,1.2,0.4,1.1,1.2
	c-0.1,1.1-0.5,2.2-1,3.2c-0.9,1.7-2.1,3.1-3.6,4.2c-1,0.8-2.2,1.3-3.4,1.7c-1.9,0.7-3.7,0.6-5.6,0.4c-0.9-0.1-1.8-0.6-2.6-0.9
	c-0.3-0.1-0.6-0.3-0.9-0.5c-1.7-1-3.1-2.3-4.2-4c-0.8-1.3-1.4-2.6-1.5-4.1c-0.1-0.9-0.3-1.8-0.2-2.8c0.2-1.3,0.3-2.6,0.9-3.7
	c0.7-1.5,1.6-3,3-4.1c1-0.9,2.1-1.6,3.4-2.2c0.6-0.3,1.2-0.5,1.9-0.6c1.9-0.4,3.8-0.4,5.7,0.2c0.7,0.2,1.3,0.5,2,0.8
	c0.6,0.2,0.8,0.8,0.4,1.3c-0.4,0.6-0.9,1.2-1.4,1.9c-1.4,1.9-2.7,3.8-4.1,5.8c-0.2,0.4-0.5,0.7-0.7,1c-0.4,0.6,0,1.3,0.7,1.3
	c0.5,0,1.1,0,1.7,0L121.4,74.4L121.4,74.4 M153,53.2c0.1,0,0.2,0,0.4,0c0.4,0.1,0.6,0.3,0.5,0.7c-0.1,0.2-0.3,0.5-0.4,0.6
	c-2.6,2.9-5.2,5.7-7.8,8.6c-2.3,2.5-4.6,5-6.9,7.6c-0.2,0.2-0.3,0.4-0.5,0.5c-0.3,0.3-0.7,0.2-0.9-0.1c0-0.1-0.1-0.2-0.1-0.3
	c-0.3-1.1-0.7-2.2-1-3.3c-0.4-1.1-0.7-2.3-1-3.4c-0.3-1.1-0.6-2.2-0.9-3.4c-0.1-0.2-0.2-0.5-0.3-0.7c-0.1-0.1-0.1-0.3-0.2-0.4
	c-0.3-0.9-0.5-1.8-0.8-2.8c-0.2-0.7-0.5-1.5-0.7-2.2c-0.1-0.1-0.1-0.2-0.1-0.3c-0.3-0.8,0.1-1.2,0.9-1.2c1.9,0,3.8,0,5.7,0h4.2v0
	H153z M130.3,72.7c-1,0-1.2-0.2-1.4-1.1c-0.2-1.2-0.4-2.3-0.9-3.4c-0.4-0.8-0.9-1.6-1.4-2.4c-0.5-0.7-1.1-1.3-1.7-1.9
	c-0.5-0.5-0.6-1-0.1-1.5c0.7-0.9,1.4-1.9,2-2.8c0.9-1.3,1.8-2.6,2.7-3.9c0.1-0.2,0.3-0.4,0.5-0.5c0.4-0.2,0.8-0.1,0.9,0.4
	c0.2,0.8,0.4,1.7,0.7,2.5c0.3,0.9,0.6,1.7,0.9,2.6c0.2,0.7,0.4,1.5,0.7,2.3c0.4,1.5,0.9,3,1.3,4.5c0.3,1,0.6,2,0.8,2.9
	c0.1,0.2,0.2,0.4,0.2,0.6c0.1,0.2,0.2,0.4,0.2,0.6c0.2,0.9-0.1,1.3-1,1.3c-0.4,0-0.8,0-1.2,0c-0.4,0-0.8,0-1.1,0l0,0H130.3z
	 M118.9,72.8c-0.3,0-0.7,0-0.9-0.3c-0.2-0.4,0-0.7,0.2-1c0.7-0.9,1.3-1.8,2-2.7c0.8-1.1,1.5-2.2,2.3-3.3c0.4-0.6,1-0.6,1.4-0.1
	c0.9,1,1.8,2,2.3,3.2c0.5,1,0.9,2,1,3.2c0.1,0.8-0.2,1.2-1,1.2c-0.6,0-1.2,0-1.8,0h-1.8v0H118.9z M245.2,105.5c0.3,0,0.5,0,0.7,0
	c0.5-0.1,1.1-0.2,1.6-0.3c2.2-0.4,4.4-0.7,6.6-1.1c0.2,0,0.3-0.1,0.5-0.1c1.7-0.3,3.3-0.7,5-1c1.8-0.3,3.5-0.6,5.2-0.8
	c1.3-0.2,2.6-0.4,3.9-0.6c1.4-0.2,2.8-0.4,4.1-0.6c0.1,0,0.2-0.1,0.3-0.1c0.5-0.1,1-0.3,1.6-0.3c0.6-0.1,1.1-0.2,1.6-0.5
	c1.5-0.9,2.3-2.2,2.3-3.9c0-1-0.2-2-0.9-2.8c-1.2-1.3-2.7-2-4.6-1.5c-0.8,0.2-1.6,0.3-2.4,0.4c-0.4,0.1-0.8,0.1-1.2,0.2
	c-0.4,0.1-0.9,0.2-1.3,0.3c-1.1,0.2-2.3,0.3-3.4,0.5c-1.9,0.3-3.8,0.6-5.7,0.9c-1.4,0.2-2.8,0.5-4.3,0.7c-0.2,0-0.3,0.1-0.4,0.1
	c-0.6,0.1-1.2,0.3-1.8,0.4c-1.4,0.3-2.9,0.5-4.3,0.7c-1.4,0.2-2.8,0.5-4.3,0.7c-0.1,0-0.2,0.1-0.4,0.2c0.2,0.2,0.3,0.4,0.4,0.6
	c0.1,0.2,0.3,0.3,0.4,0.5c1.4,2.2,1.8,4.6,0.8,7.1C245.3,105,245.3,105.2,245.2,105.5 M35,96.7c-0.2-0.1-0.3-0.1-0.4-0.2
	c-2.1-0.3-4.2-0.7-6.3-1c-0.5-0.1-1.1-0.3-1.6-0.4c-1.6-0.3-3.2-0.5-4.7-0.8c-1.9-0.3-3.7-0.7-5.6-1c-1.5-0.3-3.1-0.5-4.7-0.7
	c-1.8-0.3-3.5-0.6-5.3-0.8c-0.1,0-0.2,0-0.3-0.1c-1.2-0.4-2.3-0.3-3.4,0.3c-1,0.6-1.9,1.3-2.2,2.5c-0.4,1.5-0.4,2.9,0.6,4.2
	c0.6,0.8,1.3,1.3,2.2,1.6c0.9,0.3,2,0.4,2.9,0.6c1.5,0.2,3,0.4,4.6,0.6c1.5,0.2,3,0.5,4.6,0.7c1.7,0.3,3.3,0.5,5,0.8
	c0.1,0,0.1,0,0.1,0c1.5,0.3,3,0.6,4.6,0.9c1.5,0.3,2.9,0.5,4.4,0.7c1.2,0.2,2.5,0.5,3.7,0.7c0.2,0,0.4,0,0.5-0.1
	c0.1-0.1,0-0.3,0-0.5c-0.1-0.4-0.4-0.9-0.4-1.3c-0.4-2.3,0.1-4.4,1.6-6.2C34.8,97.2,34.8,97,35,96.7 M97,92.4c0.1-1.1-0.5-2.1-1.4-3
	c-0.8-0.8-1.9-1.2-2.9-1.7c-0.7-0.4-1.5-0.6-2.2-0.9c-0.8-0.3-1.5-0.7-2.3-1c-0.7-0.3-1-0.2-1.4,0.5c-0.1,0.1-0.1,0.2-0.2,0.3
	c-0.3,0.6-0.6,1.2-0.8,1.8c-0.5,1.1-1.1,2.2-1.5,3.3c-0.5,1.1-1,2.2-1.5,3.2c-0.7,1.4-1.4,2.9-2,4.3c-0.3,0.6-0.1,0.9,0.4,1.1
	c1.4,0.6,2.7,1.2,4.1,1.8c0.6,0.3,1.2,0.5,1.8,0.7c0.8,0.3,1.7,0.6,2.6,0.9c0.8,0.3,1.6,0.4,2.5,0.3c1-0.1,1.8-0.7,2.3-1.6
	c0.1-0.2,0.1-0.4,0.2-0.5c0.5-0.7,0.4-1.5,0.1-2.3c-0.2-0.4-0.3-0.7-0.4-1.1c-0.2-0.5-0.1-0.9,0.4-1.3c0.4-0.3,0.7-0.7,1-1.1
	C96.6,95.2,97,94,97,92.4 M88.2,93.1c0-0.2,0-0.4,0.1-0.5c0.2-0.5,0.4-1,0.7-1.5c0.3-0.5,0.8-0.7,1.3-0.5c0.7,0.3,1.4,0.7,2.1,1
	c0.7,0.4,0.8,0.9,0.6,1.7c-0.2,0.6-0.5,1.1-0.9,1.4c-0.3,0.2-0.6,0.4-1,0.2c-0.8-0.3-1.6-0.7-2.4-1C88.3,93.8,88.2,93.5,88.2,93.1
	 M87.4,96.7c0,0,0.2,0,0.3,0c0.8,0.4,1.7,0.8,2.5,1.3c0.6,0.4,0.7,1,0.4,1.6c-0.4,0.8-1,1.2-1.6,0.9c-0.9-0.3-1.7-0.6-2.5-1
	c-0.9-0.4-1-1.1-0.6-1.9c0.1-0.2,0.2-0.3,0.3-0.5C86.5,96.8,86.8,96.7,87.4,96.7 M187.5,93.9c-0.5,0-0.8-0.2-1-0.5
	c-0.1-0.1-0.2-0.3-0.2-0.4c-0.4-0.8-0.4-1.1,0.4-1.6c0.2-0.1,0.4-0.2,0.6-0.3c0.6-0.3,1.3-0.5,1.9-0.8c0.8-0.4,1.7-0.8,2.5-1.1
	c0.3-0.1,0.5-0.3,0.8-0.4c0.3-0.2,0.5-0.5,0.3-0.8c-0.3-0.7-0.6-1.3-1-1.9c-0.3-0.4-0.5-0.5-1-0.3c-0.8,0.3-1.5,0.6-2.3,0.9
	c-0.5,0.2-1.1,0.5-1.6,0.7c-0.7,0.3-1.3,0.6-2,0.9c-1.1,0.4-2.2,0.8-3.4,1.3c-0.4,0.1-0.5,0.4-0.4,0.8c0.1,0.3,0.2,0.7,0.3,1
	c0.3,0.8,0.7,1.6,1,2.5c0.6,1.8,1.3,3.6,1.9,5.4c0.5,1.4,1,2.8,1.4,4.1c0.1,0.4,0.3,0.7,0.4,1c0.2,0.4,0.4,0.5,0.8,0.4
	c0.8-0.3,1.5-0.6,2.3-0.9c0.7-0.3,1.4-0.6,2.2-0.9c0.7-0.3,1.5-0.6,2.2-0.9c1.3-0.6,2.6-1.2,3.9-1.7c0.6-0.3,0.8-0.6,0.5-1.2
	c-0.2-0.5-0.5-1.1-0.7-1.6c-0.4-0.8-0.7-0.8-1.4-0.4c-0.3,0.2-0.7,0.3-1,0.5c-0.6,0.3-1.2,0.6-1.8,0.8c-0.9,0.4-1.9,0.8-2.8,1.2
	c-0.5,0.2-0.9-0.1-1.3-0.5c-0.4-0.5-0.6-1-0.3-1.5c0-0.1,0.1-0.2,0.2-0.3c0.4-0.2,0.8-0.5,1.2-0.7c1-0.4,2-0.8,2.9-1.3
	c0.4-0.2,0.5-0.5,0.4-0.8c-0.3-0.7-0.7-1.4-1.1-2c-0.3-0.4-0.4-0.4-0.9-0.2c-1.1,0.5-2.3,1-3.4,1.4
	C187.8,93.9,187.6,93.9,187.5,93.9 M164.2,103.7c-0.2-0.7-0.4-1.4-0.6-2.1c-0.1-0.3-0.3-0.5-0.7-0.4c-0.8,0.1-1.5,0.2-2.3,0.3
	c-0.4,0.1-0.8,0.3-1.2,0.3c-0.6,0.1-1.2-0.3-1.5-0.9c-0.2-0.7-0.1-1.5,0.6-1.7c0.3-0.1,0.7-0.3,1.1-0.3c1.6-0.3,3.2-0.5,4.8-0.8
	c0.7-0.1,0.8-0.3,0.7-1c-0.1-0.7-0.3-1.3-0.4-2c-0.1-0.4-0.2-0.6-0.7-0.5c-0.5,0-1,0.1-1.5,0.2c-1.5,0.5-3,0.6-4.5,0.9
	c-1.2,0.3-2.5,0.3-3.7,0.5c-0.8,0.1-0.9,0.3-0.8,1.1c0.3,2.5,0.6,5,0.9,7.4c0,0.2,0,0.4,0,0.6c0.1,0.8,0.1,1.7,0.2,2.6
	c0.1,1.2,0.3,2.4,0.5,3.6c0.1,0.7,0.3,0.8,1,0.7c0.6-0.1,1.2-0.2,1.8-0.3c1.4-0.2,2.7-0.3,4.1-0.5c1.7-0.3,3.3-0.6,5-0.9
	c0.7-0.1,0.8-0.3,0.8-1c0-0.2-0.1-0.4-0.1-0.5c-0.1-0.4-0.2-0.9-0.3-1.3c-0.1-0.5-0.3-0.7-0.9-0.6c-0.9,0.1-1.7,0.3-2.6,0.4
	c-0.3,0.1-0.6,0.1-0.9,0.2c-0.8,0.1-1.7,0.2-2.5,0.5c-0.7,0.3-1.5-0.3-1.7-1.1c-0.2-0.8,0.1-1.4,0.9-1.6c0.3-0.1,0.5-0.2,0.8-0.2
	c1-0.2,2-0.3,3-0.5C164,104.5,164.1,104.3,164.2,103.7 M111,110.4c1.1,0,2.2,0.1,3.3-0.6c1-0.6,1.6-1.4,2-2.5c0.3-0.8,0.2-1-0.6-1.4
	c-0.5-0.2-0.9-0.3-1.4-0.6c-1-0.6-1.6-0.4-2.1,0.6c-0.4,0.7-1.2,1-2,0.8c-0.3-0.1-0.6-0.2-0.9-0.3c-0.8-0.3-1.3-0.9-1.2-1.8
	c0-0.6,0.1-1.3,0.2-1.9c0.3-1.2,0.5-2.3,0.9-3.5c0.1-0.5,0.4-1,0.6-1.5c0.4-0.6,1-0.9,1.7-0.9c1.4,0,2.3,0.9,2.4,2.3
	c0.1,0.4,0.3,0.7,0.6,0.7c0.9,0,1.7,0,2.6,0c0.4,0,0.7-0.3,0.6-0.7c-0.1-0.8-0.1-1.6-0.4-2.4c-0.6-1.5-1.9-2.3-3.3-2.9
	c-0.9-0.3-1.9-0.5-2.9-0.5c-2.1-0.1-3.8,0.5-4.9,2.4c-0.4,0.8-0.8,1.6-0.9,2.5c0,0.2-0.1,0.4-0.1,0.5c-0.3,1.1-0.6,2.1-0.9,3.2
	c-0.2,0.7-0.4,1.4-0.5,2.1c-0.2,1.4,0,2.7,0.9,3.8c0.8,0.9,1.8,1.5,2.9,1.8c0.3,0.1,0.7,0.2,1,0.3c0.3,0.1,0.6,0.2,0.9,0.2
	C110,110.4,110.5,110.4,111,110.4 M125.8,106.9C125.8,106.9,125.8,106.9,125.8,106.9c0,0.4,0,0.8,0,1.1c0,0.4,0.1,0.8,0.1,1.1
	c0.1,1.8,1.7,3.3,3.4,3.7c0.4,0.1,0.9,0.2,1.3,0.3c1.8,0.5,3.6,0.2,5.4-0.4c1.6-0.7,2.5-2.1,2.7-3.8c0-0.5-0.1-0.6-0.6-0.7
	c-0.5-0.1-0.9-0.3-1.3-0.4c-0.4-0.1-0.7-0.2-1.1-0.2c-0.6-0.1-0.9,0-1.2,0.7c-0.2,0.5-0.4,1-1,1.3c-1,0.4-1.9,0.3-2.7-0.2
	c-0.4-0.2-0.6-0.6-0.7-1c-0.1-0.5-0.1-1-0.1-1.5c0-1.1,0.1-2.2,0.2-3.3c0-0.4,0-0.9,0.1-1.3c0.1-0.7,0.3-1.4,0.8-1.8
	c1.3-1.2,3.4-0.6,3.8,1.1c0.2,0.7,0.3,0.8,0.9,0.7c0.8-0.1,1.7-0.3,2.5-0.5c0.3-0.1,0.5-0.3,0.5-0.7c-0.2-1.8-1.1-3.4-3-4.2
	c-1.5-0.6-3-0.7-4.5-0.5c-0.9,0.1-1.8,0.4-2.6,0.9c-1.2,0.8-1.8,2-2,3.4C126.2,102.8,126,104.9,125.8,106.9 M175.4,108.4
	c0.1,0,0.3-0.1,0.5-0.1c0.6-0.2,1.2-0.3,1.8-0.5c0.8-0.2,1-0.6,0.8-1.4c-0.4-1.4-0.8-2.8-1.2-4.2c-0.3-1-0.5-1.9-0.8-2.9
	c-0.3-0.9-0.6-1.8-0.9-2.7c-0.3-0.7-0.2-1.1,0.5-1.5c0.3-0.2,0.6-0.3,0.9-0.4c0.8-0.2,1.5-0.4,2.3-0.7c0.5-0.2,0.8-0.5,0.7-0.9
	c-0.2-0.8-0.5-1.5-0.8-2.2c-0.1-0.3-0.3-0.4-0.6-0.4c-0.6,0.1-1.1,0.3-1.7,0.4c-0.4,0.1-0.8,0.3-1.3,0.4c-0.2,0.1-0.4,0.1-0.6,0.2
	c-0.9,0.3-1.7,0.6-2.6,0.9c-1.1,0.3-2.2,0.5-3.3,0.8c-0.8,0.2-1.7,0.4-2.5,0.6c-0.6,0.1-0.7,0.3-0.6,0.9c0.1,0.6,0.3,1.3,0.4,1.9
	c0.1,0.5,0.3,0.7,0.8,0.6c0.5-0.1,1-0.2,1.5-0.3c0.6-0.1,1.3-0.3,1.9-0.4c0.7-0.1,1,0.3,1.2,1c0.2,0.9,0.5,1.9,0.7,2.8
	c0.6,2.4,1.2,4.8,1.8,7.2C174.6,108.1,174.9,108.4,175.4,108.4 M140.9,105v7.1c0,0.7,0.1,0.9,0.9,1c0.2,0,0.3,0,0.5,0
	c0.7,0,1.5-0.1,2.2-0.1c1.9-0.1,3.9-0.2,5.8-0.3c0.7,0,1.4-0.1,2.1-0.2c0.5-0.1,0.6-0.3,0.6-0.7c-0.1-0.7-0.1-1.3-0.2-2
	c-0.1-0.6-0.4-0.8-1-0.7c-0.1,0-0.3,0.1-0.4,0.1c-1.6,0.1-3.3,0.2-4.9,0.3c-1,0.1-1.4-0.4-1.5-1.4c-0.1-0.8-0.1-1.6-0.1-2.4
	c-0.1-2.6-0.2-5.3-0.3-7.9c0-0.6-0.3-0.8-0.9-0.8c-0.6,0-1.3,0-1.9,0.1c-0.7,0-0.9,0.1-0.9,0.9L140.9,105L140.9,105z M82.1,72.3
	c0.1,0.2,0.2,0.4,0.3,0.6c0.6,0.9,0.6,1.7,0,2.6c-0.4,0.6-0.4,0.8,0.3,1.1c0.9,0.5,1.5,1.2,1.6,2.3c0.1,0.6,0.1,0.6,0.6,0.5
	c1.2-0.3,2,0.1,2.8,1c0.4,0.5,0.6,0.5,1,0c0.7-0.8,1.6-1.3,2.8-1c0.5,0.1,0.6,0.1,0.7-0.4c0.2-1.1,0.7-1.9,1.7-2.4
	c0.6-0.3,0.6-0.5,0.3-1c-0.2-0.3-0.4-0.7-0.4-1c-0.1-0.6,0-1.1,0.4-1.6c0.4-0.6,0.4-0.6-0.2-1c-0.9-0.6-1.7-1.3-1.7-2.5
	c0-0.3-0.2-0.5-0.6-0.5c-0.1,0-0.2,0-0.3,0c-1.1,0.2-1.9-0.2-2.6-1c-0.4-0.5-0.5-0.5-0.9,0c-0.7,0.8-1.5,1.2-2.5,1
	c-0.1,0-0.2,0-0.3,0c-0.5,0-0.6,0.1-0.6,0.5c-0.1,0.9-0.5,1.5-1.2,2C82.9,71.8,82.5,72.1,82.1,72.3 M85.8,74.2
	c0-1.3,1.3-2.5,2.6-2.5c1.3,0,2.6,1.3,2.6,2.5c0,1.3-1.3,2.6-2.6,2.6C87.1,76.9,85.8,75.6,85.8,74.2 M184.1,72.3
	c0.2,0.4,0.4,0.7,0.6,1.1c0.3,0.6,0.3,1.2,0,1.8c-0.1,0.2-0.2,0.3-0.3,0.5c-0.3,0.5-0.3,0.7,0.3,0.9c1,0.5,1.6,1.3,1.8,2.4
	c0.1,0.5,0.1,0.5,0.6,0.4c1.2-0.3,2,0.1,2.8,0.9c0.4,0.5,0.6,0.5,1,0c0.8-0.9,1.7-1.2,2.8-1c0.6,0.1,0.6,0.1,0.7-0.5
	c0.2-1.1,0.7-1.9,1.7-2.3c0.6-0.3,0.7-0.5,0.2-1.1c-0.3-0.4-0.4-0.8-0.4-1.2c0-0.6,0.1-1,0.5-1.5c0.3-0.4,0.3-0.5-0.2-0.8
	c-0.3-0.2-0.5-0.3-0.7-0.5c-0.6-0.5-1-1-1.1-1.8c-0.1-0.7-0.1-0.7-0.8-0.7c-0.1,0-0.2,0-0.3,0c-0.7,0.1-1.4,0-1.9-0.5
	c-0.2-0.2-0.4-0.3-0.5-0.5c-0.3-0.4-0.5-0.4-0.8,0c-0.7,0.9-1.6,1.3-2.8,1.1c-0.7-0.1-0.7,0-0.8,0.6c-0.1,0.8-0.5,1.4-1.1,1.9
	C184.9,71.8,184.6,72,184.1,72.3 M192.9,74.3c0,1.3-1.2,2.6-2.6,2.6c-1.3,0-2.6-1.3-2.6-2.6c0-1.2,1.3-2.5,2.6-2.5
	C191.6,71.7,192.9,73,192.9,74.3 M97.4,56.9C97.4,56.9,97.4,56.9,97.4,56.9c0.3,0,0.6,0,0.9,0c0.2,0,0.5-0.1,0.6-0.3
	c0.3-0.4,0.5-0.7,0.7-1.1c0.2-0.4,0.1-0.6-0.3-0.7c-0.4-0.1-0.7-0.1-1.1-0.1c-0.7-0.1-1.5-0.1-2.2-0.2c-0.4-0.1-0.7-0.3-0.8-0.7
	c-0.1-0.7-0.6-1.2-1.1-1.7c-0.7-0.6-1.5-1.1-2.3-1.4c-0.7-0.2-1.5-0.3-2.2,0.1c-0.7,0.3-1.2,0.8-1.6,1.5c-0.7,1.1-1.4,2.2-2.1,3.2
	c-0.4,0.6-0.4,0.7,0.2,1.1c1.5,1,3.1,1.9,4.5,2.8c0.9,0.6,1.8,1.1,2.7,1.7c0.5,0.3,0.9,0.6,1.4,0.9c0.5,0.3,0.8,0.2,1.1-0.3
	c0.1-0.2,0.3-0.4,0.4-0.6c0.4-0.6,0.3-0.9-0.3-1.2c-0.6-0.4-1.1-0.7-1.7-1.1c-0.7-0.4-0.4-1.7,0.3-1.9c0.3-0.1,0.7-0.1,1-0.1
	C96.1,56.7,96.7,56.8,97.4,56.9 M90.8,53c0.3,0.1,0.5,0.1,0.7,0.2c0.9,0.3,1.3,1,0.9,1.9c-0.2,0.4-0.5,0.8-0.8,1.2
	c-0.2,0.2-0.5,0.3-0.8,0.2c-0.4-0.2-0.9-0.5-1.2-0.8c-0.4-0.4-0.4-0.8-0.2-1.3c0.2-0.4,0.4-0.7,0.7-1C90.2,53.2,90.5,53.1,90.8,53
	 M185.1,45.6c0-0.7-0.3-1.4-0.8-2c-1-1.1-2-2.2-3-3.3c-0.5-0.6-0.6-0.5-1.2,0c-1.7,1.6-3.3,3.1-5,4.7c-0.8,0.8-1.6,1.5-2.4,2.3
	c-0.4,0.4-0.4,0.6-0.1,0.9c1.1,1.1,2.1,2.3,3.3,3.3c1.5,1.2,2.7,1.2,4.2,0c0.9-0.7,1.7-1.6,2.6-2.4c0.5-0.5,1.1-1,1.5-1.6
	C184.8,47,185.1,46.4,185.1,45.6 M182.4,45.3c0,0.6-0.2,0.9-0.5,1.2c-0.7,0.7-1.4,1.3-2.1,2c-0.3,0.3-0.6,0.6-1,0.9
	c-0.6,0.5-1.1,0.4-1.6-0.1c-0.3-0.3-0.6-0.6-0.9-0.9c-0.3-0.3-0.4-0.6-0.1-1c0.1-0.2,0.3-0.3,0.4-0.5c1.1-1,2.1-2,3.1-3
	c0.6-0.6,1-0.6,1.6,0c0.3,0.2,0.5,0.5,0.7,0.8C182.3,44.9,182.4,45.2,182.4,45.3 M149.3,27.7c-0.1-0.6-0.1-1.3-0.4-1.8
	c-0.4-1-1.2-1.5-2.3-1.7c-1.4-0.2-2.8-0.3-4.2-0.5c-0.9-0.1-1,0-1.1,0.9c-0.1,1-0.1,1.9-0.2,2.9c-0.1,0.6-0.2,1.2-0.3,1.9
	c-0.2,1.7-0.3,3.4-0.5,5.1c0,0.4,0.1,0.6,0.5,0.7c0.4,0.1,0.7,0.1,1.1,0.2c0.7,0.1,0.9-0.2,0.9-0.8c0-0.2,0-0.4,0-0.5
	c0-0.5,0.1-0.9,0.1-1.3c0.1-0.6,0.5-0.9,1-0.9c0.5-0.1,0.8,0.1,1.1,0.6c0.3,0.7,0.7,1.3,0.9,2c0.5,1.6,0.7,1.3,2.2,1.5
	c0.7,0.1,0.9-0.2,0.6-0.9c-0.4-0.9-0.7-1.7-1.1-2.6c-0.2-0.5-0.1-1,0.3-1.4c0.3-0.3,0.5-0.8,0.8-1.1
	C149.3,29.3,149.2,28.5,149.3,27.7 M145.1,26.4c0.5,0.1,1,0,1.4,0.4c0.5,0.5,0.5,1.1,0.3,1.7c-0.2,0.6-0.8,0.9-1.4,0.9
	c-0.1,0-0.2,0-0.3,0c-1.4-0.2-1.8-1-1.4-2.3C143.9,26.6,144.3,26.4,145.1,26.4 M102.2,37.6c0,0.9,0,0.9,0.4,1.6
	c0.5,0.9,1.1,1.8,1.7,2.7c0.5,0.7,1,1.5,1.6,2.2c1.1,1.3,2.6,1.7,4.2,1c0.5-0.2,1-0.4,1.4-0.8c1.4-1.1,2.2-2.8,1.2-4.6
	c-0.5-0.8-1-1.6-1.5-2.3c-0.3-0.4-0.6-0.5-1-0.2c-0.8,0.5-1.4,1-2.2,1.6c-0.3,0.3-0.4,0.5-0.1,0.9c0.1,0.1,0.1,0.2,0.2,0.3
	c0.4,0.6,0.4,0.6,1.1,0.3c0.4-0.3,0.8-0.2,1.1,0.1c0.3,0.4,0.4,0.8,0.3,1.3c-0.3,0.7-0.8,1.1-1.5,1.2c-0.6,0.2-1.1-0.2-1.4-0.7
	c-0.4-0.5-0.8-1-1.2-1.6c-0.4-0.6-0.9-1.2-1.3-1.9c-0.5-0.8-0.4-1.5,0.3-2.1c0.7-0.6,1.4-0.6,2.1-0.1c0.4,0.3,0.5,0.3,0.8,0
	c0.3-0.3,0.6-0.7,0.9-1c0.2-0.3,0.2-0.6,0-0.8c-1-1.1-2.2-1.5-3.6-1c-1,0.3-1.9,0.8-2.5,1.6C102.6,36.1,102.1,36.7,102.2,37.6
	 M97.7,46.5c-0.7-0.1-1-0.4-1.2-0.8c-0.2-0.4-0.1-0.8,0.3-1.1c0.8-0.8,1.6-1.7,2.4-2.5c0.4-0.4,0.4-0.6,0-1
	c-0.2-0.2-0.4-0.4-0.7-0.6c-0.5-0.5-0.7-0.5-1.2,0.1c-1.3,1.4-2.7,2.9-4,4.3c-0.6,0.7-0.6,0.9,0.1,1.6c2.3,2.2,4.6,4.4,7,6.6
	c0.6,0.6,0.8,0.6,1.4-0.1c0.7-0.7,1.4-1.5,2.1-2.2c0.7-0.7,1.4-1.4,2.1-2.2c0.4-0.4,0.4-0.6,0-1c-0.2-0.2-0.4-0.4-0.7-0.6
	c-0.5-0.4-0.8-0.4-1.2,0c-0.8,0.8-1.6,1.6-2.4,2.5c-0.2,0.2-0.5,0.4-0.8,0.4c-0.5-0.1-0.8-0.4-1.1-0.9c-0.2-0.4,0-0.7,0.2-1
	c0.1-0.1,0.2-0.2,0.3-0.3c0.4-0.4,0.8-0.8,1.2-1.3c0.4-0.4,0.4-0.6,0-0.9c-0.3-0.3-0.5-0.5-0.8-0.8c-0.4-0.4-0.6-0.4-1,0
	c-0.4,0.4-0.8,0.9-1.3,1.4C98.2,46.2,97.9,46.4,97.7,46.5 M187,54.3c0-0.9,0.7-1.4,1.3-1.2c0.3,0.1,0.5,0.4,0.7,0.6
	c0.3,0.4,0.6,0.9,0.8,1.4c0.3,0.5,0.6,1,1,1.5c0.3,0.4,0.6,0.4,1,0.1c0.3-0.2,0.6-0.4,0.9-0.6c0.4-0.3,0.4-0.4,0.2-0.9
	c-0.3-0.4-0.6-0.8-0.8-1.2c-0.8-1.3-1.7-2.7-2.5-4c-0.5-0.8-0.6-0.8-1.4-0.3c-0.9,0.6-1.8,1.2-2.7,1.7c-1.5,0.9-3,1.8-4.5,2.8
	c-0.4,0.3-0.9,0.5-1.3,0.9c-0.5,0.4-0.5,0.5-0.2,1c0.3,0.5,0.6,0.9,0.9,1.4c0.8,1.3,1.7,2.7,2.5,4c0.3,0.4,0.5,0.5,1,0.2
	c0.3-0.2,0.5-0.3,0.8-0.5c0.6-0.3,0.7-0.6,0.3-1.2c-0.7-1-1.3-2-2-3.1c-0.2-0.3-0.2-0.5,0-0.8c0.4-0.8,1.4-0.9,2-0.2
	c0.4,0.5,0.7,1.1,1.1,1.7c0.3,0.5,0.6,0.5,1.1,0.2c0.2-0.2,0.5-0.3,0.7-0.5c0.6-0.3,0.6-0.6,0.3-1.2c-0.3-0.5-0.7-1-1-1.5
	C187.1,54.7,187.1,54.4,187,54.3 M127.4,34.1c-0.1-0.2-0.1-0.7-0.3-1.1c-0.6-1.2-1.7-1.7-3-1.9c-0.8-0.1-1.6-0.1-2.4-0.2
	c-0.4-0.1-0.8-0.2-1.2-0.4c-0.5-0.3-0.5-0.7-0.2-1.1c0.1-0.2,0.3-0.4,0.6-0.5c0.7-0.4,1.4-0.3,2.1,0.3c0.6,0.5,0.7,0.5,1.3,0.1
	c0.2-0.1,0.4-0.3,0.7-0.4c0.6-0.3,0.6-0.6,0.3-1.1c-0.8-1.2-1.9-1.6-3.2-1.5c-0.8,0.1-1.5,0.3-2.2,0.6c-0.8,0.3-1.4,0.8-1.8,1.6
	c-0.5,1-0.5,2,0,3c0.3,0.6,0.7,1,1.2,1.3c0.9,0.4,1.9,0.6,2.9,0.6c0.3,0,0.7,0,1,0.1c0.4,0.1,0.7,0.2,1,0.4c0.7,0.4,0.8,1.1,0.2,1.6
	c-1.2,1-1.7,0.9-2.7,0c-0.1-0.1-0.1-0.1-0.2-0.1c-0.3-0.3-0.6-0.4-1-0.1c-0.3,0.2-0.6,0.4-1,0.6c-0.3,0.2-0.5,0.5-0.3,0.8
	c0.3,0.4,0.6,0.9,1,1.2c0.8,0.7,1.8,0.8,2.8,0.7c0.8-0.1,1.6-0.3,2.3-0.7C126.5,36.9,127.3,35.9,127.4,34.1 M99.2,107.2
	c0.5,0,0.7-0.2,0.8-0.7c0.1-0.4,0.2-0.8,0.3-1.2c0.3-0.9,0.6-1.8,0.9-2.8c0.3-1.2,0.6-2.3,1-3.5c0.3-1.1,0.7-2.2,1-3.3
	c0.3-1.1,0.6-2.1,0.9-3.2c0.1-0.3,0.1-0.6-0.2-0.8c-0.2-0.1-0.4-0.3-0.6-0.3c-0.6-0.1-1.2-0.3-1.8-0.6c-0.4-0.2-0.7,0-0.9,0.4
	c-0.2,0.4-0.3,0.8-0.4,1.2c-0.3,0.8-0.5,1.6-0.8,2.4c-0.3,0.8-0.6,1.6-0.9,2.4c-0.3,1-0.6,2.1-1,3.1c-0.5,1.5-1,3-1.5,4.6
	c-0.3,0.8-0.1,1.1,0.6,1.4c0.1,0.1,0.2,0.1,0.3,0.1c0.6,0.2,1.2,0.4,1.8,0.6C99,107.2,99.1,107.2,99.2,107.2 M121.7,95.7
	c-0.1,0-0.2,0-0.3,0c-0.8-0.1-0.9,0.1-1,0.9c0,0.3-0.1,0.6-0.1,0.9c-0.2,1.4-0.5,2.8-0.7,4.1c-0.3,1.8-0.4,3.5-0.8,5.3
	c-0.2,1.2-0.4,2.4-0.6,3.6c-0.1,0.9,0.1,1.1,1,1.2c0.6,0.1,1.3,0.2,1.9,0.2c0.8,0.1,1.1-0.1,1.1-0.9c0.3-2.3,0.5-4.5,0.8-6.8
	c0.1-0.7,0.2-1.4,0.3-2.1c0.1-0.8,0.2-1.6,0.3-2.4c0.1-0.9,0.2-1.8,0.4-2.6c0.2-0.8,0-1.1-0.8-1.2C122.8,95.8,122.2,95.8,121.7,95.7
	L121.7,95.7z M151.4,34.3c0.1,1.6,0.8,2.6,1.9,3.3c0.8,0.5,1.7,0.6,2.6,0.6c1.6,0.2,2.7-0.5,3.3-2c0.3-0.7,0.5-1.4,0.7-2.1
	c0.2-0.9,0.6-1.7,0.9-2.6c0.3-0.9,0.6-1.9,0.9-2.9c0.1-0.5,0.1-0.7-0.4-0.9c-0.4-0.2-0.7-0.3-1.1-0.4c-0.4-0.1-0.7,0.1-0.8,0.5
	c-0.2,0.8-0.5,1.6-0.7,2.4c0,0.2-0.1,0.4-0.2,0.5c-0.3,0.9-0.6,1.8-0.9,2.7c-0.2,0.6-0.4,1.2-0.7,1.7c-0.6,0.8-1.2,1.1-2.1,0.5
	c-0.6-0.4-0.8-0.8-0.8-1.5c0-0.4,0.1-0.8,0.2-1.2c0.6-1.8,1.1-3.5,1.7-5.3c0.1-0.4,0.2-0.7,0.3-1.1c0-0.2-0.1-0.5-0.2-0.5
	c-0.5-0.3-0.9-0.5-1.4-0.6c-0.4-0.1-0.6,0-0.7,0.4c-0.1,0.3-0.1,0.6-0.2,0.9c-0.6,1.9-1.2,3.9-1.8,5.8c-0.1,0.2-0.1,0.3-0.2,0.5
	C151.6,33.6,151.5,34.1,151.4,34.3 M133.5,35.8c0.3,0,0.6-0.1,0.9-0.1c0.8-0.1,0.9-0.3,0.8-1.1c-0.1-0.7-0.2-1.4-0.3-2.1
	c-0.1-1.3-0.3-2.7-0.4-4c0-0.3-0.1-0.6-0.1-0.9c0-0.8,0.2-1.1,1-1.3c0.2-0.1,0.4-0.1,0.6-0.1c0.4-0.1,0.9-0.1,1.3-0.2
	c0.5-0.1,0.6-0.3,0.5-0.7c-0.1-0.3-0.1-0.6-0.2-0.9c-0.1-0.5-0.3-0.7-0.8-0.6c-2,0.2-3.9,0.4-5.9,0.7c-0.6,0.1-1.2,0.1-1.8,0.1
	c-0.6,0.1-0.8,0.3-0.8,0.9c0,0.4,0.1,0.7,0.1,1c0.1,0.6,0.2,0.7,0.8,0.6c0.5-0.1,1-0.2,1.4-0.3c0.4-0.1,0.8,0,1.1,0.3
	c0.4,0.3,0.4,0.7,0.4,1.1c0.1,0.7,0.1,1.5,0.2,2.2c0.1,1.4,0.3,2.7,0.4,4.1c0,0.3,0,0.6,0.1,0.8C132.9,35.6,133.1,35.8,133.5,35.8
	 M166.7,43.4c0.1-0.1,0.3-0.2,0.4-0.4c0.2-0.3,0.3-0.5,0.5-0.8c0.4-0.7,0.2-1-0.4-1.2c-0.9-0.4-1.7-0.9-2.5-1.3
	c-0.7-0.4-0.9-1-0.5-1.6c0.9-1.6,1.9-3.3,2.8-4.9c0.3-0.5,0.5-0.9,0.8-1.4c0.4-0.7,0.3-0.9-0.4-1.2c-0.2-0.1-0.4-0.2-0.6-0.4
	c-0.5-0.3-0.8-0.2-1.1,0.3c-0.4,0.7-0.8,1.4-1.2,2.1c-1,1.8-2,3.7-3.1,5.6c-0.2,0.4-0.5,0.9-0.7,1.3c-0.2,0.3-0.1,0.6,0.2,0.8
	c0.4,0.3,0.8,0.5,1.3,0.8c1.3,0.7,2.6,1.5,4,2.2C166.3,43.2,166.5,43.3,166.7,43.4 M113.1,29.8c-0.2,0-0.3,0-0.3,0.1
	c-0.5,0.2-0.9,0.5-1.4,0.7c-0.2,0.2-0.2,0.4-0.1,0.6c0.3,0.7,0.7,1.4,1,2.1c0.6,1.2,1.2,2.4,1.8,3.6c0.6,1.3,1.3,2.5,1.9,3.8
	c0.2,0.4,0.4,0.5,0.8,0.3c0.4-0.2,0.8-0.4,1.2-0.6c0.3-0.2,0.3-0.4,0.2-0.8c-0.5-1-1-1.9-1.5-2.9c-0.6-1.2-1.2-2.3-1.7-3.5
	c-0.5-0.9-0.9-1.8-1.4-2.7C113.4,30.1,113.2,29.9,113.1,29.8 M80.6,49.1c0,0.3,0,0.5,0.1,0.8c0.1,0.5,1.7,1.6,2.2,1.4
	c0.7-0.2,1.3-0.5,1.7-1.2c0.3-0.6,0.4-1.2,0.5-1.8c0.2-1.1,0.6-2.1,1.5-2.8c0.6-0.4,1.1-0.8,1.6-1.2c0.5-0.3,0.9-0.7,1-1.2
	c0.3-1.1-0.2-2.1-1.2-2.7c-0.8-0.4-1.4-0.3-2.1,0.2c-0.7,0.5-0.9,1.3-1.1,2c-0.3,1.3-0.8,2.5-1.9,3.3c-0.6,0.4-1.1,0.9-1.6,1.4
	C80.8,47.9,80.5,48.4,80.6,49.1 M82.7,47.6c0.7,0,1.5,0.7,1.5,1.5c0,0.8-0.7,1.5-1.5,1.5c-0.8,0-1.4-0.6-1.4-1.4
	C81.3,48.3,81.9,47.6,82.7,47.6 M88.6,42.5c0,0.8-0.7,1.5-1.4,1.5c-0.7,0-1.5-0.8-1.5-1.5c0-0.8,0.8-1.5,1.5-1.4
	C88,41.2,88.7,41.5,88.6,42.5 M198.1,49.2c0.1-0.7-0.3-1.3-0.8-1.7c-0.6-0.5-1.2-1-1.8-1.5c-0.5-0.4-1-0.9-1.2-1.6
	c-0.3-0.9-0.6-1.8-1-2.7c-0.5-1.3-2.2-1.8-3.3-0.8c-1,0.9-1.2,2.5,0.1,3.4c0.4,0.3,0.8,0.6,1.2,0.8c0.6,0.5,1.3,0.9,1.7,1.6
	c0.3,0.7,0.6,1.4,0.6,2.2c0.1,1.3,0.8,2,1.9,2.4c0.5,0.2,0.9,0.2,1.3-0.3c0.1-0.1,0.3-0.3,0.4-0.4C198,50.4,198.2,49.9,198.1,49.2
	 M196,47.6c0.7,0,1.5,0.8,1.4,1.5c0,0.8-0.7,1.4-1.4,1.4c-0.8,0-1.5-0.8-1.5-1.5C194.6,48.3,195.3,47.6,196,47.6 M191.5,44
	c-0.7,0-1.4-0.7-1.4-1.5c0-0.7,0.7-1.4,1.4-1.5c0.7,0,1.5,0.7,1.5,1.4C193,43.2,192.2,43.9,191.5,44 M200.4,63.8
	c0,0.4,0.1,0.8,0.4,1.1c0.3,0.3,0.7,0.6,1,0.8c0.1,0.1,0.3,0.2,0.5,0.2c0.9,0,1.6-0.4,2.1-1.2c0.5-0.8,0.4-1.6-0.1-2.3
	c-0.5-0.6-0.9-1.2-1.3-1.9c-0.5-0.7-0.9-1.4-0.9-2.3c0-0.7-0.1-1.4-0.2-2.1c0-0.3-0.1-0.5-0.2-0.8c-0.3-0.7-0.7-1.2-1.5-1.3
	c-0.5,0-1.1,0-1.6,0.3c-0.8,0.4-0.7,0.5-1,1.4c-0.2,0.6-0.1,1.1,0.2,1.5c0.4,0.5,0.7,0.9,1.1,1.3c1.1,1.1,1.7,2.4,1.5,4.1V63.8z
	 M201.2,56.2c0,0.8-0.7,1.5-1.5,1.5c-0.7,0-1.5-0.8-1.5-1.5c0-0.7,0.8-1.4,1.5-1.4C200.5,54.7,201.2,55.3,201.2,56.2 M204.1,63.6
	c0,0.6-0.8,1.5-1.5,1.5c-0.6,0-1.4-0.8-1.4-1.5c0-0.8,0.6-1.5,1.4-1.6C203.2,62.1,204,62.9,204.1,63.6 M204.4,69.4
	c-0.8,0-1,0.1-1.5,0.6c-0.7,0.9-0.8,1.6-0.2,2.6c0.4,0.8,0.8,1.7,1.2,2.5c0.1,0.3,0.2,0.6,0.1,0.9c-0.2,0.9-0.5,1.8-0.7,2.8
	c-0.1,0.4-0.2,0.7,0,1c0.4,0.8,1,1.4,1.8,1.8c0.2,0.1,0.4,0.1,0.6,0c1.4-0.5,2.5-1.8,1.6-3.5c-0.4-0.9-0.8-1.8-1.1-2.8
	c-0.1-0.3-0.1-0.6-0.1-0.9c0.1-1,0.3-2,0.5-3c0.1-0.6-0.1-1-0.5-1.5C205.6,69.5,205,69.4,204.4,69.4 M204.5,69.9
	c0.8,0,1.5,0.7,1.5,1.4c0,0.8-0.7,1.5-1.5,1.5c-0.7,0-1.4-0.7-1.4-1.5C203,70.6,203.7,69.9,204.5,69.9 M205.4,77.9
	c0.8,0,1.4,0.6,1.4,1.4c0,0.8-0.7,1.5-1.4,1.5c-0.7,0-1.4-0.8-1.4-1.5C203.9,78.6,204.6,77.9,205.4,77.9 M173.5,28.8
	c1,0,1,0,1.6-0.8c0.1-0.1,0.1-0.1,0.1-0.2c0.8-1.1,0.6-2.3-0.6-3c-0.5-0.3-1.1-0.5-1.7-0.5c-1.3-0.1-2.5-0.6-3.5-1.6
	c-0.4-0.5-0.9-0.9-1.4-1.3c-0.5-0.4-1-0.8-1.6-0.7c-1.3,0.1-2.1,1.2-2.1,2.3c0,0.3,0.1,0.6,0.3,0.9c0.5,0.7,1.1,1.3,2.1,1.2
	c0.2,0,0.5,0.1,0.8,0.1c1.6,0,2.8,0.8,3.8,2.1c0.3,0.4,0.6,0.7,1,1.1C172.6,28.6,173,28.8,173.5,28.8 M166.5,24.3
	c-0.7,0-1.5-0.7-1.5-1.4c0-0.7,0.8-1.5,1.5-1.5c0.7,0,1.5,0.8,1.5,1.5C168.1,23.6,167.2,24.3,166.5,24.3 M173.6,28
	c-0.9,0.1-1.5-0.8-1.5-1.4c0-0.8,0.7-1.5,1.5-1.5c0.8,0,1.5,0.7,1.5,1.5C175,27.5,174.5,28,173.6,28 M74.2,69.4
	c-1.3,0-2.3,1-2.1,2.2c0.1,0.9,0.3,1.8,0.4,2.7c0,0.5,0.1,1-0.1,1.4c-0.3,0.9-0.6,1.7-1,2.6c-0.5,1.2-0.4,2,0.6,2.8
	c0.4,0.4,0.9,0.8,1.5,0.6c0.9-0.3,1.5-0.8,1.9-1.7c0.1-0.3,0.2-0.6,0.1-0.8c-0.2-0.9-0.4-1.8-0.7-2.6c-0.1-0.5-0.2-1,0.1-1.5
	c0.4-0.9,0.8-1.8,1.3-2.6C76.9,71.2,75.8,69.2,74.2,69.4 M74.3,69.9c0.8,0,1.4,0.7,1.4,1.5c0,0.8-0.7,1.5-1.5,1.5
	c-0.7,0-1.4-0.8-1.4-1.5C72.8,70.6,73.5,69.9,74.3,69.9 M73.3,77.9c0.8,0,1.5,0.8,1.4,1.5c0,0.7-0.8,1.4-1.5,1.4
	c-0.7,0-1.4-0.7-1.4-1.5C71.9,78.5,72.5,77.9,73.3,77.9 M204.5,97.4c1.5,0.1,2.2-1.3,2.1-2.2c-0.1-1-0.3-1.9-0.4-2.9
	c0-0.3-0.1-0.6,0.1-0.9c0.4-1,0.7-2,1.2-3c0.4-0.9,0.3-1.8-0.4-2.4c-0.3-0.2-0.6-0.4-0.8-0.6c-0.4-0.3-0.9-0.3-1.3,0
	c-0.2,0.2-0.5,0.3-0.7,0.5c-0.7,0.6-1.3,1.4-0.8,2.3c0.2,0.3,0.2,0.8,0.3,1.1c0.1,0.4,0.1,0.7,0.3,1.1c0.1,0.4,0.1,0.9-0.1,1.3
	c-0.4,0.9-0.8,1.8-1.3,2.6C201.7,95.7,203.1,97.5,204.5,97.4 M206.8,87.3c0,0.8-0.7,1.6-1.4,1.6c-0.7,0-1.4-0.8-1.4-1.6
	c0-0.8,0.7-1.5,1.5-1.5C206.2,85.8,206.8,86.5,206.8,87.3 M204.4,96.7c-0.7,0-1.4-0.8-1.4-1.5c0-0.7,0.8-1.5,1.4-1.5
	c0.7,0,1.5,0.8,1.5,1.5C205.9,96.1,205.2,96.7,204.4,96.7 M105,28.7c0.7,0.1,1.3-0.2,1.7-0.7c0.5-0.6,1-1.1,1.5-1.7
	c0.6-0.6,1.3-1,2.1-1.1c0.6-0.1,1.3-0.2,1.9-0.2c0.4,0,0.8-0.1,1.1-0.4c0.3-0.3,0.6-0.7,0.9-1.1c0.3-0.5,0.3-1-0.1-1.4
	c-0.1-0.2-0.2-0.3-0.3-0.5c-0.5-1-1.6-1.3-2.5-0.7c-0.3,0.1-0.5,0.3-0.7,0.5c-0.5,0.5-1.1,0.9-1.6,1.5c-0.8,0.8-1.7,1.1-2.8,1.3
	c-0.3,0-0.5,0.1-0.8,0.1c-0.6,0-1.1,0.3-1.6,0.6c-0.6,0.4-1.1,1.3-0.9,1.9c0.1,0.4,0.4,0.8,0.5,1.1C103.9,28.6,104.4,28.8,105,28.7
	 M112.2,24.3c-0.7,0-1.5-0.8-1.5-1.4c0-0.7,0.9-1.5,1.6-1.5c0.7,0,1.5,0.8,1.5,1.5C113.7,23.6,112.9,24.3,112.2,24.3 M105.1,28
	c-0.9,0-1.5-0.6-1.4-1.4c0-0.8,0.7-1.5,1.5-1.4c0.8,0,1.4,0.7,1.4,1.4C106.6,27.4,106,28,105.1,28 M74.3,97.4c0.3-0.1,0.7-0.1,1-0.3
	c1-0.8,1.6-1.7,0.8-3.1c-0.5-0.8-0.9-1.7-1.2-2.6c-0.1-0.3-0.2-0.7-0.1-1c0.2-0.9,0.4-1.8,0.7-2.6c0.2-0.5,0.1-1-0.2-1.5
	c-0.2-0.3-0.6-0.6-0.8-0.8c-0.8-0.7-1.4-0.6-2.1,0c-1,0.7-1.4,1.5-0.9,2.6c0.3,0.7,0.6,1.3,0.9,2c0.2,0.5,0.4,1.1,0.4,1.7
	c0,1-0.2,1.9-0.4,2.9C71.9,96.2,72.8,97.4,74.3,97.4 M71.9,87.4c0-0.8,0.6-1.5,1.3-1.5c0.7,0,1.5,0.8,1.5,1.5c0,0.7-0.8,1.5-1.5,1.5
	C72.6,88.9,71.9,88.2,71.9,87.4 M75.7,95.3c0,0.7-0.7,1.4-1.4,1.5c-0.8,0-1.6-0.7-1.5-1.5c0-0.7,0.8-1.5,1.5-1.5
	C74.9,93.8,75.7,94.6,75.7,95.3 M188.3,36.5c0-0.7-0.2-1.2-0.6-1.5c-0.3-0.3-0.8-0.6-1.2-0.8c-0.6-0.3-1.1-0.5-1.7-0.8
	c-0.6-0.3-1.1-0.7-1.4-1.3c-0.3-0.6-0.7-1.1-1-1.6c-0.9-1.3-0.9-1.3-2.4-1.5c-0.1,0-0.1,0-0.2,0c-0.3,0-0.4,0.1-0.6,0.3
	c-0.3,0.4-0.6,0.7-0.8,1c-0.1,0.2-0.3,0.3-0.3,0.5c-0.1,0.8,0.6,2,1.4,2.3c0.6,0.2,1.1,0.5,1.7,0.7c1,0.3,1.8,0.9,2.3,1.9
	c0.3,0.7,0.7,1.3,1,1.9c0.5,0.8,1.2,1.1,2.1,1.1c0.2,0,0.4-0.1,0.5-0.2c0.3-0.3,0.6-0.6,0.9-0.9C188.2,37.3,188.3,36.9,188.3,36.5
	 M181.7,31.2c0,0.7-0.8,1.5-1.5,1.5c-0.8,0-1.6-0.7-1.6-1.5c0-0.7,0.8-1.5,1.5-1.5C180.9,29.7,181.7,30.5,181.7,31.2 M186.1,37.9
	c-0.7,0-1.5-0.8-1.5-1.5c0-0.7,0.8-1.4,1.5-1.4c0.8,0,1.5,0.7,1.4,1.5C187.5,37.3,186.9,38,186.1,37.9 M129.5,148.6
	c0.1-0.6-0.1-1-0.5-1.4c-0.7-0.8-1.5-0.9-2.5-0.7c-0.6,0.1-1.3,0.2-1.9,0.3c-0.5,0.1-0.9,0-1.3-0.3c-0.3-0.2-0.7-0.4-1-0.6
	c-0.6-0.4-1.2-0.8-1.8-1.2c-0.4-0.3-0.9-0.3-1.3-0.1c-0.9,0.3-1.3,1-1.6,1.8c-0.1,0.1-0.1,0.3,0,0.5c0.3,1.1,1.1,2,2.4,1.9
	c0.8-0.1,1.6-0.1,2.4-0.2c0.3,0,0.6,0,0.9,0.2c1.1,0.6,2.3,1.1,3.4,1.8c0.6,0.3,1.2,0.4,1.7,0c0.2-0.2,0.5-0.3,0.7-0.5
	c0.3-0.2,0.4-0.4,0.5-0.7C129.5,149,129.5,148.8,129.5,148.6 M127.4,147.1c0.8,0,1.5,0.7,1.5,1.4c0,0.7-0.8,1.5-1.5,1.5
	c-0.7,0-1.5-0.8-1.5-1.5C125.9,147.8,126.7,147.1,127.4,147.1 M119.6,148.1c-0.7,0-1.5-0.8-1.5-1.4c0-0.7,0.8-1.5,1.5-1.5
	c0.8,0,1.5,0.7,1.5,1.5C121.1,147.4,120.4,148.1,119.6,148.1 M149.2,18.3c0,1.1,0.9,2,2,1.9c0.9,0,1.8-0.1,2.6-0.3
	c0.6-0.1,1.2,0,1.8,0.4c0.7,0.4,1.3,0.8,2,1.3c1.4,1.1,2.9,0.6,3.5-1.1c0.4-1.2-0.6-2.7-1.9-2.6c-0.8,0.1-1.7,0-2.5,0.1
	c-0.5,0-1,0-1.5-0.2c-0.9-0.5-1.8-1-2.8-1.4c-0.4-0.2-0.8-0.3-1.3-0.3C150.2,16.1,149.2,16.7,149.2,18.3 M151.3,16.6
	c0.7,0,1.4,0.8,1.4,1.5c0,0.7-0.7,1.4-1.4,1.5c-0.8,0-1.5-0.7-1.6-1.5C149.8,17.4,150.6,16.6,151.3,16.6 M160.6,20.1
	c0,0.7-0.9,1.5-1.5,1.5c-0.7,0-1.4-0.8-1.4-1.5c0-0.8,0.7-1.5,1.5-1.5C159.8,18.6,160.6,19.4,160.6,20.1 M76.1,65.8
	c1.1,0,2.2-1.1,2.2-2c0-0.8,0-1.6,0-2.4c0-0.5,0.1-1,0.4-1.5c0.6-0.7,1.2-1.5,1.8-2.2c0.2-0.3,0.5-0.6,0.6-1c0.2-0.7,0-1.4-0.5-1.9
	c-0.4-0.5-1.1-0.7-1.8-0.8c-0.4,0-0.7,0.1-1,0.3c-0.6,0.5-0.9,1-1,1.7c0,0.8-0.1,1.5-0.2,2.3c0,0.5-0.1,0.9-0.4,1.4
	c-0.6,0.8-1.2,1.7-1.8,2.6c-0.6,0.8-0.6,1.6-0.1,2.4C74.8,65.4,75.4,65.7,76.1,65.8 M76.2,65.2c-0.7,0-1.5-0.8-1.5-1.5
	c0-0.7,0.8-1.5,1.5-1.6c0.8-0.1,1.5,0.7,1.5,1.5C77.6,64.3,76.9,65.1,76.2,65.2 M77.6,56.2c0-0.8,0.6-1.5,1.4-1.5
	c0.7,0,1.5,0.7,1.5,1.5c0,0.7-0.8,1.4-1.5,1.5C78.3,57.7,77.6,57,77.6,56.2 M90.4,36.3c0,0.7,0.2,1.1,0.5,1.4
	c0.4,0.4,0.7,0.8,1.2,0.9c0.6,0.3,1.9-0.3,2.2-0.9c0.3-0.5,0.5-0.9,0.8-1.4c0.5-0.9,1-1.8,2-2.3c0.6-0.3,1.3-0.6,1.9-0.8
	c0.6-0.2,1.1-0.5,1.4-1.1c0.2-0.4,0.3-0.9,0.4-1.3c0.1-0.4-0.3-0.5-0.5-0.7c-0.1-0.1-0.1-0.2-0.2-0.3c-0.8-1-0.8-1-2-0.8
	c-0.5,0.1-0.9,0.3-1.2,0.7c-0.5,0.8-1.1,1.5-1.6,2.3c-0.4,0.7-1,1.2-1.7,1.5c-0.8,0.4-1.5,0.8-2.2,1.1
	C90.7,35.1,90.5,35.8,90.4,36.3 M100.1,31.2c0,0.7-0.8,1.6-1.5,1.5c-0.7,0-1.5-0.9-1.5-1.6c0-0.7,0.9-1.5,1.7-1.5
	C99.3,29.7,100.1,30.5,100.1,31.2 M92.6,37.9c-0.8,0-1.5-0.6-1.5-1.4c0-0.8,0.7-1.5,1.4-1.5c0.7,0,1.5,0.8,1.5,1.5
	C94.1,37.2,93.3,37.9,92.6,37.9 M112,145.9c1.4,0.2,2.2-1.1,2.4-2c0-0.1,0.1-0.4,0-0.5c-0.5-0.7-0.8-1.6-1.9-1.6
	c-1-0.1-1.9-0.3-2.9-0.5c-0.3-0.1-0.5-0.2-0.7-0.4c-0.5-0.4-0.9-0.9-1.4-1.4c-0.4-0.4-0.8-1-1.3-1.3c-0.9-0.5-2.2-0.1-2.8,0.8
	c-0.6,0.9-0.4,2,0.5,2.8c0.3,0.3,0.7,0.4,1.1,0.5c0.9,0.2,1.8,0.4,2.7,0.6c0.2,0.1,0.5,0.2,0.7,0.4c0.7,0.6,1.4,1.3,2.1,1.9
	C110.9,145.5,111.3,146,112,145.9 M112.2,142.3c0.7,0,1.5,0.8,1.5,1.5c0,0.7-0.7,1.5-1.4,1.5c-0.7,0-1.5-0.7-1.6-1.4
	C110.6,143.2,111.5,142.3,112.2,142.3 M106.6,140.1c0,0.7-0.7,1.4-1.4,1.5c-0.8,0-1.5-0.7-1.5-1.4c0-0.8,0.7-1.5,1.4-1.5
	C105.9,138.6,106.6,139.3,106.6,140.1 M120.6,18c-0.5,0-1-0.1-1.6,0c-0.7,0.1-1.7,1.2-1.6,1.9c0.1,0.7,0.3,1.4,0.9,1.8
	c0.8,0.6,1.7,0.8,2.7,0c0.7-0.5,1.3-0.9,2-1.4c0.5-0.3,1-0.4,1.6-0.4c0.8,0.1,1.6,0.1,2.4,0.2c0.8,0.1,1.5,0,2-0.8
	c0.5-0.7,0.6-1.7,0.2-2.4c-0.6-0.9-1.8-1.3-2.8-0.7c-0.9,0.4-1.8,0.9-2.7,1.4c-0.5,0.3-1.1,0.4-1.7,0.4C121.6,18,121.1,18,120.6,18
	L120.6,18z M128.9,18.2c0,0.7-0.8,1.5-1.6,1.5c-0.7,0-1.5-0.8-1.5-1.5c0-0.7,0.8-1.5,1.5-1.5C128.1,16.6,128.9,17.4,128.9,18.2
	 M121.1,20.1c0,0.7-0.8,1.4-1.4,1.4c-0.7,0-1.5-0.8-1.5-1.5c0-0.7,0.8-1.5,1.5-1.4C120.5,18.7,121,19.1,121.1,20.1 M135.6,147.4
	c-1.6-0.1-2.2,1.1-2.5,2.1c0,0.1,0,0.2,0.1,0.3c0.3,0.7,0.7,1.4,1.5,1.7c0.3,0.1,0.7,0.1,1,0.1c0.8-0.2,1.5-0.4,2.2-0.6
	c0.8-0.2,1.6-0.4,2.4-0.2c0.9,0.2,1.7,0.4,2.6,0.7c1.1,0.4,1.9-0.3,2.4-1c0.4-0.6,0.2-1.9-0.3-2.5c-0.7-0.8-1.5-0.9-2.4-0.6
	c-0.7,0.2-1.4,0.5-2.1,0.8c-0.7,0.3-1.4,0.3-2.1,0c-0.7-0.3-1.4-0.6-2.1-0.8C136,147.4,135.7,147.4,135.6,147.4 M136.9,149.5
	c0,0.7-0.8,1.5-1.5,1.5c-0.6,0-1.5-0.9-1.5-1.5c0-0.6,0.7-1.4,1.5-1.4C136.1,148,136.9,148.7,136.9,149.5 M143.4,148.1
	c0.7,0,1.5,0.7,1.5,1.4c0,0.7-0.7,1.5-1.4,1.6c-0.7,0.1-1.5-0.8-1.5-1.5C141.8,148.8,142.5,148.1,143.4,148.1 M158.4,148.7
	c0.3,0,0.5,0,0.8,0c1.4,0,2.3-1.2,2-2.6c-0.2-0.9-1.1-1.6-2-1.7c-0.3,0-0.7,0.1-0.9,0.2c-0.7,0.4-1.3,0.9-2,1.3
	c-0.8,0.6-1.7,0.9-2.7,0.7c-0.7-0.2-1.4-0.2-2.1-0.3c-0.3,0-0.7,0-0.9,0.2c-0.8,0.5-1.5,1.1-1.2,2.2c0,0.1,0,0.2,0,0.3
	c0.1,0.9,1.3,1.8,2.2,1.7c0.1,0,0.3-0.1,0.4-0.1c0.9-0.5,1.7-1,2.6-1.4c0.7-0.3,1.3-0.7,2.1-0.7
	C157.2,148.6,157.8,148.7,158.4,148.7L158.4,148.7z M151.3,147.1c0.8,0,1.5,0.7,1.5,1.5c0,0.7-0.7,1.4-1.4,1.4
	c-0.8,0-1.6-0.7-1.5-1.5C149.8,147.8,150.6,147.1,151.3,147.1 M159.1,145.1c0.7,0,1.5,0.8,1.5,1.5c0,0.7-0.8,1.5-1.5,1.5
	c-0.8,0-1.5-0.8-1.5-1.6C157.6,145.8,158.4,145.1,159.1,145.1 M166.5,145.9c0.7,0,0.8,0,1.3-0.4c0.9-0.7,1.7-1.5,2.6-2.2
	c0.3-0.3,0.6-0.4,1-0.5c0.9-0.2,1.8-0.4,2.7-0.6c0.9-0.2,1.5-1,1.6-1.8c0.1-1-0.4-1.7-1.2-2.1c-0.8-0.4-1.9-0.2-2.5,0.5
	c-0.5,0.5-0.9,1.1-1.4,1.5c-0.5,0.5-1,1-1.8,1.1c-1,0.1-1.9,0.3-2.8,0.5c-0.9,0.2-1.6,1.1-1.7,2c0,0.5,0.3,0.8,0.5,1.2
	C165.3,145.7,165.9,145.8,166.5,145.9 M168.1,143.8c0,0.7-0.9,1.5-1.6,1.5c-0.7,0-1.5-0.8-1.5-1.5c0-0.7,0.8-1.6,1.5-1.5
	C167.2,142.3,168.1,143.2,168.1,143.8 M175.1,140.1c0,0.8-0.7,1.4-1.5,1.4c-0.8,0-1.5-0.7-1.4-1.5c0-0.7,0.7-1.4,1.4-1.5
	C174.3,138.6,175.1,139.3,175.1,140.1 M139.3,18.2c0.5,0.1,0.9,0.1,1.3,0.3c0.7,0.2,1.3,0.4,2,0.7c1,0.5,1.7,0.1,2.5-0.7
	c0.6-0.6,0.6-1.7,0.1-2.4c-0.5-0.7-1.5-1.5-2.6-0.8c-0.3,0.2-0.7,0.2-1,0.3c-0.4,0.1-0.8,0.2-1.2,0.3c-0.7,0.2-1.3,0.3-1.9,0
	c-0.3-0.1-0.6-0.2-0.9-0.3c-0.6-0.2-1.2-0.3-1.7-0.5c-0.5-0.2-0.9-0.2-1.3,0.1c-0.5,0.3-0.8,0.7-1.1,1.2c-0.3,0.5-0.3,0.8-0.1,1.3
	c0.1,0.2,0.2,0.4,0.3,0.6c0.5,0.8,1.6,1.2,2.5,0.9c0.6-0.2,1.2-0.5,1.9-0.7C138.4,18.3,138.9,18.2,139.3,18.2 M135.3,18.7
	c-0.7,0-1.5-0.8-1.5-1.5c0-0.7,0.8-1.5,1.5-1.5c0.7,0,1.5,0.8,1.5,1.4C136.9,17.9,136.1,18.7,135.3,18.7 M143.4,18.7
	c-0.8,0-1.6-0.8-1.6-1.5c0-0.7,0.8-1.5,1.5-1.5c0.7,0,1.5,0.8,1.5,1.5C144.9,17.9,144.1,18.6,143.4,18.7 M163.4,143.7
	c-0.1,0-0.3,0-0.4,0.1c-0.4,0.5-0.9,0.5-1.5,0.5c-0.2,0-0.4,0.1-0.6,0.2c0.2,0.2,0.3,0.4,0.4,0.5c0.5,0.3,0.6,0.8,0.5,1.3
	c-0.1,0.2-0.1,0.5,0.1,0.5c0.2,0,0.4-0.1,0.6-0.2c0.4-0.3,0.8-0.5,1.3-0.5c0.2,0,0.4-0.1,0.7-0.2c-0.3-0.4-0.5-0.7-0.7-1.1
	C163.6,144.6,163.6,144.2,163.4,143.7 M100,28.7c0.5,0.4,1,0.7,1.1,1.3c0.2,0.5,0.4,0.5,0.8,0.2c0.3-0.3,0.7-0.5,1.1-0.7
	c0.4-0.3,0.5-0.5,0.1-0.8c-0.4-0.3-0.7-0.6-0.8-1.2c0-0.1,0-0.3-0.1-0.5c-0.7,0.4-1.3,0.8-1.9,1.3C100.2,28.4,100.1,28.5,100,28.7
	 M178.9,28.7c-0.4-0.3-0.5-0.5-0.7-0.6c-0.4-0.2-0.7-0.4-1-0.7c-0.2-0.2-0.4-0.4-0.5-0.3c-0.3,0.5-0.6,0.9-0.8,1.3
	c-0.1,0.1-0.3,0.2-0.4,0.3c-0.2,0.3-0.2,0.5,0.1,0.6c0.5,0.2,0.9,0.5,1.3,0.9c0.3,0.3,0.5,0.3,0.7-0.1C177.8,29.6,178,29,178.9,28.7
	 M116.7,146.9c0.1-0.5,0.1-1,0.3-1.3c0.2-0.4,0.5-0.7,0.8-1c-0.4-0.3-0.8-0.1-1.2-0.3c-0.4-0.1-0.7-0.3-1.2-0.6
	c-0.2,0.4-0.3,0.8-0.5,1.1c-0.2,0.4-0.4,0.7-0.7,1.1C115.1,146.3,115.8,146.6,116.7,146.9 M204.4,84.8c0.3-0.2,0.4-0.2,0.5-0.3
	c0.4-0.3,0.8-0.2,1.2,0c0.1,0.1,0.2,0.1,0.3,0.2c0.3,0.2,0.5,0,0.5-0.3c0-0.1,0-0.2-0.1-0.3c-0.2-0.6-0.3-1.1,0.1-1.7
	c0.2-0.3-0.1-0.6-0.4-0.5c-0.2,0.1-0.4,0.2-0.5,0.3c-0.3,0.2-0.6,0.3-0.9,0c-0.2-0.2-0.4-0.4-0.6-0.2c-0.1,0.1-0.1,0.4-0.1,0.6
	c0,0.4,0,0.9,0,1.3C204.3,84.2,204.3,84.4,204.4,84.8 M198.2,50.8c-0.2,0.2-0.4,0.5-0.6,0.6c-0.3,0.2-0.6,0.2-0.9,0.4
	c0,0-0.1,0-0.1,0c-0.3,0.2-0.3,0.4-0.1,0.7c0.3,0.4,0.5,0.9,0.8,1.3c0.1,0.1,0.2,0.2,0.3,0.4c0.3-0.3,0.6-0.7,0.9-0.9
	c0.3-0.2,0.8-0.2,1.3-0.3c-0.3-0.4-0.6-0.7-0.8-1.1C198.7,51.7,198.8,51.1,198.2,50.8 M91.6,39.2c-0.8-0.2-1.1-0.7-1.4-1.2
	c-0.2-0.4-0.6-0.4-0.8,0c-0.3,0.6-0.7,1-1.3,1.3c0,0-0.1,0.1-0.1,0.3c0.4,0.2,0.7,0.4,1,0.6c0.3,0.3,0.6,0.6,0.9,1
	c0.2-0.3,0.3-0.5,0.5-0.7c0.2-0.2,0.4-0.4,0.5-0.6C91.1,39.7,91.3,39.5,91.6,39.2 M162,19.8c0,0.2-0.1,0.4-0.1,0.6
	c0,0.5,0,1-0.5,1.4c-0.3,0.3-0.2,0.6,0.3,0.6c0.5,0,0.9,0.2,1.2,0.4c0.2,0.1,0.3,0.2,0.5,0.3c0.2-0.5,0.3-0.8,0.4-1.2
	c0.2-0.4,0.5-0.6,0.6-1.1c-0.4-0.1-0.9-0.2-1.3-0.3C162.8,20.2,162.5,19.7,162,19.8 M188.8,41.1c0.3-0.3,0.5-0.7,0.8-0.9
	c0.3-0.2,0.7-0.4,1-0.6c0-0.1,0-0.2-0.1-0.2c-0.6-0.4-1-0.8-1.4-1.4c-0.2-0.4-0.4-0.3-0.7,0.1c-0.2,0.3-0.5,0.6-0.7,0.9
	c-0.1,0.1-0.4,0.2-0.6,0.4C187.8,39.9,188.3,40.5,188.8,41.1 M74.5,84.4c0-0.1,0-0.2,0-0.2c-0.2-0.6-0.3-1.1,0-1.7
	c0.1-0.1-0.1-0.4-0.2-0.4c-0.2,0-0.4,0-0.5,0.1c-0.5,0.4-0.5,0.4-1,0c-0.1-0.1-0.2-0.2-0.3-0.2c-0.4-0.2-0.7,0.1-0.6,0.5
	c0.2,0.6,0.2,1.1,0,1.7c0,0.2,0,0.4,0.1,0.5c0.1,0.1,0.3,0,0.5-0.1c0.5-0.3,0.9-0.4,1.4,0c0.1,0.1,0.3,0.1,0.4,0.1
	C74.4,84.6,74.5,84.4,74.5,84.4 M82.3,52.3c0,0-0.1-0.1-0.1-0.1c-0.2-0.2-0.4-0.3-0.7-0.4c-0.2-0.1-0.5-0.3-0.7-0.5
	c-0.5-0.5-0.6-0.5-0.9,0.2c-0.2,0.5-0.4,0.9-0.8,1.3c-0.1,0.1-0.2,0.3-0.2,0.4v0.2c1.1-0.5,1.5,0.5,2.2,0.9
	C81.5,53.6,81.9,52.9,82.3,52.3 M115.4,22.8c0,0,0.1,0,0.1,0c0.5-0.3,1.1-0.6,1.7-0.6c0.3,0,0.4-0.3,0.1-0.5
	c-0.4-0.3-0.5-0.8-0.6-1.2c-0.1-0.6-0.4-0.7-0.9-0.4c-0.4,0.3-0.7,0.4-1.2,0.4c-0.2,0-0.3,0.1-0.5,0.2
	C114.7,21.4,115.1,22.1,115.4,22.8 M145.9,148.1c0.4,0.8,0.4,1.4,0.2,2c0,0.4,0.2,0.5,0.5,0.4c0.5-0.3,1-0.3,1.6-0.3
	c0.4,0,0.6-0.2,0.3-0.6c-0.3-0.5-0.2-0.9-0.2-1.4c0-0.2,0-0.3,0.1-0.5c-0.5,0.1-0.8,0.3-1.2,0.4
	C146.9,148.1,146.5,148.1,145.9,148.1 M202.3,66.6c0.2,0.7,0.3,1.4,0.5,2.1c0,0.1,0.3,0.2,0.4,0.1c0.2,0,0.3-0.1,0.4-0.2
	c0.3-0.2,0.5-0.3,0.8-0.2c0.2,0.1,0.5,0.1,0.6,0c0.1-0.1,0.1-0.4,0-0.6c-0.2-0.5-0.4-0.9-0.4-1.4c0-0.5-0.2-0.6-0.7-0.3
	c-0.4,0.3-0.7,0.4-1.2,0.4C202.6,66.6,202.5,66.6,202.3,66.6 M75.9,69c0.2-0.8,0.4-1.6,0.6-2.3c-0.2-0.1-0.4-0.1-0.5-0.1
	c-0.4,0-0.8-0.1-1.1-0.4c-0.2-0.1-0.4-0.3-0.5-0.2c-0.1,0.1-0.2,0.4-0.2,0.5c0,0.4-0.1,0.8-0.3,1.1c-0.1,0.1-0.1,0.3-0.2,0.5
	c0,0.3,0.2,0.5,0.4,0.4c0.6-0.3,1,0,1.5,0.3C75.6,68.9,75.7,68.9,75.9,69 M132.6,18.6c0-0.1,0.1-0.2,0-0.2c-0.1-0.6-0.5-1.2-0.1-1.8
	c0.1-0.2-0.1-0.4-0.4-0.4c-0.1,0-0.2,0.1-0.3,0.1c-0.4,0.2-0.8,0.3-1.2,0.2c-0.2,0-0.4,0-0.7,0.1c0,0.2,0,0.3,0.1,0.4
	c0.3,0.5,0.6,1,0.3,1.6c-0.1,0.3,0.1,0.4,0.4,0.3c0.5-0.2,1.1-0.2,1.7-0.2C132.5,18.7,132.5,18.6,132.6,18.6 M146.2,18.6
	C146.2,18.6,146.2,18.6,146.2,18.6c0.6,0,1.2,0.1,1.8,0.2c0.3,0.1,0.5-0.1,0.4-0.5c-0.2-0.5,0-1,0.2-1.5c0.1-0.1,0-0.2,0.1-0.4
	c-0.7,0-1.4,0-2.1-0.3c-0.2-0.1-0.4,0.1-0.4,0.4V18.6 M130.3,147.7c0.1,0.7,0.3,1.2-0.1,1.8c-0.3,0.5-0.2,0.7,0.4,0.7
	c0.5,0,1,0,1.4,0.3c0.1,0.1,0.3,0.1,0.4,0c0.1-0.1,0.1-0.3,0.1-0.4c-0.2-0.5-0.1-1,0.1-1.4c0.2-0.4,0-0.6-0.5-0.6
	c-0.5,0-1-0.1-1.4-0.2C130.6,147.8,130.5,147.8,130.3,147.7"/>
</svg>
