<!-- Generator: Adobe Illustrator 21.1.0, SVG Export Plug-In  -->
<svg version="1.1"
	 xmlns="http://www.w3.org/2000/svg" xmlns:xlink="http://www.w3.org/1999/xlink" xmlns:a="http://ns.adobe.com/AdobeSVGViewerExtensions/3.0/"
	 x="0px" y="0px" width="366.1px" height="181.6px" viewBox="0 0 366.1 181.6" style="enable-background:new 0 0 366.1 181.6;"
	 xml:space="preserve">
<style type="text/css">
	.st0{fill-rule:evenodd;clip-rule:evenodd;fill:#868789}
</style>
<defs>
</defs>
<path class="st0" d="M0,0.3h42.6c52,1.9,43.8,79.8,0,77.7l32.8,51.2H59L15,63.6h27.6c28.3-0.2,28.8-48.2,0-48.1l0,0L0,15.6L0,0.3z
	 M43.4,129.1 M284.2,88.1c0-22.6,18.4-41,41-41c22.6,0,41,18.4,41,41c0,22.6-18.4,41-41,41C302.5,129.1,284.2,110.8,284.2,88.1z
	 M300.6,88.1c0,13.6,11,24.6,24.6,24.6c13.6,0,24.6-11,24.6-24.6c0-13.6-11-24.6-24.6-24.6C311.6,63.5,300.6,74.5,300.6,88.1z
	 M289.3,38.9H361V22.5h-71.7V38.9z M289.3,16.4H361V0h-71.7V16.4z M105.4,114.7c0,0,0.1-16.8,7.2-28.8c7.3-12.2,21.6-19.5,21.6-19.5
	V53c0,0-4.6-0.4-10.3,2.1c-3.6,1.6-7.8,4.5-9.9,6.1c-6-4.8-9.9-12.2-9.9-20.5c0-14.5,11.7-26.2,26.2-26.2c9.6,0,17.9,5.1,22.5,12.8
	L165,20c-7.1-11.8-20-19.7-34.7-19.7c-22.3,0-40.4,18.1-40.4,40.4c0,12.7,5.8,23.9,14.9,31.3l-0.5,0.6c0,0-8.1,11.1-11.3,23.7
	c-3.9,15.4-3.1,32.9-3.1,32.9h77.1v-14.4H105.4z M212.7,152.4c0-1.4-0.5-2.5-1.3-3.1c-0.7-0.6-1.7-0.9-3-0.9H202v8.4h6.1
	c1.5,0,2.7-0.5,3.4-1.4C212.3,154.6,212.7,153.6,212.7,152.4z M129.3,160h-6.2v8.3h6.2c1.5,0,2.6-0.4,3.3-1.3c0.7-0.8,1-1.8,1-2.9
	c0-1.1-0.3-2.1-1-2.9C131.9,160.5,130.8,160.1,129.3,160z M132.2,155.1c0.7-0.7,1.1-1.7,1.1-2.8c0-1.1-0.4-2.1-1.1-2.8
	c-0.7-0.7-1.8-1.1-3.3-1.1h-5.9v7.9h5.9C130.4,156.3,131.5,155.9,132.2,155.1z M180,150.3l-3.9,12.1h7.8L180,150.3L180,150.3z
	 M158.4,150.6c-0.4-0.6-0.9-1-1.6-1.4c-0.7-0.4-1.5-0.6-2.5-0.6c-1,0-1.8,0.2-2.5,0.6c-0.7,0.4-1.3,0.9-1.7,1.4
	c-0.5,0.6-0.9,1.4-1,2.3c-0.2,1-0.3,2.8-0.3,5.6c0,2.7,0.1,4.6,0.3,5.5c0.2,1,0.5,1.7,1,2.3c0.4,0.6,1,1,1.7,1.4
	c0.7,0.4,1.5,0.6,2.5,0.6c1,0,1.8-0.2,2.5-0.6c0.7-0.4,1.2-0.8,1.6-1.4c0.5-0.6,0.9-1.4,1.1-2.3c0.2-1,0.3-2.8,0.3-5.5
	c0-2.7-0.1-4.6-0.3-5.6C159.2,152,158.9,151.2,158.4,150.6z M366.1,133.9v47.7H0v-47.7H366.1z M20.7,164.5c0-2-0.6-3.7-1.8-5.2
	c-1.2-1.5-3.1-2.4-5.6-2.8c-1.3-0.2-2.3-0.3-3-0.4c-1.3-0.3-2.3-0.7-2.9-1.4c-0.6-0.6-0.9-1.4-0.9-2.2c0-1.3,0.5-2.3,1.3-3
	c0.8-0.6,1.9-1,3.1-1c2.4,0.1,4.6,0.8,6.6,2.1l2.3-3.4c-2.5-1.8-5.3-2.8-8.7-2.9c-2.8,0-4.9,0.8-6.4,2.2c-1.6,1.5-2.3,3.4-2.3,5.8
	c0,2,0.6,3.7,1.9,5.1c1.2,1.4,2.9,2.2,5.2,2.6c1.3,0.2,2.5,0.4,3.5,0.5c2.3,0.4,3.5,1.7,3.5,3.7c0,2.5-1.8,3.8-5.3,3.8
	c-2.9,0-5.5-0.9-7.6-2.8l-2.7,3.1c2.8,2.5,6.2,3.8,10.2,3.8C17.4,172.4,20.6,169.8,20.7,164.5z M48.6,144.7h-4v19.6h-0.1l-12.1-19.6
	h-3.8v27.6h4v-19.6h0.1l12.1,19.6h3.8V144.7z M76.2,158.5c0-3.2-0.1-5.4-0.2-6.4c-0.2-1.1-0.5-2-0.9-2.6c-0.6-1.3-1.6-2.4-3-3.4
	c-1.4-1-3.2-1.5-5.3-1.6c-2.1,0-3.9,0.5-5.3,1.5c-1.4,1-2.5,2.1-3.1,3.4c-0.4,0.7-0.7,1.5-0.9,2.6c-0.2,1.1-0.3,3.2-0.3,6.4
	c0,3.2,0.1,5.3,0.3,6.4c0.1,0.6,0.2,1.1,0.4,1.5c0.2,0.4,0.3,0.8,0.5,1.2c0.6,1.3,1.7,2.4,3.1,3.4c1.4,1,3.2,1.5,5.3,1.6
	c2.1-0.1,3.9-0.6,5.3-1.6c1.4-1,2.4-2.1,3-3.4c0.5-0.7,0.8-1.6,0.9-2.7C76.1,163.8,76.2,161.6,76.2,158.5z M111.9,144.7h-4.3
	l-4.2,19.6h-0.1l-5.2-19.6h-2.9L90,164.3h-0.1l-4.2-19.6h-4.3l6.7,27.6h3.4l5.1-19.9h0.1l5.1,19.9h3.4L111.9,144.7z M137.7,164.5
	c0-1.4-0.3-2.8-1-4c-0.7-1.2-1.9-2-3.3-2.4V158c0.8-0.4,1.4-0.8,1.9-1.3c0.5-0.4,0.9-0.9,1.2-1.4c0.6-1,0.8-2.1,0.8-3.3
	c0-2.2-0.7-4-2-5.4c-1.3-1.3-3.3-2-5.9-2H119v27.6h11.3c2.1,0,3.9-0.7,5.3-2.2C137,168.7,137.7,166.8,137.7,164.5z M163.8,158.5
	c0-3.2-0.1-5.4-0.2-6.4c-0.2-1.1-0.5-2-0.9-2.6c-0.6-1.3-1.6-2.4-3-3.4c-1.4-1-3.2-1.5-5.3-1.6c-2.1,0-3.9,0.5-5.3,1.5
	c-1.4,1-2.5,2.1-3.1,3.4c-0.4,0.7-0.7,1.5-0.9,2.6c-0.2,1.1-0.3,3.2-0.3,6.4c0,3.2,0.1,5.3,0.3,6.4c0.1,0.6,0.2,1.1,0.4,1.5
	c0.2,0.4,0.3,0.8,0.5,1.2c0.6,1.3,1.7,2.4,3.1,3.4c1.4,1,3.2,1.5,5.3,1.6c2.1-0.1,3.9-0.6,5.3-1.6c1.4-1,2.4-2.1,3-3.4
	c0.5-0.7,0.8-1.6,0.9-2.7C163.7,163.8,163.8,161.6,163.8,158.5z M191.5,172.3l-9.7-27.6h-3.4l-9.7,27.6h4.3l2.1-6.2h10.1l2.1,6.2
	H191.5z M217.6,172.3l-6.2-12.2c3.4-1.4,5.1-3.9,5.2-7.6c-0.1-2.5-1-4.5-2.7-5.9c-1.4-1.2-3.2-1.8-5.5-1.8H198v27.6h4v-11.8h5.2
	l5.5,11.8H217.6z M243.5,158.5c0-2.8-0.1-4.8-0.2-5.9c-0.2-1.1-0.6-2.2-1.2-3.3c-1.8-3.1-4.5-4.6-8.1-4.7h-9.4v27.6h9.1
	c2,0,3.7-0.5,5.1-1.4c1.4-0.8,2.5-1.9,3.3-3.2c0.3-0.5,0.5-1,0.8-1.4c0.2-0.5,0.3-1,0.4-1.6C243.4,163.5,243.5,161.5,243.5,158.5z
	 M267.2,158.5c0-2.7,0.1-4.6,0.3-5.6c0.2-0.9,0.5-1.7,1-2.3c0.4-0.6,1-1,1.7-1.4c0.7-0.4,1.5-0.6,2.5-0.6c1.3,0,2.4,0.4,3.3,1.2
	c0.9,0.8,1.5,1.7,1.8,2.8h4.3c-0.4-2.3-1.5-4.2-3.1-5.8c-1.6-1.6-3.7-2.3-6.3-2.4c-2.1,0-3.9,0.5-5.3,1.6c-1.4,1-2.5,2.1-3.1,3.4
	c-0.4,0.7-0.7,1.5-0.9,2.6c-0.2,1.1-0.3,3.2-0.3,6.4c0,3.2,0.1,5.3,0.3,6.4c0.1,0.6,0.2,1.1,0.4,1.5c0.2,0.4,0.3,0.8,0.5,1.2
	c0.6,1.3,1.7,2.4,3.1,3.4c1.4,1,3.2,1.5,5.3,1.6c2.3,0,4.3-0.7,6-2c1.7-1.4,2.8-3.3,3.4-5.9h-4.3c-1.1,2.5-2.8,3.8-5.1,3.8
	c-1,0-1.8-0.2-2.5-0.6c-0.7-0.4-1.3-0.8-1.7-1.4c-0.5-0.6-0.9-1.4-1-2.3C267.3,163.1,267.2,161.2,267.2,158.5z M305.6,168.4h-13
	v-23.7h-4v27.6h17.1V168.4z M331.5,144.7h-4v17.8c0,1.9-0.5,3.3-1.5,4.3c-1,1-2.3,1.6-3.9,1.6s-2.9-0.5-3.9-1.6
	c-1-1-1.6-2.4-1.6-4.3v-17.8h-4V163c0,2.9,1,5.2,2.8,6.9c1.8,1.8,4,2.6,6.7,2.7c2.7,0,5-0.9,6.8-2.7c1.8-1.7,2.7-4,2.7-6.9V144.7z
	 M359,164.5c0-1.4-0.3-2.8-1-4c-0.7-1.2-1.9-2-3.3-2.4V158c0.8-0.4,1.4-0.8,1.9-1.3c0.5-0.4,0.9-0.9,1.2-1.4c0.6-1,0.8-2.1,0.8-3.3
	c0-2.2-0.7-4-2-5.4c-1.3-1.3-3.3-2-5.9-2h-10.4v27.6h11.3c2.1,0,3.9-0.7,5.3-2.2C358.3,168.7,359,166.8,359,164.5z M238.2,151
	c-1.1-1.6-2.7-2.4-4.8-2.3h-4.8v19.7h4.8c2.3,0,3.9-0.8,5-2.4c0.5-0.6,0.7-1.3,0.9-2.3c0.1-0.9,0.2-2.6,0.2-5c0-2.4-0.1-4.1-0.2-5.2
	C239.1,152.4,238.8,151.6,238.2,151z M353.5,155.1c0.7-0.7,1.1-1.7,1.1-2.8c0-1.1-0.4-2.1-1.1-2.8c-0.7-0.7-1.8-1.1-3.3-1.1h-5.9
	v7.9h5.9C351.7,156.3,352.8,155.9,353.5,155.1z M70.8,150.6c-0.4-0.6-0.9-1-1.6-1.4c-0.7-0.4-1.5-0.6-2.5-0.6c-1,0-1.8,0.2-2.5,0.6
	c-0.7,0.4-1.3,0.9-1.7,1.4c-0.5,0.6-0.9,1.4-1,2.3c-0.2,1-0.3,2.8-0.3,5.6c0,2.7,0.1,4.6,0.3,5.5c0.2,1,0.5,1.7,1,2.3
	c0.4,0.6,1,1,1.7,1.4c0.7,0.4,1.5,0.6,2.5,0.6c1,0,1.8-0.2,2.5-0.6c0.7-0.4,1.2-0.8,1.6-1.4c0.5-0.6,0.9-1.4,1.1-2.3
	c0.2-1,0.3-2.8,0.3-5.5c0-2.7-0.1-4.6-0.3-5.6C71.7,152,71.3,151.2,70.8,150.6z M350.6,160h-6.2v8.3h6.2c1.5,0,2.6-0.4,3.3-1.3
	c0.7-0.8,1-1.8,1-2.9c0-1.1-0.3-2.1-1-2.9C353.2,160.5,352.1,160.1,350.6,160z M222.3,0.2v16.2h36.5l-36.5,76.1L177.9,0.7l-18.6,0.1
	l62,127.3L284.2,0.2H222.3z"/>
</svg>
