<!-- Generator: Adobe Illustrator 22.1.0, SVG Export Plug-In  -->
<svg version="1.1"
	 xmlns="http://www.w3.org/2000/svg" xmlns:xlink="http://www.w3.org/1999/xlink" xmlns:a="http://ns.adobe.com/AdobeSVGViewerExtensions/3.0/"
	 x="0px" y="0px" width="635.87px" height="413.04px" viewBox="0 0 635.87 413.04"
	 style="enable-background:new 0 0 635.87 413.04;" xml:space="preserve">
<style type="text/css">
	.st0{fill:#1B2D63;}
	.st1{fill:#CE0E2D;}
	.st2{fill:#004798;}
	.st3{fill:#FFC800;}
</style>
<defs>
</defs>
<g>
	<path class="st0" d="M70.78,315.82c0,11.82-5.16,19.27-15.48,22.35l18.76,26.04H58.68l-17.12-24.09H25.67v24.09h-12.1v-71.66h26.66
		c10.93,0,18.76,1.85,23.48,5.54C68.42,301.77,70.78,307.68,70.78,315.82 M54.69,325.97c2.46-2.12,3.69-5.52,3.69-10.2
		c0-4.68-1.27-7.89-3.79-9.64c-2.53-1.74-7.04-2.61-13.53-2.61H25.67v25.63h15.07C47.58,329.14,52.23,328.08,54.69,325.97"/>
	<path class="st0" d="M148.18,354.31c-7.25,7.07-16.2,10.61-26.86,10.61s-19.62-3.54-26.86-10.61
		c-7.24-7.07-10.87-15.89-10.87-26.45c0-10.56,3.62-19.38,10.87-26.45c7.24-7.07,16.2-10.61,26.86-10.61s19.61,3.54,26.86,10.61
		c7.24,7.07,10.87,15.89,10.87,26.45C159.05,338.42,155.43,347.24,148.18,354.31 M139.31,309.46c-4.89-5.06-10.88-7.59-17.99-7.59
		s-13.1,2.53-17.99,7.59c-4.89,5.06-7.33,11.19-7.33,18.4c0,7.21,2.44,13.34,7.33,18.4c4.89,5.06,10.88,7.58,17.99,7.58
		s13.1-2.53,17.99-7.58c4.88-5.06,7.33-11.19,7.33-18.4C146.65,320.65,144.2,314.52,139.31,309.46"/>
	<polygon class="st0" points="186.42,364.2 174.32,364.2 174.32,292.54 193.19,292.54 214.82,337.55 236.45,292.54 255.21,292.54 
		255.21,364.2 243.11,364.2 243.11,308.23 218.1,357.95 211.33,357.95 186.42,308.23 	"/>
	<path class="st0" d="M308.41,292.55l31.57,71.66h-13.32l-7.28-16.3h-34.34l-6.97,16.3h-12.92l31.58-71.66H308.41z M296.83,272.86
		h10.66L320,286.6h-9.95l-7.89-5.74l-7.89,5.74h-9.94L296.83,272.86z M314.57,336.73l-12.3-27.58l-12.2,27.58H314.57z"/>
	<polygon class="st0" points="403.65,292.54 415.75,292.54 415.75,364.2 402.63,364.2 362.03,311.92 362.03,364.2 349.93,364.2 
		349.93,292.54 362.03,292.54 403.65,346.06 	"/>
	<rect x="435.64" y="292.54" class="st0" width="12.1" height="71.66"/>
	<path class="st0" d="M477.77,347.91l-7.17,16.3h-12.92l31.57-71.66h12.92l31.57,71.66h-12.92l-7.17-16.3H477.77z M508.73,336.73
		l-13.02-29.52l-13.02,29.52H508.73z"/>
	<polygon points="21.76,386.36 21.79,409.3 19.17,409.31 19.14,388.79 13.74,389.7 13.74,387.28 	"/>
	<path d="M39,407.16c4.94-0.01,7.42-4.1,7.02-10.45c-1.01,2.75-3.43,4.32-6.83,4.33c-4.55,0-7.33-2.77-7.34-7.22
		c0-4.68,3.07-7.56,7.78-7.57c5.6-0.01,9,3.98,9.01,11.05c0.01,7.3-3.65,12.08-9.47,12.09c-2.09,0-4.62-0.62-6.48-1.63l1.04-2.03
		C35.23,406.63,37.2,407.16,39,407.16 M34.3,393.84c0,3.11,2.07,5.04,5.31,5.03c3.7,0,5.86-2.49,5.82-5.24
		c0.03-2.22-1.67-5.07-5.6-5.06C36.56,388.57,34.3,390.54,34.3,393.84"/>
	<polygon points="62.14,386.31 62.17,409.25 59.56,409.25 59.53,388.74 54.13,389.65 54.12,387.23 	"/>
	<path d="M88.03,391.94c0,2.39-1.4,4.12-3.69,5.01c2.98,0.88,4.81,2.97,4.82,5.85c0.01,4.06-3.23,6.51-8.43,6.52
		s-8.45-2.41-8.45-6.47c0-2.91,1.86-5.01,4.9-5.9c-2.39-0.91-3.83-2.68-3.84-5.1c0-3.5,2.84-5.66,7.32-5.67
		C85.21,386.18,88.03,388.34,88.03,391.94 M74.73,402.6c0,2.91,2.23,4.61,6,4.6c3.73,0,5.95-1.71,5.95-4.59
		c0-2.75-2.23-4.45-5.99-4.44C76.95,398.17,74.72,399.84,74.73,402.6 M75.6,392.12c0,2.46,1.9,3.93,5.11,3.92
		c3.21-0.01,5.07-1.48,5.07-3.93c0-2.49-1.87-3.92-5.08-3.92C77.49,388.19,75.6,389.63,75.6,392.12"/>
	<rect x="92.89" y="398.38" transform="matrix(1 -1.873966e-03 1.873966e-03 1 -0.7481 0.182)" width="7.69" height="1.86"/>
	<path d="M116.8,392.1c0-2.26-1.84-3.6-4.85-3.59c-2.16,0-4.61,1.09-6.51,2.82l-1.15-2c2.29-1.97,5.17-3.18,7.98-3.18
		c4.35-0.01,7.24,2.18,7.24,5.62c0,2.16-1.7,4.81-4.21,7.43l-7.42,7.57l13.02-0.02l0,2.42l-16.36,0.02l0-2.13l8.95-9.31
		C115.5,395.73,116.8,393.61,116.8,392.1"/>
	<path d="M141.48,397.66c0.01,7.43-3.03,11.56-8.46,11.56c-5.46,0.01-8.52-4.11-8.53-11.54c-0.01-7.39,3.03-11.52,8.5-11.53
		C138.43,386.15,141.47,390.27,141.48,397.66 M127.12,397.68c0.01,6.25,2.01,9.42,5.9,9.42c3.83,0,5.85-3.18,5.85-9.43
		c-0.01-6.25-2.04-9.36-5.87-9.35C129.1,388.32,127.11,391.43,127.12,397.68"/>
	<polygon points="154.82,386.2 154.85,409.14 152.23,409.14 152.2,388.62 146.8,389.53 146.8,387.11 	"/>
	<path d="M180.71,391.82c0,2.39-1.4,4.12-3.69,5.01c2.98,0.88,4.81,2.97,4.82,5.85c0,4.06-3.23,6.51-8.44,6.52
		c-5.2,0.01-8.45-2.41-8.45-6.47c0-2.91,1.86-5.01,4.9-5.9c-2.39-0.92-3.83-2.68-3.84-5.1c0-3.5,2.84-5.66,7.32-5.67
		C177.89,386.07,180.71,388.22,180.71,391.82 M167.41,402.47c0,2.92,2.23,4.62,6,4.61c3.73,0,5.95-1.71,5.95-4.59
		c0-2.75-2.23-4.45-6-4.44C169.63,398.06,167.4,399.73,167.41,402.47 M168.28,392c0,2.46,1.9,3.92,5.11,3.92
		c3.21-0.01,5.07-1.48,5.07-3.94c0-2.48-1.87-3.92-5.08-3.92C170.17,388.07,168.27,389.51,168.28,392"/>
	<polygon points="198.37,382.41 198.41,413.04 196.38,413.04 196.34,382.41 	"/>
	<path d="M221.38,388.6c-2.94,0-4.88,1.19-4.87,3.15c0.01,5.96,12.9,2.83,12.87,11.14c0.01,3.8-3.36,6.26-8.27,6.26
		c-3.34,0.01-6.61-1.43-8.78-3.49l1.18-2.26c2.13,2.03,5.04,3.2,7.63,3.2c3.3,0,5.36-1.35,5.36-3.57
		c0.03-6.12-12.87-2.86-12.88-11.08c0-3.6,3.17-5.9,7.91-5.9c2.65,0,5.37,0.84,7.27,2.12l-1.11,2.33
		C225.64,389.15,223.22,388.59,221.38,388.6"/>
	<path d="M248.96,403.16l-12.47,0.02l-2.55,5.86l-2.78,0l10.25-22.92l2.72,0l10.27,22.9l-2.85,0L248.96,403.16z M247.91,400.74
		l-5.22-11.77l-5.12,11.79L247.91,400.74z"/>
	<path d="M272.98,408.99l-4.82-7.33c-0.46,0.04-0.95,0.07-1.47,0.07l-6.09,0.01l0.01,7.27l-2.62,0l-0.03-22.91l8.71-0.01
		c5.73-0.01,9.04,2.8,9.04,7.68c0,3.76-1.86,6.35-5.16,7.4l5.41,7.81L272.98,408.99z M266.69,399.31c4.16,0,6.51-1.87,6.51-5.47
		c0-3.5-2.36-5.33-6.52-5.32l-6.09,0.01l0.02,10.8L266.69,399.31z"/>
	<path d="M298.72,391.77c0,2.68-1.6,4.62-4.25,5.18c3.3,0.49,5.24,2.64,5.24,5.78c0,3.89-3.07,6.22-8.27,6.23l-9.78,0.01
		l-0.03-22.91l9.65-0.01C295.9,386.05,298.71,388.17,298.72,391.77 M296.03,392.17c0-2.36-1.81-3.69-4.88-3.69l-6.9,0.01l0.01,7.49
		l6.91-0.01C294.24,395.97,296.04,394.59,296.03,392.17 M297.06,402.41c0-2.55-2.17-4.05-5.9-4.02l-6.91,0.01l0.01,8.15l6.91-0.01
		C294.91,406.57,297.07,405.06,297.06,402.41"/>
	<path d="M319.54,403.07l-12.47,0.02l-2.54,5.86l-2.78,0L312,386.03l2.72,0l10.27,22.89l-2.85,0L319.54,403.07z M318.49,400.65
		l-5.22-11.77l-5.12,11.79L318.49,400.65z"/>
	<polygon points="340.86,385.99 340.86,388.41 333.37,388.42 333.4,408.91 330.78,408.91 330.75,388.43 323.29,388.44 
		323.29,386.01 	"/>
	<path d="M365.03,397.42c0.01,6.44-5.29,11.55-11.96,11.57c-6.71,0.01-12.02-5.09-12.03-11.54c-0.01-6.45,5.29-11.52,12-11.54
		C359.71,385.9,365.02,390.97,365.03,397.42 M343.69,397.44c0.01,5.07,4.27,9.16,9.37,9.15c5.1,0,9.29-4.1,9.28-9.17
		c-0.01-5.07-4.2-9.09-9.31-9.09C347.93,388.34,343.68,392.37,343.69,397.44"/>
	<path d="M384.81,408.84l-4.82-7.33c-0.46,0.04-0.95,0.07-1.47,0.07l-6.09,0.01l0.01,7.26l-2.62,0l-0.03-22.9l8.7-0.01
		c5.73-0.01,9.04,2.8,9.04,7.68c0,3.76-1.86,6.35-5.16,7.4l5.41,7.81L384.81,408.84z M378.51,399.16c4.16,0,6.51-1.87,6.51-5.47
		c0-3.5-2.36-5.33-6.52-5.32l-6.09,0.01l0.01,10.8L378.51,399.16z"/>
	<rect x="393.46" y="385.92" transform="matrix(1 -1.221821e-03 1.221821e-03 1 -0.4852 0.4826)" width="2.62" height="22.91"/>
	<polygon points="406.24,385.91 414.64,402.52 422.97,385.89 426.17,385.88 426.2,408.79 423.78,408.79 423.72,389.75 415.4,406.38 
		413.83,406.38 405.5,389.77 405.52,408.82 403.03,408.82 403,385.91 	"/>
	<path d="M445.51,378.69l3.34,4.21l-2.23,0l-2.36-2.97l-2.35,2.98l-2.23,0l3.34-4.23L445.51,378.69z M445.58,385.86l0.03,22.91
		l-2.62,0l-0.03-22.91L445.58,385.86z"/>
	<polygon points="455.76,385.85 464.16,402.46 472.48,385.82 475.69,385.82 475.71,408.73 473.29,408.73 473.24,389.69 
		464.91,406.32 463.34,406.32 455.01,389.71 455.03,408.75 452.55,408.75 452.52,385.85 	"/>
	<path d="M500.21,393.48c0.01,5.04-3.26,7.95-8.92,7.96l-5.99,0.01l0.01,7.27l-2.62,0l-0.03-22.91l8.6-0.01
		C496.92,385.79,500.2,388.6,500.21,393.48 M497.69,393.55c0-3.5-2.39-5.33-6.52-5.32l-5.89,0.01l0.02,10.8l5.89-0.01
		C495.31,399.02,497.69,397.15,497.69,393.55"/>
	<path d="M519.57,408.67l-4.82-7.33c-0.46,0.04-0.95,0.07-1.47,0.07l-6.09,0.01l0.01,7.26l-2.62,0l-0.03-22.9l8.7-0.01
		c5.73-0.01,9.04,2.8,9.04,7.68c0,3.76-1.86,6.35-5.16,7.4l5.41,7.81L519.57,408.67z M513.27,398.99c4.15,0,6.51-1.87,6.51-5.47
		c0-3.5-2.36-5.33-6.52-5.32l-6.09,0.01l0.01,10.8L513.27,398.99z"/>
	<polygon points="543.76,385.73 543.76,388.16 530.83,388.17 530.84,395.86 542.39,395.85 542.39,398.24 530.85,398.25 
		530.85,406.24 544.2,406.22 544.21,408.64 528.24,408.66 528.21,385.75 	"/>
	<path d="M558.67,406.33c4.35,0,6.97-2.63,6.96-7.14l-0.02-13.48l2.62,0l0.02,13.48c0.01,5.99-3.59,9.52-9.57,9.53
		c-6.02,0.01-9.66-3.52-9.67-9.51l-0.01-13.48l2.62,0l0.02,13.48C551.63,403.72,554.32,406.34,558.67,406.33"/>
	<polygon points="577.36,385.69 591.13,404.29 591.11,385.67 593.69,385.67 593.72,408.58 591.04,408.58 577.27,390.01 
		577.29,408.6 574.68,408.6 574.65,385.69 	"/>
	<path d="M615.15,402.69l-12.47,0.02l-2.55,5.86l-2.78,0l10.25-22.92l2.72,0l10.27,22.89l-2.85,0L615.15,402.69z M614.1,400.27
		l-5.22-11.77l-5.12,11.79L614.1,400.27z"/>
	<path d="M238.61,379.63l1.29,0c0.4,1.49,1.39,2.41,3.11,2.41c1.72,0,2.71-0.93,3.11-2.42h1.29c-0.16,2.58-1.95,4.1-4.39,4.1
		C240.56,383.72,238.77,382.2,238.61,379.63"/>
	<path d="M308.98,379.63l1.29,0c0.4,1.49,1.39,2.41,3.11,2.41c1.72,0,2.71-0.93,3.11-2.42h1.29c-0.16,2.58-1.95,4.1-4.39,4.1
		C310.93,383.72,309.14,382.2,308.98,379.63"/>
	<path d="M604.65,379.63l1.29,0c0.4,1.49,1.39,2.41,3.11,2.41c1.72,0,2.71-0.93,3.11-2.42h1.29c-0.16,2.58-1.95,4.1-4.39,4.1
		C606.61,383.72,604.82,382.2,604.65,379.63"/>
	<path class="st1" d="M403.53,196.87c0.12,1.13,1.14,1.96,2.28,1.84c1.13-0.12,1.96-1.14,1.84-2.28c-0.13-1.14-1.14-1.96-2.28-1.84
		C404.23,194.71,403.41,195.73,403.53,196.87"/>
	<path class="st1" d="M385.34,189.93c0.14,1.31,1.31,2.26,2.63,2.12c1.31-0.14,2.26-1.32,2.12-2.63c-0.14-1.31-1.31-2.26-2.63-2.12
		C386.14,187.45,385.19,188.62,385.34,189.93"/>
	<path class="st1" d="M370.5,177.7c0.16,1.48,1.49,2.56,2.98,2.4c1.49-0.16,2.56-1.49,2.4-2.98c-0.16-1.49-1.49-2.56-2.98-2.4
		C371.41,174.88,370.34,176.22,370.5,177.7"/>
	<path class="st1" d="M359.96,161.46c0.17,1.66,1.66,2.87,3.33,2.69c1.66-0.18,2.87-1.67,2.69-3.33c-0.18-1.66-1.67-2.87-3.33-2.68
		C360.98,158.31,359.78,159.8,359.96,161.46"/>
	<path class="st1" d="M354.86,142.14c0.19,1.84,1.84,3.17,3.68,2.97c1.83-0.2,3.16-1.84,2.97-3.68c-0.2-1.83-1.84-3.17-3.68-2.97
		C355.99,138.66,354.66,140.3,354.86,142.14"/>
	<path class="st1" d="M356.04,122.53c0.21,2.01,2.02,3.47,4.03,3.25c2.01-0.22,3.46-2.02,3.25-4.03c-0.22-2.01-2.02-3.47-4.03-3.25
		C357.29,118.71,355.83,120.52,356.04,122.53"/>
	<path class="st1" d="M363,104.94c0.23,2.18,2.19,3.77,4.38,3.54c2.18-0.23,3.77-2.19,3.54-4.38c-0.24-2.19-2.2-3.77-4.38-3.53
		C364.35,100.79,362.77,102.75,363,104.94"/>
	<path class="st1" d="M374.84,90.48c0.25,2.36,2.36,4.07,4.73,3.82c2.36-0.25,4.07-2.37,3.82-4.73c-0.25-2.36-2.37-4.07-4.73-3.82
		C376.29,86,374.58,88.12,374.84,90.48"/>
	<path class="st1" d="M390.65,80.27c0.27,2.53,2.54,4.37,5.08,4.1c2.53-0.27,4.37-2.55,4.1-5.08c-0.27-2.54-2.55-4.37-5.08-4.1
		C392.21,75.46,390.38,77.73,390.65,80.27"/>
	<path class="st1" d="M409.55,75.4c0.29,2.71,2.72,4.67,5.43,4.39c2.71-0.29,4.67-2.72,4.38-5.43c-0.29-2.71-2.72-4.67-5.43-4.38
		C411.22,70.26,409.26,72.69,409.55,75.4"/>
	<path class="st1" d="M428.91,76.79c0.3,2.88,2.89,4.97,5.78,4.67c2.88-0.31,4.97-2.89,4.67-5.78c-0.31-2.89-2.9-4.97-5.78-4.67
		C430.69,71.32,428.6,73.91,428.91,76.79"/>
	<path class="st1" d="M446.28,83.97c0.32,3.06,3.07,5.28,6.13,4.95c3.06-0.33,5.27-3.07,4.95-6.13c-0.32-3.06-3.07-5.28-6.13-4.95
		C448.17,78.17,445.95,80.91,446.28,83.97"/>
	<path class="st1" d="M460.54,96.04c0.34,3.24,3.24,5.58,6.48,5.23c3.24-0.35,5.58-3.24,5.23-6.48c-0.35-3.24-3.24-5.58-6.48-5.23
		C462.54,89.91,460.19,92.81,460.54,96.04"/>
	<path class="st1" d="M470.59,112.12c0.36,3.41,3.42,5.88,6.83,5.51c3.41-0.36,5.88-3.42,5.52-6.83c-0.36-3.41-3.42-5.88-6.83-5.52
		C472.69,105.66,470.23,108.71,470.59,112.12"/>
	<path class="st1" d="M475.32,131.31c0.38,3.58,3.59,6.18,7.18,5.8c3.58-0.38,6.18-3.59,5.8-7.18c-0.38-3.58-3.59-6.18-7.18-5.8
		C477.53,124.51,474.93,127.72,475.32,131.31"/>
	<path class="st1" d="M473.8,151.06c0.4,3.76,3.77,6.48,7.53,6.08c3.76-0.4,6.48-3.77,6.08-7.53c-0.4-3.77-3.77-6.48-7.53-6.08
		C476.12,143.93,473.4,147.3,473.8,151.06"/>
	<path class="st1" d="M466.47,168.84c0.42,3.93,3.94,6.78,7.88,6.36c3.93-0.42,6.78-3.95,6.36-7.88c-0.42-3.94-3.95-6.78-7.88-6.36
		C468.9,161.38,466.05,164.9,466.47,168.84"/>
	<path class="st1" d="M454.22,183.54c0.43,4.11,4.12,7.08,8.23,6.65c4.1-0.44,7.08-4.12,6.65-8.23c-0.44-4.11-4.13-7.09-8.23-6.65
		C456.76,175.74,453.78,179.43,454.22,183.54"/>
	<path class="st1" d="M437.94,194.05c0.45,4.29,4.29,7.38,8.58,6.93c4.28-0.46,7.38-4.29,6.93-8.58c-0.46-4.29-4.3-7.39-8.58-6.93
		C440.59,185.93,437.49,189.77,437.94,194.05"/>
	<path class="st1" d="M418.54,199.27c0.47,4.46,4.47,7.69,8.93,7.21c4.46-0.47,7.69-4.47,7.21-8.93c-0.48-4.46-4.48-7.68-8.93-7.21
		C421.3,190.81,418.07,194.81,418.54,199.27"/>
	<path class="st2" d="M327.66,90.65c-2-0.89-2.9-3.23-2.02-5.23c0.89-2,3.23-2.9,5.23-2.02c2,0.89,2.9,3.23,2.02,5.23
		C332,90.63,329.66,91.53,327.66,90.65"/>
	<path class="st2" d="M345.85,66.43c-2.2-0.98-3.19-3.55-2.22-5.75c0.98-2.2,3.55-3.2,5.75-2.22c2.2,0.98,3.19,3.55,2.22,5.75
		C350.63,66.41,348.05,67.4,345.85,66.43"/>
	<path class="st2" d="M369.56,48.86c-2.4-1.06-3.48-3.87-2.42-6.27c1.07-2.4,3.88-3.48,6.27-2.42c2.4,1.07,3.48,3.88,2.42,6.28
		C374.77,48.84,371.96,49.93,369.56,48.86"/>
	<path class="st2" d="M397.07,38.62c-2.6-1.15-3.77-4.2-2.62-6.8c1.15-2.6,4.2-3.77,6.8-2.62c2.6,1.15,3.77,4.2,2.62,6.8
		C402.72,38.6,399.67,39.77,397.07,38.62"/>
	<path class="st2" d="M426.66,36.37c-2.8-1.24-4.06-4.52-2.82-7.32c1.24-2.8,4.52-4.06,7.32-2.82c2.8,1.24,4.07,4.52,2.82,7.32
		C432.73,36.34,429.46,37.61,426.66,36.37"/>
	<path class="st2" d="M456.6,42.76c-3-1.33-4.36-4.84-3.03-7.84c1.33-3,4.84-4.35,7.84-3.02c3,1.33,4.36,4.84,3.02,7.84
		C463.11,42.73,459.6,44.08,456.6,42.76"/>
	<path class="st2" d="M484.15,57.8c-3.2-1.42-4.65-5.16-3.23-8.37c1.42-3.2,5.17-4.64,8.36-3.22c3.2,1.42,4.65,5.17,3.23,8.36
		C491.09,57.78,487.35,59.22,484.15,57.8"/>
	<path class="st2" d="M505.52,79.33c-3.4-1.51-4.94-5.49-3.43-8.89c1.51-3.4,5.49-4.93,8.89-3.42c3.4,1.51,4.94,5.49,3.43,8.89
		C512.9,79.3,508.92,80.83,505.52,79.33"/>
	<path class="st2" d="M519.93,105.56c-3.6-1.6-5.22-5.81-3.63-9.41c1.6-3.6,5.81-5.23,9.41-3.63c3.6,1.6,5.22,5.81,3.63,9.41
		C527.74,105.53,523.53,107.15,519.93,105.56"/>
	<path class="st2" d="M526.7,134.78c-3.8-1.68-5.52-6.13-3.83-9.93c1.69-3.8,6.14-5.51,9.94-3.83c3.8,1.68,5.52,6.13,3.83,9.93
		C534.95,134.75,530.5,136.46,526.7,134.78"/>
	<path class="st2" d="M525.18,165.27c-4-1.78-5.81-6.46-4.03-10.46c1.77-4,6.46-5.8,10.45-4.03c4,1.77,5.81,6.46,4.03,10.46
		C533.86,165.24,529.18,167.04,525.18,165.27"/>
	<path class="st2" d="M514.74,195.22c-4.21-1.86-6.1-6.78-4.24-10.98c1.86-4.2,6.78-6.1,10.98-4.23c4.2,1.86,6.1,6.78,4.23,10.98
		C523.86,195.19,518.94,197.08,514.74,195.22"/>
	<path class="st2" d="M496.61,220.55c-4.4-1.95-6.39-7.1-4.44-11.5c1.95-4.4,7.1-6.39,11.5-4.44c4.4,1.96,6.39,7.1,4.43,11.5
		C506.16,220.51,501.01,222.49,496.61,220.55"/>
	<path class="st2" d="M472.86,239.25c-4.6-2.04-6.68-7.42-4.64-12.02c2.04-4.6,7.42-6.68,12.02-4.64c4.61,2.04,6.68,7.42,4.64,12.02
		C482.84,239.21,477.46,241.29,472.86,239.25"/>
	<path class="st2" d="M445.21,250.67c-4.81-2.13-6.97-7.74-4.84-12.55c2.13-4.8,7.75-6.97,12.55-4.84
		c4.81,2.13,6.97,7.75,4.84,12.55C455.62,250.63,450.01,252.8,445.21,250.67"/>
	<path class="st2" d="M415.38,254.15c-5-2.22-7.26-8.06-5.04-13.07c2.22-5,8.07-7.26,13.07-5.04c5,2.22,7.26,8.07,5.04,13.07
		C426.23,254.11,420.38,256.37,415.38,254.15"/>
	<path class="st2" d="M385.09,249.02c-5.2-2.31-7.55-8.39-5.24-13.59c2.31-5.2,8.39-7.55,13.59-5.24c5.2,2.31,7.55,8.39,5.24,13.59
		C396.37,248.98,390.29,251.33,385.09,249.02"/>
	<path class="st2" d="M356.84,235.1c-5.4-2.39-7.84-8.71-5.44-14.12c2.4-5.4,8.71-7.84,14.12-5.44c5.4,2.39,7.84,8.72,5.44,14.12
		C368.56,235.06,362.24,237.49,356.84,235.1"/>
	<path class="st2" d="M334.67,214.5c-5.6-2.49-8.13-9.03-5.65-14.64c2.49-5.6,9.04-8.13,14.64-5.64c5.6,2.48,8.13,9.04,5.64,14.64
		C346.82,214.45,340.27,216.98,334.67,214.5"/>
	<path class="st2" d="M319.52,189.05c-5.81-2.57-8.42-9.36-5.85-15.16c2.57-5.8,9.36-8.42,15.16-5.85c5.8,2.57,8.42,9.36,5.85,15.16
		C332.1,189,325.32,191.61,319.52,189.05"/>
	<path class="st2" d="M312.04,160.49c-6-2.66-8.71-9.68-6.05-15.69c2.66-6,9.68-8.71,15.68-6.05c6,2.66,8.71,9.68,6.05,15.69
		C325.06,160.44,318.04,163.15,312.04,160.49"/>
	<path class="st3" d="M351.84,184.99c-1.46,0.56-3.09-0.17-3.65-1.62c-0.56-1.46,0.17-3.09,1.62-3.65c1.46-0.56,3.09,0.16,3.65,1.62
		C354.02,182.79,353.29,184.43,351.84,184.99"/>
	<path class="st3" d="M342.12,163.03c-1.62,0.62-3.44-0.18-4.06-1.8c-0.62-1.62,0.18-3.43,1.8-4.06c1.62-0.62,3.43,0.18,4.06,1.8
		C344.54,160.59,343.74,162.41,342.12,163.03"/>
	<path class="st3" d="M338.74,139.26c-1.78,0.69-3.78-0.2-4.47-1.98c-0.69-1.78,0.2-3.78,1.98-4.47c1.78-0.68,3.78,0.2,4.46,1.98
		C341.41,136.58,340.52,138.57,338.74,139.26"/>
	<path class="st3" d="M342.19,116.13c-1.94,0.75-4.12-0.22-4.87-2.16c-0.75-1.94,0.22-4.13,2.16-4.87c1.94-0.75,4.12,0.22,4.87,2.16
		C345.1,113.2,344.13,115.38,342.19,116.13"/>
	<path class="st3" d="M351.87,94.98c-2.1,0.81-4.47-0.24-5.28-2.34c-0.81-2.11,0.24-4.47,2.34-5.28c2.1-0.81,4.46,0.23,5.28,2.34
		C355.02,91.8,353.97,94.16,351.87,94.98"/>
	<path class="st3" d="M367.18,77.13c-2.27,0.88-4.81-0.26-5.69-2.52c-0.88-2.27,0.26-4.81,2.52-5.69c2.27-0.88,4.81,0.26,5.68,2.52
		C370.58,73.71,369.45,76.26,367.18,77.13"/>
	<path class="st3" d="M387.54,63.93c-2.43,0.94-5.15-0.27-6.09-2.7c-0.93-2.43,0.27-5.16,2.7-6.09c2.43-0.94,5.15,0.27,6.09,2.7
		C391.18,60.27,389.97,63,387.54,63.93"/>
	<path class="st3" d="M411.42,56.93c-2.59,1-5.5-0.29-6.5-2.88c-1-2.59,0.29-5.5,2.88-6.5c2.59-1,5.49,0.29,6.49,2.88
		C415.29,53.02,414,55.93,411.42,56.93"/>
	<path class="st3" d="M435.46,57.01c-2.75,1.06-5.84-0.31-6.9-3.06c-1.06-2.75,0.31-5.84,3.06-6.9c2.75-1.06,5.84,0.31,6.9,3.06
		C439.58,52.86,438.21,55.95,435.46,57.01"/>
	<path class="st3" d="M458.23,63.64c-2.91,1.12-6.18-0.33-7.31-3.24c-1.12-2.92,0.33-6.18,3.24-7.31c2.91-1.12,6.18,0.33,7.31,3.24
		C462.59,59.24,461.14,62.51,458.23,63.64"/>
	<path class="st3" d="M478.4,76.22c-3.07,1.19-6.53-0.35-7.71-3.42c-1.19-3.08,0.35-6.53,3.42-7.72c3.08-1.18,6.53,0.35,7.71,3.43
		C483.01,71.58,481.48,75.03,478.4,76.22"/>
	<path class="st3" d="M494.64,94.16c-3.24,1.25-6.87-0.36-8.12-3.6c-1.25-3.24,0.36-6.87,3.6-8.12c3.24-1.25,6.87,0.36,8.12,3.6
		C499.48,89.28,497.87,92.91,494.64,94.16"/>
	<path class="st3" d="M505.57,116.79c-3.4,1.31-7.22-0.38-8.53-3.78c-1.31-3.4,0.38-7.22,3.78-8.53c3.4-1.31,7.21,0.38,8.53,3.78
		C510.66,111.67,508.97,115.48,505.57,116.79"/>
	<path class="st3" d="M509.6,141.15c-3.56,1.37-7.56-0.4-8.93-3.96c-1.37-3.56,0.4-7.56,3.96-8.93c3.56-1.37,7.56,0.4,8.93,3.96
		C514.93,135.78,513.16,139.77,509.6,141.15"/>
	<path class="st3" d="M506.78,164.94c-3.72,1.44-7.9-0.42-9.34-4.14c-1.44-3.72,0.42-7.9,4.14-9.34c3.72-1.44,7.9,0.42,9.34,4.14
		C512.35,159.32,510.5,163.5,506.78,164.94"/>
	<path class="st3" d="M497.68,186.84c-3.89,1.5-8.25-0.43-9.74-4.32c-1.49-3.88,0.44-8.24,4.32-9.74c3.89-1.5,8.25,0.44,9.74,4.32
		C503.5,180.98,501.56,185.34,497.68,186.84"/>
	<path class="st3" d="M482.91,205.5c-4.05,1.56-8.59-0.45-10.15-4.5c-1.56-4.05,0.46-8.59,4.5-10.15c4.04-1.56,8.59,0.45,10.15,4.5
		C488.97,199.4,486.96,203.94,482.91,205.5"/>
	<path class="st3" d="M463.06,219.61c-4.21,1.62-8.93-0.47-10.56-4.68c-1.62-4.2,0.47-8.93,4.68-10.55
		c4.21-1.62,8.93,0.47,10.56,4.68C469.36,213.26,467.27,217.98,463.06,219.61"/>
	<path class="st3" d="M439.43,227.63c-4.37,1.69-9.28-0.49-10.96-4.86c-1.68-4.37,0.49-9.28,4.86-10.96s9.28,0.49,10.96,4.86
		C445.97,221.04,443.8,225.95,439.43,227.63"/>
	<path class="st3" d="M415.46,228.51c-4.53,1.75-9.62-0.51-11.37-5.04c-1.75-4.53,0.51-9.62,5.04-11.36
		c4.53-1.75,9.62,0.51,11.37,5.04C422.24,221.67,419.99,226.76,415.46,228.51"/>
	<path class="st3" d="M392.7,222.74c-4.69,1.81-9.97-0.53-11.77-5.22c-1.81-4.69,0.53-9.96,5.22-11.77
		c4.7-1.81,9.96,0.53,11.78,5.22C399.73,215.66,397.39,220.93,392.7,222.74"/>
	<path class="st3" d="M372.51,210.93c-4.86,1.87-10.31-0.54-12.18-5.4c-1.87-4.85,0.55-10.31,5.4-12.18
		c4.86-1.87,10.31,0.55,12.18,5.4C379.78,203.61,377.36,209.05,372.51,210.93"/>
	<path class="st1" d="M216.27,81.97c-0.29-1.1-1.43-1.76-2.54-1.46c-1.1,0.3-1.76,1.43-1.46,2.54c0.3,1.1,1.43,1.76,2.54,1.46
		C215.91,84.21,216.56,83.08,216.27,81.97"/>
	<path class="st1" d="M235.32,86c-0.34-1.27-1.65-2.03-2.92-1.69c-1.27,0.35-2.03,1.65-1.69,2.93c0.35,1.27,1.65,2.03,2.92,1.69
		C234.9,88.59,235.66,87.28,235.32,86"/>
	<path class="st1" d="M251.87,95.79c-0.39-1.44-1.87-2.3-3.32-1.91c-1.44,0.39-2.3,1.87-1.92,3.32c0.39,1.44,1.87,2.3,3.32,1.91
		C251.4,98.72,252.26,97.23,251.87,95.79"/>
	<path class="st1" d="M264.79,110.2c-0.43-1.61-2.09-2.57-3.7-2.14c-1.61,0.43-2.57,2.09-2.14,3.71c0.43,1.61,2.09,2.57,3.7,2.14
		C264.27,113.47,265.23,111.82,264.79,110.2"/>
	<path class="st1" d="M272.84,128.5c-0.48-1.78-2.31-2.84-4.1-2.36c-1.78,0.48-2.84,2.31-2.36,4.09c0.48,1.79,2.31,2.84,4.09,2.36
		C272.26,132.12,273.32,130.28,272.84,128.5"/>
	<path class="st1" d="M274.7,148.06c-0.52-1.95-2.53-3.11-4.49-2.59c-1.95,0.53-3.11,2.53-2.59,4.49c0.53,1.95,2.53,3.11,4.48,2.59
		C274.07,152.02,275.22,150.01,274.7,148.06"/>
	<path class="st1" d="M270.55,166.51c-0.57-2.12-2.75-3.39-4.88-2.81c-2.12,0.57-3.38,2.75-2.81,4.87c0.57,2.13,2.75,3.39,4.88,2.81
		C269.86,170.82,271.12,168.64,270.55,166.51"/>
	<path class="st1" d="M261.1,182.63c-0.61-2.29-2.97-3.65-5.26-3.04c-2.29,0.62-3.65,2.97-3.04,5.27c0.62,2.29,2.97,3.65,5.26,3.04
		C260.36,187.28,261.71,184.92,261.1,182.63"/>
	<path class="st1" d="M247.06,195.17c-0.66-2.46-3.19-3.92-5.66-3.26c-2.46,0.66-3.92,3.19-3.26,5.65c0.66,2.47,3.19,3.93,5.65,3.26
		C246.26,200.16,247.72,197.63,247.06,195.17"/>
	<path class="st1" d="M229.15,202.91c-0.7-2.63-3.41-4.2-6.05-3.49c-2.63,0.71-4.19,3.41-3.49,6.04c0.71,2.63,3.41,4.2,6.04,3.49
		C228.29,208.24,229.86,205.54,229.15,202.91"/>
	<path class="st1" d="M209.8,204.53c-0.75-2.8-3.63-4.46-6.44-3.71c-2.8,0.75-4.46,3.63-3.71,6.43c0.75,2.8,3.63,4.46,6.43,3.72
		C208.89,210.22,210.55,207.34,209.8,204.53"/>
	<path class="st1" d="M191.53,200.13c-0.79-2.97-3.85-4.74-6.82-3.94c-2.97,0.8-4.74,3.85-3.94,6.82c0.8,2.97,3.85,4.74,6.82,3.94
		C190.57,206.16,192.33,203.11,191.53,200.13"/>
	<path class="st1" d="M175.57,190.42c-0.84-3.14-4.07-5.01-7.22-4.16c-3.14,0.84-5.01,4.07-4.16,7.21c0.84,3.14,4.07,5.01,7.21,4.17
		C174.55,196.78,176.41,193.56,175.57,190.42"/>
	<path class="st1" d="M163.15,176.09c-0.88-3.31-4.29-5.28-7.6-4.39c-3.31,0.89-5.28,4.29-4.39,7.6c0.89,3.31,4.29,5.28,7.6,4.39
		C162.07,182.8,164.04,179.4,163.15,176.09"/>
	<path class="st1" d="M155.51,157.87c-0.93-3.48-4.51-5.55-7.99-4.61c-3.48,0.93-5.55,4.51-4.61,7.99c0.93,3.48,4.51,5.55,7.99,4.62
		C154.38,164.93,156.44,161.35,155.51,157.87"/>
	<path class="st1" d="M153.95,138.12c-0.98-3.65-4.73-5.82-8.39-4.84c-3.65,0.98-5.82,4.73-4.84,8.38c0.98,3.66,4.73,5.82,8.38,4.84
		C152.76,145.53,154.93,141.78,153.95,138.12"/>
	<path class="st1" d="M158.44,119.42c-1.02-3.82-4.95-6.09-8.77-5.06c-3.82,1.02-6.09,4.95-5.07,8.77c1.02,3.82,4.95,6.09,8.77,5.06
		C157.19,127.17,159.46,123.24,158.44,119.42"/>
	<path class="st1" d="M168.26,103c-1.06-3.99-5.17-6.36-9.16-5.29c-3.99,1.07-6.36,5.17-5.29,9.16c1.07,4,5.17,6.36,9.17,5.29
		C166.96,111.09,169.33,106.99,168.26,103"/>
	<path class="st1" d="M182.71,90.09c-1.11-4.16-5.39-6.63-9.55-5.51c-4.16,1.11-6.63,5.39-5.52,9.55c1.12,4.17,5.4,6.63,9.55,5.52
		C181.35,98.52,183.82,94.25,182.71,90.09"/>
	<path class="st1" d="M201.06,81.93c-1.16-4.33-5.61-6.9-9.94-5.74c-4.33,1.16-6.9,5.61-5.74,9.94c1.16,4.33,5.61,6.9,9.94,5.74
		C199.65,90.71,202.22,86.26,201.06,81.93"/>
	<path class="st2" d="M307.69,175.15c2.12,0.57,3.37,2.74,2.8,4.85c-0.57,2.12-2.74,3.37-4.85,2.8c-2.11-0.57-3.37-2.74-2.8-4.85
		C303.4,175.84,305.57,174.58,307.69,175.15"/>
	<path class="st2" d="M293.46,201.9c2.33,0.62,3.7,3.01,3.08,5.34c-0.62,2.33-3.02,3.71-5.34,3.08c-2.33-0.62-3.71-3.01-3.08-5.34
		C288.75,202.66,291.14,201.28,293.46,201.9"/>
	<path class="st2" d="M272.76,222.93c2.54,0.68,4.04,3.29,3.36,5.82c-0.68,2.54-3.28,4.04-5.82,3.36c-2.54-0.68-4.04-3.29-3.36-5.82
		C267.62,223.75,270.23,222.25,272.76,222.93"/>
	<path class="st2" d="M247.17,237.31c2.75,0.74,4.38,3.56,3.64,6.31c-0.74,2.75-3.56,4.38-6.31,3.64c-2.75-0.74-4.38-3.56-3.64-6.31
		C241.6,238.2,244.43,236.57,247.17,237.31"/>
	<path class="st2" d="M218.29,244.12c2.96,0.8,4.72,3.84,3.92,6.8c-0.79,2.96-3.84,4.72-6.79,3.92c-2.96-0.79-4.72-3.83-3.92-6.8
		C212.3,245.09,215.34,243.33,218.29,244.12"/>
	<path class="st2" d="M187.73,242.45c3.17,0.85,5.05,4.11,4.2,7.28c-0.85,3.17-4.11,5.05-7.28,4.21c-3.17-0.85-5.05-4.11-4.2-7.28
		C181.3,243.48,184.56,241.6,187.73,242.45"/>
	<path class="st2" d="M158.18,231.85c3.38,0.91,5.39,4.38,4.48,7.77c-0.91,3.38-4.38,5.39-7.76,4.48c-3.38-0.91-5.38-4.38-4.48-7.76
		C151.32,232.95,154.8,230.95,158.18,231.85"/>
	<path class="st2" d="M133.72,213.9c3.6,0.96,5.72,4.65,4.76,8.25c-0.96,3.59-4.66,5.73-8.25,4.76c-3.59-0.96-5.72-4.66-4.76-8.25
		C126.44,215.07,130.13,212.94,133.72,213.9"/>
	<path class="st2" d="M115.43,190.22c3.8,1.02,6.06,4.93,5.04,8.73c-1.02,3.81-4.93,6.07-8.73,5.04c-3.81-1.02-6.06-4.93-5.04-8.73
		C107.71,191.46,111.62,189.2,115.43,190.22"/>
	<path class="st2" d="M104.21,162.4c4.02,1.08,6.4,5.2,5.32,9.22c-1.08,4.02-5.21,6.4-9.22,5.32c-4.02-1.08-6.4-5.21-5.32-9.22
		C96.07,163.71,100.19,161.33,104.21,162.4"/>
	<path class="st2" d="M100.99,132.04c4.23,1.14,6.74,5.48,5.6,9.71c-1.13,4.23-5.48,6.74-9.7,5.6c-4.23-1.13-6.74-5.48-5.61-9.7
		C92.42,133.42,96.76,130.92,100.99,132.04"/>
	<path class="st2" d="M106.65,100.84c4.44,1.19,7.07,5.75,5.88,10.19c-1.19,4.44-5.75,7.07-10.19,5.88
		c-4.44-1.19-7.07-5.75-5.88-10.19C97.66,102.28,102.22,99.65,106.65,100.84"/>
	<path class="st2" d="M120.64,73.01c4.65,1.25,7.41,6.02,6.17,10.68c-1.25,4.65-6.03,7.41-10.68,6.17
		c-4.65-1.25-7.41-6.03-6.16-10.68C111.22,74.52,116,71.76,120.64,73.01"/>
	<path class="st2" d="M141.21,50.85c4.87,1.3,7.75,6.3,6.44,11.16c-1.3,4.86-6.3,7.75-11.16,6.44c-4.86-1.3-7.75-6.3-6.44-11.16
		C131.35,52.43,136.35,49.55,141.21,50.85"/>
	<path class="st2" d="M166.75,35.28c5.08,1.36,8.08,6.57,6.72,11.65c-1.36,5.07-6.57,8.08-11.65,6.72
		c-5.07-1.36-8.08-6.57-6.72-11.65C156.47,36.93,161.68,33.92,166.75,35.28"/>
	<path class="st2" d="M195.68,27.22c5.28,1.42,8.42,6.85,7,12.13c-1.42,5.28-6.85,8.42-12.13,7c-5.29-1.42-8.42-6.85-7.01-12.13
		C184.97,28.94,190.4,25.81,195.68,27.22"/>
	<path class="st2" d="M226.4,27.59c5.5,1.47,8.76,7.12,7.28,12.62c-1.47,5.49-7.12,8.76-12.62,7.28c-5.5-1.47-8.76-7.12-7.29-12.62
		S220.91,26.12,226.4,27.59"/>
	<path class="st2" d="M256.47,36.97c5.71,1.53,9.1,7.39,7.57,13.11c-1.53,5.7-7.39,9.09-13.1,7.56c-5.71-1.53-9.1-7.39-7.57-13.1
		C244.9,38.83,250.76,35.44,256.47,36.97"/>
	<path class="st2" d="M281.56,53.89c5.92,1.59,9.43,7.67,7.84,13.59c-1.59,5.92-7.67,9.43-13.59,7.84
		c-5.92-1.58-9.43-7.67-7.84-13.59C269.56,55.82,275.64,52.31,281.56,53.89"/>
	<path class="st2" d="M300.48,76.68c6.13,1.64,9.77,7.94,8.13,14.08c-1.65,6.13-7.94,9.77-14.07,8.13
		c-6.13-1.64-9.77-7.95-8.13-14.08C288.05,78.68,294.35,75.04,300.48,76.68"/>
	<path class="st2" d="M312.29,103.73c6.34,1.7,10.1,8.22,8.4,14.56c-1.7,6.34-8.22,10.11-14.56,8.4c-6.35-1.7-10.1-8.22-8.41-14.56
		C299.44,105.8,305.95,102.04,312.29,103.73"/>
	<path class="st3" d="M269.17,85.69c1.35-0.78,3.08-0.32,3.86,1.03c0.78,1.35,0.32,3.08-1.04,3.86c-1.35,0.78-3.08,0.32-3.86-1.04
		C267.36,88.21,267.83,86.47,269.17,85.69"/>
	<path class="st3" d="M282.18,105.88c1.5-0.87,3.42-0.35,4.29,1.15c0.87,1.5,0.35,3.42-1.15,4.29c-1.5,0.87-3.42,0.35-4.29-1.15
		C280.16,108.67,280.68,106.75,282.18,105.88"/>
	<path class="st3" d="M289.2,128.84c1.65-0.95,3.76-0.39,4.72,1.26c0.95,1.65,0.39,3.77-1.26,4.72c-1.65,0.95-3.77,0.39-4.72-1.26
		C286.98,131.91,287.55,129.8,289.2,128.84"/>
	<path class="st3" d="M289.38,152.23c1.8-1.04,4.11-0.42,5.15,1.38c1.04,1.8,0.43,4.11-1.38,5.15c-1.8,1.04-4.11,0.42-5.15-1.38
		C286.96,155.58,287.58,153.27,289.38,152.23"/>
	<path class="st3" d="M283.1,174.63c1.95-1.13,4.45-0.46,5.58,1.5c1.12,1.95,0.46,4.45-1.5,5.58c-1.95,1.13-4.45,0.46-5.57-1.5
		C280.48,178.25,281.15,175.76,283.1,174.63"/>
	<path class="st3" d="M270.73,194.63c2.1-1.21,4.79-0.49,6.01,1.61c1.21,2.1,0.5,4.79-1.61,6.01c-2.1,1.21-4.79,0.49-6-1.61
		C267.91,198.53,268.63,195.85,270.73,194.63"/>
	<path class="st3" d="M252.66,210.83c2.25-1.3,5.13-0.53,6.43,1.73c1.3,2.25,0.53,5.13-1.73,6.43c-2.25,1.3-5.13,0.53-6.43-1.72
		C249.64,215.01,250.41,212.13,252.66,210.83"/>
	<path class="st3" d="M230.17,221.45c2.4-1.39,5.47-0.57,6.87,1.84c1.38,2.41,0.56,5.48-1.84,6.86c-2.4,1.39-5.48,0.56-6.86-1.84
		C226.94,225.91,227.76,222.84,230.17,221.45"/>
	<path class="st3" d="M206.4,225.09c2.55-1.47,5.82-0.6,7.29,1.95c1.47,2.55,0.6,5.82-1.95,7.29c-2.55,1.47-5.82,0.6-7.29-1.95
		C202.98,229.83,203.85,226.57,206.4,225.09"/>
	<path class="st3" d="M182.88,222.07c2.7-1.56,6.16-0.64,7.72,2.07c1.56,2.7,0.63,6.16-2.07,7.72c-2.7,1.56-6.16,0.64-7.72-2.07
		C179.25,227.09,180.17,223.64,182.88,222.07"/>
	<path class="st3" d="M161,212.77c2.85-1.65,6.5-0.67,8.15,2.18c1.65,2.85,0.67,6.5-2.18,8.15c-2.85,1.65-6.5,0.67-8.15-2.19
		C157.17,218.07,158.14,214.42,161,212.77"/>
	<path class="st3" d="M142.18,197.56c3.01-1.73,6.84-0.71,8.58,2.3c1.73,3,0.7,6.84-2.3,8.58c-3,1.74-6.85,0.71-8.58-2.3
		C138.15,203.14,139.18,199.3,142.18,197.56"/>
	<path class="st3" d="M127.87,176.9c3.16-1.82,7.19-0.74,9.01,2.41c1.82,3.16,0.74,7.19-2.41,9.01c-3.16,1.82-7.19,0.74-9.01-2.42
		C123.63,182.75,124.71,178.72,127.87,176.9"/>
	<path class="st3" d="M120.11,153.46c3.31-1.91,7.53-0.78,9.44,2.53c1.91,3.31,0.78,7.53-2.53,9.44c-3.31,1.91-7.53,0.77-9.44-2.53
		C115.68,159.59,116.81,155.37,120.11,153.46"/>
	<path class="st3" d="M119.22,129.52c3.46-2,7.87-0.81,9.87,2.65c1.99,3.45,0.81,7.87-2.64,9.86c-3.46,2-7.87,0.81-9.87-2.64
		C114.58,135.93,115.76,131.51,119.22,129.52"/>
	<path class="st3" d="M124.81,106.48c3.61-2.08,8.21-0.85,10.3,2.76c2.08,3.61,0.85,8.22-2.76,10.29c-3.61,2.08-8.21,0.85-10.3-2.76
		C119.97,113.16,121.2,108.56,124.81,106.48"/>
	<path class="st3" d="M136.5,85.75c3.75-2.17,8.55-0.88,10.73,2.88c2.16,3.76,0.88,8.55-2.88,10.72c-3.76,2.17-8.56,0.88-10.73-2.87
		C131.46,92.72,132.75,87.92,136.5,85.75"/>
	<path class="st3" d="M153.93,68.74c3.91-2.26,8.9-0.92,11.15,2.99c2.25,3.91,0.92,8.9-2.99,11.15c-3.91,2.25-8.9,0.92-11.15-2.99
		C148.69,75.98,150.02,70.99,153.93,68.74"/>
	<path class="st3" d="M176.03,57.15c4.06-2.34,9.24-0.95,11.58,3.1c2.34,4.06,0.95,9.24-3.1,11.58c-4.06,2.34-9.24,0.95-11.58-3.1
		C170.59,64.67,171.98,59.49,176.03,57.15"/>
	<path class="st3" d="M199.58,52.57c4.21-2.43,9.58-0.99,12.01,3.22c2.43,4.21,0.99,9.58-3.22,12.01
		c-4.21,2.43-9.58,0.99-12.01-3.22C193.93,60.37,195.37,55,199.58,52.57"/>
	<path class="st3" d="M222.95,54.74c4.36-2.52,9.92-1.02,12.44,3.33c2.51,4.36,1.02,9.93-3.33,12.44
		c-4.36,2.51-9.92,1.02-12.44-3.33C217.11,62.82,218.6,57.25,222.95,54.74"/>
	<path class="st3" d="M244.73,63.28c4.51-2.6,10.27-1.06,12.87,3.45c2.6,4.51,1.06,10.27-3.45,12.87
		c-4.51,2.6-10.27,1.06-12.87-3.45C238.69,71.64,240.23,65.88,244.73,63.28"/>
	<path class="st2" d="M64.38,276.05c1.9,0.51,3.03,2.47,2.52,4.37c-0.51,1.9-2.47,3.03-4.37,2.52c-1.9-0.51-3.03-2.47-2.52-4.37
		C60.52,276.67,62.48,275.54,64.38,276.05"/>
	<path class="st2" d="M64.48,254.92c2.12,0.57,3.37,2.74,2.8,4.85c-0.56,2.12-2.74,3.37-4.85,2.8c-2.11-0.57-3.37-2.74-2.8-4.85
		C60.2,255.61,62.37,254.36,64.48,254.92"/>
	<path class="st2" d="M64.58,233.79c2.33,0.62,3.7,3.01,3.08,5.34c-0.62,2.33-3.02,3.71-5.34,3.08c-2.32-0.62-3.7-3.01-3.08-5.34
		C59.87,234.55,62.26,233.17,64.58,233.79"/>
	<path class="st2" d="M64.69,212.66c2.54,0.68,4.04,3.29,3.36,5.82c-0.68,2.54-3.29,4.04-5.82,3.36c-2.54-0.68-4.04-3.29-3.36-5.83
		C59.54,213.49,62.15,211.99,64.69,212.66"/>
	<path class="st2" d="M64.79,191.53c2.75,0.74,4.38,3.56,3.64,6.31c-0.74,2.75-3.56,4.38-6.31,3.64c-2.75-0.74-4.38-3.56-3.64-6.31
		C59.22,192.43,62.04,190.8,64.79,191.53"/>
	<path class="st2" d="M64.89,170.4c2.96,0.8,4.72,3.84,3.92,6.8c-0.79,2.96-3.83,4.72-6.79,3.92c-2.96-0.8-4.72-3.83-3.92-6.8
		C58.89,171.37,61.93,169.61,64.89,170.4"/>
	<path class="st2" d="M65,149.27c3.17,0.85,5.05,4.11,4.2,7.28c-0.85,3.17-4.11,5.05-7.28,4.21c-3.17-0.85-5.05-4.11-4.2-7.28
		C58.57,150.31,61.83,148.43,65,149.27"/>
	<path class="st2" d="M65.1,128.14c3.38,0.91,5.39,4.38,4.48,7.77c-0.91,3.38-4.38,5.39-7.76,4.48c-3.38-0.91-5.38-4.38-4.48-7.77
		C58.24,129.24,61.72,127.24,65.1,128.14"/>
	<path class="st2" d="M65.2,107.01c3.6,0.96,5.72,4.66,4.76,8.25c-0.97,3.59-4.66,5.73-8.25,4.76c-3.59-0.96-5.72-4.66-4.76-8.25
		C57.91,108.18,61.61,106.05,65.2,107.01"/>
	<path class="st2" d="M65.3,85.88c3.8,1.02,6.06,4.93,5.04,8.74c-1.02,3.81-4.93,6.06-8.73,5.04c-3.81-1.02-6.06-4.93-5.04-8.73
		C57.59,87.12,61.5,84.86,65.3,85.88"/>
	<path class="st2" d="M65.41,64.75c4.02,1.08,6.4,5.2,5.32,9.22c-1.08,4.02-5.21,6.4-9.22,5.32c-4.02-1.07-6.4-5.21-5.32-9.22
		C57.26,66.06,61.39,63.68,65.41,64.75"/>
	<path class="st2" d="M65.51,43.62c4.23,1.14,6.74,5.48,5.6,9.71c-1.13,4.23-5.48,6.74-9.7,5.6c-4.23-1.13-6.74-5.48-5.61-9.7
		C56.94,45,61.28,42.49,65.51,43.62"/>
	<path class="st2" d="M65.61,22.49c4.44,1.19,7.07,5.75,5.88,10.19c-1.19,4.44-5.75,7.07-10.19,5.88
		c-4.44-1.19-7.07-5.76-5.88-10.19C56.61,23.94,61.17,21.31,65.61,22.49"/>
	<path class="st2" d="M65.71,0.69c4.65,1.25,7.41,6.03,6.17,10.68c-1.25,4.65-6.03,7.41-10.68,6.17c-4.65-1.25-7.41-6.03-6.16-10.68
		C56.28,2.21,61.06-0.55,65.71,0.69"/>
	<path class="st2" d="M32.66,6.76c1.3-4.87,6.3-7.75,11.16-6.44c4.86,1.3,7.75,6.3,6.44,11.16c-1.3,4.86-6.3,7.75-11.16,6.44
		C34.24,16.61,31.36,11.62,32.66,6.76"/>
	<path class="st3" d="M42.83,254.49c1.56,0.42,2.48,2.02,2.06,3.57c-0.42,1.55-2.01,2.47-3.57,2.06c-1.55-0.42-2.47-2.01-2.06-3.57
		C39.68,255,41.28,254.08,42.83,254.49"/>
	<path class="st3" d="M42.91,237.23c1.73,0.46,2.75,2.24,2.29,3.96c-0.47,1.73-2.24,2.75-3.96,2.29c-1.73-0.46-2.75-2.24-2.29-3.96
		C39.41,237.79,41.19,236.77,42.91,237.23"/>
	<path class="st3" d="M43,219.97c1.9,0.51,3.02,2.46,2.52,4.36c-0.51,1.9-2.46,3.02-4.36,2.52c-1.9-0.51-3.03-2.46-2.52-4.36
		C39.15,220.59,41.1,219.46,43,219.97"/>
	<path class="st3" d="M43.08,202.71c2.07,0.56,3.3,2.69,2.75,4.76c-0.56,2.07-2.69,3.3-4.76,2.74c-2.07-0.55-3.3-2.69-2.75-4.76
		C38.88,203.38,41.01,202.16,43.08,202.71"/>
	<path class="st3" d="M43.16,185.45c2.24,0.6,3.57,2.91,2.98,5.16c-0.6,2.24-2.91,3.57-5.15,2.97c-2.24-0.6-3.58-2.91-2.97-5.15
		C38.61,186.18,40.92,184.85,43.16,185.45"/>
	<path class="st3" d="M43.25,168.19c2.42,0.65,3.85,3.14,3.2,5.55c-0.65,2.42-3.13,3.85-5.55,3.21c-2.42-0.65-3.85-3.13-3.2-5.55
		C38.35,168.98,40.83,167.54,43.25,168.19"/>
	<path class="st3" d="M43.33,150.93c2.59,0.69,4.12,3.36,3.43,5.95c-0.69,2.59-3.36,4.13-5.94,3.43c-2.59-0.69-4.13-3.35-3.43-5.95
		C38.08,151.77,40.75,150.24,43.33,150.93"/>
	<path class="st3" d="M43.42,133.66c2.76,0.74,4.4,3.58,3.66,6.34c-0.74,2.76-3.58,4.4-6.34,3.66c-2.76-0.74-4.4-3.58-3.66-6.35
		C37.82,134.56,40.65,132.93,43.42,133.66"/>
	<path class="st3" d="M43.5,116.4c2.94,0.79,4.68,3.8,3.89,6.74c-0.79,2.93-3.8,4.68-6.74,3.89c-2.93-0.79-4.67-3.8-3.89-6.74
		C37.55,117.36,40.57,115.62,43.5,116.4"/>
	<path class="st3" d="M43.58,99.14c3.11,0.83,4.95,4.03,4.12,7.14c-0.83,3.11-4.03,4.96-7.14,4.12c-3.11-0.83-4.95-4.03-4.12-7.13
		C37.28,100.16,40.48,98.31,43.58,99.14"/>
	<path class="st3" d="M43.67,81.88c3.28,0.88,5.23,4.25,4.35,7.53c-0.88,3.28-4.25,5.23-7.53,4.35c-3.28-0.88-5.23-4.25-4.35-7.53
		C37.02,82.95,40.39,81.01,43.67,81.88"/>
	<path class="st3" d="M43.75,64.62c3.46,0.93,5.5,4.48,4.58,7.93c-0.93,3.45-4.47,5.5-7.93,4.58c-3.46-0.93-5.5-4.48-4.58-7.93
		C36.75,65.75,40.3,63.7,43.75,64.62"/>
	<path class="st3" d="M43.83,47.36c3.63,0.97,5.78,4.7,4.81,8.33c-0.97,3.63-4.7,5.78-8.33,4.81c-3.63-0.97-5.78-4.7-4.81-8.32
		C36.48,48.54,40.21,46.39,43.83,47.36"/>
	<path class="st3" d="M43.01,29.19c3.8,1.02,6.05,4.92,5.03,8.72c-1.02,3.8-4.92,6.05-8.72,5.03c-3.8-1.02-6.05-4.92-5.03-8.72
		C35.31,30.43,39.21,28.17,43.01,29.19"/>
	<path class="st3" d="M13.91,34.14c1.06-3.97,5.14-6.33,9.12-5.26c3.97,1.06,6.33,5.14,5.27,9.11c-1.06,3.98-5.15,6.33-9.12,5.27
		C15.21,42.19,12.85,38.11,13.91,34.14"/>
	<path class="st1" d="M22.76,239.38c1.27,0.34,2.03,1.65,1.68,2.92c-0.34,1.27-1.65,2.02-2.92,1.68c-1.27-0.34-2.03-1.65-1.69-2.92
		C20.18,239.8,21.49,239.04,22.76,239.38"/>
	<path class="st1" d="M22.82,225.26c1.41,0.38,2.25,1.83,1.88,3.25c-0.38,1.41-1.83,2.25-3.25,1.87c-1.41-0.38-2.25-1.83-1.87-3.24
		C19.96,225.72,21.41,224.88,22.82,225.26"/>
	<path class="st1" d="M22.89,211.13c1.55,0.42,2.48,2.02,2.06,3.57c-0.42,1.56-2.02,2.48-3.57,2.06c-1.55-0.42-2.48-2.01-2.06-3.57
		C19.74,211.64,21.34,210.72,22.89,211.13"/>
	<path class="st1" d="M22.96,197.01c1.7,0.46,2.7,2.2,2.25,3.89c-0.46,1.7-2.2,2.7-3.89,2.25c-1.69-0.46-2.7-2.2-2.25-3.89
		C19.52,197.56,21.27,196.55,22.96,197.01"/>
	<path class="st1" d="M23.03,182.88c1.84,0.49,2.93,2.38,2.44,4.22c-0.5,1.84-2.38,2.93-4.22,2.44c-1.84-0.5-2.93-2.38-2.43-4.22
		C19.3,183.48,21.19,182.39,23.03,182.88"/>
	<path class="st1" d="M23.1,168.76c1.98,0.53,3.15,2.56,2.62,4.55c-0.53,1.98-2.57,3.15-4.54,2.62c-1.98-0.53-3.15-2.56-2.62-4.54
		C19.09,169.4,21.12,168.23,23.1,168.76"/>
	<path class="st1" d="M23.17,154.63c2.12,0.57,3.38,2.75,2.81,4.87c-0.57,2.12-2.75,3.38-4.87,2.81c-2.12-0.57-3.38-2.75-2.81-4.87
		C18.87,155.32,21.05,154.06,23.17,154.63"/>
	<path class="st1" d="M23.24,140.5c2.26,0.61,3.6,2.93,3,5.19c-0.61,2.26-2.93,3.6-5.19,2.99c-2.26-0.61-3.6-2.93-3-5.19
		C18.65,141.24,20.98,139.9,23.24,140.5"/>
	<path class="st1" d="M23.3,126.38c2.4,0.64,3.83,3.11,3.18,5.51c-0.64,2.4-3.11,3.83-5.51,3.18c-2.4-0.64-3.83-3.11-3.18-5.51
		C18.43,127.16,20.9,125.74,23.3,126.38"/>
	<path class="st1" d="M23.37,112.25c2.54,0.68,4.05,3.29,3.37,5.84c-0.68,2.55-3.3,4.06-5.84,3.37c-2.55-0.68-4.05-3.3-3.37-5.84
		C18.22,113.08,20.83,111.57,23.37,112.25"/>
	<path class="st1" d="M23.44,98.13c2.68,0.72,4.28,3.48,3.56,6.16c-0.72,2.68-3.48,4.28-6.17,3.56c-2.68-0.72-4.27-3.48-3.56-6.17
		C18,99,20.76,97.41,23.44,98.13"/>
	<path class="st1" d="M23.51,84c2.83,0.76,4.5,3.66,3.75,6.49c-0.76,2.82-3.66,4.5-6.49,3.75c-2.83-0.76-4.5-3.66-3.75-6.49
		C17.78,84.92,20.68,83.25,23.51,84"/>
	<path class="st1" d="M23.58,69.1c2.97,0.8,4.73,3.84,3.93,6.81c-0.8,2.97-3.84,4.73-6.81,3.93c-2.97-0.79-4.73-3.84-3.93-6.81
		C17.56,70.06,20.61,68.3,23.58,69.1"/>
	<path class="st1" d="M23.65,53.38c3.11,0.83,4.95,4.03,4.12,7.14c-0.83,3.11-4.03,4.96-7.14,4.12c-3.11-0.83-4.95-4.03-4.12-7.14
		C17.34,54.39,20.54,52.55,23.65,53.38"/>
	<path class="st1" d="M0.21,57.43c0.87-3.25,4.21-5.18,7.46-4.31c3.25,0.87,5.18,4.21,4.31,7.46c-0.87,3.25-4.21,5.18-7.46,4.31
		C1.27,64.02-0.66,60.68,0.21,57.43"/>
	<rect x="564.21" y="11.35" class="st2" width="5.99" height="352.85"/>
	<rect x="629.87" y="11.35" class="st2" width="5.99" height="352.85"/>
	<g>
		<path class="st2" d="M583.46,339.79c0-8.31,4.74-12.58,4.74-12.58l6.2,3.8c0,0-3.43,3.76-3.43,8.4c0,6.43,4.74,9.48,9.58,9.48
			c4.98,0,10.09-3.29,10.09-9.48c0-5.07-4.13-8.92-4.13-8.92l6.01-4.23c0,0,5.63,4.74,5.63,13.52c0,10.52-7.46,17.61-17.42,17.61
			C590.97,357.39,583.46,349.88,583.46,339.79z"/>
		<path class="st2" d="M584.02,321.28v-8.22h26.53v-13.71h7.04v21.93H584.02z"/>
		<path class="st2" d="M584.02,295.6v-8.22h21.22c3.52,0,5.4-2.3,5.4-5.82s-1.88-5.82-5.4-5.82h-21.22v-8.22h21.22
			c7.56,0,12.91,5.54,12.91,13.99c0,8.54-5.35,14.08-12.91,14.08H584.02z"/>
		<path class="st2" d="M604.82,263.06v-8.22h1.78c1.27,0,2.21-0.24,2.82-0.66c0.89-0.56,1.22-1.5,1.22-2.44
			c0-1.74-1.13-2.96-3.57-2.96h-16.01v9.01h-7.04v-17.23h23.24c7.37,0,10.89,5.63,10.89,11.27c0,5.63-3.62,11.22-10.89,11.22H604.82
			z"/>
		<path class="st2" d="M600.59,234.18v-14.74h7.04v14.74H600.59z"/>
		<path class="st2" d="M584.02,212.72v-8.31l15.68-9.3c2.21-1.31,5.73-2.82,5.73-2.82v-0.09c0,0-3.62,0.38-5.73,0.38h-15.68v-8.22
			h33.57v8.26l-15.63,9.34c-2.21,1.31-5.73,2.82-5.73,2.82v0.09c0,0,3.62-0.38,5.73-0.38h15.63v8.22H584.02z"/>
		<path class="st2" d="M610.55,159.66v10.47l7.04,2.02v8.45l-33.57-11.41v-8.64l33.57-11.41v8.45L610.55,159.66z M591.67,164.92
			c0,0,3.66,0.75,5.77,1.36l6.53,1.92v-6.62l-6.53,1.88c-2.11,0.61-5.77,1.36-5.77,1.36V164.92z"/>
		<path class="st2" d="M584.02,145.39v-13.94c0-6.53,4.79-10.94,11.55-10.94c6.76,0,11.64,4.41,11.64,10.94v5.73h10.38v8.22H584.02z
			 M600.17,133.13c0-2.86-1.92-4.27-4.6-4.27c-2.68,0-4.51,1.41-4.51,4.13v4.18h9.11V133.13z"/>
		<path class="st2" d="M583.46,100.36c0-10.14,7.51-17.56,17.14-17.56c9.86,0,17.56,7.42,17.56,17.56s-7.7,17.56-17.56,17.56
			C590.97,117.92,583.46,110.5,583.46,100.36z M610.64,100.36c0-5.02-4.32-9.06-10.05-9.06c-5.49,0-9.62,4.04-9.62,9.06
			s4.13,9.06,9.62,9.06C606.32,109.42,610.64,105.38,610.64,100.36z"/>
		<path class="st2" d="M583.46,61.9c0-8.31,4.74-12.58,4.74-12.58l6.2,3.8c0,0-3.43,3.76-3.43,8.4c0,6.43,4.74,9.48,9.58,9.48
			c4.98,0,10.09-3.29,10.09-9.48c0-5.07-4.13-8.92-4.13-8.92l6.01-4.23c0,0,5.63,4.74,5.63,13.52c0,10.52-7.46,17.61-17.42,17.61
			C590.97,79.51,583.46,71.99,583.46,61.9z"/>
		<path class="st2" d="M610.55,26.59v10.47l7.04,2.02v8.45l-33.57-11.41v-8.64l33.57-11.41v8.45L610.55,26.59z M591.67,31.85
			c0,0,3.66,0.75,5.77,1.36l6.53,1.92v-6.62l-6.53,1.88c-2.11,0.61-5.77,1.36-5.77,1.36V31.85z"/>
	</g>
</g>
</svg>
