<!-- Generator: Adobe Illustrator 22.1.0, SVG Export Plug-In  -->
<svg version="1.1"
	 xmlns="http://www.w3.org/2000/svg" xmlns:xlink="http://www.w3.org/1999/xlink" xmlns:a="http://ns.adobe.com/AdobeSVGViewerExtensions/3.0/"
	 x="0px" y="0px" width="635.87px" height="413.04px" viewBox="0 0 635.87 413.04"
	 style="overflow:inherit;enable-background:new 0 0 635.87 413.04;" xml:space="preserve">
<defs>
</defs>
<path fill='#868789' d="M70.78,315.82c0,11.82-5.16,19.27-15.48,22.35l18.76,26.04H58.68l-17.12-24.09H25.67v24.09h-12.1v-71.66h26.66
	c10.93,0,18.76,1.85,23.48,5.54C68.42,301.77,70.78,307.68,70.78,315.82 M54.69,325.97c2.46-2.12,3.69-5.52,3.69-10.2
	c0-4.68-1.27-7.89-3.79-9.64c-2.53-1.74-7.04-2.61-13.53-2.61H25.67v25.63h15.07C47.58,329.14,52.23,328.08,54.69,325.97
	 M148.18,354.31c-7.25,7.07-16.2,10.61-26.86,10.61s-19.62-3.54-26.86-10.61c-7.24-7.07-10.87-15.89-10.87-26.45
	c0-10.56,3.62-19.38,10.87-26.45c7.24-7.07,16.2-10.61,26.86-10.61s19.61,3.54,26.86,10.61c7.24,7.07,10.87,15.89,10.87,26.45
	C159.05,338.42,155.43,347.24,148.18,354.31 M139.31,309.46c-4.89-5.06-10.88-7.59-17.99-7.59s-13.1,2.53-17.99,7.59
	c-4.89,5.06-7.33,11.19-7.33,18.4c0,7.21,2.44,13.34,7.33,18.4c4.89,5.06,10.88,7.58,17.99,7.58s13.1-2.53,17.99-7.58
	c4.88-5.06,7.33-11.19,7.33-18.4C146.65,320.65,144.2,314.52,139.31,309.46 M186.42,308.23l24.91,49.72h6.76l25.01-49.72v55.97h12.1
	v-71.66h-18.76l-21.63,45.01l-21.63-45.01h-18.86v71.66h12.1V308.23z M308.41,292.55l31.57,71.66h-13.32l-7.28-16.3h-34.34
	l-6.97,16.3h-12.92l31.58-71.66H308.41z M296.83,272.86h10.66L320,286.6h-9.95l-7.89-5.74l-7.89,5.74h-9.94L296.83,272.86z
	 M314.57,336.73l-12.3-27.58l-12.2,27.58H314.57z M403.65,346.06l-41.62-53.52h-12.1v71.66h12.1v-52.29l40.6,52.29h13.12v-71.66
	h-12.1V346.06z M435.64,364.2h12.1v-71.66h-12.1V364.2z M477.77,347.91l-7.17,16.3h-12.92l31.57-71.66h12.92l31.57,71.66h-12.92
	l-7.17-16.3H477.77z M508.73,336.73l-13.02-29.52l-13.02,29.52H508.73z M13.74,387.28v2.42l5.4-0.91l0.03,20.52l2.62,0l-0.03-22.94
	L13.74,387.28z M39,407.16c4.94-0.01,7.42-4.1,7.02-10.45c-1.01,2.75-3.43,4.32-6.83,4.33c-4.55,0-7.33-2.77-7.34-7.22
	c0-4.68,3.07-7.56,7.78-7.57c5.6-0.01,9,3.98,9.01,11.05c0.01,7.3-3.65,12.08-9.47,12.09c-2.09,0-4.62-0.62-6.48-1.63l1.04-2.03
	C35.23,406.63,37.2,407.16,39,407.16 M34.3,393.84c0,3.11,2.07,5.04,5.31,5.03c3.7,0,5.86-2.49,5.82-5.24
	c0.03-2.22-1.67-5.07-5.6-5.06C36.56,388.57,34.3,390.54,34.3,393.84 M54.12,387.23l0,2.42l5.4-0.91l0.03,20.52h2.62l-0.03-22.94
	L54.12,387.23z M88.03,391.94c0,2.39-1.4,4.12-3.69,5.01c2.98,0.88,4.81,2.97,4.82,5.85c0.01,4.06-3.23,6.51-8.43,6.52
	s-8.45-2.41-8.45-6.47c0-2.91,1.86-5.01,4.9-5.9c-2.39-0.91-3.83-2.68-3.84-5.1c0-3.5,2.84-5.66,7.32-5.67
	C85.21,386.18,88.03,388.34,88.03,391.94 M74.73,402.6c0,2.91,2.23,4.61,6,4.6c3.73,0,5.95-1.71,5.95-4.59
	c0-2.75-2.23-4.45-5.99-4.44C76.95,398.17,74.72,399.84,74.73,402.6 M75.6,392.12c0,2.46,1.9,3.93,5.11,3.92
	c3.21-0.01,5.07-1.48,5.07-3.93c0-2.49-1.87-3.92-5.08-3.92C77.49,388.19,75.6,389.63,75.6,392.12 M92.89,398.38l0,1.86l7.69-0.01
	l0-1.87L92.89,398.38z M116.8,392.1c0,1.51-1.3,3.63-3.3,5.66l-8.95,9.31l0,2.13l16.36-0.02l0-2.42l-13.02,0.02l7.42-7.57
	c2.52-2.62,4.21-5.28,4.21-7.43c0-3.43-2.89-5.62-7.24-5.62c-2.81,0-5.69,1.22-7.98,3.18l1.15,2c1.9-1.74,4.35-2.82,6.51-2.82
	C114.96,388.5,116.8,389.84,116.8,392.1 M141.48,397.66c0.01,7.43-3.03,11.56-8.46,11.56c-5.46,0.01-8.52-4.11-8.53-11.54
	c-0.01-7.39,3.03-11.52,8.5-11.53C138.43,386.15,141.47,390.27,141.48,397.66 M127.12,397.68c0.01,6.25,2.01,9.42,5.9,9.42
	c3.83,0,5.85-3.18,5.85-9.43c-0.01-6.25-2.04-9.36-5.87-9.35C129.1,388.32,127.11,391.43,127.12,397.68 M146.8,387.11l0,2.42
	l5.4-0.91l0.03,20.52h2.62l-0.03-22.94L146.8,387.11z M180.71,391.82c0,2.39-1.4,4.12-3.69,5.01c2.98,0.88,4.81,2.97,4.82,5.85
	c0,4.06-3.23,6.51-8.44,6.52c-5.2,0.01-8.45-2.41-8.45-6.47c0-2.91,1.86-5.01,4.9-5.9c-2.39-0.92-3.83-2.68-3.84-5.1
	c0-3.5,2.84-5.66,7.32-5.67C177.89,386.07,180.71,388.22,180.71,391.82 M167.41,402.47c0,2.92,2.23,4.62,6,4.61
	c3.73,0,5.95-1.71,5.95-4.59c0-2.75-2.23-4.45-6-4.44C169.63,398.06,167.4,399.73,167.41,402.47 M168.28,392
	c0,2.46,1.9,3.92,5.11,3.92c3.21-0.01,5.07-1.48,5.07-3.94c0-2.48-1.87-3.92-5.08-3.92C170.17,388.07,168.27,389.51,168.28,392
	 M196.34,382.41l0.04,30.63h2.03l-0.04-30.63L196.34,382.41z M221.38,388.6c1.83,0,4.25,0.55,6.32,1.89l1.11-2.33
	c-1.9-1.27-4.62-2.12-7.27-2.12c-4.74,0-7.92,2.3-7.91,5.9c0.01,8.21,12.9,4.96,12.88,11.08c0,2.22-2.06,3.57-5.36,3.57
	c-2.58,0-5.5-1.17-7.63-3.2l-1.18,2.26c2.16,2.06,5.44,3.5,8.78,3.49c4.91,0,8.28-2.46,8.27-6.26c0.02-8.31-12.87-5.18-12.87-11.14
	C216.51,389.78,218.44,388.6,221.38,388.6 M248.96,403.16l-12.47,0.02l-2.55,5.86l-2.78,0l10.25-22.92l2.72,0l10.27,22.9l-2.85,0
	L248.96,403.16z M247.91,400.74l-5.22-11.77l-5.12,11.79L247.91,400.74z M272.98,408.99l-4.82-7.33c-0.46,0.04-0.95,0.07-1.47,0.07
	l-6.09,0.01l0.01,7.27l-2.62,0l-0.03-22.91l8.71-0.01c5.73-0.01,9.04,2.8,9.04,7.68c0,3.76-1.86,6.35-5.16,7.4l5.41,7.81
	L272.98,408.99z M266.69,399.31c4.16,0,6.51-1.87,6.51-5.47c0-3.5-2.36-5.33-6.52-5.32l-6.09,0.01l0.02,10.8L266.69,399.31z
	 M298.72,391.77c0,2.68-1.6,4.62-4.25,5.18c3.3,0.49,5.24,2.64,5.24,5.78c0,3.89-3.07,6.22-8.27,6.23l-9.78,0.01l-0.03-22.91
	l9.65-0.01C295.9,386.05,298.71,388.17,298.72,391.77 M296.03,392.17c0-2.36-1.81-3.69-4.88-3.69l-6.9,0.01l0.01,7.49l6.91-0.01
	C294.24,395.97,296.04,394.59,296.03,392.17 M297.06,402.41c0-2.55-2.17-4.05-5.9-4.02l-6.91,0.01l0.01,8.15l6.91-0.01
	C294.91,406.57,297.07,405.06,297.06,402.41 M319.54,403.07l-12.47,0.02l-2.54,5.86l-2.78,0L312,386.03l2.72,0l10.27,22.89l-2.85,0
	L319.54,403.07z M318.49,400.65l-5.22-11.77l-5.12,11.79L318.49,400.65z M323.29,386.01l0,2.42l7.46-0.01l0.02,20.49l2.62,0
	l-0.03-20.49l7.49-0.01l0-2.42L323.29,386.01z M365.03,397.42c0.01,6.44-5.29,11.55-11.96,11.57c-6.71,0.01-12.02-5.09-12.03-11.54
	c-0.01-6.45,5.29-11.52,12-11.54C359.71,385.9,365.02,390.97,365.03,397.42 M343.69,397.44c0.01,5.07,4.27,9.16,9.37,9.15
	c5.1,0,9.29-4.1,9.28-9.17c-0.01-5.07-4.2-9.09-9.31-9.09C347.93,388.34,343.68,392.37,343.69,397.44 M384.81,408.84l-4.82-7.33
	c-0.46,0.04-0.95,0.07-1.47,0.07l-6.09,0.01l0.01,7.26l-2.62,0l-0.03-22.9l8.7-0.01c5.73-0.01,9.04,2.8,9.04,7.68
	c0,3.76-1.86,6.35-5.16,7.4l5.41,7.81L384.81,408.84z M378.51,399.16c4.16,0,6.51-1.87,6.51-5.47c0-3.5-2.36-5.33-6.52-5.32
	l-6.09,0.01l0.01,10.8L378.51,399.16z M393.45,385.93l0.03,22.9h2.62l-0.03-22.91L393.45,385.93z M403,385.91l0.03,22.91l2.49,0
	l-0.03-19.05l8.33,16.61h1.57l8.33-16.63l0.06,19.04l2.42,0l-0.03-22.9l-3.2,0l-8.33,16.63l-8.4-16.61L403,385.91z M445.51,378.69
	l3.34,4.21l-2.23,0l-2.36-2.97l-2.35,2.98l-2.23,0l3.34-4.23L445.51,378.69z M445.58,385.86l0.03,22.91l-2.62,0l-0.03-22.91
	L445.58,385.86z M452.52,385.85l0.03,22.91h2.49l-0.03-19.05l8.33,16.61l1.57,0l8.32-16.63l0.06,19.04l2.42,0l-0.03-22.9l-3.2,0
	l-8.33,16.63l-8.4-16.61L452.52,385.85z M500.21,393.48c0.01,5.04-3.26,7.95-8.92,7.96l-5.99,0.01l0.01,7.27l-2.62,0l-0.03-22.91
	l8.6-0.01C496.92,385.79,500.2,388.6,500.21,393.48 M497.69,393.55c0-3.5-2.39-5.33-6.52-5.32l-5.89,0.01l0.02,10.8l5.89-0.01
	C495.31,399.02,497.69,397.15,497.69,393.55 M519.57,408.67l-4.82-7.33c-0.46,0.04-0.95,0.07-1.47,0.07l-6.09,0.01l0.01,7.26
	l-2.62,0l-0.03-22.9l8.7-0.01c5.73-0.01,9.04,2.8,9.04,7.68c0,3.76-1.86,6.35-5.16,7.4l5.41,7.81L519.57,408.67z M513.27,398.99
	c4.15,0,6.51-1.87,6.51-5.47c0-3.5-2.36-5.33-6.52-5.32l-6.09,0.01l0.01,10.8L513.27,398.99z M528.21,385.75l0.03,22.9l15.97-0.02
	l0-2.42l-13.35,0.02l-0.01-7.99l11.55-0.02l0-2.39l-11.55,0.02l-0.01-7.69l12.93-0.02l0-2.42L528.21,385.75z M558.67,406.33
	c-4.35,0-7.04-2.61-7.04-7.12l-0.02-13.48l-2.62,0l0.01,13.48c0.01,5.99,3.65,9.52,9.67,9.51c5.99-0.01,9.58-3.54,9.57-9.53
	l-0.02-13.48l-2.62,0l0.02,13.48C565.64,403.7,563.02,406.33,558.67,406.33 M574.65,385.69l0.03,22.91l2.62,0l-0.02-18.59
	l13.77,18.57l2.68,0l-0.03-22.91l-2.59,0l0.03,18.62l-13.77-18.6L574.65,385.69z M615.15,402.69l-12.47,0.02l-2.55,5.86l-2.78,0
	l10.25-22.92l2.72,0l10.27,22.89l-2.85,0L615.15,402.69z M614.1,400.27l-5.22-11.77l-5.12,11.79L614.1,400.27z M238.61,379.63
	c0.17,2.58,1.96,4.09,4.4,4.09c2.44,0,4.23-1.52,4.39-4.1h-1.29c-0.4,1.49-1.39,2.42-3.11,2.42c-1.72,0-2.71-0.92-3.11-2.41
	L238.61,379.63 M308.98,379.63c0.17,2.58,1.96,4.09,4.4,4.09c2.44,0,4.23-1.52,4.39-4.1h-1.29c-0.4,1.49-1.39,2.42-3.11,2.42
	c-1.72,0-2.71-0.92-3.11-2.41L308.98,379.63 M604.65,379.63c0.17,2.58,1.96,4.09,4.4,4.09c2.44,0,4.23-1.52,4.39-4.1h-1.29
	c-0.4,1.49-1.39,2.42-3.11,2.42c-1.72,0-2.71-0.92-3.11-2.41L604.65,379.63 M403.53,196.87c0.12,1.13,1.14,1.96,2.28,1.84
	c1.13-0.12,1.96-1.14,1.84-2.28c-0.13-1.14-1.14-1.96-2.28-1.84C404.23,194.71,403.41,195.73,403.53,196.87 M385.34,189.93
	c0.14,1.31,1.31,2.26,2.63,2.12c1.31-0.14,2.26-1.32,2.12-2.63c-0.14-1.31-1.31-2.26-2.63-2.12
	C386.14,187.45,385.19,188.62,385.34,189.93 M370.5,177.7c0.16,1.48,1.49,2.56,2.98,2.4c1.49-0.16,2.56-1.49,2.4-2.98
	c-0.16-1.49-1.49-2.56-2.98-2.4C371.41,174.88,370.34,176.22,370.5,177.7 M359.96,161.46c0.17,1.66,1.66,2.87,3.33,2.69
	c1.66-0.18,2.87-1.67,2.69-3.33c-0.18-1.66-1.67-2.87-3.33-2.68C360.98,158.31,359.78,159.8,359.96,161.46 M354.86,142.14
	c0.19,1.84,1.84,3.17,3.68,2.97c1.83-0.2,3.16-1.84,2.97-3.68c-0.2-1.83-1.84-3.17-3.68-2.97
	C355.99,138.66,354.66,140.3,354.86,142.14 M356.04,122.53c0.21,2.01,2.02,3.47,4.03,3.25c2.01-0.22,3.46-2.02,3.25-4.03
	c-0.22-2.01-2.02-3.47-4.03-3.25C357.29,118.71,355.83,120.52,356.04,122.53 M363,104.94c0.23,2.18,2.19,3.77,4.38,3.54
	c2.18-0.23,3.77-2.19,3.54-4.38c-0.24-2.19-2.2-3.77-4.38-3.53C364.35,100.79,362.77,102.75,363,104.94 M374.84,90.48
	c0.25,2.36,2.36,4.07,4.73,3.82c2.36-0.25,4.07-2.37,3.82-4.73c-0.25-2.36-2.37-4.07-4.73-3.82C376.29,86,374.58,88.12,374.84,90.48
	 M390.65,80.27c0.27,2.53,2.54,4.37,5.08,4.1c2.53-0.27,4.37-2.55,4.1-5.08c-0.27-2.54-2.55-4.37-5.08-4.1
	C392.21,75.46,390.38,77.73,390.65,80.27 M409.55,75.4c0.29,2.71,2.72,4.67,5.43,4.39c2.71-0.29,4.67-2.72,4.38-5.43
	c-0.29-2.71-2.72-4.67-5.43-4.38C411.22,70.26,409.26,72.69,409.55,75.4 M428.91,76.79c0.3,2.88,2.89,4.97,5.78,4.67
	c2.88-0.31,4.97-2.89,4.67-5.78c-0.31-2.89-2.9-4.97-5.78-4.67C430.69,71.32,428.6,73.91,428.91,76.79 M446.28,83.97
	c0.32,3.06,3.07,5.28,6.13,4.95c3.06-0.33,5.27-3.07,4.95-6.13c-0.32-3.06-3.07-5.28-6.13-4.95
	C448.17,78.17,445.95,80.91,446.28,83.97 M460.54,96.04c0.34,3.24,3.24,5.58,6.48,5.23c3.24-0.35,5.58-3.24,5.23-6.48
	c-0.35-3.24-3.24-5.58-6.48-5.23C462.54,89.91,460.19,92.81,460.54,96.04 M470.59,112.12c0.36,3.41,3.42,5.88,6.83,5.51
	c3.41-0.36,5.88-3.42,5.52-6.83c-0.36-3.41-3.42-5.88-6.83-5.52C472.69,105.66,470.23,108.71,470.59,112.12 M475.32,131.31
	c0.38,3.58,3.59,6.18,7.18,5.8c3.58-0.38,6.18-3.59,5.8-7.18c-0.38-3.58-3.59-6.18-7.18-5.8
	C477.53,124.51,474.93,127.72,475.32,131.31 M473.8,151.06c0.4,3.76,3.77,6.48,7.53,6.08c3.76-0.4,6.48-3.77,6.08-7.53
	c-0.4-3.77-3.77-6.48-7.53-6.08C476.12,143.93,473.4,147.3,473.8,151.06 M466.47,168.84c0.42,3.93,3.94,6.78,7.88,6.36
	c3.93-0.42,6.78-3.95,6.36-7.88c-0.42-3.94-3.95-6.78-7.88-6.36C468.9,161.38,466.05,164.9,466.47,168.84 M454.22,183.54
	c0.43,4.11,4.12,7.08,8.23,6.65c4.1-0.44,7.08-4.12,6.65-8.23c-0.44-4.11-4.13-7.09-8.23-6.65
	C456.76,175.74,453.78,179.43,454.22,183.54 M437.94,194.05c0.45,4.29,4.29,7.38,8.58,6.93c4.28-0.46,7.38-4.29,6.93-8.58
	c-0.46-4.29-4.3-7.39-8.58-6.93C440.59,185.93,437.49,189.77,437.94,194.05 M418.54,199.27c0.47,4.46,4.47,7.69,8.93,7.21
	c4.46-0.47,7.69-4.47,7.21-8.93c-0.48-4.46-4.48-7.68-8.93-7.21C421.3,190.81,418.07,194.81,418.54,199.27 M327.66,90.65
	c2,0.88,4.34-0.02,5.23-2.02c0.89-2-0.02-4.34-2.02-5.23c-2-0.89-4.34,0.01-5.23,2.02C324.75,87.42,325.65,89.76,327.66,90.65
	 M345.85,66.43c2.2,0.97,4.78-0.02,5.75-2.22c0.98-2.2-0.02-4.77-2.22-5.75c-2.2-0.98-4.77,0.01-5.75,2.22
	C342.66,62.88,343.65,65.45,345.85,66.43 M369.56,48.86c2.4,1.06,5.21-0.02,6.27-2.42c1.07-2.4-0.02-5.21-2.42-6.28
	c-2.4-1.06-5.21,0.02-6.27,2.42C366.08,44.99,367.16,47.8,369.56,48.86 M397.07,38.62c2.6,1.15,5.64-0.02,6.79-2.62
	c1.15-2.6-0.02-5.65-2.62-6.8c-2.6-1.15-5.64,0.02-6.8,2.62C393.3,34.43,394.47,37.47,397.07,38.62 M426.66,36.37
	c2.8,1.24,6.07-0.02,7.31-2.82c1.25-2.8-0.02-6.08-2.82-7.32c-2.8-1.24-6.08,0.02-7.32,2.82C422.59,31.85,423.86,35.12,426.66,36.37
	 M456.6,42.76c3,1.33,6.51-0.02,7.84-3.02c1.33-3-0.02-6.51-3.02-7.84c-3-1.33-6.51,0.02-7.84,3.02
	C452.24,37.91,453.59,41.43,456.6,42.76 M484.15,57.8c3.2,1.42,6.94-0.02,8.36-3.23c1.42-3.2-0.02-6.95-3.23-8.36
	c-3.2-1.42-6.94,0.02-8.36,3.22C479.5,52.64,480.95,56.39,484.15,57.8 M505.52,79.33c3.4,1.51,7.38-0.03,8.89-3.42
	c1.51-3.4-0.03-7.38-3.43-8.89c-3.4-1.51-7.38,0.02-8.89,3.42C500.59,73.84,502.12,77.82,505.52,79.33 M519.93,105.56
	c3.6,1.59,7.81-0.03,9.41-3.63c1.6-3.6-0.03-7.81-3.63-9.41c-3.6-1.6-7.81,0.03-9.41,3.63C514.7,99.75,516.32,103.96,519.93,105.56
	 M526.7,134.78c3.8,1.69,8.25-0.03,9.93-3.83c1.68-3.8-0.03-8.25-3.83-9.93c-3.8-1.69-8.25,0.03-9.94,3.83
	C521.18,128.65,522.9,133.09,526.7,134.78 M525.18,165.27c4,1.77,8.68-0.03,10.46-4.03c1.77-4-0.03-8.69-4.03-10.46
	c-4-1.77-8.68,0.03-10.45,4.03C519.37,158.81,521.17,163.49,525.18,165.27 M514.74,195.22c4.2,1.86,9.11-0.03,10.98-4.23
	c1.86-4.2-0.03-9.12-4.23-10.98c-4.2-1.86-9.11,0.03-10.98,4.23C508.65,188.45,510.54,193.36,514.74,195.22 M496.61,220.55
	c4.4,1.95,9.55-0.03,11.5-4.43c1.95-4.4-0.03-9.55-4.43-11.5c-4.4-1.95-9.55,0.04-11.5,4.44
	C490.22,213.45,492.2,218.59,496.61,220.55 M472.86,239.25c4.6,2.04,9.98-0.04,12.02-4.64c2.04-4.6-0.03-9.99-4.64-12.02
	c-4.6-2.04-9.98,0.04-12.02,4.64C466.18,231.83,468.26,237.21,472.86,239.25 M445.21,250.67c4.8,2.13,10.41-0.04,12.54-4.84
	c2.13-4.8-0.03-10.42-4.84-12.55c-4.8-2.13-10.41,0.04-12.55,4.84C438.24,242.93,440.4,248.55,445.21,250.67 M415.38,254.15
	c5,2.22,10.85-0.04,13.07-5.04c2.22-5-0.04-10.85-5.04-13.07c-5-2.22-10.85,0.04-13.07,5.04
	C408.12,246.09,410.37,251.93,415.38,254.15 M385.09,249.02c5.2,2.31,11.28-0.04,13.59-5.24c2.31-5.2-0.04-11.29-5.24-13.59
	c-5.2-2.31-11.29,0.04-13.59,5.24C377.54,240.63,379.89,246.72,385.09,249.02 M356.84,235.1c5.4,2.39,11.72-0.04,14.11-5.44
	c2.4-5.4-0.04-11.72-5.44-14.12c-5.4-2.4-11.72,0.04-14.12,5.44C349,226.39,351.44,232.71,356.84,235.1 M334.67,214.5
	c5.6,2.48,12.15-0.05,14.64-5.65c2.48-5.6-0.04-12.16-5.64-14.64c-5.6-2.48-12.15,0.05-14.64,5.64
	C326.54,205.46,329.07,212.01,334.67,214.5 M319.52,189.05c5.8,2.57,12.58-0.05,15.16-5.85c2.58-5.8-0.04-12.59-5.85-15.16
	c-5.8-2.57-12.59,0.05-15.16,5.85C311.1,179.69,313.71,186.47,319.52,189.05 M312.04,160.49c6,2.66,13.02-0.05,15.68-6.05
	c2.66-6-0.04-13.03-6.05-15.69c-6-2.66-13.02,0.05-15.68,6.05C303.33,150.81,306.03,157.83,312.04,160.49 M351.84,184.99
	c1.45-0.56,2.18-2.2,1.62-3.65c-0.56-1.46-2.2-2.18-3.65-1.62c-1.46,0.56-2.18,2.19-1.62,3.65
	C348.75,184.83,350.38,185.55,351.84,184.99 M342.12,163.03c1.61-0.62,2.42-2.44,1.8-4.06c-0.62-1.62-2.44-2.42-4.06-1.8
	c-1.62,0.62-2.42,2.44-1.8,4.06C338.69,162.85,340.5,163.66,342.12,163.03 M338.74,139.26c1.78-0.69,2.67-2.68,1.98-4.46
	c-0.68-1.78-2.68-2.67-4.46-1.98c-1.78,0.68-2.67,2.68-1.98,4.47C334.96,139.06,336.96,139.95,338.74,139.26 M342.19,116.13
	c1.94-0.75,2.91-2.93,2.16-4.87c-0.75-1.94-2.93-2.91-4.87-2.16c-1.94,0.75-2.91,2.93-2.16,4.87
	C338.07,115.91,340.25,116.88,342.19,116.13 M351.87,94.98c2.1-0.81,3.15-3.17,2.34-5.27c-0.82-2.11-3.18-3.15-5.28-2.34
	c-2.1,0.81-3.15,3.17-2.34,5.28C347.4,94.74,349.76,95.79,351.87,94.98 M367.18,77.13c2.26-0.88,3.39-3.42,2.52-5.68
	c-0.87-2.27-3.42-3.4-5.68-2.52c-2.26,0.88-3.4,3.42-2.52,5.69C362.37,76.87,364.92,78.01,367.18,77.13 M387.54,63.93
	c2.42-0.94,3.64-3.66,2.7-6.09c-0.93-2.43-3.66-3.64-6.09-2.7c-2.43,0.93-3.64,3.66-2.7,6.09
	C382.39,63.66,385.11,64.87,387.54,63.93 M411.42,56.93c2.59-1,3.88-3.91,2.88-6.5c-1-2.59-3.91-3.88-6.49-2.88
	c-2.59,1-3.88,3.9-2.88,6.5C405.92,56.64,408.83,57.93,411.42,56.93 M435.46,57.01c2.75-1.06,4.12-4.15,3.06-6.9
	c-1.06-2.75-4.15-4.12-6.9-3.06c-2.75,1.06-4.12,4.15-3.06,6.9C429.62,56.7,432.71,58.07,435.46,57.01 M458.23,63.64
	c2.91-1.12,4.36-4.39,3.24-7.31c-1.13-2.91-4.39-4.36-7.31-3.24c-2.91,1.12-4.36,4.39-3.24,7.31
	C452.05,63.31,455.32,64.76,458.23,63.64 M478.4,76.22c3.07-1.19,4.6-4.64,3.42-7.71c-1.18-3.08-4.64-4.61-7.71-3.43
	c-3.07,1.19-4.61,4.64-3.42,7.72C471.88,75.87,475.33,77.4,478.4,76.22 M494.64,94.16c3.23-1.25,4.84-4.88,3.6-8.12
	c-1.25-3.24-4.88-4.85-8.12-3.6c-3.23,1.24-4.85,4.88-3.6,8.12C487.77,93.79,491.4,95.41,494.64,94.16 M505.57,116.79
	c3.39-1.31,5.09-5.13,3.78-8.52c-1.31-3.4-5.13-5.1-8.53-3.78c-3.4,1.31-5.09,5.13-3.78,8.53
	C498.36,116.41,502.17,118.1,505.57,116.79 M509.6,141.15c3.56-1.37,5.33-5.37,3.96-8.93c-1.37-3.56-5.37-5.34-8.93-3.96
	c-3.56,1.37-5.33,5.37-3.96,8.93C502.05,140.75,506.04,142.52,509.6,141.15 M506.78,164.94c3.72-1.44,5.57-5.61,4.14-9.34
	c-1.44-3.72-5.62-5.58-9.34-4.14c-3.72,1.43-5.58,5.62-4.14,9.34C498.88,164.52,503.05,166.38,506.78,164.94 M497.68,186.84
	c3.88-1.5,5.82-5.86,4.32-9.74c-1.49-3.88-5.86-5.82-9.74-4.32c-3.88,1.5-5.81,5.86-4.32,9.74
	C489.44,186.4,493.8,188.34,497.68,186.84 M482.91,205.5c4.04-1.56,6.06-6.1,4.5-10.15c-1.56-4.05-6.11-6.06-10.15-4.5
	c-4.05,1.56-6.06,6.1-4.5,10.15C474.33,205.05,478.87,207.06,482.91,205.5 M463.06,219.61c4.2-1.62,6.3-6.35,4.68-10.55
	c-1.62-4.21-6.35-6.3-10.56-4.68c-4.21,1.62-6.3,6.35-4.68,10.55C454.13,219.13,458.86,221.23,463.06,219.61 M439.43,227.63
	c4.37-1.69,6.54-6.59,4.86-10.96c-1.68-4.37-6.59-6.55-10.96-4.86s-6.55,6.59-4.86,10.96C430.16,227.14,435.06,229.32,439.43,227.63
	 M415.46,228.51c4.53-1.75,6.78-6.83,5.04-11.37c-1.75-4.53-6.83-6.79-11.37-5.04c-4.53,1.75-6.79,6.84-5.04,11.36
	C405.84,228,410.93,230.26,415.46,228.51 M392.7,222.74c4.69-1.81,7.03-7.08,5.22-11.77c-1.81-4.69-7.08-7.03-11.78-5.22
	c-4.69,1.81-7.03,7.08-5.22,11.77C382.74,222.21,388.01,224.55,392.7,222.74 M372.51,210.93c4.85-1.87,7.27-7.32,5.4-12.18
	c-1.87-4.86-7.32-7.28-12.18-5.4c-4.85,1.87-7.27,7.33-5.4,12.18C362.2,210.38,367.65,212.8,372.51,210.93 M216.27,81.97
	c-0.29-1.1-1.43-1.76-2.54-1.46c-1.1,0.3-1.76,1.43-1.46,2.54c0.3,1.1,1.43,1.76,2.54,1.46C215.91,84.21,216.56,83.08,216.27,81.97
	 M235.32,86c-0.34-1.27-1.65-2.03-2.92-1.69c-1.27,0.35-2.03,1.65-1.69,2.93c0.35,1.27,1.65,2.03,2.92,1.69
	C234.9,88.59,235.66,87.28,235.32,86 M251.87,95.79c-0.39-1.44-1.87-2.3-3.32-1.91c-1.44,0.39-2.3,1.87-1.92,3.32
	c0.39,1.44,1.87,2.3,3.32,1.91C251.4,98.72,252.26,97.23,251.87,95.79 M264.79,110.2c-0.43-1.61-2.09-2.57-3.7-2.14
	c-1.61,0.43-2.57,2.09-2.14,3.71c0.43,1.61,2.09,2.57,3.7,2.14C264.27,113.47,265.23,111.82,264.79,110.2 M272.84,128.5
	c-0.48-1.78-2.31-2.84-4.1-2.36c-1.78,0.48-2.84,2.31-2.36,4.09c0.48,1.79,2.31,2.84,4.09,2.36
	C272.26,132.12,273.32,130.28,272.84,128.5 M274.7,148.06c-0.52-1.95-2.53-3.11-4.49-2.59c-1.95,0.53-3.11,2.53-2.59,4.49
	c0.53,1.95,2.53,3.11,4.48,2.59C274.07,152.02,275.22,150.01,274.7,148.06 M270.55,166.51c-0.57-2.12-2.75-3.39-4.88-2.81
	c-2.12,0.57-3.38,2.75-2.81,4.87c0.57,2.13,2.75,3.39,4.88,2.81C269.86,170.82,271.12,168.64,270.55,166.51 M261.1,182.63
	c-0.61-2.29-2.97-3.65-5.26-3.04c-2.29,0.62-3.65,2.97-3.04,5.27c0.62,2.29,2.97,3.65,5.26,3.04
	C260.36,187.28,261.71,184.92,261.1,182.63 M247.06,195.17c-0.66-2.46-3.19-3.92-5.66-3.26c-2.46,0.66-3.92,3.19-3.26,5.65
	c0.66,2.47,3.19,3.93,5.65,3.26C246.26,200.16,247.72,197.63,247.06,195.17 M229.15,202.91c-0.7-2.63-3.41-4.2-6.05-3.49
	c-2.63,0.71-4.19,3.41-3.49,6.04c0.71,2.63,3.41,4.2,6.04,3.49C228.29,208.24,229.86,205.54,229.15,202.91 M209.8,204.53
	c-0.75-2.8-3.63-4.46-6.44-3.71c-2.8,0.75-4.46,3.63-3.71,6.43c0.75,2.8,3.63,4.46,6.43,3.72
	C208.89,210.22,210.55,207.34,209.8,204.53 M191.53,200.13c-0.79-2.97-3.85-4.74-6.82-3.94c-2.97,0.8-4.74,3.85-3.94,6.82
	c0.8,2.97,3.85,4.74,6.82,3.94C190.57,206.16,192.33,203.11,191.53,200.13 M175.57,190.42c-0.84-3.14-4.07-5.01-7.22-4.16
	c-3.14,0.84-5.01,4.07-4.16,7.21c0.84,3.14,4.07,5.01,7.21,4.17C174.55,196.78,176.41,193.56,175.57,190.42 M163.15,176.09
	c-0.88-3.31-4.29-5.28-7.6-4.39c-3.31,0.89-5.28,4.29-4.39,7.6c0.89,3.31,4.29,5.28,7.6,4.39
	C162.07,182.8,164.04,179.4,163.15,176.09 M155.51,157.87c-0.93-3.48-4.51-5.55-7.99-4.61c-3.48,0.93-5.55,4.51-4.61,7.99
	c0.93,3.48,4.51,5.55,7.99,4.62C154.38,164.93,156.44,161.35,155.51,157.87 M153.95,138.12c-0.98-3.65-4.73-5.82-8.39-4.84
	c-3.65,0.98-5.82,4.73-4.84,8.38c0.98,3.66,4.73,5.82,8.38,4.84C152.76,145.53,154.93,141.78,153.95,138.12 M158.44,119.42
	c-1.02-3.82-4.95-6.09-8.77-5.06c-3.82,1.02-6.09,4.95-5.07,8.77c1.02,3.82,4.95,6.09,8.77,5.06
	C157.19,127.17,159.46,123.24,158.44,119.42 M168.26,103c-1.06-3.99-5.17-6.36-9.16-5.29c-3.99,1.07-6.36,5.17-5.29,9.16
	c1.07,4,5.17,6.36,9.17,5.29C166.96,111.09,169.33,106.99,168.26,103 M182.71,90.09c-1.11-4.16-5.39-6.63-9.55-5.51
	c-4.16,1.11-6.63,5.39-5.52,9.55c1.12,4.17,5.4,6.63,9.55,5.52C181.35,98.52,183.82,94.25,182.71,90.09 M201.06,81.93
	c-1.16-4.33-5.61-6.9-9.94-5.74c-4.33,1.16-6.9,5.61-5.74,9.94c1.16,4.33,5.61,6.9,9.94,5.74
	C199.65,90.71,202.22,86.26,201.06,81.93 M307.69,175.15c-2.11-0.57-4.29,0.69-4.85,2.8c-0.57,2.11,0.69,4.29,2.8,4.85
	c2.11,0.57,4.29-0.69,4.85-2.8C311.06,177.89,309.8,175.72,307.69,175.15 M293.46,201.9c-2.32-0.62-4.72,0.76-5.34,3.08
	c-0.62,2.32,0.76,4.71,3.08,5.34c2.32,0.62,4.71-0.75,5.34-3.08C297.17,204.91,295.79,202.52,293.46,201.9 M272.76,222.93
	c-2.54-0.68-5.14,0.83-5.82,3.36c-0.68,2.54,0.82,5.15,3.36,5.82c2.54,0.68,5.14-0.82,5.82-3.36
	C276.8,226.21,275.3,223.61,272.76,222.93 M247.17,237.31c-2.75-0.73-5.57,0.9-6.31,3.64c-0.74,2.75,0.89,5.57,3.64,6.31
	c2.74,0.74,5.57-0.89,6.31-3.64C251.55,240.87,249.92,238.04,247.17,237.31 M218.29,244.12c-2.96-0.79-6,0.97-6.79,3.92
	c-0.79,2.96,0.96,6,3.92,6.8c2.96,0.79,6-0.96,6.79-3.92C223.01,247.96,221.25,244.92,218.29,244.12 M187.73,242.45
	c-3.17-0.85-6.43,1.03-7.28,4.2c-0.85,3.17,1.03,6.43,4.2,7.28c3.17,0.85,6.43-1.03,7.28-4.21
	C192.78,246.56,190.9,243.3,187.73,242.45 M158.18,231.85c-3.38-0.9-6.86,1.1-7.76,4.48c-0.9,3.38,1.1,6.86,4.48,7.76
	c3.38,0.9,6.86-1.1,7.76-4.48C163.57,236.23,161.56,232.76,158.18,231.85 M133.72,213.9c-3.59-0.96-7.29,1.17-8.25,4.76
	c-0.96,3.59,1.17,7.29,4.76,8.25c3.59,0.96,7.29-1.17,8.25-4.76C139.45,218.56,137.32,214.87,133.72,213.9 M115.43,190.22
	c-3.81-1.02-7.72,1.24-8.74,5.04c-1.02,3.8,1.24,7.72,5.04,8.73c3.8,1.02,7.71-1.24,8.73-5.04
	C121.49,195.15,119.23,191.24,115.43,190.22 M104.21,162.4c-4.02-1.08-8.14,1.31-9.22,5.32c-1.08,4.02,1.3,8.14,5.32,9.22
	c4.01,1.08,8.14-1.31,9.22-5.32C110.61,167.61,108.23,163.48,104.21,162.4 M100.99,132.04c-4.23-1.13-8.57,1.38-9.7,5.61
	c-1.13,4.23,1.38,8.57,5.61,9.7c4.22,1.13,8.57-1.38,9.7-5.6C107.72,137.52,105.22,133.18,100.99,132.04 M106.65,100.84
	c-4.44-1.19-9,1.45-10.19,5.88c-1.19,4.44,1.44,9,5.88,10.19c4.44,1.19,9-1.45,10.19-5.88C113.73,106.59,111.1,102.03,106.65,100.84
	 M120.64,73.01c-4.65-1.24-9.43,1.51-10.67,6.17c-1.25,4.65,1.51,9.43,6.16,10.68c4.65,1.24,9.43-1.51,10.68-6.17
	C128.06,79.03,125.3,74.26,120.64,73.01 M141.21,50.85c-4.86-1.3-9.85,1.58-11.16,6.44c-1.3,4.86,1.58,9.86,6.44,11.16
	c4.86,1.3,9.86-1.59,11.16-6.44C148.95,57.15,146.07,52.15,141.21,50.85 M166.75,35.28c-5.07-1.36-10.28,1.65-11.64,6.73
	c-1.36,5.07,1.65,10.29,6.72,11.65c5.07,1.36,10.29-1.65,11.65-6.72C174.84,41.85,171.83,36.64,166.75,35.28 M195.68,27.22
	c-5.29-1.41-10.71,1.72-12.13,7c-1.42,5.28,1.72,10.72,7.01,12.13c5.28,1.42,10.71-1.72,12.13-7
	C204.1,34.06,200.97,28.64,195.68,27.22 M226.4,27.59c-5.5-1.47-11.14,1.79-12.62,7.29s1.79,11.14,7.29,12.62
	c5.5,1.47,11.14-1.79,12.62-7.28C235.16,34.71,231.9,29.06,226.4,27.59 M256.47,36.97c-5.71-1.53-11.57,1.86-13.1,7.57
	c-1.53,5.71,1.86,11.57,7.57,13.1c5.71,1.53,11.57-1.86,13.1-7.56C265.56,44.36,262.18,38.5,256.47,36.97 M281.56,53.89
	c-5.92-1.58-12,1.93-13.59,7.85c-1.59,5.92,1.92,12,7.84,13.59c5.92,1.59,12-1.93,13.59-7.84
	C290.99,61.56,287.48,55.48,281.56,53.89 M300.48,76.68c-6.13-1.64-12.43,2-14.07,8.13c-1.64,6.13,1.99,12.43,8.13,14.08
	c6.13,1.64,12.42-2,14.07-8.13C310.25,84.62,306.61,78.32,300.48,76.68 M312.29,103.73c-6.34-1.7-12.85,2.06-14.56,8.4
	c-1.7,6.34,2.06,12.86,8.41,14.56c6.34,1.7,12.86-2.07,14.56-8.4C322.4,111.95,318.63,105.43,312.29,103.73 M269.17,85.69
	c-1.35,0.78-1.81,2.51-1.03,3.86c0.78,1.35,2.51,1.82,3.86,1.04c1.35-0.78,1.82-2.51,1.04-3.86
	C272.25,85.38,270.53,84.91,269.17,85.69 M282.18,105.88c-1.5,0.87-2.02,2.79-1.15,4.29c0.86,1.5,2.79,2.02,4.29,1.15
	c1.5-0.87,2.02-2.79,1.15-4.29C285.6,105.53,283.68,105.01,282.18,105.88 M289.2,128.84c-1.65,0.95-2.22,3.07-1.26,4.72
	c0.95,1.65,3.06,2.22,4.72,1.26c1.65-0.95,2.22-3.07,1.26-4.72C292.96,128.45,290.85,127.89,289.2,128.84 M289.38,152.23
	c-1.8,1.04-2.42,3.35-1.38,5.15c1.04,1.8,3.35,2.42,5.15,1.38c1.81-1.04,2.42-3.34,1.38-5.15
	C293.49,151.81,291.18,151.19,289.38,152.23 M283.1,174.63c-1.95,1.13-2.62,3.62-1.49,5.58c1.12,1.95,3.62,2.62,5.57,1.5
	c1.95-1.12,2.62-3.62,1.5-5.58C287.55,174.17,285.05,173.5,283.1,174.63 M270.73,194.63c-2.1,1.21-2.82,3.9-1.61,6
	c1.21,2.1,3.9,2.83,6,1.61c2.1-1.21,2.82-3.9,1.61-6.01C275.52,194.14,272.84,193.42,270.73,194.63 M252.66,210.83
	c-2.25,1.3-3.03,4.18-1.73,6.44c1.3,2.25,4.18,3.02,6.43,1.72c2.25-1.3,3.03-4.18,1.73-6.43
	C257.8,210.3,254.92,209.52,252.66,210.83 M230.17,221.45c-2.4,1.39-3.22,4.46-1.84,6.86c1.39,2.4,4.46,3.23,6.86,1.84
	c2.4-1.39,3.23-4.46,1.84-6.86C235.64,220.88,232.57,220.06,230.17,221.45 M206.4,225.09c-2.55,1.48-3.43,4.74-1.95,7.29
	c1.48,2.55,4.74,3.43,7.29,1.95c2.55-1.47,3.43-4.74,1.95-7.29C212.22,224.49,208.96,223.62,206.4,225.09 M182.88,222.07
	c-2.7,1.56-3.63,5.02-2.07,7.72c1.56,2.7,5.01,3.63,7.72,2.07c2.7-1.56,3.63-5.02,2.07-7.72
	C189.04,221.44,185.58,220.51,182.88,222.07 M161,212.77c-2.85,1.65-3.83,5.3-2.18,8.15c1.65,2.86,5.3,3.84,8.15,2.19
	c2.85-1.65,3.83-5.3,2.18-8.15C167.5,212.1,163.85,211.12,161,212.77 M142.18,197.56c-3,1.73-4.03,5.58-2.3,8.58
	c1.73,3,5.58,4.03,8.58,2.3c3-1.73,4.03-5.57,2.3-8.58C149.02,196.86,145.19,195.83,142.18,197.56 M127.87,176.9
	c-3.15,1.82-4.23,5.85-2.41,9.01c1.82,3.16,5.85,4.24,9.01,2.42c3.15-1.82,4.23-5.85,2.41-9.01
	C135.05,176.15,131.02,175.07,127.87,176.9 M120.11,153.46c-3.3,1.91-4.44,6.13-2.53,9.44c1.91,3.3,6.14,4.44,9.44,2.53
	c3.3-1.91,4.44-6.13,2.53-9.44C127.64,152.69,123.42,151.55,120.11,153.46 M119.22,129.52c-3.45,1.99-4.64,6.41-2.64,9.87
	c2,3.46,6.41,4.64,9.87,2.64c3.46-1.99,4.64-6.41,2.64-9.86C127.09,128.71,122.67,127.52,119.22,129.52 M124.81,106.48
	c-3.6,2.08-4.84,6.69-2.76,10.29c2.08,3.61,6.69,4.84,10.3,2.76c3.61-2.08,4.84-6.69,2.76-10.29
	C133.02,105.63,128.41,104.39,124.81,106.48 M136.5,85.75c-3.75,2.17-5.04,6.97-2.88,10.73c2.17,3.75,6.97,5.04,10.73,2.87
	c3.75-2.17,5.04-6.97,2.88-10.72C145.06,84.86,140.26,83.58,136.5,85.75 M153.93,68.74c-3.91,2.25-5.24,7.25-2.99,11.15
	c2.25,3.9,7.25,5.24,11.15,2.99c3.9-2.25,5.24-7.25,2.99-11.15C162.82,67.82,157.83,66.48,153.93,68.74 M176.03,57.15
	c-4.05,2.34-5.44,7.52-3.1,11.58c2.34,4.06,7.53,5.45,11.58,3.1c4.06-2.34,5.44-7.53,3.1-11.58
	C185.27,56.19,180.09,54.8,176.03,57.15 M199.58,52.57c-4.2,2.43-5.64,7.81-3.22,12.01c2.43,4.21,7.8,5.65,12.01,3.22
	c4.21-2.43,5.64-7.8,3.22-12.01C209.16,51.58,203.78,50.14,199.58,52.57 M222.95,54.74c-4.36,2.52-5.85,8.08-3.33,12.44
	c2.52,4.36,8.08,5.85,12.44,3.33c4.35-2.51,5.85-8.09,3.33-12.44C232.88,53.71,227.31,52.22,222.95,54.74 M244.73,63.28
	c-4.51,2.6-6.05,8.36-3.45,12.87c2.6,4.51,8.36,6.05,12.87,3.45c4.5-2.6,6.05-8.36,3.45-12.87C255,62.22,249.24,60.67,244.73,63.28
	 M64.38,276.05c-1.9-0.51-3.86,0.62-4.36,2.52c-0.51,1.9,0.62,3.86,2.52,4.37c1.9,0.51,3.86-0.62,4.37-2.52
	C67.41,278.52,66.28,276.56,64.38,276.05 M64.48,254.92c-2.11-0.57-4.28,0.69-4.85,2.8c-0.57,2.11,0.69,4.29,2.8,4.85
	c2.11,0.57,4.29-0.68,4.85-2.8C67.85,257.66,66.6,255.49,64.48,254.92 M64.58,233.79c-2.32-0.62-4.72,0.76-5.34,3.08
	c-0.62,2.32,0.76,4.71,3.08,5.34c2.32,0.62,4.72-0.75,5.34-3.08C68.29,236.81,66.91,234.42,64.58,233.79 M64.69,212.66
	c-2.54-0.68-5.14,0.83-5.82,3.36c-0.68,2.54,0.82,5.15,3.36,5.83c2.54,0.68,5.14-0.83,5.82-3.36
	C68.73,215.95,67.23,213.34,64.69,212.66 M64.79,191.53c-2.75-0.73-5.57,0.9-6.31,3.64c-0.74,2.75,0.89,5.57,3.64,6.31
	c2.74,0.74,5.57-0.89,6.31-3.64C69.17,195.09,67.54,192.27,64.79,191.53 M64.89,170.4c-2.96-0.79-6,0.97-6.79,3.92
	c-0.79,2.96,0.96,6,3.92,6.8c2.96,0.79,6-0.96,6.79-3.92C69.61,174.24,67.85,171.2,64.89,170.4 M65,149.27
	c-3.17-0.85-6.43,1.03-7.28,4.2c-0.85,3.17,1.03,6.43,4.2,7.28c3.17,0.85,6.43-1.03,7.28-4.21C70.05,153.38,68.17,150.12,65,149.27
	 M65.1,128.14c-3.38-0.9-6.86,1.1-7.76,4.48c-0.9,3.38,1.1,6.86,4.48,7.77c3.38,0.9,6.86-1.1,7.76-4.48
	C70.49,132.52,68.48,129.05,65.1,128.14 M65.2,107.01c-3.59-0.96-7.28,1.17-8.25,4.76c-0.96,3.59,1.17,7.29,4.76,8.25
	c3.59,0.96,7.28-1.17,8.25-4.76C70.92,111.67,68.8,107.98,65.2,107.01 M65.3,85.88c-3.81-1.02-7.71,1.24-8.73,5.04
	c-1.02,3.8,1.24,7.72,5.04,8.73c3.8,1.02,7.71-1.24,8.73-5.04C71.37,90.81,69.11,86.9,65.3,85.88 M65.41,64.75
	c-4.02-1.08-8.14,1.31-9.22,5.32c-1.08,4.02,1.3,8.15,5.32,9.22c4.01,1.08,8.14-1.31,9.22-5.32C71.8,69.96,69.42,65.83,65.41,64.75
	 M65.51,43.62c-4.23-1.13-8.57,1.38-9.7,5.61c-1.13,4.23,1.38,8.57,5.61,9.7c4.22,1.13,8.57-1.38,9.7-5.6
	C72.24,49.1,69.74,44.76,65.51,43.62 M65.61,22.49c-4.44-1.19-9,1.45-10.19,5.88c-1.19,4.44,1.44,9,5.88,10.19
	c4.44,1.19,9-1.45,10.19-5.88C72.68,28.24,70.05,23.68,65.61,22.49 M65.71,0.69c-4.65-1.24-9.43,1.51-10.67,6.17
	c-1.25,4.65,1.51,9.43,6.16,10.68c4.65,1.24,9.43-1.51,10.68-6.17C73.12,6.72,70.36,1.94,65.71,0.69 M32.66,6.76
	c-1.3,4.86,1.58,9.86,6.44,11.16c4.86,1.3,9.86-1.58,11.16-6.44c1.3-4.86-1.58-9.86-6.44-11.16C38.96-0.99,33.96,1.89,32.66,6.76
	 M42.83,254.49c-1.55-0.41-3.15,0.51-3.57,2.06c-0.42,1.56,0.5,3.15,2.06,3.57c1.55,0.42,3.15-0.51,3.57-2.06
	C45.31,256.51,44.39,254.91,42.83,254.49 M42.91,237.23c-1.73-0.46-3.5,0.56-3.96,2.29c-0.46,1.73,0.56,3.5,2.29,3.96
	c1.72,0.46,3.5-0.56,3.96-2.29C45.67,239.47,44.64,237.69,42.91,237.23 M43,219.97c-1.9-0.51-3.85,0.62-4.36,2.52
	c-0.51,1.9,0.61,3.85,2.52,4.36c1.9,0.51,3.85-0.62,4.36-2.52C46.02,222.43,44.9,220.48,43,219.97 M43.08,202.71
	c-2.07-0.55-4.2,0.68-4.76,2.75c-0.56,2.07,0.67,4.2,2.75,4.76c2.07,0.56,4.2-0.67,4.76-2.74
	C46.38,205.39,45.15,203.27,43.08,202.71 M43.16,185.45c-2.24-0.6-4.55,0.73-5.15,2.98c-0.6,2.24,0.73,4.55,2.97,5.15
	c2.24,0.6,4.55-0.73,5.15-2.97C46.74,188.36,45.41,186.05,43.16,185.45 M43.25,168.19c-2.42-0.65-4.9,0.79-5.55,3.21
	c-0.65,2.42,0.79,4.9,3.2,5.55c2.42,0.65,4.9-0.79,5.55-3.21C47.1,171.32,45.67,168.83,43.25,168.19 M43.33,150.93
	c-2.59-0.69-5.25,0.84-5.95,3.43c-0.69,2.59,0.84,5.25,3.43,5.95c2.59,0.69,5.25-0.84,5.94-3.43
	C47.46,154.28,45.92,151.62,43.33,150.93 M43.42,133.66c-2.76-0.74-5.6,0.9-6.34,3.66c-0.74,2.76,0.9,5.6,3.66,6.35
	c2.76,0.74,5.6-0.9,6.34-3.66C47.82,137.24,46.18,134.4,43.42,133.66 M43.5,116.4c-2.93-0.78-5.95,0.96-6.74,3.89
	c-0.78,2.94,0.96,5.95,3.89,6.74c2.94,0.79,5.95-0.95,6.74-3.89C48.18,120.21,46.44,117.19,43.5,116.4 M43.58,99.14
	c-3.11-0.83-6.3,1.01-7.14,4.12c-0.83,3.11,1.01,6.3,4.12,7.13c3.11,0.84,6.3-1.01,7.14-4.12C48.53,103.17,46.69,99.97,43.58,99.14
	 M43.67,81.88c-3.28-0.88-6.65,1.07-7.53,4.35c-0.88,3.28,1.07,6.65,4.35,7.53c3.28,0.88,6.65-1.07,7.53-4.35
	C48.89,86.13,46.95,82.76,43.67,81.88 M43.75,64.62c-3.45-0.92-7,1.12-7.93,4.58c-0.92,3.45,1.12,7,4.58,7.93
	c3.45,0.92,7-1.13,7.93-4.58C49.25,69.1,47.21,65.55,43.75,64.62 M43.83,47.36c-3.62-0.97-7.35,1.18-8.32,4.81
	c-0.97,3.62,1.18,7.35,4.81,8.32c3.62,0.97,7.35-1.18,8.33-4.81C49.61,52.06,47.46,48.33,43.83,47.36 M43.01,29.19
	c-3.8-1.01-7.7,1.24-8.72,5.03c-1.02,3.8,1.24,7.7,5.03,8.72c3.8,1.02,7.7-1.24,8.72-5.03C49.06,34.11,46.81,30.21,43.01,29.19
	 M13.91,34.14c-1.06,3.97,1.29,8.05,5.26,9.12c3.97,1.06,8.06-1.29,9.12-5.27c1.07-3.97-1.29-8.05-5.27-9.11
	C19.06,27.82,14.98,30.17,13.91,34.14 M22.76,239.38c-1.27-0.34-2.58,0.42-2.92,1.69c-0.34,1.27,0.41,2.58,1.69,2.92
	c1.27,0.34,2.58-0.41,2.92-1.68C24.78,241.03,24.03,239.72,22.76,239.38 M22.82,225.26c-1.41-0.38-2.87,0.46-3.24,1.87
	c-0.38,1.41,0.46,2.87,1.87,3.24c1.41,0.38,2.87-0.46,3.25-1.87C25.07,227.09,24.24,225.64,22.82,225.26 M22.89,211.13
	c-1.55-0.42-3.15,0.51-3.57,2.06c-0.42,1.56,0.51,3.15,2.06,3.57c1.55,0.42,3.15-0.5,3.57-2.06
	C25.37,213.15,24.45,211.55,22.89,211.13 M22.96,197.01c-1.69-0.45-3.44,0.55-3.89,2.25c-0.45,1.69,0.55,3.44,2.25,3.89
	c1.7,0.45,3.44-0.55,3.89-2.25C25.66,199.2,24.66,197.46,22.96,197.01 M23.03,182.88c-1.84-0.49-3.73,0.6-4.21,2.44
	c-0.49,1.84,0.6,3.72,2.43,4.22c1.83,0.49,3.72-0.6,4.22-2.44C25.96,185.26,24.87,183.37,23.03,182.88 M23.1,168.76
	c-1.98-0.53-4.01,0.65-4.54,2.62c-0.53,1.98,0.64,4.01,2.62,4.54c1.98,0.53,4.01-0.64,4.54-2.62
	C26.25,171.32,25.08,169.29,23.1,168.76 M23.17,154.63c-2.12-0.57-4.3,0.69-4.87,2.81c-0.57,2.12,0.69,4.3,2.81,4.87
	c2.12,0.57,4.3-0.69,4.87-2.81C26.54,157.38,25.29,155.2,23.17,154.63 M23.24,140.5c-2.26-0.6-4.58,0.74-5.19,3
	c-0.6,2.26,0.74,4.58,3,5.19c2.26,0.61,4.58-0.73,5.19-2.99C26.84,143.43,25.5,141.11,23.24,140.5 M23.3,126.38
	c-2.4-0.64-4.87,0.78-5.51,3.18c-0.64,2.4,0.78,4.87,3.18,5.51c2.4,0.64,4.87-0.78,5.51-3.18C27.13,129.49,25.71,127.02,23.3,126.38
	 M23.37,112.25c-2.55-0.68-5.16,0.83-5.84,3.37c-0.68,2.54,0.83,5.16,3.37,5.84c2.54,0.68,5.16-0.83,5.84-3.37
	C27.43,115.55,25.92,112.94,23.37,112.25 M23.44,98.13c-2.69-0.72-5.44,0.88-6.16,3.56c-0.72,2.68,0.87,5.45,3.56,6.17
	c2.69,0.72,5.44-0.88,6.17-3.56C27.72,101.61,26.13,98.85,23.44,98.13 M23.51,84c-2.83-0.75-5.73,0.92-6.49,3.75
	c-0.76,2.83,0.92,5.73,3.75,6.49c2.82,0.76,5.73-0.92,6.49-3.75C28.01,87.66,26.34,84.76,23.51,84 M23.58,69.1
	c-2.97-0.79-6.02,0.97-6.81,3.93c-0.8,2.97,0.96,6.02,3.93,6.81c2.97,0.8,6.02-0.97,6.81-3.93C28.31,72.94,26.55,69.89,23.58,69.1
	 M23.65,53.38c-3.11-0.83-6.3,1.01-7.14,4.12c-0.84,3.11,1.01,6.31,4.12,7.14c3.11,0.83,6.3-1.01,7.14-4.12
	C28.6,57.41,26.76,54.21,23.65,53.38 M0.21,57.43c-0.87,3.25,1.06,6.59,4.31,7.46c3.25,0.87,6.59-1.05,7.46-4.31
	c0.87-3.25-1.06-6.59-4.31-7.46C4.42,52.25,1.08,54.18,0.21,57.43 M570.2,11.35h-5.99V364.2h5.99V11.35z M635.87,11.35h-5.99V364.2
	h5.99V11.35z M583.46,339.79c0-8.31,4.74-12.58,4.74-12.58l6.2,3.8c0,0-3.43,3.76-3.43,8.4c0,6.43,4.74,9.48,9.58,9.48
	c4.98,0,10.09-3.29,10.09-9.48c0-5.07-4.13-8.92-4.13-8.92l6.01-4.23c0,0,5.63,4.74,5.63,13.52c0,10.52-7.46,17.61-17.42,17.61
	C590.97,357.39,583.46,349.88,583.46,339.79z M584.02,321.28v-8.22h26.53v-13.71h7.04v21.93H584.02z M584.02,295.6v-8.22h21.22
	c3.52,0,5.4-2.3,5.4-5.82s-1.88-5.82-5.4-5.82h-21.22v-8.22h21.22c7.56,0,12.91,5.54,12.91,13.99c0,8.54-5.35,14.08-12.91,14.08
	H584.02z M604.82,263.06v-8.22h1.78c1.27,0,2.21-0.24,2.82-0.66c0.89-0.56,1.22-1.5,1.22-2.44c0-1.74-1.13-2.96-3.57-2.96h-16.01
	v9.01h-7.04v-17.23h23.24c7.37,0,10.89,5.63,10.89,11.27c0,5.63-3.62,11.22-10.89,11.22H604.82z M600.59,234.18v-14.74h7.04v14.74
	H600.59z M584.02,212.72v-8.31l15.68-9.3c2.21-1.31,5.73-2.82,5.73-2.82v-0.09c0,0-3.62,0.38-5.73,0.38h-15.68v-8.22h33.57v8.26
	l-15.63,9.34c-2.21,1.31-5.73,2.82-5.73,2.82v0.09c0,0,3.62-0.38,5.73-0.38h15.63v8.22H584.02z M610.55,159.66v10.47l7.04,2.02v8.45
	l-33.57-11.41v-8.64l33.57-11.41v8.45L610.55,159.66z M591.67,164.92c0,0,3.66,0.75,5.77,1.36l6.53,1.92v-6.62l-6.53,1.88
	c-2.11,0.61-5.77,1.36-5.77,1.36V164.92z M584.02,145.39v-13.94c0-6.53,4.79-10.94,11.55-10.94c6.76,0,11.64,4.41,11.64,10.94v5.73
	h10.38v8.22H584.02z M600.17,133.13c0-2.86-1.92-4.27-4.6-4.27c-2.68,0-4.51,1.41-4.51,4.13v4.18h9.11V133.13z M583.46,100.36
	c0-10.14,7.51-17.56,17.14-17.56c9.86,0,17.56,7.42,17.56,17.56s-7.7,17.56-17.56,17.56C590.97,117.92,583.46,110.5,583.46,100.36z
	 M610.64,100.36c0-5.02-4.32-9.06-10.05-9.06c-5.49,0-9.62,4.04-9.62,9.06s4.13,9.06,9.62,9.06
	C606.32,109.42,610.64,105.38,610.64,100.36z M583.46,61.9c0-8.31,4.74-12.58,4.74-12.58l6.2,3.8c0,0-3.43,3.76-3.43,8.4
	c0,6.43,4.74,9.48,9.58,9.48c4.98,0,10.09-3.29,10.09-9.48c0-5.07-4.13-8.92-4.13-8.92l6.01-4.23c0,0,5.63,4.74,5.63,13.52
	c0,10.52-7.46,17.61-17.42,17.61C590.97,79.51,583.46,71.99,583.46,61.9z M610.55,26.59v10.47l7.04,2.02v8.45l-33.57-11.41v-8.64
	l33.57-11.41v8.45L610.55,26.59z M591.67,31.85c0,0,3.66,0.75,5.77,1.36l6.53,1.92v-6.62l-6.53,1.88c-2.11,0.61-5.77,1.36-5.77,1.36
	V31.85z"/>
</svg>
