<!-- Generator: Adobe Illustrator 19.2.1, SVG Export Plug-In  -->
<svg version="1.1"
	 xmlns="http://www.w3.org/2000/svg" xmlns:xlink="http://www.w3.org/1999/xlink" xmlns:a="http://ns.adobe.com/AdobeSVGViewerExtensions/3.0/"
	 x="0px" y="0px" width="351.6px" height="198.4px" viewBox="0 0 351.6 198.4" enable-background="new 0 0 351.6 198.4"
	 xml:space="preserve">
<defs>
</defs>
<path fill="#868789" d="M60.6,82.5c1.3-0.2,2-1.1,2-2.5c0-1.3-0.7-2-2.1-2.3h-7.9c-4.6-0.8-6.9-3.2-6.9-7.2v-0.7c0-4.6,2.3-7.2,6.9-7.8h16.6
	l-2.6,5.7H54.1c-1.3,0.2-1.9,1-1.9,2.4c0,1.3,0.7,2,2.1,2.2h7.9c4.6,0.8,6.9,3.2,6.9,7.2v0.8c0,4.8-2.3,7.5-6.9,8H45.7l2.6-5.7H60.6
	 M77.2,88.2H70l11.6-26.2h7.3l11.6,26.2h-6.9l-2.1-4.7h-7l-3.2-4.4L77.2,88.2z M81.9,77.6h7l-3.6-7.8L81.9,77.6z M344.9,137.1
	l5.8,13.1h-3.5l-1-2.4h-3.5l-1.6-2.2l-2,4.6h-3.6l5.8-13.1H344.9z M344.9,144.9l-1.8-3.9l-1.7,3.9H344.9z M124.5,82.4h-17V61.9H101
	v26.2h20.9L124.5,82.4z M329.4,139.8h4.3l1.3-2.8h-5.9c-3.9,0.4-5.9,2.6-5.9,6.6c0,3.9,1.8,6.1,5.4,6.6h6.4v-2.8h-5.9
	c-1.6,0-2.5-1.3-2.5-3.8C326.7,141.1,327.6,139.9,329.4,139.8 M322.6,137v13.1h-3.3v0h-6.6v0h-3.3v0v-3.3v-6.6V137h13H322.6z
	 M319.3,140.3h-6.6v6.6h6.6V140.3z M132.6,88.2h-7.2L137,61.9h7.3l11.6,26.2H149l-2.1-4.7h-7l-3.2-4.4L132.6,88.2z M137.3,77.6h7
	l-3.5-7.8L137.3,77.6z M327.6,115.3h8.1l-4.1-9L327.6,115.3z M242.6,143.6c0,1-0.2,1.9-0.6,2.7c-0.4,0.7-1,1.1-1.8,1.1
	c-0.9,0-1.5-0.4-2-1.2c-0.4-0.8-0.6-1.7-0.6-2.5V137h-3.5l0,6.5c0,1.9,0.5,3.4,1.6,4.7c1,1.3,2.5,1.9,4.4,1.9c1.9,0,3.4-0.6,4.4-1.8
	c1-1.2,1.6-2.8,1.6-4.7V137h-3.4V143.6z M246.9,139.8h8.5v3.7c-0.2,2.5-1.2,3.7-3,3.7h-4.2l-1.3,2.8h5.8c3.9-0.5,5.9-2.7,5.9-6.6
	V137h-11.7V139.8z M224.9,137h-3.3v13.1h10.4l1.3-2.9h-8.5V137z M304.9,137c2.3,0.4,3.5,1.6,3.5,3.7v0.8c0,2.1-1.2,3.4-3.4,3.8h-3.3
	l-1.3-1.9v6.7h-3.3V137H304.9 M304.3,142.8c0.5-0.2,0.8-0.7,0.8-1.6c0-0.7-0.4-1.2-1.1-1.3h-3.7v2.9H304.3 M351.6,92.4v39.8H197.3
	v29.5v0.7v36H162h-0.7H36.4H0v-36.6V36.2v-0.7V0h36.4h124.9h36v36.2v56.3h128.1c-0.5-1-0.9-2.2-0.9-3.6l0-0.5h5.1l0,0.4
	c0.1,1.1,0.7,1.6,1.9,1.6c1.2,0,1.9-0.5,2.2-1.6l0.1-0.4h4.8v0.5c0,1.4-0.3,2.6-0.9,3.6H351.6z M325.5,89.3c0.2,3.4,2.3,5.1,6,5.1
	c3.7,0,5.8-1.8,6.1-5.1h-3.1c-0.4,1.3-1.4,2-3,2c-1.5,0-2.5-0.7-2.8-2H325.5z M161.4,132.3H41.1V92.4h120.2V36.2H36.4v125.7h124.9
	V132.3z M146.9,97.1h-7.5v30.3h7.5V97.1z M115.8,120.8V97.1h-7.5v30.2h24.1l3-6.6H115.8z M98.1,127.4h7.5V97.1v0H75.5v0v30.3H83l0,0
	H98.1z M71.6,105.8c0-4.8-2.7-7.7-8-8.7h-18v30.2h7.5V112l3.1,4.4h7.5c5.3-0.9,7.9-3.8,7.9-8.8V105.8 M170.8,127.4l13.4-30.2h-7.9
	l-9.5,21.1l-9.4-21.1h-7.8l13.4,30.2H170.8z M209.5,127.4l-13.4-30.2h-8.4l-13.4,30.2h8.3l4.7-10.5l3.7,5.1h8.1l2.5,5.5H209.5z
	 M237.2,120.8h-19.6V97.1h-7.5v30.2h24.1L237.2,120.8z M246.3,108.8v-5h15.3l3.3-6.6h-18.6v-0.1h-7.5v30.3h1.7h5.8h17v-6.6h-17v-5.5
	h15.3v-6.5H246.3z M292.6,127.4l-0.1-0.2V97.1H285v17.6l-12.1-17.6v0h-7.5v0h0l0,0.1v30.2h7.5v-17.8l12.1,17.6v0.2H292.6z
	 M310.5,103.6h7.5l3-6.5H294v6.5h9v23.7h7.5V103.6z M349.1,127.4l-13.4-30.2h-8.4l-13.4,30.2h8.3l4.7-10.5l3.7,5.1h8.1l2.4,5.5
	H349.1z M215.5,139.8h4.2l1.3-2.8h-5.9c-3.9,0.4-5.9,2.6-5.9,6.6c0,3.9,1.8,6.1,5.4,6.6h6.4v-2.8h-5.9c-1.6,0-2.4-1.3-2.5-3.8
	C212.7,141.1,213.7,139.9,215.5,139.8 M260.3,144.9h8.5v-2.6h-8.5V144.9z M291,137.1l5.8,13.1h-3.5l-1.1-2.4h-3.5l-1.6-2.2l-2.1,4.6
	h-3.6l5.8-13.1H291z M291,144.9l-1.8-3.9l-1.7,3.9H291z M188,115.3h8.1l-4.1-9L188,115.3z M98.1,104.7H83v15.2h15.1V104.7z
	 M61.7,103.7h-8.5v6.7h9.1c1.3-0.4,1.9-1.6,1.9-3.6C64.1,105.1,63.3,104.1,61.7,103.7 M281.1,137h-3.3v7.6l-5.2-7.6v0h-3.3v0h0l0,0
	v13.1h3.3v-7.7l5.2,7.6v0.1h3.3l0-0.1V137z"/>
</svg>
