<!-- Generator: Adobe Illustrator 22.1.0, SVG Export Plug-In  -->
<svg version="1.1"
	 xmlns="http://www.w3.org/2000/svg" xmlns:xlink="http://www.w3.org/1999/xlink" xmlns:a="http://ns.adobe.com/AdobeSVGViewerExtensions/3.0/"
	 x="0px" y="0px" width="129.4px" height="19.8px" viewBox="0 0 129.4 19.8" enable-background="new 0 0 129.4 19.8"
	 xml:space="preserve">
<path fill="#868789" d="M4.9,5.4c-0.1-0.4-0.1-0.8,0-1C5,3.8,5.4,3.1,6.6,3.1c1.1,0,1.7,0.7,1.7,1.7
	c0,0.3,0,1.1,0,1.1h4.6V4.7c0-4-3.6-4.7-6.2-4.7c-3.3,0-6,1.1-6.5,4.1c-0.1,0.8-0.2,1.6,0,2.5c0.8,3.8,7.4,4.9,8.3,7.3
	c0.2,0.4,0.1,1,0,1.4c-0.2,0.6-0.6,1.2-1.8,1.2c-1.2,0-1.8-0.7-1.8-1.7L5,13H0v1.4c0,4.1,3.2,5.4,6.7,5.4c3.3,0,6.1-1.1,6.5-4.2
	c0.2-1.6,0.1-2.6,0-3C12.5,8.7,5.4,7.5,4.9,5.4z M65.1,5.4c-0.1-0.4-0.1-0.8,0-1c0.1-0.6,0.5-1.2,1.7-1.2c1.1,0,1.7,0.7,1.7,1.7
	c0,0.3,0,1.1,0,1.1H73V4.7c0-4-3.6-4.6-6.2-4.6c-3.3,0-5.9,1.1-6.4,4.1c-0.1,0.8-0.2,1.5,0,2.5c0.8,3.7,7.3,4.8,8.2,7.2
	c0.2,0.4,0.1,1,0,1.4c-0.1,0.6-0.6,1.2-1.8,1.2c-1.2,0-1.8-0.7-1.8-1.7l0-1.8h-4.9v1.4c0,4.1,3.2,5.3,6.7,5.3c3.3,0,6-1.1,6.5-4.2
	c0.2-1.6,0.1-2.6,0-3C72.5,8.7,65.6,7.5,65.1,5.4z M107.1,15.5l-4.4-14.9h-6.9v18.3h4.5l-0.3-15.4l4.7,15.4h6.6V0.6h-4.6L107.1,15.5
	z M19.8,0.6l-3.4,18.5h5L24,2l2.5,17.1h5L28,0.6H19.8z M47.7,0.6L45.4,15L43.1,0.6h-7.5l-0.4,18.5h4.6L39.9,2l3.2,17.1h4.7L50.9,2
	l0.1,17.1h4.6L55.3,0.6H47.7z M90.7,0.6H86v13.7c0,0.2,0,0.5,0,0.7c-0.1,0.5-0.5,1.3-1.8,1.3c-1.3,0-1.7-0.9-1.8-1.3
	c0-0.2-0.1-0.5,0-0.7V0.6h-4.7v13.3c0,0.3,0,1,0,1.2c0.3,3.5,3,4.6,6.4,4.6c3.4,0,6.1-1.1,6.5-4.6c0-0.2,0.1-0.9,0-1.2V0.6z
	 M122.8,8.7v2.7h1.9v2.7c0,0.2,0,0.5,0,0.7c-0.1,0.5-0.5,1.3-1.9,1.3c-1.3,0-1.8-0.9-1.9-1.3c0-0.2,0-0.5,0-0.7V5.6
	c0-0.3,0-0.6,0.1-0.9c0.1-0.5,0.5-1.3,1.8-1.3c1.4,0,1.8,0.9,1.8,1.3c0.1,0.3,0.1,0.7,0.1,0.7v1h4.7V5.9c0,0,0-0.6,0-1.2
	c-0.4-3.5-3.2-4.6-6.5-4.6c-3.3,0-6.1,1.1-6.5,4.6c0,0.3-0.1,0.9-0.1,1.2v7.8c0,0.3,0,0.6,0.1,1.2c0.3,3.4,3.2,4.6,6.5,4.6
	c3.3,0,6.2-1.2,6.5-4.6c0.1-0.6,0.1-0.9,0.1-1.2v-5H122.8z"/>
</svg>
