<!-- Generator: Adobe Illustrator 18.1.1, SVG Export Plug-In  -->
<svg version="1.1"
	 xmlns="http://www.w3.org/2000/svg" xmlns:xlink="http://www.w3.org/1999/xlink" xmlns:a="http://ns.adobe.com/AdobeSVGViewerExtensions/3.0/"
	 x="0px" y="0px" width="46.07px" height="13.85px" viewBox="0 0 46.07 13.85" enable-background="new 0 0 46.07 13.85"
	 xml:space="preserve">
<defs>
</defs>
<path fill="#868789" d="M32.23,5.06V0l13.84,0v1.51c-5.67-0.11-9.27,0.13-11.63,1.11C33.46,3.03,32.22,3.96,32.23,5.06 M46.07,2.65
	c-4.05,0.02-7.54-0.06-9.8,1.33c-2.24,1.38,0.51,2.05,3.81,2.66c4.04,0.75,5.95,1.81,5.99,2.92V2.65z M32.23,11.07
	c2.19,0.09,5.44,0.08,7.12-0.18c1.34-0.21,3.98-1.58-1.02-2.62c-2.1-0.44-3.92-0.75-4.88-1.42c-0.86-0.61-1.22-1.22-1.22-1.79V11.07
	z M46.07,9.56c0.02,0.65-0.59,1.31-1.78,1.95c-1.87,0.99-6.81,1.38-12.06,0.79l-0.01,1.55h13.84V9.56 M3.31,9
	C2.88,8.69,2.34,8.56,1.8,8.56C0.81,8.56,0,9.17,0,10.18c0,0.71,0.38,1.15,1.3,1.41c0.88,0.25,0.98,0.31,0.98,0.51
	c0,0.32-0.41,0.37-0.67,0.37c-0.46,0-1.18-0.24-1.45-0.68v1.29c0.44,0.31,0.93,0.49,1.57,0.49c0.91,0,1.73-0.56,1.73-1.52
	c0-0.85-0.56-1.23-1.21-1.41c-0.8-0.21-0.99-0.28-0.99-0.5c0-0.28,0.39-0.38,0.68-0.38c0.47,0,1.09,0.14,1.38,0.63V9z M6.96,9.79
	C6.63,9.44,6.18,9.33,5.77,9.33c-1.33,0-1.93,0.85-1.93,2.12c0,1.13,0.53,2.13,1.82,2.13c0.5,0,0.99-0.16,1.3-0.57v-1.14
	c-0.26,0.36-0.56,0.57-1,0.57c-0.62,0-0.86-0.44-0.86-0.9c0-0.63,0.3-0.96,0.9-0.96c0.31,0,0.64,0.09,0.97,0.46V9.79z M7.56,13.46
	h1.29v-2.08c0-0.45,0.09-0.84,0.55-0.84c0.38,0,0.45,0.24,0.45,0.59v2.33h1.29v-3.03c0-0.74-0.46-1.1-1.1-1.1
	c-0.57,0-1.01,0.29-1.17,0.84H8.85v-1.7H7.56V13.46z M11.82,13.46h1.29v-1.77c0-0.58,0.28-1.04,0.81-1.04
	c0.28,0,0.54,0.12,0.66,0.31V9.45c-0.14-0.08-0.32-0.13-0.54-0.13c-0.66,0-0.9,0.62-0.99,1.15h-0.01V9.44h-1.21V13.46z M18.22,12.07
	c-0.26,0.37-0.68,0.57-1.16,0.57c-0.53,0-0.92-0.26-1.01-0.76h2.36c0.03-0.23,0.04-0.47,0.04-0.7c0-1.1-0.5-1.85-1.62-1.85
	c-1.42,0-1.94,0.85-1.94,2.15c0,1.32,0.58,2.1,1.95,2.1c0.52,0,1.1-0.21,1.38-0.56V12.07z M15.92,9.06h0.94l1.07-0.68l0.04-0.05
	h-1.28L15.92,9.06z M16.07,10.98c0.04-0.35,0.36-0.59,0.74-0.59c0.41,0,0.75,0.19,0.78,0.59H16.07z M21.4,13.46h1.17V8.47h-1.25
	v1.68h-0.01c-0.21-0.53-0.38-0.82-1.08-0.82c-1.16,0-1.39,1.25-1.39,2.11c0,1.72,0.84,2.14,1.39,2.14c0.66,0,0.95-0.34,1.16-0.75
	h0.01V13.46z M20.09,11.42c0-0.37,0.12-0.88,0.62-0.88c0.55,0,0.68,0.41,0.68,0.97c0,0.55-0.16,0.94-0.66,0.94
	C20.2,12.44,20.09,11.95,20.09,11.42 M26.42,12.07c-0.26,0.37-0.68,0.57-1.16,0.57c-0.53,0-0.92-0.26-1.01-0.76h2.35
	c0.03-0.23,0.05-0.47,0.05-0.7c0-1.1-0.5-1.85-1.62-1.85c-1.42,0-1.94,0.85-1.94,2.15c0,1.32,0.58,2.1,1.95,2.1
	c0.52,0,1.1-0.21,1.37-0.56V12.07z M24.26,10.98c0.04-0.35,0.36-0.59,0.74-0.59c0.41,0,0.75,0.19,0.78,0.59H24.26z M27.16,13.46
	h1.29v-1.77c0-0.58,0.28-1.04,0.81-1.04c0.28,0,0.54,0.12,0.66,0.31V9.45c-0.14-0.08-0.32-0.13-0.53-0.13
	c-0.66,0-0.9,0.62-0.99,1.15h-0.01V9.44h-1.21V13.46z"/>
</svg>
