<!-- Generator: Adobe Illustrator 19.2.1, SVG Export Plug-In  -->
<svg version="1.1"
	 xmlns="http://www.w3.org/2000/svg" xmlns:xlink="http://www.w3.org/1999/xlink" xmlns:a="http://ns.adobe.com/AdobeSVGViewerExtensions/3.0/"
	 x="0px" y="0px" width="501.3px" height="198.8px" viewBox="0 0 501.3 198.8" enable-background="new 0 0 501.3 198.8"
	 xml:space="preserve">
<defs>
</defs>
<path fill='#868789'  fill-rule="evenodd" clip-rule="evenodd" d="M68.1,24.2h52.2h0.1c1.4,0,5,2.2,5,5v-5V14.1c0-3-2.5-5.5-5.5-5.5H67.7h-0.1
	c-1.4,0-5-2.2-5-5v5v10.1C62.6,21.8,65.1,24.2,68.1,24.2 M125.4,29.7L125.4,29.7l0-0.4C125.4,29.4,125.4,29.5,125.4,29.7 M62.6,3.2
	L62.6,3.2l0,0.4C62.6,3.5,62.6,3.3,62.6,3.2 M68.1,43.3h52.2c0,0-1.3,0,0.1,0c1.4,0,5,2.2,5,5v-5V33.2c0-3-2.5-5.5-5.5-5.5H67.7
	h-0.1c-1.4,0-5-2.2-5-5v5v10.2C62.6,40.9,65.1,43.3,68.1,43.3 M125.4,48.8L125.4,48.8l0-0.4C125.4,48.5,125.4,48.6,125.4,48.8
	 M62.6,22.3L62.6,22.3l0,0.4C62.6,22.6,62.6,22.4,62.6,22.3 M68.1,62.6h52.2h0.1c1.4,0,5,2.2,5,5v-5V52.4c0-3-2.5-5.5-5.5-5.5H67.7
	c0,0,1.3,0-0.1,0c-1.4,0-5-2.2-5-5v5v10.1C62.6,60.1,65.1,62.6,68.1,62.6 M125.4,68L125.4,68l0-0.4C125.4,67.7,125.4,67.9,125.4,68
	 M62.6,41.5L62.6,41.5l0,0.4C62.6,41.8,62.6,41.6,62.6,41.5 M75.2,148.6h52.2h0.1c1.4,0,5,2.2,5,5v-5v-10.1c0-3-2.4-5.5-5.4-5.5
	H74.8h-0.1c-1.4,0-5-2.2-5-5v5v10.1C69.7,146.2,72.2,148.6,75.2,148.6 M132.5,154.1L132.5,154.1l0-0.4
	C132.5,153.8,132.5,153.9,132.5,154.1 M69.7,127.6L69.7,127.6l0,0.4C69.7,127.9,69.7,127.7,69.7,127.6 M75.2,167.7h52.2h0.1
	c1.4,0,5,2.2,5,5v-5v-10.1c0-3-2.4-5.4-5.4-5.4H74.8h-0.1c-1.4,0-5-2.2-5-5v5v10.1C69.7,165.3,72.2,167.7,75.2,167.7 M132.5,173.2
	L132.5,173.2l0-0.4C132.5,172.9,132.5,173,132.5,173.2 M69.7,146.7L69.7,146.7l0,0.5C69.7,147,69.7,146.8,69.7,146.7 M75.2,187h52.2
	h0.1c1.4,0,5,2.2,5,5v-5v-10.1c0-3-2.4-5.5-5.4-5.5H74.8h-0.1c-1.4,0-5-2.2-5-5v5v10.2C69.7,184.5,72.2,187,75.2,187 M132.5,192.4
	L132.5,192.4l0-0.4C132.5,192.1,132.5,192.3,132.5,192.4 M69.7,165.9L69.7,165.9l0,0.4C69.7,166.2,69.7,166.1,69.7,165.9
	 M133.2,90.5h52.2h0.1c1.4,0,5,2.2,5,5v-5V80.3c0-3-2.5-5.5-5.4-5.5h-52.2h-0.1c-1.4,0-5-2.2-5-5v5V85
	C127.8,88,130.2,90.5,133.2,90.5 M190.5,95.9L190.5,95.9l0-0.4C190.5,95.6,190.5,95.8,190.5,95.9 M127.8,69.4L127.8,69.4l0,0.4
	C127.8,69.7,127.8,69.6,127.8,69.4 M133.2,109.6h52.2c0,0-1.3,0,0.1,0c1.4,0,5,2.2,5,5v-5V99.4c0-3-2.5-5.5-5.4-5.5h-52.2
	c0,0,1.3,0-0.1,0c-1.4,0-5-2.2-5-5v5v10.1C127.8,107.1,130.2,109.6,133.2,109.6 M190.5,115L190.5,115l0-0.4
	C190.5,114.7,190.5,114.9,190.5,115 M127.8,88.5L127.8,88.5l0,0.5C127.8,88.8,127.8,88.7,127.8,88.5 M133.2,128.8h52.2h0.1
	c1.4,0,5,2.2,5,5v-5v-10.1c0-3-2.5-5.5-5.4-5.5h-52.2v0h-0.1c-1.4,0-5-2.2-5-5v5v10.1C127.8,126.3,130.2,128.8,133.2,128.8
	 M190.5,134.2L190.5,134.2l0-0.4C190.5,133.9,190.5,134.1,190.5,134.2 M127.8,107.7L127.8,107.7l0,0.4
	C127.8,108,127.8,107.9,127.8,107.7 M9.3,81.4h52.2h0.1c1.4,0,5,2.2,5,5v-5V71.2c0-3-2.5-5.5-5.5-5.5H8.9v0c0,0,1.3,0-0.1,0
	c-1.4,0-5-2.2-5-5v5v10.1C3.8,78.9,6.3,81.4,9.3,81.4 M66.5,86.8L66.5,86.8l0-0.4C66.6,86.5,66.6,86.7,66.5,86.8 M3.8,60.3L3.8,60.3
	l0,0.4C3.8,60.6,3.8,60.5,3.8,60.3 M9.3,100.5h52.2h0.1c1.4,0,5,2.2,5,5v-5V90.3c0-3-2.5-5.5-5.5-5.5H8.9H8.8c-1.4,0-5-2.2-5-5v5V95
	C3.8,98,6.3,100.5,9.3,100.5 M66.5,105.9L66.5,105.9l0-0.4C66.6,105.6,66.6,105.8,66.5,105.9 M3.8,79.4L3.8,79.4l0,0.5
	C3.8,79.7,3.8,79.6,3.8,79.4 M9.3,119.7h52.2h0.1c1.4,0,5,2.2,5,5v-5v-10.1c0-3-2.5-5.5-5.5-5.5H8.9H8.8c-1.4,0-5-2.2-5-5v5v10.1
	C3.8,117.2,6.3,119.7,9.3,119.7 M66.5,125.2L66.5,125.2l0-0.4C66.6,124.8,66.6,125,66.5,125.2 M3.8,98.7L3.8,98.7l0,0.4
	C3.8,98.9,3.8,98.8,3.8,98.7 M21,5.5v52.2v0.1c0,1.4,2.2,5,5,5h-5H10.9c-3,0-5.5-2.5-5.5-5.5V5.1h0c0,0,0,1.3,0-0.1c0-1.4-2.2-5-5-5
	h5h10.1C18.6,0,21,2.5,21,5.5 M26.5,62.7L26.5,62.7l-0.4,0C26.2,62.8,26.3,62.8,26.5,62.7 M0,0L0,0l0.4,0C0.3,0,0.1,0,0,0 M40.2,5.5
	v52.2v0.1c0,1.4,2.2,5,5,5h-5H30c-3,0-5.5-2.5-5.5-5.5V5.1V5c0-1.4-2.2-5-5-5h5h10.1C37.7,0,40.2,2.5,40.2,5.5 M45.6,62.7L45.6,62.7
	l-0.4,0C45.3,62.8,45.5,62.8,45.6,62.7 M19.1,0L19.1,0l0.4,0C19.4,0,19.3,0,19.1,0 M59.1,5.5v52.2h0v0.1c0,1.4,2.2,5,5,5h-5H49
	c-3,0-5.5-2.5-5.5-5.5V5.1V5c0-1.4-2.2-5-5-5h5h10.2C56.6,0,59.1,2.5,59.1,5.5 M64.5,62.7L64.5,62.7l-0.4,0
	C64.3,62.8,64.4,62.8,64.5,62.7 M38,0L38,0l0.4,0C38.3,0,38.2,0,38,0 M28.2,129.9v52.2v0.1c0,1.4,2.2,5,5,5h-5H18
	c-3,0-5.5-2.4-5.5-5.4v-52.2v-0.1c0-1.4-2.2-5-5-5h5h10.1C25.7,124.4,28.2,126.9,28.2,129.9 M33.6,187.2L33.6,187.2l-0.4,0
	C33.3,187.2,33.5,187.2,33.6,187.2 M7.1,124.4L7.1,124.4l0.4,0C7.4,124.4,7.2,124.4,7.1,124.4 M47.3,129.9v52.2v0.1c0,1.4,2.2,5,5,5
	h-5H37.1c-3,0-5.5-2.4-5.5-5.4v-52.2v-0.1c0-1.4-2.2-5-5-5h5h10.1C44.8,124.4,47.3,126.9,47.3,129.9 M52.7,187.2L52.7,187.2l-0.4,0
	C52.4,187.2,52.6,187.2,52.7,187.2 M26.2,124.4L26.2,124.4l0.4,0C26.5,124.4,26.4,124.4,26.2,124.4 M66.2,129.9v52.2v0.1
	c0,1.4,2.2,5,5,5h-5H56c-3,0-5.4-2.4-5.4-5.4v-52.2h0c0-0.1,0,1.3,0-0.1c0-1.4-2.2-5-5-5h5h10.1C63.7,124.4,66.2,126.9,66.2,129.9
	 M71.6,187.2L71.6,187.2l-0.4,0C71.4,187.2,71.5,187.2,71.6,187.2 M45.2,124.4L45.2,124.4l0.4,0C45.4,124.4,45.3,124.4,45.2,124.4
	 M144.4,14.4v52.2v0.1c0,1.4,2.2,5,5,5h-5h-10.1c-3,0-5.5-2.5-5.5-5.4V14v-0.1c0-1.4-2.2-5-5-5h5h10.1
	C141.9,8.9,144.4,11.4,144.4,14.4 M149.8,71.7L149.8,71.7l-0.4,0C149.5,71.7,149.6,71.7,149.8,71.7 M123.3,8.9L123.3,8.9l0.4,0
	C123.6,8.9,123.5,8.9,123.3,8.9 M163.5,14.4v52.2v0.1c0,1.4,2.2,5,5,5h-5h-10.1c-3,0-5.5-2.5-5.5-5.4V14v-0.1c0-1.4-2.2-5-5-5h5H158
	C161,8.9,163.5,11.4,163.5,14.4 M168.9,71.7L168.9,71.7l-0.4,0C168.6,71.7,168.8,71.7,168.9,71.7 M142.4,8.9L142.4,8.9l0.4,0
	C142.7,8.9,142.6,8.9,142.4,8.9 M182.4,14.4v52.2v0.1c0,1.4,2.2,5,5,5h-5h-10.1c-3,0-5.4-2.5-5.4-5.4V14v-0.1c0-1.4-2.2-5-5-5h5
	h10.1C179.9,8.9,182.4,11.4,182.4,14.4 M187.9,71.7L187.9,71.7l-0.4,0C187.5,71.7,187.7,71.7,187.9,71.7 M161.3,8.9L161.3,8.9l0.4,0
	C161.6,8.9,161.5,8.9,161.3,8.9 M151.5,138.8V191c0,0,0-1.3,0,0.1c0,1.4,2.2,5,5,5h-5h-10.1c-3,0-5.4-2.4-5.4-5.5v-52.2v-0.1
	c0-1.4-2.2-5-5-5h5H146C149,133.3,151.5,135.8,151.5,138.8 M156.9,196.1L156.9,196.1l-0.4,0C156.6,196.1,156.8,196.1,156.9,196.1
	 M130.4,133.3L130.4,133.3l0.4,0C130.7,133.3,130.5,133.3,130.4,133.3 M170.6,138.8V191c0,0,0-1.3,0,0.1c0,1.4,2.2,5,5,5h-5h-10.1
	c-3,0-5.5-2.4-5.5-5.5v-52.2v-0.1c0-1.4-2.2-5-5-5h5h10.1C168.1,133.3,170.6,135.8,170.6,138.8 M176,196.1L176,196.1l-0.4,0
	C175.7,196.1,175.9,196.1,176,196.1 M149.5,133.3L149.5,133.3l0.4,0C149.8,133.3,149.7,133.3,149.5,133.3 M189.5,138.8V191h0
	c0,0,0-1.3,0,0.1c0,1.4,2.2,5,5,5h-5h-10.1c-3,0-5.5-2.4-5.5-5.5v-52.2v-0.1c0-1.4-2.2-5-5-5h5H184
	C187,133.3,189.5,135.8,189.5,138.8 M194.9,196.1L194.9,196.1l-0.4,0C194.7,196.1,194.8,196.1,194.9,196.1 M168.5,133.3L168.5,133.3
	l0.4,0C168.7,133.3,168.6,133.3,168.5,133.3 M85.9,71.9v52.2v0.1c0,1.4,2.2,5,5,5h-5H75.8c-3,0-5.5-2.5-5.5-5.5V71.5v-0.1
	c0-1.4-2.2-5-5-5h5h10.2C83.5,66.4,85.9,68.9,85.9,71.9 M91.4,129.2L91.4,129.2l-0.4,0C91.1,129.2,91.2,129.2,91.4,129.2 M64.9,66.4
	L64.9,66.4l0.4,0C65.1,66.4,65,66.4,64.9,66.4 M105,71.9v52.2h0v0.1c0,1.4,2.2,5,5,5h-5H94.9c-3,0-5.5-2.5-5.5-5.5V71.5v-0.1
	c0-1.4-2.2-5-5-5h5h10.1C102.6,66.4,105,68.9,105,71.9 M110.5,129.2L110.5,129.2l-0.4,0C110.2,129.2,110.3,129.2,110.5,129.2
	 M84,66.4L84,66.4l0.4,0C84.3,66.4,84.1,66.4,84,66.4 M124,71.9v52.2v0.1c0,1.4,2.2,5,5,5h-5h-10.1c-3,0-5.4-2.5-5.4-5.5V71.5v-0.1
	c0-1.4-2.2-5-5-5h5h10.1C121.5,66.4,124,68.9,124,71.9 M129.4,129.2L129.4,129.2l-0.4,0C129.1,129.2,129.3,129.2,129.4,129.2
	 M102.9,66.4L102.9,66.4l0.4,0C103.2,66.4,103.1,66.4,102.9,66.4 M243.5,15.5c8.3,0,13.8,1.8,16.5,5.4c0.3,0.6,0.4,1.2,0.4,1.6
	c0,1.2-1.4,2-4.3,2.5c-0.5,0.2-1.6,0.3-3.3,0.3L240.2,25c-3.8,0-8.1,2.1-12.8,6.2c-1.1,1.2-2.2,2.7-3.4,4.7c1.7,2.4,4.1,4.1,7.4,5.1
	c5.3,1.8,13.9,4.5,25.8,8.1c14.7,4.5,22,9.9,22,16v1.1c0,7.9-10.2,14.5-30.6,19.6c-5.7,1.2-10.7,1.8-15.1,1.8
	c-9.9,0-16.1-2.1-18.6-6.4c-0.6-1.4-1-2.7-1-4.1c0-4.2,2.3-7.7,7-10.5c1.7-0.8,3.3-1.3,4.9-1.3c0.3,0.8,0.5,1.7,0.5,2.8l-1,7.8
	c3.9,1.1,7.8,1.7,11.7,1.7c9.9,0,18.8-2.5,26.9-7.5c1.4-1.1,2.6-2.2,3.6-3.4c-2.6-3-5.4-5.1-8.2-6.2c-4-1.9-13.5-4.9-28.3-8.8
	c-12.6-4.1-18.8-9-18.8-14.7v-1c0-5.7,4.8-11.3,14.5-16.7c4.9-2.6,9.9-3.9,15.2-3.9H243.5z M297.4,43.6c5.4,0,9.8,3.5,13.2,10.6
	c0.6,2.2,0.9,4,0.9,5.2c0,5.2-4,9.4-12.1,12.6v0.1c2.2,3.6,5,5.4,8.4,5.4c4.7,0,9.7-3.8,15-11.3c3.3-3.7,5.8-5.5,7.5-5.5h0.3
	l0.3,0.3v1.6l-0.2,0.6c0.1,0.3,0.3,0.4,0.6,0.5c0.7,0,1.2-0.6,1.4-1.7h0.3v0.2c0,1.8-1.5,4.7-4.6,8.7c-0.5,1-0.9,2-1.1,3.1
	c-1.4,0.3-2.1,0.9-2.1,1.8c-2.9,4.8-7.2,8.2-12.9,10.1c-1.9,0.4-3.4,0.6-4.5,0.6h-1.6c-7.6,0-15.2-5.5-22.6-16.6l-0.8-12.6v-1.2
	c0-5.2,1.7-8.4,5-9.6C291.5,44.6,294.7,43.6,297.4,43.6 M292.7,58.8c0,3.1,0.9,5.3,2.6,6.5c1.2,0,3-0.9,5.5-2.8
	c0.4-1.3,0.6-2.3,0.6-3.1c0-3.1-1.4-5.3-4.2-6.5l-1.2-0.1c-1.6,0-2.4,0.5-2.4,1.5C292.9,55.4,292.7,56.9,292.7,58.8 M360,43.7
	c3.2,0,4.9,0.7,4.9,2.2c0.4,1.5,0.9,2.7,1.7,3.4v0.3c-9.2,4.7-15.9,12.2-20.1,22.7c-2,5.6-2.9,10.1-2.9,13.6
	c-3.1,1.4-5.2,2.1-6.2,2.1c0-1.2-1.3-2.4-3.9-3.6c0-1.8-1.4-8.8-4.3-21.1c-0.6-2.5-1-5.1-1-7.8v-2.1c0.5-1.7,2.1-2.7,4.7-3h0.4
	c3.2,0,5.1,2.2,5.8,6.7l-0.2,2.6c2.4-2.1,5.8-5.7,10.3-10.8c3.7-3.5,7.2-5.2,10.4-5.2H360z M398.3,46.4c1.6,0,3,1.1,4.2,3.3
	c-0.8,2.2-1.2,3.6-1.3,4.1l0.3,1.4c-2.2,1.8-4.7,8.7-7.5,20.6c-2.6,8-5.7,12-9.5,12c-3.3,0-7.1-4.3-11.6-12.9
	c-5.6-8.5-8.4-13.7-8.4-15.7v-1.2c0-3.2,2.8-4.8,8.3-4.8l8.4,15.4l1.5,2c3.1-2.1,5.8-7.6,8-16.5c1.7-4.9,3.2-7.4,4.4-7.4l1.7-0.2
	H398.3z M427.5,54.1c2,0,3.5,0.9,4.5,2.6c0.8,9.6,2.3,17.4,4.5,23.6c1.5,1.7,2.2,3.3,2.2,5v1.3c0,0.9-0.3,1.5-1,2h-2
	c-4,0-7.2-3.7-9.7-11.1l-1.1-1.7c-4.7,5.1-8.1,8.4-10.1,9.6l-1.7-0.3c-0.4,0-1.8,0.5-4.2,1.4l-0.8,0.2c-2.2,0-3.6-2.4-4.1-7.3
	l-0.2-2.4v-1.7c0-7.5,1.6-13.8,4.9-18.8c1.2-1.4,2.4-2.1,3.6-2.1c1.5,0,3,1,4.5,3.1c0,1.6-0.9,5.2-2.6,10.9c-0.3,1-0.4,2.4-0.4,4.2
	v0.6c2.4-1.2,4.6-4.4,6.4-9.4c2.5-6.4,4.3-9.6,5.2-9.6L427.5,54.1z M462.9,46.7c3.8,0,5.9,0.9,6.3,2.8c0.7,1.7,1.1,2.9,1.1,3.4
	c-0.7,1.2-2.3,2-4.8,2.6c-7.5,1.2-11.2,2.2-11.2,3c1.1,1.8,3.9,3.4,8.4,4.6c7.8,1.8,13.5,3.6,17,5.3c3.2,2,4.9,4.6,4.9,7.8
	c0,5.3-4.7,8.9-14.2,10.7c-2.8,0.5-5.4,0.7-7.8,0.7c-9.6-0.6-14.4-1.8-14.4-3.3c-1-1-1.5-2.3-1.5-3.8v-0.8c0-2,1.1-3.8,3.2-5.4
	c5.4,2.6,9.9,3.9,13.6,3.9c3,0,5.5-0.9,7.4-2.6v-0.2c-2.8-1.5-8.1-3.3-16.1-5.2c-7.9-2.2-11.8-5.1-11.8-8.6v-0.5
	c0-5.3,3.3-9.4,9.9-12.3c3.3-1.5,6.4-2.3,9-2.3H462.9z M501.3,10.1v7.5c0,4.9-0.7,18.4-2.1,40.3c-0.2,8.6-0.8,12.9-1.7,12.9
	c-1.3,1.2-2.6,2-4.2,2.2h-0.9c-2.5-0.5-3.7-2.7-3.7-6.5V64c0-2.2,0.7-10,2.1-23.6c0.6-7.9,0.8-13.8,0.8-17.8V19l-0.2-8.1
	c1.7-1.7,3.3-2.6,4.6-2.8l2.1-0.6L501.3,10.1z M493.4,82.7c1.8,0,3.1,0.7,4,2.2c0.3,0.7,0.4,1.2,0.4,1.8c0,2.5-1.8,4.1-5.5,4.9h-2
	c-1.3-1-2-2.2-2-3.7v-0.9c0-2.4,0.9-3.8,2.7-4L493.4,82.7z M225.7,147.1c0.3,0.6,0.5,1.2,0.7,1.9c0.2,0.6,0.3,1.3,0.4,1.9
	c-1.1,0.4-2.1,0.7-3,0.8c-0.9,0.1-1.9,0.2-2.9,0.2c-1.8,0-3.4-0.3-4.8-0.9c-1.4-0.6-2.5-1.4-3.5-2.5c-0.9-1.1-1.6-2.3-2.1-3.8
	c-0.5-1.5-0.7-3-0.7-4.8c0-1.7,0.2-3.3,0.7-4.8c0.5-1.5,1.2-2.8,2.1-3.8c0.9-1.1,2.1-1.9,3.5-2.5c1.4-0.6,2.9-0.9,4.6-0.9
	c1,0,2,0.1,2.9,0.2c0.9,0.1,1.8,0.4,2.8,0.8c-0.1,0.6-0.2,1.3-0.4,1.9c-0.2,0.6-0.5,1.2-0.7,1.9c-0.7-0.3-1.4-0.4-2-0.5
	c-0.6-0.1-1.3-0.2-2.1-0.2c-2.1,0-3.6,0.7-4.7,2c-1.1,1.3-1.7,3.3-1.7,6c0,5.2,2.2,7.9,6.7,7.9c0.8,0,1.5-0.1,2.1-0.2
	C224.3,147.5,225,147.3,225.7,147.1 M230.3,128.3c0.8-0.1,1.6-0.2,2.3-0.2c0.7,0,1.5,0.1,2.3,0.2v19.1h8c0.1,0.4,0.1,0.7,0.1,1
	c0,0.3,0,0.6,0,0.9c0,0.4,0,0.7,0,1c0,0.3-0.1,0.7-0.1,1.1h-12.6V128.3z M246.1,128.3c0.4-0.1,0.8-0.1,1.2-0.1c0.4,0,0.8,0,1.2,0
	c0.3,0,0.7,0,1.1,0c0.4,0,0.8,0.1,1.2,0.1v12c0,1.3,0,2.4,0.1,3.4c0.1,0.9,0.3,1.7,0.6,2.3c0.3,0.6,0.7,1.1,1.2,1.3
	c0.5,0.3,1.2,0.4,2.1,0.4c0.8,0,1.5-0.1,2-0.4c0.5-0.3,0.9-0.7,1.2-1.3c0.3-0.6,0.5-1.4,0.6-2.3c0.1-0.9,0.1-2.1,0.1-3.4v-12
	c0.4-0.1,0.8-0.1,1.2-0.1c0.4,0,0.8,0,1.1,0c0.4,0,0.8,0,1.2,0c0.4,0,0.8,0.1,1.2,0.1v13c0,1.6-0.1,3-0.4,4.3
	c-0.3,1.3-0.7,2.4-1.4,3.3c-0.7,0.9-1.6,1.6-2.7,2.1c-1.1,0.5-2.5,0.8-4.2,0.8c-1.7,0-3.1-0.3-4.3-0.8c-1.1-0.5-2-1.2-2.7-2.1
	c-0.7-0.9-1.1-2-1.4-3.3c-0.3-1.3-0.4-2.7-0.4-4.3V128.3z M272,132.3h-3.8c-0.1-0.3-0.1-0.6-0.1-1c0-0.4,0-0.7,0-1
	c0-0.7,0.1-1.3,0.2-2h8.5v17c0,1.2-0.2,2.2-0.6,3c-0.4,0.8-0.9,1.5-1.5,2c-0.7,0.5-1.4,0.9-2.3,1.1c-0.9,0.3-1.9,0.4-2.9,0.4
	c-0.4,0-0.8-0.1-1.4-0.1c-0.6-0.1-1.1-0.2-1.6-0.3c0-0.2,0-0.3,0-0.4c0-0.2,0-0.3,0-0.5c0-1,0.2-2,0.6-3c0.2,0.1,0.5,0.1,0.8,0.2
	c0.3,0.1,0.6,0.1,0.9,0.1c0.4,0,0.7,0,1.2-0.1c0.4,0,0.8-0.2,1.1-0.4c0.3-0.2,0.6-0.5,0.8-1c0.2-0.4,0.3-1,0.3-1.8V132.3z
	 M288.8,140.7c0.1,0.6,0.2,1.3,0.2,2c0,0.7-0.1,1.3-0.2,2h-8.2c-0.1-0.6-0.2-1.3-0.2-2c0-0.7,0.1-1.4,0.2-2H288.8z M293,128.3
	c0.7-0.1,1.3-0.2,1.9-0.2c0.6,0,1.3,0.1,2,0.2l9,14.7v-14.7c0.8-0.1,1.5-0.2,2.2-0.2c0.7,0,1.3,0.1,1.9,0.2v23.2
	c-0.7,0.1-1.3,0.2-1.9,0.2c-0.6,0-1.2-0.1-2-0.2l-9-14.7v14.7c-0.7,0.1-1.4,0.2-2.1,0.2c-0.7,0-1.4-0.1-2.1-0.2V128.3z M319.8,128.3
	c0.4-0.1,0.9-0.1,1.3-0.1c0.4,0,0.9,0,1.4,0c0.4,0,0.8,0,1.2,0c0.4,0,0.8,0.1,1.3,0.1l7.2,23.2c-0.9,0.1-1.7,0.2-2.6,0.2
	c-0.8,0-1.6-0.1-2.4-0.2l-1.3-4.7h-7.7l-1.3,4.7c-0.8,0.1-1.5,0.2-2.2,0.2c-0.8,0-1.6-0.1-2.4-0.2L319.8,128.3z M325,143l-2.7-9.7
	l-2.8,9.7H325z M334.9,128.2c1-0.1,2-0.2,3-0.2c1-0.1,2-0.1,3.1-0.1c1.1,0,2.2,0.1,3.3,0.3c1.1,0.2,2.1,0.6,3,1.2
	c0.9,0.6,1.6,1.4,2.2,2.5c0.6,1.1,0.8,2.4,0.8,4.1c0,1.7-0.3,3-0.8,4.1c-0.6,1-1.3,1.9-2.2,2.5c-0.9,0.6-1.9,1-2.9,1.2
	c-1.1,0.2-2.1,0.3-3.2,0.3c-0.3,0-0.5,0-0.8,0c-0.2,0-0.5,0-0.7,0v7.4c-0.4,0.1-0.8,0.1-1.2,0.1c-0.4,0-0.8,0-1.1,0
	c-0.3,0-0.7,0-1.1,0c-0.4,0-0.8-0.1-1.3-0.1V128.2z M339.6,140.2c0.3,0.1,0.5,0.1,0.7,0.1h0.8c0.5,0,1.1-0.1,1.6-0.2
	c0.5-0.1,1-0.4,1.4-0.7c0.4-0.3,0.7-0.8,0.9-1.3c0.3-0.5,0.4-1.2,0.4-1.9c0-0.8-0.1-1.5-0.4-2c-0.2-0.5-0.6-1-0.9-1.3
	c-0.4-0.3-0.9-0.6-1.4-0.7c-0.5-0.1-1-0.2-1.6-0.2c-0.2,0-0.4,0-0.7,0c-0.2,0-0.5,0-0.9,0.1V140.2z M363.1,151.9
	c-1.7,0-3.2-0.3-4.5-0.9c-1.3-0.6-2.3-1.4-3.1-2.5c-0.8-1.1-1.4-2.3-1.8-3.8c-0.4-1.4-0.6-3-0.6-4.7c0-1.7,0.2-3.3,0.6-4.8
	c0.4-1.5,1-2.8,1.8-3.8c0.8-1.1,1.8-1.9,3.1-2.5c1.3-0.6,2.8-0.9,4.5-0.9c1.7,0,3.3,0.3,4.5,0.9c1.3,0.6,2.3,1.4,3.1,2.5
	c0.8,1.1,1.4,2.4,1.8,3.8c0.4,1.5,0.6,3.1,0.6,4.8c0,1.7-0.2,3.3-0.6,4.7c-0.4,1.5-1,2.7-1.8,3.8c-0.8,1.1-1.9,1.9-3.1,2.5
	C366.4,151.6,364.9,151.9,363.1,151.9 M363.1,147.9c3.3,0,5-2.7,5-8c0-2.6-0.4-4.7-1.2-6c-0.8-1.3-2.1-2-3.8-2c-3.4,0-5.1,2.7-5.1,8
	C358.1,145.3,359.8,147.9,363.1,147.9 M392.3,147.1c0.3,0.6,0.5,1.2,0.7,1.9c0.2,0.6,0.3,1.3,0.4,1.9c-1.1,0.4-2.1,0.7-3,0.8
	c-0.9,0.1-1.8,0.2-2.9,0.2c-1.8,0-3.4-0.3-4.8-0.9c-1.4-0.6-2.5-1.4-3.5-2.5c-0.9-1.1-1.6-2.3-2.1-3.8c-0.4-1.5-0.7-3-0.7-4.8
	c0-1.7,0.2-3.3,0.7-4.8c0.5-1.5,1.2-2.8,2.1-3.8c0.9-1.1,2.1-1.9,3.5-2.5c1.4-0.6,2.9-0.9,4.6-0.9c1,0,2,0.1,2.9,0.2
	c0.9,0.1,1.8,0.4,2.8,0.8c0,0.6-0.2,1.3-0.4,1.9c-0.2,0.6-0.5,1.2-0.7,1.9c-0.7-0.3-1.4-0.4-2-0.5c-0.6-0.1-1.3-0.2-2.1-0.2
	c-2.1,0-3.6,0.7-4.7,2c-1.1,1.3-1.7,3.3-1.7,6c0,5.2,2.2,7.9,6.7,7.9c0.8,0,1.5-0.1,2.1-0.2C390.9,147.5,391.6,147.3,392.3,147.1
	 M402.3,128.3c0.4-0.1,0.9-0.1,1.3-0.1c0.4,0,0.9,0,1.4,0c0.4,0,0.8,0,1.2,0c0.4,0,0.9,0.1,1.3,0.1l7.2,23.2
	c-0.9,0.1-1.7,0.2-2.6,0.2c-0.8,0-1.6-0.1-2.4-0.2l-1.3-4.7h-7.7l-1.3,4.7c-0.8,0.1-1.5,0.2-2.2,0.2c-0.8,0-1.6-0.1-2.4-0.2
	L402.3,128.3z M407.5,143l-2.7-9.7L402,143H407.5z M217.6,170.9c0.2,0.4,0.4,0.8,0.4,1.2c-0.4,0.2-0.8,0.3-1.3,0.4
	c-0.4,0.1-0.9,0.1-1.4,0.1c-0.8,0-1.5-0.1-2.1-0.4c-0.6-0.2-1.1-0.6-1.6-1.1c-0.4-0.5-0.8-1-1-1.7c-0.2-0.7-0.3-1.4-0.3-2.3
	c0-0.9,0.1-1.6,0.3-2.3c0.2-0.7,0.6-1.3,1-1.7c0.4-0.5,0.9-0.9,1.6-1.1c0.6-0.3,1.3-0.4,2.1-0.4c0.6,0,1,0.1,1.5,0.1
	c0.4,0.1,0.8,0.2,1.1,0.3c0,0.2-0.1,0.4-0.1,0.6c-0.1,0.2-0.1,0.4-0.2,0.6c-0.1,0-0.3-0.1-0.4-0.1c-0.1,0-0.3-0.1-0.4-0.1
	c-0.2,0-0.3-0.1-0.5-0.1c-0.2,0-0.4,0-0.6,0c-1.1,0-1.9,0.4-2.5,1.1c-0.6,0.7-0.9,1.8-0.9,3.2c0,0.7,0.1,1.3,0.3,1.8
	c0.2,0.5,0.4,0.9,0.7,1.3c0.3,0.3,0.7,0.6,1.1,0.8c0.4,0.2,0.9,0.3,1.4,0.3c0.4,0,0.8,0,1.1-0.1C217,171.1,217.3,171,217.6,170.9
	 M227.6,170h-4l-0.7,2.4c-0.1,0-0.3,0-0.4,0.1c-0.1,0-0.3,0-0.4,0c-0.1,0-0.3,0-0.4,0c-0.1,0-0.3,0-0.4-0.1l3.5-10.6
	c0.1,0,0.3,0,0.4,0c0.2,0,0.3,0,0.4,0c0.1,0,0.3,0,0.4,0c0.1,0,0.3,0,0.4,0l3.5,10.6c-0.1,0-0.3,0-0.4,0.1c-0.1,0-0.3,0-0.4,0
	c-0.1,0-0.3,0-0.4,0c-0.1,0-0.3,0-0.4-0.1L227.6,170z M224,168.7h3.2l-1.6-5.4L224,168.7z M234,161.8c0.1,0,0.3,0,0.5-0.1
	c0.2,0,0.4,0,0.6-0.1c0.2,0,0.4,0,0.7,0c0.2,0,0.4,0,0.6,0c0.5,0,1.1,0.1,1.5,0.2c0.5,0.1,0.9,0.3,1.3,0.6c0.4,0.3,0.7,0.6,0.9,1.1
	c0.2,0.4,0.3,1,0.3,1.6c0,0.7-0.1,1.3-0.3,1.7c-0.3,0.4-0.6,0.8-0.9,1.1c-0.4,0.3-0.8,0.5-1.3,0.6c-0.5,0.1-1,0.2-1.5,0.2H236
	c-0.1,0-0.3,0-0.5-0.1v3.8c-0.2,0-0.5,0.1-0.8,0.1c-0.1,0-0.2,0-0.4,0c-0.1,0-0.3,0-0.4-0.1V161.8z M235.5,167.3c0.2,0,0.3,0,0.4,0
	c0.1,0,0.3,0,0.5,0c0.3,0,0.6,0,0.9-0.1c0.3-0.1,0.6-0.2,0.8-0.3c0.2-0.2,0.4-0.4,0.6-0.7c0.1-0.3,0.2-0.7,0.2-1.1
	c0-0.4-0.1-0.7-0.2-1c-0.1-0.3-0.3-0.5-0.5-0.7c-0.2-0.2-0.5-0.3-0.8-0.4c-0.3-0.1-0.6-0.1-1-0.1c-0.4,0-0.7,0-1,0V167.3z
	 M244.8,161.8c0.1,0,0.3,0,0.4,0c0.1,0,0.3,0,0.4,0c0.1,0,0.3,0,0.4,0c0.1,0,0.3,0,0.4,0v10.6c-0.1,0-0.2,0-0.3,0.1
	c-0.1,0-0.3,0-0.4,0c-0.1,0-0.3,0-0.4,0c-0.1,0-0.3,0-0.4-0.1V161.8z M253.2,163.1h-2.8c0-0.1,0-0.2,0-0.3c0-0.1,0-0.2,0-0.4
	c0-0.1,0-0.2,0-0.3c0-0.1,0-0.2,0-0.3h7c0,0.1,0,0.2,0,0.3c0,0.1,0,0.2,0,0.3c0,0.1,0,0.2,0,0.4c0,0.1,0,0.2,0,0.3h-2.8v9.3
	c-0.2,0-0.5,0.1-0.8,0.1c-0.3,0-0.5,0-0.8-0.1V163.1z M266.9,170h-4l-0.7,2.4c-0.1,0-0.3,0-0.4,0.1c-0.1,0-0.3,0-0.4,0
	c-0.1,0-0.3,0-0.4,0c-0.1,0-0.3,0-0.4-0.1l3.5-10.6c0.1,0,0.3,0,0.4,0c0.1,0,0.3,0,0.4,0c0.2,0,0.3,0,0.4,0c0.1,0,0.3,0,0.4,0
	l3.5,10.6c-0.1,0-0.3,0-0.4,0.1c-0.2,0-0.3,0-0.4,0c-0.1,0-0.3,0-0.4,0c-0.1,0-0.3,0-0.4-0.1L266.9,170z M263.2,168.7h3.2l-1.6-5.4
	L263.2,168.7z M273.2,161.8c0.1,0,0.2,0,0.3,0c0.1,0,0.3,0,0.4,0c0.1,0,0.3,0,0.4,0c0.1,0,0.3,0,0.4,0v9.3h4.2c0,0.1,0,0.2,0,0.3
	c0,0.1,0,0.2,0,0.3c0,0.3,0,0.5-0.1,0.7h-5.7V161.8z M288.2,170h-4l-0.7,2.4c-0.1,0-0.3,0-0.4,0.1c-0.1,0-0.3,0-0.4,0
	c-0.1,0-0.3,0-0.4,0c-0.1,0-0.3,0-0.4-0.1l3.5-10.6c0.1,0,0.3,0,0.4,0c0.2,0,0.3,0,0.5,0c0.1,0,0.3,0,0.4,0c0.2,0,0.3,0,0.4,0
	l3.5,10.6c-0.1,0-0.3,0-0.4,0.1c-0.1,0-0.3,0-0.4,0c-0.1,0-0.3,0-0.4,0c-0.1,0-0.3,0-0.4-0.1L288.2,170z M284.6,168.7h3.2l-1.6-5.4
	L284.6,168.7z M286.2,161c-0.2,0-0.5,0-0.8-0.1c-0.3,0-0.5-0.1-0.8-0.3c-0.2-0.1-0.4-0.3-0.6-0.5c-0.2-0.2-0.3-0.5-0.3-0.9
	c0.1,0,0.2,0,0.3-0.1c0.1,0,0.2,0,0.3,0c0.1,0,0.2,0,0.3,0c0.1,0,0.2,0,0.3,0.1c0.1,0.2,0.1,0.4,0.3,0.6c0.2,0.2,0.5,0.2,0.9,0.2
	c0.4,0,0.7-0.1,0.9-0.2c0.2-0.2,0.3-0.4,0.3-0.6c0.2-0.1,0.5-0.1,0.7-0.1c0.1,0,0.2,0,0.3,0c0.1,0,0.2,0,0.3,0.1
	c0,0.4-0.2,0.7-0.3,0.9c-0.2,0.2-0.4,0.4-0.6,0.5c-0.3,0.1-0.5,0.2-0.8,0.3C286.7,161,286.5,161,286.2,161 M299.2,161.8h5.8
	c0,0.2,0,0.4,0,0.6c0,0.1,0,0.2,0,0.4c0,0.1,0,0.2,0,0.3h-4.4v3h3.5c0,0.1,0,0.2,0.1,0.3c0,0.1,0,0.2,0,0.3s0,0.2,0,0.3
	c0,0.1,0,0.2-0.1,0.3h-3.5v3.7h4.5c0,0.2,0,0.4,0,0.6v0.3c0,0.1,0,0.2,0,0.3h-6V161.8z M309.4,161.8c0.2,0,0.5,0,0.8,0
	c0.3,0,0.5,0,0.7,0v6c0,0.6,0,1.1,0.1,1.6c0.1,0.4,0.2,0.8,0.4,1.1c0.2,0.3,0.4,0.5,0.7,0.6c0.3,0.1,0.6,0.2,1.1,0.2
	c0.4,0,0.8-0.1,1.1-0.2c0.3-0.1,0.5-0.3,0.7-0.6c0.2-0.3,0.3-0.6,0.4-1.1c0.1-0.4,0.1-1,0.1-1.6v-6c0.2,0,0.5,0,0.8,0
	c0.3,0,0.5,0,0.8,0v6.3c0,0.7-0.1,1.3-0.2,1.9c-0.1,0.6-0.4,1-0.6,1.4c-0.3,0.4-0.7,0.7-1.2,0.9c-0.5,0.2-1.1,0.3-1.7,0.3
	c-0.7,0-1.3-0.1-1.8-0.3c-0.5-0.2-0.9-0.5-1.2-0.9c-0.3-0.4-0.5-0.9-0.6-1.4c-0.1-0.6-0.2-1.2-0.2-1.9V161.8z M322,161.8
	c0.2,0,0.4,0,0.6-0.1c0.2,0,0.3,0,0.5-0.1c0.2,0,0.3,0,0.5,0c0.2,0,0.4,0,0.6,0c0.5,0,1,0.1,1.5,0.2c0.5,0.1,0.9,0.3,1.3,0.5
	c0.4,0.3,0.7,0.6,0.9,1c0.2,0.4,0.4,0.9,0.4,1.6c0,0.4-0.1,0.7-0.2,1c-0.1,0.3-0.3,0.6-0.5,0.8c-0.2,0.3-0.4,0.5-0.6,0.6
	c-0.3,0.2-0.5,0.3-0.8,0.5l-0.2,0.1l3.1,4.5c-0.3,0-0.6,0.1-0.9,0.1c-0.3,0-0.5,0-0.8-0.1l-3.4-4.9v-0.1l0.1,0
	c0.3-0.1,0.5-0.2,0.8-0.3c0.3-0.1,0.6-0.3,0.8-0.5c0.3-0.2,0.4-0.4,0.6-0.7c0.2-0.3,0.3-0.6,0.3-1c0-0.7-0.2-1.2-0.6-1.6
	c-0.4-0.4-1-0.5-1.7-0.5c-0.2,0-0.3,0-0.5,0c-0.1,0-0.3,0-0.5,0.1v9.5c-0.1,0-0.2,0-0.4,0c-0.1,0-0.3,0-0.4,0s-0.3,0-0.4,0
	c-0.1,0-0.2,0-0.4-0.1V161.8z M337.4,172.6c-0.8,0-1.4-0.1-2-0.4c-0.6-0.3-1-0.6-1.4-1.1c-0.4-0.5-0.6-1.1-0.8-1.7
	c-0.2-0.7-0.3-1.4-0.3-2.2c0-0.8,0.1-1.5,0.3-2.2c0.2-0.7,0.4-1.2,0.8-1.7c0.4-0.5,0.8-0.9,1.4-1.1c0.6-0.3,1.2-0.4,2-0.4
	s1.4,0.1,2,0.4c0.6,0.3,1,0.6,1.4,1.1c0.4,0.5,0.6,1.1,0.8,1.7c0.2,0.7,0.3,1.4,0.3,2.2c0,0.8-0.1,1.5-0.3,2.2
	c-0.2,0.7-0.4,1.2-0.8,1.7c-0.4,0.5-0.8,0.9-1.4,1.1C338.8,172.5,338.1,172.6,337.4,172.6 M337.4,171.3c0.5,0,0.9-0.1,1.3-0.3
	c0.3-0.2,0.6-0.5,0.9-0.8c0.2-0.4,0.4-0.8,0.5-1.3c0.1-0.5,0.2-1.1,0.2-1.7s-0.1-1.2-0.2-1.7c-0.1-0.5-0.3-1-0.5-1.3
	c-0.3-0.4-0.5-0.6-0.9-0.8c-0.4-0.2-0.8-0.3-1.3-0.3c-0.5,0-0.9,0.1-1.3,0.3c-0.4,0.2-0.7,0.5-0.9,0.8c-0.2,0.4-0.4,0.8-0.5,1.3
	c-0.1,0.5-0.2,1.1-0.2,1.7s0.1,1.2,0.2,1.7c0.1,0.5,0.3,0.9,0.5,1.3c0.2,0.4,0.5,0.6,0.9,0.8C336.5,171.2,336.9,171.3,337.4,171.3
	 M346.5,161.8c0.1,0,0.3,0,0.5-0.1c0.2,0,0.4,0,0.6-0.1c0.2,0,0.4,0,0.6,0c0.2,0,0.4,0,0.6,0c0.5,0,1.1,0.1,1.6,0.2
	c0.5,0.1,0.9,0.3,1.3,0.6c0.4,0.3,0.7,0.6,0.9,1.1c0.2,0.4,0.3,1,0.3,1.6c0,0.7-0.1,1.3-0.3,1.7c-0.2,0.4-0.5,0.8-0.9,1.1
	c-0.4,0.3-0.8,0.5-1.3,0.6c-0.5,0.1-1,0.2-1.5,0.2h-0.5c-0.2,0-0.3,0-0.5-0.1v3.8c-0.2,0-0.5,0.1-0.8,0.1c-0.1,0-0.2,0-0.4,0
	c-0.1,0-0.3,0-0.4-0.1V161.8z M348,167.3c0.1,0,0.3,0,0.4,0c0.1,0,0.3,0,0.5,0c0.3,0,0.6,0,0.9-0.1c0.3-0.1,0.6-0.2,0.8-0.3
	c0.2-0.2,0.4-0.4,0.6-0.7c0.1-0.3,0.2-0.7,0.2-1.1c0-0.4-0.1-0.7-0.2-1c-0.1-0.3-0.3-0.5-0.5-0.7c-0.2-0.2-0.5-0.3-0.8-0.4
	c-0.3-0.1-0.6-0.1-1-0.1c-0.4,0-0.7,0-1,0V167.3z M357.3,161.8h5.9c0,0.2,0,0.4,0,0.6v0.4c0,0.1,0,0.2,0,0.3h-4.3v3h3.5
	c0,0.1,0,0.2,0.1,0.3c0,0.1,0,0.2,0,0.3s0,0.2,0,0.3c0,0.1,0,0.2-0.1,0.3h-3.5v3.7h4.4c0,0.2,0.1,0.4,0.1,0.6c0,0.1,0,0.2,0,0.3
	c0,0.1,0,0.2,0,0.3h-6V161.8z M373,170h-4l-0.7,2.4c-0.1,0-0.3,0-0.4,0.1c-0.1,0-0.3,0-0.4,0c-0.1,0-0.3,0-0.4,0
	c-0.1,0-0.3,0-0.4-0.1l3.5-10.6c0.1,0,0.3,0,0.4,0c0.1,0,0.3,0,0.4,0s0.3,0,0.4,0c0.1,0,0.3,0,0.4,0l3.4,10.6c-0.1,0-0.3,0-0.4,0.1
	c-0.2,0-0.3,0-0.4,0c-0.1,0-0.3,0-0.4,0c-0.1,0-0.3,0-0.4-0.1L373,170z M369.3,168.7h3.2l-1.6-5.4L369.3,168.7z M379.3,161.8
	c0.1,0,0.2,0,0.4,0c0.1,0,0.2,0,0.4,0c0.1,0,0.2,0,0.3,0c0.1,0,0.2,0,0.4,0l4.6,8v-8c0.1,0,0.2,0,0.4,0c0.1,0,0.3,0,0.4,0
	c0.1,0,0.2,0,0.3,0c0.1,0,0.2,0,0.3,0v10.6c-0.1,0-0.2,0-0.4,0.1c-0.1,0-0.2,0-0.3,0c-0.1,0-0.2,0-0.3,0c-0.1,0-0.2,0-0.3-0.1
	l-4.7-7.9v7.9c-0.1,0-0.2,0-0.3,0.1c-0.1,0-0.3,0-0.4,0c-0.1,0-0.3,0-0.4,0c-0.1,0-0.2,0-0.3-0.1V161.8z M397.1,170h-4l-0.7,2.4
	c-0.1,0-0.3,0-0.4,0.1c-0.1,0-0.3,0-0.4,0c-0.1,0-0.3,0-0.4,0c-0.1,0-0.3,0-0.4-0.1l3.5-10.6c0.1,0,0.3,0,0.4,0c0.2,0,0.3,0,0.5,0
	s0.3,0,0.4,0c0.1,0,0.3,0,0.4,0l3.4,10.6c-0.1,0-0.3,0-0.4,0.1c-0.1,0-0.3,0-0.4,0c-0.1,0-0.3,0-0.4,0c-0.1,0-0.3,0-0.4-0.1
	L397.1,170z M393.5,168.7h3.2l-1.6-5.4L393.5,168.7z M395.1,161c-0.2,0-0.5,0-0.8-0.1c-0.3,0-0.5-0.1-0.8-0.3
	c-0.2-0.1-0.5-0.3-0.6-0.5c-0.2-0.2-0.3-0.5-0.3-0.9c0.1,0,0.2,0,0.3-0.1c0.1,0,0.2,0,0.3,0c0.1,0,0.3,0,0.4,0c0.1,0,0.2,0,0.3,0.1
	c0,0.2,0.1,0.4,0.3,0.6c0.2,0.2,0.4,0.2,0.9,0.2c0.4,0,0.7-0.1,0.9-0.2c0.2-0.2,0.3-0.4,0.3-0.6c0.2-0.1,0.5-0.1,0.7-0.1
	c0.1,0,0.2,0,0.3,0c0.1,0,0.2,0,0.3,0.1c0,0.4-0.2,0.7-0.3,0.9c-0.2,0.2-0.4,0.4-0.6,0.5c-0.2,0.1-0.5,0.2-0.8,0.3
	C395.6,161,395.3,161,395.1,161 M413.3,170h-4l-0.7,2.4c-0.1,0-0.3,0-0.4,0.1c-0.1,0-0.3,0-0.4,0c-0.1,0-0.3,0-0.4,0
	c-0.1,0-0.3,0-0.4-0.1l3.5-10.6c0.1,0,0.3,0,0.4,0c0.1,0,0.3,0,0.4,0c0.1,0,0.3,0,0.4,0c0.1,0,0.3,0,0.4,0l3.4,10.6
	c-0.1,0-0.3,0-0.4,0.1c-0.2,0-0.3,0-0.4,0c-0.1,0-0.3,0-0.4,0c-0.1,0-0.3,0-0.4-0.1L413.3,170z M409.6,168.7h3.2l-1.6-5.4
	L409.6,168.7z M430.9,170.9c0.2,0.4,0.3,0.8,0.4,1.2c-0.4,0.2-0.8,0.3-1.3,0.4c-0.4,0.1-0.9,0.1-1.4,0.1c-0.8,0-1.5-0.1-2.1-0.4
	c-0.6-0.2-1.1-0.6-1.6-1.1c-0.4-0.5-0.7-1-1-1.7c-0.3-0.7-0.3-1.4-0.3-2.3c0-0.9,0.1-1.6,0.3-2.3c0.2-0.7,0.5-1.3,1-1.7
	c0.4-0.5,1-0.9,1.6-1.1c0.6-0.3,1.3-0.4,2.1-0.4c0.6,0,1,0.1,1.5,0.1c0.4,0.1,0.8,0.2,1.1,0.3c0,0.2-0.1,0.4-0.1,0.6
	c-0.1,0.2-0.1,0.4-0.2,0.6c-0.1,0-0.3-0.1-0.4-0.1c-0.1,0-0.3-0.1-0.4-0.1c-0.1,0-0.3-0.1-0.5-0.1c-0.2,0-0.4,0-0.7,0
	c-1.1,0-1.9,0.4-2.5,1.1c-0.6,0.7-0.9,1.8-0.9,3.2c0,0.7,0.1,1.3,0.3,1.8c0.2,0.5,0.4,0.9,0.7,1.3c0.3,0.3,0.7,0.6,1.1,0.8
	c0.4,0.2,0.9,0.3,1.5,0.3c0.4,0,0.8,0,1.1-0.1C430.3,171.1,430.6,171,430.9,170.9 M435.7,161.8c0.2,0,0.5,0,0.8,0c0.3,0,0.5,0,0.7,0
	v6c0,0.6,0,1.1,0.1,1.6c0.1,0.4,0.2,0.8,0.4,1.1c0.2,0.3,0.4,0.5,0.7,0.6c0.3,0.1,0.6,0.2,1.1,0.2s0.8-0.1,1.1-0.2
	c0.3-0.1,0.5-0.3,0.7-0.6c0.2-0.3,0.3-0.6,0.4-1.1c0.1-0.4,0.1-1,0.1-1.6v-6c0.2,0,0.5,0,0.8,0c0.3,0,0.5,0,0.8,0v6.3
	c0,0.7-0.1,1.3-0.2,1.9c-0.1,0.6-0.3,1-0.6,1.4c-0.3,0.4-0.7,0.7-1.2,0.9c-0.5,0.2-1.1,0.3-1.8,0.3s-1.3-0.1-1.8-0.3
	c-0.5-0.2-0.9-0.5-1.2-0.9c-0.3-0.4-0.5-0.9-0.6-1.4c-0.1-0.6-0.2-1.2-0.2-1.9V161.8z M448.2,161.8c0.1,0,0.2,0,0.4,0
	c0.1,0,0.3,0,0.4,0c0.1,0,0.3,0,0.4,0c0.1,0,0.3,0,0.4,0v9.3h4.2c0,0.1,0,0.2,0,0.3v0.3c0,0.3,0,0.5,0,0.7h-5.7V161.8z M459.8,163.1
	H457c0-0.1,0-0.2,0-0.3c0-0.1,0-0.2,0-0.4c0-0.1,0-0.2,0-0.3c0-0.1,0-0.2,0-0.3h7.1c0,0.1,0,0.2,0,0.3c0,0.1,0,0.2,0,0.3
	c0,0.1,0,0.2,0,0.4c0,0.1,0,0.2,0,0.3h-2.8v9.3c-0.2,0-0.5,0.1-0.7,0.1c-0.3,0-0.5,0-0.8-0.1V163.1z M468.1,161.8c0.2,0,0.5,0,0.8,0
	s0.5,0,0.7,0v6c0,0.6,0.1,1.1,0.1,1.6c0.1,0.4,0.2,0.8,0.4,1.1c0.2,0.3,0.4,0.5,0.7,0.6c0.3,0.1,0.6,0.2,1.1,0.2
	c0.4,0,0.8-0.1,1.1-0.2c0.3-0.1,0.5-0.3,0.7-0.6c0.2-0.3,0.3-0.6,0.4-1.1c0.1-0.4,0.1-1,0.1-1.6v-6c0.3,0,0.5,0,0.8,0
	c0.3,0,0.5,0,0.8,0v6.3c0,0.7-0.1,1.3-0.2,1.9c-0.1,0.6-0.4,1-0.7,1.4c-0.3,0.4-0.7,0.7-1.2,0.9c-0.5,0.2-1.1,0.3-1.8,0.3
	c-0.7,0-1.3-0.1-1.8-0.3c-0.5-0.2-0.9-0.5-1.2-0.9c-0.3-0.4-0.5-0.9-0.6-1.4c-0.1-0.6-0.2-1.2-0.2-1.9V161.8z M480.7,161.8
	c0.2,0,0.4,0,0.6-0.1c0.2,0,0.4,0,0.5-0.1c0.2,0,0.4,0,0.6,0c0.2,0,0.4,0,0.6,0c0.5,0,1,0.1,1.5,0.2c0.5,0.1,0.9,0.3,1.3,0.5
	c0.4,0.3,0.7,0.6,0.9,1c0.2,0.4,0.4,0.9,0.4,1.6c0,0.4-0.1,0.7-0.2,1c-0.1,0.3-0.3,0.6-0.5,0.8c-0.2,0.3-0.4,0.5-0.7,0.6
	c-0.2,0.2-0.5,0.3-0.7,0.5l-0.2,0.1l3.1,4.5c-0.3,0-0.6,0.1-0.9,0.1c-0.3,0-0.5,0-0.8-0.1l-3.4-4.9v-0.1l0.1,0
	c0.3-0.1,0.5-0.2,0.8-0.3c0.3-0.1,0.6-0.3,0.8-0.5c0.3-0.2,0.5-0.4,0.6-0.7c0.2-0.3,0.3-0.6,0.3-1c0-0.7-0.2-1.2-0.6-1.6
	c-0.4-0.4-1-0.5-1.7-0.5c-0.1,0-0.3,0-0.5,0c-0.1,0-0.3,0-0.5,0.1v9.5c-0.1,0-0.2,0-0.4,0c-0.1,0-0.3,0-0.4,0c-0.1,0-0.3,0-0.4,0
	c-0.1,0-0.3,0-0.4-0.1V161.8z M491.9,161.8c0.1,0,0.2,0,0.4,0c0.1,0,0.3,0,0.4,0s0.3,0,0.4,0c0.1,0,0.3,0,0.4,0v10.6
	c-0.1,0-0.3,0-0.4,0.1c-0.1,0-0.3,0-0.4,0c-0.1,0-0.3,0-0.4,0c-0.1,0-0.3,0-0.4-0.1V161.8z M498.5,161.8c0.1,0,0.3,0,0.4,0
	c0.1,0,0.3,0,0.4,0c0.1,0,0.3,0,0.4,0c0.1,0,0.3,0,0.4,0v10.6c-0.1,0-0.2,0-0.3,0.1c-0.1,0-0.3,0-0.4,0c-0.1,0-0.3,0-0.4,0
	c-0.1,0-0.3,0-0.4-0.1V161.8z M215.5,195.4c-0.8,0-1.4-0.1-2-0.4c-0.6-0.3-1-0.6-1.4-1.1c-0.4-0.5-0.6-1.1-0.8-1.7
	c-0.2-0.7-0.3-1.4-0.3-2.2c0-0.8,0.1-1.5,0.3-2.2c0.2-0.7,0.4-1.3,0.8-1.7c0.4-0.5,0.8-0.9,1.4-1.2c0.6-0.3,1.2-0.4,2-0.4
	c0.8,0,1.4,0.1,2,0.4c0.6,0.3,1,0.7,1.4,1.2c0.4,0.5,0.6,1.1,0.8,1.7c0.2,0.7,0.3,1.4,0.3,2.2c0,0.8-0.1,1.5-0.3,2.2
	c-0.2,0.7-0.4,1.2-0.8,1.7c-0.4,0.5-0.8,0.9-1.4,1.1C216.9,195.2,216.3,195.4,215.5,195.4 M215.5,194c0.5,0,0.9-0.1,1.3-0.3
	c0.4-0.2,0.7-0.5,0.9-0.8c0.2-0.4,0.4-0.8,0.5-1.3c0.1-0.5,0.2-1.1,0.2-1.8s-0.1-1.2-0.2-1.7c-0.1-0.5-0.3-0.9-0.5-1.3
	c-0.2-0.4-0.5-0.6-0.9-0.8c-0.4-0.2-0.8-0.3-1.3-0.3c-0.5,0-0.9,0.1-1.3,0.3c-0.4,0.2-0.6,0.5-0.9,0.8c-0.2,0.4-0.4,0.8-0.5,1.3
	c-0.1,0.5-0.2,1.1-0.2,1.7s0.1,1.2,0.2,1.8c0.1,0.5,0.3,0.9,0.5,1.3c0.3,0.4,0.5,0.6,0.9,0.8C214.6,194,215,194,215.5,194
	 M224.7,184.5c0.2,0,0.4,0,0.6-0.1c0.2,0,0.4,0,0.5-0.1c0.2,0,0.4,0,0.5,0c0.2,0,0.4,0,0.6,0c0.5,0,1,0.1,1.5,0.1
	c0.5,0.1,0.9,0.3,1.3,0.5c0.4,0.2,0.7,0.6,1,1c0.2,0.4,0.4,1,0.4,1.6c0,0.4-0.1,0.7-0.2,1.1c-0.1,0.3-0.3,0.6-0.5,0.8
	c-0.2,0.2-0.4,0.5-0.7,0.6c-0.3,0.2-0.5,0.3-0.7,0.4l-0.2,0.1l3.1,4.5c-0.3,0-0.6,0.1-0.9,0.1c-0.3,0-0.5,0-0.8-0.1l-3.4-4.9v-0.1
	l0.1,0c0.3-0.1,0.6-0.2,0.8-0.3c0.3-0.1,0.6-0.3,0.8-0.4c0.2-0.2,0.4-0.4,0.6-0.7c0.2-0.3,0.3-0.6,0.3-1c0-0.7-0.2-1.2-0.6-1.6
	c-0.4-0.3-1-0.5-1.7-0.5c-0.2,0-0.3,0-0.5,0c-0.1,0-0.3,0-0.5,0v9.5c-0.1,0-0.2,0-0.4,0c-0.1,0-0.3,0-0.4,0c-0.1,0-0.2,0-0.4,0
	c-0.1,0-0.3,0-0.4,0V184.5z M241.2,192.7h-4l-0.7,2.5c-0.1,0-0.3,0-0.4,0.1c-0.1,0-0.3,0-0.4,0c-0.1,0-0.3,0-0.4,0
	c-0.1,0-0.3,0-0.4-0.1l3.5-10.6c0.1,0,0.3,0,0.4,0c0.1,0,0.3,0,0.5,0c0.1,0,0.3,0,0.4,0c0.1,0,0.3,0,0.4,0l3.5,10.6
	c-0.1,0-0.3,0-0.4,0.1c-0.1,0-0.3,0-0.4,0c-0.1,0-0.3,0-0.4,0c-0.1,0-0.3,0-0.4-0.1L241.2,192.7z M237.5,191.4h3.2l-1.6-5.4
	L237.5,191.4z M247.2,193.6c0.3,0.1,0.7,0.2,1,0.3c0.3,0.1,0.8,0.1,1.3,0.1c0.8,0,1.4-0.2,1.8-0.5c0.4-0.3,0.6-0.8,0.6-1.3
	c0-0.3,0-0.5-0.1-0.7c-0.1-0.2-0.2-0.4-0.4-0.5c-0.1-0.1-0.4-0.3-0.6-0.4c-0.3-0.1-0.6-0.3-0.9-0.4l-0.8-0.3
	c-0.3-0.1-0.5-0.3-0.8-0.4c-0.2-0.1-0.4-0.3-0.6-0.5c-0.2-0.2-0.3-0.4-0.4-0.7c-0.1-0.3-0.1-0.6-0.1-1c0-0.9,0.3-1.6,0.9-2.1
	c0.6-0.5,1.5-0.8,2.6-0.8c0.5,0,0.9,0,1.3,0.1c0.4,0.1,0.8,0.2,1.1,0.3c-0.1,0.4-0.2,0.8-0.3,1.2c-0.3-0.1-0.6-0.2-0.9-0.3
	c-0.3-0.1-0.7-0.1-1.2-0.1c-0.6,0-1.1,0.1-1.4,0.4c-0.3,0.3-0.5,0.6-0.5,1.1c0,0.2,0.1,0.4,0.1,0.6c0.1,0.2,0.2,0.3,0.3,0.4
	c0.1,0.1,0.3,0.2,0.5,0.3c0.2,0.1,0.4,0.2,0.6,0.3l0.8,0.3c0.4,0.2,0.8,0.3,1.1,0.5c0.3,0.2,0.6,0.4,0.8,0.6
	c0.2,0.2,0.4,0.5,0.5,0.8c0.1,0.3,0.2,0.7,0.2,1.1c0,1-0.4,1.8-1.1,2.4c-0.7,0.6-1.7,0.9-2.9,0.9c-0.3,0-0.6,0-0.8,0
	c-0.3,0-0.5-0.1-0.7-0.1c-0.2,0-0.4-0.1-0.6-0.1c-0.2-0.1-0.4-0.1-0.6-0.2c0-0.2,0.1-0.4,0.1-0.7C247.1,194,247.2,193.8,247.2,193.6
	 M250.3,198.7c-0.1,0-0.2,0-0.3,0c-0.1,0-0.2,0-0.3,0c-0.1,0-0.2,0-0.3,0c-0.1,0-0.2,0-0.3,0l0.6-2.6c0.1,0,0.2,0,0.3,0
	c0.1,0,0.2,0,0.3,0h0.3c0.1,0,0.2,0,0.3,0c0.1,0,0.2,0,0.3,0.1L250.3,198.7z M269.4,193.6c0.2,0.4,0.3,0.8,0.4,1.2
	c-0.4,0.2-0.8,0.3-1.3,0.4c-0.4,0.1-0.9,0.1-1.4,0.1c-0.8,0-1.5-0.1-2.1-0.4c-0.6-0.2-1.1-0.6-1.6-1.1c-0.4-0.5-0.8-1-1-1.7
	c-0.2-0.7-0.3-1.4-0.3-2.3c0-0.8,0.1-1.6,0.3-2.3s0.6-1.3,1-1.8c0.4-0.5,0.9-0.8,1.6-1.1c0.6-0.3,1.3-0.4,2-0.4c0.6,0,1,0,1.5,0.1
	c0.4,0.1,0.8,0.2,1.1,0.3c0,0.2-0.1,0.4-0.1,0.6c-0.1,0.2-0.1,0.4-0.2,0.6c-0.1,0-0.3-0.1-0.4-0.1c-0.1,0-0.3-0.1-0.4-0.1
	c-0.2,0-0.3-0.1-0.5-0.1c-0.2,0-0.4,0-0.6,0c-1.1,0-1.9,0.4-2.5,1.1c-0.6,0.7-0.9,1.8-0.9,3.2c0,0.7,0.1,1.3,0.3,1.8
	c0.2,0.5,0.4,0.9,0.7,1.3c0.3,0.3,0.7,0.6,1.1,0.8c0.4,0.2,0.9,0.3,1.5,0.3c0.4,0,0.8,0,1.1-0.1
	C268.8,193.8,269.1,193.7,269.4,193.6 M279.4,192.7h-4l-0.7,2.5c-0.1,0-0.3,0-0.4,0.1c-0.1,0-0.3,0-0.4,0c-0.1,0-0.3,0-0.4,0
	c-0.1,0-0.3,0-0.4-0.1l3.5-10.6c0.1,0,0.3,0,0.4,0c0.2,0,0.3,0,0.5,0c0.1,0,0.3,0,0.4,0c0.2,0,0.3,0,0.4,0l3.5,10.6
	c-0.1,0-0.3,0-0.4,0.1c-0.1,0-0.3,0-0.4,0c-0.1,0-0.3,0-0.4,0c-0.1,0-0.3,0-0.4-0.1L279.4,192.7z M275.8,191.4h3.2l-1.6-5.4
	L275.8,191.4z M285.8,184.5c0.1,0,0.2,0,0.4,0c0.1,0,0.2,0,0.3,0c0.1,0,0.2,0,0.4,0c0.1,0,0.2,0,0.4,0l4.6,8v-8c0.1,0,0.2,0,0.4,0
	c0.1,0,0.2,0,0.4,0c0.1,0,0.2,0,0.3,0c0.1,0,0.2,0,0.3,0v10.6c-0.1,0-0.2,0-0.3,0.1c-0.1,0-0.3,0-0.3,0c-0.1,0-0.2,0-0.4,0
	c-0.1,0-0.2,0-0.3-0.1l-4.6-7.9v7.9c-0.1,0-0.2,0-0.3,0.1c-0.1,0-0.3,0-0.4,0c-0.1,0-0.2,0-0.4,0c-0.1,0-0.2,0-0.3-0.1V184.5z
	 M298.3,184.5c0.3,0,0.7-0.1,1.2-0.1c0.5,0,0.9,0,1.4,0c1.9,0,3.3,0.5,4.2,1.4c0.9,1,1.4,2.3,1.4,4.1c0,1.9-0.5,3.2-1.4,4.1
	c-0.9,0.9-2.3,1.3-4.2,1.3c-0.5,0-0.9,0-1.4-0.1c-0.4,0-0.8-0.1-1.2-0.1V184.5z M299.8,193.9c0.1,0,0.3,0,0.5,0.1c0.2,0,0.4,0,0.6,0
	c0.6,0,1.1-0.1,1.6-0.2c0.5-0.1,0.9-0.4,1.2-0.7c0.3-0.3,0.6-0.7,0.8-1.3c0.2-0.5,0.3-1.2,0.3-2c0-0.7-0.1-1.4-0.3-1.9
	c-0.2-0.5-0.5-0.9-0.8-1.3c-0.3-0.3-0.8-0.6-1.2-0.7c-0.5-0.1-1-0.2-1.6-0.2c-0.2,0-0.4,0-0.6,0c-0.2,0-0.4,0-0.6,0.1V193.9z
	 M311.1,184.5c0.1,0,0.2,0,0.4,0c0.1,0,0.3,0,0.4,0c0.1,0,0.3,0,0.4,0c0.1,0,0.2,0,0.4,0v10.6c-0.1,0-0.3,0-0.4,0.1
	c-0.1,0-0.3,0-0.4,0c-0.1,0-0.3,0-0.4,0c-0.1,0-0.3,0-0.4-0.1V184.5z M317.7,184.5c0.3,0,0.7-0.1,1.2-0.1c0.5,0,0.9,0,1.4,0
	c1.9,0,3.3,0.5,4.2,1.4c0.9,1,1.4,2.3,1.4,4.1c0,1.9-0.5,3.2-1.4,4.1c-0.9,0.9-2.3,1.3-4.2,1.3c-0.5,0-0.9,0-1.4-0.1
	c-0.4,0-0.8-0.1-1.2-0.1V184.5z M319.2,193.9c0.1,0,0.3,0,0.5,0.1c0.2,0,0.4,0,0.6,0c0.6,0,1.1-0.1,1.6-0.2c0.5-0.1,0.9-0.4,1.2-0.7
	c0.3-0.3,0.6-0.7,0.8-1.3c0.2-0.5,0.3-1.2,0.3-2c0-0.7-0.1-1.4-0.3-1.9c-0.2-0.5-0.5-0.9-0.8-1.3c-0.4-0.3-0.8-0.6-1.2-0.7
	c-0.5-0.1-1-0.2-1.6-0.2c-0.2,0-0.4,0-0.6,0c-0.2,0-0.4,0-0.6,0.1V193.9z M335.7,192.7h-4l-0.7,2.5c-0.1,0-0.3,0-0.4,0.1
	c-0.1,0-0.3,0-0.4,0c-0.1,0-0.3,0-0.4,0c-0.1,0-0.3,0-0.4-0.1l3.5-10.6c0.1,0,0.3,0,0.4,0c0.1,0,0.3,0,0.4,0c0.1,0,0.3,0,0.4,0
	c0.1,0,0.3,0,0.4,0l3.4,10.6c-0.1,0-0.2,0-0.4,0.1c-0.1,0-0.3,0-0.4,0c-0.1,0-0.3,0-0.4,0c-0.1,0-0.3,0-0.4-0.1L335.7,192.7z
	 M332.1,191.4h3.2l-1.6-5.4L332.1,191.4z M343.9,185.8h-2.8c0-0.1-0.1-0.2-0.1-0.3c0-0.1,0-0.2,0-0.3c0-0.1,0-0.2,0-0.3
	c0-0.1,0-0.2,0.1-0.3h7c0,0.1,0,0.2,0.1,0.3c0,0.1,0,0.2,0,0.3c0,0.1,0,0.2,0,0.4c0,0.1,0,0.2-0.1,0.3h-2.8v9.3
	c-0.2,0-0.5,0.1-0.7,0.1c-0.3,0-0.5,0-0.8-0.1V185.8z M422.7,150.2l-0.2-0.5l6.8-7.3c0.7-0.7,1.4-1.5,2-2.2c0.6-0.7,1.2-1.4,1.6-2.1
	c0.5-0.7,0.8-1.4,1.1-2.1c0.3-0.7,0.4-1.4,0.4-2.2c0-1.5-0.4-2.6-1.3-3.3c-0.9-0.7-2.1-1.1-3.7-1.1c-1.2,0-2.2,0.2-3.1,0.5
	c-0.9,0.3-1.7,0.6-2.4,1c-0.1-0.3-0.2-0.6-0.3-1c-0.1-0.4-0.2-0.7-0.3-1.1c0.6-0.3,1.5-0.6,2.5-1c1-0.4,2.2-0.5,3.6-0.5
	c1.2,0,2.2,0.1,3.1,0.4c1,0.3,1.7,0.6,2.4,1.2c0.7,0.5,1.2,1.2,1.5,2c0.4,0.8,0.6,1.7,0.6,2.9c0,0.7-0.1,1.5-0.3,2.2
	c-0.2,0.7-0.5,1.5-1,2.2c-0.4,0.8-1,1.5-1.6,2.3c-0.7,0.8-1.4,1.7-2.3,2.6l-4.5,4.8h10.7c0,0.2,0,0.4,0.1,0.6c0,0.2,0,0.4,0,0.6
	c0,0.2,0,0.4,0,0.5c0,0.2,0,0.3-0.1,0.5H422.7z M443.3,139.1c0-1.7,0.2-3.2,0.6-4.6c0.4-1.4,0.9-2.6,1.6-3.7c0.7-1,1.6-1.8,2.7-2.4
	c1.1-0.6,2.3-0.8,3.7-0.8c1.4,0,2.6,0.3,3.7,0.8c1.1,0.6,2,1.4,2.7,2.4c0.7,1,1.3,2.3,1.6,3.7c0.4,1.4,0.6,3,0.6,4.6
	c0,1.7-0.2,3.2-0.6,4.7c-0.4,1.4-0.9,2.6-1.6,3.7c-0.7,1-1.6,1.8-2.7,2.4c-1.1,0.6-2.3,0.8-3.7,0.8c-1.4,0-2.6-0.3-3.7-0.8
	c-1.1-0.6-2-1.4-2.7-2.4c-0.7-1-1.3-2.2-1.6-3.7C443.5,142.3,443.3,140.7,443.3,139.1 M451.9,129.7c-1.9,0-3.4,0.8-4.5,2.3
	c-1.1,1.5-1.6,3.9-1.6,7c0,3.1,0.5,5.5,1.6,7c1.1,1.6,2.6,2.3,4.5,2.3c1.9,0,3.4-0.8,4.5-2.3c1-1.6,1.6-3.9,1.6-7
	c0-3.1-0.5-5.5-1.6-7C455.3,130.5,453.8,129.7,451.9,129.7 M464.6,150.2l-0.2-0.5l6.8-7.3c0.7-0.7,1.4-1.5,2-2.2
	c0.6-0.7,1.1-1.4,1.6-2.1c0.5-0.7,0.8-1.4,1.1-2.1c0.3-0.7,0.4-1.4,0.4-2.2c0-1.5-0.4-2.6-1.3-3.3c-0.9-0.7-2.1-1.1-3.7-1.1
	c-1.2,0-2.2,0.2-3.1,0.5c-0.9,0.3-1.7,0.6-2.4,1c-0.1-0.3-0.2-0.6-0.3-1c-0.1-0.4-0.2-0.7-0.3-1.1c0.6-0.3,1.5-0.6,2.5-1
	c1-0.4,2.2-0.5,3.6-0.5c1.2,0,2.2,0.1,3.1,0.4c0.9,0.3,1.7,0.6,2.4,1.2c0.7,0.5,1.2,1.2,1.5,2c0.4,0.8,0.6,1.7,0.6,2.9
	c0,0.7-0.1,1.5-0.3,2.2c-0.2,0.7-0.5,1.5-1,2.2c-0.4,0.8-1,1.5-1.6,2.3c-0.7,0.8-1.4,1.7-2.3,2.6l-4.5,4.8h10.6
	c0,0.2,0.1,0.4,0.1,0.6c0,0.2,0,0.4,0,0.6c0,0.2,0,0.4,0,0.5c0,0.2,0,0.3-0.1,0.5H464.6z M488.2,133.8c-0.2-0.3-0.4-0.5-0.5-0.8
	c-0.1-0.3-0.3-0.6-0.4-0.9l8.7-4.5h0.2v20.5h5c0,0.2,0,0.4,0.1,0.5c0,0.1,0,0.3,0,0.5c0,0.2,0,0.4,0,0.5c0,0.2,0,0.4-0.1,0.6h-12.8
	c-0.1-0.2-0.1-0.5-0.1-1c0-0.2,0-0.5,0-0.7c0-0.2,0-0.4,0.1-0.4h5.4V131L488.2,133.8z M211.8,106.3h284.6v1.5H211.8V106.3z"/>
</svg>
