<!-- Generator: Adobe Illustrator 19.2.1, SVG Export Plug-In  -->
<svg version="1.1"
	 xmlns="http://www.w3.org/2000/svg" xmlns:xlink="http://www.w3.org/1999/xlink" xmlns:a="http://ns.adobe.com/AdobeSVGViewerExtensions/3.0/"
	 x="0px" y="0px" width="146px" height="146px" viewBox="0 0 146 146" enable-background="new 0 0 146 146" xml:space="preserve">
<defs>
</defs>
<path fill='#868789' fill-rule="evenodd" clip-rule="evenodd" d="M100.2,120.6c1.1,0.8,1.8,1.8,2.2,3.2c0,0.1,0,0.2,0,0.3c0.1,0.4-0.1,0.6-0.5,0.6
	h-2.6h-2.4h-4.8c-0.7,0-0.9-0.2-0.7-0.9C92.1,120.3,96.6,118,100.2,120.6 M0,0h146v146H0V0z M40.7,45.7c0,1,0.2,2.4,0.5,4.1
	c0.3,1.8,0.8,3.5,1.6,5.2c0.7,1.7,1.6,3.2,2.8,4.5c1.1,1.3,2.6,1.9,4.2,1.9c2.1,0,3.7-0.5,4.8-1.6c1.1-1.1,1.7-3,1.7-5.6
	c0-1.4-0.1-2.8-0.4-4c-0.1-0.8-0.3-1.7-0.4-2.6c-0.1-0.9-0.2-1.7-0.2-2.4c0-2.2,0.4-4.3,1.3-6.2c0.9-1.9,2.1-3.6,3.8-5.1
	c1.6-1.5,3.6-2.7,5.8-3.5c2.2-0.9,4.7-1.3,7.4-1.3c2.5,0,4.7,0.5,6.9,1.4s3.9,2.1,5.5,3.6c1.6,1.5,2.8,3.2,3.7,5.2
	c0.9,2,1.4,4,1.4,6.1c-0.1,1.4-0.3,2.3-0.4,2.9v-0.1c-0.2,0.8-0.3,1.6-0.4,2.4c-0.1,0.8-0.1,1.8-0.1,2.8c0,2,0.4,3.7,1.3,5.2
	c0.8,1.4,2.4,2.2,4.8,2.2c1.8,0,3.3-0.6,4.5-1.7c1.1-1.1,2.1-2.6,2.8-4.2c0.7-1.6,1.2-3.4,1.5-5.2c0.3-1.8,0.4-3.4,0.4-4.8
	c0-2.8-0.3-5.3-1-7.6c-0.6-2.3-1.4-4.4-2.3-6.3c-0.9-1.8-1.8-3.4-2.8-4.7c-0.9-1.3-1.8-2.3-2.5-2.9c-0.5-0.5-1.3-1.2-2.5-2.3
	c-1.2-1.1-2.8-2.2-4.7-3.3c-1.9-1.1-4.3-2-7-2.9c-2.8-0.9-5.9-1.3-9.5-1.3c-5.4,0-10.1,0.9-14.2,2.8c-4,1.9-7.4,4.3-10.2,7.3
	c-2.7,3-4.8,6.4-6.1,10.2c-1.3,3.8-2,7.6-2,11.4V45.7z M41.8,134.1c2.2-0.7,3.7-2.5,3.8-4.7c0.1-2.1-0.7-3.4-2.6-4.1
	c-0.9-0.3-1.8-0.6-2.7-0.8c-1-0.3-2.1-0.5-3.1-0.8c-0.6-0.2-1.2-0.5-1.8-1c-0.6-0.6-0.8-1.6-0.3-2.4c0.4-0.7,1.1-1.1,1.8-1.2
	c1-0.2,2-0.2,3,0c1.3,0.3,2.3,1,2.6,2.3c0.1,0.3,0.2,0.3,0.5,0.4h1.4c0.5,0,0.6-0.1,0.5-0.6v-0.1c-0.3-1.6-1.2-2.9-2.6-3.5
	c-2.3-1.1-4.7-1.1-7-0.2c-1.8,0.7-2.9,2.1-3,4.1c-0.2,1.6,0.4,2.8,1.8,3.6c0.7,0.4,1.4,0.7,2.2,0.9c1.4,0.4,2.7,0.7,4.1,1
	c0.6,0.2,1.2,0.4,1.8,0.7c0.7,0.3,1,1,1,1.8c0,1-0.5,1.7-1.3,2.1c-1.8,0.9-3.6,0.9-5.5,0.2c-0.9-0.4-1.6-1.1-1.8-2.1
	c-0.1-0.2-0.1-0.4-0.1-0.5c-0.1-0.3-0.1-0.4-0.4-0.4c-0.6,0-1.1,0-1.7,0c-0.3,0-0.4,0.1-0.4,0.4c0,0.3,0.1,0.7,0.2,1
	c0.6,2.1,1.9,3.5,4.1,4c0.9,0.2,1.7,0.3,2.6,0.3C39.7,134.5,40.8,134.4,41.8,134.1 M50.2,112.1c0-0.4-0.1-0.5-0.5-0.5
	c-0.6,0-1.1,0-1.7,0c-0.7,0-0.7,0-0.7,0.8V126v7.3c0,0.5,0.1,0.6,0.5,0.6c0.6,0,1.2,0,1.7,0c0.6,0,0.7-0.1,0.7-0.7v-10.4v-5V112.1z
	 M55.8,117.9c0-0.5-0.1-0.6-0.6-0.6c-0.6,0-1.2,0-1.8,0c-0.5,0-0.6,0.1-0.6,0.6v0.1v7.6v5.2v2.6c0,0.3,0.1,0.4,0.4,0.5
	c0.7,0,1.4,0,2.1,0c0.3,0,0.4-0.1,0.4-0.4v-0.2v-6.4V117.9z M55.8,113.4c0-0.4,0-0.9,0-1.3c0-0.3-0.1-0.4-0.4-0.4c-0.7,0-1.4,0-2,0
	c-0.3,0-0.4,0.1-0.5,0.4v2.6c0,0.3,0.1,0.4,0.4,0.4c0.7,0,1.4,0,2.1,0c0.3,0,0.4-0.1,0.4-0.4C55.8,114.2,55.8,113.8,55.8,113.4
	 M61.5,129.2c-1.2-2-1.3-4.2-0.5-6.3c0.6-1.5,1.6-2.5,3.1-3c1.8-0.6,3.5-0.5,5.1,0.6c0.7,0.5,1.2,1.1,1.6,1.8
	c0.2,0.3,0.4,0.4,0.7,0.4c0.4,0,0.7,0,1.1,0v0c0.4,0,0.8,0,1.2,0c0.4,0,0.4-0.1,0.3-0.5c-0.1-0.2-0.1-0.4-0.2-0.5
	c-1-2.1-2.7-3.5-4.9-4.3c-3.4-1.2-7.1-0.2-9.4,2.4c-1.6,1.9-2.2,4.2-2,6.7c0.2,2.4,1.2,4.4,3,5.9c4.4,3.7,11.2,2,13.5-3.2
	c0-0.1,0.1-0.2,0.1-0.3c0-0.2,0-0.3-0.2-0.3c-0.1,0-0.2,0-0.3,0c-0.7,0-1.5,0-2.2,0c-0.3,0-0.5,0.1-0.7,0.4
	c-0.2,0.4-0.5,0.8-0.9,1.1C67.5,132.6,63.3,132.1,61.5,129.2 M70.3,93.7c1.5-0.8,2.9-1.2,4.4-1.2c1.2,0,2.4,0.4,3.7,1.2
	c1.3,0.8,2.5,1.7,3.7,2.8l3.3,2.8c1.2,1,2.3,1.8,3.4,2.5c1.1,0.7,2.1,1,3.2,1c1.4,0,2.5-0.3,3.3-0.9c0.9-0.6,1.3-2,1.3-4.1
	c0-1.3-0.4-2.6-1.3-3.9c-0.9-1.3-1.9-2.6-3.3-3.9H92l-3.2-3c-1.4-1.3-2.6-2.6-3.7-3.9c-1.1-1.3-1.7-2.5-1.7-3.6
	c0-1.3,0.9-2.3,2.7-2.8c1.8-0.6,4.3-0.9,7.6-0.9h-1.2c3.5,0,6.1-0.4,8-1.2c1.9-0.8,2.8-2.5,2.8-5c0-1.4-0.3-2.5-0.9-3.3
	c-0.6-0.8-1.3-1.4-2.3-1.9c-1-0.4-2.1-0.7-3.4-0.8c-1.2-0.1-2.6-0.1-3.9-0.1H53.9c-2.8,0-5.2,0.5-7.1,1.5c-1.9,1-2.8,2.6-2.8,4.8
	c0,1.3,0.4,2.3,1.2,3.1c0.8,0.8,1.7,1.5,2.8,1.9c1.1,0.4,2.1,0.8,3.2,0.9c1,0.2,1.8,0.2,2.4,0.2c2.5,0,8.7,0.3,9.9,0.9
	c1.2,0.6,1.8,1.3,1.8,2.3c0,1.3-0.5,2.5-1.6,3.6c-1.1,1.2-2.4,2.3-4,3.5l-3.9,2.8c-2.2,1.6-4.1,3.4-5.7,5.2
	c-1.6,1.8-2.4,3.9-2.4,6.3c0,3.2,1.6,4.8,4.8,4.8c1.6,0,3.1-0.5,4.7-1.6c1.6-1.1,3.2-2.3,5-3.8v0.1l4.1-3.3
	C67.4,95.5,68.8,94.5,70.3,93.7 M78.9,125.4c0-0.1,0-0.2,0-0.2c0-0.3-0.1-0.5-0.1-0.8v-11c0-0.4,0-0.9,0-1.3c0-0.2-0.1-0.4-0.3-0.4
	c-0.8,0-1.5,0-2.3,0c-0.2,0-0.3,0.1-0.3,0.3v0.3v10.5v1.5v9.1c0,0.5,0.1,0.6,0.6,0.6c0.6,0,1.2,0,1.8,0c0.5,0,0.6-0.1,0.6-0.6v0
	v-7.1C78.8,125.9,78.8,125.7,78.9,125.4 M88.7,133.9c0.2,0,0.3-0.1,0.5-0.1c-0.1-0.1-0.1-0.3-0.2-0.5c-2-2.5-4-5-6-7.5
	c-0.5-0.7-0.5-0.7,0-1.4c1.7-2.2,3.4-4.4,5.1-6.6c0-0.1,0.1-0.1,0.1-0.2c0.1-0.2,0.1-0.3-0.1-0.3c-0.1,0-0.1,0-0.2,0h-2.4
	c-0.3,0-0.5,0.1-0.7,0.4c-0.4,0.5-0.8,1.1-1.2,1.6c-1.5,1.9-2.9,3.9-4.4,5.9c-0.1,0.1-0.1,0.2,0,0.4c0.6,0.8,1.2,1.5,1.8,2.2
	c1.5,1.9,3,3.9,4.5,5.8c0.2,0.3,0.5,0.4,0.9,0.4c0.4,0,0.8,0,1.2,0C87.9,133.9,88.3,133.9,88.7,133.9 M105.3,126.4
	c0.1-1,0.1-2.1-0.2-3.1c-0.9-3.2-2.9-5.3-6.1-6.2c-3.2-0.8-6.1-0.1-8.4,2.4c-2.5,2.8-3,6-1.6,9.5c1.4,3.4,4.7,5.5,8.2,5.3
	c3.4-0.2,5.8-1.9,7.3-4.9c0.2-0.4,0.1-0.6-0.4-0.6c-0.6,0-1.1,0-1.7,0c-0.4,0-0.6,0.1-0.8,0.4c-1.4,1.9-3.3,2.7-5.7,2.3
	c-2.2-0.4-3.7-1.8-4.5-3.9c-0.3-0.7-0.1-0.9,0.6-0.9h6.3c2.1,0,4.3,0,6.4,0C105.2,126.9,105.3,126.7,105.3,126.4 M114.2,119.4
	c0-0.7,0-1.4,0-2.1c0-0.3-0.1-0.4-0.5-0.4c-0.7,0.1-1.5,0.2-2.2,0.6c-0.4,0.3-0.8,0.6-1.2,0.9c-0.1,0.1-0.3,0.2-0.4,0.1
	c-0.1,0-0.2-0.2-0.2-0.4c0-0.2,0-0.4,0-0.5c0-0.2-0.1-0.3-0.3-0.3c-0.7,0-1.4,0-2.1,0c-0.2,0-0.3,0.1-0.3,0.3c0,0.1,0,0.2,0,0.3v7.7
	v5.2v2.7c0,0.3,0.1,0.5,0.4,0.5c0.7,0,1.5,0,2.2,0c0.2,0,0.3-0.1,0.3-0.3v-0.3v-8.4c0-0.8,0.1-1.5,0.3-2.3c0.3-0.9,0.7-1.7,1.6-2.2
	c0.6-0.3,1.2-0.5,1.8-0.6C114.1,119.8,114.2,119.7,114.2,119.4"/>
</svg>
