<!-- Generator: Adobe Illustrator 21.1.0, SVG Export Plug-In  -->
<svg version="1.1"
	 xmlns="http://www.w3.org/2000/svg" xmlns:xlink="http://www.w3.org/1999/xlink" xmlns:a="http://ns.adobe.com/AdobeSVGViewerExtensions/3.0/"
	 x="0px" y="0px" width="41.1px" height="45.3px" viewBox="0 0 41.1 45.3" style="enable-background:new 0 0 41.1 45.3;"
	 xml:space="preserve">
<style type="text/css">
	.st0{fill:#868789;}
</style>
<defs>
</defs>
<path class="st0" d="M33.9,9.7C33.9,9.7,33.9,9.7,33.9,9.7c-0.4-0.2-1-0.6-0.8-1.3c0.1-0.3,0.3-0.4,0.4-0.4c0.2-0.1,0.4,0,0.6,0.1
	L35,5.3l-2.9-0.7l-0.2,4.1c0,0.1,0,0.1-0.1,0.2c-0.1,0-0.1,0.1-0.2,0.1c-0.3,0-1.2-0.2-1.2-0.7c0-0.5,0.8-0.7,1-0.7l0.2-3.2
	c0-0.1,0-0.1,0.1-0.2c0.1,0,0.1-0.1,0.2,0l3.4,0.8c0.1,0,0.1,0.1,0.2,0.1c0,0.1,0,0.1,0,0.2l-1.4,4.4C34.1,9.6,34.1,9.7,33.9,9.7
	C34,9.7,34,9.7,33.9,9.7z M33.7,8.5C33.7,8.5,33.7,8.5,33.7,8.5c-0.1,0-0.1,0.1-0.1,0.1c-0.1,0.2,0.1,0.4,0.2,0.5l0.2-0.5
	C33.9,8.5,33.8,8.5,33.7,8.5z M30.9,8.2c0,0.1,0.2,0.2,0.5,0.2l0-0.5C31.1,8,30.9,8.2,30.9,8.2z M36.3,12.3c-0.4,0-0.8-0.6-1-0.8
	c0-0.1,0-0.1,0-0.2c0-0.1,0.1-0.1,0.1-0.2L39.3,9c0.1-0.1,0.3,0,0.3,0.1c0.1,0.1,0,0.3-0.1,0.3L36.7,11c0,0,0.1,0.2,0.1,0.4
	c0.1,0.5-0.1,0.7-0.3,0.8C36.4,12.3,36.4,12.3,36.3,12.3z M35.9,11.5c0.2,0.2,0.3,0.3,0.4,0.3c0,0,0.1-0.3,0-0.6L35.9,11.5z
	 M40.3,15.8C40.2,15.8,40.2,15.8,40.3,15.8l-3.1-0.9c0,0,0,0,0,0c-0.5,0.8-0.9,0.7-1,0.7c-0.1,0-0.6-0.3-0.3-1.4
	c0-0.1,0.1-0.1,0.1-0.2c0.1,0,0.1,0,0.2,0l4.2,1.3c0.1,0,0.2,0.2,0.2,0.3C40.5,15.8,40.4,15.8,40.3,15.8z M36.2,15.1
	c0.1,0,0.3-0.2,0.4-0.4l-0.5-0.1C36.2,14.9,36.2,15.1,36.2,15.1z M33.6,17.1c-0.3,0-0.5-0.1-0.6-0.3l-4.2-5.9
	c-0.1-0.2-0.2-0.5-0.1-0.7c0.1-0.2,0.3-0.4,0.5-0.5c0.5-0.1,1-0.2,1.5-0.1c2.4,0.2,4.2,2.1,4.3,4.4c0,1-0.2,2-0.8,2.8v0
	C34.1,17,33.9,17.1,33.6,17.1L33.6,17.1z M30.4,10.1c-0.3,0-0.6,0-1,0.1c-0.1,0-0.1,0.1-0.1,0.1c0,0,0,0.1,0,0.1l4.2,5.9
	c0,0.1,0.1,0.1,0.1,0.1c0,0,0.1,0,0.1-0.1c0.5-0.7,0.7-1.5,0.7-2.4c0-1-0.5-1.9-1.1-2.6c-0.7-0.7-1.6-1.1-2.6-1.2
	C30.6,10.2,30.5,10.1,30.4,10.1z M22.4,29.6H1.3c-0.5,0-0.9-0.3-1.1-0.7C-0.1,28.5,0,28,0.2,27.6l9.3-12.9c0.2-0.3,0.6-0.5,1-0.5h0
	c0.4,0,0.8,0.2,1,0.5L22.4,29.6z M10.6,14.8L10.6,14.8c-0.2,0-0.4,0.1-0.5,0.3L0.8,28c-0.1,0.2-0.2,0.4-0.1,0.7
	C0.8,28.9,1,29,1.3,29h19.9L11.1,15.1C11,14.9,10.8,14.8,10.6,14.8z M10.4,18.2l-2.2-1.7l1.3-1.8c0.2-0.3,0.6-0.5,1-0.5h0
	c0.4,0,0.8,0.2,1,0.5l1.3,1.8L10.4,18.2z M9.1,16.4l1.4,1l1.6-1.1l-0.9-1.3c-0.1-0.2-0.3-0.3-0.5-0.3h0c-0.2,0-0.4,0.1-0.5,0.3
	L9.1,16.4z M39.8,29.6H21.1l10.9-11.7c0.3-0.3,0.6-0.4,1-0.4c0.4,0,0.7,0.2,1,0.5l6.8,9.6c0.3,0.4,0.3,0.9,0.1,1.3
	C40.7,29.4,40.3,29.6,39.8,29.6z M22.6,29h17.2c0.2,0,0.5-0.1,0.6-0.3c0.1-0.2,0.1-0.5,0-0.7l-6.8-9.6c-0.1-0.2-0.3-0.3-0.5-0.3
	c-0.2,0-0.4,0.1-0.5,0.2L22.6,29z M32.8,22.1l-2.8-2l2.1-2.2c0.3-0.3,0.6-0.4,1-0.4c0.4,0,0.7,0.2,1,0.5l1.6,2.3L32.8,22.1z M31,20
	l1.9,1.3l1.9-1.2l-1.2-1.7c-0.1-0.2-0.3-0.3-0.5-0.3c-0.2,0-0.4,0.1-0.5,0.2L31,20z M21.9,20.5l-10.8-8l8.4-11.9
	c0.2-0.3,0.6-0.5,1-0.5h0c0.4,0,0.8,0.2,1,0.5l6.7,9.3L21.9,20.5z M12,12.3l9.7,7.2l5.9-9.7l-6.5-9c-0.1-0.2-0.3-0.3-0.5-0.3h0
	c-0.2,0-0.4,0.1-0.5,0.3L12,12.3z M20.5,3.8l-2.2-1.4l1.3-1.9c0.2-0.3,0.6-0.5,1-0.5l0,0c0.4,0,0.8,0.2,1,0.5l1,1.4l-0.2,0.3
	L20.5,3.8z M19.2,2.2L20.4,3l1.4-1.1l-0.7-1c-0.1-0.2-0.3-0.3-0.5-0.3c-0.2,0-0.4,0.1-0.5,0.3L19.2,2.2z M9.8,13.9
	c0.1-0.1,0.1-0.3-0.1-0.4l-1.5-1l3.3,0.3c0.2,0,0.3-0.1,0.3-0.3c0-0.2-0.1-0.3-0.3-0.3l-3.5-0.3c-0.3,0-0.5,0.1-0.6,0.4
	c-0.1,0.2,0,0.5,0.2,0.7L9.4,14c0.1,0,0.1,0.1,0.2,0.1C9.7,14.1,9.8,14,9.8,13.9z M14.6,14.1l0.7-1c0.1-0.1,0.1-0.3-0.1-0.4
	c-0.1-0.1-0.3-0.1-0.4,0.1l-0.7,1c-0.1,0.1-0.1,0.3,0.1,0.4c0.1,0,0.1,0.1,0.2,0.1C14.5,14.3,14.6,14.2,14.6,14.1z M16,13.6
	c0.1-0.1,0.1-0.3-0.1-0.4l-1.3-1c-0.1-0.1-0.3-0.1-0.4,0.1c-0.1,0.1-0.1,0.3,0.1,0.4l1.3,1c0.1,0,0.1,0.1,0.2,0.1
	C15.9,13.7,15.9,13.7,16,13.6z M17,15.9l0.7-1c0.1-0.1,0.1-0.3-0.1-0.4c-0.1-0.1-0.3-0.1-0.4,0.1l-0.7,1c-0.1,0.1-0.1,0.3,0.1,0.4
	c0.1,0,0.1,0.1,0.2,0.1C16.8,16.1,16.9,16,17,15.9z M18.4,15.4c0.1-0.1,0.1-0.3-0.1-0.4L17,14c-0.1-0.1-0.3-0.1-0.4,0.1
	c-0.1,0.1-0.1,0.3,0.1,0.4l1.3,1c0.1,0,0.1,0.1,0.2,0.1C18.2,15.5,18.3,15.5,18.4,15.4z M19.4,17.8l0.7-1c0.1-0.1,0.1-0.3-0.1-0.4
	s-0.3-0.1-0.4,0.1l-0.7,1c-0.1,0.1-0.1,0.3,0.1,0.4c0.1,0,0.1,0.1,0.2,0.1C19.3,17.9,19.4,17.9,19.4,17.8z M20.8,17.2
	c0.1-0.1,0.1-0.3-0.1-0.4l-1.3-1c-0.1-0.1-0.3-0.1-0.4,0.1c-0.1,0.1-0.1,0.3,0.1,0.4l1.3,1c0.1,0,0.1,0.1,0.2,0.1
	C20.6,17.3,20.7,17.3,20.8,17.2z M3.5,32v1.3c-0.3-0.3-0.6-0.4-0.9-0.4c-0.2,0-0.4,0.1-0.5,0.2c-0.1,0.1-0.2,0.3-0.2,0.5
	c0,0.2,0.1,0.4,0.2,0.5c0.1,0.2,0.3,0.3,0.5,0.4c0.2,0.1,0.4,0.3,0.6,0.4c0.2,0.2,0.4,0.4,0.5,0.6c0.1,0.3,0.2,0.5,0.2,0.9
	c0,0.6-0.2,1.1-0.5,1.5c-0.3,0.4-0.8,0.6-1.4,0.6c-0.4,0-0.8-0.1-1.1-0.3v-1.2c0.3,0.2,0.7,0.3,1,0.3c0.2,0,0.4-0.1,0.5-0.2
	c0.1-0.1,0.2-0.3,0.2-0.5c0-0.1,0-0.2,0-0.2c0-0.1,0-0.1-0.1-0.2c0,0-0.1-0.1-0.1-0.2c-0.1-0.1-0.1-0.1-0.1-0.1c0,0-0.1-0.1-0.2-0.1
	c-0.1-0.1-0.1-0.1-0.2-0.1c-0.4-0.3-0.7-0.6-0.9-0.9c-0.2-0.3-0.3-0.7-0.3-1.1c0-0.5,0.2-1,0.5-1.4c0.3-0.4,0.7-0.6,1.3-0.6
	C2.7,31.7,3.1,31.8,3.5,32z M4.9,31.8h1.7l0.6,3.9h0l0.5-3.9h1.7l0.7,6.6H8.9l-0.3-4.7h0l-0.2,1.6l-0.6,3.1h-1l-0.6-3.2l-0.2-1.5
	v-0.1h0l-0.2,4.7H4.3L4.9,31.8z M10.9,31.8h1.3v6.6h-1.3V31.8z M14.3,38.4h-1.2v-6.6h1c0,0,0,0,0.1,0c0.1,0,0.1,0,0.2,0
	c0.1,0,0.2,0,0.3,0c0.1,0,0.3,0,0.4,0.1c0.1,0,0.3,0.1,0.4,0.2c0.2,0.1,0.3,0.2,0.4,0.3c0.1,0.1,0.3,0.2,0.4,0.4
	c0.1,0.2,0.2,0.4,0.3,0.6c0.1,0.2,0.2,0.5,0.2,0.8c0.1,0.3,0.1,0.7,0.1,1C17.1,37.3,16.1,38.4,14.3,38.4z M14.4,37.2
	c0.2,0,0.5,0,0.6-0.2c0.2-0.1,0.3-0.3,0.4-0.5c0.1-0.2,0.2-0.4,0.2-0.7c0-0.2,0.1-0.5,0.1-0.7c0-0.2,0-0.5-0.1-0.7
	c0-0.2-0.1-0.5-0.2-0.7c-0.1-0.2-0.2-0.4-0.4-0.6c-0.2-0.1-0.4-0.2-0.7-0.2V37.2z M18.9,31.8h1.4l1.6,6.6h-1.4l-0.2-1.1h-1.3
	l-0.2,1.1h-1.3L18.9,31.8z M20,36.2l-0.3-1.8l-0.1-1h0l-0.1,1l-0.3,1.8H20z M26.7,31.8v4.5c0,0.2,0,0.3,0,0.3c0,0,0,0.2,0,0.4
	c0,0.2,0,0.3-0.1,0.4c0,0.1-0.1,0.2-0.2,0.4c-0.1,0.2-0.2,0.3-0.3,0.4c-0.1,0.1-0.3,0.2-0.4,0.2c-0.2,0.1-0.4,0.1-0.6,0.1
	c-0.4,0-0.7-0.1-1-0.2V37c0.2,0.2,0.4,0.4,0.7,0.4c0.1,0,0.2,0,0.3-0.1c0.1-0.1,0.1-0.1,0.2-0.3c0-0.1,0.1-0.2,0.1-0.3
	c0-0.1,0-0.2,0-0.4c0,0,0-0.1,0-0.1v-4.5H26.7z M28.7,31.8h1.4l1.6,6.6h-1.4L30,37.2h-1.3l-0.2,1.1h-1.3L28.7,31.8z M29.8,36.2
	l-0.3-1.8l-0.1-1h0l-0.1,1l-0.3,1.8H29.8z M32.2,31.8H36l-2.3,5.4h2.1v1.2h-4l2.2-5.4h-1.9V31.8z M36.6,31.8h3.9l-2.3,5.4h2.1v1.2
	h-4l2.2-5.4h-1.9V31.8z M9.1,40.9H7.5v1.3H9v0.5H7.5V45H7v-4.5h2.1V40.9z M10.5,45v-4.5h2.3v0.5H11v1.3h1.8v0.5H11v1.8h1.8V45H10.5z
	 M16.7,41.1l-0.4,0.3c-0.2-0.3-0.4-0.5-0.8-0.5c-0.2,0-0.4,0.1-0.5,0.2c-0.1,0.1-0.2,0.3-0.2,0.5c0,0.1,0,0.2,0.1,0.3
	c0,0.1,0.1,0.1,0.2,0.2c0.1,0.1,0.2,0.1,0.2,0.1c0.1,0,0.1,0.1,0.2,0.1l0.3,0.1c0.2,0.1,0.3,0.1,0.4,0.2c0.1,0.1,0.2,0.1,0.3,0.2
	c0.1,0.1,0.2,0.2,0.2,0.4c0.1,0.1,0.1,0.3,0.1,0.5c0,0.4-0.1,0.7-0.4,1s-0.6,0.4-1,0.4c-0.4,0-0.7-0.1-0.9-0.3
	c-0.3-0.2-0.4-0.5-0.5-0.8l0.5-0.1c0,0.2,0.1,0.4,0.3,0.6c0.2,0.2,0.4,0.2,0.6,0.2c0.2,0,0.5-0.1,0.6-0.3c0.2-0.2,0.3-0.4,0.3-0.6
	c0-0.1,0-0.2-0.1-0.3c0-0.1-0.1-0.2-0.1-0.2c0-0.1-0.1-0.1-0.2-0.2c-0.1-0.1-0.2-0.1-0.2-0.1c-0.1,0-0.1-0.1-0.3-0.1l-0.3-0.1
	c-0.3-0.1-0.6-0.3-0.7-0.5c-0.2-0.2-0.3-0.4-0.3-0.7c0-0.3,0.1-0.6,0.4-0.8c0.2-0.2,0.5-0.3,0.9-0.3c0.3,0,0.5,0.1,0.7,0.2
	C16.4,40.7,16.6,40.9,16.7,41.1z M19.4,40.9v4h-0.5v-4h-1.1v-0.5h2.7v0.5H19.4z M22.1,40.5V45h-0.5v-4.5H22.1z M23.8,40.5l1.3,3.4
	l1.3-3.4h0.5l-1.8,4.8l-1.8-4.8H23.8z M30,43.7h-1.9L27.5,45H27l2.1-4.7l2,4.7h-0.6L30,43.7z M29.8,43.2L29,41.4l-0.8,1.8H29.8z
	 M32.7,40.5v4h1.2V45h-1.7v-4.5H32.7z"/>
</svg>
