<!-- Generator: Adobe Illustrator 19.2.1, SVG Export Plug-In  -->
<svg version="1.1"
	 xmlns="http://www.w3.org/2000/svg" xmlns:xlink="http://www.w3.org/1999/xlink" xmlns:a="http://ns.adobe.com/AdobeSVGViewerExtensions/3.0/"
	 x="0px" y="0px" width="184.9px" height="157.4px" viewBox="0 0 184.9 157.4" enable-background="new 0 0 184.9 157.4"
	 xml:space="preserve">
<defs>
</defs>
<path fill-rule="evenodd" clip-rule="evenodd" fill='#868789' d="M33.8,44c-0.8-2.7-0.2-7.3,1.2-10.6c0.7-9,3-16.6,7.2-22.9c0.5-0.8,1-1.5,1.5-2.2
	c0.2-0.3,0.4-0.5,0.6-0.7c0.2-0.3,1.8-1.8,2.8-2.8c1.6-1.1,2.9-0.8,3.8,1c0.2,0.4,0.4,0.8,0.7,1.3c0.1,0.2,0.2,0.4,0.3,0.6
	c1.5,3.3,3.4,7.9,5.6,13.9c2.7,7.2,5.1,11.4,7.1,12.6l-0.7,0c1.1,0.8,1.7,1.5,1.6,2c6.2,9.5,10.4,16.4,12.7,20.8
	c2.7,5.2,4.4,10,5.2,14.7c0,0.2-0.1,0.3-0.1,0.6c-5.3,2.1-11.4,9.5-13.3,16.5c-1.9,6.4-2.7,9.8-3.2,13.9c-1.8,0.6-3.5,1.4-5.1,2.3
	c-6.6,3.5-9.9,8.5-9.9,14.9c0,4.6,1.7,8.5,5,11.6c3.3,3.1,7.7,5.2,13.1,6.8c5.3,1.3,12.1,2.1,20.3,2.1c8.1,0,14.8-0.8,20.2-2.5
	c5.5-1.5,9.5-3.9,12.4-7c2.9-2.9,4.3-6.8,4.3-11.2c0-6.4-3.3-11.4-9.8-14.9c-6-3.2-14.3-4.9-24.8-5.2c1.7-1.3,3.2-2.6,4.7-3.9
	c4.6-4.1,7.2-7.1,7.5-9.2l0.5-0.5c0.4,0.4,0.8,0.9,1.3,1.2l0.2,0.1l3.8,2c1.5,0.7,2.8,1.4,3.9,1.7c1.4,0.5,3.1,1.5,5.4,3l1.3,0.8
	c3.2,2,8.8,7.8,11.1,9.7c4.4,4.7,8.3,7.9,11.8,9.4c0.4,0.1-0.8-2.6-3.9-8.2l-0.6-0.9c-1.5-2.9-5.8-9.7-7.4-12.6l1-2.2
	c0.3-14.3-4.3-19.8-10.3-22c-0.9-1.2-1.9,0.6-3,0c-1.1-0.8-1.7-1.6-2.7-1.8c-1.5-0.6-3.2-0.4-4.4-0.4l-1.3-0.1
	c-0.7-0.1-1.3-0.2-1.7-0.4c-0.1,0-0.1,0-0.2-0.1l-0.6-0.2l0.9,1.1l-1.4-1.6h-0.1l0,0.1l-0.1-0.2l-4,0.7l3.8-1
	c14.7-9.9,24.3-19.4,28.8-28.3l0-0.1l0.2,0l0.4-0.8c0.4-0.9,0.9-2.1,1.4-3.5c0.8-2.5,1.4-5,1.6-7.7c0.1-0.6,0.1-1.7,0.3-3.2
	c0.1-0.3,0-0.7-0.1-1.1l0-0.2c-0.1,0.6-0.2,1.2-0.1,1.7c-0.4,4.1-1.8,8.7-3.9,13.9c-0.6,3.1-24.7,27.9-31.8,28.2
	c-6.6,1.2-10.1,4.1-14.4,4.1c-0.4-0.1-0.8,0-1,0l-1.6,0.2l-0.2,0c-0.2-0.1-0.4-0.1-0.4-0.2c-0.1,0-0.1,0-0.2,0
	c0-0.1,0.1-0.1,0.1-0.1S87,67.1,87,67c-4-3.4-5.3-9-9.1-15.6c-1.5-2.6-4.6-6.2-7.5-10.7c-0.6-0.6-1.1-1.2-1.6-2l-0.5-0.7
	c-0.1-0.2-0.2-0.2-0.3-0.3L65.7,34l-0.2,0l-0.9-1.7C60.6,26.1,57,17.9,54,7.6c0-0.2-0.1-0.4-0.1-0.7c-0.5-1.5-0.9-3-1.3-4.6
	c-0.2-0.8-0.4-1.5-0.6-2.3L51.8,0c-2.1,2-3.9,3.9-5.6,5.5c0.2-0.2,0.4-0.3,0.6-0.5c-0.9,0.8-2.1,1.8-2.5,2c-0.2,0.3-0.8,0.7-1.1,0.8
	c-3.9,4-5.8,6.5-5.7,6.6c0.1,0.2,0,0.5,0,1.2c-0.2,0.8-0.4,1.4-0.7,1.9c-1,1.7-2.5,2.1-4.4,1.3l-0.2,7.7c0,3.3-0.4,4.9-0.9,4.8
	c0.3,1.6,0.6,3.5,0.9,5.5C32.7,38.4,32.9,41.9,33.8,44 M104.5,119.4c0,4.4-1.3,7.5-4,9.1c-2.6,1.7-6.4,2.7-11.1,2.7
	c-4.8,0-8.5-1-11.1-2.7c-2.7-1.8-4.2-4.7-4.2-8.5c0-4.1,1.4-7,4.2-8.7c2.6-1.7,6.3-2.7,10.8-2.7c4.8,0,8.5,1,11.2,2.7
	C103,113,104.5,115.7,104.5,119.4 M125.3,91.7c-0.1,0-0.2-0.1-0.2-0.1c-1.6-0.6-3.7-1.9-6.5-3.8c-3.6-2.3-6.1-4.1-7.6-5.4
	c-1.6-1.2-3.1-1.8-4.5-1.7c-1.1,1.2-3.4-1.8-7-8.9c0,0-0.1-0.2-0.3-0.7c-0.1-0.3-1-0.5-2.7-0.5c-2.1,0-4.8,0.3-7.8,0.9
	c7.8-4.1,11.8-5.8,12-4.7c0.2,1,0.3,1.5,0.5,1.8c0.5,0,0.9-0.1,1-0.4c0.2-0.3,0.6-0.4,1.1-0.2c0.4,0.1,0.4,0,0.1-0.4
	c2.6,3.2,4.2,5.1,4.9,5.6c0.2,0.2,0.4,0.5,0.6,0.7c1.3,1.2,2.8,2.8,4.5,4.5c1.4,1.5,2.6,3,3.9,4.3c-0.1,0.3,0,0.6,0,1
	c0.2,1.2,0.4,2.1,0.8,2.5c0.3,0.4,0.7,0.7,1.1,0.9c0.5,0.1,0.9,0.1,1.2,0.1c0.3-0.1,0.6-0.2,0.7-0.3c0-0.1,0-0.1,0.1-0.1
	c1.8,1.9,3.3,3.5,4.6,4.7c0.1,0.2,0.2,0.3,0.4,0.4C125.9,92,125.7,91.8,125.3,91.7 M125.3,90.6c-2.2-2.3-3.9-4.7-5.6-6.9l-0.2-0.2
	l-0.1-0.1l-0.1-0.1c-0.4-0.5-0.8-1-1.1-1.5C120.6,84.9,123,87.8,125.3,90.6 M69.8,152.6c-0.2-0.6-0.4-1-0.9-1.6
	c-0.6-0.4-1.1-0.8-1.6-0.8c-0.4-0.1-0.8-0.1-1.1-0.1c-1,0-1.9,0.3-2.6,1c-0.4,0.4-0.8,1-1,1.8v0.8c0,0.9,0.2,1.7,0.9,2.3
	c0.6,0.7,1.1,1,1.6,1.1c0.6,0.1,0.9,0.1,1.1,0.1c0.9,0,1.7-0.2,2.4-0.7c0.7-0.6,1-1.2,1.3-2c0.1-0.3,0.1-0.6,0.2-0.9
	c-0.1-0.2-0.1-0.5-0.2-0.8V152.6z M67.7,153.5v0.2c0,0.3-0.1,0.7-0.3,1.1c-0.2,0.3-0.6,0.5-1.1,0.5c-0.4,0-0.8-0.1-1-0.3
	c-0.2-0.3-0.4-0.7-0.4-1.2c0-0.2,0.1-0.6,0.2-0.8c0.1-0.1,0.1-0.2,0.1-0.2c0.2-0.4,0.6-0.6,1.1-0.6c0.3,0,0.7,0.1,1,0.3
	c0.1,0.1,0.2,0.2,0.3,0.4c0,0.1,0.1,0.3,0.1,0.5V153.5z M54.5,150.3l-2.4,6.8l2.4,0.2l0.2-1.2h2l0.3,1.2l2.4-0.2l-2.4-6.8H54.5z
	 M55.2,154.5l0.7-2.6l0.6,2.6H55.2z M76,153.6c0.1-0.1,0.3-0.4,0.3-0.7v-0.3v-0.6c0-0.2-0.1-0.5-0.2-0.8c-0.2-0.2-0.5-0.5-0.9-0.7
	c-0.4-0.2-0.9-0.3-1.5-0.3h-3.1v7l2.3-0.2v-2.9l1.4,3.1l2.3-0.2l-1.3-2.9C75.5,154.2,75.7,154,76,153.6 M74.1,152.9v0.1
	c0,0.2-0.1,0.4-0.3,0.7c-0.2,0.1-0.5,0.2-0.7,0.2H73v-1.8h0.1c0.6,0,0.9,0.2,1,0.7V152.9z M81.7,150.4l2.3-0.2v7h-2.5l-2.2-3.7v3.6
	l-2.2,0.2v-7h2.3l2.3,3.7V150.4z M36.7,150.3l-2.5,6.8l2.4,0.2l0.2-1.2H39l0.3,1.2l2.3-0.2l-2.3-6.8H36.7z M37.3,154.5l0.7-2.6
	l0.6,2.6H37.3z M41.9,150.3h4.8v2.1h-1.4v4.7l-2.4,0.2v-4.9h-1.5L41.9,150.3z M34.4,152.4h-1.6v4.7l-2.3,0.2v-4.9h-1.5l0.5-2.1h4.9
	V152.4z M49.5,155.3H52l-0.4,1.9h-4.3v-6.9h4.3l0.3,1.9h-2.4v0.7h1.6v1.7h-1.6V155.3z M113.5,152.6c-0.1-0.6-0.5-1-0.9-1.6
	c-0.6-0.4-1.1-0.8-1.6-0.8c-0.4-0.1-0.8-0.1-1-0.1c-1.1,0-2,0.3-2.7,1c-0.4,0.4-0.8,1-0.9,1.8c-0.1,0.2-0.1,0.5-0.1,0.8
	c0,0.4,0,0.9,0.2,1.3c0.1,0.3,0.4,0.7,0.7,1c0.6,0.7,1.1,1,1.6,1.1c0.6,0.1,0.9,0.1,1.3,0.1c0.9,0,1.7-0.2,2.4-0.7
	c0.6-0.6,1-1.2,1.2-2c0-0.3,0.1-0.6,0.1-0.9c-0.1-0.2-0.1-0.5-0.2-0.8V152.6z M111.3,153.5v0.2c0,0.3-0.1,0.7-0.2,1.1
	c-0.2,0.3-0.7,0.5-1.1,0.5c-0.5,0-0.8-0.1-1.1-0.3c-0.2-0.3-0.4-0.7-0.4-1.2c0-0.2,0.1-0.6,0.2-0.8c0.1-0.1,0.1-0.2,0.1-0.2
	c0.2-0.4,0.6-0.6,1.3-0.6c0.2,0,0.6,0.1,0.9,0.3c0.1,0.1,0.2,0.2,0.4,0.4c0.1,0.1,0.1,0.3,0.1,0.5V153.5z M103.5,155.2h2.4l-0.5,2
	h-4.2v-6.8l2.3-0.2V155.2z M121.4,150.4l2.3-0.2v6.9l-2.3,0.2V150.4z M117.6,153.1h2.8v3.8c-0.5,0.2-0.9,0.4-1.3,0.5h-1.1
	c-0.9,0-1.7-0.2-2.3-0.5c-0.7-0.5-1.1-1-1.4-1.6c-0.2-0.5-0.3-1.1-0.2-1.4c-0.1-0.3,0-0.6,0-0.8c0.1-0.4,0.2-0.9,0.5-1.1
	c0.4-0.6,0.8-0.9,1.2-1.2c0.4-0.2,0.7-0.3,1.1-0.3c0.3-0.1,0.6-0.1,0.7-0.1h0.1c0.7,0,1.4,0.1,2,0.4l0.4,0.3l-1.1,1.7l-0.1-0.1
	c0,0-0.1,0-0.3-0.1c-0.2-0.1-0.4-0.2-0.7-0.2c-0.2,0-0.4,0.1-0.8,0.2c-0.3,0-0.6,0.2-0.7,0.6c-0.1,0.5-0.1,0.6-0.1,0.7v0.1
	c0,0.1,0,0.4,0.1,0.9c0.1,0.5,0.6,0.8,1.6,0.8l0.3-0.1v-0.7h-1.1L117.6,153.1z M126.9,153.3c-0.1,0.2-0.1,0.3-0.1,0.5v0.2
	c0,0,0,0.2,0.1,0.8c0,0.3,0.6,0.6,1.7,0.6h0.3c0.1,0,0.3-0.1,0.6-0.1l0.1-0.1l-0.2,2.2h-0.7c-0.2,0.1-0.4,0.1-0.6,0.1
	c-0.1,0-0.2,0-0.3-0.1c-0.2,0-0.6,0-1-0.1c-0.6-0.1-1.1-0.6-1.6-1.1c-0.6-0.7-0.8-1.4-0.8-2.3c0-0.1,0-0.5,0.1-0.8v-0.3
	c0.1-0.7,0.5-1.2,1.1-1.7c0.7-0.6,1.5-0.8,2.4-0.8h0.3h0.5h0.4l0.3,2.2h-0.1c-0.1-0.1-0.2-0.1-0.3-0.1c-0.1,0-0.3-0.1-0.4-0.1
	c-0.6,0-1,0.1-1.4,0.3c-0.1,0.1-0.2,0.2-0.3,0.4C127.1,152.9,126.9,153.1,126.9,153.3 M87.9,150.3h4.8v2.1h-1.4v4.7l-2.4,0.2v-4.9
	h-1.5L87.9,150.3z M84.8,150.4l2.3-0.2v6.9l-2.3,0.2V150.4z M100.3,152.6c-0.1-0.6-0.4-1-0.9-1.6c-0.6-0.4-1.1-0.8-1.6-0.8
	c-0.4-0.1-0.8-0.1-1-0.1c-1.1,0-2,0.3-2.7,1c-0.3,0.3-0.7,0.9-0.8,1.3c-0.1,0.1-0.1,0.2-0.1,0.4c-0.1,0.2-0.1,0.5-0.1,0.8
	c0,0.9,0.2,1.7,0.9,2.3c0.6,0.7,1.1,1,1.6,1.1c0.6,0.1,0.9,0.1,1.2,0.1c0.9,0,1.7-0.2,2.3-0.7c0.7-0.6,1-1.2,1.2-2
	c0.1-0.3,0.1-0.6,0.2-0.9c-0.1-0.2-0.1-0.5-0.1-0.8C100.3,152.8,100.3,152.7,100.3,152.6 M98.1,153.5v0.2c0,0.3-0.1,0.7-0.3,1.1
	c-0.1,0.3-0.6,0.5-1,0.5c-0.5,0-0.8-0.1-1-0.3c-0.3-0.3-0.4-0.7-0.4-1.2c0-0.2,0-0.6,0.1-0.8c0.1-0.1,0.1-0.2,0.1-0.2
	c0.2-0.4,0.7-0.6,1.2-0.6c0.2,0,0.6,0.1,0.9,0.3c0.1,0.1,0.2,0.2,0.3,0.4c0,0.1,0.1,0.3,0.1,0.5V153.5z M164.9,150.3l-2.4,6.7
	l-0.8-6.7h-2.3l-1,2.8l-1-2.8h-2.3l-0.8,6.8l2.3,0.2l0.5-3.6l1.3,3.7l1.5-3.7l0.3,3.6l2.3-0.2l2.3,0.2l0.3-1.2h2l0.2,1.2l2.5-0.2
	l-2.5-6.8H164.9z M165.5,154.5l0.7-2.6l0.7,2.6H165.5z M153.8,152.6c-0.1-0.6-0.3-1-0.9-1.6c-0.5-0.4-1-0.8-1.5-0.8
	c-0.4-0.1-0.8-0.1-1.1-0.1c-1,0-1.9,0.3-2.7,1c-0.4,0.4-0.7,1-0.9,1.8v0.8c-0.1,0.9,0.2,1.7,0.8,2.3c0.6,0.7,1.1,1,1.7,1.1
	c0.4,0.1,0.9,0.1,1.1,0.1c0.9,0,1.7-0.2,2.4-0.7c0.6-0.6,1-1.2,1.3-2c0.1-0.3,0.1-0.6,0.1-0.9c0-0.2,0-0.5-0.1-0.8
	C153.8,152.8,153.8,152.7,153.8,152.6 M151.8,153.5v0.2c0,0.3-0.2,0.7-0.4,1.1c-0.2,0.3-0.6,0.5-1.1,0.5c-0.4,0-0.8-0.1-1-0.3
	c-0.2-0.3-0.4-0.7-0.4-1.2c0-0.2,0.1-0.6,0.2-0.8c0-0.1,0-0.2,0.1-0.2c0.1-0.4,0.6-0.6,1.1-0.6c0.3,0,0.7,0.1,1,0.3
	c0.1,0.1,0.2,0.2,0.2,0.4c0.1,0.1,0.2,0.3,0.2,0.5V153.5z M174.8,150.4l2.3-0.2v7h-2.4l-2.3-3.7v3.6l-2.2,0.2v-7h2.3l2.3,3.7V150.4z
	 M132.3,150.3l-2.4,6.8l2.3,0.2l0.3-1.2h2.1l0.3,1.2l2.3-0.2l-2.3-6.8H132.3z M132.8,154.5l0.7-2.6l0.7,2.6H132.8z M145.7,153.6
	c0.2-0.1,0.2-0.4,0.4-0.7c0-0.1,0-0.2,0.1-0.3c0-0.2,0-0.3-0.1-0.6c0-0.2-0.1-0.5-0.2-0.8c-0.1-0.2-0.4-0.5-0.8-0.7
	c-0.5-0.2-0.9-0.3-1.6-0.3h-3.1v7l2.2-0.2v-2.9l1.5,3.1l2.4-0.2l-1.4-2.9C145.2,154.2,145.3,154,145.7,153.6 M143.7,152.9v0.1
	c0,0.2-0.1,0.4-0.2,0.7c-0.3,0.1-0.6,0.2-0.7,0.2h-0.4v-1.8h0.4c0.6,0,0.8,0.2,0.9,0.7V152.9z M179.8,150.3l-2.5,6.8l2.4,0.2
	l0.3-1.2h2l0.3,1.2l2.4-0.2l-2.4-6.8H179.8z M180.3,154.5l0.7-2.6l0.6,2.6H180.3z M17.5,153.3c-0.1,0.2-0.1,0.3-0.1,0.5v0.2
	c0,0,0.1,0.2,0.1,0.8c0.1,0.3,0.7,0.6,1.7,0.6h0.3c0.1,0,0.3-0.1,0.6-0.1l0.1-0.1l-0.2,2.2h-0.7c-0.2,0.1-0.3,0.1-0.6,0.1
	c-0.1,0-0.2,0-0.3-0.1c-0.1,0-0.4,0-1-0.1c-0.6-0.1-1.1-0.6-1.6-1.1c-0.6-0.7-0.8-1.4-0.8-2.3v-0.8c0-0.1,0-0.2,0.1-0.3
	c0.1-0.7,0.4-1.2,1.1-1.7c0.7-0.6,1.5-0.8,2.4-0.8H19h0.4h0.5l0.3,2.2h-0.1c-0.1-0.1-0.2-0.1-0.3-0.1c-0.1,0-0.4-0.1-0.4-0.1
	c-0.6,0-1,0.1-1.3,0.3c-0.2,0.1-0.3,0.2-0.4,0.4C17.5,152.9,17.5,153.1,17.5,153.3 M14.1,152.6c-0.1-0.6-0.3-1-0.8-1.6
	c-0.6-0.4-1.1-0.8-1.6-0.8c-0.4-0.1-0.8-0.1-1-0.1c-1.1,0-2,0.3-2.7,1c-0.6,0.4-0.8,1-1,1.8v0.8c0,0.3,0,0.7,0.1,1.1
	c0.1,0.5,0.3,0.9,0.7,1.2c0.6,0.7,1.1,1,1.7,1.1c0.6,0.1,0.9,0.1,1.2,0.1c0.9,0,1.7-0.2,2.3-0.7c0.7-0.6,1-1.2,1.3-2
	c0.1-0.3,0.1-0.6,0.2-0.9c-0.1-0.2-0.1-0.5-0.2-0.8C14.3,152.8,14.3,152.7,14.1,152.6 M12.1,153.5v0.2c0,0.3-0.1,0.7-0.3,1.1
	c-0.1,0.3-0.6,0.5-1,0.5c-0.6,0-0.9-0.1-1.1-0.3c-0.2-0.3-0.5-0.7-0.5-1.2c0-0.2,0.1-0.6,0.2-0.8c0-0.1,0-0.2,0.1-0.2
	c0.2-0.4,0.6-0.6,1.2-0.6c0.2,0,0.6,0.1,0.9,0.3c0.1,0.1,0.2,0.2,0.3,0.4c0,0.1,0.1,0.3,0.1,0.5V153.5z M20.9,150.4l2.3-0.2v6.9
	l-2.3,0.2V150.4z M26.4,155.3H29l-0.4,1.9h-4.4v-6.9h4.3l0.5,1.9h-2.5v0.7H28v1.7h-1.6V155.3z M5.4,153.4c0.7,0.4,1,0.9,1.1,1.6v0.2
	c0,0.2-0.1,0.5-0.1,0.7c-0.1,0.1-0.2,0.3-0.3,0.7c-0.2,0.2-0.6,0.4-1,0.6c-0.3,0.2-0.9,0.3-1.5,0.3H3.3c-0.2,0-0.3,0-0.6-0.1
	c-0.2,0-0.4,0-0.9-0.2H1.6l0.3-1.8h0.2l0.4,0.1h0.1l0.3,0.1h0.7c0.2-0.1,0.3-0.1,0.4-0.1c0-0.1,0.1-0.2,0.1-0.3
	c0-0.1-0.1-0.2-0.1-0.2c-0.1-0.1-0.2-0.1-0.2-0.1c-0.1-0.1-0.2-0.1-0.3-0.1l-0.2-0.1c-0.1-0.1-0.2-0.1-0.3-0.1
	c-0.1-0.1-0.2-0.1-0.3-0.2l-0.4-0.4c-0.2-0.1-0.4-0.3-0.4-0.7c-0.1,0-0.1-0.1-0.1-0.1v-0.6c0-0.8,0.2-1.2,0.8-1.7
	c0.6-0.3,1.3-0.6,2.3-0.6h0.9c0.2,0.1,0.5,0.2,0.7,0.2l-0.2,1.9c-0.1,0-0.2,0-0.2-0.1H5.4c-0.1-0.1-0.2-0.1-0.3-0.1H4.7H4.4H4.1
	c-0.1,0-0.1,0-0.1,0.1c-0.1,0-0.2,0.1-0.2,0.2c0,0.1,0.1,0.2,0.2,0.2l0.3,0.2h0.1l0.1,0.1L5.4,153.4 M46,130.8
	c1.4,0.9,2.1,2,2.1,3.1c0,1.3-1,2.6-2.8,3.7c-1.9,1.1-4.5,2.1-7.9,2.6c-3.4,0.6-7.7,0.9-12.8,0.9c-8.9,0-15.2-0.7-18.7-2.1
	c-3.5-1.4-5.4-3.2-5.9-5.3l15.5-0.4c0.4,1,1.1,1.8,2.1,2.3c1.7,0.9,4.1,1.3,7.3,1.3c2.3,0,4.1-0.2,5.4-0.7c1.3-0.4,1.9-0.9,1.9-1.4
	c0-0.6-0.6-1-1.8-1.6c-1.2-0.4-4-0.8-8.4-1.1c-7.1-0.7-12.3-1.5-15.3-2.6C3.6,128.4,2,127,2,125.4c0-1,0.8-2.1,2.4-3
	c1.6-1,3.9-1.8,7.2-2.3c3.1-0.6,7.5-0.8,12.9-0.8c6.8,0,12,0.5,15.6,1.4c3.5,1,5.7,2.6,6.3,4.9l-15.5,0.3c-0.4-0.9-1.3-1.7-2.5-2.1
	c-1.4-0.4-3.2-0.6-5.5-0.6c-1.9,0-3.4,0.1-4.3,0.4c-0.9,0.4-1.5,0.7-1.5,1.2c0,0.3,0.4,0.6,1.3,0.8c0.7,0.3,2.5,0.6,5.5,0.8
	c7.1,0.6,12.3,1.2,15.3,1.9C42.4,129,44.6,129.8,46,130.8 M132.7,140.7h16.4v-8.6h1.5c1.5,0,2.8,0.2,4,0.5c1,0.3,1.9,0.8,3,1.7
	l8.8,6.4h18.5l-8-6.1c-0.3-0.3-1.2-0.7-2.3-1.3c-1.1-0.5-2-0.9-2.5-1c-0.9-0.3-2.3-0.5-4.3-0.8c2.4-0.2,4.3-0.5,5.8-0.8
	c2.2-0.5,3.9-1.3,5.2-2.1c1.3-0.8,1.9-1.9,1.9-3c0-1.3-0.8-2.5-2.5-3.4c-1.6-0.9-3.8-1.5-6.4-2c-2.7-0.3-6.6-0.5-11.6-0.5h-27.3
	V140.7z M149.1,123.8h7.3c2.9,0,4.9,0.2,6,0.6c1.2,0.3,1.7,0.8,1.7,1.6c0,0.4-0.3,0.8-0.9,1.2c-0.7,0.3-1.6,0.5-2.7,0.6
	c-2.2,0.2-3.6,0.3-4.3,0.3h-6.9V123.8z M133.7,148.9c0.5,0,0.6-0.3,0.9-0.5h0.9c0,0.5-0.8,1.3-1.8,1.3c-1,0-1.8-0.7-1.8-1.3h0.9
	C133.2,148.6,133.2,148.9,133.7,148.9 M181.1,148.9c0.5,0,0.6-0.3,0.9-0.5h0.9c0,0.5-0.8,1.3-1.8,1.3c-1,0-1.7-0.7-1.8-1.3h0.9
	C180.6,148.6,180.6,148.9,181.1,148.9 M164.4,149.6c0-0.5,0.8-1.3,1.8-1.3c1,0,1.8,0.7,1.8,1.3H167c-0.3-0.2-0.4-0.5-0.9-0.5
	c-0.5,0-0.5,0.4-0.9,0.5H164.4"/>
</svg>
