<!-- Generator: Adobe Illustrator 22.1.0, SVG Export Plug-In  -->
<svg version="1.1"
	 xmlns="http://www.w3.org/2000/svg" xmlns:xlink="http://www.w3.org/1999/xlink" xmlns:a="http://ns.adobe.com/AdobeSVGViewerExtensions/3.0/"
	 x="0px" y="0px" width="86.4px" height="28.5px" viewBox="0 0 86.4 28.5" enable-background="new 0 0 86.4 28.5"
	 xml:space="preserve">
<defs>
</defs>
<path fill="#868789" d="M10.8,6.4c0-0.7-0.2-1.2-0.7-1.6c-0.4-0.4-1.1-0.6-2-0.6C6.9,4.2,5.8,5,5.8,5.9c0,1.3,1.7,1.8,3.1,2.1
	c3.2,0.8,7.8,1.1,7.8,6c0,3.8-3.9,5.6-8.3,5.6c-4.4,0-8.3-1.2-8.3-6.2h5.2c0,1.7,1.3,2.6,3.2,2.6c1.2,0,2.7-0.6,2.7-1.8
	c0-2.5-3.9-1.9-8-3.7C1.3,9.8,0.3,8.2,0.3,6.2c0.2-4.3,4.1-5.5,8.1-5.5c3.9,0,7.9,1.3,7.6,5.7H10.8z M21.3,19.3h5.2v-6.7l7.4-11.5
	h-5.4l-4.3,7.6l-4.1-7.6h-6.1l7.2,11.5V19.3z M38.9,9.1L38.9,9.1l-0.1-8h-5.2v18.2h5.2V9.6h0.1l6.2,9.7h6.5l-7-10.2l6.5-8h-6.2
	L38.9,9.1z M66.1,19.3v-3.5H57v-3.9h8.4V8.4H57V4.6h9.2V1.1H51.7v18.2H66.1z M81.6,6.4C81.9,2,77.9,0.7,74,0.7c-4,0-7.9,1.2-8.1,5.5
	c0,2,0.9,3.6,2.9,4.4c4.1,1.7,8,1.2,8,3.7c0,1.2-1.5,1.8-2.7,1.8c-1.9,0-3.2-0.9-3.2-2.6h-5.2c0.1,4.9,4,6.2,8.3,6.2
	c4.4,0,8.3-1.8,8.3-5.6c0-4.9-4.6-5.2-7.8-6c-1.4-0.4-3.1-0.8-3.1-2.1c0-0.9,1-1.7,2.2-1.7c0.9,0,1.6,0.2,2,0.6
	c0.5,0.4,0.7,0.9,0.7,1.6H81.6z M81.5,22.4H0.1v6.2h81.4V22.4z M81.7,2.3c0,1.3,1,2.3,2.3,2.3c1.3,0,2.3-1,2.3-2.3
	c0-1.3-1-2.3-2.3-2.3C82.8,0,81.7,1,81.7,2.3 M86,2.3c0,1.1-0.9,1.9-1.9,1.9c-1.1,0-1.9-0.9-1.9-1.9c0-1,0.9-1.9,1.9-1.9
	C85.1,0.4,86,1.3,86,2.3 M83.9,2.5c0.1,0,0.3,0,0.4,0.1c0.1,0.1,0.1,0.3,0.2,0.6c0,0.2,0.1,0.3,0.1,0.5h0.5C85,3.4,85,3.1,85,2.9
	c0-0.3-0.1-0.5-0.5-0.5v0C84.9,2.2,85,2,85,1.7c0-0.6-0.5-0.8-1-0.8h-0.9v2.7h0.4V2.5H83.9z M83.6,2V1.3h0.5c0.3,0,0.4,0.1,0.4,0.3
	C84.5,1.9,84.4,2,84,2H83.6z"/>
</svg>
