<!-- Generator: Adobe Illustrator 18.1.1, SVG Export Plug-In  -->
<svg version="1.1"
	 xmlns="http://www.w3.org/2000/svg" xmlns:xlink="http://www.w3.org/1999/xlink" xmlns:a="http://ns.adobe.com/AdobeSVGViewerExtensions/3.0/"
	 x="0px" y="0px" width="52.11px" height="52.11px" viewBox="0 0 52.11 52.11" enable-background="new 0 0 52.11 52.11"
	 xml:space="preserve">
<defs>
</defs>
<g>
	<path fill="#868789" d="M35.22,8.92c0.09,0,0.18-0.07,0.2-0.17c0.02-0.09,0.02-0.18,0.03-0.27c0,0-0.01,0-0.01,0
		c0-0.03,0-0.06,0-0.09c0-0.03,0-0.06,0-0.09c-0.01-0.08-0.05-0.1-0.12-0.07c-0.03,0.01-0.05,0.03-0.08,0.04
		c-0.22,0.1-0.29,0.28-0.22,0.5C35.05,8.86,35.13,8.91,35.22,8.92z"/>
	<path fill="#868789" d="M21.22,8.79c0.04,0.08,0.1,0.12,0.19,0.11c0.08-0.01,0.14-0.06,0.15-0.14c0.01-0.07,0.02-0.14,0.02-0.21
		c0-0.13,0-0.26,0-0.39c0-0.14,0-0.28,0-0.43c0-0.07-0.01-0.14-0.02-0.21c-0.01-0.08-0.09-0.15-0.16-0.15
		c-0.07,0-0.14,0.03-0.17,0.1c-0.02,0.04-0.03,0.09-0.04,0.13c-0.01,0.09,0,0.19,0,0.29c0,0.25,0,0.49,0,0.74
		C21.19,8.69,21.2,8.74,21.22,8.79z"/>
	<path fill="#868789" d="M24.26,43.01c-0.1-0.09-0.23-0.05-0.27,0.07c-0.02,0.05-0.02,0.11-0.02,0.17c0,0.16,0,0.32,0,0.48
		c0,0.17,0,0.34,0,0.5c0,0.05,0.01,0.09,0.02,0.14c0.02,0.08,0.1,0.13,0.17,0.13c0.07,0,0.14-0.04,0.17-0.12
		c0.02-0.06,0.03-0.13,0.03-0.19c0-0.2,0-0.41,0-0.61c0-0.11,0-0.21,0-0.32C24.36,43.17,24.34,43.08,24.26,43.01z"/>
	<path fill="#868789" d="M35.66,43.86c-0.05,0.02-0.1,0.04-0.15,0.07c-0.17,0.1-0.23,0.36-0.12,0.52c0.04,0.06,0.11,0.1,0.18,0.1
		c0.09-0.01,0.15-0.05,0.18-0.13c0.01-0.03,0.02-0.08,0.02-0.11c0-0.06,0-0.13,0-0.19c0,0,0,0,0,0c0-0.03,0-0.06,0-0.09
		c0-0.03,0-0.06,0-0.09C35.77,43.84,35.75,43.82,35.66,43.86z"/>
	<path fill="#868789" d="M43.28,28.38c0.08,0.01,0.16,0.01,0.24,0.02c0,0,0-0.01,0-0.01c0.07,0,0.14,0,0.21,0
		c0.06,0,0.08-0.04,0.05-0.09c-0.02-0.06-0.05-0.11-0.08-0.16c-0.1-0.18-0.32-0.24-0.5-0.14c-0.05,0.03-0.09,0.08-0.1,0.14
		C43.08,28.25,43.16,28.36,43.28,28.38z"/>
	<path fill="#868789" d="M0,0v52.11h52.11V0H0z M45.9,22.15c0,0.19,0,0.36,0,0.53c0,0.04-0.02,0.06-0.06,0.07c-0.03,0-0.06,0-0.09,0
		c-0.97,0-1.94,0-2.92,0c-0.04,0-0.09,0-0.12,0c-0.03-0.1-0.04-0.43-0.01-0.6c0.05,0,0.1-0.01,0.15-0.01c0.88,0,1.75,0,2.63,0
		c0.1,0,0.2,0,0.3,0C45.81,22.14,45.85,22.15,45.9,22.15z M45.87,17.45c-1.06,0-2.11,0-3.18,0c-0.02-0.2-0.01-0.39-0.01-0.58
		c0.11-0.02,3.01-0.03,3.19-0.01C45.9,16.97,45.9,17.36,45.87,17.45z M42.68,10.47c0.01,0,0.03,0,0.05,0
		c1.05,0.18,2.09,0.36,3.14,0.53c0,0.04,0.01,0.08,0.01,0.11c0,0.22,0,0.43,0,0.65c0,0.11,0,0.11-0.11,0.13
		c-0.34,0.05-0.67,0.1-1.01,0.16c-0.44,0.07-0.88,0.14-1.32,0.22c-0.23,0.04-0.47,0.07-0.7,0.11c-0.05,0.01-0.07-0.01-0.07-0.06
		c0-0.16,0-0.33,0-0.49c0-0.06,0.02-0.08,0.09-0.09c0.09-0.01,0.19-0.02,0.28-0.03c0.03,0,0.07-0.01,0.1-0.01
		c0.05-0.01,0.09-0.04,0.09-0.1c0-0.12,0-0.24,0-0.36c0-0.07-0.03-0.09-0.11-0.1c-0.11-0.01-0.22-0.02-0.32-0.03
		c-0.04,0-0.07-0.02-0.12-0.03C42.65,10.92,42.66,10.56,42.68,10.47z M41.16,6.03c0.09-0.03,0.42-0.04,0.61-0.02
		c0.03,0.08,0.04,0.42,0,0.55c-0.18,0-0.36,0-0.53,0c-0.05,0-0.07-0.02-0.08-0.07C41.15,6.34,41.16,6.18,41.16,6.03z M41.15,7.06
		c0-0.02,0-0.03,0-0.05c0.01-0.06,0.02-0.08,0.08-0.08c0.17,0,0.34,0,0.5,0c0.01,0,0.02,0.01,0.03,0.01
		c0.03,0.11,0.04,1.68,0.02,2.32c0,0.02-0.01,0.05-0.02,0.08c-0.2,0-0.4,0-0.61,0c0-0.05-0.01-0.08-0.01-0.11
		C41.15,8.51,41.15,7.78,41.15,7.06z M38.07,6.96c0.08-0.03,0.45-0.04,0.59-0.01c0.05,0.13-0.02,0.28,0.04,0.43
		c0.03-0.02,0.06-0.03,0.07-0.05c0.04-0.07,0.08-0.13,0.12-0.2c0.06-0.1,0.15-0.16,0.26-0.2c0.01,0,0.03,0,0.04,0
		c0.01,0,0.02,0.01,0.02,0.01c0.02,0.11,0.02,0.61-0.01,0.71c-0.03,0-0.06,0.01-0.1,0.01c-0.18,0.01-0.36,0.14-0.39,0.32
		c-0.02,0.1-0.04,0.21-0.04,0.32c0,0.31,0,0.61,0,0.92c0,0.04,0,0.08,0,0.12c-0.13,0.03-0.51,0.02-0.61,0c0,0-0.01-0.01-0.01-0.01
		c0,0,0-0.01,0-0.01c0-0.77,0-1.54,0-2.31C38.06,6.99,38.07,6.97,38.07,6.96z M35.29,6.02c0.01-0.04,0.04-0.06,0.08-0.06
		c0.15,0,0.31,0,0.46,0c0.01,0,0.01,0.01,0.03,0.02c-0.01,0.02-0.02,0.05-0.04,0.07c-0.11,0.14-0.23,0.28-0.34,0.43
		c-0.04,0.05-0.09,0.08-0.17,0.08c-0.07,0-0.14,0-0.24-0.01C35.15,6.36,35.22,6.19,35.29,6.02z M34.4,8.37
		c0.02-0.18,0.12-0.31,0.28-0.38c0.11-0.05,0.23-0.08,0.34-0.12c0.11-0.04,0.22-0.06,0.31-0.13c0.12-0.08,0.15-0.21,0.08-0.33
		c-0.05-0.09-0.14-0.13-0.24-0.11c-0.08,0.02-0.14,0.08-0.15,0.19c-0.01,0.06-0.01,0.13-0.02,0.19c-0.03,0-0.04,0.01-0.06,0.01
		c-0.16,0-0.31,0-0.47,0c-0.01-0.03-0.02-0.06-0.02-0.09c0-0.13,0-0.27,0.05-0.4c0.03-0.08,0.08-0.14,0.15-0.19
		c0.13-0.08,0.27-0.11,0.42-0.13c0.21-0.03,0.41-0.01,0.61,0.07c0.16,0.07,0.27,0.18,0.31,0.35c0.03,0.1,0.04,0.19,0.04,0.29
		c0,0.42,0,0.85,0,1.27c0,0.14,0,0.29,0.05,0.42c0,0.01,0,0.02-0.01,0.02c-0.01,0.01-0.01,0.01-0.02,0.02c-0.17,0-0.35,0-0.52,0
		c-0.04,0-0.06-0.03-0.07-0.06c0-0.03,0-0.06-0.01-0.09c-0.01-0.02-0.02-0.04-0.04-0.05c-0.02,0-0.05,0.01-0.07,0.03
		c-0.02,0.01-0.02,0.04-0.04,0.05C35.25,9.35,35.14,9.41,35,9.4c-0.12,0-0.23,0.01-0.34-0.04C34.5,9.3,34.42,9.18,34.4,9.03
		C34.37,8.81,34.37,8.59,34.4,8.37z M31.41,6.94c0.01,0.03,0.02,0.06,0.02,0.09c0.06,0.4,0.13,0.79,0.19,1.19
		c0.01,0.07,0.02,0.15,0.07,0.21c0.05,0,0.06-0.04,0.06-0.07c0.02-0.18,0.05-0.35,0.08-0.53c0.02-0.17,0.05-0.33,0.08-0.5
		c0.01-0.07,0.02-0.14,0.03-0.21c0-0.04,0.01-0.08,0.02-0.13c0.01-0.05,0.04-0.07,0.09-0.07c0.18,0,0.36,0,0.53,0
		c0.01,0,0.02,0.01,0.03,0.02c0,0.02,0,0.04,0,0.07c-0.07,0.29-0.14,0.57-0.21,0.86c-0.07,0.29-0.14,0.59-0.2,0.88
		c-0.04,0.18-0.08,0.35-0.12,0.53C32.07,9.33,32.05,9.35,32,9.35c-0.2,0-0.41,0-0.61,0c-0.06,0-0.08-0.02-0.09-0.09
		c-0.05-0.2-0.09-0.41-0.14-0.61c-0.05-0.2-0.09-0.4-0.14-0.61c-0.07-0.32-0.15-0.64-0.22-0.96C30.79,7.05,30.78,7,30.76,6.94
		C30.99,6.94,31.2,6.94,31.41,6.94z M27.38,8.56c0.1-0.03,0.45-0.03,0.58-0.01c0.01,0.06,0.02,0.13,0.03,0.2
		c0.01,0.06,0.04,0.1,0.09,0.14c0.11,0.07,0.23,0.03,0.28-0.08c0.06-0.12,0.02-0.27-0.1-0.36c-0.09-0.07-0.2-0.12-0.3-0.18
		c-0.08-0.05-0.16-0.09-0.24-0.12c-0.25-0.12-0.33-0.33-0.34-0.58c-0.01-0.13,0.03-0.25,0.08-0.36c0.07-0.18,0.22-0.26,0.4-0.3
		c0.23-0.05,0.46-0.04,0.68,0c0.08,0.02,0.16,0.06,0.24,0.1c0.07,0.04,0.12,0.11,0.14,0.19c0.04,0.14,0.05,0.29,0.03,0.43
		c-0.12,0.03-0.44,0.03-0.54,0c0-0.04-0.01-0.08-0.02-0.11c-0.02-0.07-0.04-0.14-0.12-0.18c-0.08-0.04-0.17-0.01-0.23,0.06
		c-0.05,0.07-0.06,0.17-0.01,0.24c0.03,0.04,0.08,0.08,0.12,0.11c0.14,0.08,0.28,0.16,0.42,0.23c0.02,0.01,0.04,0.03,0.07,0.04
		c0.31,0.15,0.38,0.42,0.36,0.73C29,8.87,28.98,8.98,28.93,9.08c-0.05,0.1-0.12,0.17-0.21,0.22c-0.11,0.06-0.22,0.1-0.35,0.1
		c-0.12,0-0.23,0-0.35,0c-0.13,0-0.25-0.05-0.36-0.1c-0.12-0.05-0.19-0.15-0.23-0.27C27.38,8.88,27.38,8.72,27.38,8.56z M24.1,6.95
		c0.02,0,0.04-0.02,0.07-0.02c0.43,0,0.86,0,1.28,0c0.02,0,0.04,0.01,0.07,0.01c0.01,0.03,0.02,0.06,0.02,0.09c0,0.06,0,0.11,0,0.17
		c0,0.26,0,0.26-0.13,0.49c-0.2,0.34-0.4,0.69-0.59,1.03c0,0.01-0.01,0.01-0.01,0.02c-0.04,0.07-0.02,0.1,0.06,0.11
		c0.03,0,0.06,0,0.09,0c0.15,0,0.3,0,0.45,0c0.03,0,0.07,0,0.1,0.01c0.04,0.09,0.05,0.34,0.01,0.49c-0.23,0.02-0.47,0.01-0.7,0.01
		c-0.24,0-0.48,0-0.7,0c-0.01-0.02-0.02-0.02-0.02-0.03c0-0.16-0.01-0.31,0-0.46c0-0.04,0.03-0.08,0.05-0.12
		c0.19-0.33,0.38-0.67,0.58-1c0.04-0.06,0.07-0.12,0.1-0.18c0.05-0.09,0.04-0.13-0.07-0.13c-0.17,0-0.35,0-0.52,0
		c-0.04,0-0.09,0-0.12,0C24.08,7.34,24.08,7.08,24.1,6.95z M20.55,7.64c0-0.12,0.02-0.24,0.06-0.36c0.07-0.21,0.24-0.32,0.45-0.37
		c0.21-0.05,0.43-0.05,0.64,0c0.22,0.06,0.39,0.18,0.46,0.41c0.02,0.09,0.04,0.18,0.04,0.27c0.01,0.18,0,0.36,0,0.54s0,0.36,0,0.54
		c0,0.09-0.02,0.18-0.04,0.27c-0.06,0.21-0.21,0.33-0.41,0.4c-0.19,0.07-0.38,0.06-0.58,0.04c-0.15-0.02-0.29-0.07-0.41-0.18
		c-0.08-0.07-0.14-0.15-0.17-0.26c-0.03-0.12-0.05-0.23-0.05-0.36C20.55,8.28,20.55,7.96,20.55,7.64z M17.95,6.06
		C17.96,6.04,17.98,6.01,18,6c0.05-0.02,0.49,0,0.55,0.02c0,0,0.01,0.01,0.01,0.01c0,0,0,0.01,0,0.01c0,1.08,0,2.15,0,3.23
		c0,0.02,0,0.03-0.01,0.07c-0.2,0.01-0.4,0.01-0.6,0c0-0.04-0.01-0.06-0.01-0.09c0-1.05,0-2.09,0-3.14
		C17.94,6.1,17.94,6.07,17.95,6.06z M14.3,8.14c0-0.18,0-0.36,0-0.54c0-0.09,0.02-0.18,0.04-0.27c0.06-0.23,0.23-0.36,0.45-0.42
		c0.22-0.05,0.44-0.06,0.66,0C15.77,7,15.9,7.18,15.95,7.51c0.01,0.03,0.01,0.07,0.01,0.1c0,0.35,0,0.69,0,1.04
		c0,0.1-0.01,0.21-0.04,0.31c-0.04,0.13-0.11,0.23-0.23,0.31C15.55,9.35,15.4,9.4,15.24,9.4c-0.15,0-0.31,0.01-0.46-0.04
		c-0.32-0.1-0.45-0.31-0.47-0.59c0-0.04,0-0.09,0-0.13C14.3,8.47,14.3,8.31,14.3,8.14z M10.63,6.05c0-0.01,0.01-0.02,0.01-0.02
		c0.08-0.03,0.44-0.04,0.64-0.01c0,0.03,0.01,0.06,0.01,0.1c0,0.36,0,0.73,0,1.09c0,0.07-0.01,0.14,0.04,0.21
		c0.03-0.03,0.05-0.05,0.06-0.08c0.06-0.17,0.11-0.34,0.17-0.51c0.08-0.25,0.16-0.5,0.24-0.75C11.8,6.04,11.81,6,11.86,6
		c0.2,0,0.4,0,0.61,0c-0.03,0.08-0.05,0.15-0.07,0.22C12.27,6.59,12.13,6.97,12,7.34c-0.02,0.07-0.04,0.13-0.07,0.19
		c-0.02,0.05-0.02,0.1,0,0.15c0.07,0.19,0.14,0.37,0.2,0.56c0.08,0.21,0.16,0.43,0.24,0.64c0.05,0.14,0.1,0.28,0.16,0.43
		c-0.03,0.01-0.05,0.02-0.08,0.03c-0.17,0-0.33,0-0.49,0c-0.06,0-0.09-0.02-0.11-0.08c-0.09-0.28-0.19-0.56-0.28-0.83
		C11.51,8.29,11.47,8.14,11.42,8c-0.02-0.05-0.03-0.12-0.09-0.16C11.27,7.9,11.28,7.95,11.28,8c0,0.41,0,0.81,0,1.22
		c0,0.04,0,0.08,0,0.11c-0.13,0.03-0.54,0.03-0.64,0c0,0-0.01-0.01-0.01-0.01c0,0,0-0.01,0-0.01c0-0.02-0.01-0.04-0.01-0.06
		C10.62,8.18,10.63,7.12,10.63,6.05z M7.17,10.52c0-0.03,0-0.05,0.01-0.08c0.02-0.01,0.03-0.02,0.05-0.02c0.13,0,0.26-0.01,0.39,0
		c0.05,0,0.11,0.03,0.16,0.05c0.38,0.22,0.76,0.44,1.15,0.65c0.01,0.01,0.03,0.02,0.04,0.03c0.08,0.04,0.13,0.01,0.13-0.08
		c0-0.17,0-0.35,0-0.52c0-0.04,0-0.08,0.01-0.12c0.07-0.02,0.39-0.03,0.44-0.02c0.03,0.01,0.05,0.03,0.05,0.06c0,0.02,0,0.04,0,0.06
		c0,0.42,0,0.83,0,1.24c0,0.02,0,0.03-0.01,0.06c-0.03,0.01-0.06,0.02-0.08,0.02c-0.13,0-0.25,0-0.38,0c-0.05,0-0.1-0.01-0.14-0.04
		c-0.16-0.1-0.33-0.19-0.49-0.29c-0.22-0.13-0.43-0.25-0.65-0.38c-0.13-0.08-0.16-0.06-0.16,0.09c0,0.16,0,0.33,0,0.49
		c0,0.03,0,0.07-0.01,0.11c-0.17,0-0.32,0-0.47,0c-0.01-0.03-0.02-0.05-0.02-0.08C7.16,11.36,7.17,10.94,7.17,10.52z M7.18,15.7
		c0.08-0.24,0.26-0.35,0.49-0.38c0.08-0.01,0.16-0.01,0.23-0.01c0.41,0,0.82,0,1.23,0c0.13,0,0.26,0,0.38-0.05
		c0.01-0.01,0.03,0,0.05,0c0.03,0.1,0.03,0.49,0,0.6c-0.06,0.01-0.13,0.03-0.19,0.04c-0.02,0.06,0.02,0.08,0.05,0.1
		c0.18,0.1,0.22,0.27,0.21,0.45c0,0.04-0.01,0.09-0.01,0.13c-0.02,0.23-0.18,0.35-0.37,0.37c-0.2,0.02-0.41,0.01-0.61,0
		c-0.22-0.01-0.37-0.14-0.44-0.34c-0.04-0.12-0.08-0.25-0.12-0.37C8.04,16.15,8.01,16.07,7.95,16c-0.11-0.14-0.26-0.11-0.37-0.03
		c-0.06,0.05-0.09,0.12-0.07,0.2c0.03,0.09,0.1,0.15,0.2,0.16c0.06,0.01,0.12,0,0.18,0c0.03,0.09,0.04,0.39,0.02,0.55
		c-0.16,0.05-0.43,0.01-0.56-0.08c-0.09-0.06-0.14-0.14-0.17-0.24C7.09,16.28,7.08,15.99,7.18,15.7z M9.5,31.47
		c-0.04,0-0.09,0-0.13,0c-0.68,0-1.37,0-2.05,0c-0.04,0-0.09,0-0.12,0c-0.04-0.08-0.04-0.34-0.03-0.62c0.13-0.03,2.3-0.03,2.41,0
		c0,0.03,0,0.06,0,0.08c0,0.15,0,0.29,0,0.44C9.58,31.45,9.57,31.46,9.5,31.47z M9.58,34.93c0,0.47,0,0.94,0,1.42
		c-0.04,0.01-0.08,0.01-0.12,0.02c-0.09,0-0.17-0.01-0.26,0c-0.11,0.01-0.2-0.02-0.28-0.07c-0.36-0.21-0.72-0.42-1.09-0.63
		c-0.02-0.01-0.03-0.02-0.04-0.03c-0.09-0.05-0.13-0.03-0.13,0.08c0,0.17,0,0.34,0,0.51c0,0.03,0,0.05,0,0.08
		c0,0.04-0.02,0.07-0.06,0.07c-0.14,0-0.28,0-0.42,0c-0.01-0.04-0.01-0.08-0.01-0.11c0-0.43,0-0.86,0-1.28
		c0-0.02,0.01-0.03,0.01-0.06c0.06,0,0.13,0,0.19-0.01c0.21-0.03,0.38,0.04,0.56,0.15c0.33,0.2,0.67,0.39,1.01,0.58
		c0.01,0.01,0.02,0.01,0.03,0.02c0.07,0.03,0.11,0.01,0.11-0.07c0-0.19,0-0.38,0-0.57c0-0.03,0-0.06,0-0.08
		C9.19,34.9,9.47,34.9,9.58,34.93z M9.47,27.3c-0.24,0-0.48,0-0.71,0c-0.49,0-0.98,0-1.48,0c-0.03,0-0.06-0.01-0.08-0.01
		c-0.03-0.09-0.04-0.45-0.01-0.59c0.06-0.01,0.13-0.01,0.19-0.02c0.02-0.07-0.03-0.1-0.06-0.12c-0.05-0.04-0.11-0.08-0.14-0.15
		c-0.09-0.18-0.08-0.35,0-0.52c0.06-0.11,0.16-0.18,0.28-0.2c0.11-0.02,0.23-0.04,0.35-0.04c0.55,0,1.1,0,1.65,0
		c0.04,0,0.08,0.01,0.12,0.01c0.02,0.1,0.02,0.48,0.01,0.59c-0.04,0.04-0.09,0.02-0.14,0.02c-0.49,0-0.99,0-1.48,0
		c-0.08,0-0.16,0.01-0.23,0.03c-0.08,0.02-0.13,0.11-0.12,0.19c0.01,0.09,0.06,0.15,0.15,0.17c0.05,0.01,0.09,0.01,0.14,0.01
		c0.51,0,1.02,0,1.53,0c0.04,0,0.09,0,0.14,0c0.01,0.05,0.01,0.07,0.01,0.09c0,0.14,0,0.29,0,0.43C9.58,27.29,9.57,27.3,9.47,27.3z
		 M9.57,22.08c-0.04,0.04-0.09,0.03-0.13,0.03c-0.41,0-0.83,0-1.24,0c-0.64,0-1.27,0-1.91,0c-0.02,0-0.03-0.01-0.05-0.01
		c-0.03-0.09-0.03-0.48-0.01-0.61c0.03,0,0.06-0.01,0.1-0.01c0.29,0,0.59,0,0.88,0c0.04,0,0.08,0,0.14-0.01
		c-0.02-0.04-0.02-0.07-0.04-0.09c-0.02-0.03-0.05-0.05-0.07-0.07c-0.14-0.16-0.17-0.34-0.11-0.53c0.06-0.19,0.21-0.28,0.4-0.31
		c0.07-0.01,0.15-0.01,0.22-0.01c0.56,0,1.12,0,1.67,0c0.04,0,0.09,0,0.15,0.01c0,0.21,0,0.41,0,0.61c-0.06,0-0.1,0.01-0.14,0.01
		c-0.51,0-1.01,0-1.52,0c-0.05,0-0.11,0-0.15,0c-0.14,0.02-0.22,0.19-0.13,0.3c0.04,0.06,0.11,0.08,0.18,0.09
		c0.05,0.01,0.1,0,0.14,0c0.49,0,0.98,0,1.47,0c0.05,0,0.09,0,0.13,0.01C9.59,21.58,9.59,21.95,9.57,22.08z M6.2,15.52
		c0-0.01,0.01-0.02,0.02-0.03c0.01,0,0.03,0,0.04,0.01c0.16,0.13,0.32,0.26,0.48,0.39c0.02,0.02,0.05,0.05,0.05,0.07
		c0.01,0.1,0.02,0.19-0.01,0.3c-0.09-0.03-0.17-0.06-0.26-0.09c-0.08-0.03-0.17-0.07-0.25-0.1c-0.04-0.02-0.07-0.05-0.07-0.1
		C6.2,15.82,6.2,15.67,6.2,15.52z M6.19,30.58c0-0.01,0.01-0.02,0.02-0.04c0.02,0.01,0.05,0.02,0.07,0.03
		c0.15,0.12,0.3,0.24,0.45,0.35c0.04,0.03,0.07,0.07,0.07,0.13c0,0.08,0,0.16,0,0.27c-0.09-0.03-0.15-0.06-0.2-0.08
		c-0.11-0.04-0.21-0.09-0.32-0.13c-0.05-0.02-0.07-0.05-0.07-0.1C6.2,30.87,6.19,30.73,6.19,30.58z M9.61,40.96
		c-0.04,0.29-0.2,0.49-0.5,0.52c-0.14,0.02-0.28,0.01-0.43,0.02c-0.02,0-0.04-0.01-0.06-0.01c-0.03-0.09-0.03-0.44-0.01-0.62
		c0.02-0.01,0.05-0.02,0.08-0.02c0.05,0,0.09,0,0.14-0.01c0.03,0,0.06-0.01,0.09-0.02c0.12-0.04,0.18-0.12,0.17-0.23
		c-0.01-0.1-0.1-0.19-0.22-0.2c-0.15-0.01-0.3-0.02-0.42,0.08c-0.09,0.08-0.18,0.18-0.26,0.27c-0.09,0.11-0.17,0.22-0.27,0.33
		c-0.17,0.2-0.38,0.36-0.65,0.39c-0.23,0.03-0.46,0.04-0.68-0.05c-0.22-0.08-0.34-0.24-0.38-0.47c-0.04-0.25-0.04-0.49,0.01-0.74
		c0.05-0.23,0.17-0.4,0.43-0.46c0.15-0.03,0.3-0.03,0.45-0.03c0.02,0,0.04,0.01,0.07,0.02c0,0.19,0,0.39,0,0.59
		c-0.08,0.01-0.15,0.03-0.23,0.04c-0.04,0.01-0.08,0.01-0.11,0.03c-0.08,0.05-0.12,0.14-0.1,0.24c0.01,0.08,0.09,0.14,0.19,0.15
		c0.18,0.02,0.34-0.01,0.46-0.14c0.11-0.12,0.21-0.24,0.32-0.36c0.1-0.11,0.2-0.22,0.31-0.33c0.18-0.18,0.4-0.25,0.65-0.27
		c0.17-0.01,0.34,0,0.51,0.05c0.26,0.07,0.41,0.26,0.45,0.52C9.65,40.51,9.64,40.74,9.61,40.96z M13.42,45.82
		c-0.09,0.03-0.47,0.02-0.58,0c-0.02-0.12-0.01-0.24-0.01-0.36s0-0.23,0-0.35c0-0.12,0-0.24,0-0.36c0-0.12,0-0.23,0-0.35
		c0-0.12,0-0.24,0-0.36c0-0.12,0-0.23,0.01-0.35c0.01-0.12-0.01-0.24,0-0.36c-0.01,0-0.02,0-0.03,0c-0.01,0.01-0.03,0.03-0.03,0.04
		c-0.02,0.09-0.04,0.18-0.06,0.28c-0.03,0.18-0.06,0.37-0.1,0.55c-0.05,0.3-0.11,0.6-0.16,0.91c-0.04,0.21-0.07,0.42-0.11,0.64
		c-0.01,0.08-0.03,0.1-0.1,0.1c-0.16,0-0.32,0-0.48,0c-0.01,0-0.02-0.01-0.04-0.02c-0.16-0.83-0.29-1.67-0.46-2.5
		c-0.01,0-0.02,0-0.03,0c-0.01,0.02-0.02,0.05-0.02,0.08c0,0.08-0.01,0.16-0.01,0.23c0,0.69,0,1.38,0.01,2.06c0,0.04,0,0.08,0,0.13
		c-0.14,0.03-0.5,0.02-0.59,0c0,0-0.01,0-0.01-0.01c0,0,0-0.01,0-0.01c0-0.05-0.01-0.09-0.01-0.14c0-1.04,0-2.08,0-3.13
		c0-0.01,0.01-0.02,0.01-0.03c0.02,0,0.05-0.02,0.08-0.02c0.28,0,0.55,0,0.83,0c0.08,0,0.09,0.01,0.11,0.1
		c0.06,0.37,0.12,0.73,0.18,1.1c0.03,0.18,0.06,0.36,0.09,0.54c0.02,0.14,0.04,0.28,0.06,0.42c0.01,0.04,0,0.09,0.05,0.11
		c0.05-0.02,0.04-0.07,0.05-0.11c0.05-0.32,0.09-0.63,0.14-0.95c0.06-0.37,0.12-0.73,0.18-1.1c0.01-0.09,0.03-0.1,0.12-0.1
		c0.28,0,0.56,0,0.84,0c0.02,0,0.03,0.01,0.05,0.01c0.01,0.03,0.02,0.06,0.02,0.09C13.46,43.09,13.45,45.73,13.42,45.82z
		 M19.18,44.96c-0.14,0-0.28,0-0.42,0c-0.08,0-0.1-0.01-0.11-0.09c-0.01-0.04,0.01-0.1-0.05-0.11c-0.06-0.01-0.07,0.05-0.1,0.09
		c-0.09,0.12-0.2,0.17-0.34,0.17c-0.11,0-0.21,0-0.32-0.05c-0.12-0.05-0.2-0.14-0.23-0.26c-0.07-0.27-0.07-0.55,0-0.82
		c0.03-0.13,0.12-0.22,0.24-0.28c0.11-0.05,0.23-0.08,0.34-0.12c0.11-0.04,0.22-0.06,0.31-0.13c0.11-0.07,0.15-0.19,0.12-0.3
		c-0.04-0.12-0.17-0.19-0.29-0.14c-0.05,0.02-0.08,0.05-0.1,0.1c-0.02,0.08-0.04,0.17-0.06,0.26c-0.01,0-0.04,0.02-0.06,0.02
		c-0.12,0-0.24,0-0.36,0c-0.1,0-0.11-0.01-0.11-0.12c0-0.09,0.01-0.18,0.03-0.27c0.02-0.14,0.1-0.24,0.22-0.3
		c0.21-0.11,0.44-0.14,0.68-0.11c0.11,0.02,0.22,0.04,0.32,0.09c0.17,0.08,0.27,0.22,0.3,0.4c0.02,0.08,0.02,0.16,0.02,0.25
		c0,0.42,0,0.84,0,1.26c0,0.13,0,0.27,0.05,0.4c0.01,0.02,0,0.03,0.01,0.07C19.23,44.95,19.21,44.96,19.18,44.96z M24.98,45.05
		c0,0.12-0.02,0.23-0.06,0.34c-0.09,0.25-0.3,0.37-0.55,0.4c-0.14,0.02-0.28,0-0.41,0.01c-0.11,0-0.21-0.03-0.3-0.06
		c-0.19-0.07-0.33-0.29-0.31-0.5c0-0.03,0.02-0.06,0.06-0.06c0.02,0,0.03,0,0.05,0c0.14,0,0.28,0,0.42,0c0.06,0,0.1,0.01,0.12,0.07
		c0.04,0.09,0.11,0.12,0.2,0.1c0.09-0.01,0.16-0.08,0.17-0.16c0.01-0.14,0.01-0.29,0-0.44c0-0.01-0.01-0.02-0.02-0.03
		c-0.05-0.01-0.08,0.02-0.1,0.05c-0.09,0.15-0.24,0.19-0.4,0.19c-0.25,0-0.43-0.08-0.48-0.42c-0.02-0.17-0.02-0.34-0.03-0.5
		c0-0.29,0-0.57,0-0.86c0-0.11,0.01-0.22,0.03-0.32c0.03-0.2,0.14-0.33,0.35-0.37c0.19-0.04,0.37,0,0.51,0.14
		c0.03,0.03,0.06,0.08,0.12,0.07c0.06-0.04,0.02-0.1,0.05-0.15c0.09-0.04,0.19-0.01,0.28-0.01c0.09,0,0.19-0.01,0.29,0.01
		c0,0.04,0.01,0.07,0.01,0.11C24.98,43.46,24.98,44.26,24.98,45.05z M30.82,42.64c-0.05,0.22-0.11,0.44-0.16,0.67
		c-0.05,0.2-0.09,0.4-0.13,0.59c-0.03,0.14-0.07,0.28-0.1,0.43c-0.04,0.19-0.08,0.37-0.13,0.56c-0.04,0.18-0.09,0.36-0.13,0.54
		c0,0,0,0.01,0,0.01c-0.07,0.23-0.22,0.37-0.47,0.38c-0.13,0.01-0.26,0-0.39,0.01c-0.04,0-0.08-0.02-0.08-0.06
		c0-0.14-0.01-0.28,0.01-0.43c0.08,0,0.14,0,0.2,0c0.23,0,0.29-0.08,0.23-0.3c-0.04-0.17-0.09-0.33-0.14-0.5
		c-0.09-0.32-0.18-0.64-0.28-0.96c-0.05-0.17-0.1-0.33-0.15-0.5c-0.05-0.16-0.09-0.32-0.13-0.48c0.02-0.01,0.04-0.03,0.06-0.03
		c0.17,0,0.34,0,0.51,0c0.08,0,0.09,0.02,0.11,0.1c0.06,0.3,0.11,0.59,0.17,0.89c0.02,0.13,0.04,0.26,0.07,0.4
		c0.01,0.05,0.01,0.1,0.06,0.12c0.06-0.01,0.06-0.06,0.06-0.1c0.04-0.24,0.07-0.49,0.1-0.73c0.03-0.19,0.05-0.38,0.08-0.56
		c0.02-0.1,0.03-0.11,0.12-0.11c0.15,0,0.29,0,0.44,0c0.03,0,0.05,0.01,0.08,0.01C30.82,42.6,30.82,42.62,30.82,42.64z M36.12,44.99
		c-0.07,0-0.13,0-0.2,0c-0.07,0-0.09-0.02-0.1-0.09c-0.01-0.03-0.01-0.06-0.01-0.09c-0.01-0.04-0.05-0.05-0.08-0.03
		c-0.02,0.02-0.03,0.04-0.05,0.06c-0.07,0.12-0.17,0.18-0.31,0.18c-0.07,0-0.15,0-0.22,0c-0.22-0.01-0.36-0.14-0.39-0.36
		c-0.02-0.18-0.01-0.37-0.01-0.56c0-0.06,0.01-0.12,0.03-0.18c0.04-0.16,0.16-0.27,0.31-0.32c0.12-0.04,0.24-0.07,0.36-0.12
		c0.09-0.03,0.18-0.07,0.25-0.12c0.12-0.08,0.12-0.26,0.03-0.37c-0.1-0.11-0.26-0.09-0.32,0.04c-0.03,0.06-0.03,0.12-0.04,0.19
		c-0.01,0.1-0.01,0.11-0.11,0.11c-0.14,0-0.28,0-0.4,0c-0.01-0.02-0.02-0.02-0.02-0.02c-0.03-0.15-0.02-0.3,0.02-0.45
		c0.04-0.14,0.15-0.22,0.28-0.27c0.29-0.1,0.58-0.1,0.87-0.01c0.21,0.07,0.33,0.22,0.36,0.43c0.01,0.11,0.02,0.22,0.02,0.34
		c0,0.39,0,0.79,0,1.18c0,0.13,0.01,0.26,0.05,0.38c0,0.01,0,0.03,0.01,0.07C36.31,44.99,36.21,44.99,36.12,44.99z M41.62,43.28
		c-0.28,0.03-0.4,0.19-0.43,0.42c-0.01,0.1-0.02,0.21-0.02,0.31c0,0.28,0,0.55,0,0.83c0,0.05,0,0.09-0.01,0.14
		c-0.09,0.03-0.45,0.03-0.6,0.01c0-0.03-0.01-0.07-0.01-0.11c0-0.74,0-1.48,0-2.22c0-0.02,0.01-0.04,0.01-0.06
		c0.1-0.03,0.42-0.03,0.59-0.01c0.03,0.14-0.01,0.27,0.03,0.4c0.06,0.01,0.09-0.03,0.11-0.07c0.04-0.07,0.08-0.14,0.12-0.21
		c0.07-0.09,0.16-0.14,0.28-0.16c0.01,0.03,0.02,0.06,0.02,0.08c0,0.18,0,0.36,0,0.54C41.71,43.27,41.7,43.27,41.62,43.28z
		 M41.84,41.84H10.27V10.27h31.57V41.84z M42.86,28.31c-0.02-0.02-0.04-0.03-0.06-0.04c-0.08-0.05-0.12-0.12-0.14-0.21
		c-0.03-0.14-0.02-0.28,0.02-0.41c0.03-0.11,0.1-0.19,0.21-0.23c0.02-0.01,0.03-0.01,0.05-0.02c0.26-0.05,0.52-0.06,0.78,0
		c0.16,0.04,0.25,0.16,0.3,0.3c0.05,0.12,0.08,0.25,0.13,0.38c0.02,0.07,0.05,0.13,0.08,0.19c0.07,0.11,0.19,0.15,0.31,0.11
		c0.08-0.03,0.14-0.11,0.14-0.2c0-0.09-0.06-0.17-0.15-0.19c-0.04-0.01-0.08-0.01-0.12-0.02c-0.03,0-0.07,0-0.1-0.01
		c-0.03-0.1-0.03-0.4-0.01-0.52c0.11-0.03,0.22-0.01,0.33,0.01c0.19,0.03,0.3,0.14,0.36,0.32c0.09,0.26,0.09,0.53,0.02,0.79
		c-0.07,0.23-0.18,0.38-0.5,0.39c-0.28,0.01-0.55,0.01-0.83,0.01c-0.17,0-0.33,0-0.49,0c-0.14,0-0.28,0-0.41,0.04
		c-0.02,0.01-0.04,0-0.06,0.01c-0.03-0.08-0.04-0.38-0.02-0.57c0.04-0.01,0.09-0.01,0.13-0.02c0.02,0,0.05-0.03,0.06-0.04
		C42.89,28.36,42.88,28.33,42.86,28.31z M45.03,41.44c0,0.01-0.01,0.02-0.02,0.05c-0.04,0-0.08,0.01-0.12,0.01
		c-0.68,0-1.37,0-2.05,0c-0.02,0-0.03,0-0.05,0c-0.04,0-0.07-0.02-0.07-0.07c0-0.17,0-0.34,0-0.52c0.05,0,0.09-0.01,0.13-0.01
		c0.68,0,1.37,0,2.05,0c0.03,0,0.05,0,0.08,0c0.04,0,0.06,0.03,0.06,0.07C45.04,41.12,45.04,41.28,45.03,41.44z M45.03,36
		c-0.06,0.12-0.16,0.2-0.29,0.21c-0.13,0.02-0.26,0.02-0.39,0.02c-0.51,0-1.01,0-1.52,0c-0.03,0-0.07-0.01-0.12-0.01
		c0-0.2,0-0.38,0-0.57c0.03-0.04,0.08-0.03,0.12-0.03c0.42,0,0.85,0,1.27,0c0.09,0,0.17,0,0.26,0c0.07,0,0.13-0.03,0.18-0.07
		c0.09-0.07,0.09-0.17,0-0.25c-0.06-0.05-0.12-0.06-0.19-0.06c-0.2,0-0.41,0-0.61,0c-0.3,0-0.6,0-0.9,0c-0.05,0-0.09-0.01-0.15-0.01
		c0-0.1,0-0.19,0-0.28c0-0.08,0-0.16,0-0.23c0-0.06,0.02-0.07,0.08-0.08c0.03,0,0.06,0,0.09,0c0.43,0,0.87,0,1.3,0
		c0.09,0,0.19-0.01,0.28-0.03c0.09-0.02,0.15-0.08,0.15-0.15c0.01-0.08-0.05-0.15-0.14-0.18c-0.07-0.02-0.14-0.03-0.2-0.03
		c-0.47,0-0.94,0-1.42,0c-0.04,0-0.08,0-0.12,0c-0.03-0.1-0.04-0.45-0.01-0.58c0.02,0,0.04-0.01,0.06-0.02
		c0.35-0.02,2.13,0,2.23,0.02c0.02,0.09,0.03,0.41,0.01,0.55c-0.04,0.04-0.1,0.02-0.15,0.03c-0.02,0-0.06,0.02-0.06,0.03
		c0,0.03,0.01,0.06,0.03,0.08c0.02,0.02,0.05,0.03,0.07,0.05c0.29,0.22,0.19,0.66-0.04,0.78c-0.01,0.01-0.02,0.01-0.03,0.02
		c-0.06,0.04-0.06,0.08,0,0.12c0.01,0.01,0.02,0.01,0.03,0.02C45.1,35.46,45.13,35.81,45.03,36z M45.93,41.47
		c-0.1,0.03-0.39,0.03-0.5,0.01c-0.02-0.09-0.03-0.45-0.01-0.56c0.09-0.03,0.38-0.03,0.51,0C45.93,41.1,45.93,41.29,45.93,41.47z
		 M46.67,12.14c0,0.01-0.01,0.01-0.03,0.04c-0.09-0.11-0.17-0.22-0.25-0.32c-0.02-0.03-0.04-0.07-0.07-0.09
		c-0.16-0.14-0.14-0.32-0.12-0.51c0.02,0,0.04,0,0.05,0.01c0.12,0.08,0.24,0.16,0.35,0.24c0.04,0.03,0.07,0.06,0.07,0.12
		C46.67,11.79,46.67,11.97,46.67,12.14z"/>
	<path fill="#868789" d="M9.03,16.32c0.08-0.04,0.13-0.13,0.12-0.21c-0.01-0.08-0.07-0.16-0.16-0.18c-0.1-0.02-0.2-0.03-0.29-0.04
		c0,0,0,0.01,0,0.01c-0.06,0-0.12-0.01-0.18,0c-0.06,0.01-0.08,0.04-0.06,0.1c0.02,0.06,0.05,0.12,0.08,0.18
		C8.63,16.35,8.85,16.41,9.03,16.32z"/>
	<path fill="#868789" d="M18.62,43.91c0-0.08-0.04-0.11-0.12-0.08c-0.04,0.02-0.09,0.04-0.13,0.06c-0.2,0.1-0.26,0.33-0.16,0.52
		c0.05,0.1,0.14,0.13,0.25,0.1c0.1-0.03,0.14-0.11,0.15-0.21c0.01-0.07,0-0.14,0-0.21c0,0,0,0,0,0
		C18.62,44.03,18.62,43.97,18.62,43.91z"/>
	<path fill="#868789" d="M14.98,8.81c0.05,0.12,0.26,0.1,0.3,0.01c0.03-0.06,0.04-0.12,0.04-0.19c0-0.16,0-0.33,0-0.49
		s0-0.33,0-0.49c0-0.07-0.01-0.13-0.05-0.18c-0.06-0.08-0.15-0.1-0.24-0.05c-0.06,0.04-0.09,0.09-0.09,0.16
		c0,0.12-0.01,0.23-0.01,0.35c0,0.23,0,0.47,0,0.7C14.94,8.68,14.95,8.75,14.98,8.81z"/>
	<path fill="#868789" d="M43.84,11.6c0.02,0,0.04,0,0.06-0.01c0.35-0.04,0.7-0.08,1.06-0.12c0.05-0.01,0.09-0.01,0.13-0.06
		c-0.03-0.01-0.06-0.03-0.08-0.03c-0.08-0.01-0.15-0.03-0.23-0.04c-0.2-0.03-0.4-0.05-0.6-0.08c-0.1-0.01-0.21-0.03-0.31-0.03
		c-0.09-0.01-0.12,0.02-0.12,0.11c0,0.05,0,0.11,0,0.17C43.75,11.58,43.78,11.6,43.84,11.6z"/>
</g>
<path fill="none" d="z"/>
</svg>
