<!-- Generator: Adobe Illustrator 19.2.1, SVG Export Plug-In  -->
<svg version="1.1"
	 xmlns="http://www.w3.org/2000/svg" xmlns:xlink="http://www.w3.org/1999/xlink" xmlns:a="http://ns.adobe.com/AdobeSVGViewerExtensions/3.0/"
	 x="0px" y="0px" width="300.7px" height="243.2px" viewBox="0 0 300.7 243.2" enable-background="new 0 0 300.7 243.2"
	 xml:space="preserve">
<defs>
</defs>
<path fill="#868789" d="M125.1,180.7l-7.8,1.4l0,13.6l7.9-1.6L125.1,180.7z M275.8,153.9c-0.6,0.1-1.2,0.2-1.8,0.4c-0.6,0.2-1.2,0.3-1.7,0.5
	c-0.6,0.2-1.1,0.4-1.6,0.7c-0.5,0.2-1,0.5-1.5,0.8c-0.5,0.3-0.9,0.6-1.3,0.9c-0.4,0.3-0.7,0.7-1.1,1c-0.4,0.3-0.6,0.7-0.9,1.1
	c-0.3,0.4-0.5,0.8-0.7,1.1c-0.2,0.4-0.4,0.9-0.6,1.3c-0.2,0.5-0.3,1-0.4,1.6c-0.1,0.6-0.2,1.2-0.3,1.9c-0.1,0.7-0.1,1.4-0.1,2.2
	c0,0.5,0,1.1,0,1.6c0,0.5,0.1,1,0.1,1.4c0.1,0.4,0.1,0.8,0.2,1.2c0.1,0.4,0.2,0.7,0.4,1.1c0.1,0.3,0.2,0.6,0.4,0.9
	c0.1,0.3,0.3,0.6,0.5,0.8c0.2,0.2,0.4,0.5,0.6,0.6c0.2,0.2,0.4,0.4,0.6,0.5c0.2,0.2,0.5,0.3,0.8,0.5c0.3,0.2,0.7,0.4,1.1,0.7
	c0.4,0.2,0.9,0.5,1.5,0.8c0.5,0.3,1.1,0.6,1.8,0.9c0.7,0.3,1.2,0.6,1.8,0.9c0.5,0.3,1,0.5,1.4,0.8c0.4,0.2,0.8,0.4,1,0.6
	c0.3,0.2,0.5,0.4,0.7,0.5c0.2,0.2,0.3,0.4,0.4,0.6c0.1,0.3,0.2,0.6,0.3,0.9c0.1,0.4,0.1,0.8,0.1,1.3c0,0.5,0,1,0,1.6
	c0,0.3,0,0.5-0.1,0.8c0,0.2-0.1,0.5-0.1,0.7c-0.1,0.2-0.1,0.4-0.2,0.6c-0.1,0.2-0.2,0.3-0.3,0.5c-0.1,0.2-0.2,0.3-0.3,0.4
	c-0.1,0.1-0.2,0.2-0.4,0.3c-0.1,0.1-0.3,0.2-0.4,0.2c-0.2,0.1-0.3,0.1-0.5,0.1c-0.2,0.1-0.4,0.1-0.5,0.1c-0.2,0-0.3,0-0.4,0
	c-0.1,0-0.2-0.1-0.3-0.2c-0.1-0.1-0.2-0.1-0.3-0.2c-0.1-0.1-0.1-0.2-0.2-0.4c-0.1-0.2-0.1-0.4-0.1-0.6c0-0.2,0-0.5,0-0.8
	c0-0.3,0-0.7,0-1l0.2-4.9l-9.9,1.8l-0.1,2.7c0,0.8,0,1.5,0,2.1c0,0.7,0,1.3,0.1,1.9c0.1,0.6,0.1,1.1,0.3,1.6
	c0.1,0.5,0.2,0.9,0.4,1.3c0.1,0.4,0.3,0.7,0.6,1.1c0.2,0.3,0.5,0.6,0.8,0.9c0.3,0.3,0.7,0.5,1.1,0.7c0.4,0.2,0.9,0.4,1.3,0.6
	c0.5,0.2,1,0.3,1.6,0.4c0.5,0.1,1.1,0.2,1.7,0.2c0.6,0,1.2,0,1.9-0.1c0.6-0.1,1.3-0.2,2.1-0.3c0.6-0.1,1.3-0.3,1.9-0.5
	c0.6-0.2,1.2-0.4,1.8-0.6c0.6-0.2,1.1-0.5,1.6-0.8c0.5-0.3,1-0.5,1.5-0.9c0.5-0.3,0.9-0.7,1.4-1c0.4-0.3,0.8-0.7,1.1-1
	c0.3-0.3,0.6-0.7,0.9-1.1c0.3-0.4,0.5-0.7,0.6-1.1c0.2-0.4,0.4-0.8,0.5-1.2c0.2-0.4,0.3-1,0.4-1.5c0.1-0.5,0.2-1.1,0.3-1.8
	c0.1-0.6,0.1-1.3,0.1-2c0-1,0-1.9,0-2.7c0-0.8-0.1-1.6-0.3-2.3c-0.1-0.7-0.3-1.3-0.5-1.8c-0.2-0.5-0.5-1-0.7-1.4
	c-0.3-0.4-0.7-0.8-1.2-1.2c-0.5-0.4-1.1-0.9-1.8-1.3c-0.7-0.4-1.6-0.9-2.5-1.3c-0.9-0.5-2-0.9-3.1-1.4c-0.4-0.2-0.8-0.3-1.1-0.5
	c-0.3-0.2-0.6-0.3-0.9-0.5c-0.3-0.2-0.4-0.3-0.6-0.5c-0.2-0.2-0.3-0.3-0.4-0.5c-0.1-0.2-0.2-0.3-0.2-0.5c-0.1-0.2-0.1-0.4-0.1-0.7
	c-0.1-0.2-0.1-0.5-0.1-0.8c0-0.3,0-0.6,0-0.9c0-0.3,0-0.5,0.1-0.8c0-0.2,0-0.4,0.1-0.6c0-0.2,0.1-0.4,0.2-0.6
	c0.1-0.2,0.2-0.3,0.2-0.5c0.1-0.1,0.2-0.3,0.3-0.4c0.1-0.1,0.2-0.2,0.3-0.3c0.1-0.1,0.2-0.2,0.4-0.2c0.1,0,0.3-0.1,0.5-0.1
	c0.2,0,0.3,0,0.4,0c0.1,0,0.2,0,0.3,0c0.1,0,0.2,0.1,0.3,0.1c0.1,0.1,0.1,0.1,0.2,0.2c0.1,0.1,0.1,0.2,0.2,0.4
	c0,0.1,0.1,0.3,0.1,0.6c0,0.2,0,0.5,0,0.8c0,0.3,0,0.6,0,1l-0.1,3l9.8-1.8l0.1-1.6c0-0.8,0-1.6,0-2.3c0-0.7,0-1.3-0.1-1.9
	c-0.1-0.6-0.1-1.1-0.2-1.5c-0.1-0.4-0.2-0.8-0.4-1.1c-0.2-0.3-0.3-0.6-0.6-0.9c-0.2-0.3-0.5-0.5-0.8-0.7c-0.3-0.2-0.7-0.4-1-0.6
	c-0.4-0.2-0.8-0.3-1.3-0.5c-0.5-0.1-1-0.3-1.5-0.3c-0.5-0.1-1.1-0.1-1.7-0.1c-0.6,0-1.2,0-1.8,0.1
	C277.1,153.7,276.5,153.8,275.8,153.9 M261.9,157.1l-18.2,3.2l-1.1,41.1l18.8-3.6l0.3-8.1l-7.9,1.5l0.3-8.9l6.7-1.2l0.3-7.8
	l-6.8,1.2l0.2-7.8l7.2-1.3L261.9,157.1z M227.3,162.2c-0.8,0.1-1.6,0.3-2.4,0.5c-0.7,0.2-1.5,0.5-2.2,0.8c-0.7,0.3-1.3,0.6-2,1
	c-0.6,0.4-1.2,0.8-1.7,1.3c-0.5,0.5-1,0.9-1.5,1.4c-0.4,0.5-0.8,0.9-1.1,1.4c-0.3,0.5-0.6,0.9-0.8,1.4c-0.2,0.5-0.4,0.9-0.5,1.4
	c-0.2,0.5-0.2,1-0.3,1.6c-0.1,0.6-0.2,1.3-0.3,2c-0.1,0.7-0.1,1.5-0.2,2.4c0,0.8-0.1,1.8-0.1,2.8l-0.3,12.4c0,0.7,0,1.4,0,2v1.7
	c0,0.5,0.1,1,0.1,1.5c0,0.4,0.1,0.8,0.1,1.2c0,0.4,0.1,0.7,0.2,1c0.1,0.4,0.2,0.7,0.3,1c0.1,0.3,0.3,0.6,0.4,0.9
	c0.2,0.3,0.3,0.6,0.6,0.9c0.2,0.3,0.4,0.5,0.7,0.8c0.3,0.3,0.5,0.5,0.8,0.7c0.3,0.2,0.6,0.4,1,0.6c0.3,0.2,0.7,0.3,1.1,0.5
	c0.4,0.1,0.8,0.3,1.2,0.3c0.4,0.1,0.8,0.1,1.3,0.2c0.5,0,0.9,0,1.3,0c0.4,0,0.9-0.1,1.4-0.2c0.4-0.1,0.8-0.2,1.1-0.3
	c0.4-0.1,0.7-0.2,1-0.4c0.3-0.1,0.7-0.3,1-0.5c0.3-0.2,0.6-0.4,0.9-0.6c0.3-0.2,0.6-0.4,0.8-0.7c0.3-0.3,0.5-0.5,0.8-0.8
	c0.3-0.3,0.5-0.6,0.7-0.9c0.2-0.3,0.4-0.6,0.6-1l0.9,2.7l6.9-1.3l0.6-22l-13,2.4l-0.1,6.3l2.2-0.4l-0.1,4.9c0,0.5,0,0.9-0.1,1.3
	c0,0.4-0.1,0.8-0.1,1.1s-0.1,0.6-0.2,0.9c-0.1,0.3-0.1,0.5-0.2,0.6c-0.1,0.2-0.2,0.3-0.3,0.5c-0.1,0.1-0.2,0.3-0.4,0.4
	c-0.1,0.1-0.3,0.2-0.5,0.3c-0.2,0.1-0.4,0.1-0.6,0.2c-0.2,0-0.3,0-0.5,0c-0.1,0-0.3,0-0.4-0.1c-0.2-0.1-0.2-0.1-0.3-0.2
	c-0.1-0.1-0.2-0.2-0.2-0.3c-0.1-0.1-0.1-0.3-0.2-0.5c0-0.2-0.1-0.5-0.1-0.8c0-0.3,0-0.6-0.1-1c0-0.4,0-0.8,0-1.3l0.4-19.9
	c0-0.5,0-1,0.1-1.4c0-0.4,0.1-0.8,0.1-1.1c0-0.3,0.1-0.6,0.1-0.9c0-0.2,0.1-0.4,0.2-0.6c0.1-0.1,0.1-0.3,0.2-0.4
	c0.1-0.1,0.2-0.2,0.3-0.3c0.1-0.1,0.2-0.2,0.4-0.2c0.1-0.1,0.3-0.1,0.5-0.1c0.2,0,0.4,0,0.6,0c0.1,0,0.3,0,0.4,0.1
	c0.1,0.1,0.3,0.1,0.3,0.2c0.1,0.1,0.2,0.2,0.2,0.4c0,0.1,0.1,0.4,0.1,0.6c0,0.2,0.1,0.6,0.1,0.9c0,0.4,0,0.8,0,1.3c0,0.5,0,1,0,1.6
	l-0.1,3.8l11.1-2l0.1-1.8c0-0.9,0-1.7,0-2.4c0-0.8-0.1-1.4-0.1-2.1c-0.1-0.6-0.2-1.2-0.3-1.7c-0.1-0.5-0.2-1-0.4-1.4
	c-0.2-0.4-0.3-0.8-0.6-1.2c-0.2-0.4-0.5-0.7-0.9-1.1c-0.3-0.3-0.7-0.6-1.2-0.9c-0.4-0.3-0.9-0.5-1.4-0.8c-0.5-0.2-1.1-0.4-1.7-0.6
	c-0.6-0.1-1.2-0.2-1.9-0.3c-0.7-0.1-1.4-0.1-2.1,0C228.9,162,228.1,162.1,227.3,162.2 M212.2,207.2l-11.5,2.2l-0.5-7.3l-4.1,0.8
	l-0.8,7.6l-11.9,2.3l6.4-43.2l16.6-2.9L212.2,207.2z M200,194.8c-0.1-1.2-0.2-2.4-0.4-3.7c-0.1-1.3-0.2-2.7-0.4-4.1
	c-0.1-1.5-0.3-3-0.4-4.6c-0.1-1.6-0.2-3.3-0.4-5c-0.3,2.1-0.6,4-0.9,5.8c-0.3,1.8-0.5,3.4-0.7,4.9c-0.2,1.5-0.4,2.9-0.5,4.1
	c-0.2,1.2-0.3,2.3-0.4,3.3L200,194.8z M181.4,171l-15.3,2.7l-2.8,20.4l-1.6-10.5c-0.1-0.9-0.3-1.7-0.3-2.5c-0.1-0.8-0.2-1.6-0.4-2.3
	c-0.1-0.7-0.2-1.5-0.3-2.1c-0.1-0.7-0.2-1.3-0.3-2l-15.5,2.6l-0.1,42.8l10.4-2l0.1-28l4.2,27.2l7.2-1.4l4.3-29.3l-0.2,28.5l10.1-1.9
	L181.4,171z M141,178l-12.2,2.1l0.1,43.1l12-2.3L141,178z M94.7,186c1.5-0.3,2.9-0.5,4.2-0.7c1.3-0.2,2.4-0.4,3.4-0.5
	c1-0.1,1.9-0.2,2.7-0.2c0.8-0.1,1.4-0.1,2,0c0.5,0,1,0.1,1.5,0.2c0.5,0.1,0.9,0.2,1.3,0.3c0.4,0.1,0.8,0.3,1.1,0.5
	c0.3,0.2,0.6,0.4,0.9,0.7c0.3,0.2,0.5,0.5,0.8,0.8c0.2,0.3,0.4,0.5,0.6,0.8c0.2,0.3,0.3,0.6,0.4,0.9c0.1,0.3,0.2,0.6,0.3,1
	c0.1,0.3,0.1,0.8,0.2,1.3c0.1,0.5,0.1,1.1,0.2,1.8c0,0.7,0.1,1.5,0.1,2.3c0,0.8,0,1.8,0,2.8l0.1,15.1c0,1,0,1.9,0,2.7
	c0,0.8-0.1,1.5-0.1,2.2c-0.1,0.7-0.1,1.2-0.2,1.8c-0.1,0.5-0.2,0.9-0.3,1.3c-0.1,0.3-0.2,0.7-0.3,1c-0.1,0.3-0.3,0.6-0.5,0.9
	c-0.2,0.3-0.4,0.6-0.6,0.8c-0.2,0.3-0.5,0.5-0.7,0.7c-0.3,0.2-0.5,0.5-0.8,0.7c-0.3,0.2-0.6,0.4-0.9,0.6c-0.3,0.2-0.6,0.4-0.9,0.5
	c-0.4,0.2-0.7,0.3-1.1,0.4c-0.4,0.2-0.8,0.3-1.2,0.4c-0.5,0.1-1,0.3-1.5,0.4c-0.6,0.1-1.2,0.3-1.8,0.4c-0.6,0.1-1.3,0.3-2.1,0.4
	l-15.7,3l-0.6-43.8L94.7,186z M98.2,221.7c0.4-0.1,0.8-0.2,1.2-0.3c0.4-0.1,0.7-0.2,1-0.3c0.3-0.2,0.5-0.3,0.7-0.4
	c0.2-0.2,0.3-0.3,0.4-0.5c0.1-0.2,0.2-0.4,0.3-0.7c0.1-0.3,0.2-0.7,0.2-1.2c0-0.5,0.1-1,0.1-1.6c0-0.6,0-1.2,0-2l-0.2-16.9
	c0-0.5,0-0.9,0-1.3c0-0.4,0-0.8,0-1.1c0-0.3,0-0.6-0.1-0.8c0-0.2,0-0.4-0.1-0.5c-0.1-0.2-0.1-0.3-0.2-0.4c-0.1-0.1-0.1-0.2-0.2-0.3
	c-0.1-0.1-0.2-0.2-0.3-0.2c-0.1-0.1-0.2-0.1-0.4-0.2c-0.1,0-0.3-0.1-0.4-0.1c-0.2,0-0.4,0-0.6,0c-0.3,0-0.5,0-0.8,0.1
	c-0.3,0-0.6,0.1-0.9,0.1L98.2,221.7z M285.3,44.6L274,46l-1.5,44.2l17.9-2.5l0.3-8.7l-6.7,1L285.3,44.6z M270,90.5l-11.5,1.6
	l-0.4-7.8l-4.2,0.6l-0.8,8l-11.9,1.7l7.1-45.5l16.7-2L270,90.5z M258,76.5c-0.1-1.2-0.2-2.5-0.3-3.9c-0.1-1.4-0.2-2.9-0.3-4.4
	c-0.1-1.5-0.2-3.2-0.3-4.9c-0.1-1.7-0.2-3.5-0.3-5.3c-0.4,2.2-0.7,4.2-1,6.1c-0.3,1.9-0.6,3.6-0.8,5.2c-0.2,1.6-0.4,3-0.6,4.3
	c-0.2,1.3-0.3,2.4-0.4,3.4L258,76.5z M243.2,49.8l-12.4,1.5l-1,8.5c-0.2,1.7-0.4,3.5-0.6,5.3c-0.2,1.8-0.4,3.7-0.6,5.7
	c-0.2,2-0.4,4-0.6,6c-0.2,2.1-0.4,4.2-0.6,6.4c-0.1-2.1-0.3-4.4-0.4-6.7c-0.2-2.3-0.3-4.8-0.5-7.4c-0.2-2.6-0.4-5.3-0.6-8.2
	c-0.3-2.9-0.5-5.8-0.8-8.9l-12.6,1.6l6,44.4l17.8-2.5L243.2,49.8z M209.7,53.9l-12.1,1.5l-0.7,45.6l12-1.7L209.7,53.9z M194.2,55.7
	l-27,3.3l-0.1,9.3l7.4-0.9l-0.3,36.7l12.2-1.7l0.4-36.5l7.3-0.9L194.2,55.7z M149.6,60.2c-0.8,0.1-1.5,0.2-2.2,0.4
	c-0.7,0.1-1.4,0.3-2,0.5c-0.6,0.2-1.3,0.4-1.9,0.7c-0.6,0.3-1.2,0.5-1.7,0.8c-0.5,0.3-1,0.6-1.5,1c-0.5,0.3-0.9,0.7-1.3,1.1
	c-0.4,0.4-0.8,0.8-1.1,1.2c-0.3,0.4-0.6,0.8-0.8,1.3c-0.2,0.4-0.5,1-0.6,1.5c-0.2,0.5-0.4,1.2-0.5,1.8c-0.1,0.7-0.2,1.4-0.3,2.2
	c-0.1,0.8-0.1,1.6-0.1,2.5c0,0.6,0.1,1.2,0.1,1.8c0.1,0.6,0.1,1.1,0.2,1.6c0.1,0.5,0.2,1,0.3,1.4c0.1,0.4,0.3,0.8,0.4,1.2
	c0.2,0.4,0.4,0.7,0.6,1.1c0.2,0.3,0.4,0.6,0.6,0.9c0.2,0.3,0.4,0.6,0.7,0.8c0.2,0.2,0.5,0.5,0.7,0.6c0.3,0.2,0.6,0.4,1,0.7
	c0.4,0.2,0.9,0.5,1.4,0.8c0.5,0.3,1.1,0.6,1.8,0.9c0.7,0.4,1.4,0.7,2.2,1.1c0.8,0.4,1.5,0.8,2.1,1.1c0.6,0.3,1.2,0.7,1.7,0.9
	c0.5,0.3,0.9,0.5,1.3,0.8c0.4,0.2,0.6,0.4,0.8,0.6c0.2,0.2,0.4,0.4,0.5,0.7c0.2,0.3,0.3,0.7,0.4,1.1c0.1,0.4,0.2,0.9,0.2,1.5
	c0,0.6,0.1,1.2,0.1,1.9c0,0.3,0,0.6,0,0.9c0,0.3-0.1,0.5-0.1,0.8c-0.1,0.2-0.1,0.5-0.2,0.7c-0.1,0.2-0.2,0.4-0.3,0.6
	c-0.1,0.2-0.2,0.3-0.4,0.5c-0.1,0.2-0.3,0.3-0.4,0.4c-0.1,0.1-0.3,0.2-0.5,0.2c-0.2,0.1-0.4,0.1-0.6,0.2c-0.2,0-0.4,0-0.6,0
	c-0.2,0-0.3,0-0.5-0.1c-0.2-0.1-0.3-0.1-0.4-0.2c-0.1-0.1-0.2-0.2-0.3-0.3c-0.1-0.1-0.1-0.3-0.2-0.5c-0.1-0.2-0.1-0.4-0.2-0.7
	c0-0.3-0.1-0.6-0.1-0.9c0-0.3-0.1-0.7,0-1.2v-5.7L136.1,93v3c0,0.9,0,1.7,0.1,2.5c0.1,0.8,0.1,1.5,0.2,2.1c0.1,0.7,0.2,1.3,0.4,1.8
	c0.2,0.6,0.3,1.1,0.5,1.5c0.2,0.5,0.4,0.9,0.7,1.3c0.3,0.4,0.6,0.8,1,1.1c0.4,0.3,0.8,0.6,1.3,0.9c0.5,0.3,1.1,0.5,1.6,0.7
	c0.6,0.2,1.2,0.4,1.9,0.5c0.7,0.1,1.3,0.2,2.1,0.3c0.7,0.1,1.5,0.1,2.2,0c0.8,0,1.6-0.1,2.4-0.2c0.8-0.1,1.5-0.2,2.2-0.4
	c0.7-0.2,1.4-0.4,2.1-0.6c0.7-0.2,1.3-0.5,1.9-0.8c0.6-0.3,1.2-0.6,1.8-0.9c0.6-0.4,1.1-0.7,1.6-1.1c0.5-0.4,0.9-0.7,1.3-1.1
	c0.4-0.4,0.7-0.8,1-1.2c0.3-0.4,0.6-0.8,0.8-1.2c0.2-0.4,0.4-0.9,0.5-1.4c0.2-0.5,0.3-1.1,0.4-1.7c0.1-0.6,0.2-1.3,0.2-2
	c0.1-0.7,0.1-1.5,0.1-2.3c0-1.1,0-2.2-0.1-3.1c-0.1-1-0.2-1.8-0.4-2.6c-0.2-0.8-0.4-1.5-0.7-2.1c-0.3-0.6-0.6-1.2-0.9-1.6
	c-0.4-0.5-0.8-0.9-1.5-1.4c-0.6-0.5-1.4-1-2.2-1.6c-0.9-0.5-1.9-1.1-3-1.7c-1.1-0.6-2.4-1.2-3.8-1.8c-0.5-0.2-1-0.4-1.3-0.6
	c-0.4-0.2-0.7-0.4-1-0.6c-0.3-0.2-0.5-0.4-0.8-0.6c-0.2-0.2-0.3-0.4-0.5-0.6c-0.1-0.2-0.2-0.4-0.3-0.6c-0.1-0.2-0.2-0.5-0.2-0.8
	c-0.1-0.3-0.1-0.6-0.1-0.9c0-0.3,0-0.7,0-1.1c0-0.3,0-0.6,0-0.8c0-0.3,0.1-0.5,0.1-0.8c0.1-0.2,0.1-0.4,0.2-0.6
	c0.1-0.2,0.2-0.4,0.3-0.5c0.1-0.2,0.2-0.3,0.3-0.4c0.1-0.1,0.2-0.2,0.4-0.3c0.2-0.1,0.3-0.2,0.5-0.2c0.2-0.1,0.4-0.1,0.5-0.1
	c0.2,0,0.3,0,0.5,0c0.2,0,0.3,0,0.4,0.1c0.1,0.1,0.2,0.1,0.4,0.2c0.1,0.1,0.2,0.2,0.2,0.3c0.1,0.1,0.2,0.2,0.2,0.4
	c0,0.2,0.1,0.4,0.1,0.6c0,0.3,0.1,0.6,0.1,0.9c0,0.3,0,0.7,0,1.1v3.5l11.7-1.5l0-1.8c0-0.9,0-1.8-0.1-2.5c-0.1-0.8-0.1-1.5-0.2-2.1
	c-0.1-0.6-0.2-1.2-0.3-1.7c-0.1-0.5-0.3-0.9-0.5-1.3c-0.2-0.4-0.4-0.7-0.7-1c-0.3-0.3-0.6-0.6-1-0.9c-0.4-0.3-0.8-0.5-1.3-0.8
	c-0.5-0.2-1-0.4-1.6-0.6c-0.6-0.2-1.2-0.3-1.8-0.4c-0.6-0.1-1.3-0.2-2-0.3c-0.7,0-1.4-0.1-2.2,0C151.3,60,150.5,60.1,149.6,60.2
	 M131.6,63.4L109.9,66l0.3,47.3l22.3-3.2v-9.3l-9.4,1.3l0-10.2l8-1.1l0-8.9l-8.1,1.1l0-9l8.6-1.1L131.6,63.4z M106.1,66.5l-22.6,2.7
	l0.7,47.8l13.2-1.9l-0.2-19.8l8.1-1.1l-0.1-9.1l-8.1,1.1l-0.1-9l9.2-1.2L106.1,66.5z M272.7,93.6c-0.9,0.1-1.7,0.3-2.5,0.5
	c-0.8,0.2-1.6,0.4-2.3,0.7c-0.8,0.3-1.5,0.5-2.2,0.9c-0.7,0.3-1.4,0.7-2,1c-0.6,0.4-1.2,0.8-1.8,1.2c-0.6,0.4-1.1,0.9-1.5,1.3
	c-0.5,0.5-0.9,0.9-1.3,1.5c-0.4,0.5-0.7,1-1,1.6c-0.3,0.5-0.6,1.2-0.8,1.8c-0.2,0.7-0.4,1.5-0.6,2.3c-0.2,0.8-0.3,1.7-0.4,2.7
	c-0.1,0.9-0.2,2-0.2,3.1c0,0.7,0,1.5,0,2.2c0,0.7,0.1,1.3,0.2,1.9c0.1,0.6,0.2,1.2,0.3,1.7c0.1,0.5,0.3,1,0.5,1.5
	c0.2,0.4,0.4,0.9,0.6,1.3c0.2,0.4,0.4,0.8,0.7,1.1c0.2,0.4,0.5,0.7,0.8,1c0.2,0.3,0.5,0.5,0.8,0.8c0.3,0.2,0.7,0.5,1.1,0.8
	c0.4,0.3,0.9,0.6,1.6,0.9c0.6,0.3,1.3,0.7,2,1.1c0.7,0.4,1.6,0.8,2.4,1.3c0.9,0.5,1.7,0.9,2.4,1.3c0.7,0.4,1.4,0.8,1.9,1.1
	c0.6,0.4,1,0.6,1.4,0.9c0.4,0.3,0.7,0.5,0.9,0.7c0.2,0.2,0.4,0.5,0.6,0.9c0.2,0.4,0.3,0.8,0.4,1.3c0.1,0.5,0.2,1.1,0.2,1.8
	c0,0.7,0,1.4,0,2.2c0,0.4-0.1,0.7-0.1,1c0,0.4-0.1,0.7-0.2,0.9c-0.1,0.3-0.2,0.6-0.3,0.8c-0.1,0.3-0.2,0.5-0.3,0.7
	c-0.1,0.2-0.3,0.4-0.4,0.6c-0.2,0.2-0.3,0.3-0.5,0.4c-0.2,0.1-0.4,0.2-0.6,0.3c-0.2,0.1-0.4,0.1-0.7,0.2c-0.2,0.1-0.5,0.1-0.7,0.1
	s-0.4,0-0.6-0.1c-0.2-0.1-0.3-0.1-0.4-0.2c-0.1-0.1-0.2-0.2-0.4-0.3c-0.1-0.1-0.2-0.3-0.2-0.5c-0.1-0.2-0.1-0.5-0.1-0.8
	c-0.1-0.3-0.1-0.7-0.1-1.1c0-0.4,0-0.9,0-1.4l0.2-6.8l-13.7,2.2l-0.1,3.7c0,1,0,2,0,3c0,0.9,0.1,1.8,0.2,2.6
	c0.1,0.8,0.2,1.5,0.3,2.2c0.2,0.7,0.3,1.3,0.5,1.8c0.2,0.5,0.5,1,0.8,1.5c0.3,0.5,0.7,0.9,1.1,1.3c0.4,0.4,0.9,0.7,1.5,1
	c0.6,0.3,1.2,0.6,1.9,0.9c0.7,0.3,1.4,0.4,2.1,0.6c0.8,0.2,1.5,0.2,2.4,0.3c0.8,0.1,1.7,0.1,2.6,0c0.9-0.1,1.8-0.2,2.8-0.4
	c0.9-0.1,1.8-0.3,2.6-0.6c0.8-0.2,1.6-0.5,2.4-0.7c0.8-0.3,1.5-0.6,2.3-1c0.7-0.4,1.4-0.8,2.1-1.2c0.7-0.4,1.3-0.9,1.9-1.3
	c0.6-0.5,1.1-0.9,1.5-1.4c0.5-0.5,0.9-0.9,1.2-1.4c0.3-0.5,0.7-1,0.9-1.5c0.2-0.5,0.5-1.1,0.7-1.7c0.2-0.6,0.4-1.3,0.5-2.1
	c0.1-0.7,0.3-1.6,0.3-2.4c0.1-0.9,0.2-1.8,0.2-2.8c0.1-1.4,0.1-2.6,0-3.8c-0.1-1.2-0.2-2.2-0.3-3.2c-0.2-1-0.4-1.8-0.7-2.6
	c-0.3-0.8-0.6-1.4-1-2c-0.4-0.6-0.9-1.1-1.6-1.7c-0.7-0.6-1.6-1.2-2.5-1.8c-1-0.6-2.1-1.3-3.4-2c-1.3-0.7-2.7-1.4-4.3-2.1
	c-0.6-0.3-1.1-0.5-1.5-0.7c-0.4-0.3-0.8-0.5-1.2-0.7c-0.3-0.2-0.6-0.5-0.8-0.7c-0.3-0.2-0.4-0.4-0.5-0.7c-0.1-0.2-0.2-0.5-0.3-0.7
	c-0.1-0.3-0.2-0.6-0.2-0.9c0-0.3-0.1-0.7-0.1-1.1c0-0.4,0-0.8,0-1.3c0-0.4,0-0.7,0.1-1c0-0.3,0.1-0.6,0.2-0.9
	c0.1-0.3,0.1-0.6,0.2-0.8c0.1-0.2,0.2-0.5,0.3-0.7c0.1-0.2,0.3-0.4,0.4-0.5c0.1-0.2,0.3-0.3,0.5-0.4c0.2-0.1,0.4-0.2,0.6-0.3
	c0.2-0.1,0.4-0.1,0.6-0.2c0.2,0,0.4,0,0.6,0c0.2,0,0.3,0,0.5,0.1c0.1,0.1,0.3,0.1,0.4,0.2c0.1,0.1,0.2,0.2,0.3,0.3
	c0.1,0.1,0.2,0.3,0.2,0.5c0.1,0.2,0.1,0.5,0.1,0.8c0,0.3,0.1,0.7,0.1,1c0,0.4,0,0.8,0,1.3l-0.1,4.2l13.5-2.1l0.1-2.2
	c0-1.1,0.1-2.2,0-3.1c0-1-0.1-1.8-0.1-2.6c-0.1-0.8-0.2-1.5-0.3-2.1c-0.1-0.6-0.3-1.1-0.5-1.6c-0.2-0.4-0.5-0.9-0.8-1.2
	c-0.3-0.4-0.7-0.7-1.1-1c-0.4-0.3-0.9-0.6-1.5-0.9c-0.5-0.3-1.1-0.5-1.8-0.7c-0.6-0.2-1.4-0.4-2.1-0.5c-0.7-0.1-1.5-0.2-2.3-0.2
	c-0.8-0.1-1.7-0.1-2.5,0C274.6,93.4,273.6,93.5,272.7,93.6 M235.2,98.9c1.1-0.2,2.1-0.3,3-0.4c0.9-0.1,1.9-0.2,2.7-0.2
	c0.8-0.1,1.6-0.1,2.3,0c0.7,0,1.3,0.1,1.9,0.2c0.6,0.1,1.1,0.2,1.6,0.3c0.5,0.2,1,0.3,1.4,0.5c0.4,0.2,0.8,0.4,1.2,0.6
	c0.3,0.2,0.7,0.5,0.9,0.7c0.3,0.3,0.5,0.6,0.8,0.9c0.2,0.3,0.5,0.7,0.6,1c0.2,0.4,0.4,0.7,0.5,1.1c0.2,0.4,0.3,0.8,0.4,1.2
	c0.1,0.4,0.2,0.9,0.2,1.5c0.1,0.6,0.1,1.2,0.1,1.9c0,0.7,0,1.4,0,2.3c0,0.8,0,1.7,0,2.6l-0.1,5.2c0,0.9-0.1,1.9-0.2,2.7
	c-0.1,0.8-0.2,1.6-0.3,2.3c-0.1,0.7-0.3,1.4-0.4,1.9c-0.2,0.6-0.3,1.1-0.6,1.6c-0.2,0.5-0.5,0.9-0.7,1.3c-0.3,0.4-0.6,0.8-1,1.2
	c-0.4,0.4-0.8,0.8-1.2,1.1c-0.5,0.4-0.9,0.7-1.5,1c-0.5,0.3-1.1,0.6-1.7,0.9c-0.6,0.3-1.3,0.5-2,0.8c-0.7,0.2-1.4,0.4-2.2,0.6
	s-1.6,0.3-2.5,0.5l-4.2,0.7l-0.6,23.9l-15.9,2.7l1.2-60.4L235.2,98.9z M235.7,124.5c0.4-0.1,0.7-0.1,1-0.2c0.3-0.1,0.6-0.2,0.8-0.3
	c0.2-0.1,0.5-0.3,0.7-0.4c0.2-0.2,0.4-0.3,0.5-0.5c0.1-0.2,0.3-0.4,0.4-0.7c0.1-0.3,0.2-0.6,0.3-1c0.1-0.4,0.1-0.8,0.2-1.3
	c0.1-0.5,0.1-1,0.1-1.5l0.1-5c0-0.5,0-1,0-1.4c0-0.4-0.1-0.8-0.1-1.1c-0.1-0.3-0.2-0.6-0.3-0.8c-0.1-0.2-0.3-0.4-0.4-0.5
	c-0.2-0.1-0.4-0.2-0.6-0.3c-0.3-0.1-0.5-0.1-0.9-0.2c-0.3,0-0.7,0-1.1,0c-0.4,0-0.9,0.1-1.4,0.1l-0.4,15.4c0.1,0,0.2,0,0.3-0.1
	c0.1,0,0.2,0,0.3,0c0.1,0,0.2,0,0.3,0C235.5,124.5,235.6,124.5,235.7,124.5 M213.8,102l-21.3,3.1l-4.2,29.3l-2.1-15.3
	c-0.2-1.2-0.3-2.4-0.5-3.6c-0.2-1.1-0.3-2.3-0.5-3.3c-0.2-1.1-0.3-2.1-0.4-3.1c-0.2-1-0.3-1.9-0.4-2.9l-21.9,3.2l-0.4,61.7l14.6-2.5
	l0.4-40.3l5.6,39.2l10.1-1.7l6.3-41.8l-0.6,40.9l14.1-2.4L213.8,102z M156.4,110.2l-29,4.2l0.2,62.6l29.5-5.1l0.1-12.2l-12.4,2.1
	l0-13.6l10.6-1.7l0.1-11.8l-10.6,1.6l0-11.9l11.4-1.7L156.4,110.2z M123.5,115l-39.3,5.7l0.2,12.9l10.7-1.6l0.6,50.6l17.7-3
	l-0.3-50.2l10.5-1.6L123.5,115z M77.1,59.1l0,184.1l-71.5-63L0,19.8L203.4,0l97.2,32.8L77.1,59.1z"/>
</svg>
