<!-- Generator: Adobe Illustrator 19.2.1, SVG Export Plug-In  -->
<svg version="1.1"
	 xmlns="http://www.w3.org/2000/svg" xmlns:xlink="http://www.w3.org/1999/xlink" xmlns:a="http://ns.adobe.com/AdobeSVGViewerExtensions/3.0/"
	 x="0px" y="0px" width="434.9px" height="53.6px" viewBox="0 0 434.9 53.6" enable-background="new 0 0 434.9 53.6"
	 xml:space="preserve">
<defs>
</defs>
<path fill='#868789' d="M303,35.2c-1,0-2.1-2-2.1-4.5c0-2.5-0.4-5.4-2.1-7.4c-1.8-2-3.9-2.6-3.9-2.6s4.5-1.2,6.5-4.3c2.3-3.7,3-7.9,0.7-11.3
	c-2-2.9-5.2-3.7-5.9-3.7c-0.7,0-4.1,2.2-6.9,4.5c-2.8,2.4-3.2,4-3.9,2.7c-0.7-1.3-3.1-6.2-9.8-6.9c-6.7-0.7-9.1,2.7-12.3,2
	C260,3,260.8,0,260.8,0s-3.3,3.9,1.5,9c4.9,5.2,11.9,0.4,15.8,3.7c3.9,3.3,3.1,10.5,0.9,12.9c-2.2,2.4-3.4,2.6-5,2.4
	c-1.6-0.2-2-1.3-2-1.3s4.8,1.3,5.5-3.2c0.7-4.5-1.2-6.1-4.5-6.5c-3.3-0.3-6.4,4.3-4.3,7.8c2,3.5,4,5,8.9,4.2c4.9-0.8,8-6.4,8.7-10
	c0.7-3.6,0.6-4.1,0.2-6.1c-0.3-2,0.7-3,1.2-3.6c0.5-0.6,0.6-0.8,0.6,1.8c0,2.6,0,8.1,0,8.1s-0.8,0.3-0.8,1.5c0,1.2,0.8,1.5,0.8,1.5
	s0.1,7,0.1,8.7c0,1.7,0,2.6-0.8,3.4c-0.8,0.8-1.2,0.1-2.4-1.1c-1.1-1.2-3.6-3.2-9-2.4c-5.4,0.8-8.6,4.2-9.8,6.7
	c-1.3,2.5-2.3,7.6,1.1,10.8c3.4,3.2,9.2,4.5,15,2.9c5.8-1.6,7.6-5.3,7.7-6.7c0-0.7,0.1-0.7,0.1-0.7s-2.2,4.7-9.6,5.4
	c-5.6,0.5-10.2,0.1-12.7-3.9c-2.4-4-0.5-7.8,4.1-8.5c4.6-0.7,7,3.1,8.1,4.5c1.1,1.3,1.6,1.2,1.9,0.6c0.4-0.6,1.2-2.2,3.1-3.7
	c1.9-1.5,4.3-3.5,4.3-5v-7.7c0-1.8-0.5-3.8,0.8-3.8c1.3,0,2.3,0.2,2.3,2.3s-0.2,8.5,0.7,12c1,3.5,3.7,5.5,4.2,5.9
	c0.5,0.4,0.7-0.3,1-0.8c0.3-0.5,2.5-2.4,3.6-3.3c1.1-0.9,2.2-2.1,2.5-2.9c0.2-0.8,0.2-1.7,0.2-1.7S303.9,35.2,303,35.2 M290.1,19.7
	c-0.4-0.1-0.5-4.2-0.5-7.7c0-3.6,0.2-3.2,0.2-3.2s1.8,0.3,4.5,3.3c2.6,3,3,4.8,0.8,6.7C293.6,19.8,290.5,19.8,290.1,19.7
	 M317.8,36.5c-1.1,0.3-1.7,0-3.2-1.7c-1.5-1.7-1.6-2.4-0.9-3.1c0.7-0.7,5.5-4.8,6.6-8.7c1.1-4-0.3-7.9-1.7-9.7
	c-1.4-1.7-2.5-1.6-2.5-1.6s0.2,0.6-0.8,1.5c-1,0.9-7.3,4.5-8.3,7.8c-0.9,2.6-0.6,6.6-0.6,6.6c0,1.6-0.1,5.2,0.5,7.7
	c0.6,2.4,3.4,5.9,4.6,6.4c1.2,0.6,1.2,1,3-0.5c1.8-1.5,3.9-3.3,5.2-4.7c1.4-1.4,0.9-2,0.9-2S318.9,36.2,317.8,36.5 M312.8,21.4
	c0.2-3.7,0.3-3.4,1.4-2.6c1.1,0.8,2.3,5.5,1.9,7c-0.5,1.5-1.5,3.1-1.9,3.5c-0.4,0.4-1.1,0.5-1.1,0.5S312.6,25.1,312.8,21.4
	 M342,15.6c-2-2.3-2.7-3.5-3.4-2.8c-0.7,0.7-3.1,3-4.3,4c-1.1,0.9-2.1,2-2.5,0.9c-0.4-1.2-2.3-4.9-3-4.9c-0.7,0-4.9,4.4-5.9,5.2
	l-0.8,0.7c0,0,0,0,0.4,0.3c0.5,0.4,0.9,0.3,1.8-0.5c0.7-0.6,1.2,1.1,1.2,1.1c0.7,2,0.4,8.3,0.4,11.5c0.1,3.2,0.2,4-0.6,4.8
	c-0.8,0.8-2.8,3-2.9,4.7c-0.1,1.8,0.2,1.7,0.4,1.9c0.2,0.2-0.1-0.6,0.6-1.7c0.7-1.1,1.6-1.2,2-1.3c0.4-0.1,0.5-0.2,0.5,1
	c0,1.2-0.1,7.1,0,9.1c0.1,5.5-1,4.8,1.9,1.4c2.8-3.3,4.4-4.6,4.5-6.5c0.1-1.8,0.1-4.2,0.5-3.3c0.4,0.9,2.1,1.1,2.3,1.1
	c0.2,0,1.3-1.8,3-2.8c1.8-1,5.3-2.1,5.3-9.1C343.4,23.3,344.1,17.8,342,15.6 M335.5,36c-1.6-1.1-3-2.3-3-2.3s-0.2-7.9,0-11.1
	c0.2-3.2,1.1-4.1,2.3-4.1c1.2,0,2.2,2.3,2.2,6.2c0,3.9-0.2,12.1-0.2,12.1S337.1,37.1,335.5,36 M363.5,21.4c-0.1-4.1-5.4-7.6-6.2-8.3
	c-0.9-0.7-1.8-1.3-1.8-1.3s0.5,0.4-0.4,1.1c-0.9,0.7-2.4,1.9-4.1,3.2c0,0-5.2,2.4-5.2,10.3c0,8.8,2.4,11.6,4,12.7
	c1.5,1.1,3.3,3.3,3.9,3.2c0.6,0,1-1,1.8-2.1c0.9-1,2.5-1.8,4.5-3.1c2-1.3,2.9-2.6,3.3-4C363.6,31.7,363.6,25.5,363.5,21.4
	 M357.2,26.1c0,2.5,0,10,0,10s-1.1,0-2.4-1.7c-1.3-1.7-2.1-3.9-2.1-5.1c0.1-1.3,0.1-11.2,0.1-11.2s0.1-0.6,0.9,0.1
	c0.8,0.6,1.4,1.3,2.6,3.2C357.4,23.3,357.2,23.7,357.2,26.1 M368.6,33.9c0-1,0-12.9,0-12.9s0-2.7-1.2-2.7c-1.3,0-2.2,1.1-2.2,1.1
	s-0.1-1.8,1.8-3c1.9-1.2,2.6-2.2,3.3-3c0.7-0.8,0.8-0.9,1.3-0.9c0.5,0,1.4,0.8,2.1,2.1c0.7,1.3,1.2,2.4,1.5,2.4
	c0.3,0,0.5-0.2,1.7-2.3c1.3-2.1,1.7-1.6,1.7-1.6s0.6,2.1,2.2,1.6c1.6-0.5,1.8-2,1.8-2s1.2-0.3,0.5,2.4c-0.7,2.7-1.2,4.3-3.3,5.3
	c-2,1-4.2,0.2-4.2,0.2v12c0,0-0.3,0.8,0.8,2.1c1.1,1.3,1.2,1.5,2.4,1.2c1.2-0.3,2.9-2,2.9-2s0.5,0.2-1.4,2.2
	c-1.3,1.3-4.9,5.1-5.6,5.7c-0.6,0.6-0.9,0.8-2.3-0.5c-1.4-1.3-2.1-2.5-2.7-3.3c-0.5-0.8-0.7-1.4-0.7-1.4s-1.6,1.6-2.1,1.9
	c-0.5,0.3-1.4,0.2-1.4,0.2s2-2.2,2.6-3.3C368.7,34.2,368.6,33.9,368.6,33.9 M420.3,33.9c0-1,0-12.9,0-12.9s0-2.7-1.2-2.7
	c-1.3,0-2.2,1.1-2.2,1.1s-0.1-1.8,1.8-3c1.9-1.2,2.6-2.2,3.3-3c0.8-0.8,0.8-0.9,1.3-0.9c0.5,0,1.4,0.8,2.1,2.1
	c0.7,1.3,1.2,2.4,1.4,2.4c0.3,0,0.5-0.2,1.7-2.3c1.3-2.1,1.7-1.6,1.7-1.6s0.6,2.1,2.2,1.6c1.6-0.5,1.8-2,1.8-2s1.2-0.3,0.5,2.4
	c-0.7,2.7-1.2,4.3-3.3,5.3c-2,1-4.2,0.2-4.2,0.2v12c0,0-0.3,0.8,0.8,2.1c1.1,1.3,1.2,1.5,2.4,1.2c1.2-0.3,2.7-2.3,2.7-2.3
	s0.9,0.5-0.9,2.5c-1.3,1.3-5.2,5.1-5.8,5.7c-0.7,0.6-0.9,0.8-2.3-0.5c-1.4-1.3-2.1-2.5-2.7-3.3c-0.6-0.8-0.8-1.4-0.8-1.4
	s-1.6,1.8-2.2,2c-0.5,0.3-1.4,0-1.4,0s1.4-0.6,2.6-3.3C420.3,34.1,420.3,33.9,420.3,33.9 M411.7,36.5c-1.1,0.3-1.7,0-3.2-1.7
	c-1.5-1.7-1.6-2.4-0.9-3.1c0.7-0.7,5.5-4.8,6.6-8.7c1.1-4-0.3-7.9-1.7-9.7c-1.5-1.7-2.5-1.6-2.5-1.6s0.2,0.6-0.8,1.5
	c-1,0.9-7.2,4.5-8.3,7.8c-0.9,2.6-0.6,6.6-0.6,6.6c0,1.6-0.1,5.2,0.5,7.7c0.7,2.4,3.4,5.9,4.6,6.4c1.2,0.6,1.2,1,3-0.5
	c1.8-1.5,4.2-3.3,5.5-4.7c1.4-1.4,0.6-2,0.6-2S413.8,35.9,411.7,36.5 M406.6,21.4c0.2-3.7,0.3-3.4,1.4-2.6c1.1,0.8,2.3,5.5,1.9,7
	c-0.5,1.5-1.5,3.1-1.9,3.5c-0.4,0.4-1.1,0.5-1.1,0.5S406.5,25.1,406.6,21.4 M387.7,31.1c0,0-0.3-12.2-0.2-13.4
	c0-1.2-0.7-0.2-1.7-0.4c-1-0.2-0.8-1-0.7-2.3c0.2-1.4,1.4-1.3,2-1.3c0.6,0,0.8,0.2,1-2.7c0.2-2.9,2.5-5.5,5.2-7.7
	c2.7-2.1,3.9-2.7,3.9-2.7s-0.6,1.9-1.7,3.5c-1.2,1.6-1,5.1-1,7.7c0,2.5,1.8,1.3,2.9,1.7c1.1,0.4,0.1,3.1,0.1,3.1s-0.4-0.1-1.3-0.2
	c-0.9,0-1.2,0.6-1.2,0.6s-0.1,3.7,0,8.3c0.1,4.6-0.5,7,0.2,9.6c0.7,2.5,2.5,1.7,3,1.2c0.5-0.5,0.9-0.9,0.9-0.9s0.2,0.4-0.2,1.3
	c-0.4,0.9-0.9,1.2-3.8,4.1c-2.9,2.9-2.7,2-3.4,1.8c-0.6-0.3-3.6-4.1-3.6-4.1s-0.9,1.2-1.8,1.7c-1,0.5-1.2-0.4-1.2-0.4
	s1.1-0.6,1.9-2.1C387.8,35.8,387.6,34.4,387.7,31.1 M9.5,36.9c3.6,4,9.1,6.5,15.3,4.5c9.9-3.2,10.9-10.8,10.9-10.8
	s-4.8,5.9-12.2,5.1c-2.5-0.3-4.5-1.1-6-2.3c0.5,0,0.9,0.1,1.3,0.3c0.9,0.6,1.8,1.8,3,0.6c0.3-0.3,0.4-0.6,0.4-0.8
	c0.8-0.4,2-1.3,3.3-3.8c2.2-4.2,2.8-6.9-0.9-10.9c-3.5-3.9-2.4-5.9-0.9-6.5c0.2,0,0.5,0,0.7,0.1c0.3,0,0.5,0,0.8,0.1
	c0.1,0,0.1,0,0.2,0c2.9,0.3,5.9,0.7,8.5-2.1c4.9-5.2,1.6-9.6,1.6-9.6s0.8,3-2.5,3.7C27.9,5.5,26,1.8,21.2,0.9v0
	c-4.9-1.1-8.5-0.5-14.4,1.4c-6.2,2-7.5,6.5-6.4,9.7c1.1,3.2,5.1,4.2,7.8,2.8c3.5-1.7,3-5,3-5s-2,2-3.7,2.9c-1.9,1-6.4,0-6.2-2.8
	C1.4,6.5,5,5.3,10.3,6.2c3.3,0.6,5,1.5,6.2,2.4c-0.7,0.7-2.2,2.2-4.2,4c-2.7,2.4-8.5,7.8-6.9,15.8c0.5,2.5,1.6,4.9,3.1,7
	c-0.9,1.2-2.3,3.3-2.5,5.5c-0.3,3.6,2.2,9.2,10.5,10.3c9.8,1.3,14.9-5.1,15.4-6.4c0.3-0.7,0.1-1.2,0.1-1.2s-1.1,2.7-6.2,4.6
	c-3,1.1-11.2,1.7-16-2C5.6,43.2,7.6,38.3,9.5,36.9 M13.3,21c0.2-7.7,4.1-10.5,4.8-11c0.1,0.1,0.2,0.1,0.2,0.2
	c1.9,1.3,3.4,1.6,3.4,1.6s0,0,0,0c-0.8,0.6-1.9,1.7-3.5,4c-3.3,4.7,0,9.1,1,10.2c0.9,1.1,3.1,3.1,2.8,5.2c-0.1,0.5-0.2,0.9-0.2,1.3
	c-0.6-0.5-1.7-0.9-2.9-1c-1.3-0.2-2.2-0.1-2.8,0.1C14,29.1,13.2,25.5,13.3,21 M53.2,12.6c0,0,1.2-0.3,0.5,2.4
	c-0.7,2.7-1.2,4.2-3.3,5.3c-2,1-4.2,0.2-4.2,0.2v12c0,0-0.3,0.8,0.8,2.1c1.1,1.3,1.2,1.5,2.4,1.2c1.2-0.3,2.9-2,2.9-2
	s0.5,0.2-1.4,2.2c-1.3,1.4-4.9,5.1-5.6,5.7c-0.6,0.6-0.9,0.8-2.3-0.5c-1.4-1.4-2.2-2.5-2.7-3.4c-0.5-0.9-0.7-1.4-0.7-1.4
	s-1.6,1.6-2.1,1.9c-0.5,0.3-1.4,0.2-1.4,0.2s2-2.2,2.6-3.3c0.6-1.1,0.5-1.4,0.5-1.4c0-1,0-12.9,0-12.9s0-2.7-1.3-2.7
	c-1.3,0-2.2,1.1-2.2,1.1s-0.1-1.8,1.8-3c1.9-1.2,2.6-2.2,3.3-3c0.7-0.8,0.8-0.8,1.3-0.8c0.5,0,1.4,0.8,2.1,2.1
	c0.7,1.3,1.2,2.4,1.5,2.4c0.2,0,0.4-0.2,1.7-2.3c1.3-2.1,1.7-1.6,1.7-1.6s0.6,2.1,2.2,1.6C53,14.1,53.2,12.6,53.2,12.6 M75.9,34
	c0,0-0.5,1-1.2,1c-0.7,0.1-1-0.3-1.2-0.8c-0.1-0.5-0.5-1.4-0.5-3.6V22c0-1.8-0.2-2.5,0.6-3.8c0.8-1.3,1.5-2.5,1.5-2.5
	s-0.3-0.3-0.8,0.4c-0.4,0.6-1.4,0.9-1.7,0.7c-0.6-0.4-4-4.1-5.5-4.7c-1.6-0.7-1.9,0.3-2.9,1.6c-1,1.2-2.2,2.1-3.5,3.1
	c-1.4,1-2.9,2-3.8,3.2c-0.9,1.2-1.4,2.4-1.5,3.9c-0.1,1.4-0.1,4.3-0.1,4.3s-0.4,5.9,1.1,9c1.4,3.1,3.8,4.9,4.3,5.1
	c0.4,0.2,2.7-2.8,4.4-4.1c1.7-1.3,1.6-1.5,1.9-1.2c0,0,1.1,1.7,1.7,2.9c0.6,1.2,1.3,2.2,1.8,2.2c0.5,0,2.3-1.8,3.5-3.7
	c1.3-1.9,1.6-2.1,1.9-3.2C76,34,75.9,34,75.9,34 M65.1,36.3c-1.7,0.1-2.1-0.9-2.6-1.9c-0.4-1-0.5-2.1-0.6-3.1c0-1,0-5.7,0-9.6
	c0-3.8,0.4-3.6,0.4-3.6s-0.2-0.4,1.2,0.5c1.4,0.9,2.8,3.7,2.8,4.4c0,0.7,0.1,5,0.2,6.8C66.6,31.6,66.8,36.2,65.1,36.3 M101.2,34.5
	c0,0,0.9,0.4-1,2.8c-1.9,2.4-3.9,4.5-4.5,4.7c-0.5,0.2-0.9-0.1-2.3-1.5c-1.4-1.4-2.2-1.6-2.1-5.7c0.1-4.2,0.3-9.2-0.2-12.7
	c-0.5-3.5-0.7-4-1.5-4.2c-0.8-0.1-2.7,1.5-2.8,3.1c-0.1,1.6-0.2,8.6-0.2,11.1c0,2.5,0,2.5,0.9,4c0.9,1.5,1.1,1.3-0.5,2.6
	c-1.6,1.3-2,1.8-2.6,2.7c-0.6,0.9-1.2,0.9-1.8,0.1c-0.6-0.8-1.7-2.1-2.9-2.8c-1.3-0.6-1.8-0.8-1-2c0.8-1.2,1.1-1.1,1.2-4.1
	c0.1-2.9,0-9.7,0-11.4c0-1.7-0.7-3.6-1.3-3.3c-0.6,0.3-0.9,0.5-1.6,0.6c-0.7,0.1-0.5-0.2-0.5-0.2s0.4,0,1.7-1.9
	c1.3-1.9,3.5-4.4,4.7-4.5c1.2-0.1,2.2,2.1,2.7,3.2c0.5,1.1,1.3,2.8,1.3,2.8s1.6-1.1,3.5-2.6c1.9-1.5,3-3.4,3.8-3.5
	c0.8-0.1,1.5,1.2,2.6,2.8c1.1,1.6,1.1,1.6,1.1,1.6s1.1-0.8,1.8-1.5c0.6-0.6,0.6-0.8,0.6-0.9c0,0.1,0.3,1.2-0.2,2
	c-0.5,0.8-2.2,2.6-2.2,4.8v12.3c0,1.5,0.3,2.2,0.6,2.8c0.4,0.5,0.5,0.7,0.8,0.7c0.3,0,1.1-0.4,1.4-0.9
	C101.1,34.9,101.2,34.5,101.2,34.5 M100.3,13.8L100.3,13.8L100.3,13.8z M116.5,23.4c2.8,0.1,4.1,3.1,4.3,5.3
	c0.2,2.3,0.6,6.5-2.1,8.1c-2.7,1.6-4.4,2-5.6,3.1c-1.3,1.1-2.9,2.7-3.5,2c-0.6-0.7-2.3-3.6-5-2.6c-2.8,0.9-3.1,2.1-3.1,2.1
	s-0.4-2.6,3-5.2c3.4-2.6,6.9-1.8,8-1.2c1.1,0.6,1.4,0.9,1.4,0.9s0-3.7,0-5.5c0-1.8-0.1-2.8-1.9-3c-1.8-0.2-3.3,3.8-6.7,2.2
	c-3.4-1.6-3.9-6.6-2.2-8.9c1.7-2.3,1.9-2.3,4.1-3.7c2.2-1.5,3.5-2.4,4.4-3.2c0.9-0.8,2-1.5,2.4-1.1c0.4,0.4,1,2.3,2.6,2.3
	c1.6,0.1,2-1.6,2.4-2.1c0.4-0.5,1.2-0.5,1.2-0.5s0.2,2.6-1.6,4.9c-1.8,2.3-3.2,3.2-4.8,3.2c-1.5,0-4.2-1.9-4.2-1.6
	c-0.1,0.3,0,3.6,0,4.9s0.5,2.5,1.5,2.2C112,25.8,113.6,23.3,116.5,23.4 M195.7,34c0,0-0.5,1-1.2,1c-0.7,0.1-1-0.3-1.2-0.8
	c-0.2-0.5-0.5-1.4-0.5-3.6V22c0-1.8-0.2-2.5,0.6-3.8c0.8-1.3,1.5-2.5,1.5-2.5s-2,1.5-2.5,1.1c-0.6-0.4-4-4.1-5.5-4.7
	c-1.5-0.7-1.9,0.3-2.9,1.6c-1,1.2-2.2,2.1-3.5,3.1c-1.4,1-2.9,2-3.8,3.2c-0.9,1.2-1.4,2.4-1.5,3.9c-0.1,1.4,0,4.3,0,4.3
	s-0.4,5.9,1,9c1.4,3.1,3.8,4.9,4.3,5.1c0.5,0.2,2.7-2.8,4.4-4.1c1.7-1.3,1.7-1.5,1.9-1.2c0,0,1.1,1.7,1.7,2.9
	c0.6,1.2,1.3,2.2,1.8,2.2c0.5,0,2.3-1.8,3.6-3.7c1.3-1.9,1.6-2.1,1.9-3.2C195.8,34,195.7,34,195.7,34 M184.9,36.3
	c-1.7,0.1-2.1-0.9-2.6-1.9c-0.5-1-0.5-2.1-0.6-3.1c0-1,0-5.7,0-9.6c0-3.8,0.4-3.6,0.4-3.6s-0.2-0.4,1.2,0.5c1.4,0.9,2.8,3.7,2.8,4.4
	c0,0.7,0.1,5,0.1,6.8C186.4,31.6,186.6,36.2,184.9,36.3 M257.8,34c0,0-0.5,1-1.2,1c-0.7,0.1-1-0.3-1.2-0.8c-0.2-0.5-0.5-1.4-0.5-3.6
	V22c0-1.8-0.2-2.5,0.6-3.8c0.8-1.3,1.5-2.5,1.5-2.5s-1.9,1.5-2.5,1.1c-0.6-0.4-4-4.1-5.5-4.7c-1.6-0.7-1.9,0.3-2.9,1.6
	c-1,1.2-2.2,2.1-3.5,3.1c-1.4,1-2.9,2-3.8,3.2c-0.9,1.2-1.4,2.4-1.5,3.9c-0.1,1.4-0.1,4.3-0.1,4.3s-0.3,5.9,1.1,9
	c1.4,3.1,3.8,4.9,4.3,5.1c0.5,0.2,2.7-2.8,4.4-4.1c1.7-1.3,1.7-1.5,1.9-1.2c0,0,1.1,1.7,1.7,2.9c0.6,1.2,1.3,2.2,1.8,2.2
	c0.5,0,2.3-1.8,3.5-3.7c1.3-1.9,1.6-2.1,1.9-3.2C258,34,257.8,34,257.8,34 M247,36.3c-1.7,0.1-2.1-0.9-2.6-1.9
	c-0.4-1-0.5-2.1-0.5-3.1c0-1,0-5.7,0-9.6c0-3.8,0.4-3.6,0.4-3.6s-0.2-0.4,1.2,0.5c1.3,0.9,2.8,3.7,2.8,4.4c0,0.7,0.1,5,0.1,6.8
	C248.5,31.6,248.7,36.2,247,36.3 M221,34.5c0,0,0.9,0.4-1,2.8c-1.9,2.4-3.9,4.5-4.4,4.7c-0.6,0.2-0.9-0.1-2.3-1.5
	c-1.4-1.4-2.2-1.6-2.1-5.7c0.1-4.1,0.3-9.2-0.1-12.7c-0.5-3.5-0.7-4-1.6-4.2c-0.8-0.1-2.7,1.5-2.8,3.1c0,1.6-0.2,8.6-0.2,11.1
	c0,2.5,0,2.5,0.9,4c0.9,1.5,1.1,1.3-0.5,2.6c-1.6,1.3-2,1.8-2.6,2.7c-0.6,0.9-1.3,0.9-1.8,0.1c-0.6-0.8-1.6-2.1-3-2.8
	c-1.3-0.6-1.8-0.8-1-2c0.8-1.2,1.1-1.1,1.2-4.1c0-2.9,0-9.7,0-11.4c0-1.7-0.7-3.6-1.3-3.3c-0.6,0.3-0.9,0.5-1.6,0.6
	c-0.7,0.1-0.4-0.2-0.4-0.2s0.4,0,1.7-1.9c1.3-1.9,3.5-4.4,4.7-4.5c1.2-0.1,2.2,2.1,2.6,3.2c0.5,1.1,1.3,2.8,1.3,2.8s1.6-1.1,3.5-2.6
	c1.9-1.5,3-3.4,3.8-3.5c0.8-0.1,1.5,1.2,2.6,2.8c1,1.6,1.1,1.6,1.1,1.6s1.1-0.8,1.8-1.5c0.6-0.6,0.6-0.8,0.6-0.9
	c0,0.1,0.3,1.2-0.2,2c-0.5,0.8-2.2,2.6-2.2,4.8v12.3c0,1.5,0.3,2.2,0.6,2.8c0.4,0.5,0.5,0.7,0.8,0.7c0.3,0,1.1-0.4,1.4-0.9
	C221,34.9,221,34.5,221,34.5 M220.1,13.8 M233.7,14C233.7,13.9,233.7,13.9,233.7,14C233.7,13.9,233.7,13.9,233.7,14 M234.8,35.5
	c0,0,0.7,0.5-1.4,2.6c-2.2,2.2-3.7,4.1-4,4.1c-0.3,0-2.4-1.4-3.5-3.6c-1.1-2.2-0.8-6.9-0.8-8.9c0-2-0.2-7.9-0.2-9.2
	c0-1.3-0.2-2.7-1.1-2.7c-0.9,0-2.3,1.2-2.3,1.2s-0.9-0.5,2.3-3.7c3.2-3.2,3.5-3.4,4.6-3.5c1.1,0,3.4,4.2,3.4,4.2s1.1-0.7,1.6-1.4
	c0.4-0.5,0.4-0.7,0.4-0.8c0.1,0.2,0.2,1.3-0.3,2.1c-0.6,0.9-1.7,2.2-1.8,3.4c-0.1,1.1-0.1,9.5-0.1,10.8c0,1.2,0,4.2,0.5,5.2
	c0.5,1,0.7,1.3,1.5,0.9C234.3,35.8,234.8,35.5,234.8,35.5 M228.9,10c-4.3,0-3.5-4.5-3.5-4.5c0.3-2.8,3.5-3.7,5.5-1.9
	C233.1,5.4,231.9,10,228.9,10 M134,14C134,13.9,134,13.9,134,14C134,13.9,134,13.9,134,14 M135.1,35.5c0,0,0.7,0.5-1.4,2.6
	c-2.2,2.2-3.7,4.1-4,4.1c-0.3,0-2.4-1.4-3.5-3.6c-1.1-2.2-0.8-6.9-0.8-8.9c0-2-0.2-7.9-0.2-9.2c0-1.3-0.2-2.7-1.1-2.7
	c-0.9,0-2.3,1.2-2.3,1.2s-0.9-0.5,2.2-3.7c3.2-3.2,3.5-3.4,4.6-3.5c1.1,0,3.4,4.2,3.4,4.2s1.1-0.7,1.6-1.4c0.4-0.5,0.4-0.7,0.4-0.8
	c0,0.2,0.2,1.3-0.3,2.1c-0.5,0.9-1.7,2.2-1.8,3.4c-0.1,1.1-0.1,9.5-0.1,10.8c0,1.2,0,4.2,0.5,5.2c0.5,1,0.7,1.3,1.4,0.9
	C134.7,35.8,135.1,35.5,135.1,35.5 M129.3,10c-4.3,0-3.5-4.5-3.5-4.5c0.3-2.8,3.5-3.7,5.5-1.9C133.4,5.4,132.2,10,129.3,10
	 M148.2,36.9c1.1,0.2,1.9-1.1,1.9-1.1s0,0.4-0.1,1c-0.2,0.5-1,1.3-1.9,2c-0.9,0.8-1.4,1-2.7,2.1c-1.3,1.1-1.6,1.4-2.2,1.2
	c-0.6-0.1-1.9-1-2.6-2.1c-0.6-1.2-1-2.3-1.5-2.1c-0.5,0.1-0.8,0.8-1.4,1.2c-0.6,0.4-1.1,0.1-1.1,0.1s0.9-1.2,1.7-2.5
	c0.8-1.3,0.6-2.2,0.6-4.1v-7.1V12.2c0,0-0.2-5,0.7-6.9c1.3-2.6,3.8-3.8,5.9-4.2c2.2-0.4,5,0.4,6,2.5c0.9,2.1,0.1,4.5-1.9,4.8
	c-2,0.3-3.1-1.1-3.1-2.6c-0.1-1.6,0.9-3,0.9-3s-1.1-0.4-1.6,1.9c-0.4,2.2-0.2,10.7-0.2,10.7s0,15.7,0,17.3
	C145.7,34.2,147.1,36.7,148.2,36.9 M166.8,12.8c0.5,0,0.8-0.1,3.2,2.6c2.4,2.7,2.2,8.2,2.2,13.7c0,5.5-4.1,7.8-6.4,9.1
	c-2.3,1.3-2.7,2.3-3.6,3.3c-0.9,1-1.4,0.6-2.6-0.3c-1.2-0.8-3.5-2.8-4.3-3.8c-0.5-0.7-0.5-0.6-1,0.1c-0.6,0.8-1.5,0.7-1.5,0.7
	l-1.1-0.3l0.6-0.4c0.6-0.4,0.7-0.4,1.3-1.4c0.6-1,0.5-1.4,0.5-3c0-1.6,0-7,0-9.9c0-2.9,0-3.3-1.2-4.6c-1.2-1.3-1.8-2.1-1.3-1.7
	c0.5,0.4,1.1,0.1,3.4-2.6c2.3-2.8,3.4-1.3,4.7,0.7c1.3,2,1.4,6.1,1.4,7.7c0,1.6,0,9,0,9.4c0,0.3,0.7,1.6,2.5,3.3
	c1.7,1.7,1.9,0.7,1.9-0.1c0-0.8,0-8.3-0.1-12.1c0-3.8-0.6-4.9-1.8-5c-1.1-0.1-1.9,1.4-2.1,1.3c-0.2-0.1,0-0.3,1.5-3.5
	C164.3,12.7,166.8,12.8,166.8,12.8"/>
</svg>
