<!-- Generator: Adobe Illustrator 18.1.1, SVG Export Plug-In  -->
<svg version="1.1"
	 xmlns="http://www.w3.org/2000/svg" xmlns:xlink="http://www.w3.org/1999/xlink" xmlns:a="http://ns.adobe.com/AdobeSVGViewerExtensions/3.0/"
	 x="0px" y="0px" width="25.37px" height="10.99px" viewBox="0 0 25.37 10.99" enable-background="new 0 0 25.37 10.99"
	 xml:space="preserve">
<defs>
</defs>
<g>
	<path fill-rule="evenodd" clip-rule="evenodd" fill="#868789" d="M24.67,7.23c-0.07,0.13-0.14,0.25-0.2,0.37
		c-0.03,0.05-0.03,0.12-0.03,0.17c0,0.12,0,0.25,0,0.38c0,0.06-0.02,0.12-0.05,0.17c-0.03,0.05-0.06,0.09-0.12,0.1
		c-0.06,0.01-0.13,0.03-0.19,0.03c-0.09,0.01-0.19,0.01-0.28,0c-0.07-0.01-0.14-0.01-0.21-0.04c-0.1-0.05-0.14-0.14-0.14-0.25
		c0-0.05,0-0.1,0-0.15c-0.01-0.13-0.03-0.26-0.03-0.39c0-0.07,0.01-0.14,0.01-0.21c0-0.09,0-0.17-0.01-0.26
		c0-0.02-0.01-0.05-0.01-0.07c0-0.17,0-0.35,0-0.52c0-0.05-0.01-0.11-0.03-0.16c-0.02-0.1-0.09-0.15-0.19-0.15
		c-0.12-0.01-0.24-0.02-0.36-0.02c-0.23,0-0.47,0-0.7,0c-0.06,0-0.13,0.02-0.19,0.03c-0.09,0.02-0.16,0.11-0.16,0.21
		c0,0.13,0,0.27,0.03,0.4c0.01,0.06-0.01,0.13-0.01,0.2c-0.01,0.16-0.01,0.31-0.02,0.47c0,0.02,0,0.04,0,0.06
		c0,0.11-0.01,0.22-0.01,0.32c0,0.09,0.01,0.18,0.01,0.28c0,0.13-0.09,0.24-0.22,0.25c-0.13,0.01-0.27,0.02-0.41,0.01
		c-0.08,0-0.16-0.02-0.23-0.08c-0.08-0.07-0.1-0.16-0.11-0.26c0-0.1,0.01-0.2,0.02-0.3c0-0.02,0.01-0.04,0-0.05
		c-0.01-0.08-0.02-0.15-0.03-0.22c0-0.07,0.01-0.14,0.02-0.2c0.02-0.1,0.02-0.2,0-0.3c-0.01-0.07-0.01-0.14,0-0.21
		c0-0.05,0.01-0.09,0.01-0.14c0-0.03,0.01-0.06,0.01-0.09c0-0.09,0-0.18-0.05-0.26c-0.02-0.03-0.06-0.06-0.09-0.07
		c-0.13-0.03-0.25-0.04-0.39-0.02c-0.1,0.01-0.19,0.06-0.28,0.09c-0.03,0.01-0.06,0.01-0.09,0c-0.14-0.07-0.28-0.1-0.44-0.1
		c-0.21,0-0.42,0-0.64,0c-0.12,0-0.24,0.03-0.35,0.1c-0.1,0.07-0.16,0.15-0.19,0.26c-0.04,0.14-0.04,0.27,0,0.41
		c0.01,0.02,0,0.04,0,0.06c0,0.12-0.02,0.23-0.01,0.35c0,0.1,0.02,0.2,0.06,0.29c0.06,0.11,0.05,0.22,0.03,0.34
		c-0.04,0.15-0.12,0.27-0.25,0.36c-0.07,0.05-0.15,0.06-0.22,0.06c-0.42,0-0.85,0.01-1.28,0c-0.2,0-0.32-0.11-0.33-0.33
		c0-0.51,0-1.02,0-1.53c0-0.06,0-0.12-0.02-0.18c-0.02-0.09-0.08-0.15-0.16-0.17c-0.05-0.01-0.11-0.02-0.16-0.02
		c-0.48,0-0.95,0-1.43,0c-0.05,0-0.11,0.01-0.16,0.02c-0.1,0.02-0.17,0.12-0.17,0.23c0,0.15,0.02,0.31,0.01,0.46
		c0,0.12-0.02,0.24-0.03,0.35c0,0.02,0,0.04,0,0.06c0,0.26,0,0.52,0,0.77c0,0.09-0.03,0.18-0.11,0.24
		c-0.02,0.02-0.05,0.04-0.07,0.04c-0.11,0.04-0.22,0.04-0.33,0.01c-0.13-0.04-0.25-0.02-0.38,0.01c-0.07,0.02-0.14,0.01-0.21,0.01
		c-0.09,0-0.18,0-0.27,0c-0.12,0-0.24,0.01-0.35-0.02c-0.16-0.03-0.2-0.14-0.21-0.27c-0.01-0.17-0.01-0.35-0.02-0.52
		c-0.01-0.2-0.01-0.41-0.01-0.61c0-0.15,0.01-0.3,0.01-0.45c0-0.05-0.01-0.11-0.02-0.16c-0.02-0.09-0.08-0.14-0.16-0.16
		c-0.05-0.01-0.11-0.02-0.16-0.02c-0.54,0-1.09,0-1.63,0c-0.05,0-0.11,0.01-0.16,0.02c-0.1,0.03-0.17,0.13-0.18,0.25
		c0,0.01,0,0.03,0,0.04c0,0.43,0,0.87,0,1.3c0,0.1,0.01,0.2,0.01,0.31c0,0.05-0.01,0.1-0.04,0.15C9.9,8.38,9.81,8.42,9.71,8.42
		c-0.44,0-0.87,0-1.31,0c-0.06,0-0.12-0.02-0.19-0.03C8.14,8.37,8.06,8.27,8.05,8.17C8.05,7.99,8.04,7.8,8.04,7.62
		c0-0.11,0.01-0.22,0.01-0.32c0-0.11-0.02-0.21-0.03-0.32c0-0.02,0-0.05,0-0.07c0-0.13,0-0.27,0-0.4c0-0.06-0.01-0.12-0.05-0.17
		C7.94,6.28,7.9,6.25,7.84,6.24C7.79,6.23,7.73,6.22,7.68,6.22c-0.51,0-1.02,0-1.53,0c-0.05,0-0.11,0.01-0.16,0.02
		C5.86,6.27,5.82,6.34,5.81,6.5c-0.01,0.1,0.01,0.2,0.01,0.3c0,0.1-0.01,0.19-0.01,0.29c0,0.08,0.01,0.16,0.01,0.24
		c0.01,0.11,0,0.21-0.02,0.32c-0.01,0.08-0.01,0.16,0,0.24c0.01,0.12,0.04,0.23,0.01,0.35C5.78,8.34,5.69,8.43,5.6,8.43
		C5.47,8.44,5.34,8.45,5.21,8.45c-0.06,0-0.12-0.02-0.18-0.03C4.95,8.39,4.89,8.33,4.87,8.25c-0.04-0.1-0.03-0.2-0.02-0.31
		c0.01-0.13,0-0.26,0-0.39c0-0.04-0.01-0.08,0-0.13c0.01-0.09,0.03-0.17,0.03-0.26c0-0.07-0.02-0.14-0.02-0.21
		c0-0.04-0.01-0.08,0-0.12C4.86,6.73,4.87,6.61,4.86,6.5c0-0.04-0.01-0.09-0.02-0.13C4.82,6.3,4.77,6.25,4.7,6.24
		C4.59,6.22,4.48,6.21,4.37,6.23C4.27,6.24,4.19,6.27,4.1,6.32C4.05,6.35,4.01,6.35,3.96,6.32c-0.09-0.07-0.21-0.09-0.32-0.1
		c-0.47,0-0.95,0-1.42,0c-0.05,0-0.11,0.01-0.16,0.02C1.94,6.27,1.87,6.36,1.87,6.48c0,0.11,0.01,0.21,0.03,0.31
		c0.01,0.06,0,0.12,0,0.17C1.88,7.11,1.86,7.25,1.88,7.4c0.01,0.08,0,0.16-0.01,0.24C1.83,7.8,1.84,7.96,1.84,8.11
		c0,0.04,0,0.07-0.02,0.11C1.78,8.33,1.69,8.39,1.59,8.38c-0.11,0-0.17-0.06-0.21-0.18C1.36,8.16,1.37,8.1,1.36,8.06
		C1.35,8,1.34,7.95,1.32,7.9C1.28,7.81,1.15,7.78,1.07,7.84C1.03,7.87,1,7.91,0.99,7.96c-0.01,0.07-0.02,0.13-0.02,0.2
		c0,0.11-0.06,0.21-0.19,0.23C0.74,8.4,0.69,8.4,0.64,8.4c-0.11,0-0.23,0-0.34,0C0.12,8.4,0.01,8.29,0,8.12C0,7.88,0,7.64,0,7.4
		c0-0.08,0.01-0.17,0.01-0.25C0.02,7.04,0,6.94,0,6.84c0-0.13,0.02-0.27,0.01-0.4C-0.01,6,0.01,5.55,0,5.11
		c0-0.05,0.01-0.1,0.03-0.14c0.03-0.11,0.13-0.13,0.22-0.16C0.29,4.81,0.33,4.8,0.37,4.79C0.45,4.77,0.5,4.71,0.52,4.63
		c0.01-0.05,0.02-0.11,0.02-0.16c0-0.72,0-1.44,0-2.16c0-0.06-0.01-0.11-0.02-0.17C0.49,2.01,0.38,1.98,0.27,1.96
		C0.23,1.95,0.2,1.95,0.16,1.94C0.04,1.9,0.02,1.8,0,1.69c0-0.01,0-0.03,0-0.04c0-0.45,0-0.9,0-1.35c0-0.05,0.01-0.1,0.02-0.15
		C0.06,0.04,0.16,0.02,0.27,0C0.29,0,0.3,0,0.32,0c8.24,0,16.49,0,24.73,0c0.05,0,0.1,0.01,0.15,0.02c0.1,0.03,0.16,0.13,0.16,0.25
		c0,0.47,0,0.95,0,1.42c0,0.16-0.1,0.25-0.26,0.27c-0.04,0-0.08,0.01-0.12,0.02c-0.08,0.02-0.13,0.08-0.15,0.16
		c-0.01,0.05-0.02,0.11-0.02,0.16c0,0.72,0,1.45,0,2.17c0,0.05,0.01,0.11,0.02,0.16C24.85,4.73,24.92,4.78,25,4.8
		c0.05,0.01,0.1,0.02,0.15,0.03c0.15,0.02,0.2,0.12,0.21,0.27c0,0.01,0,0.01,0,0.02c0,1.01,0,2.03,0,3.04
		c0,0.06-0.01,0.12-0.05,0.18c-0.03,0.05-0.07,0.08-0.12,0.09c-0.2,0.05-0.35-0.05-0.37-0.26c-0.02-0.18,0-0.36-0.06-0.54
		c-0.03-0.11-0.05-0.23-0.07-0.34C24.69,7.27,24.69,7.25,24.67,7.23z M21.24,3.1c0,0.45,0,0.9,0,1.35c0,0.06,0.01,0.12,0.02,0.18
		c0.02,0.09,0.08,0.15,0.17,0.17c0.06,0.01,0.11,0.02,0.17,0.02c0.7,0,1.39,0,2.09,0c0.05,0,0.11-0.01,0.16-0.02
		c0.09-0.02,0.14-0.08,0.16-0.17c0.01-0.06,0.02-0.12,0.02-0.18c0-0.64,0-1.27,0-1.91c0-0.12,0-0.24-0.02-0.36
		c-0.01-0.12-0.06-0.17-0.17-0.2c-0.04-0.01-0.08-0.01-0.12-0.02c-0.12-0.02-0.22-0.04-0.24-0.21c-0.01-0.05-0.02-0.1-0.03-0.15
		c-0.02-0.11-0.06-0.16-0.17-0.19c-0.05-0.01-0.1-0.02-0.16-0.02c-0.51,0-1.03,0-1.54,0c-0.06,0-0.11,0.02-0.17,0.03
		c-0.09,0.02-0.13,0.09-0.15,0.17c-0.01,0.07-0.02,0.14-0.02,0.21C21.24,2.23,21.24,2.67,21.24,3.1z M14.19,3.1
		c0,0.39,0,0.78,0,1.16c0,0.11,0,0.23,0.02,0.34c0.01,0.11,0.06,0.16,0.17,0.2c0.05,0.01,0.1,0.02,0.16,0.02c0.53,0,1.05,0,1.58,0
		c0.05,0,0.11-0.01,0.16-0.02c0.09-0.02,0.15-0.08,0.17-0.17c0.01-0.06,0.01-0.12,0.02-0.19c0.01-0.08,0.02-0.17,0.04-0.25
		c0.07-0.2,0.15-0.39,0.22-0.58c0.12-0.32,0.25-0.63,0.38-0.95c0.05-0.14,0.11-0.27,0.16-0.41c0.04-0.13-0.02-0.23-0.16-0.24
		C17.01,2,16.92,2,16.82,1.99c-0.2-0.02-0.27-0.09-0.29-0.28c0-0.05-0.02-0.1-0.03-0.15c-0.02-0.09-0.08-0.13-0.16-0.15
		c-0.05-0.01-0.11-0.02-0.16-0.02c-0.55,0-1.1,0-1.65,0c-0.05,0-0.11,0.01-0.16,0.02c-0.09,0.02-0.14,0.08-0.16,0.16
		c-0.01,0.06-0.02,0.11-0.02,0.17C14.19,2.2,14.19,2.65,14.19,3.1z M3.94,3.1c0-0.45,0-0.9,0-1.35c0-0.06-0.01-0.12-0.02-0.18
		C3.91,1.49,3.83,1.42,3.74,1.4C3.67,1.4,3.6,1.39,3.52,1.39c-0.35,0-0.69,0-1.04,0c-0.12,0-0.24,0-0.36,0.02
		c-0.12,0.01-0.17,0.07-0.2,0.18C1.92,1.62,1.92,1.66,1.92,1.71C1.89,1.83,1.86,1.92,1.7,1.95C1.65,1.96,1.6,1.97,1.55,1.98
		C1.44,2,1.39,2.04,1.36,2.15C1.35,2.2,1.34,2.26,1.34,2.32c0,0.64,0,1.27,0,1.91c0,0.12,0.01,0.24,0.02,0.36
		c0.01,0.11,0.05,0.17,0.17,0.2c0.05,0.01,0.11,0.02,0.17,0.02c0.63,0,1.26,0,1.89,0c0.06,0,0.12-0.01,0.17-0.02
		C3.84,4.78,3.9,4.72,3.92,4.63c0.01-0.06,0.02-0.11,0.02-0.17C3.94,4.01,3.94,3.56,3.94,3.1z M20.44,3.1c0-0.38,0-0.75,0-1.12
		c0-0.12-0.01-0.25-0.02-0.37c-0.01-0.11-0.05-0.17-0.16-0.2c-0.05-0.01-0.11-0.02-0.16-0.02c-0.5,0-0.99,0-1.48,0
		c-0.05,0-0.11,0.01-0.16,0.02c-0.07,0.02-0.12,0.06-0.15,0.13c-0.02,0.05-0.03,0.1-0.03,0.15c0,0.1-0.02,0.2-0.06,0.29
		c-0.08,0.21-0.16,0.41-0.24,0.61c-0.14,0.34-0.28,0.68-0.41,1.03c-0.04,0.12-0.11,0.22-0.12,0.35c-0.01,0.11,0.03,0.18,0.13,0.2
		c0.06,0.01,0.12,0.02,0.18,0.02c0.08,0,0.15,0,0.23,0c0.2,0.01,0.28,0.09,0.29,0.29c0,0.05,0.01,0.1,0.02,0.15
		c0.02,0.08,0.08,0.13,0.16,0.15c0.05,0.01,0.11,0.02,0.16,0.02c0.49,0,0.99,0,1.48,0c0.06,0,0.11-0.01,0.16-0.02
		c0.09-0.02,0.14-0.08,0.16-0.16c0.01-0.06,0.02-0.11,0.02-0.17C20.44,4.01,20.44,3.56,20.44,3.1z M12.22,3.1c0-0.45,0-0.9,0-1.35
		c0-0.06-0.01-0.12-0.02-0.18c-0.02-0.09-0.08-0.15-0.17-0.17c-0.06-0.01-0.12-0.02-0.18-0.02c-0.61,0-1.21,0-1.82,0
		C9.92,1.39,9.81,1.4,9.7,1.4c-0.13,0-0.21,0.1-0.2,0.22C9.51,1.7,9.52,1.78,9.54,1.86C9.55,1.98,9.57,2.1,9.59,2.22
		c0.02,0.11,0.04,0.22,0.06,0.33C9.67,2.66,9.68,2.78,9.7,2.9c0.02,0.11,0.04,0.23,0.06,0.34C9.77,3.32,9.79,3.41,9.8,3.5
		c0.02,0.11,0.04,0.22,0.05,0.33c0.01,0.08,0.02,0.17,0.04,0.25C9.9,4.16,9.92,4.24,9.94,4.32C9.96,4.43,9.97,4.53,10,4.63
		c0.02,0.07,0.07,0.13,0.15,0.15c0.06,0.02,0.13,0.03,0.19,0.03c0.51,0,1.02,0,1.53,0c0.05,0,0.11-0.01,0.16-0.02
		c0.09-0.02,0.14-0.08,0.16-0.16c0.01-0.06,0.02-0.11,0.02-0.17C12.22,4.01,12.22,3.55,12.22,3.1z M7.03,1.39c-0.32,0-0.65,0-0.97,0
		C5.98,1.39,5.9,1.4,5.82,1.4c-0.1,0.01-0.16,0.09-0.14,0.17C5.69,1.62,5.7,1.67,5.72,1.71C5.8,1.9,5.84,2.1,5.84,2.31
		c0,0.08-0.01,0.17-0.02,0.25C5.82,2.62,5.81,2.68,5.8,2.74c-0.03,0.15-0.09,0.28-0.18,0.4C5.57,3.23,5.54,3.32,5.55,3.43
		c0.02,0.13,0.05,0.25,0.08,0.38C5.7,4.06,5.76,4.3,5.82,4.55c0.03,0.12,0.1,0.22,0.23,0.24c0.06,0.01,0.13,0.02,0.2,0.02
		c0.37,0,0.74,0,1.11,0c0.11,0,0.22-0.01,0.33-0.02C7.8,4.79,7.88,4.73,7.91,4.63c0.04-0.13,0.06-0.26,0.08-0.39
		c0.02-0.11,0.03-0.22,0.05-0.33C8.06,3.8,8.08,3.69,8.1,3.58c0.02-0.11,0.03-0.22,0.05-0.33C8.17,3.13,8.19,3.01,8.21,2.9
		c0.02-0.11,0.03-0.22,0.05-0.32c0.02-0.14,0.05-0.29,0.08-0.43C8.36,2.03,8.38,1.91,8.4,1.79C8.41,1.73,8.42,1.67,8.42,1.6
		c-0.01-0.12-0.06-0.17-0.16-0.2C8.2,1.39,8.14,1.39,8.08,1.39C7.73,1.39,7.38,1.39,7.03,1.39z M13.36,2.24
		c0.01-0.03,0.03-0.05,0.04-0.07c0.01-0.06,0.02-0.11,0.03-0.17c0-0.05-0.01-0.1,0-0.14c0.03-0.1,0-0.19-0.01-0.28
		c0-0.07-0.05-0.12-0.11-0.14c-0.11-0.04-0.22-0.01-0.24,0.11c-0.01,0.06,0,0.11,0.02,0.16c0.04,0.13,0.08,0.26,0.13,0.38
		C13.25,2.14,13.28,2.2,13.36,2.24z M13.06,4.03c-0.02,0.04-0.04,0.05-0.05,0.08C13,4.16,12.98,4.22,12.98,4.27
		c0,0.1-0.01,0.2,0,0.3c0,0.05,0.02,0.09,0.04,0.13c0.05,0.08,0.13,0.11,0.23,0.07c0.06-0.02,0.09-0.09,0.07-0.18
		c-0.03-0.16-0.09-0.31-0.17-0.45C13.13,4.1,13.1,4.07,13.06,4.03z M9.16,4.57c0-0.12-0.02-0.15-0.07-0.23
		C9.03,4.24,8.85,4.25,8.8,4.35C8.76,4.43,8.74,4.51,8.74,4.6c0,0.1,0.08,0.18,0.17,0.2c0.11,0.02,0.2-0.03,0.24-0.12
		C9.15,4.64,9.15,4.61,9.16,4.57z M4.73,2.35C4.73,2.35,4.74,2.35,4.73,2.35c0.01,0.04,0,0.08,0.01,0.11c0,0.04,0.02,0.08,0.03,0.11
		c0.02,0.05,0.05,0.07,0.1,0.07c0.04,0,0.08-0.03,0.1-0.07c0.06-0.15,0.07-0.3,0-0.45C4.94,2.08,4.9,2.05,4.85,2.06
		c-0.05,0-0.09,0.04-0.1,0.09C4.74,2.21,4.74,2.28,4.73,2.35z M4.82,4.14C4.8,4.17,4.79,4.19,4.78,4.2
		C4.74,4.33,4.73,4.46,4.74,4.59c0,0.04,0.03,0.08,0.05,0.11c0.02,0.03,0.06,0.05,0.1,0.04C4.94,4.73,4.96,4.7,4.98,4.65
		c0-0.01,0-0.03,0-0.04c0.01-0.13-0.04-0.24-0.09-0.35C4.88,4.23,4.85,4.19,4.82,4.14z"/>
	<path fill-rule="evenodd" clip-rule="evenodd" fill="#868789" d="M20.03,8.83c0.06,0.04,0.08,0.09,0.08,0.16
		c-0.01,0.06-0.01,0.12-0.02,0.18c0,0.01,0,0.03,0,0.04c0.04,0.08,0,0.16-0.01,0.24c-0.01,0.06,0,0.1,0.05,0.13
		c0.07,0.03,0.13,0.07,0.21,0.07c0.06,0,0.12,0.02,0.18,0.01c0.08-0.01,0.16-0.01,0.23-0.06c0.04-0.03,0.06-0.06,0.07-0.1
		c0.02-0.06,0.02-0.12,0.03-0.18c0.01-0.06,0.02-0.11,0.02-0.17c0-0.06-0.01-0.12-0.01-0.19c0-0.04,0.01-0.09,0.03-0.13
		c0.04-0.11,0.12-0.15,0.22-0.15c0.15-0.01,0.3-0.01,0.45,0c0.13,0,0.27,0.11,0.26,0.27C21.8,9.13,21.81,9.3,21.8,9.47
		c-0.01,0.12,0.05,0.17,0.18,0.18c0.38,0.04,0.77,0.01,1.15,0.02c0.08,0,0.16-0.01,0.24-0.03c0.08-0.02,0.11-0.06,0.11-0.14
		c0-0.11,0-0.22,0-0.33c0-0.06-0.02-0.12-0.01-0.18c0-0.05,0.01-0.1,0.04-0.15c0.05-0.09,0.13-0.13,0.23-0.13
		c0.19,0,0.38-0.01,0.57,0c0.26,0.02,0.51,0,0.77,0.01c0.07,0,0.13,0.02,0.19,0.06c0.04,0.03,0.06,0.06,0.07,0.1
		c0.02,0.06,0.03,0.12,0.03,0.17c0,0.12-0.01,0.25-0.02,0.37c0,0.05-0.01,0.11-0.03,0.15c-0.02,0.06-0.01,0.11,0.01,0.16
		c0.03,0.1,0.05,0.21,0.04,0.32c0,0.22,0,0.44,0,0.65c0,0.05-0.01,0.09-0.02,0.14c-0.04,0.11-0.13,0.14-0.24,0.16
		c-0.02,0-0.04,0-0.06,0c-8.24,0-16.47,0-24.71,0c-0.04,0-0.08-0.01-0.12-0.01c-0.15-0.02-0.2-0.11-0.21-0.25
		C0,10.46,0,10.19,0,9.93c0-0.08,0.03-0.16,0.07-0.24c0.05-0.08,0.05-0.16,0.02-0.25C0.08,9.39,0.07,9.32,0.06,9.26
		c-0.01-0.1-0.03-0.21-0.04-0.31C0.01,8.82,0.12,8.7,0.26,8.69c0.2-0.03,0.4-0.01,0.6-0.01c0.08,0,0.17,0.01,0.25,0.01
		c0.15,0,0.31-0.01,0.46-0.01c0.11,0,0.21,0.06,0.24,0.16C1.84,8.91,1.82,8.98,1.8,9.06C1.78,9.12,1.75,9.18,1.73,9.25
		C1.71,9.34,1.73,9.44,1.77,9.52c0.04,0.07,0.1,0.1,0.17,0.12c0.05,0.01,0.1,0.02,0.16,0.02c0.52,0,1.03,0,1.55,0
		c0.11,0,0.21-0.01,0.31-0.07c0.06-0.03,0.07-0.06,0.06-0.13C3.99,9.38,3.99,9.29,3.97,9.2C3.96,9.12,3.95,9.05,3.94,8.97
		c-0.01-0.06,0-0.11,0.05-0.15c0.04-0.03,0.09-0.03,0.12,0.01c0.02,0.03,0.04,0.07,0.04,0.1C4.14,9.1,4.13,9.25,4.11,9.41
		C4.1,9.52,4.14,9.59,4.25,9.62c0.12,0.03,0.24,0.06,0.36,0.03c0.02-0.01,0.05,0,0.08-0.01C4.8,9.61,4.85,9.52,4.86,9.41
		c0.01-0.1,0.01-0.2,0.02-0.31c0-0.05-0.01-0.09-0.01-0.14c0-0.16,0.07-0.25,0.23-0.27c0.15-0.02,0.3-0.02,0.45,0
		c0.05,0.01,0.1,0.01,0.14,0.04c0.07,0.04,0.1,0.1,0.12,0.17c0.02,0.07,0,0.14,0,0.22c-0.01,0.12,0,0.24,0,0.36
		c0,0.09,0.06,0.17,0.17,0.17c0.15,0.01,0.29,0.02,0.44,0.02c0.45,0,0.89,0,1.33,0c0.07,0,0.14-0.01,0.2-0.03
		c0.12-0.03,0.14-0.08,0.12-0.2c0-0.03-0.01-0.06-0.01-0.09c-0.01-0.13-0.01-0.27-0.02-0.4c0-0.14,0.08-0.23,0.21-0.25
		C8.32,8.68,8.4,8.67,8.47,8.67c0.35,0,0.7,0,1.04,0c0.08,0,0.16,0.01,0.24,0.02c0.11,0.01,0.2,0.12,0.2,0.23c0,0.19,0,0.37,0,0.56
		c0,0.1,0.04,0.15,0.15,0.16c0.11,0.01,0.23,0.02,0.34,0.02c0.52,0,1.04,0,1.55,0c0.08,0,0.16-0.01,0.23-0.04
		c0.06-0.03,0.09-0.08,0.09-0.13c0-0.13-0.01-0.26-0.01-0.39c0-0.1,0-0.21,0.06-0.3c0.03-0.05,0.07-0.07,0.11-0.09
		c0.06-0.02,0.12-0.03,0.18-0.03c0.41,0,0.82,0,1.23,0c0.06,0,0.13,0.01,0.19,0.03c0.11,0.03,0.18,0.12,0.18,0.24
		c0,0.13,0,0.26,0,0.38c0,0.05-0.01,0.09-0.01,0.14c-0.01,0.13,0.06,0.16,0.16,0.18c0.12,0.01,0.23,0.02,0.35,0.02
		c0.44,0,0.87,0,1.31,0c0.07,0,0.14-0.01,0.21-0.03c0.09-0.02,0.11-0.06,0.11-0.14c0-0.16,0-0.32,0-0.48c0-0.05,0.01-0.09,0.02-0.14
		c0.02-0.08,0.08-0.14,0.16-0.16c0.06-0.02,0.12-0.03,0.18-0.03c0.4,0,0.79,0,1.19,0c0.15,0,0.29,0.04,0.41,0.14
		c0.09,0.07,0.11,0.17,0.07,0.27c-0.04,0.11-0.07,0.23-0.11,0.34c-0.01,0.02-0.01,0.04-0.02,0.06c-0.02,0.07,0.01,0.11,0.07,0.13
		c0.05,0.02,0.1,0.03,0.15,0.03c0.33,0.01,0.66,0.01,0.99,0.02c0.11,0,0.21-0.01,0.32-0.02c0.05-0.01,0.1-0.03,0.15-0.05
		c0.06-0.03,0.07-0.07,0.06-0.14c-0.01-0.07-0.01-0.14-0.02-0.21c-0.01-0.1-0.01-0.19-0.01-0.29C19.94,8.89,19.97,8.85,20.03,8.83z
		 M13.29,9.22c-0.05,0.01-0.11,0.01-0.16,0.03C13.06,9.27,13,9.37,13,9.44c0,0.08,0.06,0.16,0.14,0.19c0.06,0.02,0.13,0.02,0.2,0.02
		c0.14-0.01,0.22-0.08,0.22-0.23c0-0.09-0.04-0.15-0.13-0.17C13.38,9.24,13.34,9.23,13.29,9.22z"/>
	<path fill-rule="evenodd" clip-rule="evenodd" fill="#868789" d="M4.03,6.58C4.07,6.64,4.1,6.67,4.11,6.71
		c0.04,0.11,0.05,0.23,0.01,0.35c-0.03,0.09-0.02,0.17,0,0.26c0.02,0.1,0.03,0.21,0.01,0.32c-0.02,0.1,0,0.2,0.01,0.31
		c0,0.1,0.02,0.2-0.03,0.29C4.09,8.29,4.03,8.33,3.98,8.27C3.95,8.24,3.93,8.19,3.93,8.15c0-0.1,0.01-0.2,0.01-0.31
		c0-0.08,0-0.15-0.02-0.23C3.9,7.52,3.91,7.42,3.93,7.33C3.96,7.21,3.94,7.1,3.92,6.98C3.89,6.84,3.94,6.72,4.03,6.58z"/>
	<path fill-rule="evenodd" clip-rule="evenodd" fill="#868789" d="M20.01,7.19c0.09,0.14,0.1,0.28,0.07,0.43
		c-0.02,0.09-0.01,0.17,0.01,0.25c0.03,0.1,0.03,0.19,0.02,0.29c0,0.02-0.02,0.05-0.04,0.07C20.04,8.26,20,8.25,19.98,8.21
		c-0.04-0.08-0.06-0.16-0.05-0.24c0.01-0.06,0.03-0.13,0.04-0.19c0-0.03,0-0.07-0.01-0.1c-0.01-0.04-0.02-0.07-0.03-0.11
		C19.89,7.43,19.94,7.31,20.01,7.19z"/>
	<path fill-rule="evenodd" clip-rule="evenodd" fill="#868789" d="M20.01,7.11C19.92,7,19.93,6.81,20.02,6.76
		C20.1,6.85,20.09,7.02,20.01,7.11z"/>
</g>
</svg>
