<!-- Generator: Adobe Illustrator 19.2.1, SVG Export Plug-In  -->
<svg version="1.1"
	 xmlns="http://www.w3.org/2000/svg" xmlns:xlink="http://www.w3.org/1999/xlink" xmlns:a="http://ns.adobe.com/AdobeSVGViewerExtensions/3.0/"
	 x="0px" y="0px" width="177.6px" height="53.8px" viewBox="0 0 177.6 53.8" enable-background="new 0 0 177.6 53.8"
	 xml:space="preserve">
<defs>
</defs>
<g id="Layer_1_copy" fill='#868789'>
	<path fill-rule="evenodd" clip-rule="evenodd" d="M110.1,15.4h2.1l-0.2-1.6c-0.1-0.6-0.2-1.1-0.2-1.6c-0.1,0.4-0.4,0.8-0.6,1.3
		L110.1,15.4z M107.8,17.8l3.6-6.3h1l1,6.3h-0.8l-0.3-1.8h-2.5l-1,1.8H107.8z M102.5,17.8l1.3-6.3h4.5l-0.2,0.7h-3.7l-0.4,2h3.6
		l-0.1,0.7h-3.6l-0.5,2.2h4l-0.1,0.7H102.5z M98.6,17.8l1.2-5.6h-2.1l0.2-0.7h4.9l-0.1,0.7h-2l-1.2,5.6H98.6z M93.4,15.4h2.1
		l-0.2-1.6c-0.1-0.6-0.2-1.1-0.2-1.6c-0.1,0.4-0.4,0.8-0.6,1.3L93.4,15.4z M91.1,17.8l3.6-6.3h1l1,6.3h-0.8L95.6,16H93l-1,1.8H91.1z
		 M88.5,17.8l1.2-5.6h-2.1l0.2-0.7h4.9l-0.1,0.7h-2l-1.2,5.6H88.5z M84.4,17.8l1.3-6.3h0.8l-1.3,6.3H84.4z M78.6,15.8l0.8-0.1l0,0.2
		c0,0.2,0.1,0.5,0.2,0.7c0.1,0.2,0.3,0.4,0.6,0.5c0.3,0.1,0.6,0.2,0.9,0.2c0.5,0,0.9-0.1,1.2-0.3c0.3-0.2,0.4-0.5,0.4-0.8
		c0-0.2-0.1-0.4-0.2-0.5c-0.1-0.2-0.5-0.4-1.2-0.7c-0.5-0.2-0.8-0.4-1-0.5c-0.3-0.2-0.5-0.4-0.6-0.6c-0.1-0.2-0.2-0.5-0.2-0.8
		c0-0.3,0.1-0.6,0.3-0.9c0.2-0.3,0.4-0.5,0.8-0.6c0.3-0.1,0.7-0.2,1.2-0.2c0.5,0,0.9,0.1,1.3,0.3c0.4,0.2,0.6,0.4,0.8,0.7
		c0.2,0.3,0.2,0.6,0.2,0.8c0,0,0,0.1,0,0.1L83,13.4c0-0.2,0-0.3,0-0.4c-0.1-0.2-0.1-0.3-0.3-0.4c-0.1-0.1-0.3-0.2-0.5-0.3
		c-0.2-0.1-0.4-0.1-0.7-0.1c-0.5,0-0.8,0.1-1.1,0.3c-0.2,0.2-0.3,0.4-0.3,0.6c0,0.2,0,0.3,0.1,0.4c0.1,0.1,0.2,0.2,0.4,0.4
		c0.1,0.1,0.5,0.2,1.1,0.5c0.5,0.2,0.8,0.4,0.9,0.5c0.2,0.2,0.4,0.3,0.5,0.6c0.1,0.2,0.2,0.5,0.2,0.7c0,0.3-0.1,0.7-0.3,0.9
		c-0.2,0.3-0.5,0.5-0.9,0.7C81.9,17.9,81.5,18,81,18c-0.7,0-1.3-0.2-1.7-0.5C78.8,17.2,78.6,16.6,78.6,15.8z M73.5,14.4h1.2
		c0.5,0,0.9,0,1,0c0.3,0,0.6-0.1,0.8-0.2c0.2-0.1,0.4-0.3,0.5-0.5c0.1-0.2,0.2-0.4,0.2-0.6c0-0.2,0-0.3-0.1-0.5
		c-0.1-0.1-0.2-0.2-0.3-0.3c-0.1,0-0.4-0.1-0.7-0.1h-2.1L73.5,14.4z M71.9,17.8l1.3-6.3h2.6c0.5,0,0.9,0,1.2,0.1
		c0.3,0.1,0.5,0.3,0.6,0.5c0.2,0.2,0.2,0.5,0.2,0.9c0,0.5-0.2,0.9-0.5,1.3c-0.3,0.3-0.9,0.6-1.6,0.7c0.2,0.2,0.4,0.3,0.5,0.5
		c0.3,0.4,0.5,0.8,0.6,1.1l0.5,1.2h-0.9L76,16.7c-0.2-0.4-0.4-0.8-0.6-1.1c-0.1-0.2-0.3-0.4-0.4-0.4c-0.1-0.1-0.4-0.1-0.7-0.1h-1
		l-0.6,2.8H71.9z M65.9,17.8l1.3-6.3h4.5l-0.2,0.7h-3.7l-0.4,2h3.6L71,14.9h-3.6l-0.5,2.2h4l-0.1,0.7H65.9z M61.9,17.8l-1.2-6.3h0.8
		l0.7,3.7c0.1,0.7,0.2,1.2,0.3,1.6c0.3-0.5,0.5-1,0.6-1.3l2.2-4.1h0.9l-3.4,6.3H61.9z M57.5,17.8l1.3-6.3h0.8l-1.3,6.3H57.5z
		 M51,17.8l1.3-6.3h0.8l1.1,2.4c0.3,0.7,0.6,1.3,0.8,1.8c0.1,0.3,0.2,0.7,0.4,1.2c0.1-0.5,0.2-1.1,0.3-1.6l0.8-3.7h0.8l-1.3,6.3
		h-0.8l-1.6-3.6c-0.3-0.6-0.5-1.2-0.6-1.7c0,0.4-0.1,0.9-0.2,1.5l-0.8,3.8H51z M45.9,11.6h0.8l-0.8,3.9c-0.1,0.3-0.1,0.6-0.1,0.7
		c0,0.3,0.1,0.6,0.4,0.8c0.3,0.2,0.6,0.3,1,0.3c0.3,0,0.6-0.1,0.9-0.2c0.3-0.1,0.5-0.4,0.7-0.6c0.2-0.3,0.3-0.7,0.4-1.4l0.7-3.5h0.8
		L50,15.3c-0.1,0.6-0.3,1.1-0.5,1.5c-0.2,0.4-0.5,0.7-0.9,0.9c-0.4,0.2-0.8,0.3-1.3,0.3c-0.5,0-0.9-0.1-1.2-0.2
		c-0.3-0.2-0.6-0.4-0.8-0.7c-0.2-0.3-0.3-0.6-0.3-0.9c0-0.2,0.1-0.6,0.2-1.1L45.9,11.6z"/>
	<path d="M83.1,20.2h0.5c0,0.2,0.1,0.4,0.2,0.5c0.1,0.1,0.3,0.1,0.5,0.1c0.2,0,0.4-0.1,0.5-0.2c0.2-0.1,0.3-0.3,0.3-0.4h0.5
		c-0.1,0.3-0.3,0.6-0.5,0.8c-0.3,0.2-0.6,0.3-0.9,0.3c-0.3,0-0.6-0.1-0.8-0.3C83.2,20.9,83.1,20.6,83.1,20.2 M82.3,25.9h2.1
		l-0.2-1.6C84,23.7,84,23.1,84,22.7c-0.1,0.4-0.4,0.8-0.6,1.3L82.3,25.9z M80,28.3l3.6-6.3h1l1,6.3h-0.8l-0.3-1.8h-2.5l-1,1.8H80z
		 M76.7,28.3l1.2-5.6h-2.1L76,22h4.9l-0.1,0.7h-2l-1.2,5.6H76.7z M70.4,24.9h1.2c0.5,0,0.9,0,1,0c0.3,0,0.6-0.1,0.8-0.2
		c0.2-0.1,0.4-0.3,0.5-0.5C74,24,74,23.8,74,23.6c0-0.2,0-0.3-0.1-0.5c-0.1-0.1-0.2-0.2-0.3-0.3c-0.1-0.1-0.4-0.1-0.7-0.1h-2.1
		L70.4,24.9z M68.8,28.3l1.3-6.3h2.6c0.5,0,0.9,0,1.2,0.1c0.3,0.1,0.5,0.3,0.6,0.5c0.2,0.2,0.2,0.5,0.2,0.9c0,0.5-0.2,0.9-0.5,1.3
		c-0.3,0.3-0.9,0.6-1.6,0.7c0.2,0.2,0.4,0.3,0.5,0.5c0.3,0.4,0.5,0.8,0.6,1.1l0.5,1.2h-0.9L73,27.2c-0.2-0.4-0.3-0.8-0.6-1.1
		c-0.1-0.2-0.3-0.4-0.4-0.4c-0.1-0.1-0.4-0.1-0.7-0.1h-1l-0.6,2.8H68.8z M64.6,25.9h2.1l-0.2-1.6c-0.1-0.6-0.2-1.1-0.2-1.6
		c-0.1,0.4-0.4,0.8-0.6,1.3L64.6,25.9z M62.3,28.3l3.6-6.3h1l1,6.3h-0.8l-0.3-1.8h-2.5l-1,1.8H62.3z M54.8,28.3l1.3-6.3h4.5
		l-0.2,0.7h-3.7l-0.4,2H60l-0.1,0.7h-3.6l-0.5,2.2h4l-0.1,0.7H54.8z M49.3,27.6h1c0.4,0,0.8,0,1.2-0.1c0.2-0.1,0.4-0.1,0.6-0.2
		c0.2-0.1,0.4-0.3,0.6-0.5c0.2-0.3,0.4-0.6,0.5-1c0.1-0.4,0.2-0.8,0.2-1.2c0-0.5-0.1-0.9-0.3-1.2c-0.2-0.3-0.4-0.5-0.7-0.5
		c-0.2-0.1-0.5-0.1-0.9-0.1h-1.1L49.3,27.6z M48.3,28.3l1.3-6.3h1.9c0.5,0,0.8,0,1,0.1c0.3,0.1,0.6,0.2,0.9,0.5
		c0.2,0.2,0.4,0.5,0.5,0.9c0.1,0.3,0.2,0.7,0.2,1.1c0,0.5-0.1,1-0.2,1.4c-0.2,0.4-0.4,0.8-0.6,1.1c-0.2,0.3-0.5,0.6-0.8,0.7
		c-0.3,0.2-0.6,0.3-1,0.4c-0.3,0.1-0.6,0.1-1,0.1H48.3z"/>
	<path d="M92.4,38.8l1.3-6.3h0.8l1.1,2.4c0.3,0.7,0.6,1.3,0.8,1.8c0.1,0.3,0.2,0.7,0.4,1.2c0.1-0.5,0.2-1.1,0.3-1.6l0.8-3.7h0.8
		l-1.3,6.3h-0.8l-1.6-3.6c-0.3-0.6-0.5-1.2-0.6-1.7c0,0.4-0.1,0.9-0.2,1.5l-0.8,3.8H92.4z M88.6,36.3l0.2-0.7h2.8L91,38.2
		c-0.3,0.2-0.7,0.4-1.2,0.5c-0.4,0.1-0.9,0.2-1.3,0.2c-0.9,0-1.6-0.3-2-0.8c-0.4-0.5-0.6-1.1-0.6-1.8c0-0.8,0.2-1.4,0.5-2.1
		c0.3-0.6,0.8-1.1,1.3-1.4c0.5-0.3,1.1-0.4,1.7-0.4c0.4,0,0.8,0.1,1.2,0.2c0.4,0.2,0.6,0.4,0.8,0.6c0.2,0.3,0.3,0.6,0.4,1.1
		l-0.8,0.1c-0.1-0.4-0.3-0.8-0.6-1c-0.3-0.2-0.6-0.3-1.1-0.3c-0.5,0-0.9,0.1-1.3,0.4c-0.4,0.2-0.7,0.6-0.9,1.1
		c-0.2,0.5-0.4,1.1-0.4,1.7c0,0.6,0.2,1.1,0.5,1.4c0.3,0.3,0.7,0.5,1.3,0.5c0.5,0,1.1-0.2,1.8-0.5l0.3-1.3H88.6z M83,38.8l1.3-6.3
		h0.8l-1.3,6.3H83z M77.1,36.8l0.8-0.1l0,0.2c0,0.2,0.1,0.5,0.2,0.7c0.1,0.2,0.3,0.4,0.6,0.5c0.3,0.1,0.6,0.2,0.9,0.2
		c0.5,0,0.9-0.1,1.2-0.3c0.3-0.2,0.4-0.5,0.4-0.8c0-0.2-0.1-0.4-0.2-0.5c-0.1-0.2-0.5-0.4-1.2-0.7c-0.5-0.2-0.8-0.4-1-0.5
		c-0.3-0.2-0.5-0.4-0.6-0.6c-0.1-0.2-0.2-0.5-0.2-0.7c0-0.3,0.1-0.6,0.3-0.9c0.2-0.3,0.4-0.5,0.8-0.6c0.3-0.1,0.7-0.2,1.2-0.2
		c0.5,0,0.9,0.1,1.3,0.3c0.4,0.2,0.6,0.4,0.8,0.7c0.2,0.3,0.2,0.6,0.2,0.8c0,0,0,0.1,0,0.1l-0.8,0.1c0-0.2,0-0.3,0-0.4
		c-0.1-0.2-0.1-0.3-0.3-0.4c-0.1-0.1-0.3-0.2-0.5-0.3c-0.2-0.1-0.4-0.1-0.7-0.1c-0.5,0-0.8,0.1-1.1,0.3c-0.2,0.2-0.3,0.4-0.3,0.6
		c0,0.2,0,0.3,0.1,0.4c0.1,0.1,0.2,0.2,0.4,0.4c0.1,0.1,0.5,0.2,1.1,0.5c0.5,0.2,0.8,0.4,0.9,0.5c0.2,0.2,0.4,0.3,0.5,0.6
		c0.1,0.2,0.2,0.5,0.2,0.7c0,0.3-0.1,0.7-0.3,0.9c-0.2,0.3-0.5,0.5-0.9,0.7c-0.4,0.2-0.8,0.2-1.3,0.2c-0.7,0-1.3-0.2-1.7-0.5
		C77.4,38.1,77.1,37.6,77.1,36.8z M70.9,38.8l1.3-6.3h4.5l-0.2,0.7H73l-0.4,2h3.6L76,35.9h-3.6l-0.5,2.2h4l-0.1,0.7H70.9z
		 M65.5,38.1h1c0.4,0,0.8,0,1.2-0.1c0.2-0.1,0.4-0.1,0.6-0.2c0.2-0.1,0.4-0.3,0.6-0.5c0.2-0.3,0.4-0.6,0.5-1
		c0.1-0.4,0.2-0.8,0.2-1.2c0-0.5-0.1-0.9-0.3-1.2c-0.2-0.3-0.4-0.5-0.7-0.5c-0.2-0.1-0.5-0.1-0.9-0.1h-1.1L65.5,38.1z M64.5,38.8
		l1.3-6.3h1.9c0.5,0,0.8,0,1,0.1c0.3,0.1,0.6,0.2,0.9,0.5c0.2,0.2,0.4,0.5,0.5,0.9c0.1,0.3,0.2,0.7,0.2,1.1c0,0.5-0.1,1-0.2,1.4
		c-0.2,0.4-0.4,0.8-0.6,1.1c-0.2,0.3-0.5,0.6-0.8,0.7c-0.3,0.2-0.6,0.3-1,0.4c-0.3,0.1-0.6,0.1-1,0.1H64.5z M59.6,38.8l1.3-6.3h0.8
		l-1.3,6.3H59.6z M55.3,39.5l0.2-0.7h0.6L56,39.2c0.3,0,0.4,0.1,0.6,0.3c0.1,0.1,0.2,0.3,0.2,0.5c0,0.2-0.1,0.4-0.3,0.5
		c-0.3,0.2-0.7,0.3-1.2,0.3c-0.3,0-0.5,0-0.7-0.1l0.1-0.5c0.2,0,0.4,0,0.6,0c0.3,0,0.5,0,0.6-0.1C56,40,56,39.9,56,39.8
		c0-0.1,0-0.2-0.1-0.2C55.8,39.5,55.6,39.5,55.3,39.5z M53.8,36.8l0.8-0.1l0,0.2c0,0.2,0.1,0.5,0.2,0.7c0.1,0.2,0.3,0.4,0.6,0.5
		c0.3,0.1,0.6,0.2,0.9,0.2c0.5,0,0.9-0.1,1.2-0.3c0.3-0.2,0.4-0.5,0.4-0.8c0-0.2-0.1-0.4-0.2-0.5c-0.1-0.2-0.5-0.4-1.2-0.7
		c-0.5-0.2-0.8-0.4-1-0.5c-0.3-0.2-0.5-0.4-0.6-0.6c-0.1-0.2-0.2-0.5-0.2-0.7c0-0.3,0.1-0.6,0.3-0.9c0.2-0.3,0.4-0.5,0.8-0.6
		c0.3-0.1,0.7-0.2,1.2-0.2c0.5,0,0.9,0.1,1.3,0.3c0.4,0.2,0.6,0.4,0.8,0.7c0.2,0.3,0.2,0.6,0.2,0.8c0,0,0,0.1,0,0.1l-0.8,0.1
		c0-0.2,0-0.3,0-0.4c-0.1-0.2-0.1-0.3-0.3-0.4c-0.1-0.1-0.3-0.2-0.5-0.3c-0.2-0.1-0.4-0.1-0.7-0.1c-0.5,0-0.8,0.1-1.1,0.3
		c-0.2,0.2-0.3,0.4-0.3,0.6c0,0.2,0,0.3,0.1,0.4c0.1,0.1,0.2,0.2,0.4,0.4c0.1,0.1,0.5,0.2,1.1,0.5c0.5,0.2,0.8,0.4,0.9,0.5
		c0.2,0.2,0.4,0.3,0.5,0.6c0.1,0.2,0.2,0.5,0.2,0.7c0,0.3-0.1,0.7-0.3,0.9c-0.2,0.3-0.5,0.5-0.9,0.7c-0.4,0.2-0.8,0.2-1.3,0.2
		c-0.7,0-1.3-0.2-1.7-0.5C54,38.1,53.8,37.6,53.8,36.8z"/>
	<path d="M117.5,46.8h2.1l-0.2-1.6c-0.1-0.6-0.2-1.1-0.2-1.6c-0.1,0.4-0.4,0.8-0.6,1.3L117.5,46.8z M115.2,49.3l3.6-6.3h1l1,6.3H120
		l-0.3-1.8h-2.5l-1,1.8H115.2z M114.2,47.1l0.8,0.1c-0.3,0.7-0.6,1.3-1.2,1.6c-0.5,0.4-1.1,0.6-1.7,0.6c-0.8,0-1.4-0.2-1.8-0.7
		c-0.4-0.5-0.7-1.1-0.7-2c0-1.1,0.3-2.1,1-2.8c0.6-0.7,1.4-1,2.3-1c0.7,0,1.2,0.2,1.6,0.5c0.4,0.4,0.7,0.8,0.7,1.4l-0.8,0.1
		c-0.1-0.5-0.3-0.8-0.5-1c-0.3-0.2-0.6-0.3-1-0.3c-0.8,0-1.4,0.3-1.9,1c-0.4,0.6-0.6,1.3-0.6,2.1c0,0.6,0.2,1.1,0.5,1.5
		c0.3,0.3,0.7,0.5,1.2,0.5c0.4,0,0.8-0.1,1.2-0.4C113.8,48,114.1,47.6,114.2,47.1z M103.6,46.7c0,0.4,0.1,0.7,0.2,1
		c0.2,0.3,0.4,0.6,0.7,0.7c0.3,0.2,0.6,0.3,1,0.3c0.3,0,0.6-0.1,0.9-0.2c0.3-0.2,0.6-0.4,0.8-0.6c0.2-0.3,0.4-0.6,0.5-1
		c0.1-0.4,0.2-0.8,0.2-1.2c0-0.6-0.2-1.1-0.5-1.5c-0.4-0.4-0.8-0.6-1.3-0.6c-0.7,0-1.2,0.3-1.7,0.8C103.9,45,103.6,45.8,103.6,46.7z
		 M102.8,46.7c0-1.1,0.3-2,1-2.7c0.6-0.7,1.4-1,2.4-1c0.8,0,1.4,0.3,1.9,0.8c0.5,0.5,0.7,1.2,0.7,2.1c0,0.6-0.1,1.2-0.4,1.7
		c-0.2,0.4-0.4,0.7-0.7,1c-0.3,0.3-0.6,0.5-0.9,0.7c-0.4,0.2-0.9,0.3-1.4,0.3c-0.5,0-1-0.1-1.4-0.4c-0.4-0.2-0.7-0.6-0.9-1
		C102.9,47.6,102.8,47.1,102.8,46.7z M97.9,46h1.4c0.5,0,0.9-0.1,1.2-0.2c0.3-0.1,0.5-0.3,0.6-0.5c0.2-0.2,0.2-0.5,0.2-0.8
		c0-0.2,0-0.4-0.1-0.5c-0.1-0.1-0.2-0.2-0.3-0.3c-0.1-0.1-0.4-0.1-0.8-0.1h-1.6L97.9,46z M96.4,49.3l1.3-6.3h2.6
		c0.5,0,0.8,0.1,1,0.2c0.2,0.1,0.4,0.3,0.6,0.5c0.1,0.3,0.2,0.5,0.2,0.9c0,0.3-0.1,0.5-0.2,0.8c-0.1,0.3-0.2,0.5-0.4,0.7
		c-0.2,0.2-0.3,0.3-0.5,0.4c-0.2,0.1-0.3,0.2-0.5,0.2c-0.4,0.1-0.8,0.1-1.2,0.1h-1.6l-0.5,2.6H96.4z M92.2,46.8h2.1L94,45.3
		c-0.1-0.6-0.2-1.1-0.2-1.6c-0.1,0.4-0.4,0.8-0.6,1.3L92.2,46.8z M89.9,49.3l3.6-6.3h1l1,6.3h-0.8l-0.3-1.8h-2.5l-1,1.8H89.9z
		 M84.1,49.3l1.3-6.3h0.8l1.1,2.4c0.3,0.7,0.6,1.3,0.8,1.8c0.1,0.3,0.2,0.7,0.4,1.2c0.1-0.5,0.2-1.1,0.3-1.6l0.8-3.7h0.8L89,49.3
		h-0.8l-1.6-3.6c-0.3-0.6-0.5-1.2-0.6-1.7c0,0.4-0.1,0.9-0.2,1.5l-0.8,3.8H84.1z M81,47.4l0.2-0.8h2.4l-0.2,0.8H81z M76.5,47.5
		l0.8-0.1c0,0.2-0.1,0.4-0.1,0.5c0,0.2,0.1,0.4,0.2,0.6c0.1,0.1,0.3,0.2,0.6,0.2c0.2,0,0.3,0,0.5-0.1c0.1-0.1,0.3-0.2,0.3-0.4
		c0.1-0.1,0.1-0.4,0.2-0.7L80,43h0.8l-1,4.6c-0.1,0.6-0.4,1.1-0.7,1.4c-0.3,0.3-0.7,0.4-1.2,0.4c-0.5,0-0.9-0.1-1.2-0.4
		c-0.3-0.2-0.4-0.6-0.4-1C76.4,47.8,76.4,47.6,76.5,47.5z M71.4,43h0.8l-0.8,3.9c-0.1,0.3-0.1,0.6-0.1,0.7c0,0.3,0.1,0.6,0.4,0.8
		c0.3,0.2,0.6,0.3,1,0.3c0.3,0,0.6-0.1,0.9-0.2c0.3-0.1,0.5-0.4,0.7-0.6c0.2-0.3,0.3-0.7,0.4-1.4l0.7-3.5h0.8l-0.8,3.7
		c-0.1,0.6-0.3,1.1-0.5,1.5c-0.2,0.4-0.5,0.7-0.9,0.9c-0.4,0.2-0.8,0.3-1.3,0.3c-0.5,0-0.9-0.1-1.2-0.2c-0.3-0.2-0.6-0.4-0.8-0.7
		c-0.2-0.3-0.3-0.6-0.3-0.9c0-0.2,0.1-0.6,0.2-1.1L71.4,43z M65,49.3l1.3-6.3h0.8L66,48.6h3.3l-0.1,0.7H65z M63.5,47.1l0.8,0.1
		c-0.3,0.7-0.6,1.3-1.2,1.6c-0.5,0.4-1.1,0.6-1.7,0.6c-0.8,0-1.4-0.2-1.8-0.7c-0.4-0.5-0.7-1.1-0.7-2c0-1.1,0.3-2.1,1-2.8
		c0.6-0.7,1.4-1,2.3-1c0.7,0,1.2,0.2,1.6,0.5c0.4,0.4,0.7,0.8,0.7,1.4l-0.8,0.1c-0.1-0.5-0.3-0.8-0.5-1c-0.3-0.2-0.6-0.3-1-0.3
		c-0.8,0-1.4,0.3-1.9,1c-0.4,0.6-0.6,1.3-0.6,2.1c0,0.6,0.2,1.1,0.5,1.5c0.3,0.3,0.7,0.5,1.2,0.5c0.4,0,0.8-0.1,1.2-0.4
		C63.1,48,63.4,47.6,63.5,47.1z"/>
	<path fill-rule="evenodd" clip-rule="evenodd" d="M8.1,35.6c0.1-0.1,0.2-0.4,0.2-0.5c0.1-0.1,0.3-0.2,0.4-0.2
		c0-0.1,0.4-0.1,0.4-0.1V35c0,0-0.1,0.1-0.1,0.1c0,0,0,0-0.1,0l0,0c0,0-0.1,0-0.1,0c0,0,0,0.1-0.1,0.1c0,0-0.1,0.1-0.1,0.1h0
		c0,0,0,0.1,0,0.1c0,0-0.1,0.1-0.1,0.1h0h0c0,0-0.1,0-0.1,0.1C8.3,35.7,8.2,35.7,8.1,35.6C8.2,35.7,8.1,35.7,8.1,35.6
		C8.1,35.6,8.1,35.7,8.1,35.6 M9.4,48.6c0.5,0.2,0.5,0.8,0.4,1.5c0.6,0.4,0.2,1.3-0.5,2.5c-0.1,0.3-0.4,0.5-0.3,0.8
		c0.1,0.6,0.6,0.4,0.7,0.1c0.1-0.4,0-0.7,0.4-1c0.4-0.5,0.8-1,1-1.7c0.5-0.9,1-1.7,1.7-2.5c0.7-0.5,1.2-1.2,1.6-1.8
		c0.3-0.4,0.6-0.8,1.2-1c1.7-0.9,3.9-4,6.3-7.3c4.2-4.8,8.1-9.8,11.6-15.1c3.2-4.7,6.7-9.4,8.4-14.6c0.5-1.1-0.9-1.6-2.5-2
		c-1-0.6-1.2-1.4-0.7-2.4c-0.2-1.4-0.9-2.5-2.4-3.1c-1.7-0.7-3-0.2-4.3,0.3c-1.3,0.3-2,0.1-2.4-0.5C29.3,0.5,29,0.3,28.7,0
		c1.5,2.5-5.3,11.3-9.7,18.1c-3.8,6-8,11.8-12.3,17.6c0.1,0,0.3,0,0.4,0.1c0.6-0.6,0.8-1.4,2.2-1.5c1.1,0.6,0.2,1.6-0.3,2.5
		c-1.7,2.5-3.4,5-5,7.4c-0.7,0.6-0.9,1.3-1,2c-0.5,0.5-0.8,1.1-1,1.6c-0.4,0.3-0.6,0.6-0.7,1c-0.1,0.2-0.2,0.5-0.4,0.5
		c-0.2,0.2-0.4,0.3-0.6,0.5C-0.2,50,0,50.5,0.4,50.1c0.4-0.4,0.5-0.7,1.2-0.4c0.6,0,1.1,0,1.7-0.4c0.6-0.1,1.2-0.1,1.8,0.2
		c0.5-0.1,0.9,0,1.1,0.3c0.2,0.3,0.5,0.3,0.7,0.1C7.7,49.2,8.3,48.4,9.4,48.6z M110.1,15.4h2.1l-0.2-1.6c-0.1-0.6-0.2-1.1-0.2-1.6
		c-0.1,0.4-0.4,0.8-0.6,1.3L110.1,15.4z M107.8,17.9l3.6-6.3h1l1,6.3h-0.8l-0.3-1.8h-2.5l-1,1.8H107.8z M102.5,17.9l1.3-6.3h4.5
		l-0.2,0.7h-3.7l-0.4,2h3.6l-0.1,0.7h-3.6l-0.5,2.2h4l-0.1,0.7H102.5z M98.6,17.9l1.2-5.6h-2.1l0.2-0.7h4.9l-0.1,0.7h-2l-1.2,5.6
		H98.6z M93.4,15.4h2.1l-0.2-1.6c-0.1-0.6-0.2-1.1-0.2-1.6c-0.1,0.4-0.4,0.8-0.6,1.3L93.4,15.4z M91.1,17.9l3.6-6.3h1l1,6.3h-0.8
		L95.6,16H93l-1,1.8H91.1z M88.5,17.9l1.2-5.6h-2.1l0.2-0.7h4.9l-0.1,0.7h-2l-1.2,5.6H88.5z M84.4,17.9l1.3-6.3h0.8l-1.3,6.3H84.4z
		 M78.6,15.8l0.8-0.1l0,0.2c0,0.2,0.1,0.5,0.2,0.7c0.1,0.2,0.3,0.4,0.6,0.5c0.3,0.1,0.6,0.2,0.9,0.2c0.5,0,0.9-0.1,1.2-0.3
		c0.3-0.2,0.4-0.5,0.4-0.8c0-0.2-0.1-0.4-0.2-0.5c-0.1-0.2-0.5-0.4-1.2-0.7c-0.5-0.2-0.8-0.4-1-0.5c-0.3-0.2-0.5-0.4-0.6-0.6
		c-0.1-0.2-0.2-0.5-0.2-0.7c0-0.3,0.1-0.6,0.3-0.9c0.2-0.3,0.4-0.5,0.8-0.6c0.3-0.1,0.7-0.2,1.2-0.2c0.5,0,0.9,0.1,1.3,0.3
		c0.4,0.2,0.6,0.4,0.8,0.7c0.2,0.3,0.2,0.6,0.2,0.8c0,0,0,0.1,0,0.1L83,13.4c0-0.2,0-0.3,0-0.4c-0.1-0.2-0.1-0.3-0.3-0.4
		c-0.1-0.1-0.3-0.2-0.5-0.3c-0.2-0.1-0.4-0.1-0.7-0.1c-0.5,0-0.8,0.1-1.1,0.3c-0.2,0.2-0.3,0.4-0.3,0.6c0,0.2,0,0.3,0.1,0.4
		c0.1,0.1,0.2,0.2,0.4,0.4c0.1,0.1,0.5,0.2,1.1,0.5c0.5,0.2,0.8,0.4,0.9,0.5c0.2,0.2,0.4,0.3,0.5,0.6c0.1,0.2,0.2,0.5,0.2,0.7
		c0,0.3-0.1,0.7-0.3,0.9c-0.2,0.3-0.5,0.5-0.9,0.7C81.9,17.9,81.5,18,81,18c-0.7,0-1.3-0.2-1.7-0.5C78.8,17.2,78.6,16.6,78.6,15.8z
		 M73.5,14.4h1.2c0.5,0,0.9,0,1,0c0.3,0,0.6-0.1,0.8-0.2c0.2-0.1,0.4-0.3,0.5-0.5c0.1-0.2,0.2-0.4,0.2-0.6c0-0.2,0-0.3-0.1-0.5
		c-0.1-0.1-0.2-0.2-0.3-0.3c-0.1,0-0.4-0.1-0.7-0.1h-2.1L73.5,14.4z M71.9,17.9l1.3-6.3h2.6c0.5,0,0.9,0,1.2,0.1
		c0.3,0.1,0.5,0.3,0.6,0.5c0.2,0.2,0.2,0.5,0.2,0.9c0,0.5-0.2,0.9-0.5,1.3c-0.3,0.3-0.9,0.6-1.6,0.7c0.2,0.2,0.4,0.3,0.5,0.5
		c0.3,0.4,0.5,0.8,0.6,1.1l0.5,1.2h-0.9L76,16.7c-0.2-0.4-0.3-0.8-0.6-1.1c-0.1-0.2-0.3-0.4-0.4-0.4c-0.1-0.1-0.4-0.1-0.7-0.1h-1
		l-0.6,2.8H71.9z M65.9,17.9l1.3-6.3h4.5l-0.2,0.7h-3.7l-0.4,2h3.6L71,15h-3.6l-0.5,2.2h4l-0.1,0.7H65.9z M61.9,17.9l-1.2-6.3h0.8
		l0.7,3.7c0.1,0.7,0.2,1.2,0.3,1.6c0.3-0.5,0.5-1,0.6-1.3l2.2-4.1h0.9l-3.4,6.3H61.9z M57.5,17.9l1.3-6.3h0.8l-1.3,6.3H57.5z
		 M51,17.9l1.3-6.3h0.8l1.1,2.4c0.3,0.7,0.6,1.3,0.8,1.8c0.1,0.3,0.2,0.7,0.4,1.2c0.1-0.5,0.2-1.1,0.3-1.6l0.8-3.7h0.8l-1.3,6.3
		h-0.8l-1.6-3.6c-0.3-0.6-0.5-1.2-0.6-1.7c0,0.4-0.1,0.9-0.2,1.5l-0.8,3.8H51z M45.9,11.6h0.8l-0.8,3.9c-0.1,0.3-0.1,0.6-0.1,0.7
		c0,0.3,0.1,0.6,0.4,0.8c0.3,0.2,0.6,0.3,1,0.3c0.3,0,0.6-0.1,0.9-0.2c0.3-0.1,0.5-0.4,0.7-0.6c0.2-0.3,0.3-0.7,0.4-1.4l0.7-3.5h0.8
		L50,15.3c-0.1,0.6-0.3,1.1-0.5,1.5c-0.2,0.4-0.5,0.7-0.9,0.9c-0.4,0.2-0.8,0.3-1.3,0.3c-0.5,0-0.9-0.1-1.2-0.2
		c-0.3-0.2-0.6-0.4-0.8-0.7c-0.2-0.3-0.3-0.6-0.3-0.9c0-0.2,0.1-0.6,0.2-1.1L45.9,11.6z M83.1,20.3h0.5c0,0.2,0.1,0.4,0.2,0.5
		c0.1,0.1,0.3,0.1,0.5,0.1c0.2,0,0.4-0.1,0.5-0.2c0.2-0.1,0.3-0.3,0.3-0.4h0.5c-0.1,0.3-0.3,0.6-0.5,0.8c-0.3,0.2-0.6,0.3-0.9,0.3
		c-0.3,0-0.6-0.1-0.8-0.3C83.2,20.9,83.1,20.6,83.1,20.3 M82.3,25.9h2.1l-0.2-1.6C84,23.7,84,23.2,84,22.7c-0.1,0.4-0.4,0.8-0.6,1.3
		L82.3,25.9z M80,28.3l3.6-6.3h1l1,6.3h-0.8l-0.3-1.8h-2.5l-1,1.8H80z M76.7,28.3l1.2-5.6h-2.1L76,22h4.9l-0.1,0.7h-2l-1.2,5.6H76.7
		z M70.4,24.9h1.2c0.5,0,0.9,0,1,0c0.3,0,0.6-0.1,0.8-0.2c0.2-0.1,0.4-0.3,0.5-0.5C74,24,74,23.8,74,23.6c0-0.2,0-0.3-0.1-0.5
		c-0.1-0.1-0.2-0.2-0.3-0.3c-0.1-0.1-0.4-0.1-0.7-0.1h-2.1L70.4,24.9z M68.8,28.3l1.3-6.3h2.6c0.5,0,0.9,0,1.2,0.1
		c0.3,0.1,0.5,0.3,0.6,0.5c0.2,0.2,0.2,0.5,0.2,0.9c0,0.5-0.2,0.9-0.5,1.3c-0.3,0.3-0.9,0.6-1.6,0.7c0.2,0.2,0.4,0.3,0.5,0.5
		c0.3,0.4,0.5,0.8,0.6,1.1l0.5,1.2h-0.9L73,27.2c-0.2-0.4-0.3-0.8-0.6-1.1c-0.1-0.2-0.3-0.4-0.4-0.4c-0.1-0.1-0.4-0.1-0.7-0.1h-1
		l-0.6,2.8H68.8z M64.6,25.9h2.1l-0.2-1.6c-0.1-0.6-0.2-1.1-0.2-1.6c-0.1,0.4-0.4,0.8-0.6,1.3L64.6,25.9z M62.3,28.3l3.6-6.3h1
		l1,6.3h-0.8l-0.3-1.8h-2.5l-1,1.8H62.3z M54.8,28.3l1.3-6.3h4.5l-0.2,0.7h-3.7l-0.4,2H60l-0.1,0.7h-3.6l-0.5,2.2h4l-0.1,0.7H54.8z
		 M49.3,27.6h1c0.4,0,0.8,0,1.2-0.1c0.2-0.1,0.4-0.1,0.6-0.2c0.2-0.1,0.4-0.3,0.6-0.5c0.2-0.3,0.4-0.6,0.5-1
		c0.1-0.4,0.2-0.8,0.2-1.2c0-0.5-0.1-0.9-0.3-1.2c-0.2-0.3-0.4-0.5-0.7-0.5c-0.2-0.1-0.5-0.1-0.9-0.1h-1.1L49.3,27.6z M48.3,28.3
		l1.3-6.3h1.9c0.5,0,0.8,0,1,0.1c0.3,0.1,0.6,0.2,0.9,0.5c0.2,0.2,0.4,0.5,0.5,0.9c0.1,0.3,0.2,0.7,0.2,1.1c0,0.5-0.1,1-0.2,1.4
		c-0.2,0.4-0.4,0.8-0.6,1.1c-0.2,0.3-0.5,0.6-0.8,0.7c-0.3,0.2-0.6,0.3-1,0.4c-0.3,0.1-0.6,0.1-1,0.1H48.3z M92.4,38.8l1.3-6.3h0.8
		l1.1,2.4c0.3,0.7,0.6,1.3,0.8,1.8c0.1,0.3,0.2,0.7,0.4,1.2c0.1-0.5,0.2-1.1,0.3-1.6l0.8-3.7h0.8l-1.3,6.3h-0.8l-1.6-3.6
		c-0.3-0.6-0.5-1.2-0.6-1.7c0,0.4-0.1,0.9-0.2,1.5l-0.8,3.8H92.4z M88.6,36.3l0.2-0.7h2.8L91,38.2c-0.3,0.2-0.7,0.4-1.2,0.5
		c-0.4,0.1-0.9,0.2-1.3,0.2c-0.9,0-1.6-0.3-2-0.8c-0.4-0.5-0.6-1.1-0.6-1.8c0-0.8,0.2-1.4,0.5-2.1c0.3-0.6,0.8-1.1,1.3-1.4
		c0.5-0.3,1.1-0.4,1.7-0.4c0.4,0,0.8,0.1,1.2,0.2c0.4,0.2,0.6,0.4,0.8,0.6c0.2,0.3,0.3,0.6,0.4,1.1l-0.8,0.1c-0.1-0.4-0.3-0.8-0.6-1
		c-0.3-0.2-0.6-0.3-1.1-0.3c-0.5,0-0.9,0.1-1.3,0.4c-0.4,0.2-0.7,0.6-0.9,1.1c-0.2,0.5-0.4,1.1-0.4,1.7c0,0.6,0.2,1.1,0.5,1.4
		c0.3,0.3,0.7,0.5,1.3,0.5c0.5,0,1.1-0.2,1.8-0.5l0.3-1.3H88.6z M83,38.8l1.3-6.3h0.8l-1.3,6.3H83z M77.1,36.8l0.8-0.1l0,0.2
		c0,0.2,0.1,0.5,0.2,0.7c0.1,0.2,0.3,0.4,0.6,0.5c0.3,0.1,0.6,0.2,0.9,0.2c0.5,0,0.9-0.1,1.2-0.3c0.3-0.2,0.4-0.5,0.4-0.8
		c0-0.2-0.1-0.4-0.2-0.5c-0.1-0.2-0.5-0.4-1.2-0.7c-0.5-0.2-0.8-0.4-1-0.5c-0.3-0.2-0.5-0.4-0.6-0.6c-0.1-0.2-0.2-0.5-0.2-0.7
		c0-0.3,0.1-0.6,0.3-0.9c0.2-0.3,0.4-0.5,0.8-0.6c0.3-0.1,0.7-0.2,1.2-0.2c0.5,0,0.9,0.1,1.3,0.3c0.4,0.2,0.6,0.4,0.8,0.7
		c0.2,0.3,0.2,0.6,0.2,0.8c0,0,0,0.1,0,0.1l-0.8,0.1c0-0.2,0-0.3,0-0.4c-0.1-0.2-0.1-0.3-0.3-0.4c-0.1-0.1-0.3-0.2-0.5-0.3
		c-0.2-0.1-0.4-0.1-0.7-0.1c-0.5,0-0.8,0.1-1.1,0.3c-0.2,0.2-0.3,0.4-0.3,0.6c0,0.2,0,0.3,0.1,0.4c0.1,0.1,0.2,0.2,0.4,0.4
		c0.1,0.1,0.5,0.2,1.1,0.5c0.5,0.2,0.8,0.4,0.9,0.5c0.2,0.2,0.4,0.3,0.5,0.6c0.1,0.2,0.2,0.5,0.2,0.7c0,0.3-0.1,0.7-0.3,0.9
		c-0.2,0.3-0.5,0.5-0.9,0.7c-0.4,0.2-0.8,0.2-1.3,0.2c-0.7,0-1.3-0.2-1.7-0.5C77.4,38.1,77.1,37.6,77.1,36.8z M70.9,38.8l1.3-6.3
		h4.5l-0.2,0.7H73l-0.4,2h3.6L76,35.9h-3.6l-0.5,2.2h4l-0.1,0.7H70.9z M65.5,38.1h1c0.4,0,0.8,0,1.2-0.1c0.2-0.1,0.4-0.1,0.6-0.2
		c0.2-0.1,0.4-0.3,0.6-0.5c0.2-0.3,0.4-0.6,0.5-1c0.1-0.4,0.2-0.8,0.2-1.2c0-0.5-0.1-0.9-0.3-1.2c-0.2-0.3-0.4-0.5-0.7-0.5
		c-0.2-0.1-0.5-0.1-0.9-0.1h-1.1L65.5,38.1z M64.5,38.8l1.3-6.3h1.9c0.5,0,0.8,0,1,0.1c0.3,0.1,0.6,0.2,0.9,0.5
		c0.2,0.2,0.4,0.5,0.5,0.9c0.1,0.3,0.2,0.7,0.2,1.1c0,0.5-0.1,1-0.2,1.4c-0.2,0.4-0.4,0.8-0.6,1.1c-0.2,0.3-0.5,0.6-0.8,0.7
		c-0.3,0.2-0.6,0.3-1,0.4c-0.3,0.1-0.6,0.1-1,0.1H64.5z M59.6,38.8l1.3-6.3h0.8l-1.3,6.3H59.6z M55.3,39.5l0.2-0.7h0.6L56,39.2
		c0.3,0,0.4,0.1,0.6,0.3c0.1,0.1,0.2,0.3,0.2,0.5c0,0.2-0.1,0.4-0.3,0.5c-0.3,0.2-0.7,0.3-1.2,0.3c-0.3,0-0.5,0-0.7-0.1l0.1-0.5
		c0.2,0,0.4,0,0.6,0c0.3,0,0.5,0,0.6-0.1c0.1-0.1,0.1-0.1,0.1-0.2c0-0.1,0-0.2-0.1-0.2C55.7,39.5,55.6,39.5,55.3,39.5z M53.8,36.8
		l0.8-0.1l0,0.2c0,0.2,0.1,0.5,0.2,0.7c0.1,0.2,0.3,0.4,0.6,0.5c0.3,0.1,0.6,0.2,0.9,0.2c0.5,0,0.9-0.1,1.2-0.3
		c0.3-0.2,0.4-0.5,0.4-0.8c0-0.2-0.1-0.4-0.2-0.5c-0.1-0.2-0.5-0.4-1.2-0.7c-0.5-0.2-0.8-0.4-1-0.5c-0.3-0.2-0.5-0.4-0.6-0.6
		c-0.1-0.2-0.2-0.5-0.2-0.7c0-0.3,0.1-0.6,0.3-0.9c0.2-0.3,0.4-0.5,0.8-0.6c0.3-0.1,0.7-0.2,1.2-0.2c0.5,0,0.9,0.1,1.3,0.3
		c0.4,0.2,0.6,0.4,0.8,0.7c0.2,0.3,0.2,0.6,0.2,0.8c0,0,0,0.1,0,0.1l-0.8,0.1c0-0.2,0-0.3,0-0.4c-0.1-0.2-0.1-0.3-0.3-0.4
		c-0.1-0.1-0.3-0.2-0.5-0.3c-0.2-0.1-0.4-0.1-0.7-0.1c-0.5,0-0.8,0.1-1.1,0.3c-0.2,0.2-0.3,0.4-0.3,0.6c0,0.2,0,0.3,0.1,0.4
		c0.1,0.1,0.2,0.2,0.4,0.4c0.1,0.1,0.5,0.2,1.1,0.5c0.5,0.2,0.8,0.4,0.9,0.5c0.2,0.2,0.4,0.3,0.5,0.6c0.1,0.2,0.2,0.5,0.2,0.7
		c0,0.3-0.1,0.7-0.3,0.9c-0.2,0.3-0.5,0.5-0.9,0.7c-0.4,0.2-0.8,0.2-1.3,0.2c-0.7,0-1.3-0.2-1.7-0.5C54,38.1,53.8,37.6,53.8,36.8z
		 M117.5,46.8h2.1l-0.2-1.6c-0.1-0.6-0.2-1.1-0.2-1.6c-0.1,0.4-0.4,0.8-0.6,1.3L117.5,46.8z M115.2,49.3l3.6-6.3h1l1,6.3H120
		l-0.3-1.8h-2.5l-1,1.8H115.2z M114.2,47.1l0.8,0.1c-0.3,0.7-0.6,1.3-1.2,1.6c-0.5,0.4-1.1,0.6-1.7,0.6c-0.8,0-1.4-0.2-1.8-0.7
		c-0.4-0.5-0.7-1.1-0.7-2c0-1.1,0.3-2.1,1-2.8c0.6-0.7,1.4-1,2.3-1c0.7,0,1.2,0.2,1.6,0.5c0.4,0.4,0.7,0.8,0.7,1.4l-0.8,0.1
		c-0.1-0.5-0.3-0.8-0.5-1c-0.3-0.2-0.6-0.3-1-0.3c-0.8,0-1.4,0.3-1.9,1c-0.4,0.6-0.6,1.3-0.6,2.1c0,0.6,0.2,1.1,0.5,1.5
		c0.3,0.3,0.7,0.5,1.2,0.5c0.4,0,0.8-0.1,1.2-0.4C113.8,48,114.1,47.6,114.2,47.1z M103.6,46.7c0,0.4,0.1,0.7,0.2,1
		c0.2,0.3,0.4,0.6,0.7,0.7c0.3,0.2,0.6,0.3,1,0.3c0.3,0,0.6-0.1,0.9-0.2c0.3-0.2,0.6-0.4,0.8-0.6c0.2-0.3,0.4-0.6,0.5-1
		c0.1-0.4,0.2-0.8,0.2-1.2c0-0.6-0.2-1.1-0.5-1.5c-0.4-0.4-0.8-0.6-1.3-0.6c-0.7,0-1.2,0.3-1.7,0.8C103.9,45,103.6,45.8,103.6,46.7z
		 M102.8,46.7c0-1.1,0.3-2,1-2.7c0.6-0.7,1.4-1,2.4-1c0.8,0,1.4,0.3,1.9,0.8c0.5,0.5,0.7,1.2,0.7,2.1c0,0.6-0.1,1.2-0.4,1.7
		c-0.2,0.4-0.4,0.7-0.7,1c-0.3,0.3-0.6,0.5-0.9,0.7c-0.4,0.2-0.9,0.3-1.4,0.3c-0.5,0-1-0.1-1.4-0.4c-0.4-0.2-0.7-0.6-0.9-1
		C102.9,47.6,102.8,47.1,102.8,46.7z M97.9,46h1.4c0.5,0,0.9-0.1,1.2-0.2c0.3-0.1,0.5-0.3,0.6-0.5c0.2-0.2,0.2-0.5,0.2-0.8
		c0-0.2,0-0.4-0.1-0.5c-0.1-0.1-0.2-0.2-0.3-0.3c-0.1-0.1-0.4-0.1-0.8-0.1h-1.6L97.9,46z M96.4,49.3l1.3-6.3h2.6
		c0.5,0,0.8,0.1,1,0.2c0.2,0.1,0.4,0.3,0.6,0.5c0.1,0.3,0.2,0.5,0.2,0.9c0,0.3-0.1,0.5-0.2,0.8c-0.1,0.3-0.2,0.5-0.4,0.7
		c-0.2,0.2-0.3,0.3-0.5,0.4c-0.2,0.1-0.3,0.2-0.5,0.2c-0.4,0.1-0.8,0.1-1.2,0.1h-1.6l-0.5,2.6H96.4z M92.2,46.8h2.1L94,45.3
		c-0.1-0.6-0.2-1.1-0.2-1.6c-0.1,0.4-0.4,0.8-0.6,1.3L92.2,46.8z M89.9,49.3l3.6-6.3h1l1,6.3h-0.8l-0.3-1.8h-2.5l-1,1.8H89.9z
		 M84.1,49.3l1.3-6.3h0.8l1.1,2.4c0.3,0.7,0.6,1.3,0.8,1.8c0.1,0.3,0.2,0.7,0.4,1.2c0.1-0.5,0.2-1.1,0.3-1.6l0.8-3.7h0.8L89,49.3
		h-0.8l-1.6-3.6c-0.3-0.6-0.5-1.2-0.6-1.7c0,0.4-0.1,0.9-0.2,1.5l-0.8,3.8H84.1z M81,47.4l0.2-0.8h2.4l-0.2,0.8H81z M76.5,47.5
		l0.8-0.1c0,0.2-0.1,0.4-0.1,0.5c0,0.2,0.1,0.4,0.2,0.6c0.1,0.1,0.3,0.2,0.6,0.2c0.2,0,0.3,0,0.5-0.1c0.1-0.1,0.3-0.2,0.3-0.4
		c0.1-0.1,0.1-0.4,0.2-0.7L80,43h0.8l-1,4.6c-0.1,0.6-0.4,1.1-0.7,1.4c-0.3,0.3-0.7,0.4-1.2,0.4c-0.5,0-0.9-0.1-1.2-0.4
		c-0.3-0.2-0.4-0.6-0.4-1C76.4,47.8,76.4,47.6,76.5,47.5z M71.4,43h0.8l-0.8,3.9c-0.1,0.3-0.1,0.6-0.1,0.7c0,0.3,0.1,0.6,0.4,0.8
		c0.3,0.2,0.6,0.3,1,0.3c0.3,0,0.6-0.1,0.9-0.2c0.3-0.1,0.5-0.4,0.7-0.6c0.2-0.3,0.3-0.7,0.4-1.4l0.7-3.5h0.8l-0.8,3.7
		c-0.1,0.6-0.3,1.1-0.5,1.5c-0.2,0.4-0.5,0.7-0.9,0.9c-0.4,0.2-0.8,0.3-1.3,0.3c-0.5,0-0.9-0.1-1.2-0.2c-0.3-0.2-0.6-0.4-0.8-0.7
		c-0.2-0.3-0.3-0.6-0.3-0.9c0-0.2,0.1-0.6,0.2-1.1L71.4,43z M65,49.3l1.3-6.3h0.8L66,48.6h3.3l-0.1,0.7H65z M63.5,47.1l0.8,0.1
		c-0.3,0.7-0.6,1.3-1.2,1.6c-0.5,0.4-1.1,0.6-1.7,0.6c-0.8,0-1.4-0.2-1.8-0.7c-0.4-0.5-0.7-1.1-0.7-2c0-1.1,0.3-2.1,1-2.8
		c0.6-0.7,1.4-1,2.3-1c0.7,0,1.2,0.2,1.6,0.5c0.4,0.4,0.7,0.8,0.7,1.4L63.8,45c-0.1-0.5-0.3-0.8-0.5-1c-0.3-0.2-0.6-0.3-1-0.3
		c-0.8,0-1.4,0.3-1.9,1c-0.4,0.6-0.6,1.3-0.6,2.1c0,0.6,0.2,1.1,0.5,1.5c0.3,0.3,0.7,0.5,1.2,0.5c0.4,0,0.8-0.1,1.2-0.4
		C63.1,48,63.4,47.6,63.5,47.1z"/>
	<path fill-rule="evenodd" clip-rule="evenodd" d="M141.6,6.7c6.6,0,8.8,8.8,8.8,16.7c0,2.3-3.7,8.4-9.3,8.4
		c-4.9,0-8.3-4.9-8.3-11.6C132.8,12.9,136.3,6.7,141.6,6.7 M166.8,40.8c-7,0-8.9-10.7-8.9-17.3c0-9.8,3.8-16.8,9.1-16.8
		c6.1,0,8.8,6.9,8.8,16.8C175.8,32.9,173.2,40.8,166.8,40.8z M150.3,27.2c-1.6,13-6.9,18.8-12.5,20.1c-1.6,0.3-2.9,0.5-3.9,0.4v1.6
		c9.7,0.5,18.2-9.7,18.2-26.3c0-12-4.6-17.7-10.1-17.7c-6.7,0-10.9,6.9-10.9,15c0,6.4,3.3,12.9,9.8,12.9
		C144.7,33.1,147.9,31,150.3,27.2L150.3,27.2z M150.1,41.9h14.3c-6.9-1.8-8.3-12.8-8.3-18c0-13.4,5.7-18.7,11.1-18.7
		c5.7,0,10.4,5.1,10.4,17.9c0,11.5-3.4,17.4-8.8,18.7h7.4v7.4h-33.8C145.2,48,148.3,45.2,150.1,41.9z"/>
	<path fill="#FFFFFF" d="M156.9,47.9l0.3-1.7h1.2l-0.1,0.3h-0.9l-0.1,0.4h0.9l-0.1,0.3h-0.9l-0.1,0.4h1l-0.1,0.3H156.9z M155.6,47.6
		h0.2c0.1,0,0.2,0,0.3,0c0.1,0,0.1,0,0.2-0.1c0.1-0.1,0.1-0.1,0.2-0.2c0-0.1,0.1-0.2,0.1-0.4c0-0.1,0-0.2-0.1-0.3
		c0-0.1-0.1-0.1-0.1-0.1c0,0-0.1,0-0.2,0h-0.2L155.6,47.6z M155.2,47.9l0.3-1.7h0.4c0.1,0,0.2,0,0.2,0c0.1,0,0.1,0,0.2,0
		c0.1,0,0.1,0.1,0.1,0.1c0,0,0.1,0.1,0.1,0.1c0,0.1,0.1,0.1,0.1,0.2c0,0.1,0,0.1,0,0.2c0,0.2,0,0.3-0.1,0.5
		c-0.1,0.1-0.2,0.2-0.3,0.3c-0.1,0.1-0.2,0.1-0.3,0.1c-0.1,0-0.2,0-0.3,0H155.2z M169,47.9l0.9-4.5h0.6l-0.9,4.5H169z M164.4,47.9
		l0.9-4.5h0.6l0.7,1.7c0.2,0.5,0.4,0.9,0.5,1.3c0.1,0.2,0.2,0.5,0.3,0.8c0.1-0.4,0.1-0.8,0.2-1.2l0.5-2.6h0.6l-0.9,4.5h-0.6
		l-1.1-2.6c-0.2-0.5-0.4-0.9-0.5-1.3c0,0.3-0.1,0.7-0.2,1.1l-0.6,2.7H164.4z M161.4,46.1h1.5l-0.2-1.1c-0.1-0.4-0.1-0.8-0.1-1.1
		c-0.1,0.3-0.3,0.6-0.5,0.9L161.4,46.1z M159.8,47.9l2.5-4.5h0.7l0.7,4.5h-0.6l-0.2-1.3h-1.8l-0.7,1.3H159.8z"/>
</g>
</svg>
