<!-- Generator: Adobe Illustrator 19.2.1, SVG Export Plug-In  -->
<svg version="1.1"
	 xmlns="http://www.w3.org/2000/svg" xmlns:xlink="http://www.w3.org/1999/xlink" xmlns:a="http://ns.adobe.com/AdobeSVGViewerExtensions/3.0/"
	 x="0px" y="0px" width="276.5px" height="296.6px" viewBox="0 0 276.5 296.6" enable-background="new 0 0 276.5 296.6"
	 xml:space="preserve">
<defs>
</defs>
<path fill="#868789" d="M225.3,112L225.3,112c7.3-10.5,12.7-21,15.7-30.7c2.6-8.6,3.9-20,3.3-28.9c-1.9-27.3-26.4-42.8-66.9-49.7
	c56.4-13.6,104,25.3,73.6,93.9c-18.8,43.8-66.8,84.2-110.7,109.1C84.4,171.6,42.7,132.6,26.1,84.9C5.9,22.1,51.6-9.2,106.3,2.7
	c-47.8,6.7-72.2,25-68.5,57.4c1.6,26.2,13.7,51,34.7,74.5v0c0,0,0,0.1-0.1,0.1c0,0,0,0,0.1-0.1c0.3,0.3,0.5,0.6,0.8,0.9
	c-0.3-0.3-0.5-0.6-0.8-0.9c1.1-1.3,2.5-2.5,4.1-3.7l0.2-2.6v-24.9c-3.8-3.1-2.4-5.1-0.2-7C75.8,84.6,82.7,75.9,94,68.8
	c0-1.5,2.7-2.7,4-4c-1.1-1.7-1-3.1,0.2-4l-0.2-13c-1.1-1.7,0.3-2,0.5-3c-0.9-2.2,1-5.4,3.9-9c0.1-1.2,0.4-3.7,0.8,0.1
	c2.5,2.7,4.1,5.6,4.1,8.5c0.6,1.4,0.6,2.8,0,3.9v12.4c1.3,0.9,1.7,2.2,1.1,3.7c2.2,1.1,3.7,2.3,4,3.7c10.8,7.8,17.3,17.2,18.1,28.6
	c2.2,2.3,2,3.9-0.2,6.2v24.3l0.2,3.6c3.9,2.6,5.6,5.7,6,9.1l-1.1,0.1v9l3.7-0.2c2.8-1.8,5.6-3.2,8.2-4.2c0.2-0.1,0.4-0.1,0.5-0.2
	c-0.2,0.1-0.3,0.1-0.5,0.2l10.4-23l0.1-7.1h-0.7l0.2-0.6h2v-1.1l-0.9-0.3V111h1l0.3-3.4l1.4-0.1l0.2,3.1h1.2l0.7-22.4l1.5-0.1
	L164.1,64h0.8v-9.9l-0.1-2.8h-1.3l2.9-4l7.8-32.1c0.5-2.7,0.3-2.4,0.9,0L185,47l3.1,4.5l-1.4,0l0,12.1l1.2,0.1l0.8,24.1l1.2,0.2
	l0.4,9.2l1,0.1v13.4l1.5-0.1l0.2-2.6h1.4c0,0.1-0.7,2.6,0.3,2.7c7.3,0.3,31.4-0.3,31.4-0.3s-0.8,1.8-0.9,1.9
	C225.2,112.2,225.3,112.1,225.3,112 M110.5,266.2c-0.4,0.1-0.8,0.3-1.2,0.3c-0.6-0.2-1-0.6-1.6-0.7c-0.8-0.1-1.6,0.1-2.4-0.1
	c-0.8-0.2-1.6-0.2-2.4-0.2H29.3c-1.2,0-2.3,0-3.5,0c0,0-0.1-0.1-0.2-0.1h0.2h78.4c0.4,0,0.8-0.1,1.2-0.2c0.8-0.2,1.7,0,2.5-0.2
	c0.5-0.1,0.9-0.6,1.5-0.7c1,0.1,1.9,0.6,3,0.4c0.2-0.2,0.1-0.5,0.1-0.8c0-0.7-0.4-1.4-0.7-2c0.3-0.4,0.8-0.8,0.9-1.4
	c0.1-0.5,0.1-1.1,0.1-1.6h0.2c0,0.5,0,1,0,1.5c0.1,0.6,0.5,1,0.8,1.5c-0.2,0.4-0.3,0.9-0.5,1.3l0,0.1c-0.2,0.5-0.3,1-0.2,1.5
	c2.2,0.1,4.4,0,6.6,0.1c6.4,0,12.9,0,19.3,0c0.5,0.1,0.9-0.4,1.3-0.5c0.3,0,0.6,0,0.9-0.1c0.1,0.4,0.2,0.8,0.5,1.1
	c0.2,0,0.4,0.1,0.6-0.1c0.2-0.3,0.2-0.6,0.5-0.9c0.4-0.1,0.8-0.1,1.2-0.2c0.2,0.1,0.3,0.3,0.4,0.4c0.2,0.2,0.5,0.2,0.7,0.2
	c7.7,0,15.5,0,23.2,0c0.9,0,1.7,0.1,2.6-0.1c0-1-0.4-1.9-0.9-2.8c0.3-0.4,0.6-0.7,0.8-1.2c0.2-0.6,0-1.3,0.2-1.9
	c0.1,0.7,0,1.3,0.1,2c0.1,0.4,0.5,0.8,0.8,1.1c-0.1,0.4-0.4,0.9-0.5,1.3c-0.1,0.5-0.1,1-0.1,1.5c0.9,0.1,1.9-0.2,2.8-0.4
	c0.7-0.2,1.1,0.4,1.7,0.6c1,0.3,2.1-0.1,3.1,0.3l0,0.2c13,0,25.9,0,38.9,0c12.9,0,25.8,0,38.6,0c-0.1,0.1-0.3,0.1-0.5,0.1h-76.7
	c-0.2,0-0.4,0.1-0.5,0.3c-1,0.1-2.1-0.1-3,0.2c-0.5,0.2-0.9,0.7-1.5,0.5c-0.9-0.2-1.8-0.5-2.7-0.5c-0.1,0.9,0.3,1.8,0.8,2.6
	c-0.2,0.4-0.7,0.7-0.8,1.1c-0.2,0.7-0.1,1.5-0.3,2.2l-0.1-0.1c-0.1-0.1-0.3-0.2-0.3-0.4c-0.1-0.5,0-1.1-0.1-1.6
	c-0.1-0.5-0.6-0.8-0.8-1.3c0.3-0.5,0.5-1,0.9-1.6l0,0c0.1-0.3,0.3-0.7,0.2-1c-0.2-0.3-0.5-0.2-0.8-0.3c-8.4,0-16.9,0-25.3,0
	c-0.2,0-0.3,0.1-0.4,0.1l-0.1,0.1c-0.4,0.3-0.9,0.5-1.4,0.3c-0.3-0.3-0.4-0.6-0.6-0.9c-0.2,0-0.4,0-0.5,0c-0.2,0.3-0.3,0.7-0.6,0.9
	c-0.5,0.2-1.1,0-1.5-0.3l-0.1,0c-0.1-0.1-0.3-0.1-0.5-0.1c-7.8,0-15.6,0-23.5,0c-0.8,0-1.6-0.1-2.4,0.1l-0.1,0c0,0.6,0,1.1,0.3,1.7
	c0.1,0.4,0.4,0.7,0.5,1.1c-0.1,0.3-0.2,0.6-0.3,0.8c-0.1,0.2-0.1,0.3-0.2,0.5l0,0c-0.1,0.1-0.3,0.2-0.2,0.4c0,0.4,0,0.8,0,1.3h-0.2
	c0-0.5,0-1-0.1-1.5c-0.1-0.6-0.5-1-0.8-1.5c0.4-0.9,0.9-1.8,0.6-2.8C111.8,266,111.1,266,110.5,266.2 M177.2,265.8
	c-0.2,0-0.5,0-0.7,0C176.7,265.8,177,265.8,177.2,265.8 M174.4,266.4c-0.4,0.2-0.8,0-1.1-0.1C173.6,266.4,174,266.6,174.4,266.4
	 M171.6,266c-0.2,0-0.4,0-0.6,0C171.2,266,171.4,266,171.6,266 M117.6,259.5c-0.2-0.7-1.2-0.7-1.5-0.1c-0.5,0.8-0.2,1.8,0.3,2.5
	c0.9,1.1,2.2,1.5,3.4,2l0.1,0c0.8,0,1.6,0.2,2.4,0.2H135c1.2,0,2.5,0.1,3.6-0.5c0.6-0.3,0.8-1.1,0.6-1.7c-0.2-0.5-0.9-0.5-1.3-0.2
	c-0.2,0.4-0.1,0.8-0.2,1.2c-0.3,0.2-0.7,0.3-1.1,0.3c-4.3,0-8.7,0-13,0c-1.4-0.1-2.8-0.3-4.2-0.8c-0.8-0.3-1.6-0.6-2.2-1.3
	C117.4,260.6,117.8,260.1,117.6,259.5 M145.7,261.8c-0.2-0.3-0.7-0.3-1-0.2c-0.5,0.2-0.4,1-0.3,1.4c0.4,0.8,1.4,0.9,2.2,1
	c1.3,0.1,2.6,0,3.9,0c3.8,0,7.5,0,11.3,0c1.6-0.2,3.2-0.5,4.5-1.5c0.6-0.5,1.3-1.1,1.4-1.9c0.1-0.6,0-1.3-0.6-1.6
	c-0.4-0.2-1.1-0.1-1.2,0.4c-0.3,0.6,0.2,1.1,0.4,1.6c-1,1.1-2.5,1.4-3.9,1.7c-1,0.1-2,0.4-3.1,0.3c-4.1,0-8.3,0-12.5,0
	c-0.4,0-0.8-0.1-1.1-0.3C145.7,262.5,145.8,262.1,145.7,261.8 M139.1,269.1c0.3-0.6,0.1-1.5-0.5-1.8c-0.8-0.4-1.6-0.4-2.4-0.5
	c-4,0-7.9,0-11.9,0c-1,0-2,0-3,0.1c-1.4,0.2-2.8,0.6-4,1.3c-0.6,0.4-1.2,1-1.4,1.8c-0.1,0.5-0.1,1.1,0.2,1.5
	c0.4,0.4,1.1,0.5,1.5,0.1c0.2-0.6-0.1-1.2-0.4-1.7c0,0,0.1-0.1,0.2-0.2l0.1-0.1c0.2-0.3,0.5-0.5,0.8-0.7c1.2-0.6,2.5-0.8,3.9-1
	c1.2-0.2,2.4-0.1,3.6-0.1c3.6,0,7.2,0,10.8,0c0.4,0,0.8,0,1.1,0.2c0.1,0.4,0,0.9,0.2,1.3C138.2,269.5,138.8,269.5,139.1,269.1
	 M165.7,271.3c0.1,0.6,1,0.8,1.5,0.4c0.5-0.4,0.6-1.2,0.3-1.7c-0.3-1.1-1.3-1.7-2.3-2.1c-1.3-0.5-2.7-0.9-4.2-0.9
	c-3.5,0-7.1,0-10.6,0c-1.7,0-3.3-0.1-5,0.1l-0.1,0c-0.3,0.3-0.8,0.5-1,0.9c-0.1,0.4-0.1,0.9,0,1.3c0.3,0.4,1,0.4,1.3,0
	c0.1-0.4,0-0.8,0.1-1.2c0.3-0.2,0.7-0.2,0.9-0.2c4.4,0,8.8,0,13.1,0c0.6,0,1.1,0.1,1.6,0.2c0.1,0,0.2,0,0.2,0.1
	c0.9-0.1,1.8,0.2,2.7,0.5c0.7,0.3,1.4,0.6,1.9,1.2C166.1,270.3,165.6,270.7,165.7,271.3 M122.8,246.8c0,2.7,0.4,4.5,1.2,5.5
	c1,1.2,2.7,1.8,5.2,1.8c2.4,0,4-0.6,4.8-1.8c0.3-0.5,0.5-1.1,0.7-1.8c0.1-0.7,0.2-2,0.2-3.6v-9.2l2.5-2h-6.1l2.2,2l-0.1,9.2
	c0,2.4-0.2,4-0.7,4.7c-0.6,0.9-1.6,1.3-3.2,1.3c-1.4,0-2.4-0.3-3-0.9c-0.6-0.6-0.9-1.6-0.9-3l0-2.2v-9.3l1.9-1.9h-6.7l1.9,1.7V246.8
	z M177.6,237.7c-0.3,0.5-0.5,1.5-0.5,2.8v14.1h-2.9l0.2,0.4h3.1v-14.7c0-1.1,0.1-1.9,0.4-2.3c0.3-0.5,0.8-0.8,1.5-0.9l0.3-0.4
	C178.6,236.8,177.9,237.2,177.6,237.7 M154.3,246.3l0.3,0.4h7.6l-0.8-2l-0.4-0.3l0.7,2H154.3z M120.9,253.7l-0.4,0.9h-15.1l0.4,0.4
	h14.9l0.6-1.3l-0.1-0.1c-0.9-1.2-1.6-2.5-2.3-3.9l-0.1-0.3l-0.5-0.2l0.1,0.2C119,251,119.8,252.5,120.9,253.7 M126.4,248.3
	c0,1.3,0.1,2.2,0.5,2.9c0.3,0.6,0.8,1.1,1.6,1.4l0-0.1c-0.6-0.5-1-0.9-1.2-1.3l-0.4-1.8l0-1v-10.6l1.4-1.4L128,236l-1.6,1.6V248.3z
	 M137.5,249.3c0.4,0.1,0.7,0.1,0.8,0.2c0.1,0.1,0.3,0.3,0.4,0.6l0.2,0.5c0.8,2.3,2.8,3.5,5.8,3.5c1.6,0,3-0.4,4.1-1.2
	c1.1-0.8,1.7-1.8,1.8-3c-0.5-0.3-0.7-0.7-0.7-1.5v-0.5v-10.6l1.9-1.9H145l1.9,1.7v11.8c0,2.7-0.9,4.1-2.6,4.1
	c-0.9,0-1.6-0.4-2.1-1.1c-0.5-0.8-0.8-1.8-0.8-3.1c0-1,0.1-1.9,0.2-2.8L137.5,249.3z M144.7,252.8h0.2c-1.4-0.7-2.1-1.9-2.1-3.8
	c0-0.5,0.1-1.3,0.3-2.3l0-0.2h-0.4c-0.2,0.9-0.3,1.8-0.3,2.8C142.4,251.2,143.2,252.3,144.7,252.8 M105,253.9h14.9
	c-0.9-0.9-1.9-2.7-2.7-5.3c-0.3,1.5-0.8,2.6-1.5,3.3c-0.8,0.7-1.9,1-3.4,1c-0.4,0-0.8,0-1.2-0.1v-14.9l1.4-1.4l-0.2-0.3l-1.5,1.5
	v15.1h-0.1l-0.5,0h-0.1v-15.2l2-2H105l2,1.8v14.9L105,253.9z M135.5,247.1c0,2.7-0.2,4.5-0.7,5.4c-0.8,1.7-2.6,2.5-5.2,2.5
	c-1.8,0-3.3-0.3-4.5-1l-0.5-0.3l-0.1-0.1c1.2,1.2,2.9,1.7,5.3,1.7c2.7,0,4.5-0.9,5.5-2.7c0.4-0.9,0.7-2.8,0.7-5.7v-8.8l1.9-1.6
	l-0.2-0.3l-2.1,1.7V247.1z M96.2,254.3c2.8,0,4.6-1,5.5-3.1c0.4-1,0.6-1.9,0.6-2.9c0-0.6-0.2-0.9-0.6-0.9c-0.3,0-0.4,0.2-0.5,0.6
	c-0.1,1.7-0.6,2.9-1.4,3.8c-0.8,0.9-1.9,1.3-3.2,1.3c-1.7,0-3-0.8-3.9-2.3c-0.9-1.5-1.4-3.6-1.4-6.3c0-3.1,0.5-5.3,1.5-6.7
	c0.8-1.1,1.8-1.6,3-1.6c1.1,0,2.1,0.4,2.9,1.3c0.8,0.8,1.3,2,1.5,3.4l0.2,0.1l0.1-0.3c0.6-1.5,1.4-3,2.2-4.5l0.1-0.3l-0.2-0.1
	c-0.4,0.3-0.8,0.4-1.3,0.4c-0.5,0-1.1-0.1-1.8-0.4c-1.3-0.5-2.6-0.8-3.6-0.8c-2.2,0-4.1,0.9-5.6,2.8c-1.5,1.8-2.3,4.1-2.3,6.9
	c0,2.9,0.7,5.3,2.2,7C91.8,253.5,93.7,254.3,96.2,254.3 M101.2,241.3l-0.2,0.4l0.4,0.2c0.6-1.4,1.4-3.1,2.5-4.8l0.2-0.3l-0.3-0.2
	l-0.1,0.3l-1.1,2C102.1,239.4,101.6,240.3,101.2,241.3 M150.5,248.1c0,0.7,0,1.2,0.1,1.5c0.1,0.2,0.4,0.5,0.8,0.9
	c-0.3,1.3-1.1,2.4-2.4,3.3c-1.3,0.9-2.8,1.3-4.4,1.3c-0.9,0-1.7-0.1-2.3-0.3c-0.6-0.2-1.3-0.6-2-1.1v0.1c1.1,1.1,2.7,1.6,4.6,1.6
	c2.5,0,4.4-0.8,5.8-2.6c0.7-0.8,1.1-1.7,1.2-2.5c-0.4-0.3-0.7-0.5-0.8-0.8l-0.2-0.9v-0.6v-10.4l1.4-1.4l-0.2-0.3l-1.6,1.6V248.1z
	 M160.8,245.7l-0.6-1.7h-7.1l0.6,1.7H160.8z M252.4,251.3c-0.3,0.7-0.7,1.4-1.3,2c-1.2,1.2-2.7,1.8-4.6,1.8c-1.7,0-3.2-0.4-4.4-1.2
	v0.1c1.4,1,2.8,1.5,4.4,1.5c2.1,0,3.7-0.6,4.9-1.8c1.2-1.2,1.8-3,2-5.4l-0.4-0.2l0,0.3C252.9,249.6,252.7,250.6,252.4,251.3
	 M235.2,239.8c0.7,1.6,1,3.4,1,5.5c0,2.8-0.8,5.1-2.3,6.9c-1.5,1.8-3.5,2.7-5.9,2.7c-1.8,0-3.2-0.4-4.4-1.3v0.1
	c1.4,1.1,2.9,1.6,4.5,1.6c2.5,0,4.6-0.9,6.1-2.8c1.6-1.9,2.3-4.3,2.3-7.4c0-2.1-0.4-3.9-1.2-5.5c-0.8-1.6-1.9-2.7-3.2-3.4v0.1
	C233.5,237,234.5,238.2,235.2,239.8 M246.3,237.4c0.8,0,1.6,0.3,2.5,1v-0.2c-0.8-0.8-1.6-1.2-2.5-1.2c-2.7,0-4,2.5-4,7.4
	c0,2.3,0.3,4.2,1,5.7c0.7,1.5,1.6,2.4,2.7,2.6v-0.1c-1-0.4-1.8-1.3-2.4-2.8c-0.6-1.4-0.9-3.2-0.9-5.3
	C242.6,239.8,243.8,237.4,246.3,237.4 M246.1,254.3c2.8,0,4.6-1,5.5-3.1c0.4-1,0.6-1.9,0.6-2.9c0-0.6-0.2-0.9-0.5-0.9
	c-0.3,0-0.4,0.2-0.5,0.6c-0.1,1.7-0.6,2.9-1.4,3.8c-0.8,0.9-1.9,1.3-3.2,1.3c-1.7,0-3-0.8-3.9-2.3c-0.9-1.5-1.4-3.6-1.4-6.3
	c0-3.1,0.5-5.3,1.5-6.7c0.8-1.1,1.8-1.6,3-1.6c1.1,0,2.1,0.4,2.9,1.3c0.8,0.8,1.3,2,1.5,3.4l0.2,0.1l0.1-0.3c0.6-1.5,1.4-3,2.2-4.5
	l0.1-0.3l-0.2-0.1c-0.4,0.3-0.9,0.4-1.3,0.4c-0.5,0-1.1-0.1-1.8-0.4c-1.4-0.5-2.6-0.8-3.6-0.8c-2.2,0-4.1,0.9-5.6,2.8
	c-1.5,1.8-2.3,4.1-2.3,6.9c0,2.9,0.7,5.3,2.2,7C241.7,253.5,243.6,254.3,246.1,254.3 M273.3,245.7c-0.6-0.1-1.2-0.1-1.7-0.1
	c-0.4,0-0.8,0-1.1,0.1l2.5,6.7l2.6,2.3H268l0.3,0.4h8.3l-3.2-2.8l-2.4-6.3c0.1,0,0.2,0,0.3,0c0.2,0,0.6,0,1.1,0.1l1.1,0.1
	c0,0,0.2,0,0.4,0c-0.8-1.5-1.4-2.7-1.6-3.5l-0.4-0.3c0.2,0.9,0.6,1.9,1.2,3L273.3,245.7z M251.1,241.3l-0.2,0.4l0.4,0.2
	c0.6-1.4,1.4-3.1,2.5-4.8l0.2-0.3l-0.3-0.2l-0.1,0.3l-1.1,2C252,239.4,251.5,240.3,251.1,241.3 M261.2,253.6
	c0.1,0.1,0.1,0.1,0.3,0.3h-7.1c1.4-0.7,2.4-1.6,3.2-2.8c0.8-1.2,1.6-3,2.4-5.5l0.1-0.2c-0.5-0.4-1.2-0.7-2.2-0.8
	c0.5-0.8,0.9-1.6,1.2-2.5c0.1,0.1,0.2,0.2,0.2,0.2l0.7,0.6c0.2,0.2,0.5,0.4,0.8,0.6l0.3-0.6l-0.2-0.1c-0.5-0.4-0.9-0.8-1.2-1
	l-0.1-0.1l0.2-0.3c0.5,0.3,1,0.7,1.5,1.2l1.9-5.3l-1.5-1.6h6.6l-1.5,1.7l2.3,6.2l0.6-0.3l-2.1-5.6l1.5-1.7l0.4,0.2l-1.4,1.7l2,5.3
	c0.1-0.1,0.2-0.1,0.2-0.2l0.5-0.4c0.3-0.2,0.5-0.4,0.5-0.5c0.3,1.1,0.6,2.1,1.1,2.9c-0.3,0-0.5,0-0.6,0c-0.9,0-1.6,0.1-2,0.4l2.6,7
	l2.1,1.6h-7.2l2-1.6l-1.6-4.2c-1,1.1-1.9,2-2.4,3l-0.3-0.1c0.6-0.9,1.4-2,2.5-3.1l0.1-0.1l-0.3-0.6c-1.1,0.9-2.1,2-2.8,3.3l-0.3-0.4
	c-0.5-0.8-1.1-1.7-1.9-2.7l-0.1-0.2c-0.7,1.6-1.1,2.9-1.1,4c0,0.6,0.1,1.1,0.3,1.5c0.2,0.4,0.7,1.1,1.5,2.1c0.1,0.1,0.2,0.2,0.3,0.4
	h-7.7l-0.3-0.4h7.2l-0.2-0.3c-0.6-0.8-1-1.3-1.2-1.8c-0.2-0.4-0.3-0.9-0.3-1.5c0-1,0.4-2.4,1.2-4.3l-0.6-0.7
	c-0.1,0.3-0.3,0.7-0.5,1.3l-0.5,1.5c-0.3,0.8-0.4,1.4-0.4,2c0,0.5,0.1,1,0.3,1.3C260.2,252.5,260.6,253,261.2,253.6 M264.6,240.1
	l-1.6,4.1c0.1,0.1,0.1,0.2,0.1,0.2l0.6,0.7c0.3,0.3,0.7,0.9,1.2,1.6l0.1,0.2c0.4-0.5,0.9-1,1.5-1.5L264.6,240.1z M261.7,244.5
	c0.7,0.8,1.3,1.5,1.9,2.2l0.6,0.9c0,0,0.1,0.1,0.1,0.2c0.1-0.1,0.1-0.1,0.1-0.2l0.2-0.2c0,0,0.1-0.1,0.2-0.2c-0.7-1-1.4-1.9-2.3-2.8
	l1.8-4.8l-0.4-1.1L261.7,244.5z M218.5,240.9c0,1.8-0.6,3.1-1.8,4c-1.2,0.9-3,1.3-5.5,1.3c-0.9,0-1.8,0-2.6-0.1v6.4l1.8,2.1h-6.7
	l0.4,0.4h7.1l-2.2-2.7v-5.9c0.3,0,0.7,0,1.2,0c2.9,0,5-0.4,6.2-1c1.6-0.9,2.4-2.4,2.4-4.4c0-0.9-0.2-1.7-0.5-2.4
	c-0.4-0.7-0.8-1.2-1.4-1.5c0.6,0.7,1,1.3,1.3,1.9C218.4,239.5,218.5,240.2,218.5,240.9 M204.6,245.3c-1,0-1.8,0.3-2.4,0.7l-0.1-0.2
	c0.6-1.1,1.5-1.6,2.8-1.6h0.2v-7l-1.7-1.7h6.4c2.7,0,4.6,0.4,5.8,1.1c1.5,0.9,2.2,2.3,2.2,3.9c0,1-0.3,1.9-0.8,2.7
	c-0.6,0.7-1.3,1.3-2.4,1.6c-1,0.3-2.6,0.5-4.8,0.5h-1.7v6.9l1.7,1.6H203l2-1.7v-5.7c-0.1,0-0.2,0-0.2,0c-0.7,0-1.3,0.1-2,0.4
	l-0.1-0.3c0.6-0.4,1.2-0.5,1.7-0.5h0.5l0.1,0v-0.7C204.8,245.4,204.6,245.3,204.6,245.3 M207.9,244.2h0.2l0.4,0c0,0,0.1,0,0.2,0
	v-6.3h1.6c1.2,0,2.1,0.1,2.6,0.3c0.5,0.2,0.9,0.7,1.3,1.3c-0.4-0.5-0.8-0.8-1.3-1c-0.5-0.2-1.3-0.3-2.2-0.3H209v6
	c1.9,0,3.2-0.3,4.1-0.8c0.9-0.6,1.3-1.4,1.3-2.6c0-1.3-0.4-2.3-1.2-2.9c-0.8-0.6-2.1-0.9-3.8-0.9c-0.4,0-1,0-1.6,0.1V244.2z
	 M198.7,245.7c-0.6-0.1-1.2-0.1-1.7-0.1c-0.4,0-0.8,0-1.1,0.1l2.5,6.7l2.6,2.3h-7.6l0.3,0.4h8.2l-3.2-2.8l-2.4-6.3
	c0.2,0,0.3,0,0.3,0c0.2,0,0.6,0,1.1,0.1l1.2,0.1c0,0,0.2,0,0.4,0c-0.8-1.5-1.3-2.7-1.6-3.5l-0.4-0.3c0.2,0.9,0.6,1.9,1.2,3
	L198.7,245.7z M186.7,253.6c0.1,0.1,0.1,0.1,0.3,0.3h-7.1c1.3-0.7,2.4-1.6,3.2-2.8c0.8-1.2,1.6-3,2.4-5.5l0-0.2
	c-0.5-0.4-1.2-0.7-2.2-0.8c0.5-0.8,0.9-1.6,1.2-2.5c0.1,0.1,0.2,0.2,0.2,0.2l0.6,0.6c0.2,0.2,0.5,0.4,0.8,0.6l0.3-0.6l-0.2-0.1
	c-0.5-0.4-0.9-0.8-1.2-1l-0.1-0.1l0.2-0.3c0.5,0.3,1,0.7,1.5,1.2l1.9-5.3l-1.5-1.6h6.6l-1.5,1.7l2.3,6.2l0.6-0.3l-2.1-5.6l1.5-1.7
	l0.4,0.2l-1.4,1.7l2,5.3c0.1-0.1,0.2-0.1,0.2-0.2l0.5-0.4c0.3-0.2,0.5-0.4,0.5-0.5c0.2,1.1,0.6,2.1,1.1,2.9c-0.3,0-0.5,0-0.6,0
	c-0.9,0-1.6,0.1-2,0.4l2.6,7l2.1,1.6h-7.2l2-1.6L193,248c-1.1,1.1-1.9,2-2.4,3l-0.3-0.1c0.6-0.9,1.4-2,2.5-3.1l0.1-0.1l-0.3-0.6
	c-1.1,0.9-2.1,2-2.8,3.3l-0.3-0.4c-0.5-0.8-1.1-1.7-1.9-2.7l-0.1-0.2c-0.7,1.6-1.1,2.9-1.1,4c0,0.6,0.1,1.1,0.3,1.5
	c0.2,0.4,0.7,1.1,1.5,2.1c0.1,0.1,0.2,0.2,0.3,0.4h-7.7l-0.3-0.4h7.2l-0.2-0.3c-0.6-0.8-1.1-1.3-1.2-1.8c-0.2-0.4-0.3-0.9-0.3-1.5
	c0-1,0.4-2.4,1.2-4.3l-0.6-0.7c-0.1,0.3-0.3,0.7-0.5,1.3l-0.5,1.5c-0.3,0.8-0.4,1.4-0.4,2c0,0.5,0.1,1,0.3,1.3
	C185.7,252.5,186.1,253,186.7,253.6 M190,240.1l-1.6,4.1c0.1,0.1,0.1,0.2,0.1,0.2l0.6,0.7c0.3,0.3,0.7,0.9,1.2,1.6l0.1,0.2
	c0.4-0.5,0.9-1,1.5-1.5L190,240.1z M187.1,244.5c0.7,0.8,1.3,1.5,1.9,2.2l0.7,0.9c0,0,0.1,0.1,0.1,0.2c0.1-0.1,0.1-0.1,0.1-0.2
	l0.2-0.2c0,0,0.1-0.1,0.2-0.2c-0.7-1-1.5-1.9-2.3-2.8l1.8-4.8l-0.4-1.1L187.1,244.5z M226.4,252.5l0.1-0.1c-1.6-1.2-2.3-3.5-2.3-7.1
	c0-4.9,1.2-7.4,3.7-7.4c0.8,0,1.6,0.3,2.5,0.8l0.3,0.1c-0.6-0.8-1.5-1.3-2.8-1.3c-2.8,0-4.2,2.6-4.2,7.9c0,1.9,0.2,3.4,0.6,4.5
	C224.8,250.9,225.5,251.8,226.4,252.5 M164.8,248.6c0,1.7-0.2,2.9-0.6,3.6c-0.4,0.7-1.2,1.3-2.3,1.7h6.6l0.7,0.8h-7.1l0.2,0.4h7.7
	l-1.2-1.3c-1.3-0.4-2.1-1-2.4-1.8c-0.4-0.8-0.5-2.5-0.5-5.1v-8.2l0.8,1.5v7.8v1.3c0,2.4,0.7,3.8,2,4.2l-0.1-0.1
	c-0.7-0.5-1.1-1.2-1.3-2.1l-0.2-2l0-0.6v-7.7l6.7,13.1h2.4v-12.6v-0.9c0-1.5,0.2-2.5,0.7-3.3c0.3-0.5,1-1,2.1-1.5h-6.5
	c1.1,0.5,1.7,1.1,2,1.6c0.3,0.6,0.4,1.7,0.4,3.3v0.8v6.7l-5.4-10.6l1.8-1.2l-0.3-0.3l-2,1.4l5.9,11.5v1.7l-6.9-13.5l2-1.3h-7.2
	l1.9,1.6V248.6z M222.9,252.4c-2.1-1.7-3.1-4.2-3.1-7.6c0-2.9,0.7-5.1,2.1-6.8c1.4-1.7,3.3-2.5,5.8-2.5c2.3,0,4.1,0.9,5.5,2.6
	c1.4,1.8,2.1,4.1,2.1,7c0,2.8-0.7,5-2,6.6c-1.4,1.6-3.2,2.5-5.5,2.5C226,254.1,224.3,253.5,222.9,252.4 M227.7,236.6
	c-3.2,0-4.8,2.8-4.8,8.5c0,5.2,1.6,7.8,4.8,7.8c1.5,0,2.6-0.7,3.4-2.1c0.8-1.4,1.2-3.4,1.2-6.1c0-3-0.4-5.1-1.1-6.3
	C230.3,237.2,229.1,236.6,227.7,236.6 M102.5,251.3c-0.3,0.7-0.7,1.4-1.3,2c-1.2,1.2-2.7,1.8-4.6,1.8c-1.7,0-3.2-0.4-4.4-1.2v0.1
	c1.4,1,2.8,1.5,4.4,1.5c2.1,0,3.7-0.6,4.9-1.8c1.2-1.2,1.8-3,2-5.4l-0.4-0.2l0,0.3C103,249.6,102.8,250.6,102.5,251.3 M35.4,252.5
	l1.9,2.1h-6.9l0.4,0.4h7.4l-2.4-2.7v-14.5l1.4-1.4l-0.2-0.3l-1.6,1.6V252.5z M38,253.6c0.6-0.4,1.2-0.5,1.8-0.5c0.4,0,1,0.1,1.7,0.2
	l1.7,0.4c1.3,0.3,2.6,0.5,3.6,0.5c1.7,0,3.2-0.5,4.4-1.6c1.2-1.1,1.8-2.4,1.8-3.9c0-2.8-1.7-4.6-5.1-5.4l-2.4-0.6
	c-2.4-0.6-3.6-1.7-3.6-3.3c0-0.8,0.3-1.5,1-2.1c0.7-0.6,1.5-0.9,2.5-0.9c1.1,0,2.1,0.4,2.9,1.2c0.3,0.3,0.6,0.6,0.8,0.9
	c0.2,0.3,0.4,0.9,0.7,1.8c0,0.1,0,0.1,0.1,0.3l0.1-0.1c0.2-0.3,0.6-1.2,1.1-2.6c0.3-0.7,0.7-1.4,1.2-2.1l-0.1-0.1
	c-0.5,0.3-1.1,0.5-1.5,0.5c-0.3,0-0.8-0.1-1.5-0.3c-1.5-0.4-2.8-0.6-3.9-0.6c-1.7,0-3.1,0.5-4.2,1.4c-1.1,0.9-1.6,2.1-1.6,3.6
	c0,1.5,0.4,2.6,1.2,3.4c0.8,0.8,2.1,1.4,3.9,1.7c2.3,0.5,3.9,1,4.6,1.5c1,0.8,1.6,1.7,1.6,2.8c0,1-0.4,1.8-1.1,2.4
	c-0.8,0.6-1.8,0.9-3,0.9c-1.6,0-2.9-0.4-3.9-1.2c-1-0.8-1.6-2-1.8-3.5l-0.3-0.1c-0.5,1.6-1.3,3.3-2.5,5.1L38,253.6z M45.5,237.5
	c1.2,0,2.3,0.6,3.3,1.7l0.1,0c-0.3-0.6-0.7-1.1-1.3-1.5c-0.6-0.3-1.3-0.5-2.1-0.5c-0.9,0-1.6,0.2-2.1,0.7c-0.5,0.5-0.8,1.1-0.8,1.8
	c0,1.1,0.6,1.9,1.9,2.4l0.1-0.1l-0.1-0.1c-0.9-0.7-1.4-1.5-1.4-2.2c0-0.7,0.3-1.2,0.7-1.6C44.2,237.7,44.7,237.5,45.5,237.5
	 M41.6,249c0.4,1.9,1.4,3.2,3.2,3.7v-0.1c-1.5-0.7-2.5-1.9-2.8-3.6L41.6,249z M31.8,237.3v14.9l-2,1.6h6.6l-1.8-1.5v-14.8l1.9-1.9
	h-6.8L31.8,237.3z M17.9,252.3l-1.9,1.6h6.6l-1.7-1.5l4.1-10.9c1.1-2.9,2-5,2.8-6.4c0.8-1.4,1.8-2.7,3-3.9l-0.2-0.2
	c-1.4,1.1-3.5,1.9-6.2,2.4l-0.3,0.1c0.7,0.7,1.1,1.5,1.1,2.5c0,1-0.4,2.6-1.3,5l-3,8.1l-4-11.3l1.3-1.2l-0.3-0.3l-1.5,1.4l4.2,11.9
	l-0.6,1.3l-4.7-13.4l2-2h-7.1l2.2,1.9L17.9,252.3z M28.9,235c-0.9,1.5-1.7,3.1-2.4,4.8l-0.8,2l-4.1,10.7l1.8,2.1h-6.8l0.3,0.4h7.3
	l-2.2-2.6l4-10.5c1.9-5,3.8-8.3,5.6-9.7l-0.1-0.3C30.7,232.6,29.8,233.6,28.9,235 M48.4,247.8c0.5,0.2,1,0.6,1.4,1.1l0.1,0
	c-0.2-0.6-0.6-1-1.1-1.3c-0.5-0.3-1.6-0.6-3.1-1l-2.3-0.6c-1.5-0.4-2.4-0.8-2.8-1.4l-0.5-0.3c0.1,0.6,0.6,1.1,1.2,1.4
	c0.7,0.3,2.1,0.8,4.1,1.2C47,247.3,48,247.6,48.4,247.8 M76.8,238.7c-0.2-0.4-0.5-0.7-0.9-0.9c-0.4-0.1-1-0.2-2-0.2l-0.8,0v14.8
	l1.9,2.2h-6.8l0.3,0.4h7.3l-2.3-2.7L73.6,238c0.2,0,0.5,0,0.7,0C75.2,238,76.1,238.2,76.8,238.7 M78.2,240.5l0.3,0.3l0.1-0.1
	c0.7-1.9,1.4-3.3,2.1-4.2l-0.3-0.3l-0.1,0.1c-0.7,0.8-1.3,2.1-2,4.1L78.2,240.5z M52.1,244.8L52.1,244.8c1,1.2,1.5,2.4,1.5,3.9
	c0,1.7-0.7,3.2-2,4.4c-1.3,1.2-3,1.8-4.8,1.8c-1,0-1.9-0.1-2.8-0.3l-2.2-0.5c-0.7-0.2-1.4-0.3-2-0.3c-0.5,0-1,0.1-1.5,0.3l0.2,0.4
	c0.5-0.2,0.9-0.3,1.5-0.3c0.6,0,1.2,0.1,1.7,0.2L44,255c0.8,0.2,1.8,0.3,2.8,0.3c2,0,3.7-0.6,5.1-1.9c1.4-1.2,2.1-2.8,2.1-4.6
	C54,247.1,53.4,245.8,52.1,244.8 M96.4,237.4c0.8,0,1.6,0.3,2.4,1v-0.2c-0.8-0.8-1.6-1.2-2.5-1.2c-2.7,0-4.1,2.5-4.1,7.4
	c0,2.3,0.3,4.2,1,5.7c0.7,1.5,1.6,2.4,2.7,2.6v-0.1c-1-0.4-1.8-1.3-2.4-2.8c-0.6-1.4-0.9-3.2-0.9-5.3
	C92.7,239.8,93.9,237.4,96.4,237.4 M64.5,240.1h0.2c0.1-1.2,0.4-2,0.9-2.5c0.5-0.5,1.4-0.8,2.7-0.8c0.4,0,0.9,0,1.4,0.1v0.7h-0.2
	l-0.9,0c-1.1,0-1.9,0.2-2.3,0.7c-0.5,0.4-0.8,1.2-0.9,2.3h0.4c0.1-1,0.3-1.6,0.7-2c0.4-0.4,1.1-0.6,2.1-0.6h1v14.2l-2,1.7h6.5
	l-1.7-1.6v-15.5h0.2c0.4,0,0.9-0.1,1.3-0.1c1.1,0,1.8,0.2,2.3,0.6c0.5,0.4,0.9,1.2,1.2,2.3l0,0.2l0.1,0.1l0-0.1
	c0.3-0.9,0.6-1.7,0.9-2.3l1-1.7c0,0,0.1-0.2,0.2-0.3H62.6l0.1,0.1C63.5,237.3,64.1,238.8,64.5,240.1 M60.5,252.5l1.9,2.1h-6.9
	l0.4,0.4h7.4l-2.4-2.7v-14.5l1.5-1.4l-0.2-0.3l-1.6,1.6V252.5z M50.4,240.6l-0.1,0.1l0.3,0.1l0.1-0.1c0.1-0.2,0.5-0.9,1.1-2.3
	c0.3-0.6,0.6-1.2,1-1.9l0.1-0.2l-0.4-0.2l-0.1,0.1l-1,1.9C51.1,239.1,50.7,240,50.4,240.6 M54.9,253.9h6.6l-1.8-1.5v-14.8l1.9-1.9
	h-6.8l2,1.8v14.9L54.9,253.9z M170.6,287.2c0.1,0,0.1,0.1,0.1,0.2c0,1.7-2.5,4.3-4.2,4.3c-1.3,0-2.1-0.8-2.1-2.5
	c0-0.6,0-1.4,0.1-1.9c-1.8,2.9-3.5,4.4-5.1,4.5h-0.3c-1.9,0-2.6-1.4-2.6-3.4c0.1-4.6,3.7-9.8,7.5-9.8c0.9,0,1.7,0.2,2.3,0.7
	c0.4-0.4,0.9-0.6,1.5-0.6c0.7,0,1.4,0.2,2.1,0.6c-0.9,1.3-2.3,7.2-2.3,9c0,0.5,0.2,0.8,0.3,1c0.3-0.1,0.7-0.4,1.2-0.8
	C169.9,287.6,170.4,287.2,170.6,287.2 M163,287.1c1.2-1.8,2.3-3.9,2.8-5.3c-0.3-1-1.2-1.4-1.9-1.4c-1.9,0-3.8,4.6-3.8,7.7
	c0.1,0.8,0.3,1.2,0.8,1.2C161.3,289.3,162,288.5,163,287.1 M192.6,286.7c0-1.7-1-2.9-2.1-4.1c-0.4-0.5-0.6-0.9-0.6-1.4
	c0-0.9,0.4-1.5,1.4-1.5c0.4,0,0.9,0.2,1.4,0.7c0.7-0.5,0.9-0.9,0.9-1.4c-0.1-0.5-0.5-0.7-1.3-0.7c-2.7,0-5.8,1.3-5.8,4.4
	c0,0.9,0.3,1.8,1,2.6c0.9,1,1.9,1.8,1.9,2.9c0,1.3-0.7,1.9-1.8,1.9c-1.3-0.1-2.2-1.2-2.8-2.5c0-0.1,0-0.1,0-0.2c0-0.1,0-0.2-0.1-0.2
	c-0.3,0-0.7,0.4-1.4,1.2c-0.4,0.5-0.9,0.8-1.2,0.8c-0.1-0.2-0.2-0.6-0.2-1c0-0.9,0.4-2.1,0.7-3.3c0.5-1.9,0.8-3.5,0.8-4.6
	c0-1-0.7-1.7-1.8-1.7c-2,0-4.6,2.8-6.1,5.5c0.5-1.9,0.9-3.3,0.9-4.3c0-0.8-0.7-1.1-1.3-1.1c-0.6,0-1.4,0.2-2.5,0.7
	c0.2,0.4,0.3,0.9,0.3,1.6c0,1.3-0.4,3.5-1.3,6.6c-0.4,1.3-0.9,2.7-1.4,4c0.8,0.1,1.4,0.2,1.9,0.2c1.2,0,1.6-0.4,2-1.3
	c1.1-2.8,1.5-3.7,2.6-5.6c1.1-1.8,2.3-3.3,2.9-3.3c0.2,0,0.3,0.1,0.3,0.5c0,0.4-0.3,2.1-0.9,4.8c-0.2,1.1-0.5,1.9-0.5,2.7
	c0,1.5,0.9,2.2,2.1,2.2c1,0,2.4-0.9,3.2-2.1c0.5,1.3,2,2.1,3.4,2.1C190,291.7,192.6,289.5,192.6,286.7 M214,274.6
	c0.1,0.1,0.2,0.2,0.2,0.4c0,0,0.1,0.3,0.1,0.9c0,0.2,0,0.5,0,0.8c-0.1,1-0.6,2.2-1.1,3.4c-0.8,1.9-2,3.5-2.4,4.1l0,0.1
	c0,0.2-0.1,0.4-0.2,0.7c-0.2,0.8-0.6,2.7-0.6,3.3c0,0.5,0.1,0.8,0.2,1c0.6,0,1.3-0.3,1.8-0.6c1.1-0.8,1.9-1.5,2.1-1.5
	c0.2,0,0,0.4-0.7,1.6c-1.1,1.7-3.4,2.9-4.6,2.9c-1.3,0-2.1-0.7-2.1-2.2c0-0.5,0.1-1.1,0.2-2c0-0.2,0.1-0.4,0.1-0.6
	c-0.9,0.6-1.2,0.8-1.3,0.8c-0.1,0,0.5-0.5,1.2-1.1c0,0,0-0.1,0.2-0.2c0.9-3.7,1.9-7.6,3-11.3c0.1-0.3,0.4-0.8,0.8-1
	c0.4-0.3,0.8-0.3,1.2-0.3C212.6,273.9,213.3,274.1,214,274.6 M213.7,276.5c0-0.3,0.1-0.7,0-0.9c0-0.2-0.3-0.3-0.4-0.1
	c-0.1,0.1-0.1,0.3-0.2,0.4c-0.4,1.1-0.8,2.1-1.1,3.2c-0.4,1.2-0.7,2.4-1,3.6c0.5-0.8,1.2-1.8,1.7-3
	C213.2,278.6,213.6,277.4,213.7,276.5 M204.2,278.5c-0.2,0-0.6,0-0.9,0.1c0.3,0.3,0.5,1.1,0.5,1.5c0,1.7-1.7,4.9-4,8.3
	c-0.2-2.4-0.5-5.3-0.8-7.7c-0.2-1.3-0.8-2-1.7-2c-0.8,0-1.7,0.3-2.7,0.9c0.8,0.7,1.7,4,2.4,9.4c0,0.4,0.1,0.8,0.1,1.2
	c0,0.5,0,0.9-0.2,1.1c-1.1,1.6-2.5,2.8-4,2.8c-0.4,0-1-0.2-1.2-0.4c-0.2,0.5-0.4,1.1-0.4,1.5c0,0.1,0,0.2,0,0.3
	c0.1,0.8,0.8,1.1,1.8,1.1c1.7,0,3.9-1.2,7.3-5.9c3.8-5,6.3-9.1,6.3-10.6C206.6,279,205.9,278.5,204.2,278.5 M223.9,278.1
	c-0.2,0-0.6,0-0.9,0.1c0.3,0.3,0.5,1.1,0.5,1.5c0,0.9-0.4,2.3-1.3,4c-0.8,1.5-1.8,3.1-3.2,4.9c0-0.5,0-1.1,0-1.6
	c0-2-0.1-4.5-0.3-6.2c-0.1-1.5-0.7-2.2-1.7-2.2c-0.8,0-1.7,0.3-2.7,0.9c0.5,0.4,0.8,1.4,1.1,3.3c0.5,2.8,0.8,6,0.7,7.7
	c0,0.4,0,0.9,0,1.2c0.2,0,0.3,0,0.5,0c2.7,0,4.8-2.7,7.2-6.5c1.7-2.6,2.5-4.5,2.5-5.5C226.4,278.5,225.6,278.1,223.9,278.1
	 M274.8,287.2c0.1,0,0.1,0.1,0.1,0.2c0,1.7-2.5,4.3-4.2,4.3c-1.3,0-2.1-0.8-2.1-2.5c0-0.6,0-1.4,0.1-1.9c-1.8,2.9-3.5,4.4-5.1,4.5
	h-0.3c-1.9,0-2.6-1.4-2.6-3.4c0.1-4.6,3.7-9.8,7.5-9.8c0.9,0,1.7,0.2,2.3,0.7c0.4-0.4,0.9-0.6,1.5-0.6c0.7,0,1.4,0.2,2.1,0.6
	c-0.9,1.3-2.3,7.2-2.3,9c0,0.5,0.1,0.8,0.2,1c0.3-0.1,0.7-0.4,1.2-0.8C274,287.6,274.5,287.2,274.8,287.2 M267.1,287.1
	c1.2-1.8,2.3-3.9,2.8-5.3c-0.3-1-1.2-1.4-1.9-1.4c-1.9,0-3.8,4.6-3.8,7.7c0,0.8,0.3,1.2,0.8,1.2
	C265.5,289.3,266.2,288.5,267.1,287.1 M258,277.5c1.4-0.3,1.4-0.3,2.4-1.9c0.6-1,0.8-1.4,0.9-1.8c0-0.1,0-0.2,0-0.3
	c0-0.4-0.4-0.6-1.1-0.6c-1.1,0-2.3,0.2-3.2,0.6c0.1,0.1,0.1,0.2,0.1,0.3c0,0.9-0.4,2.3-0.4,3C256.7,277.2,257,277.7,258,277.5
	 M259.1,288.4c-0.5,0.5-0.9,0.8-1.2,0.8c-0.1-0.2-0.3-0.6-0.3-1c0-0.7,0.2-2,0.4-2.9c0.1-0.7,0.6-2.2,0.9-3.5
	c0.1-0.4,0.2-0.8,0.3-1.2c0.1-0.5,0-0.9-0.3-1.2c-0.3-0.3-0.8-0.4-1.2-0.4c-0.7,0-1.5,0.2-2.4,0.5c0.3,0.4,0.4,0.7,0.4,1.2
	c0,0.4,0,0.8-0.1,1.3c-0.2,0.9-0.4,2.3-0.8,3.7c-0.5,1.8-0.5,3.3-0.5,3.8c0.1,1.5,0.9,2.2,2.1,2.2c1.2,0,3.2-1.5,3.8-3
	c0.3-0.6,0.4-1,0.4-1.3C260.7,286.9,260.1,287.2,259.1,288.4 M253.9,287.2c-0.3,0-0.7,0.4-1.4,1.2c-0.5,0.5-1,0.8-1.2,0.8
	c-0.1-0.2-0.2-0.5-0.2-1c0-0.9,0.4-2.1,0.7-3.2c0.4-1.9,0.8-3.6,0.8-4.6c0-1-0.7-1.7-1.8-1.7c-2,0-4.6,2.8-6.1,5.5
	c0.5-1.9,0.9-3.3,0.9-4.3c0-0.8-0.7-1.1-1.3-1.1c-0.6,0-1.5,0.2-2.5,0.7c0.2,0.4,0.3,0.9,0.3,1.5c0,1.3-0.3,3.5-1.3,6.6
	c-0.4,1.3-0.9,2.7-1.4,4c0.8,0.1,1.4,0.2,1.9,0.2c1.2,0,1.6-0.4,2-1.3c1.1-2.8,1.5-3.7,2.6-5.6c1.1-1.8,2.3-3.3,2.9-3.3
	c0.2,0,0.3,0.1,0.3,0.5c0,0.4-0.3,2.1-0.9,4.8c-0.3,1.1-0.5,1.9-0.5,2.7c0,1.5,0.9,2.2,2.1,2.2c1.7,0,4.2-2.6,4.2-4.3
	C254,287.2,254,287.2,253.9,287.2 M239.9,287.2c0.1,0,0.1,0.1,0.1,0.2c0,1.7-2.5,4.3-4.2,4.3c-1.3,0-2.1-0.8-2.1-2.5
	c0-0.6,0.1-1.4,0.1-1.9c-1.8,2.9-3.5,4.4-5.1,4.5h-0.3c-1.9,0-2.6-1.4-2.6-3.4c0.1-4.6,3.7-9.8,7.5-9.8c0.9,0,1.7,0.2,2.3,0.7
	c0.4-0.4,0.9-0.6,1.5-0.6c0.7,0,1.4,0.2,2.1,0.6c-0.9,1.3-2.3,7.2-2.3,9c0,0.5,0.2,0.8,0.3,1c0.3-0.1,0.7-0.4,1.2-0.8
	C239.2,287.6,239.7,287.2,239.9,287.2 M232.3,287.1c1.2-1.8,2.3-3.9,2.8-5.3c-0.3-1-1.2-1.4-1.9-1.4c-1.9,0-3.8,4.6-3.8,7.7
	c0.1,0.8,0.3,1.2,0.8,1.2C230.7,289.3,231.4,288.5,232.3,287.1 M63.2,285.9c-0.8,0.3-2.3,0.9-2.3,1.6c0,0.6,0.1,1.1,0.3,1.4
	c0.5,0.8,1.4,1.2,2.3,1.1c1.7-0.2,3-0.9,4.2-2.1c0.3,0.6,0.3,1.3-0.1,1.9c-0.4,0.5-1,0.9-1.8,1.3c-1.2,0.6-2.4,0.8-3.8,0.8
	c-2.8,0-4.4-1.2-4.5-3.7c-0.1-2.5,0.7-4.9,2.4-6.6c1.6-1.9,3.6-2.9,5.8-2.9c2,0,2.9,0.9,2.9,2.5C68.5,282.6,66.4,284.7,63.2,285.9
	 M61.3,284.8c0,0-0.1,0.4-0.2,1.1c0.4-0.9,1.1-1.2,2-1.7c1.5-0.8,2-1.6,2.2-2.4c0.2-0.8,0-1.5-0.9-1.5
	C63.1,280.2,62,281.8,61.3,284.8 M92.4,278.6h-0.1c-1.4,0-3.1,2-4.9,5.2c0.4-1.6,0.8-3,0.8-3.9c0-0.8-0.5-1.2-1.2-1.2
	c-0.6,0-1.5,0.2-2.5,0.7c0.2,0.4,0.3,0.9,0.3,1.6c0,1.7-0.8,5.9-2.7,10.6c0.8,0.1,1.4,0.2,1.9,0.2c1.2,0,1.6-0.5,2-1.3
	c1.7-4.2,3.1-7.8,5-7.8c0.4,0,0.7,0.2,0.9,0.6c1-1.1,1.6-2.3,1.6-3.4C93.4,279.1,93.1,278.6,92.4,278.6 M82.6,287.2
	c0.1,0,0.1,0.1,0.1,0.2c0,1.7-2.5,4.3-4.2,4.3c-1.3,0-2.1-0.8-2.1-2.5c0-0.6,0.1-1.4,0.1-1.9c-1.8,2.9-3.5,4.4-5.1,4.5h-0.3
	c-1.9,0-2.6-1.4-2.6-3.4c0.1-4.6,3.7-9.8,7.5-9.8c0.9,0,1.7,0.2,2.3,0.7c0.4-0.4,0.9-0.6,1.5-0.6c0.7,0,1.4,0.2,2.1,0.6
	c-0.9,1.3-2.3,7.2-2.3,9c0,0.5,0.2,0.8,0.3,1c0.3-0.1,0.7-0.4,1.2-0.8C81.9,287.6,82.4,287.2,82.6,287.2 M75,287.1
	c1.2-1.8,2.3-3.9,2.8-5.3c-0.3-1-1.2-1.4-1.9-1.4c-1.9,0-3.8,4.6-3.8,7.7c0,0.8,0.3,1.2,0.8,1.2C73.4,289.3,74.1,288.5,75,287.1
	 M28.4,285.9c-0.8,0.3-2.3,0.9-2.3,1.6c0,0.6,0,1.1,0.3,1.4c0.5,0.8,1.4,1.2,2.3,1.1c1.7-0.2,3-0.9,4.2-2.1c0.3,0.6,0.3,1.3-0.1,1.9
	c-0.4,0.5-1,0.9-1.8,1.3c-1.2,0.6-2.4,0.8-3.8,0.8c-2.6,0-4.1-1.1-4.4-3.2c-0.8,1.5-2.5,3-3.9,3c-1.3,0-2.1-0.8-2.1-2.5
	c0-0.7,0.1-2,0.5-3.5c0.4-1.5,0.6-2.6,0.6-3.3c0-0.3-0.1-0.7-0.4-0.7c-1.1,0-3.3,3.5-5.5,8.8c-0.4,0.8-0.7,1.3-2,1.3
	c-0.4,0-1.1-0.1-1.8-0.2c1.8-4.7,2.9-10,3.6-15.4c0-0.1,0-0.2,0-0.2c0-0.1,0-0.2,0-0.3c-0.3,0.1-0.5,0.1-0.8,0.1
	c-0.6,0-1.8-0.1-2.4-0.1c-0.4,0-0.7,0.1-0.7,0.4c-0.5,2.3-1.7,7.2-2.5,10.9c-0.2,1.1-0.4,2.2-0.4,3.1c0,0.5,0.1,0.8,0.3,1.3
	c-0.8,0.5-2,0.7-2.6,0.7c-1,0-1.5-0.4-1.5-1.2c0-0.5,0.1-1.3,0.4-2.4c0.2-0.8,2.6-10.9,2.9-12.2c0-0.2,0.1-0.4,0.1-0.6
	c-0.3,0-0.6,0-0.9,0c-1.3,0-2.2,0.3-2.9,0.7c-0.2,0.1-0.5,0.2-0.6,0.2c0-0.3-0.1-0.7-0.1-0.9c0-1.7,0.8-2.4,2.4-2.4
	c2.4,0,4.8,0.1,7.1,0.1c1.9,0,2.8-0.4,3.9-0.5c0,0.1,0,0.2,0,0.4c0,0.4-0.1,0.7-0.2,1c0.3-0.1,0.6-0.1,0.9-0.1
	c0.7,0,1.2,0.4,1.2,1.1c0,0.1,0,0.1,0,0.2c0,0.6-0.7,4.5-1.8,8.8c1.6-2.8,4-5.3,6.2-5.3c1.1,0,1.7,0.6,1.7,1.9
	c0,1.7-1.2,4.9-1.2,7.5c0,0.5,0.2,0.8,0.3,1c0.2-0.1,0.7-0.4,1.2-0.8c0.5-0.5,0.9-0.9,1.2-1.1c0.1-2.1,0.9-4.2,2.4-5.8
	c1.6-1.9,3.6-2.9,5.8-2.9c2,0,2.9,0.9,2.9,2.5C33.7,282.6,31.6,284.7,28.4,285.9 M26.6,284.8c0,0-0.1,0.4-0.2,1.1
	c0.4-0.9,1.1-1.2,2-1.7c1.5-0.8,1.9-1.6,2.2-2.4c0.2-0.8,0-1.5-0.9-1.5C28.3,280.2,27.3,281.8,26.6,284.8 M54.8,286.8
	c0.3-1.4,2.7-14.3,3.4-15c-0.3-0.4-1.1-0.7-1.7-0.7c-1.1-0.1-1.7,0.5-1.9,1.5l-1.6,7.2c-0.1,0.4-0.2,0.8-0.4,1.2
	c-0.3,0.1-0.6,0.1-0.9,0.1h-5c0.7-3.3,1-6.3,1-6.8c0-0.4-0.1-0.8-0.4-1.1c-0.3-0.3-0.7-0.3-1.1-0.3c-0.8,0-1.5,0.3-2.4,0.8
	c0.3,0.5,0.4,0.9,0.4,1.4c-0.2,4.9-1.9,10.9-3.5,15.6c-0.2,0.7-0.4,1.3-0.4,1.8c-0.1,0.6,0.2,0.8,0.9,0.8c0.9,0,2.3-0.5,2.8-0.7
	c0-0.3,0-0.7,0-1c0.1-1,1.1-4.3,1.7-6.8c0.1-0.4,0.2-0.8,0.3-1.2c0.2,0,0.5-0.1,0.8-0.1c0.7,0,1.5,0,2.3,0c1.1,0,2.2,0,2.9-0.3
	c-0.4,2-0.8,3.7-1.1,5c-0.2,0.8-0.4,1.6-0.4,2.3c0,1,0.3,1.5,1.4,1.5c0.6,0,2.9-0.4,2.9-0.9c-0.4-0.5-0.5-1.1-0.5-1.7
	C54.4,288.7,54.6,287.8,54.8,286.8 M156.5,278.6h-0.1c-1.4,0-3.1,2-4.9,5.2c0.4-1.6,0.8-3,0.8-3.9c0-0.8-0.5-1.2-1.2-1.2
	c-0.6,0-1.5,0.2-2.5,0.7c0.2,0.4,0.3,0.9,0.3,1.6c0,1.7-0.8,5.9-2.7,10.6c0.8,0.1,1.4,0.2,1.9,0.2c1.2,0,1.6-0.5,1.9-1.3
	c1.7-4.2,3.2-7.8,5.1-7.8c0.4,0,0.7,0.2,0.9,0.6c0.9-1.1,1.6-2.3,1.6-3.4C157.5,279.1,157.3,278.6,156.5,278.6 M98.1,279.9
	c0.4-2.3,0.6-3.5,0.6-3.4c0-0.7-0.4-1.2-1.2-1.2c-0.8,0-1.6,0.2-2.6,0.8c0.2,0.5,0.3,0.9,0.3,1.3c0,1.4-0.5,3.8-1.1,5.8
	c-0.5,2-0.5,2.4-0.8,3.8c-0.1,0.5-0.1,1-0.1,1.5c0,1.9,0.8,3.1,2.8,3.1c1.7,0,4.2-2.6,4.2-4.3c0-0.1,0-0.2-0.1-0.2
	c-0.2,0-0.7,0.4-1.5,1.2c-0.4,0.5-0.9,0.9-1.2,0.9c-0.6,0-0.9-0.4-0.9-1.1c0-0.8,0.2-1.8,0.4-2.6c0.3-1.3,0.6-2.5,0.9-3.7
	c0.2,0,0.3,0,0.5,0c0.4,0,0.9,0,1.3,0c1.1,0,2-0.8,2-1.9v-0.1c-0.8,0.1-1.5,0.2-2.3,0.2H98.1z M148.9,275.6c1.4,0,2.3-0.8,2.4-2.6
	c0-0.1,0-0.3,0-0.4c-1,0.2-2,0.5-3.8,0.5c-2.3,0-4.7-0.1-7.1-0.1c-1.6,0-2.4,0.7-2.4,2.4c0,0.3,0,0.6,0,0.9c0.1,0,0.4-0.1,0.6-0.2
	c0.7-0.4,1.6-0.7,2.9-0.7c0.3,0,0.6,0,0.9,0c0,0.2-0.1,0.4-0.1,0.6c-0.2,1.3-2.7,11.3-2.9,12.2c-0.3,1.1-0.4,1.9-0.4,2.4
	c0,0.8,0.5,1.2,1.5,1.2c0.6,0,1.8-0.1,2.6-0.7c-0.2-0.5-0.3-0.8-0.3-1.3c0-0.9,0.2-2,0.4-3.1c0.8-3.7,2-8.5,2.5-10.9
	c0.1-0.4,0.3-0.4,0.7-0.4C147.1,275.5,148.3,275.6,148.9,275.6 M131.2,273.5c-3.5,0-6.6,1.9-7.4,5.4c-0.1,0.4-0.2,0.8-0.3,1.2
	c-1.6,0-1.8,0.2-2.2,1.3c0,0,0,0.1,0,0.1c0,0.3,0.8,0.5,1.3,0.5h0.5c-0.2,0.9-1.5,7.9-1.7,8.9c-0.3,1.5-1.1,2.9-2.3,3.9
	c-0.1,0.2-0.3,0.2-0.3,0.4c0,0.2,0.1,0.3,0.4,0.3c0.1,0,0.1,0,0.3,0c2.3-0.9,4.1-2.8,4.9-5.1c1.1-3,1.5-5.8,2-8.4c0.4,0,0.9,0,1.3,0
	c1.3,0,2.8-0.3,2.8-1.8c0-0.1,0-0.2,0-0.3c-0.8,0-1.8,0.2-2.8,0.2h-0.9c0.4-1.9,0.8-3.2,1.3-3.9c0.4-0.5,1.1-1,1.7-1
	c0.8,0,1.4,0.5,1.8,1.4c1.2-0.6,1.8-1.2,1.8-1.7C133.5,273.7,132.5,273.5,131.2,273.5 M115.4,278.6c2.6,0,4.4,1.6,4.4,4.2
	c0,4.5-3.5,9-7.7,9c-2.6,0-4.4-1.7-4.4-4.4c0-2.3,0.8-4.4,2.3-6.1C111.5,279.6,113.4,278.6,115.4,278.6 M112.8,290
	c2.1,0,3.4-4.5,3.4-7.2c0-1.4-0.4-2.5-1.5-2.5c-2.1,0-3.5,4.6-3.5,7.3C111.2,289,111.7,290,112.8,290"/>
</svg>
