<!-- Generator: Adobe Illustrator 18.1.1, SVG Export Plug-In  -->
<svg version="1.1"
	 xmlns="http://www.w3.org/2000/svg" xmlns:xlink="http://www.w3.org/1999/xlink" xmlns:a="http://ns.adobe.com/AdobeSVGViewerExtensions/3.0/"
	 x="0px" y="0px" width="34.82px" height="11.74px" viewBox="0 0 34.82 11.74" enable-background="new 0 0 34.82 11.74"
	 xml:space="preserve">
<defs>
</defs>
<path fill="#868789" d="M3.86,5.48C2.58,5.14,1.43,4.56,0.53,3.56c-0.1-0.11-0.18-0.23-0.29-0.37c0.08-0.02,0.13-0.04,0.18-0.04
	C0.91,3.09,1.4,3.13,1.88,3.22C2.79,3.38,3.6,3.76,4.37,4.24C4.41,4.26,4.45,4.29,4.5,4.32C4.54,4.28,4.58,4.24,4.63,4.2
	C4.56,4.07,4.48,3.95,4.41,3.83C4.12,3.29,3.85,2.74,3.7,2.14C3.53,1.51,3.44,0.88,3.5,0.22c0-0.05,0.01-0.1,0.02-0.15
	c0.01-0.06,0.05-0.08,0.1-0.04c0.12,0.1,0.25,0.19,0.36,0.29c0.78,0.73,1.31,1.61,1.64,2.62c0.08,0.22,0.14,0.45,0.2,0.68
	c0.02,0.06,0.04,0.08,0.1,0.07c0.06-0.01,0.12,0,0.16,0C6.2,3.34,6.29,3,6.41,2.66c0.32-0.93,0.82-1.75,1.54-2.42
	C8.03,0.16,8.12,0.1,8.2,0.03C8.26-0.02,8.3,0,8.31,0.07c0.02,0.16,0.05,0.31,0.05,0.47C8.4,1.69,8.11,2.75,7.58,3.76
	C7.54,3.83,7.51,3.9,7.47,3.96c0,0,0,0.01,0,0.03c0.05-0.02,0.09-0.04,0.12-0.07c0.04-0.02,0.07-0.05,0.1-0.06
	c0.14-0.07,0.17-0.05,0.21,0.1c0.04,0.15,0.08,0.3,0.12,0.46C8.19,4.36,8.34,4.3,8.49,4.24c0.66-0.25,1.35-0.4,2.06-0.42
	c0.12,0,0.23-0.06,0.34-0.1c0.13-0.05,0.18-0.03,0.21,0.11c0.26,0.04,0.53,0.04,0.8,0.15c-0.08,0.09-0.15,0.18-0.23,0.25
	C11.3,4.6,10.87,4.89,10.4,5.15c-0.04,0.02-0.08,0.06-0.09,0.09C10.04,5.81,9.77,6.39,9.5,6.96c-0.03,0.06,0,0.08,0.04,0.11
	c0.58,0.39,1.07,0.87,1.48,1.44c0.07,0.11,0.14,0.22,0.2,0.33c0.01,0.03,0.02,0.06,0.04,0.1c-0.08,0.01-0.14,0.02-0.21,0.02
	c-0.41-0.01-0.8-0.08-1.19-0.18C8.9,8.53,8.07,8.03,7.3,7.41c-0.18-0.14-0.35-0.3-0.51-0.45C6.88,7.13,6.98,7.3,7.06,7.48
	C7.39,8.2,7.65,8.94,7.75,9.73c0.08,0.62,0.07,1.23-0.07,1.84c-0.01,0.05-0.03,0.1-0.05,0.16c-0.07-0.05-0.12-0.09-0.17-0.14
	c-0.34-0.34-0.61-0.73-0.86-1.15C6.2,9.76,5.98,9,5.84,8.22C5.82,8.1,5.8,7.98,5.78,7.86c-0.01-0.07-0.03-0.11-0.1-0.11
	c-0.04,0-0.08-0.01-0.12-0.02c-0.49,1.43-1.22,2.67-2.55,3.53c-0.01-0.07-0.03-0.1-0.03-0.14c-0.04-0.43,0.03-0.84,0.11-1.26
	C3.28,8.91,3.71,8.08,4.26,7.3c0.03-0.04,0.06-0.08,0.08-0.12C4.29,7.12,4.23,7.06,4.19,7.01c-0.04-0.05-0.08-0.01-0.11,0
	c-0.45,0.22-0.92,0.4-1.4,0.54C1.89,7.77,1.09,7.83,0.29,7.71C0.22,7.7,0.15,7.68,0.08,7.67C0.06,7.66,0.04,7.65,0,7.63
	c0.04-0.06,0.08-0.12,0.12-0.16C0.47,7.1,0.88,6.8,1.31,6.53c0.73-0.45,1.53-0.69,2.37-0.85C3.85,5.65,3.85,5.66,3.86,5.48z
	 M5.15,5.27c0-0.01-0.02-0.03-0.01-0.04c0.04-0.06,0.07-0.11,0.11-0.17C5.08,4.84,4.86,4.67,4.63,4.5C4.39,4.81,4.22,5.14,4.16,5.54
	C4.3,5.56,4.44,5.58,4.58,5.59c0.14,0.01,0.29,0.02,0.43,0.02c0.01,0.07-0.03,0.07-0.08,0.07C4.81,5.67,4.69,5.66,4.58,5.66
	c-0.14,0-0.29,0.02-0.43,0.02C4.1,6.03,4.27,6.54,4.5,6.75c0.07-0.04,0.15-0.08,0.22-0.12c-0.07,0.05-0.13,0.1-0.2,0.15
	c0.03,0.03,0.05,0.05,0.07,0.08c0.1-0.11,0.2-0.21,0.3-0.31c0,0-0.01,0-0.01-0.01C4.83,6.57,4.79,6.6,4.75,6.62
	C4.77,6.6,4.79,6.57,4.81,6.56C4.9,6.48,4.99,6.41,5.08,6.34C5.1,6.32,5.11,6.3,5.13,6.29c0,0,0.01,0.01,0.01,0.01
	C5.12,6.32,5.11,6.35,5.08,6.37c0.01,0,0.01,0.01,0.02,0.01C5.12,6.36,5.14,6.33,5.16,6.3l0,0C5.18,6.32,5.2,6.34,5.21,6.34
	c-0.2,0.19-0.39,0.38-0.59,0.57c0.29,0.28,0.63,0.42,1.01,0.52C5.67,7.2,5.7,6.98,5.73,6.76c0-0.03,0.02-0.05,0.03-0.08
	C5.81,6.6,5.91,6.56,5.88,6.43c0.03,0.03,0.05,0.04,0.07,0.06c0.04,0.06,0.1,0.08,0.17,0.07c0.03,0,0.06-0.02,0.08-0.01
	c0.07,0.04,0.12,0.01,0.16-0.04c0.04-0.05,0.01-0.16-0.06-0.2c0.09,0,0.15,0,0.23,0C6.52,6.21,6.6,6.22,6.66,6.22
	C6.66,6.25,6.65,6.28,6.64,6.3c0.1-0.1,0.16-0.22,0.18-0.37c-0.08,0.1-0.1,0.1-0.22,0C6.64,5.9,6.68,5.87,6.71,5.84
	c0,0-0.01,0-0.01-0.01c0.02-0.04,0.04-0.09,0.08-0.15c0.02,0.07,0.03,0.12,0.05,0.17c0.01-0.08,0.01-0.17,0-0.25
	C6.81,5.51,6.79,5.5,6.68,5.52c-0.04,0.01-0.08,0-0.1,0C6.59,5.44,6.6,5.38,6.6,5.32c0.01-0.04,0.04-0.08,0.04-0.1
	c-0.01-0.04-0.05-0.09-0.08-0.1C6.48,5.1,6.41,5.13,6.38,5.19C6.33,5.16,6.29,5.14,6.24,5.12c0,0,0.01,0,0.01,0
	C6.21,5.05,6.17,5,6.12,4.93c0.04,0,0.08,0,0.12,0C6.09,4.85,5.93,4.84,5.77,4.88c0.05,0,0.09,0,0.15,0
	C5.85,4.97,5.85,5.02,5.91,5.07c-0.03,0-0.05,0.01-0.07,0C5.76,5.01,5.68,4.93,5.56,5.01c0,0-0.01,0-0.01,0
	c-0.13-0.03-0.19,0-0.26,0.11C5.34,5.14,5.38,5.17,5.43,5.2c0,0.01-0.01,0.01-0.01,0.02c-0.02,0-0.05,0.02-0.07,0.01
	C5.25,5.2,5.24,5.21,5.2,5.34C5.18,5.31,5.17,5.29,5.15,5.27L5.15,5.27z M8.16,0.23c-0.22,0.09-0.7,0.61-1.04,1.08
	C6.62,2.03,6.33,2.84,6.13,3.69C6.21,3.7,6.29,3.72,6.36,3.73C6.5,3.75,6.64,3.78,6.78,3.8c0.06,0.01,0.09,0.05,0.07,0.12
	C6.82,3.98,6.81,4.04,6.78,4.1c-0.07,0.17-0.16,0.2-0.3,0.07C6.37,4.07,6.23,4.03,6.05,4C6.04,4.24,6.03,4.46,6.02,4.69
	c0,0.06,0.04,0.05,0.08,0.06c0.14,0.04,0.28,0.09,0.41,0.14c0.05,0.02,0.09,0.06,0.15,0.1c0.05-0.06,0.11-0.11,0.15-0.16
	c0.37-0.44,0.63-0.95,0.87-1.47c0.4-0.88,0.59-1.8,0.53-2.77C8.2,0.47,8.18,0.35,8.16,0.23z M7.57,11.45c0.01,0,0.02-0.01,0.03-0.01
	c0.16-0.66,0.17-1.33,0.06-1.99C7.49,8.41,7.12,7.46,6.5,6.6C6.28,6.72,6.07,6.75,5.84,6.73C5.79,6.96,5.79,7.19,5.81,7.42
	c0,0.02,0.04,0.05,0.06,0.06C5.99,7.48,6.12,7.51,6.24,7.5c0.17-0.01,0.33-0.04,0.5-0.08C6.81,7.4,6.84,7.39,6.86,7.48
	c0.02,0.1,0.03,0.2,0.04,0.31C6.91,7.88,6.87,7.91,6.78,7.9C6.63,7.88,6.49,7.86,6.34,7.84C6.18,7.82,6.02,7.8,5.86,7.78
	c0,0.03,0,0.06,0,0.08c0.08,0.51,0.19,1.02,0.37,1.5c0.27,0.74,0.67,1.4,1.21,1.97C7.48,11.38,7.53,11.41,7.57,11.45z M9.46,7.06
	C9.41,7.17,9.33,7.28,9.32,7.4C9.29,7.66,9.13,7.77,8.89,7.79C8.8,7.79,8.76,7.75,8.73,7.67C8.62,7.29,8.51,6.91,8.4,6.53
	C8.38,6.47,8.36,6.43,8.3,6.41c-0.12-0.04-0.23-0.1-0.34-0.14C7.66,6.15,7.36,6.05,7.05,6C7.01,6,6.96,5.98,6.94,6.04
	c-0.07,0.21-0.2,0.38-0.39,0.52c0.09,0.11,0.17,0.22,0.26,0.31c0.79,0.77,1.69,1.37,2.76,1.69c0.44,0.13,0.88,0.22,1.34,0.23
	c0.04,0,0.08-0.01,0.12-0.01C10.97,8.43,10,7.38,9.46,7.06z M4.66,4.17C4.77,4.1,4.88,4.04,5,3.97C5.07,3.93,5.15,3.9,5.21,3.85
	c0.07-0.06,0.14-0.07,0.22-0.08c0.12-0.01,0.23-0.04,0.35-0.06C5.76,3.65,5.76,3.61,5.74,3.57C5.61,3.2,5.5,2.82,5.35,2.46
	C5.01,1.66,4.5,0.98,3.84,0.41C3.78,0.35,3.7,0.31,3.63,0.26C3.31,0.89,3.98,3.44,4.66,4.17z M4.45,4.38
	C4.41,4.36,4.39,4.34,4.37,4.33C4,4.13,3.64,3.92,3.25,3.75C2.46,3.38,1.62,3.24,0.74,3.28c-0.08,0-0.16,0.02-0.24,0.03
	c0,0.01-0.01,0.02-0.01,0.04C1.36,4.47,2.53,5.1,3.87,5.46c0.08-0.2,0.16-0.38,0.23-0.58C4.18,4.69,4.29,4.53,4.45,4.38z M4.41,7.23
	C4.39,7.24,4.38,7.25,4.38,7.26c-0.7,0.99-1.17,2.06-1.24,3.29c-0.01,0.15,0,0.3,0,0.45c0.01,0,0.02,0.01,0.04,0.01
	c0.47-0.29,0.86-0.67,1.21-1.1c0.54-0.65,0.88-1.4,1.15-2.2C5.11,7.64,4.73,7.48,4.41,7.23z M4.14,6.95
	C3.87,6.58,3.76,6.18,3.81,5.74C2.93,5.91,2.1,6.16,1.36,6.65C1.01,6.87,0.67,7.12,0.39,7.43c-0.04,0.05-0.08,0.1-0.12,0.15
	C0.28,7.59,0.28,7.6,0.29,7.61C1.65,7.86,2.91,7.57,4.14,6.95z M8.04,4.45C8.18,4.88,8.33,5.3,8.47,5.72
	c0.56-0.12,1.1-0.28,1.6-0.53c0.02-0.01,0.04-0.03,0.05-0.05c0.15-0.34,0.29-0.68,0.43-1.03c0.02-0.06,0.02-0.14,0.03-0.21
	C9.69,3.87,8.85,4.1,8.04,4.45z M10.03,5.34C9.77,5.43,9.52,5.52,9.27,5.6C9.01,5.68,8.75,5.74,8.48,5.81
	c0.09,0.25,0.17,0.5,0.26,0.75c0.01,0.02,0.03,0.05,0.05,0.06c0.17,0.1,0.35,0.19,0.53,0.29C9.56,6.39,9.79,5.87,10.03,5.34z
	 M8.18,5.76c-0.15-0.4-0.3-0.78-0.45-1.18C7.39,4.75,7.08,4.92,6.8,5.16C6.95,5.37,7,5.59,6.99,5.83C7.24,5.88,7.9,5.85,8.18,5.76z
	 M5.9,4.75c0.03-0.17-0.01-0.65-0.07-0.77c-0.1,0.01-0.21,0-0.31,0.03C5.33,4.05,5.15,4.11,4.98,4.18C4.89,4.21,4.81,4.25,4.76,4.34
	c0.12,0.21,0.41,0.54,0.57,0.65C5.49,4.85,5.69,4.77,5.9,4.75z M11.61,4.02c-0.04-0.01-0.07-0.03-0.1-0.03
	c-0.13-0.02-0.26-0.04-0.38-0.06c-0.06-0.01-0.1,0.01-0.12,0.06c-0.09,0.17-0.2,0.33-0.29,0.5c-0.09,0.16-0.17,0.32-0.26,0.48
	C10.73,4.87,11.54,4.21,11.61,4.02z M6.78,5.12C7.09,4.93,7.39,4.74,7.7,4.55c-0.08-0.16-0.16-0.33-0.24-0.5
	c-0.01,0-0.02,0-0.03,0.01C7.21,4.4,7,4.75,6.7,5.03C6.73,5.07,6.76,5.1,6.78,5.12z M6.99,5.9C6.96,5.94,6.96,5.97,7.02,5.98
	c0.44,0.06,0.86,0.22,1.26,0.4C8.31,6.39,8.33,6.4,8.37,6.41c-0.05-0.17-0.1-0.32-0.14-0.47C8.2,5.87,8.17,5.85,8.1,5.86
	C7.73,5.92,7.36,5.95,6.99,5.9z M8.79,6.65c0,0.01-0.01,0.01-0.02,0.02c0.05,0.1,0.09,0.21,0.15,0.3c0.16,0.24,0.17,0.26,0.36,0
	c0-0.01,0-0.02,0.01-0.03C9.13,6.84,8.96,6.75,8.79,6.65z M5.92,3.97C5.95,4.23,5.97,4.48,5.98,4.7C6,4.48,6.02,4.24,6.03,3.99
	C6,3.98,5.96,3.98,5.92,3.97z M4.67,4.44c0.09,0.07,0.17,0.13,0.25,0.19c0,0,0.01-0.01,0.01-0.01C4.87,4.53,4.8,4.45,4.74,4.36
	C4.71,4.39,4.7,4.41,4.67,4.44z M5.73,7.44c0-0.12,0-0.23,0-0.34c0,0-0.01,0-0.01,0C5.69,7.21,5.67,7.32,5.65,7.43
	C5.68,7.44,5.7,7.44,5.73,7.44z M12.87,5.08c0.23,0.01,0.47,0.02,0.67,0.14c0.27,0.15,0.5,0.37,0.54,0.68
	c0.14,0.97-0.59,1.78-1.49,1.77c-0.16,0-0.31,0.04-0.47,0.02c-0.43-0.07-0.77-0.26-0.94-0.69c-0.07-0.18-0.06-0.37-0.03-0.55
	c0.06-0.3,0.13-0.59,0.35-0.83c0.27-0.3,0.6-0.45,0.99-0.5C12.62,5.1,12.75,5.09,12.87,5.08z M11.48,6.6
	c-0.02,0.25,0.13,0.53,0.45,0.71c0.14,0.08,0.28,0.16,0.44,0.16c0.15,0,0.31-0.01,0.46-0.03c0.13-0.03,0.28-0.06,0.38-0.14
	c0.14-0.11,0.26-0.26,0.36-0.41c0.15-0.23,0.25-0.48,0.2-0.77c-0.1-0.6-0.62-0.9-1.19-0.83c-0.1,0.01-0.2,0.03-0.26,0.14
	c-0.01,0.02-0.04,0.04-0.07,0.03c-0.08-0.01-0.16-0.01-0.24,0.04c-0.06,0.05-0.14,0.07-0.2,0.12C11.58,5.86,11.47,6.15,11.48,6.6z
	 M20.65,8.04c0.02-0.02,0.07-0.01,0.1-0.01c0.04,0,0.07,0.01,0.11,0.01c0.18-0.01,0.36-0.02,0.53-0.02c0.12,0,0.21-0.09,0.21-0.21
	c0-0.07,0.01-0.14,0.02-0.21c0.07-0.35,0.15-0.71,0.2-1.06c0.04-0.29,0.05-0.58-0.04-0.87c-0.07-0.22-0.21-0.38-0.44-0.45
	c-0.27-0.08-0.52-0.02-0.78,0.08c-0.1,0.04-0.21,0.06-0.31,0.09c-0.04,0.01-0.09,0.03-0.13,0.05c-0.03,0.01-0.07,0.03-0.09,0.02
	C20,5.44,19.98,5.41,19.97,5.38c-0.01-0.03,0.01-0.07,0.01-0.1C20,5.18,20.02,5.09,20.03,5c0-0.02-0.03-0.06-0.04-0.06
	c-0.07,0.03-0.15,0.05-0.22,0.09c-0.05,0.03-0.09,0.07-0.14,0.1c-0.08,0.05-0.11,0.12-0.07,0.2c0.03,0.06,0.06,0.13,0.06,0.19
	c0.07,0.57,0.05,1.13-0.03,1.69c-0.01,0.08-0.02,0.16-0.06,0.23c-0.06,0.13-0.07,0.13,0.05,0.19c0.01,0.01,0.02,0.02,0.03,0.03
	c0.03,0.04,0.07,0.05,0.11,0.02c0.02-0.01,0.04-0.02,0.06-0.02c0.13-0.02,0.19-0.07,0.19-0.19c0-0.08-0.01-0.16-0.03-0.24
	c-0.01-0.06-0.03-0.13-0.03-0.19c0.01-0.35,0.03-0.7,0.04-1.06c0-0.09,0.02-0.16,0.11-0.2c0.02-0.01,0.03-0.04,0.04-0.05
	c0.04-0.05,0.07-0.1,0.12-0.13c0.19-0.14,0.42-0.2,0.65-0.19c0.37,0,0.58,0.19,0.65,0.55c0.05,0.29,0.03,0.58-0.03,0.87
	c-0.06,0.3-0.12,0.6-0.33,0.85c-0.07,0.08-0.08,0.18,0.01,0.26c0.01,0.01,0.01,0.02,0.02,0.04C20.96,7.99,20.71,8,20.45,8.01
	C20.52,8.07,20.57,8.1,20.65,8.04z M32.01,7.39c-0.13,0.06-0.24,0.11-0.35,0.15c-0.15,0.05-0.31,0.11-0.47,0.13
	c-0.25,0.03-0.48-0.04-0.65-0.25c-0.03-0.04-0.05-0.09-0.06-0.14c-0.04-0.25,0.05-0.45,0.23-0.61c0.31-0.27,0.65-0.47,1.06-0.55
	c0.21-0.04,0.25-0.09,0.25-0.3c0-0.3-0.16-0.49-0.42-0.62c-0.21-0.11-0.43-0.08-0.64-0.06c-0.02,0-0.05,0.03-0.07,0.04
	c-0.06,0.03-0.13,0.06-0.19,0.07c-0.06,0.01-0.09-0.03-0.07-0.1c0.03-0.12,0.09-0.17,0.22-0.21c0.21-0.06,0.41-0.08,0.62-0.09
	c0.34-0.01,0.59,0.16,0.72,0.48c0.08,0.2,0.11,0.4,0.11,0.61c0,0.07,0.01,0.11,0.08,0.13c0.07,0.02,0.06,0.06,0.03,0.11
	c-0.04,0.06-0.07,0.13-0.07,0.19c-0.01,0.18-0.01,0.36-0.02,0.54c0,0.12-0.02,0.25-0.02,0.38c0,0.13,0.03,0.25,0.04,0.38
	c0.01,0.12,0.02,0.24,0.02,0.36c0,0.01,0,0.01,0,0.02c-0.03,0.11-0.35,0.22-0.43,0.14c-0.03-0.03-0.05-0.11-0.04-0.15
	c0.03-0.11,0.09-0.21,0.12-0.32C32.03,7.63,32.01,7.52,32.01,7.39z M31.74,6.32c-0.17,0-0.33,0.04-0.47,0.14
	c-0.01,0.01-0.03,0.02-0.04,0.02c-0.19,0.04-0.33,0.17-0.43,0.32c-0.11,0.16-0.08,0.34,0.06,0.47c0.11,0.1,0.24,0.16,0.39,0.17
	c0.4,0.03,0.75-0.26,0.81-0.66c0.01-0.07,0-0.16-0.02-0.23C31.99,6.37,31.92,6.32,31.74,6.32z M25.46,4.86
	c0.46-0.01,0.74,0.23,0.83,0.72c0.02,0.12,0.03,0.25,0.04,0.37c0,0.07,0.02,0.12,0.09,0.14c0.05,0.01,0.07,0.05,0.03,0.09
	c-0.09,0.09-0.09,0.2-0.1,0.31c0,0.13,0,0.26,0,0.39c0,0.14-0.02,0.29-0.01,0.43c0,0.11,0.02,0.22,0.03,0.33
	c0.01,0.13,0.04,0.26,0.02,0.38c-0.02,0.15-0.29,0.26-0.41,0.19c-0.02-0.01-0.03-0.03-0.03-0.05c-0.02-0.13-0.02-0.25,0.07-0.36
	c0.08-0.1,0.05-0.22,0.04-0.33c-0.01-0.04-0.1-0.04-0.16-0.01c-0.31,0.17-0.63,0.29-1,0.18c-0.14-0.04-0.24-0.13-0.33-0.24
	c-0.02-0.02-0.03-0.05-0.03-0.07c-0.03-0.22,0-0.43,0.18-0.6c0.32-0.3,0.68-0.52,1.12-0.6c0.21-0.04,0.25-0.09,0.25-0.29
	c0-0.3-0.16-0.5-0.42-0.63c-0.21-0.11-0.42-0.08-0.64-0.06c-0.03,0-0.04,0.03-0.07,0.04c-0.07,0.03-0.13,0.06-0.2,0.07
	c-0.05,0.01-0.08-0.03-0.06-0.09c0.03-0.12,0.09-0.19,0.23-0.21c0.19-0.03,0.38-0.07,0.58-0.11C25.45,4.84,25.45,4.85,25.46,4.86z
	 M25.3,7.44c0.02,0,0.05,0,0.08,0c0.02,0,0.04-0.01,0.06-0.01c0.27-0.05,0.47-0.19,0.57-0.46c0.07-0.17,0.09-0.32,0.02-0.48
	c-0.04-0.1-0.11-0.15-0.22-0.16c-0.19-0.01-0.37,0.03-0.53,0.13c-0.01,0.01-0.03,0.02-0.04,0.02c-0.19,0.04-0.33,0.16-0.43,0.31
	c-0.11,0.16-0.09,0.35,0.06,0.48C25,7.38,25.14,7.43,25.3,7.44z M18.46,7.09c-0.01-0.04-0.01-0.07-0.02-0.11
	c-0.02-0.13-0.02-0.26,0.05-0.38c0.02-0.03,0.02-0.08,0-0.1c-0.08-0.12-0.09-0.26-0.1-0.4c-0.02-0.32,0.06-0.61,0.15-0.91
	c0.01-0.04,0.02-0.09,0.02-0.13c0-0.06-0.04-0.08-0.1-0.07c-0.08,0.02-0.16,0.04-0.24,0.06c-0.02,0.01-0.04,0.01-0.06,0.01
	c-0.05,0.01-0.11,0.01-0.13,0.03c-0.02,0.03,0.01,0.09,0.02,0.14c0.02,0.06,0.07,0.13,0.07,0.19c0.01,0.34,0.01,0.68,0,1.02
	c-0.01,0.19-0.05,0.39-0.21,0.52c-0.21,0.16-0.44,0.31-0.67,0.44c-0.13,0.08-0.29,0.06-0.42-0.05c-0.1-0.08-0.17-0.17-0.21-0.29
	c-0.05-0.18-0.07-0.36-0.04-0.54c0.03-0.26,0.08-0.53,0.12-0.79c0.03-0.21,0.08-0.42,0.25-0.58c0.05-0.04,0.02-0.11-0.05-0.13
	c-0.13-0.04-0.26-0.05-0.39,0.03c-0.05,0.03-0.06,0.05-0.04,0.1c0.02,0.04,0.02,0.09,0.01,0.13c-0.05,0.38-0.11,0.76-0.17,1.14
	c-0.03,0.23-0.07,0.46-0.02,0.69c0.04,0.24,0.17,0.42,0.38,0.54c0.05,0.03,0.1,0.05,0.15,0.05c0.29-0.02,0.56-0.1,0.79-0.29
	c0.12-0.1,0.23-0.2,0.36-0.29c0.11-0.08,0.19-0.04,0.19,0.09c0.01,0.12-0.01,0.25-0.02,0.38c-0.01,0.08,0.02,0.12,0.1,0.12
	c0.1-0.01,0.19-0.04,0.29-0.06c-0.01-0.13-0.04-0.24,0.02-0.32C18.51,7.24,18.48,7.17,18.46,7.09z M23.35,3.76
	c-0.09-0.01-0.14,0.05-0.17,0.12c-0.04,0.09-0.07,0.19-0.09,0.29c-0.03,0.23-0.04,0.47-0.06,0.7c-0.01,0.16-0.12,0.25-0.26,0.29
	c-0.08,0.02-0.16,0.03-0.24,0.04c-0.07,0.01-0.15,0.01-0.22,0.02c-0.02,0-0.06,0.04-0.06,0.06c0,0.02,0.03,0.05,0.05,0.06
	c0.02,0.01,0.05,0.02,0.07,0.02c0.18,0.03,0.37,0.09,0.55,0.07c0.12-0.01,0.1,0.03,0.09,0.1C22.96,5.96,22.94,6.37,23,6.79
	c0.05,0.4,0.25,0.69,0.62,0.87c0.03,0.01,0.05,0.03,0.07,0.05c0.06,0.08,0.16,0.07,0.24,0.09c0.13,0.03,0.13-0.09,0.18-0.15
	c0.02-0.03,0.04-0.06,0.05-0.09c0.03-0.06,0-0.11-0.06-0.11c-0.17,0.01-0.3-0.06-0.44-0.15c-0.22-0.13-0.34-0.32-0.39-0.55
	c-0.09-0.43-0.02-0.86,0.03-1.29c0.09,0,0.17,0,0.25,0c0.15,0,0.3-0.02,0.43,0.05c0.1,0.05,0.17-0.04,0.26-0.06
	c0.06-0.02,0.06-0.11,0-0.15C24.12,5.21,24,5.17,23.85,5.21c-0.05,0.01-0.09,0.03-0.14,0.05c-0.02,0-0.06,0-0.06-0.01
	c-0.05-0.1-0.12-0.06-0.19-0.05c-0.11,0.02-0.12,0.02-0.13-0.1C23.31,4.73,23.37,4.36,23.48,4c0.01-0.03,0.03-0.06,0.06-0.09
	C23.52,3.8,23.44,3.78,23.35,3.76z M33.88,3.76c-0.09-0.01-0.14,0.04-0.16,0.1c-0.04,0.09-0.09,0.2-0.1,0.3
	c-0.03,0.22-0.04,0.45-0.06,0.67c-0.02,0.2-0.14,0.31-0.32,0.34c-0.11,0.02-0.22,0.02-0.33,0.03c-0.06,0.01-0.13,0-0.14,0.08
	c-0.01,0.08,0.08,0.08,0.13,0.09c0.15,0.02,0.3,0.03,0.45,0.05c0.04,0,0.09,0.04,0.11,0.03c0.09-0.04,0.08,0.01,0.08,0.07
	c-0.04,0.4-0.06,0.79-0.02,1.19c0.04,0.44,0.24,0.76,0.64,0.95c0.02,0.01,0.04,0.02,0.06,0.04c0.07,0.08,0.16,0.07,0.25,0.09
	c0.14,0.03,0.13-0.1,0.19-0.16c0.01-0.01,0.01-0.02,0.02-0.03c0.07-0.12,0.05-0.16-0.09-0.16c-0.12-0.01-0.24-0.01-0.32-0.11
	c-0.02-0.02-0.04-0.03-0.07-0.04c-0.24-0.12-0.35-0.34-0.39-0.59c-0.07-0.4-0.01-0.8,0.04-1.2c0-0.02,0.03-0.05,0.05-0.05
	c0.23,0.01,0.46-0.04,0.68,0.05c0.04,0.02,0.22-0.04,0.24-0.07c0.05-0.06,0.03-0.13-0.06-0.16c-0.13-0.04-0.26-0.11-0.4-0.03
	c-0.03,0.02-0.06,0.02-0.1,0.03c-0.02,0-0.06,0-0.06-0.02c-0.04-0.09-0.11-0.06-0.17-0.05c-0.13,0.03-0.14,0.02-0.15-0.12
	C33.85,4.72,33.9,4.36,34,4.01c0.01-0.04,0.04-0.07,0.06-0.12C34.05,3.8,33.97,3.78,33.88,3.76z M14.81,3.15
	c0,0.11,0.01,0.22,0.01,0.33c0.01,0.27,0.04,0.55,0.05,0.82c0.01,0.49,0.01,0.98,0.01,1.46c0,0.41-0.01,0.81-0.02,1.22
	c0,0.13-0.03,0.27-0.05,0.4c-0.01,0.05-0.02,0.11-0.03,0.16c0,0.02,0,0.05,0.01,0.06c0.05,0.07,0.18,0.1,0.26,0.06
	c0.01,0,0.03-0.01,0.04-0.01c0.06-0.01,0.12,0,0.16-0.03c0.04-0.02,0.06-0.11,0.05-0.14c-0.11-0.21-0.13-0.42-0.13-0.65
	c0-1.13,0-2.26,0.01-3.39c0-0.12,0.02-0.23,0.09-0.33c0.06-0.07,0.03-0.12,0-0.18C15.24,2.86,15.2,2.8,15.12,2.8
	C14.97,2.81,14.82,2.96,14.81,3.15z M27.69,5.98c0-0.19-0.01-0.39,0.01-0.58c0.01-0.12,0.06-0.23,0.08-0.35
	c0.02-0.09-0.02-0.14-0.11-0.16C27.48,4.86,27.33,5,27.35,5.18c0.08,0.8,0.17,1.61-0.02,2.41c-0.01,0.06,0.01,0.09,0.07,0.09
	c0.11,0,0.22,0.03,0.33-0.05c0.07-0.05,0.1-0.1,0.08-0.18c-0.04-0.12-0.08-0.23-0.09-0.36c-0.01-0.1,0.01-0.21,0.02-0.32
	c0-0.06,0.01-0.13,0.02-0.19c0.03-0.1,0.07-0.2,0.1-0.3c0.05-0.16,0.14-0.3,0.26-0.41c0.15-0.14,0.29-0.2,0.46-0.08
	c0.06,0.04,0.12,0.02,0.15-0.04c0.04-0.08,0.08-0.16,0.11-0.24c0.03-0.09-0.03-0.16-0.13-0.15c-0.02,0-0.04,0.01-0.07,0.02
	c-0.29,0.06-0.55,0.17-0.72,0.43c-0.05,0.08-0.1,0.16-0.16,0.26C27.73,6.03,27.7,6,27.69,5.98z M29.82,7.46
	c-0.1-0.19-0.12-0.39-0.11-0.59c0.01-0.46,0.04-0.92,0.06-1.38c0.01-0.16,0.01-0.33,0.01-0.49c0-0.08-0.04-0.1-0.12-0.07
	c-0.06,0.03-0.13,0.06-0.19,0.08c-0.15,0.07-0.18,0.14-0.11,0.29c0.05,0.1,0.06,0.2,0.05,0.31c0,0.06,0,0.13,0,0.19
	c0,0.45,0.01,0.9,0.01,1.35c0,0.06-0.02,0.13-0.03,0.19c-0.02,0.1-0.05,0.19-0.07,0.29c-0.01,0.08,0.05,0.15,0.14,0.14
	c0.14-0.02,0.28-0.04,0.41-0.13C29.85,7.59,29.85,7.52,29.82,7.46z M30.59,8.05C30.55,8.04,30.51,8.01,30.47,8
	c-0.04-0.01-0.08,0.01-0.13,0c-0.36-0.01-0.71-0.03-1.07-0.04c-0.56-0.02-1.12-0.03-1.69-0.04c-0.09,0-0.19,0-0.29-0.01
	c-0.23-0.02-0.45,0-0.67,0.03c-0.01,0-0.02,0.01-0.03,0.02c0.13,0.01,0.25,0.01,0.37,0.02c0.57,0.01,1.14,0.03,1.72,0.04
	c0.09,0,0.17,0,0.26,0c0.21,0.01,0.42,0.01,0.63,0.02c0.19,0.01,0.39,0.01,0.58,0.02c0.04,0,0.08-0.01,0.12-0.01
	C30.38,8.05,30.49,8.05,30.59,8.05L30.59,8.05z M30.38,9.77c0.06,0.07,0.12,0.14,0.18,0.21c0.15,0.18,0.3,0.36,0.46,0.54
	c0.01,0.02,0.04,0.02,0.06,0.04c0.01-0.02,0.03-0.04,0.03-0.07c0.01-0.02,0-0.04,0-0.06c0-0.12-0.01-0.23,0-0.35
	c0-0.17,0.02-0.33,0.03-0.5c-0.06-0.01-0.09,0-0.09,0.08c0,0.19,0,0.39,0,0.58c0,0.04,0,0.08-0.01,0.14
	c-0.04-0.04-0.07-0.06-0.09-0.08c-0.19-0.22-0.37-0.45-0.56-0.67c-0.02-0.02-0.05-0.04-0.07-0.05c-0.01,0.03-0.03,0.06-0.03,0.08
	c-0.01,0.21-0.01,0.43-0.02,0.64c0,0.08-0.02,0.16-0.02,0.24c0.04,0,0.08-0.01,0.11-0.01c-0.01-0.13-0.02-0.26-0.02-0.38
	c0-0.12,0.01-0.25,0.01-0.37C30.36,9.78,30.37,9.77,30.38,9.77z M18.5,9.93c-0.02,0.07-0.05,0.11-0.04,0.16
	c0.01,0.17,0.04,0.34,0.05,0.5c0,0.04-0.02,0.08-0.04,0.11c-0.02-0.01-0.05-0.01-0.05-0.03c-0.01-0.04,0-0.07,0-0.11
	c0-0.04-0.01-0.07-0.01-0.12c-0.03,0.01-0.04,0.01-0.06,0.02c-0.15,0.09-0.3,0.08-0.37-0.02c-0.08-0.1-0.06-0.31,0.07-0.41
	c0.07-0.06,0.17-0.09,0.26-0.13c0.05-0.02,0.08-0.04,0.07-0.09c-0.01-0.09-0.03-0.19-0.03-0.28c0-0.02,0.01-0.06,0.03-0.07
	c0.01-0.01,0.06-0.02,0.07-0.01c0.02,0.02,0.02,0.05,0.02,0.08c0,0.11,0,0.22,0.01,0.33C18.46,9.9,18.5,9.92,18.5,9.93z
	 M18.39,10.19L18.39,10.19c0-0.05-0.01-0.09-0.01-0.14c0-0.07-0.04-0.09-0.1-0.09c-0.13,0-0.26,0.11-0.29,0.25
	c-0.02,0.09,0,0.17,0.08,0.22c0.08,0.06,0.17,0.04,0.25,0c0.08-0.04,0.05-0.12,0.06-0.18C18.39,10.23,18.39,10.21,18.39,10.19z
	 M31.98,10.01c0.04-0.02,0.06-0.06,0.04-0.13c-0.02-0.06,0.04-0.07,0.09-0.07c0,0.03,0,0.07,0,0.12c0.04-0.01,0.08-0.02,0.12-0.04
	c0.11-0.04,0.21-0.02,0.29,0.06c0.07,0.08,0.08,0.2,0.01,0.31c-0.09,0.14-0.22,0.22-0.36,0.28c-0.05,0.02-0.07,0.05-0.07,0.1
	c0,0.09,0,0.18,0,0.29c-0.01,0-0.05,0-0.08,0.01c0-0.03,0-0.05,0-0.08c0-0.11-0.01-0.22-0.01-0.34c0-0.1,0.02-0.2,0.02-0.3
	c0-0.04,0.01-0.08,0-0.11C32.03,10.08,32.01,10.05,31.98,10.01z M32.11,10.21L32.11,10.21c0,0.01,0,0.02,0,0.04
	c0.02,0.07-0.04,0.16,0.04,0.2c0.1,0.05,0.16-0.04,0.24-0.08c0,0,0,0,0.01-0.01c0.08-0.08,0.12-0.18,0.09-0.29
	c-0.02-0.11-0.11-0.16-0.25-0.14c-0.11,0.01-0.13,0.04-0.13,0.17C32.11,10.14,32.11,10.18,32.11,10.21z M27.29,9.63
	c-0.14,0.08-0.2,0.21-0.24,0.35c-0.06,0.18,0,0.36,0.16,0.46c0.18,0.12,0.38,0.12,0.59,0.15c-0.01-0.05-0.01-0.08-0.01-0.12
	c-0.18,0.05-0.35,0.02-0.49-0.07c-0.2-0.13-0.24-0.37-0.11-0.59c0.12-0.19,0.32-0.24,0.53-0.13c0.01,0,0.02,0,0.03,0
	c0.01-0.03,0.02-0.06,0.04-0.1C27.59,9.53,27.45,9.54,27.29,9.63z M13.33,10.43c-0.22-0.11-0.29-0.35-0.17-0.58
	c0.12-0.23,0.33-0.29,0.55-0.17c0.01,0,0.02,0,0.03,0c0.01-0.03,0.02-0.06,0.04-0.1c-0.16-0.04-0.3-0.05-0.44,0.02
	c-0.16,0.08-0.25,0.21-0.3,0.38c-0.05,0.18,0,0.35,0.15,0.46c0.18,0.13,0.39,0.13,0.6,0.15c-0.01-0.04-0.01-0.08-0.02-0.12
	C13.61,10.52,13.46,10.5,13.33,10.43z M20.63,9.54c-0.04,0.02-0.09,0.03-0.11,0.06c-0.11,0.23-0.2,0.47-0.3,0.71
	c-0.02,0.04-0.04,0.07-0.08,0.12c-0.15-0.29-0.2-0.58-0.32-0.86c-0.03,0.02-0.06,0.03-0.07,0.04c0.1,0.3,0.19,0.59,0.29,0.88
	c0.01,0.03,0.05,0.07,0.05,0.07c0.04-0.02,0.08-0.04,0.1-0.07c0.08-0.16,0.15-0.34,0.23-0.5c0.07-0.14,0.15-0.28,0.23-0.43
	C20.64,9.56,20.64,9.55,20.63,9.54z M20.21,8.06c-0.1,0-0.21-0.01-0.31,0c-0.2,0.01-0.41,0.04-0.61,0.06c-0.1,0.01-0.2,0-0.3,0.03
	c-0.09,0.03-0.17,0.04-0.26,0.03c-0.02,0-0.03,0.02-0.05,0.02c-0.03,0.01-0.06,0.03-0.08,0.03c-0.06,0-0.12-0.02-0.18-0.01
	c-0.15,0.02-0.29,0.04-0.43,0.06c-0.08,0.01-0.17,0.02-0.25,0.03c0,0.01,0,0.02,0,0.03c0.04,0.01,0.07,0.02,0.1,0.02
	c0.05-0.01,0.09-0.04,0.14-0.05c0.21-0.02,0.43-0.03,0.64-0.05c0.03,0,0.07,0,0.1-0.02c0.1-0.06,0.22-0.05,0.34-0.05
	c0.04,0,0.09,0,0.13-0.01c0.25-0.02,0.5-0.04,0.74-0.06c0.16-0.01,0.32-0.03,0.47-0.05c-0.01-0.01-0.02-0.02-0.04-0.04
	C20.31,8.05,20.26,8.06,20.21,8.06z M33,10.54c-0.17,0-0.28-0.06-0.31-0.19c-0.04-0.14,0.06-0.33,0.19-0.4
	c0.11-0.05,0.22-0.06,0.34-0.04c0.13,0.03,0.22,0.15,0.2,0.29C33.4,10.41,33.25,10.53,33,10.54z M33.04,10.49
	c0.14,0.01,0.22-0.07,0.28-0.2c0.07-0.15-0.02-0.32-0.18-0.34c-0.06-0.01-0.13,0.02-0.2,0.04c-0.13,0.03-0.2,0.16-0.17,0.31
	C32.79,10.41,32.9,10.49,33.04,10.49z M20.99,10.55c-0.13,0-0.23-0.04-0.3-0.15c-0.06-0.12-0.02-0.23,0.04-0.34
	c0.09-0.16,0.4-0.22,0.55-0.12c0.22,0.14,0.12,0.45-0.06,0.55C21.14,10.52,21.06,10.53,20.99,10.55z M21,10.49
	c0.16,0,0.25-0.07,0.3-0.22c0.05-0.14-0.04-0.3-0.18-0.32c-0.06-0.01-0.13,0.01-0.2,0.03c-0.14,0.04-0.21,0.16-0.18,0.31
	C20.77,10.41,20.87,10.49,21,10.49z M24.36,10.67c0.01-0.06,0.02-0.13,0.03-0.2c-0.07,0.02-0.12,0.04-0.17,0.06
	c-0.09,0.02-0.18-0.01-0.2-0.07c-0.03-0.08,0.01-0.14,0.08-0.19c0.07-0.05,0.15-0.09,0.23-0.12c0.06-0.02,0.08-0.05,0.07-0.11
	c-0.02-0.11-0.15-0.17-0.27-0.14c-0.02,0.01-0.04,0.02-0.09,0.03c0.02-0.04,0.02-0.06,0.04-0.07c0.16-0.1,0.35-0.01,0.38,0.17
	c0.03,0.18-0.01,0.37,0.01,0.55C24.47,10.65,24.43,10.68,24.36,10.67z M24.4,10.3c0-0.06-0.03-0.11-0.1-0.09
	c-0.07,0.02-0.14,0.05-0.19,0.09c-0.07,0.05-0.05,0.14,0.03,0.17C24.25,10.52,24.39,10.43,24.4,10.3z M22,9.92
	c-0.03,0.14-0.05,0.29-0.05,0.43c-0.01,0.17,0.13,0.25,0.28,0.16c0.04-0.02,0.07-0.05,0.1-0.07c0.02-0.02,0.04-0.03,0.08-0.06
	c0,0.05,0,0.08,0.01,0.11c0,0.02,0.02,0.04,0.03,0.06c0.02-0.02,0.06-0.03,0.06-0.05c0-0.08-0.01-0.17-0.01-0.25
	c0-0.1,0.01-0.19,0.01-0.29c0-0.02,0-0.05,0.01-0.08c-0.05,0.01-0.09,0.02-0.1,0.02c0,0.12,0,0.23,0,0.34
	c-0.01,0.11-0.14,0.23-0.25,0.25c-0.07,0.01-0.11-0.04-0.13-0.1c-0.01-0.03-0.02-0.07-0.01-0.11c0.02-0.13,0.04-0.26,0.07-0.4
	C22.06,9.89,22,9.9,22,9.92z M16.6,9.87C16.56,9.89,16.5,9.9,16.5,9.92c-0.02,0.14-0.04,0.27-0.05,0.41
	c-0.01,0.08,0.01,0.17,0.09,0.19c0.06,0.02,0.13-0.01,0.19-0.03c0.04-0.01,0.07-0.05,0.11-0.07c0.02-0.01,0.04-0.02,0.07-0.04
	c0,0.06,0.01,0.11,0.01,0.16c0.03-0.01,0.06-0.01,0.09-0.02c-0.01-0.11-0.02-0.22-0.02-0.32c0-0.11,0.01-0.22,0.02-0.34
	c-0.04,0.01-0.08,0.02-0.1,0.02c0,0.1,0.01,0.18,0.01,0.27c0.01,0.13-0.05,0.22-0.16,0.28c-0.13,0.07-0.23,0.03-0.23-0.12
	c0-0.15,0.01-0.29,0.09-0.42C16.61,9.89,16.6,9.88,16.6,9.87z M22.78,9.99c0.01,0.16,0,0.31-0.01,0.47c0,0.03,0,0.05,0,0.08
	c0,0.01,0.05,0.01,0.06,0c0.02-0.02,0.04-0.05,0.04-0.08c0-0.09-0.01-0.19,0-0.28c0.01-0.12,0.1-0.2,0.24-0.19
	c0.11,0,0.18,0.08,0.16,0.21c-0.01,0.12-0.06,0.23-0.09,0.35c0,0.02,0.01,0.05,0.01,0.08c0.03-0.01,0.07-0.02,0.07-0.03
	c0.03-0.15,0.06-0.3,0.06-0.44c0-0.18-0.12-0.26-0.29-0.19c-0.05,0.02-0.11,0.03-0.17,0.05c0-0.05,0-0.08,0-0.12
	C22.78,9.88,22.77,9.91,22.78,9.99z M29.94,4.16c-0.05-0.03-0.1-0.06-0.15-0.08c-0.08-0.05-0.27,0.06-0.27,0.16
	c0,0.01,0.01,0.03,0.02,0.04c0.05,0.05,0.1,0.11,0.16,0.14c0.11,0.07,0.3-0.04,0.3-0.19C29.98,4.21,29.96,4.18,29.94,4.16z
	 M14.72,9.85c-0.03,0.04-0.08,0.08-0.07,0.11c0.03,0.19,0.02,0.37-0.02,0.57c0.03,0,0.07,0.01,0.09-0.01
	c0.02-0.01,0.02-0.05,0.02-0.07c0-0.1,0-0.21,0-0.31c0-0.03,0.02-0.06,0.03-0.08c0.06-0.08,0.17-0.11,0.26-0.08
	c0.07,0.03,0.12,0.1,0.1,0.21c-0.02,0.11-0.06,0.22-0.09,0.34c0,0.02,0.01,0.05,0.01,0.08c0.03-0.01,0.07-0.02,0.07-0.03
	c0.03-0.15,0.06-0.3,0.06-0.45c0-0.18-0.12-0.25-0.29-0.19c-0.05,0.02-0.11,0.03-0.17,0.05c0-0.05,0-0.08,0-0.12
	C14.74,9.86,14.73,9.86,14.72,9.85z M31.71,10.48c-0.09,0.02-0.15,0.05-0.22,0.06c-0.07,0.01-0.14-0.01-0.16-0.08
	c-0.02-0.07,0.01-0.13,0.06-0.17c0.08-0.05,0.16-0.09,0.24-0.12c0.07-0.03,0.09-0.06,0.07-0.13c-0.03-0.1-0.15-0.16-0.27-0.12
	c-0.02,0.01-0.04,0.01-0.07,0.01c0.01-0.02,0.01-0.05,0.03-0.05c0.18-0.1,0.35-0.01,0.37,0.19c0.01,0.18,0.01,0.36,0.02,0.53
	c0,0.03-0.02,0.06-0.04,0.08c-0.01,0.01-0.05,0-0.05,0c0-0.03,0-0.06,0-0.08C31.69,10.55,31.7,10.52,31.71,10.48z M31.63,10.18
	c-0.08,0.05-0.16,0.08-0.22,0.12c-0.06,0.05-0.05,0.12,0.02,0.16c0.07,0.04,0.14,0.04,0.19-0.01c0.04-0.04,0.07-0.11,0.08-0.17
	C31.71,10.25,31.67,10.22,31.63,10.18z M25.89,10.47c-0.08,0.03-0.13,0.05-0.18,0.06c-0.09,0.02-0.18-0.01-0.21-0.07
	c-0.03-0.06-0.01-0.14,0.07-0.19c0.07-0.05,0.15-0.09,0.23-0.11c0.07-0.02,0.08-0.06,0.07-0.12c-0.03-0.1-0.15-0.16-0.26-0.12
	c-0.02,0.01-0.04,0.02-0.07,0.03c0.01-0.03,0.01-0.05,0.02-0.06c0.12-0.11,0.35-0.03,0.39,0.13c0.03,0.13,0.01,0.27,0.02,0.4
	c0,0.05,0,0.1,0,0.15c0,0.03,0,0.06-0.01,0.07c-0.01,0.02-0.05,0.03-0.07,0.04c-0.01-0.02-0.02-0.05-0.02-0.07
	C25.86,10.57,25.87,10.53,25.89,10.47z M25.89,10.3c0-0.07-0.03-0.11-0.1-0.09c-0.07,0.02-0.14,0.05-0.19,0.09
	c-0.07,0.05-0.05,0.14,0.03,0.17C25.75,10.52,25.89,10.43,25.89,10.3z M34.53,10.47c-0.08,0.03-0.14,0.05-0.19,0.06
	c-0.08,0.02-0.17-0.01-0.2-0.07c-0.03-0.08,0-0.14,0.07-0.19c0.07-0.04,0.15-0.09,0.23-0.11c0.07-0.02,0.09-0.06,0.07-0.13
	c-0.03-0.1-0.15-0.16-0.27-0.12c-0.02,0.01-0.04,0.01-0.07,0.01c0.01-0.02,0.03-0.05,0.04-0.05c0.18-0.05,0.34-0.05,0.36,0.19
	c0.01,0.11,0.01,0.22,0.01,0.33c0,0.06,0.01,0.12,0.01,0.18c0,0.03-0.01,0.06-0.03,0.09c-0.01,0.01-0.04,0.01-0.07,0.02
	c0-0.02-0.01-0.04-0.01-0.06C34.5,10.57,34.51,10.53,34.53,10.47z M34.54,10.31c-0.02-0.07-0.04-0.12-0.11-0.1
	c-0.07,0.02-0.14,0.05-0.2,0.09c-0.07,0.05-0.05,0.12,0.02,0.16c0.06,0.04,0.13,0.03,0.19-0.02C34.48,10.41,34.51,10.35,34.54,10.31
	z M28.4,9.95c-0.02,0.13-0.04,0.26-0.05,0.39c-0.01,0.08,0.01,0.16,0.09,0.19c0.06,0.02,0.13,0,0.19-0.02
	c0.04-0.01,0.07-0.05,0.11-0.08c0.02-0.01,0.04-0.02,0.07-0.03c0,0.06,0,0.11,0.01,0.15c0.1,0.02,0.09-0.05,0.08-0.1
	c-0.01-0.1-0.02-0.2-0.03-0.3c0-0.06,0.01-0.12,0.03-0.19c0-0.02,0.01-0.05,0.01-0.08c-0.06,0.01-0.09,0.02-0.12,0.03
	c0,0.09,0.01,0.17,0.01,0.25c0.01,0.14-0.05,0.24-0.18,0.31c-0.12,0.06-0.21,0.02-0.21-0.11c-0.01-0.15,0.01-0.3,0.09-0.45
	C28.42,9.86,28.41,9.87,28.4,9.95z M14.43,10.46c0.01,0.06-0.01,0.11-0.07,0.1c-0.1-0.01-0.21-0.02-0.31-0.05
	c-0.1-0.03-0.14-0.12-0.15-0.22c-0.02-0.21,0.15-0.4,0.36-0.41c0.13-0.01,0.23,0.11,0.19,0.23c-0.01,0.02-0.04,0.04-0.07,0.04
	c-0.09,0-0.18-0.01-0.26-0.01c-0.05,0-0.13-0.01-0.15,0.06c-0.02,0.07,0,0.15,0.07,0.2c0.11,0.09,0.23,0.08,0.35,0.06
	c0.01,0,0.02-0.01,0.02-0.01C14.42,10.46,14.42,10.46,14.43,10.46z M14.01,10.1c0.09,0,0.17,0,0.26,0c0.04,0,0.09,0.02,0.1-0.05
	c0-0.06-0.03-0.1-0.08-0.11C14.18,9.9,14.07,9.96,14.01,10.1z M19.22,10.46c0.01,0.06,0,0.11-0.07,0.1
	c-0.11-0.01-0.22-0.02-0.33-0.06c-0.09-0.03-0.13-0.12-0.14-0.21c-0.02-0.21,0.15-0.4,0.36-0.41c0.13-0.01,0.23,0.11,0.19,0.23
	c0,0.02-0.05,0.04-0.07,0.04c-0.09,0-0.18-0.01-0.27,0c-0.05,0-0.12,0.04-0.12,0.06c0,0.06,0.01,0.14,0.05,0.19
	c0.1,0.11,0.23,0.1,0.36,0.07C19.19,10.46,19.2,10.46,19.22,10.46z M18.8,10.1c0.01,0,0.02,0.01,0.03,0.01c0.08,0,0.15,0,0.23-0.01
	c0.04,0,0.09,0.02,0.1-0.05c0-0.06-0.03-0.1-0.09-0.11C18.96,9.9,18.85,9.96,18.8,10.1z M15.81,9.98c0-0.01,0-0.02,0-0.04
	c-0.08-0.01-0.15-0.01-0.25-0.02c0.02-0.11,0.03-0.23,0.05-0.34c-0.09-0.02-0.09,0.04-0.1,0.1c-0.02,0.25,0,0.22-0.2,0.26
	c0,0,0,0-0.01,0.02c0.06,0.01,0.12,0.02,0.18,0.03c0,0.1,0,0.19,0,0.28c0,0.13,0.06,0.22,0.18,0.28c0.06,0.03,0.1,0.02,0.11-0.05
	c-0.2-0.07-0.27-0.13-0.2-0.52C15.66,9.98,15.74,9.98,15.81,9.98z M26.29,9.62c-0.01,0.03-0.01,0.06-0.01,0.09
	c-0.01,0.19,0,0.19-0.19,0.22c0,0,0,0.01-0.01,0.02c0.06,0.01,0.12,0.02,0.17,0.03c0,0.1,0,0.19,0,0.29c0,0.13,0.07,0.21,0.18,0.27
	c0.07,0.03,0.1,0.02,0.11-0.05c-0.22-0.07-0.3-0.27-0.2-0.5c0.07-0.04,0.16,0.04,0.23-0.02c0-0.01,0-0.02,0-0.03
	c-0.08-0.01-0.15-0.01-0.25-0.02c0.02-0.12,0.03-0.23,0.05-0.34C26.33,9.55,26.31,9.58,26.29,9.62z M23.75,9.56
	c-0.04,0.02-0.07,0.03-0.08,0.06c-0.01,0.03-0.01,0.07-0.02,0.1c-0.02,0.21-0.02,0.19-0.19,0.22c0,0,0,0.01-0.01,0.02
	c0.06,0.01,0.12,0.02,0.17,0.03c0,0.1,0,0.19,0,0.28c0,0.13,0.06,0.22,0.18,0.28c0.07,0.04,0.1,0.02,0.12-0.05
	c-0.22-0.07-0.29-0.25-0.19-0.52c0.07,0,0.15,0,0.22,0c0-0.01,0-0.02,0-0.04c-0.07-0.01-0.15-0.01-0.24-0.02
	C23.71,9.8,23.73,9.69,23.75,9.56z M21.61,9.96c-0.01,0.17-0.02,0.34-0.03,0.52c0,0.02,0.01,0.06,0.02,0.06c0.03,0,0.06,0,0.09-0.01
	c0.01,0,0-0.04,0-0.06c0-0.05-0.02-0.1-0.02-0.14c0-0.27,0-0.54,0-0.81c0-0.03,0.01-0.06,0.01-0.09c0-0.03-0.01-0.05-0.02-0.08
	c-0.03,0.02-0.06,0.03-0.08,0.05c-0.01,0.01-0.01,0.04-0.01,0.07c0,0.17,0,0.34,0,0.51C21.59,9.96,21.6,9.96,21.61,9.96z
	 M17.28,10.53c0.03,0.01,0.06,0,0.08-0.01c0.01,0,0.01-0.04,0.01-0.06c-0.01-0.05-0.02-0.1-0.02-0.15c0-0.26,0-0.52,0-0.78
	c0-0.05,0.02-0.09,0.02-0.13c0-0.02-0.02-0.05-0.03-0.07c-0.02,0.01-0.06,0.01-0.06,0.03c-0.01,0.03-0.02,0.07-0.02,0.11
	c0,0.34,0,0.67,0,1.04C17.27,10.5,17.27,10.53,17.28,10.53z M28.01,10.53c0.02,0.01,0.06,0,0.08-0.01c0.01,0,0-0.04,0-0.06
	c0-0.05-0.02-0.11-0.02-0.16c0-0.27,0-0.53,0-0.8c0-0.03,0.01-0.06,0.01-0.09c0-0.03-0.01-0.06-0.02-0.09
	c-0.03,0.02-0.06,0.03-0.08,0.06c-0.01,0.01-0.01,0.04-0.01,0.07c0,0.34,0,0.67,0,1.03C27.99,10.49,28,10.53,28.01,10.53z
	 M33.94,9.89c-0.04,0-0.09,0-0.13,0.01c-0.17,0.03-0.29,0.19-0.27,0.37c0.02,0.16,0.13,0.27,0.3,0.28c0.05,0,0.11,0,0.16-0.01
	c0.07-0.01,0.07-0.04,0.04-0.09c-0.15,0.05-0.3,0.06-0.41-0.09c-0.05-0.08-0.04-0.22,0.02-0.3c0.08-0.1,0.19-0.12,0.38-0.05
	C34.04,9.88,34.04,9.88,33.94,9.89z M24.81,10.14c-0.01-0.01-0.01-0.01-0.02-0.02c0-0.09,0.01-0.17,0.02-0.26
	c-0.06-0.01-0.1,0.01-0.1,0.08c0,0.2,0,0.4,0,0.6c0.1,0.02,0.11,0,0.09-0.09c-0.02-0.11,0-0.23,0.07-0.32
	c0.02-0.03,0.08-0.07,0.1-0.06c0.09,0.02,0.09-0.03,0.1-0.1C24.95,9.97,24.87,10.03,24.81,10.14z M16.04,10.12
	c0-0.07,0.01-0.14,0.02-0.2c0-0.02-0.02-0.05-0.03-0.07C16,9.87,15.97,9.88,15.96,9.9c-0.01,0.02,0,0.04,0,0.07
	c0,0.12,0.01,0.25,0.01,0.37c0,0.06-0.01,0.13-0.01,0.19c0.1,0.01,0.11,0,0.09-0.09c-0.03-0.12,0-0.24,0.07-0.33
	c0.02-0.03,0.07-0.06,0.1-0.05c0.09,0.03,0.08-0.03,0.09-0.09c-0.13,0-0.2,0.06-0.26,0.16C16.05,10.13,16.04,10.12,16.04,10.12z
	 M29.27,10.87c0-0.02-0.01-0.04-0.01-0.06c-0.02-0.31-0.04-0.63,0.03-0.94c-0.09-0.02-0.12,0.01-0.11,0.09
	c0.01,0.1,0.02,0.19,0.02,0.29c0,0.23,0,0.46,0,0.7C29.28,10.95,29.29,10.95,29.27,10.87z M33.52,8.14c0.03,0.01,0.06,0.02,0.1,0.02
	c0.14,0,0.27-0.01,0.41-0.01c0.18,0,0.37,0.01,0.55,0.01c0.03,0,0.06-0.02,0.08-0.02c0-0.01,0-0.02,0-0.03
	c-0.02,0-0.05-0.01-0.07-0.01c-0.22,0-0.44-0.01-0.66,0C33.79,8.11,33.65,8.05,33.52,8.14L33.52,8.14z M33.52,8.15
	c-0.02-0.02-0.05-0.04-0.07-0.05c-0.09-0.01-0.17,0-0.26,0c-0.12,0-0.25-0.01-0.37-0.01c-0.1,0-0.2-0.01-0.3-0.01
	c-0.03,0-0.05,0.02-0.08,0.03c0.02,0.02,0.04,0.03,0.05,0.03c0.31,0.01,0.62,0.02,0.93,0.03C33.45,8.16,33.48,8.15,33.52,8.15
	L33.52,8.15z M22.91,7.92c-0.13-0.01-0.26-0.01-0.4-0.01c-0.22,0.01-0.45,0.03-0.67,0.04c-0.06,0-0.12,0-0.18,0
	c-0.02,0-0.04,0.02-0.06,0.03C22.04,7.97,22.48,8.03,22.91,7.92z M15.54,8.7c-0.08,0.02-0.16,0.06-0.25,0.08
	c-0.1,0.02-0.19,0.03-0.29,0.04c-0.02,0-0.03,0.02-0.05,0.03c0,0.01,0,0.01,0.01,0.02c0.09-0.02,0.19-0.04,0.28-0.05
	c0.1-0.01,0.2-0.03,0.29-0.08c0.01-0.01,0.03,0,0.04,0c0.04,0,0.09-0.01,0.14-0.02c0.08-0.01,0.15-0.03,0.22-0.05
	c0.04-0.01,0.07-0.03,0.11-0.04c0-0.01-0.01-0.02-0.01-0.03c-0.09,0.05-0.21-0.01-0.27,0.07C15.68,8.69,15.61,8.69,15.54,8.7z
	 M25.21,9.94c0,0.18,0,0.37,0,0.56c0,0.02,0.01,0.06,0.02,0.06c0.03,0,0.06,0,0.08-0.01c0.01,0,0.02-0.03,0.02-0.05
	c-0.01-0.15-0.01-0.29-0.02-0.44c0-0.06,0-0.13,0-0.2C25.26,9.87,25.21,9.87,25.21,9.94z M30.59,8.05c0.1,0.01,0.2,0.03,0.31,0.04
	c0.1,0.01,0.21,0.01,0.31,0.02c0.1,0,0.21-0.02,0.31,0c0.16,0.02,0.25,0.03,0.31-0.04c-0.11-0.01-0.22-0.02-0.32-0.02
	c-0.14,0-0.29,0.02-0.43,0C30.91,8.03,30.75,8.05,30.59,8.05L30.59,8.05z M24.49,7.89c-0.03,0-0.06,0.01-0.08,0.01
	c-0.23,0.01-0.46,0.01-0.7,0.02c-0.01,0-0.02,0-0.03,0c-0.13-0.05-0.26-0.03-0.4,0.01c0.14,0.01,0.28,0.02,0.41,0.02
	c0.24,0,0.47-0.02,0.71-0.03c0.01,0,0.03,0,0.04,0C24.46,7.91,24.48,7.9,24.49,7.89L24.49,7.89z M16.91,8.46
	c0.12-0.01,0.24-0.01,0.35-0.02c0.14-0.02,0.27-0.05,0.41-0.08c-0.26-0.05-0.51,0.06-0.76,0.07C16.91,8.45,16.91,8.45,16.91,8.46z
	 M16.32,8.58c0.12-0.02,0.25-0.03,0.37-0.04c0.04-0.01,0.08-0.04,0.12-0.06c0-0.01-0.01-0.01-0.01-0.02
	c-0.23,0.04-0.47,0.08-0.7,0.12c0.02,0.03,0.03,0.04,0.04,0.05C16.21,8.62,16.26,8.59,16.32,8.58z M30.01,10.18
	c-0.15,0-0.3,0.01-0.45,0.02c-0.03,0-0.05,0.04-0.08,0.07c0.17,0,0.31,0,0.46,0c0.03,0,0.06-0.03,0.09-0.05
	C30.01,10.19,30.01,10.18,30.01,10.18z M14.39,9.08c0.17-0.05,0.35-0.11,0.52-0.16c-0.03-0.02-0.06-0.04-0.08-0.03
	C14.69,8.92,14.55,8.96,14.41,9C14.4,9.01,14.4,9.05,14.39,9.08L14.39,9.08z M14.39,9.08c-0.04-0.01-0.09-0.04-0.12-0.03
	c-0.15,0.03-0.29,0.08-0.41,0.15c-0.01,0.01-0.01,0.03-0.02,0.04v0C14.02,9.18,14.21,9.13,14.39,9.08L14.39,9.08z M24.49,7.89
	c0.05,0.01,0.09,0.04,0.14,0.04c0.08,0,0.17-0.01,0.25-0.01c0.14,0,0.28,0,0.41,0c0-0.01,0-0.02,0-0.03
	C25.03,7.89,24.76,7.89,24.49,7.89C24.49,7.89,24.49,7.89,24.49,7.89z M10.92,10.44c0-0.01,0-0.02-0.01-0.02
	c-0.05,0.02-0.1,0.03-0.15,0.06c-0.05,0.02-0.09,0.06-0.14,0.07c-0.07,0.02-0.12,0.05-0.15,0.15C10.64,10.6,10.78,10.52,10.92,10.44
	z M25.89,7.9c-0.15,0-0.28,0-0.42,0C25.83,7.96,25.83,7.96,25.89,7.9z M12.38,9.73c0.11-0.03,0.22-0.06,0.34-0.09
	c0-0.01,0-0.02,0-0.03c-0.02-0.01-0.04-0.02-0.06-0.02c-0.09,0.04-0.19,0.08-0.28,0.12C12.37,9.71,12.37,9.72,12.38,9.73z
	 M11.15,10.28c-0.09,0.03-0.16,0.06-0.25,0.09C11,10.43,11.09,10.4,11.15,10.28z M13.49,9.32c-0.13-0.05-0.23,0.1-0.37,0.06
	c0.02,0.03,0.03,0.05,0.04,0.05c0.11-0.03,0.23-0.05,0.34-0.08C13.5,9.34,13.49,9.33,13.49,9.32z M13.83,9.23
	c-0.03-0.01-0.07-0.04-0.09-0.04c-0.07,0.01-0.13,0.04-0.19,0.06c0.04,0.02,0.08,0.04,0.12,0.03C13.73,9.28,13.78,9.25,13.83,9.23
	C13.83,9.23,13.83,9.23,13.83,9.23z M12.86,9.55c0.05-0.01,0.09-0.01,0.13-0.02c0.04-0.01,0.07-0.04,0.11-0.06
	C13.02,9.45,12.9,9.48,12.86,9.55z M29.26,9.64c-0.01,0-0.03,0.02-0.05,0.04c0.02,0.02,0.04,0.04,0.06,0.05
	c0.01,0,0.04-0.02,0.07-0.04C29.31,9.67,29.29,9.65,29.26,9.64z M25.3,9.64c-0.01,0-0.03,0.03-0.04,0.05
	c0.02,0.01,0.04,0.03,0.06,0.04c0.01,0,0.03-0.02,0.07-0.04C25.35,9.66,25.33,9.65,25.3,9.64z M5.16,5.28L5.16,5.28L5.16,5.28z
	 M6.27,5.66C6.32,5.58,6.4,5.51,6.38,5.4c0-0.01,0.01-0.03,0.01-0.04c0-0.02,0-0.05-0.01-0.07c0-0.01-0.04-0.02-0.04-0.01
	C6.32,5.29,6.31,5.32,6.3,5.33c0,0.04,0,0.09,0,0.14c0,0.01,0,0.02,0,0.03c-0.03,0-0.04-0.01-0.08-0.01c0,0.06,0.01,0.12,0.01,0.17
	C6.25,5.66,6.26,5.66,6.27,5.66z M5.54,6.6c0,0.01,0.06-0.01,0.09-0.02C5.62,6.56,5.62,6.53,5.61,6.53
	C5.55,6.54,5.55,6.48,5.54,6.46C5.5,6.39,5.46,6.35,5.39,6.42C5.37,6.44,5.34,6.44,5.3,6.45C5.38,6.51,5.49,6.5,5.54,6.6z M5.16,6.3
	c0.11-0.07,0.02-0.17,0.03-0.25c0-0.02-0.07-0.05-0.12-0.07C5.07,5.99,5.06,6,5.05,6.01c0.02,0.04,0.02,0.08,0.05,0.1
	C5.16,6.17,5.16,6.23,5.16,6.3L5.16,6.3z M6.11,6.02C6.19,6.1,6.33,6.13,6.38,6.06C6.29,6.04,6.2,6.02,6.12,6
	C6.12,6.01,6.11,6.01,6.11,6.02z M5.73,6.01C5.72,6.01,5.72,6,5.71,6C5.68,6.05,5.65,6.11,5.62,6.17c0.04,0.02,0.06,0.03,0.11,0.05
	C5.73,6.14,5.73,6.07,5.73,6.01z M5.84,6.44C5.82,6.36,5.8,6.26,5.67,6.27c0.05,0.06,0.11,0.12,0.16,0.18
	C5.83,6.45,5.83,6.44,5.84,6.44z M5.14,5.56C5.03,5.63,5.01,5.65,5.04,5.78c0.04-0.07,0.09-0.14,0.13-0.2
	C5.16,5.57,5.15,5.57,5.14,5.56z M5.78,5.3C5.7,5.2,5.62,5.17,5.56,5.24C5.63,5.26,5.7,5.28,5.78,5.3z M6.02,6.27
	C6.03,6.25,6.04,6.23,6.05,6.2C6.03,6.18,6.01,6.15,5.97,6.1C5.92,6.21,5.93,6.23,6.02,6.27z M5.49,6.05
	c0.03-0.06,0.05-0.1,0.08-0.15C5.45,5.93,5.43,5.96,5.49,6.05z M5.38,5.69C5.35,5.72,5.33,5.75,5.3,5.77
	c0.01,0.01,0.01,0.01,0.02,0.02c0.04-0.02,0.07-0.04,0.12-0.07C5.41,5.71,5.39,5.69,5.38,5.69z"/>
</svg>
