<!-- Generator: Adobe Illustrator 23.0.4, SVG Export Plug-In  -->
<svg version="1.1" xmlns="http://www.w3.org/2000/svg" xmlns:xlink="http://www.w3.org/1999/xlink" x="0px" y="0px"
	 width="295.628px" height="93.264px" viewBox="0 0 295.628 93.264" enable-background="new 0 0 295.628 93.264"
	 xml:space="preserve">
<defs>
</defs>
<path fill="#868789" d="M178.509,52.569c-4.159,0.406-7.374,0.64-10.809-0.174c1.176-7.04,2.064-13.756,3.502-20.353
	c0.669-3.071,0.389-5.281-2.452-7.257c-5.074,0.881-6.898,4.877-7.988,9.135c-1.545,6.035-2.631,12.187-3.983,18.617
	c-3.898,0-7.632,0-11.718,0c1.229-8.243,1.714-16.445,5.948-23.658c-1.571-2.609-3.699-3.516-6.369-4.097
	c-5.023,2.773-6.069,7.854-7.609,12.829c-1.461,4.721-0.603,9.906-3.854,14.997c-2.084,0.957-5.025,0.035-8.849,0.314
	c0.258-12.474,4.81-23.715,5.357-35.458c1.35-0.364,2.105-0.711,2.874-0.746c1.886-0.086,3.778-0.028,4.902-0.028
	c2.278,1.121,1.317,3.039,2.542,4.001c1.95-1.36,3.928-2.74,5.93-4.137c3.369,0,6.656,0,9.846,0c2.617,0.762,4.059,2.846,5.95,4.793
	c4.362-4.503,9.695-5.896,16.065-4.541c3.396,1.611,4.414,4.662,4.632,8.574c0.342,6.141-1.718,11.896-2.377,17.867
	C179.735,46.107,178.909,49.07,178.509,52.569z M37.777,31.715c1.743,7.139-0.698,14.203,2.43,21.199
	c3.288-0.355,6.516,0.704,10.135-0.909c5.394-11.275,10.902-22.787,16.629-34.757c-4.042-0.752-7.226-0.911-10.859,0.114
	c-2.766,6.616-5.584,13.356-8.637,20.657c-2.86-7.309-1.477-14.333-2.891-20.929c-3.148-0.521-5.809-0.936-8.645,0.624
	c-3.26,6.934-6.594,14.026-9.928,21.117c-0.327-0.006-0.654-0.012-0.98-0.019c0-7.272,0-14.544,0-22.129
	c-4.812,0.307-8.845-0.948-12.535,1.04c1.173,11.83,2.299,23.193,3.447,34.775c4.153,0.683,7.905,0.498,12.037,0.162
	C31.205,45.763,34.399,38.936,37.777,31.715z M229.975,49.6c1.084,1.204,1.935,2.149,2.768,3.074
	c2.526,0.252,4.973,0.675,8.025-0.797c1.458-11.317,4.763-22.751,5.972-35.476c-4.144,0.79-7.398-0.705-10.02,1.016
	c-1.373,1.525-1.266,2.938-1.536,4.271c-1.194,5.883-1.533,11.982-3.985,17.557c-2.03,4.616-3.091,5.078-9.247,4.714
	c-1.493-4.486-0.129-8.978,0.61-13.452c0.734-4.436,1.614-8.848,2.464-13.453c-4.063,0-7.251,0-10.276,0
	c-4.347,11.433-8.758,22.446-5.087,34.148C217.326,55.714,223.875,54.696,229.975,49.6z M154.675,78.095
	c0,0-0.137-0.201-0.411-0.602c-2.827-1.108-1.769-3.439-1.536-5.36c0.185-1.53,0.854-3.001,1.307-4.498l0.235,0.228
	c-3.709,0.771-3.17,5.55-6.445,6.169c0,2.789,0,4.969,0,6.548c4.58,6.881,9.035,13.133,19.217,12.659
	c15.837-4.075,20.802-13.422,12.886-26.326c-0.485,0.591-0.97,1.182-1.756,2.139c-4.809-3.721-10.132-6.123-16.595-4.029
	c-5.006,2.605-6.88,7.27-7.534,12.671C154.576,78.184,154.787,78.318,154.675,78.095z M106.806,84.14c0,0,0.512-0.065,0.512-0.065
	c0-0.001,0.515,0.027,0.515,0.027c3.898,0.967,5.284,5.591,10.844,6.615c0.089,0.004,1.733,0.184,3.371,0.142
	c1.626-0.042,3.246-0.308,4.869-0.476c2.575-0.771,2.989-4.297,5.797-4.483c1.235-1.362,0.637-3.041,0.731-3.955
	c-0.207,0.881,0.581,2.595-0.791,3.903c0.038,1.126,0.075,2.253,0.113,3.379c0,0-0.219-0.206-0.219-0.206
	c0.533-0.003,1.273,0.222,1.567-0.044c6.098-5.531,6.709-14.112,1.664-20.442c-4.692-5.886-11.027-6.484-17.742-5.626
	c-9.96,1.273-15.426,11.267-11.745,21.198C106.292,84.106,106.806,84.14,106.806,84.14z M250.771,43.9
	c-1.439,2.303-3.106,4.546-2.093,7.609c6.696,3.826,13.532,3.372,20.646,0.506c2.151-1.729,4.469-3.591,6.958-5.592
	c0.447-3.094,1.184-6.324-0.558-9.299c-3.311-4.52-10.04-5.175-12.574-10.886c4.532-3.605,9.567,0.099,13.686-1.867
	c1.305-2.034,1.683-4.076,1.868-6.381c-3.527-2.492-7.503-1.522-11.193-1.538c-10.209-0.044-13.298,2.675-15.524,12.795
	c0.701,7.056,7.878,7.955,11.094,11.738c0.632,1.692,0.496,2.742-0.263,4.286C258.284,47.557,254.693,44.617,250.771,43.9z
	 M294.313,52.021c0,0-0.775,0.005-0.775,0.005s0.772-0.042,0.771-0.042c-0.001-0.001,0.207-0.746,0.207-0.746
	c0.053-1.907,0.379-3.842-0.7-6.022c-3.12,11.385-10.181,18.348-21.835,19.076c-11.218,0.701-22.369,2.33-33.684,1.967
	c-13.476-0.432-26.973-0.235-40.46-0.216c-1.78,0.003-3.871-0.824-5.29,1.124c3.175,4.767,3.444,4.929,9.917,5.033
	c23.625,0.38,47.246,0.03,70.669-3.254c9.72-1.363,18.715-4.904,21.381-16.175C294.513,52.771,294.314,52.021,294.313,52.021z
	 M124.626,0.387c-4.048-0.168-7.189-0.805-10.743,0.7c-2.992,17.002-6.875,33.857-9.48,51.463c3.768,0,6.68,0,10.675,0
	C118.051,34.987,122.053,18.137,124.626,0.387z M93.987,72.177c0.675-2.178,2.721-3.334,2.856-5.761c-24.18,0-48.205,0-72.564,0
	c0.827,1.028,1.32,1.64,2.382,2.96c-9.255,0-17.958,0-26.661,0C31.245,73.88,62.469,72.062,93.987,72.177z M200.602,34.989
	c1.068-5.961,3.423-11.79,2.504-18.136c-3.532-0.096-6.505-0.738-9.313,0.48c-2.907,8.588-6.419,29.373-5.909,35.111
	c2.601,0.843,5.303,0.418,9.452,0.284C198.46,46.635,199.557,40.816,200.602,34.989z M194.364,6.876
	c0.552,1.196,1.223,2.649,1.806,3.913c4.764,0.892,4.764,0.892,8.944-0.174c2.704-6.217,2.704-6.217-2.97-10.614
	C197.359,0.259,195.033,2.46,194.364,6.876z M294.705,51.049c-0.155,0-0.307,0.216-0.457,0.649c-0.148,0.43,0.014,0.854,0.489,1.274
	l-0.224-0.201c0.391-0.269,1.079-0.507,1.111-0.814c0.062-0.594-0.481-0.852-1.107-0.719L294.705,51.049z M156.006,66.16
	c0.173-0.294,0.346-0.589,0.456-0.776c-0.166,0.126-0.431,0.328-0.696,0.53L156.006,66.16z M154.27,67.862
	c0.186-0.968,0.817-1.483,1.737-1.702l-0.24-0.246c-0.577,0.573-1.155,1.147-1.732,1.72L154.27,67.862z M100.923,32.258
	c-5.726,7.707-14.975,6.694-23.671,7.477c4.214,6.882,5.975,7.239,18.394,4.021c1.406,1.807,1.365,4.088,1.97,6.125
	c-0.323,0.505-0.506,1.194-0.917,1.376c-6.665,2.961-13.448,4.286-20.639,1.767c-5.848-2.049-8.825-6.139-9.407-12.161
	c-0.636-6.587,0.897-12.515,5.327-17.577c4.003-4.575,8.782-7.36,15.105-6.912c2.186,0.155,4.394,0.025,5.988,0.025
	c3.782,0.842,5.831,3.008,7.859,5.732C101.884,25.619,101.728,28.611,100.923,32.258z M92.1,25.957
	c-3.68-1.921-6.552-1.431-9.31-0.985c-2.283,1.321-3.952,2.918-4.282,5.94C83.474,31.381,88.392,32.283,92.1,25.957z"/>
</svg>
