<!-- Generator: Adobe Illustrator 19.2.1, SVG Export Plug-In  -->
<svg version="1.1"
	 xmlns="http://www.w3.org/2000/svg" xmlns:xlink="http://www.w3.org/1999/xlink" xmlns:a="http://ns.adobe.com/AdobeSVGViewerExtensions/3.0/"
	 x="0px" y="0px" width="228.7px" height="84.5px" viewBox="0 0 228.7 84.5" enable-background="new 0 0 228.7 84.5"
	 xml:space="preserve">
<defs>
</defs>
<path fill='#868789' fill-rule="evenodd" clip-rule="evenodd" d="M110.7,18.7c2.3-3.3,5.2-4.6,8.9-4.4c4.8,0.3,8.3,3.6,8.3,8.4
	c0.1,13.1,0.1,26.2,0,39.3c0,3.8-2.2,6.7-5.5,7.9c-3.7,1.4-7.9,0.5-10.4-2.3c-0.4-0.4-0.7-0.8-1.2-1.4c-0.1,0.6-0.1,1-0.1,1.4
	c0,4.7,0,9.4,0,14.1c0,2.2-0.6,2.8-2.8,2.8c-4.8,0-4.8,0-4.8-4.7V18.5c0-3.2,0.3-3.5,3.5-3.5h0.5C110.3,15.1,110.5,15.3,110.7,18.7
	 M120.4,42.5c0-5.4,0.1-10.8,0-16.2c0-4-3.4-6.4-6.9-4.9c-2.2,1-2.9,2.9-2.9,5.1c0,3.1,0,6.3,0,9.4c0,7.4,0,14.9,0,22.3
	c0,3.9,2.5,6.1,6,5.4c2.4-0.4,3.8-2.4,3.8-5.3C120.5,53,120.4,47.7,120.4,42.5 M76.8,66.1c0,5.5,0,10.5,0,15.5c0,2.4-0.6,3-3,3
	c-4.5,0-4.6,0-4.6-4.5V19.2c0-0.7,0-1.5,0.1-2.2c0.7-3,3.2-1.6,4.9-1.8c1.4-0.2,2.4,0.4,2.5,2c0,0.4,0.1,0.8,0.1,1.4
	c0.5-0.5,0.9-0.9,1.2-1.3c2.7-2.9,6.8-3.8,10.6-2.3c3.5,1.4,5.5,4.4,5.5,8.7c0,12.5,0,24.9,0,37.4c0,4.4-2.1,7.6-5.7,8.9
	c-4.1,1.5-8.1,0.4-11-3.1C77.4,66.7,77.2,66.5,76.8,66.1 M86.6,42.4c0-5.3,0-10.7,0-16c0-2.9-1.5-4.9-3.8-5.4
	c-3.3-0.7-5.9,1.6-6,5.3c-0.1,3.7,0,7.3,0,11c0,6.9,0,13.8,0,20.8c0,3,1.4,5,3.6,5.5c3.5,0.8,6.1-1.3,6.2-5.1
	C86.6,53.1,86.6,47.8,86.6,42.4 M35.5,42.3c0-5.7-0.1-11.4,0-17.1c0.1-5.5,3.1-9.7,8.1-10.6c2.8-0.5,5.8-0.5,8.6,0
	c4.9,0.9,7.9,4.9,8,10.4c0.2,5.8,0.1,11.6,0.1,17.5c0,1.8-0.7,2.4-2.7,2.4c-4.1,0-8.3,0-12.4,0c-2.1,0-2.3,0.2-2.3,2.2
	c0,3.6,0,7.1,0,10.7c0,1.9,0.4,3.8,2,5c1.6,1.2,3.4,1.3,5.1,0.5c1.7-0.8,2.5-2.3,2.6-4.2c0.1-1.9,0-3.8,0.1-5.8
	c0-2.1,0.7-2.7,2.7-2.7c4.9-0.1,5-0.1,4.9,4.9c-0.1,2.5-0.1,5.2-0.7,7.6c-1.1,4.2-4,6.8-8.4,7.2c-1.9,0.2-3.8,0.3-5.7,0.1
	c-6.2-0.6-9.9-4.6-10-10.9C35.4,53.8,35.5,48.1,35.5,42.3 M52.7,31.2L52.7,31.2c0-1.9,0.1-3.7,0-5.6c-0.2-3.8-4.1-5.9-7.3-4
	c-1.7,1-2.3,2.8-2.4,4.6c-0.1,3.5,0,7,0,10.5c0,1,0.5,1.5,1.5,1.5c2.3,0,4.6,0,7,0c1,0,1.3-0.4,1.3-1.4C52.7,34.9,52.7,33,52.7,31.2
	 M137.1,42.3c0-6-0.3-12.1,0.1-18.1c0.4-5.8,5-9.7,10.8-9.8c2.2,0,4.5,0.1,6.5,0.7c4.4,1.4,7.2,5.5,7.3,10.6c0.1,5.5,0,11.1,0,16.6
	c0,2-0.6,2.6-2.6,2.6c-4.2,0-8.4,0-12.6,0c-1.6,0-2.2,0.5-2.1,2.1c0.1,4,0,7.9,0.1,11.9c0.1,3.6,2.9,5.5,6.2,4.7
	c2-0.5,3.4-2.4,3.5-5.1c0.1-1.9,0-3.7,0-5.6c0-1.6,0.7-2.3,2.3-2.3c5.2-0.1,5.2-0.2,5.1,4.9c0,2,0.1,4.1-0.3,6.1
	c-1.3,6.3-6.8,9.7-13.8,8.8c-6.8-0.8-10.7-5.3-10.8-12.3c0-5.3,0-10.6,0-15.9H137.1z M154.3,31.3L154.3,31.3c0-1.8,0.1-3.6,0-5.4
	c-0.2-3.1-2.2-5-5-5c-2.8,0-4.7,2-4.8,5.1c-0.1,3.5,0,7-0.1,10.5c0,1.2,0.5,1.6,1.7,1.6c2.2,0,4.3-0.1,6.4,0c1.3,0,1.7-0.5,1.7-1.8
	C154.3,34.7,154.3,33,154.3,31.3 M211.5,18.7c-0.3-3.4-0.5-3.6-3.5-3.6h-0.9c-2.7,0-3.1,0.4-3.1,3.1c0,15.7,0,31.4,0,47.1
	c0,4.3,0,4.3,4.2,4.3c3,0,3.2-0.3,3.2-3.3c0-13,0-26,0-38.9c0-1,0.1-2,0.4-2.9c0.9-3.1,4.4-4.5,7.1-2.8c1.8,1.2,2.3,3,2.3,5
	c0,12.6,0,25.3,0,37.9c0,5.1,0,5.1,5.1,5.1c1.9,0,2.5-0.6,2.5-2.5c0-14.7,0-29.4,0-44c0-5.1-3.6-8.6-8.7-8.8
	C216.5,14.1,213.8,15.6,211.5,18.7 M8.6,63c0.3-0.8,0.6-1.4,0.8-2C15.3,48.5,21.1,35.9,27,23.4c0.8-1.8,1.3-3.6,1.2-5.5
	c-0.1-2.2-0.7-2.8-2.8-2.8c-7.2,0-14.4,0-21.7,0c-2.5,0-2.9,0.5-2.9,3.4c0,2.9,0.4,3.3,3,3.3c5.2,0,10.4,0,15.8,0
	c-0.4,0.8-0.6,1.4-0.9,2c-6,13-12.1,25.9-18,38.9c-0.7,1.6-0.6,3.6-0.5,5.4c0,0.5,1.1,1.3,1.8,1.4c1.4,0.2,2.9,0.1,4.4,0.1
	c6.7,0,13.4,0,20.1,0c2.1,0,2.5-0.5,2.5-2.6c0-0.4,0-0.7,0-1.1c0-2.6-0.5-3-3.1-3C20.2,63,14.5,63,8.6,63 M170.8,64.9
	c0,4.7,0,4.7,4.7,4.7c2.3,0,2.8-0.6,2.8-2.9c0-21.2,0-42.4,0-63.5c0-2.3-0.6-2.9-2.8-3c-0.5,0-0.9,0-1.4,0c-2.9,0-3.4,0.5-3.4,3.3
	v31.4V64.9z M187.4,65.2c0,4.4,0,4.4,4.4,4.4c2.7,0,3.1-0.4,3.1-3.1v-47c0-4.4,0-4.4-4.3-4.4c-2.7,0-3.2,0.4-3.2,3.1v24.1V65.2z
	 M194.9,5.1c0-5-0.7-5.6-5.6-4.9c-1.4,0.2-1.9,0.9-2,2.2V8c0,1.4,0.7,2.2,2.1,2.2C194.6,10.2,195.1,10.8,194.9,5.1"/>
</svg>
