<!-- Generator: Adobe Illustrator 18.1.1, SVG Export Plug-In  -->
<svg version="1.1"
	 xmlns="http://www.w3.org/2000/svg" xmlns:xlink="http://www.w3.org/1999/xlink" xmlns:a="http://ns.adobe.com/AdobeSVGViewerExtensions/3.0/"
	 x="0px" y="0px" width="51.41px" height="47.82px" viewBox="0 0 51.41 47.82" enable-background="new 0 0 51.41 47.82"
	 xml:space="preserve">
<defs>
</defs>
<path fill="#868789" d="M34.32,23.89c0.21-0.2,0.49-0.45,0.78-0.73c0.3-0.28,0.62-0.59,0.94-0.93c0.29-0.28,0.42-0.38,0.43-0.32
	c0.01,0.05-0.09,0.25-0.3,0.53c-0.2,0.28-0.51,0.64-0.89,1c-0.38,0.36-0.85,0.72-1.34,1.02c-0.13,0.03-0.15-0.02-0.08-0.12
	C33.94,24.24,34.1,24.09,34.32,23.89z M18.98,23.08c0.25,0.2,0.42,0.3,0.34,0.18l-0.53-0.5l-0.52-0.52l-0.06,0.06
	C18.42,22.56,18.74,22.88,18.98,23.08z M37.14,5.46c0.26,0.21,0.36,0.26,0.18-0.02c-0.34-0.39-0.75-0.8-1.19-1.15
	c-0.43-0.37-0.88-0.68-1.28-0.93c-0.41-0.25-0.76-0.43-1-0.53c-0.24-0.1-0.35-0.13-0.29-0.06c0.09,0.1,0.45,0.32,0.91,0.62
	c0.46,0.31,1.01,0.7,1.5,1.09C36.46,4.86,36.88,5.24,37.14,5.46z M28.88,25.38c-0.44,0.07-0.91,0.14-1.35,0.18
	c-0.44,0.05-0.86,0.08-1.16,0.1c-0.31,0.03-0.5,0.05-0.52,0.09c-0.01,0.04,0.16,0.1,0.6,0.14c0.96,0.05,1.74-0.04,2.32-0.16
	s0.97-0.27,1.17-0.37c0.19-0.1,0.2-0.16,0.03-0.15C29.8,25.22,29.44,25.29,28.88,25.38z M21.16,24.39c0.3,0.19,0.62,0.37,0.94,0.53
	l-1.75-1.11C20.59,24,20.87,24.2,21.16,24.39z M22.09,24.69c-0.29-0.14-0.39-0.2-0.5-0.27c-0.11-0.07-0.23-0.15-0.56-0.34
	c-0.28-0.12-0.46-0.21-0.24-0.01c0.42,0.27,0.73,0.43,0.95,0.52C21.95,24.68,22.06,24.7,22.09,24.69z M20.67,4.75
	c-0.04,0.04-0.09,0.09-0.07,0.1L20.67,4.75z M19.28,22.84l-1.15-1.42c0.11,0.19,0.29,0.43,0.49,0.68
	C18.83,22.35,19.06,22.61,19.28,22.84z M9.3,35.34c0.37,0.43,0.56,1.08,0.56,1.96v0.16l-0.01,0.16H6.32
	c0.04,0.54,0.2,0.94,0.47,1.22c0.27,0.27,0.69,0.41,1.27,0.41c0.32,0,0.59-0.03,0.81-0.08c0.22-0.06,0.39-0.11,0.5-0.17l0.13,0.77
	c-0.11,0.06-0.31,0.12-0.59,0.19c-0.28,0.06-0.59,0.1-0.95,0.1c-0.45,0-0.84-0.07-1.17-0.2c-0.32-0.14-0.59-0.33-0.8-0.56
	c-0.21-0.24-0.37-0.52-0.48-0.84c-0.1-0.33-0.15-0.68-0.15-1.07c0-0.45,0.07-0.85,0.2-1.18c0.13-0.35,0.31-0.63,0.53-0.85
	c0.21-0.22,0.47-0.39,0.75-0.5c0.28-0.12,0.57-0.17,0.87-0.17C8.4,34.69,8.93,34.91,9.3,35.34z M8.9,36.89
	c0-0.42-0.1-0.76-0.32-1.02c-0.21-0.27-0.5-0.4-0.88-0.4c-0.21,0-0.4,0.04-0.56,0.13c-0.16,0.07-0.3,0.18-0.41,0.31
	c-0.11,0.13-0.2,0.28-0.27,0.45c-0.06,0.18-0.1,0.35-0.12,0.53H8.9z M10.94,14.83c0,0.51,0.02,0.9,0.06,1.16
	c0.02,0.01,0.02-0.14,0.02-0.29c-0.01-0.38-0.02-0.62-0.03-0.75S10.96,14.79,10.94,14.83z M16.03,16.18
	c-0.02,0.18-0.01,0.51-0.02,0.65c0.09,0.56,0.23,1.12,0.42,1.63s0.41,0.97,0.62,1.33c0.22,0.36,0.42,0.63,0.56,0.77
	c0.13,0.13,0.21,0.15,0.18,0c-0.06-0.14-0.21-0.41-0.33-0.67c-0.12-0.25-0.22-0.5-0.22-0.58c0.18,0.31,0.32,0.48,0.4,0.54
	c0.08,0.07,0.1,0.03,0.07-0.08c-0.04-0.23-0.27-0.78-0.49-1.48c-0.32-0.85-0.5-1.65-0.61-2.34c-0.1-0.68-0.14-1.27-0.18-1.68
	c-0.06-0.12-0.15,0-0.22,0.36c-0.06,0.36-0.11,0.96-0.02,1.77c-0.05-0.22-0.08-0.32-0.1-0.34C16.06,16.04,16.05,16.09,16.03,16.18z
	 M40.11,8.61c0.33,0.61-0.03-0.24-0.31-0.74c-0.03-0.01-0.06-0.01-0.02,0.08C39.82,8.05,39.92,8.24,40.11,8.61z M1.78,38.12
	c0.27-0.37,0.53-0.72,0.78-1.06l0.74-0.91c0.23-0.28,0.41-0.49,0.55-0.64v-0.69H0.14v0.77h2.54c-0.18,0.21-0.39,0.47-0.63,0.77
	c-0.24,0.31-0.49,0.63-0.74,0.98c-0.25,0.34-0.49,0.68-0.73,1.03C0.35,38.72,0.16,39.04,0,39.33v0.61h3.93v-0.77H1.1
	C1.3,38.84,1.52,38.48,1.78,38.12z M11.51,11.69c-0.18,0.81-0.23,1.46-0.25,1.91c-0.01,0.46,0.02,0.71,0.06,0.75
	c0.03,0.05,0.06-0.12,0.11-0.5c0.04-0.39,0.1-1,0.25-1.84c0.04-0.42,0.07-0.67,0.04-0.72C11.7,11.23,11.62,11.36,11.51,11.69z
	 M30.08,2.57l0.89,0.31C30.73,2.78,30.47,2.68,30.08,2.57z M13.98,7.87c-0.12,0.14-0.26,0.34-0.34,0.43L13.98,7.87z M29.03,2.5
	c-0.46-0.04-0.81-0.03-0.97,0.02c-0.33-0.03-0.57-0.04-0.75-0.03c-0.19,0-0.32,0.01-0.42,0.02c-0.19,0.03-0.27,0.07-0.45,0.11
	c0.55-0.01,1,0.02,1.43,0.05c0.43,0.03,0.84,0.08,1.32,0.14l0.82,0.22c0.33,0.09,0.7,0.2,1.07,0.33c0.37,0.13,0.74,0.27,1.08,0.42
	c0.34,0.14,0.65,0.29,0.9,0.41C32.79,4,32.99,4.07,33.27,4.2c0.28,0.13,0.63,0.33,0.67,0.33c-0.01,0-0.14-0.1-0.28-0.2l-0.29-0.22
	C33.24,3.97,33.7,4.2,33.44,4c-0.34-0.18-0.62-0.32-0.87-0.43l-0.62-0.28c-0.37-0.16-0.66-0.3-1.08-0.46l0.1,0.05l-0.34-0.11
	C30.05,2.63,29.49,2.54,29.03,2.5z M15.26,44.91l-0.17-0.02l-0.14-0.01c-0.22,0-0.42,0.02-0.6,0.06c-0.18,0.03-0.33,0.07-0.45,0.12
	v2.69h0.51v-2.36l0.18-0.04c0.09-0.02,0.19-0.03,0.28-0.03c0.15,0,0.26,0.01,0.35,0.03c0.1,0.02,0.17,0.03,0.21,0.05l0.08-0.44
	l-0.1-0.02L15.26,44.91z M14.7,35.66l0.15-0.8l-0.18-0.04c-0.08-0.02-0.17-0.04-0.27-0.05c-0.1-0.02-0.2-0.03-0.31-0.04
	c-0.1-0.01-0.18-0.02-0.26-0.02c-0.41,0-0.77,0.03-1.09,0.11c-0.33,0.06-0.6,0.14-0.82,0.22v4.9h0.93v-4.31l0.32-0.06
	c0.17-0.04,0.34-0.06,0.52-0.06c0.26,0,0.48,0.02,0.64,0.06C14.5,35.6,14.62,35.63,14.7,35.66z M17.3,25.6
	c0.36,0.27,0.54,0.36,0.5,0.29c-0.04-0.08-0.31-0.32-0.78-0.77c-0.37-0.34-0.53-0.48-0.68-0.61c-0.16-0.14-0.32-0.27-0.65-0.67
	c0.01-0.05-0.15-0.26-0.38-0.58c-0.23-0.31-0.53-0.74-0.82-1.22c-0.29-0.47-0.56-0.98-0.76-1.45c-0.21-0.46-0.35-0.87-0.41-1.13
	c0.16,0.44,0.32,0.8,0.47,1.11c0.16,0.31,0.3,0.57,0.45,0.8c0.28,0.46,0.55,0.83,0.88,1.26c0.26,0.44,0.61,0.93,1.05,1.44
	c0.43,0.5,0.95,1.01,1.53,1.48c0.58,0.48,1.21,0.91,1.86,1.29s1.31,0.69,1.94,0.95c0.16,0.04,0.58,0.18,0.95,0.29
	c0.36,0.1,0.67,0.17,0.56,0.12c1.55,0.42,3.24,0.59,4.93,0.45c0.84-0.07,1.69-0.22,2.51-0.44c0.82-0.22,1.62-0.53,2.38-0.9
	c0.73-0.33,1.34-0.69,1.87-1.06c0.54-0.37,1-0.74,1.44-1.14c0.44-0.4,0.85-0.82,1.26-1.31c0.42-0.48,0.83-1.02,1.25-1.68
	c-0.03,0,0.08-0.18,0.23-0.45c0.54-0.92,0.97-1.95,1.24-2.92c0.27-0.97,0.39-1.89,0.41-2.58s-0.03-1.16-0.09-1.28
	c-0.03-0.06-0.07-0.04-0.1,0.09c-0.04,0.12-0.07,0.35-0.13,0.69c-0.11,0.99-0.32,1.98-0.65,2.96c-0.33,0.98-0.79,1.95-1.4,2.89
	c-0.24,0.37-0.53,0.74-0.85,1.11c-0.32,0.36-0.67,0.72-1.02,1.05c-0.19,0.19-0.49,0.49-0.69,0.65c-0.52,0.42-1.04,0.77-1.63,1.12
	c-0.59,0.34-1.24,0.68-2.05,1.02c-0.39,0.17-0.74,0.32-1.08,0.44c-0.33,0.13-0.64,0.24-0.96,0.33c-0.62,0.19-1.25,0.35-2.06,0.45
	c-0.54,0.07-1.19,0.09-1.87,0.06c-0.67-0.03-1.36-0.12-1.99-0.24l-0.4-0.06c-0.08-0.01-0.16-0.03-0.32-0.07
	c-0.61-0.15-1.4-0.41-2.19-0.78c-0.79-0.37-1.56-0.85-2.17-1.34l0.06-0.07c0.48,0.33,0.87,0.53,1.18,0.68
	c0.32,0.14,0.56,0.22,0.76,0.27c0.21,0.06,0.38,0.09,0.56,0.12c0.19,0.03,0.38,0.07,0.63,0.12c0.85,0.34,1.75,0.6,2.61,0.74
	c0.86,0.15,1.69,0.18,2.41,0.12c0.07,0-0.04-0.05,0.23-0.08l0.36-0.03l0.33-0.03c0.38-0.08,0.65-0.17,0.96-0.26l1.24-0.38
	c0.15-0.09-0.23,0-0.24-0.04c0.39-0.1,0.63-0.18,0.8-0.23c0.16-0.06,0.25-0.1,0.31-0.13c0.13-0.06,0.17-0.08,0.58-0.24l-0.22,0.06
	l0.2-0.11c-0.43,0.15-0.86,0.27-1.32,0.38c-0.45,0.1-0.93,0.2-1.45,0.27s-1.08,0.12-1.7,0.13s-1.31-0.02-2.06-0.13
	c0.34,0.03,0.37,0.01,0.3-0.01c-0.06-0.02-0.23-0.06-0.29-0.08c-0.32-0.05-0.67-0.12-1.05-0.21c-0.38-0.1-0.78-0.21-1.17-0.35
	c-0.77-0.28-1.52-0.64-2.06-0.96c-0.67-0.4-1.33-0.87-1.94-1.41c-0.6-0.54-1.17-1.16-1.66-1.82c-0.49-0.67-0.92-1.39-1.25-2.15
	c-0.34-0.75-0.6-1.54-0.77-2.33c-0.16-0.79-0.24-1.59-0.24-2.37c0-0.77,0.08-1.53,0.22-2.24c0.28-1.42,0.81-2.67,1.4-3.65
	c0.06-0.02,0.18-0.17,0.37-0.43c0.2-0.26,0.48-0.64,0.87-1.09C18.08,7,18.21,6.8,18.38,6.58c0.16-0.22,0.34-0.46,0.71-0.8
	c0.2-0.15,0.31-0.21,0.48-0.31c0.16-0.1,0.38-0.25,0.82-0.54l0.28-0.18l0.11-0.03c0.26-0.18,0.62-0.38,0.98-0.54
	c0.36-0.17,0.73-0.31,1-0.43c0.23-0.09,0.25-0.12,0.33-0.17c0.08-0.05,0.22-0.12,0.7-0.26c0.18-0.03,0.29-0.04,0.47-0.07l0.86-0.15
	c0.3-0.07,0.15-0.07-0.09-0.05c-0.23,0.02-0.55,0.07-0.59,0.04c0.07-0.05,0.37-0.11,0.71-0.16c0.33-0.04,0.68-0.07,0.84-0.11
	c-0.49,0.04-0.72,0.06-0.68,0.02c0.14-0.04,0.43-0.09,0.71-0.12c0.28-0.03,0.55-0.05,0.65-0.07c-0.17,0-0.38,0.01-0.56,0.02
	c-0.18,0.01-0.32,0.01-0.36,0.01c0.04-0.03,0.03-0.05-0.11-0.07c-0.13-0.01-0.39-0.02-0.82,0.02c0.15-0.03,0.64-0.1,0.98-0.13
	l0.37-0.04c0.04-0.01,0-0.01-0.2-0.01c-0.1,0.02-0.48,0.05-0.84,0.09c-0.37,0.04-0.73,0.09-0.79,0.08c0.29-0.08,0.64-0.15,1.01-0.21
	c0.36-0.06,0.73-0.1,1.08-0.13c0.24,0.01,0.39,0.04,0.54,0.06c0.16,0.03,0.34,0.05,0.63,0.08c0.29-0.04,0.74-0.05,1.18-0.03
	c-0.06-0.03-0.32-0.07-0.52-0.1c-0.19-0.03-0.33-0.05-0.17-0.07c0.24,0.02,0.28,0.01,0.47,0.03c0.43,0.05,0.59,0.1,0.73,0.14
	c0.15,0.04,0.29,0.08,0.67,0.17l0.12,0.01l0.34,0.09c0.2-0.02,0.29-0.06,0.43-0.06c0.15-0.02,0.36,0,0.82,0.11
	c-0.51-0.23-1.02-0.34-1.39-0.46c0.19-0.02-0.01-0.14-0.24-0.26s-0.49-0.23-0.4-0.28c0.83,0.15,1.63,0.39,2.28,0.61
	c0.64,0.23,1.12,0.44,1.33,0.49c-0.13-0.08-0.36-0.21-0.63-0.34s-0.58-0.27-0.87-0.39c-0.58-0.23-1.04-0.38-0.81-0.35
	c0.29,0.09,0.47,0.15,0.67,0.23l0.78,0.3c0.1,0.01,0.3,0.07,0.53,0.15c0.22,0.08,0.47,0.18,0.67,0.25c0.2,0.08,0.35,0.14,0.39,0.14
	c0.04-0.01-0.04-0.08-0.3-0.26c0.4,0.2,0.77,0.39,1.12,0.58c0.35,0.2,0.69,0.4,1.04,0.64c0.34,0.24,0.7,0.51,1.07,0.84
	c0.38,0.33,0.77,0.72,1.18,1.21c-0.2-0.2-0.31-0.29-0.35-0.3c-0.05-0.02-0.03,0.03,0.03,0.13c0.1,0.18,0.33,0.52,0.45,0.74
	c0.32,0.4,0.57,0.75,0.77,1.05c0.21,0.31,0.37,0.56,0.5,0.76c0.26,0.42,0.4,0.63,0.49,0.7c0.15,0.14,0.06-0.3-0.13-0.74
	c-0.2-0.36-0.33-0.57-0.45-0.75l-0.41-0.61c0.07,0.07,0.02-0.03-0.04-0.13c-0.06-0.1-0.12-0.2-0.04-0.14
	C38.34,5.71,37.68,4.95,37,4.31c-0.68-0.65-1.37-1.19-1.98-1.62c-0.62-0.43-1.15-0.75-1.5-0.97c-0.35-0.23-0.53-0.37-0.44-0.42
	c-0.33-0.16-0.49-0.25-0.74-0.37c-0.93-0.34-1.69-0.53-2.42-0.66c-0.72-0.13-1.41-0.19-2.19-0.21C27.02,0,26.42-0.02,25.78,0.01
	c-0.63,0.03-1.32,0.09-2.19,0.29c-0.07-0.02-0.38,0.01-0.78,0.09c-0.4,0.09-0.91,0.23-1.39,0.41c-0.49,0.18-0.94,0.39-1.27,0.56
	c-0.32,0.18-0.51,0.33-0.47,0.36c0.45-0.2,0.92-0.38,1.29-0.5c-0.39,0.2-0.78,0.42-1.18,0.67c-0.4,0.26-0.8,0.54-1.24,0.86
	c-0.43,0.32-0.89,0.68-1.38,1.11s-1.02,0.92-1.57,1.52C15.31,5.73,15.14,6,14.93,6.31l-0.35,0.54c-0.13,0.22-0.29,0.47-0.48,0.78
	l-0.12,0.24L13.84,8.1c-0.22,0.49-0.51,1.15-0.78,1.91c-0.27,0.76-0.5,1.62-0.65,2.5c-0.15,0.87-0.21,1.75-0.19,2.53
	c0.01,0.77,0.1,1.45,0.21,1.92c0.05,0.34,0.05,0.43,0.06,0.53c0,0.1,0,0.2,0.07,0.53c0.09,0.24,0.23,0.76,0.43,1.3
	c0.19,0.54,0.44,1.1,0.62,1.45c0.05,0.29-0.06,0.15-0.2-0.03c-0.13-0.19-0.28-0.43-0.32-0.33c-0.19-0.42-0.32-0.76-0.42-1.03
	c-0.11-0.26-0.18-0.44-0.23-0.54c-0.1-0.2-0.12-0.07-0.04,0.36c0.17,0.55,0.32,0.91,0.47,1.24c0.14,0.33,0.29,0.63,0.5,1.05
	c0.12,0.09,0.29,0.35,0.13-0.07c0.19,0.38,0.36,0.68,0.51,0.92c0.16,0.25,0.29,0.44,0.4,0.59c0.23,0.3,0.38,0.46,0.52,0.59
	c0.13,0.14,0.25,0.24,0.43,0.43l0.84,0.87c0.05-0.09-0.04-0.19-0.04-0.33C16.36,24.73,16.8,25.18,17.3,25.6z M37.66,45.51
	c0.04,0.13,0.06,0.28,0.06,0.43v1.77l-0.19,0.03l-0.26,0.03l-0.32,0.03c-0.11,0.01-0.22,0.01-0.34,0.01c-0.16,0-0.3-0.01-0.44-0.05
	c-0.13-0.03-0.25-0.08-0.35-0.15c-0.09-0.07-0.17-0.16-0.22-0.28c-0.06-0.11-0.09-0.25-0.09-0.41c0-0.16,0.03-0.3,0.1-0.41
	c0.06-0.11,0.15-0.2,0.26-0.27c0.11-0.07,0.23-0.12,0.38-0.15c0.14-0.03,0.3-0.05,0.46-0.05l0.15,0.01l0.16,0.02l0.13,0.03
	l0.07,0.01v-0.14c0-0.08-0.01-0.16-0.02-0.24c-0.02-0.09-0.05-0.16-0.1-0.22c-0.05-0.07-0.11-0.11-0.2-0.15
	c-0.08-0.04-0.18-0.06-0.31-0.06c-0.17,0-0.32,0.01-0.44,0.04c-0.13,0.02-0.22,0.04-0.28,0.07l-0.06-0.42
	c0.06-0.03,0.17-0.05,0.32-0.08c0.16-0.03,0.32-0.04,0.5-0.04c0.2,0,0.37,0.02,0.51,0.08c0.14,0.05,0.26,0.12,0.34,0.22
	C37.57,45.26,37.63,45.38,37.66,45.51z M37.22,46.51c-0.03-0.01-0.09-0.03-0.18-0.04c-0.08-0.01-0.17-0.02-0.29-0.02
	c-0.08,0-0.16,0-0.25,0.02c-0.08,0-0.16,0.03-0.23,0.06c-0.07,0.04-0.13,0.08-0.17,0.15c-0.05,0.05-0.07,0.13-0.07,0.23
	c0,0.18,0.05,0.31,0.17,0.38c0.12,0.07,0.27,0.1,0.47,0.1h0.32c0.09-0.01,0.17-0.02,0.23-0.04V46.51z M40.24,37.58
	c-0.14-0.12-0.3-0.22-0.49-0.31c-0.19-0.09-0.41-0.18-0.65-0.28c-0.19-0.06-0.35-0.12-0.48-0.18c-0.13-0.06-0.24-0.12-0.34-0.19
	c-0.08-0.07-0.15-0.15-0.19-0.24c-0.04-0.08-0.06-0.18-0.06-0.29c0-0.22,0.09-0.38,0.29-0.47c0.19-0.11,0.41-0.16,0.67-0.16
	c0.29,0,0.55,0.03,0.76,0.09c0.21,0.05,0.37,0.1,0.47,0.15l0.16-0.78l-0.22-0.07c-0.1-0.03-0.2-0.05-0.33-0.07
	c-0.13-0.03-0.26-0.05-0.41-0.06c-0.14-0.02-0.29-0.03-0.43-0.03c-0.58,0-1.04,0.13-1.38,0.4c-0.34,0.27-0.5,0.62-0.5,1.08
	c0,0.23,0.04,0.42,0.11,0.58c0.08,0.15,0.19,0.29,0.32,0.4s0.29,0.21,0.47,0.3l0.57,0.23c0.41,0.17,0.7,0.31,0.88,0.45
	c0.18,0.13,0.27,0.31,0.27,0.53c0,0.22-0.09,0.37-0.28,0.47c-0.18,0.1-0.45,0.15-0.83,0.15c-0.38,0-0.69-0.04-0.92-0.12l-0.5-0.18
	l-0.17,0.79c0.09,0.04,0.26,0.1,0.52,0.17c0.26,0.08,0.62,0.12,1.07,0.12c0.65,0,1.16-0.12,1.51-0.37c0.35-0.24,0.53-0.6,0.53-1.07
	c0-0.24-0.04-0.45-0.11-0.61C40.48,37.84,40.37,37.69,40.24,37.58z M35.06,35.86c0.07,0.24,0.1,0.5,0.1,0.79v3.2l-0.34,0.06
	l-0.47,0.06l-0.58,0.05c-0.21,0.01-0.41,0.03-0.62,0.03c-0.29,0-0.56-0.03-0.8-0.09c-0.25-0.06-0.46-0.15-0.63-0.28
	c-0.18-0.13-0.32-0.3-0.42-0.51s-0.15-0.46-0.15-0.76c0-0.28,0.06-0.52,0.17-0.73c0.12-0.2,0.28-0.36,0.48-0.49
	c0.19-0.12,0.42-0.21,0.69-0.27c0.26-0.06,0.54-0.09,0.83-0.09c0.09,0,0.19,0,0.29,0.02c0.1,0,0.19,0.02,0.27,0.04l0.24,0.04
	l0.14,0.02V36.7c0-0.15-0.02-0.3-0.05-0.44c-0.03-0.15-0.09-0.29-0.18-0.4c-0.08-0.12-0.2-0.21-0.35-0.27
	c-0.15-0.08-0.34-0.11-0.58-0.11c-0.3,0-0.57,0.02-0.8,0.07c-0.22,0.04-0.39,0.08-0.5,0.12l-0.11-0.75c0.11-0.06,0.31-0.1,0.59-0.15
	c0.28-0.05,0.58-0.08,0.9-0.08c0.37,0,0.68,0.05,0.93,0.15c0.26,0.09,0.46,0.23,0.61,0.4C34.88,35.41,35,35.62,35.06,35.86z
	 M34.26,37.68c-0.07-0.03-0.18-0.06-0.33-0.08c-0.14-0.02-0.32-0.04-0.53-0.04c-0.14,0-0.29,0.02-0.45,0.03
	c-0.15,0.02-0.29,0.07-0.42,0.13s-0.23,0.15-0.32,0.26c-0.08,0.1-0.13,0.24-0.13,0.42c0,0.33,0.11,0.56,0.32,0.69
	s0.5,0.19,0.86,0.19c0.22,0,0.41,0,0.57-0.01c0.18-0.02,0.32-0.03,0.43-0.06V37.68z M45.05,39.15c-0.17,0.06-0.39,0.09-0.66,0.09
	c-0.16,0-0.3-0.02-0.42-0.06c-0.12-0.04-0.22-0.1-0.3-0.2s-0.14-0.23-0.17-0.39c-0.04-0.17-0.06-0.38-0.06-0.64v-2.36h1.95v-0.77
	h-1.95v-1.59l-0.92,0.16v4.57c0,0.34,0.02,0.64,0.07,0.91c0.06,0.25,0.16,0.47,0.3,0.64c0.14,0.18,0.32,0.32,0.55,0.41
	c0.23,0.08,0.52,0.13,0.87,0.13c0.29,0,0.56-0.04,0.79-0.11c0.23-0.07,0.39-0.12,0.48-0.17l-0.17-0.76L45.05,39.15z M33.84,43.77
	c-0.09,0-0.17,0.03-0.23,0.09c-0.07,0.06-0.1,0.14-0.1,0.24s0.03,0.18,0.1,0.24c0.06,0.06,0.14,0.09,0.23,0.09
	c0.09,0,0.17-0.03,0.23-0.09c0.06-0.06,0.1-0.14,0.1-0.24s-0.04-0.18-0.1-0.24C34.01,43.8,33.93,43.77,33.84,43.77z M38.25,7.15
	c-0.11-0.17-0.23-0.35-0.33-0.48L38.25,7.15z M51.41,37.3v0.16l-0.01,0.16h-3.53c0.05,0.54,0.2,0.94,0.47,1.22
	c0.27,0.27,0.69,0.41,1.27,0.41c0.32,0,0.59-0.03,0.81-0.08c0.22-0.06,0.39-0.11,0.5-0.17l0.13,0.77c-0.11,0.06-0.31,0.12-0.59,0.19
	c-0.28,0.06-0.59,0.1-0.95,0.1c-0.45,0-0.84-0.07-1.17-0.2c-0.32-0.14-0.59-0.33-0.8-0.56c-0.21-0.24-0.37-0.52-0.48-0.84
	c-0.1-0.33-0.14-0.68-0.14-1.07c0-0.45,0.06-0.85,0.19-1.18c0.14-0.35,0.31-0.63,0.53-0.85c0.22-0.22,0.47-0.39,0.75-0.5
	c0.28-0.12,0.57-0.17,0.87-0.17c0.69,0,1.23,0.22,1.59,0.65C51.23,35.77,51.41,36.42,51.41,37.3z M50.45,36.89
	c0.01-0.42-0.1-0.76-0.32-1.02c-0.21-0.27-0.5-0.4-0.88-0.4c-0.21,0-0.4,0.04-0.56,0.13c-0.16,0.07-0.3,0.18-0.41,0.31
	s-0.2,0.28-0.27,0.45c-0.06,0.18-0.09,0.35-0.11,0.53H50.45z M40.35,11.11c-0.11-0.32-0.23-0.6-0.32-0.77
	c-0.26-0.71-0.5-1.19-0.73-1.58c-0.22-0.4-0.43-0.72-0.69-1.09c-0.01-0.05-0.2-0.35-0.41-0.63l0.05,0.11l-0.23-0.3
	c-0.34-0.38-0.61-0.79-0.99-1.14c-0.09-0.04,0.08,0.13,0.25,0.34c0.17,0.2,0.36,0.44,0.35,0.47c-0.16-0.16-0.26-0.23-0.3-0.24
	c-0.04-0.01-0.02,0.05,0.04,0.15c0.11,0.21,0.38,0.61,0.64,1.04c-0.27-0.39-0.45-0.59-0.59-0.74s-0.24-0.24-0.38-0.36
	c-0.47-0.54-0.87-0.88-1.13-1.08c-0.25-0.19-0.38-0.24-0.36-0.18c0.02,0.06,0.18,0.23,0.47,0.52c0.28,0.29,0.68,0.69,1.16,1.25
	l0.33,0.34c0.1,0.09,0.19,0.2,0.33,0.37l0.38,0.64c0.15,0.26,0.31,0.54,0.47,0.82c0.3,0.56,0.55,1.1,0.66,1.28
	c0.17,0.49,0.3,0.9,0.41,1.28s0.2,0.71,0.27,1.04c0.08,0.33,0.15,0.65,0.2,0.99c0.06,0.35,0.1,0.73,0.12,1.17
	c0.03,0.16,0.04-0.13,0.03-0.44s-0.03-0.63,0.01-0.54c0.05,0.37,0.08,0.56,0.11,0.62c0.03,0.06,0.06-0.02,0.08-0.19
	c0.02-0.16,0.04-0.42,0.03-0.72c0-0.3-0.03-0.65-0.08-0.98c0.09,0.24,0.13,0.27,0.14,0.16s-0.02-0.36-0.07-0.65
	C40.54,11.77,40.45,11.42,40.35,11.11z M24.35,45.24c-0.07-0.12-0.18-0.2-0.32-0.26c-0.14-0.07-0.31-0.1-0.53-0.1
	c-0.11,0-0.22,0.01-0.32,0.04c-0.1,0.02-0.18,0.04-0.26,0.08c-0.08,0.03-0.15,0.06-0.21,0.09l-0.12,0.08
	c-0.08-0.1-0.18-0.17-0.31-0.22c-0.12-0.05-0.27-0.07-0.45-0.07c-0.25,0-0.47,0.01-0.67,0.05c-0.19,0.03-0.34,0.06-0.46,0.09v2.73
	h0.51v-2.37l0.09-0.02l0.14-0.02l0.17-0.01l0.16-0.01c0.12,0,0.22,0.02,0.3,0.06c0.08,0.04,0.14,0.1,0.18,0.17
	c0.05,0.08,0.08,0.18,0.1,0.3s0.03,0.26,0.03,0.43v1.47h0.5v-1.58c0-0.12,0-0.24-0.02-0.35c-0.01-0.11-0.04-0.21-0.06-0.31
	c0.04-0.03,0.11-0.07,0.22-0.12c0.11-0.04,0.25-0.07,0.42-0.07c0.13,0,0.23,0.02,0.3,0.06c0.08,0.04,0.14,0.1,0.19,0.17
	c0.05,0.08,0.08,0.18,0.09,0.3c0.02,0.12,0.03,0.26,0.03,0.43v1.47h0.5v-1.58c0-0.19-0.01-0.36-0.04-0.52
	C24.49,45.49,24.43,45.36,24.35,45.24z M19.15,45.74c0.07,0.18,0.1,0.39,0.1,0.61s-0.03,0.42-0.1,0.6
	c-0.06,0.18-0.16,0.34-0.28,0.47c-0.11,0.13-0.25,0.23-0.42,0.3c-0.16,0.07-0.34,0.1-0.53,0.1s-0.37-0.03-0.53-0.1
	c-0.17-0.07-0.31-0.17-0.43-0.3c-0.11-0.13-0.21-0.29-0.27-0.47c-0.06-0.18-0.1-0.38-0.1-0.6s0.04-0.43,0.1-0.61
	s0.16-0.34,0.27-0.47c0.12-0.13,0.26-0.23,0.43-0.29c0.16-0.08,0.34-0.11,0.53-0.11s0.37,0.03,0.53,0.11
	c0.17,0.06,0.31,0.16,0.42,0.29C18.99,45.4,19.09,45.56,19.15,45.74z M18.72,46.35c0-0.32-0.07-0.57-0.22-0.76
	c-0.14-0.18-0.33-0.28-0.58-0.28s-0.44,0.1-0.59,0.28c-0.14,0.19-0.21,0.44-0.21,0.76c0,0.31,0.07,0.57,0.21,0.75
	c0.15,0.19,0.34,0.28,0.59,0.28s0.44-0.09,0.58-0.28C18.65,46.92,18.72,46.66,18.72,46.35z M20.86,38.48
	c-0.12,0.33-0.29,0.61-0.5,0.85s-0.47,0.42-0.77,0.55c-0.29,0.12-0.62,0.19-0.96,0.19c-0.35,0-0.68-0.07-0.98-0.19
	c-0.29-0.13-0.55-0.31-0.77-0.55c-0.21-0.24-0.37-0.52-0.49-0.85s-0.18-0.69-0.18-1.1c0-0.4,0.06-0.77,0.18-1.09
	c0.12-0.34,0.28-0.63,0.49-0.86c0.22-0.24,0.48-0.42,0.77-0.54c0.3-0.13,0.63-0.2,0.98-0.2c0.34,0,0.67,0.07,0.96,0.2
	c0.3,0.12,0.56,0.3,0.77,0.54c0.21,0.23,0.38,0.52,0.5,0.86c0.12,0.32,0.18,0.69,0.18,1.09C21.04,37.79,20.98,38.15,20.86,38.48z
	 M20.08,37.38c0-0.58-0.13-1.04-0.4-1.37c-0.25-0.34-0.61-0.51-1.05-0.51c-0.45,0-0.81,0.17-1.07,0.51
	c-0.26,0.33-0.39,0.79-0.39,1.37c0,0.58,0.13,1.04,0.39,1.38c0.26,0.33,0.62,0.5,1.07,0.5c0.44,0,0.8-0.17,1.05-0.5
	C19.95,38.42,20.08,37.96,20.08,37.38z M36.47,27.54c0.16-0.1,0.44-0.3,0.71-0.52c0.27-0.22,0.53-0.45,0.66-0.59
	c-0.01-0.03-0.08,0.01-0.27,0.15l-0.73,0.63C36.66,27.36,36.55,27.46,36.47,27.54z M37.53,20.7c0.18-0.28,0.36-0.61,0.51-0.93
	c0.15-0.33,0.28-0.66,0.38-0.95c0.19-0.6,0.24-1.05,0.16-1.08c-0.15,0.4-0.3,0.81-0.51,1.31c-0.22,0.5-0.49,1.1-0.95,1.83
	c-0.21,0.4-0.36,0.65-0.44,0.79c-0.07,0.14-0.06,0.17,0,0.12C36.81,21.7,37.18,21.27,37.53,20.7z M33.59,47.75h0.51v-2.81h-0.51
	V47.75z M21.25,28.04c-0.03,0.01,0.03,0.06,0.16,0.13c0.26,0.14,0.79,0.36,1.35,0.53c0.56,0.17,1.14,0.28,1.47,0.31
	c0.17,0.02,0.27,0.01,0.28-0.01c0-0.03-0.09-0.07-0.3-0.15c-0.77-0.16-1.63-0.41-2.56-0.73C21.4,28.06,21.28,28.03,21.25,28.04z
	 M31.76,45.24c-0.08-0.12-0.2-0.2-0.35-0.26c-0.15-0.07-0.34-0.1-0.56-0.1c-0.25,0-0.48,0.01-0.67,0.05
	c-0.19,0.03-0.34,0.06-0.46,0.09v2.73h0.51v-2.37l0.08-0.02l0.15-0.02l0.16-0.01l0.17-0.01c0.14,0,0.25,0.02,0.34,0.06
	c0.09,0.03,0.16,0.08,0.22,0.16c0.05,0.07,0.09,0.17,0.11,0.3c0.03,0.12,0.04,0.27,0.04,0.44v1.47h0.51v-1.58
	c0-0.19-0.02-0.36-0.06-0.52C31.92,45.49,31.85,45.35,31.76,45.24z M28.85,34.82c-0.07,0.31-0.14,0.64-0.24,1
	c-0.09,0.36-0.19,0.73-0.29,1.08c-0.11,0.37-0.22,0.71-0.33,1.05c-0.11,0.33-0.21,0.63-0.31,0.88c-0.11-0.31-0.22-0.64-0.33-0.98
	l-0.31-1.04l-0.28-1.04c-0.08-0.34-0.16-0.66-0.22-0.95h-0.76c-0.06,0.29-0.14,0.61-0.24,0.95l-0.27,1.04
	c-0.1,0.34-0.21,0.69-0.32,1.04c-0.11,0.34-0.21,0.67-0.33,0.98c-0.1-0.25-0.2-0.55-0.31-0.88c-0.12-0.34-0.23-0.68-0.33-1.05
	l-0.29-1.08c-0.09-0.36-0.17-0.69-0.23-1h-1c0.26,1,0.54,1.94,0.83,2.8c0.29,0.87,0.58,1.64,0.89,2.32h0.8
	c0.18-0.47,0.38-1.01,0.58-1.62c0.21-0.61,0.4-1.24,0.57-1.9c0.17,0.66,0.36,1.29,0.56,1.9c0.21,0.61,0.41,1.15,0.6,1.62h0.8
	c0.3-0.68,0.6-1.45,0.89-2.32c0.29-0.86,0.56-1.8,0.82-2.8H28.85z M28.09,45.51c0.03,0.13,0.05,0.28,0.05,0.43v1.77l-0.18,0.03
	l-0.26,0.03l-0.33,0.03c-0.11,0.01-0.22,0.01-0.33,0.01c-0.16,0-0.31-0.01-0.44-0.05c-0.14-0.03-0.26-0.08-0.35-0.15
	c-0.1-0.07-0.18-0.16-0.23-0.28c-0.06-0.11-0.08-0.25-0.08-0.41c0-0.16,0.03-0.3,0.09-0.41c0.06-0.11,0.15-0.2,0.26-0.27
	s0.24-0.12,0.38-0.15c0.15-0.03,0.3-0.05,0.46-0.05l0.16,0.01l0.15,0.02l0.13,0.03l0.08,0.01v-0.14c0-0.08-0.01-0.16-0.03-0.24
	c-0.02-0.09-0.05-0.16-0.1-0.22c-0.05-0.07-0.11-0.11-0.2-0.15c-0.08-0.04-0.18-0.06-0.31-0.06c-0.17,0-0.31,0.01-0.44,0.04
	c-0.13,0.02-0.22,0.04-0.28,0.07l-0.06-0.42c0.06-0.03,0.17-0.05,0.33-0.08c0.15-0.03,0.31-0.04,0.49-0.04
	c0.21,0,0.38,0.02,0.51,0.08c0.15,0.05,0.26,0.12,0.34,0.22C27.99,45.26,28.05,45.38,28.09,45.51z M27.65,46.51
	c-0.04-0.01-0.1-0.03-0.18-0.04c-0.08-0.01-0.18-0.02-0.3-0.02c-0.07,0-0.16,0-0.24,0.02c-0.09,0-0.16,0.03-0.24,0.06
	c-0.07,0.04-0.12,0.08-0.17,0.15c-0.05,0.05-0.07,0.13-0.07,0.23c0,0.18,0.06,0.31,0.17,0.38c0.12,0.07,0.28,0.1,0.48,0.1h0.31
	c0.1-0.01,0.17-0.02,0.24-0.04V46.51z"/>
</svg>
