<!-- Generator: Adobe Illustrator 21.1.0, SVG Export Plug-In  -->
<svg version="1.1"
	 xmlns="http://www.w3.org/2000/svg" xmlns:xlink="http://www.w3.org/1999/xlink" xmlns:a="http://ns.adobe.com/AdobeSVGViewerExtensions/3.0/"
	 x="0px" y="0px" width="64.5px" height="12.6px" viewBox="0 0 64.5 12.6" style="enable-background:new 0 0 64.5 12.6;"
	 xml:space="preserve">
<style type="text/css">
	.st0{fill-rule:evenodd;clip-rule:evenodd;fill:#868789;}
</style>
<defs>
</defs>
<path class="st0" d="M57.2,1.9l3.1,0v0.5c-0.5,0.1-0.9,0.1-1,0.6c-0.4,1.8,0.4,5.2-1,6.8c-0.5,0.5-1.2,0.9-2.2,0.9
	c-1.4,0-2.5-0.5-2.9-1.7C52.9,7.8,53,5.7,53,4.5c0-1.8,0.2-2-1-2.1V1.9l3.6,0l0,0.5c-0.4,0-0.7,0.1-0.9,0.4
	c-0.1,0.3-0.1,0.9-0.1,1.2v2.6c0,0.8,0,1.6,0.4,2.2c0.3,0.6,0.8,0.9,1.7,0.8c1.7-0.2,1.7-2.2,1.7-3.5c0-0.8,0-1.7,0-2.5
	c0-0.4,0-0.8-0.3-1c-0.3-0.3-0.8-0.2-1-0.3L57.2,1.9z M12,2.5c0.5,0.1,0.9,0.1,0.9,0.6c0.1,0.7,0,3.5,0.1,4.6
	c0.1,0.9,0.2,1.6,0.8,2.3c0.3,0.3,0.6,0.5,0.9,0.6c1.2,0.4,2.7,0.2,3.5-0.7c0.5-0.6,0.7-1.3,0.8-2.3c0.1-1.3-0.1-3.3,0.2-4.5
	c0.1-0.5,0.5-0.6,1-0.6l0-0.5l-3.1,0l0,0.5c1.1,0.1,1.2,0.3,1.2,1.3c0.1,0.8,0,1.7,0,2.5c0,1.6-0.2,3.3-1.7,3.4
	c-1.9,0.2-2-1.7-2-3.1V4.2c0-1.6,0-1.5,0.9-1.7l0-0.5L12,2V2.5z M0.5,4.2l0.5,0c0.2-0.6,0.3-1.4,1-1.5c0.6-0.2,1.8-0.1,2.4-0.1
	C4.3,2.7,4.2,2.9,4.1,3.1L2.7,5.5C2,6.8,1.3,8.1,0.6,9.3l-0.6,1l0.1,0.2l6.3,0c0.1-0.4,0.4-2,0.4-2.3L6.4,8.1
	c-0.1,0.2-0.3,1-0.8,1.5C5,10.1,3,10,2.3,9.9C2.3,9.7,5.7,3.7,6,3.2l0.5-1L6.5,2C5.9,2,4.3,2,3.6,2H2.2C1.6,2,1.3,2.1,1.1,1.7
	l-0.4,0L0.5,4.2z M44.7,8.1l-0.2,0.4c-0.2,0.4-0.5,0.8-0.9,1.1c-0.5,0.4-1.3,0.5-1.9,0.2c-2-1.1-2.3-5.9-0.2-7.2
	c0.6-0.4,1.4-0.4,2,0c0.4,0.3,0.8,0.9,1,1.6L45,4L44.7,2c-0.2,0-0.4-0.1-0.7-0.1c-0.7-0.1-1.4-0.2-2.2-0.1c-1.7,0.2-3,1.2-3.6,2.8
	c-0.8,2.3,0,5.4,2.9,6c1,0.2,1.9,0.1,2.9-0.1c0.5-0.1,0.4-0.1,0.5-0.3c0.2-0.4,0.5-1.4,0.5-1.8L44.7,8.1 M51,9.3
	c-0.4,0.6-1.1,0.6-1.9,0.5c-0.3,0-0.4-0.1-0.5-0.3c-0.1-0.3-0.1-1.2-0.1-1.6V4.6c0-0.5,0-1.1,0-1.6c0.1-0.7,0.5-0.6,1-0.7l0-0.5
	l-3.7,0v0.5c1,0.1,1,0.2,1,1.4v4.9c0,1.1,0,1.2-1.1,1.3l0,0.5l5.9,0c0.1-0.2,0.4-1.9,0.4-2.2l-0.5-0.1C51.4,8.5,51.1,9,51,9.3
	 M60.8,2.3c1.2,0.1,1,0.3,1,2c0,1.5,0.1,4.7-0.1,5.9c-0.1,0.8-0.3,1.3-0.9,1.7l-0.2,0.1l0.2,0.5c0.9-0.2,1.7-0.8,2.1-1.4
	c0.5-0.7,0.7-1.7,0.7-2.8c0-1.2,0-2.3,0-3.5c0-0.6,0-1.2,0-1.7c0-0.7,0.2-0.8,0.9-0.9l0-0.5h-3.7L60.8,2.3z M7.5,2.5
	c0.4,0,0.7,0.1,0.9,0.3c0.1,0.3,0.1,0.8,0.1,1.1v4.8c0,0.3,0,0.8-0.1,1.1c-0.1,0.3-0.5,0.3-0.9,0.3l0,0.5l3.7,0l0-0.5
	c-0.4,0-0.7-0.1-0.9-0.3c-0.1-0.3-0.1-0.7-0.1-1.1V3.9c0-0.3,0-0.8,0.1-1.1c0.1-0.3,0.5-0.3,0.9-0.3l0-0.5L7.5,2L7.5,2.5z M34.1,8.2
	c0.5,0,0.5,0.1,0.6,0.4l0.2,0L34.8,8l-1.7,0l0,0.2c0.3,0,0.3,0.1,0.3,0.4V10c0,0.3,0,0.3-0.3,0.4l0,0.2h1.8l0.1-0.1L35,9.9l-0.2,0
	c-0.1,0.4-0.2,0.5-0.7,0.5c-0.2,0-0.2-0.1-0.2-0.4c0-0.2,0-0.4,0-0.6c0.5,0,0.5,0,0.6,0.3l0.2,0l0-0.8h-0.1l-0.2,0.3l-0.4,0l0-0.9
	l0,0L34.1,8.2z M27.6,10.1v0.5l-3.5,0v-0.5c0.6-0.2,0.8,0,0.5-1c-0.1-0.4-0.3-0.9-0.4-1.3h-2.2c-0.1,0.1-0.2,0.5-0.2,0.7
	c-0.5,1.6-0.3,1.3,0.6,1.6l0,0.5l-2.8,0l0-0.5c0.6-0.1,0.7-0.1,1-0.5c0.2-0.3,0.3-0.7,0.4-1.1l2-5.5C23,2.7,23.2,2.3,23.3,2l0.7-0.1
	C24,2.2,24.2,2.6,24.3,3l1.1,3.3c0.2,0.5,0.9,2.9,1.2,3.3C26.9,10.1,27.2,10,27.6,10.1z M23.9,7.1c0-0.1-0.4-1.2-0.4-1.4
	c-0.1-0.2-0.1-0.5-0.2-0.7c-0.1-0.2-0.1-0.5-0.2-0.7l-0.9,2.8L23.9,7.1z M33,9.3c-0.1,1.4-1.4,1.2-2.3,1.2c0-0.2,0-0.1,0.1-0.2
	l0.2-0.1c0.1-0.1,0-1.4,0-1.7c0-0.3,0-0.4-0.3-0.4l0-0.2C31,8,32,8,32.3,8.1C32.7,8.3,33,8.7,33,9.3z M31.5,8.2
	c-0.1,0.3,0,1.1,0,1.5c0,0.2-0.1,0.6,0.2,0.6C32.6,10.4,32.7,8,31.5,8.2z M33.4,0.8L33.4,0.8L33.4,0.8l0.2,0c0.2-0.1,0.1,0,0.3,0
	l0,0l-0.7-0.1L33.4,0.8z M27.1,0.7c0.1-0.1,0.1-0.1,0.1-0.3c0.2,0.1,0,0.4-0.1,0.4c-0.2,0.1-0.2,0-0.2,0l0.1,0
	C27,0.8,27,0.9,27.1,0.7 M25.3,1.8L25.3,2l-0.2-0.5l0-0.3l0.2-0.2c0.4,0.3,0.2,0.4,0.2,0.5L25.3,1.8z M25.4,0.1
	c-0.1,0.1,0,0.1-0.2,0.1L25.4,0.1L25.5,0l0.1,0.4l0.1,0.2l-0.1,0l0,0l0,0l0,0l-0.2-0.1l0,0.1l0,0.1l-0.1-0.3L25.4,0.1L25.4,0.1
	 M26.6,0.6c0-0.2,0-0.4,0.1-0.6c0.3,0,0.3,0.2,0.4,0.3l-0.3,0L27,0.5l-0.2,0.2l0-0.2L26.6,0.6z M37.3,5c0-0.1-0.1-0.1-0.2-0.3
	c-0.6-0.9-0.6-1.3-0.6-2.4c0-0.3-0.1-0.6-0.2-0.8c-0.3-0.3-0.9-0.6-1.4-0.7c-0.2,0-0.8,0-1,0c0.2,0.1,0.7,0.1,0.8,0.4l-0.1,0.1
	c0.2,0.1,0.2,0.1,0.4,0.3c0.2,0.2,0.1,0.3,0.2,0.4l0.1,0l-0.1,0c0,0.1,0.1,0.3,0.1,0.5c0,0.2,0,0.4,0.2,0.4l0-0.1l-0.1-0.1l0.1,0.1
	l0,0.1l0.1,0c0.1,0.1,0.2,0.1,0.2,0.3c0,0.2,0.1,0.2,0.1,0.4c0.3,0,0.2,0,0.3,0.3l0.1,0.1l0,0.1c0,0.2,0.1,0,0.1,0.2
	c0,0.4,0.1,0.3,0.4,0.8L37,5.2c0,0.4-0.1,0.5-0.2,0.7c0,0.2-0.1,0.5-0.3,0.6c0-0.1,0.1-0.1,0.1-0.3l0-0.4l0-0.2l0-0.2l0-0.3
	c-0.2-0.2-0.1-0.1-0.1-0.3l-0.1-0.1l-0.3-0.4l-0.1-0.1c-0.2-0.1-0.2-0.5-0.7-0.8c-0.5-0.4-0.6-0.8-0.7-0.8c-0.1,0-0.3,0.1-0.7-0.2
	c-0.2-0.1-0.6-0.4-0.8-0.6c-0.1-0.1-0.2-0.5-0.6-0.6c-0.3-0.1-0.1,0.2-0.2,0.3c-0.2,0-0.1-0.4-0.3-0.5c0,0.2,0.2,0.4,0,0.6L32,1.5
	l-0.1-0.2l-0.1-0.3c0,0.2,0.2,0.5,0,0.6c-0.2-0.1-0.1-0.6-0.3-0.6c0,0.2,0.3,0.8,0,0.9c-0.1-0.1-0.1-0.5-0.2-0.8l-0.1-0.1
	c0,0.1,0.2,0.7,0,0.9C31,1.9,31,1.3,30.9,1.2l0.1,0.4l0,0.6L30.8,2c-0.1,0-0.1,0.2-0.3,0c-0.1-0.1,0-0.2-0.2-0.2L30,2l0-0.2
	l-0.1-0.1c-0.1-0.1,0-0.2-0.1-0.3l0,0.3L29.6,2c-0.1,0.1,0,0.5-0.1,0.6l-0.2-0.2c-0.1-0.4,0.2-0.6,0.1-0.9l-0.1,0.2
	C29.2,2,29.2,1.9,29,2c0,0.3,0.3,0.7,0.5,0.9c0.2,0.3,0.2,0.4,0.2,0.7c-0.1,0.2-0.3,0.2-0.3,0.3l0,0.3c-0.1,0.2,0,0.1,0,0.3l0,0.3
	c0,0.2,0,0.3-0.1,0.6C29.1,5.5,29,5.5,29,5.7l0.2,0.1c0,0.2,0,0.2-0.1,0.4l-0.2,0.3c-0.1-0.2,0.1-0.1,0-0.3c0-0.2-0.1-0.1-0.1-0.3
	l-0.1,0c0-0.2,0.1-0.3,0.1-0.4l0-0.4l0-0.2c-0.1-0.2-0.1-0.4-0.1-0.6l0.1,0c0.1-0.3,0-0.6-0.1-0.9c-0.1-0.4-0.2-0.4-0.4-0.6
	l-0.1-0.1L28,2.5l-0.7-0.3l-0.2,0l-0.2,0C26.9,2,27,1.9,27,1.7c0-0.2,0-0.4,0-0.6c-0.2,0-0.3,0-0.4-0.1c-0.1-0.1-0.1-0.1-0.3-0.1
	l0,0.1l0,0l-0.2,0.3c-0.1,0.2,0,0-0.2,0.2l-0.1-0.1l0,0.3l0,0.2l0,0.2c-0.1,0.2-0.3,0.1-0.5,0.2l0.1,0.2l0.1,0.2
	c0.2,0.3,0.1,0.2,0.1,0.4L26,3l0.1-0.1c0.1-0.1,0-0.1,0.4-0.3c0.3-0.1,0.6-0.1,0.8,0c0.5,0.1,0.9,0.3,1.2,0.6c0,0.3-0.1,0.9-0.1,1.3
	c0,0.3,0,1.1-0.1,1.3c-0.1,0.1-0.3-0.2-0.4,0.4c0.3,0,0-0.1,0.3-0.2l-0.1,0.2c0.2,0,0.4-0.1,0.5,0c-0.1,0.2-0.2,0-0.5,0.1
	c-0.1,0.2-0.1,0.2,0,0.4l0.3,0l0.4,0l0-0.1l0,0l0,0l0,0.1l0.2,0.1l0,0.2l0,0L29.1,7c0.1,0.1,0.3,0.1,0.5,0.1
	c0.2,0.1,0.3,0.1,0.5-0.1c-0.1,0-0.3,0-0.4,0c0.5,0,0.1,0,0.6,0c0.4,0,1,0,1.5,0l-0.2,0l0.1,0l0.3,0l0.3,0c0.3-0.1,0.1,0,0.3,0
	l0.3,0c0.2,0,0.5,0,0.7,0c0.3,0,0.5,0,0.7,0l0,0.1l0-0.1l0.8,0L35.3,7c-0.1,0-1.6,0.1-1.9,0.1c-0.5,0-0.9,0-1.3,0l0.1,0
	c-0.1-0.1-0.1-0.1-0.3-0.1l-0.4,0l-0.3-0.1l-0.4,0l-0.3-0.2l-0.4-0.1c-0.2-0.1-0.4-0.2-0.6-0.3c0.1,0,0,0.1,0.4,0.1l-0.2-0.1
	l0.1-0.1c0.2-0.2,0.7,0,0.9-0.1l0,0l-0.1,0l0.1,0.2L31,6.4c0.1,0.1,0.1,0.2,0.4,0.2l0.1-0.2l0.1,0.1l0.2,0.1c0.4,0,0.1-0.2,0.9,0
	c0.2,0.1,0.7,0.2,0.8,0.2c0.1-0.2,0.1-0.5,0-0.6c-0.2,0-0.1,0.1-0.2,0.1l-0.1-0.2l0.3,0L33.5,6l0.2,0l-0.2,0l-0.1-0.1l0-0.1l0-0.1
	l0-0.2l0.1-0.1l0.2,0l0.1,0.2c0.2,0,0-0.1,0.2-0.1c0.1,0.1,0,0.2,0.1,0.4c0.1,0.4,0.4,0.2,0.5,0.4l0.2,0.2l0.1,0.1l0.4,0.1
	c0.3,0,0.5,0,0.8,0l0.1,0l0.6,0.1l0,0.2l-0.2,0.1l-0.1,0.3l0.2-0.1c0,0.4-0.5,0.2-0.6,0.1l-0.2,0l0-0.2l-0.1,0l0,0l0,0l0,0l0,0
	l-0.1,0.1c-0.1,0-0.1,0-0.2,0c-0.1,0-0.1,0.1-0.3,0.1c-0.4,0.1-1,0.1-1.4,0l-0.3,0c-0.4,0-0.8-0.1-1.4-0.1c-0.1,0-0.2,0.1-0.3,0.1
	c-0.2,0-0.9,0-1.1,0l-0.4,0c-0.2,0-0.1,0-0.3-0.1c-0.1,0.1-0.2,0.1-0.4,0c-0.4,0-1,0-1.4,0L28,7.1c0-0.2,0-0.1,0-0.4
	c0,0.6-0.1,0.9,0.3,1c0.8,0.1,2.9,0,3.8,0c0.9,0,1.7,0,2.6,0c0.2,0,0.4,0,0.6,0c0.4,0,0.5-0.1,0.5-0.1c0,0,0.7,0.3,1,0.1l0.1-0.5
	l0-0.1l-0.1-0.2l0.2-0.3L37,6.1l0.2-0.7l0.1,0L37.3,5z M32.2,1.8L32.3,2l-0.1,0.2L32.2,1.8z M31.9,1.8L32,2.2L31.9,2L31.9,1.8z
	 M31.8,2.2l-0.1,0.2l0-0.4L31.8,2.2z M31.8,3.6c0.2-0.3,0.3-0.4,0.5,0l0.1-0.1l0.2,0.2l0.1,0.1l0.1,0.1l0.2-0.3l0.2-0.3
	c0.1,0.1,0.1,0.2,0.3,0.2l0.1-0.1l0.2,0.3l-0.1,0.2L33.6,4l-0.3,0.1L33,4.3C33,4.3,32.7,3.9,32.5,4l0.1,0l0,0.1
	c-0.3,0.2-0.5-0.1-0.6-0.1c0,0.1,0.1,0.1,0.1,0.3L32,4.1l-0.1-0.1l0.1,0.3l0.2,0.2l-0.4-0.1c0-0.1,0.1-0.1,0-0.3
	c-0.1-0.2-0.1-0.1-0.2-0.3L31.8,3.6z M31.7,4.7l0.1-0.1C31.9,4.7,31.8,4.7,31.7,4.7 M31.7,4.6l-0.1,0.1l-0.3,0
	C31.4,4.4,31.8,4.3,31.7,4.6 M31.7,4.1L31.7,4.1L31.7,4.1c0,0.2-0.1,0.3-0.3,0.1l-0.1-0.1l0.2,0C31.4,4,31.6,4,31.7,4.1 M29.3,6.9
	L29.3,6.9L29.3,6.9L29.3,6.9L29.3,6.9z M30.9,6c0-0.1,0.2-0.2,0.2-0.1L30.9,6z M31,5.7c-0.1,0-0.2,0.1-0.2,0.3c-0.3,0-0.8,0-1.1,0
	c-0.5,0-0.3,0.5-0.6,0.5l0.1-0.4c0.1-0.3,0.1-0.2,0.1-0.3c0-0.3,0.1-0.5,0.2-0.8C29.6,4.8,30,3.6,30,3.5c0.2,0.1,0.3,0.4,0.4,0.5
	c0.2-0.2,0.3-0.3,0.4-0.5l0.3,0l0.2,0.2l0.2,0.2c-0.2,0-0.2,0-0.3,0.1l-0.2,0.2l0,0.3l0.1,0.2L31,4.7c-0.1,0.1-0.2,0.5-0.2,0.6
	l0.2,0.1l0,0l0,0L31,5.3l0,0.1C31.3,5.4,31.1,5.6,31,5.7 M31.3,4.4L31.3,4.4L31.3,4.4z M31.2,4.9C31.1,5,31.2,5.2,31,5.1l0.2-0.4
	l0.3,0l0.2,0.1C31.7,5.1,31.4,4.9,31.2,4.9 M31.4,5.6l0.1,0.1L31.4,5.6z M31.4,5.1l0.2,0l0.2,0l-0.2,0.3L31.4,5.1z M31.6,5.4
	L31.6,5.4L31.6,5.4z M31.8,5.7l0-0.1l-0.1,0l-0.1,0l0.2-0.2l0-0.1l0,0l0-0.1c-0.3,0-0.1-0.1-0.1-0.1l0.3,0C32,5.3,32,5.8,31.8,5.7
	 M33.3,6.7l-0.3-0.1c-0.4-0.2-0.1-0.2-0.3-0.3L32,6.1c0-0.3,0.3-0.1,0.3-0.1c0.3,0.1,0.2,0,0.4,0.2l0.3,0.2
	C33.3,6.5,33.3,6.5,33.3,6.7 M33.1,6L33.1,6L33.1,6z M33.1,5.4L33,5.3l0.2,0L33.1,5.4z M33.4,5c-0.5,0.1-0.8,0-0.3,0.8L32.9,6
	c-0.2,0.1-0.3-0.1-0.4-0.1l-0.2-0.1c-0.2-0.1-0.2-0.5-0.1-0.7V4.9c0.1-0.1,0.1,0.1,0.4,0.1c0.6,0-0.2-0.5-0.2-0.7l0.5,0.1L33,4.7
	c0.3,0,0.2-0.2,0.4-0.2L33.4,5z M32.3,4.7l0.1,0.1l0,0.1L32.3,4.7z M32.4,4.7L32.4,4.7L32.4,4.7L32.4,4.7L32.4,4.7z M33.4,5.3l0-0.1
	l0.1,0.1L33.4,5.3z M33.5,4.3L33.5,4.3L33.5,4.3L33.5,4.3z M33.9,4.6c0,0.1,0.1,0,0.1,0.2c-0.2,0.1,0,0-0.3-0.1l0-0.1l-0.2,0
	c0-0.1,0.1-0.2,0.2-0.3l0.3,0l0.1-0.1c0.1,0.1,0.1,0.3,0,0.4L33.9,4.6z M34.2,5.9c-0.2-0.1-0.2-0.4-0.1-0.4
	C34.4,5.4,34.3,5.9,34.2,5.9 M34.4,6L34.4,6L34.4,6C34.4,5.9,34.4,5.8,34.4,6 M35,5.7L35,5.7C34.6,5.7,34.7,6,34.5,6
	c-0.1-0.2,0-0.3-0.2-0.8c-0.1-0.2,0-0.2,0-0.2c0,0,0.4,0.2,0.3-0.4c0-0.3-0.2-0.3-0.4-0.5c0.3-0.2,0.1,0,0.2-0.3L34.6,4l0.2,0.2
	c0.1,0.1,0.2,0.2,0.3,0.4C35.3,4.8,35.2,5.7,35,5.7 M34.3,4.3c0.1,0,0.2,0.1,0.2,0.3l-0.2,0.1l0.1-0.1L34.3,4.3z M36.2,6.3L36.2,6.3
	c-0.1,0,0,0.3-0.2,0.3c0-0.1,0.1-0.1,0-0.2l-0.2-0.1l-0.1-0.1L35.4,6l0.1-0.2c0.1-0.1,0.2-0.4,0.3-0.6C35.9,5,35.9,4.9,36,4.8
	c0.1-0.2-0.1-0.2-0.1-0.4c0.2,0,0.3,0.3,0.5,0.5c0.3,0.3,0.1,0,0.2,0.4l0,0.2c0,0.2,0,0.2,0,0.4l-0.1,0.4L36.2,6.3z"/>
</svg>
