<!-- Generator: Adobe Illustrator 18.1.1, SVG Export Plug-In  -->
<svg version="1.1"
	 xmlns="http://www.w3.org/2000/svg" xmlns:xlink="http://www.w3.org/1999/xlink" xmlns:a="http://ns.adobe.com/AdobeSVGViewerExtensions/3.0/"
	 x="0px" y="0px" width="16.83px" height="12.31px" viewBox="0 0 16.83 12.31" enable-background="new 0 0 16.83 12.31"
	 xml:space="preserve">
<defs>
</defs>
<path fill="#868789" d="M0,12.31L0,0l16.83,0v12.31H0z M0.24,0.24v11.83h16.34V0.24H0.24L0.24,0.24z M4.07,4.06l-1.04,0
	c0-0.11-0.01-0.7,0.01-0.77C3.06,3.18,3.12,3.11,3.2,3.07c0.1-0.06,0.22-0.05,0.35-0.05c0.12,0,0.24-0.01,0.34,0.04
	c0.23,0.13,0.18,0.35,0.18,0.6C4.07,3.8,4.07,3.94,4.07,4.06L4.07,4.06z M3.02,4.42c0-0.01-0.01-0.01,0.05-0.01l0.99,0V5.8l0.34,0
	l0-2.49c0.01-0.18-0.15-0.39-0.23-0.46C4.04,2.73,3.91,2.67,3.67,2.67c-0.24,0-0.42-0.02-0.61,0.08c-0.14,0.07-0.27,0.2-0.33,0.36
	C2.65,3.29,2.67,3.53,2.67,3.74c0,0.69,0,1.37,0,2.06h0.34V4.42L3.02,4.42z M5.74,6.85c0.08-0.01,0.34-0.01,0.43-0.01
	C6.3,6.86,6.39,6.93,6.44,7.01C6.52,7.12,6.5,7.24,6.5,7.39v1.3c0,0.13,0.02,0.29-0.04,0.4C6.42,9.17,6.34,9.25,6.22,9.28
	c-0.08,0.01-0.34,0.01-0.43,0C5.66,9.27,5.57,9.2,5.51,9.13C5.44,9.01,5.46,8.89,5.46,8.74v-1.3c0-0.13-0.02-0.29,0.03-0.4
	C5.54,6.95,5.62,6.88,5.74,6.85L5.74,6.85z M5.11,9.01c0.04,0.32,0.28,0.58,0.6,0.62C5.83,9.64,6.19,9.64,6.3,9.62
	c0.32-0.07,0.55-0.35,0.55-0.67c0-0.17,0.01-1.72,0-1.82C6.81,6.79,6.56,6.55,6.24,6.5c-0.1-0.01-0.49-0.01-0.59,0.01
	C5.34,6.58,5.11,6.86,5.11,7.18C5.11,7.3,5.1,8.92,5.11,9.01L5.11,9.01z M12.42,6.51c-0.01,0.03,0,3,0,3.11h0.34l0-2.21
	c0.02-0.01,0,0,0.01,0.01c0.02,0.02,0.1,0.12,0.13,0.15l0.26,0.31c0.03,0.03,0.1,0.13,0.13,0.15c0.07-0.08,0.48-0.58,0.52-0.61
	l0,2.21h0.35l0-3.13C14,6.67,13.86,6.85,13.72,7.02c-0.07,0.09-0.14,0.18-0.22,0.26c-0.04,0.05-0.07,0.09-0.11,0.13
	c-0.03,0.03-0.08,0.1-0.11,0.13l-0.22-0.25c-0.11-0.14-0.32-0.39-0.43-0.52l-0.16-0.19C12.46,6.55,12.44,6.53,12.42,6.51L12.42,6.51
	z M8.93,4.06H7.9c-0.01-0.01,0,0-0.01-0.02c-0.01-0.03,0-1.35,0-1.37H7.55V5.8l0.34,0l0-1.39h1.05V5.8h0.34V2.68l-0.34,0v1.3
	c0,0.01,0,0.03,0,0.04c0,0,0,0.02,0,0.02C8.94,4.04,8.95,4.03,8.93,4.06L8.93,4.06z M9.99,9.01C9.98,9.1,10.04,9.24,10.08,9.3
	c0.05,0.08,0.1,0.14,0.17,0.19c0.18,0.14,0.33,0.14,0.6,0.14c0.28,0,0.42,0,0.6-0.15c0.07-0.05,0.12-0.12,0.17-0.2
	c0.04-0.06,0.09-0.19,0.09-0.28c0-0.09,0-0.22,0-0.32V6.5h-0.34c0,0.23,0.01,2.44-0.01,2.48c-0.01,0.12-0.09,0.21-0.16,0.25
	c-0.11,0.07-0.21,0.05-0.36,0.05c-0.13,0-0.25,0.01-0.36-0.05c-0.08-0.05-0.18-0.18-0.16-0.25c-0.01-0.01-0.01,0-0.01-0.03V6.5H9.98
	L9.99,9.01L9.99,9.01z M5.11,3.02c0.05,0.01,0.88,0,0.95,0c0.17,0,0.27,0.02,0.35,0.12C6.51,3.26,6.5,3.35,6.5,3.54
	c0,0.16,0.01,0.29-0.08,0.4c-0.08,0.1-0.17,0.13-0.35,0.13H5.11C5.12,4.09,6.22,5.62,6.36,5.8h0.49C6.84,5.78,6.63,5.5,6.6,5.46
	C6.51,5.34,6.43,5.23,6.35,5.11l-0.5-0.69C6.04,4.4,6.19,4.44,6.37,4.38C6.52,4.33,6.63,4.24,6.7,4.15c0.08-0.1,0.15-0.24,0.15-0.41
	c0-0.15,0.01-0.41-0.02-0.54c-0.07-0.27-0.3-0.48-0.6-0.52c-0.12-0.01-0.9,0-1.11,0L5.11,3.02L5.11,3.02z M3.02,9.63V8.24l1.04,0
	l0-0.35l-1.04,0l0-1.04C3.03,6.84,3,6.84,3.04,6.84l1.36,0V6.51H2.68v3.12H3.02L3.02,9.63z M9.98,5.8l0.33,0h0.01V2.68H10.3l-0.32,0
	v0.03V5.8L9.98,5.8z M8.93,4.06c0.02-0.03,0.01-0.02,0.01-0.02c0,0,0-0.02,0-0.02c0-0.01,0-0.03,0-0.04v-1.3l0.34,0V5.8H8.94V4.41
	H7.89l0,1.39l-0.34,0V2.68h0.34c0,0.02,0,1.34,0,1.37c0,0.02,0,0.01,0.01,0.02l0-1.39l-0.35,0c-0.01,0.09,0,1.44,0,1.56
	c0,0.53,0,1.05,0,1.57l0.35,0V4.42h1.04l0,1.39l0.35,0c0.01-0.06,0-2.76,0-3.13l-0.35,0L8.93,4.06L8.93,4.06z M3.02,9.63H2.68V6.51
	h1.72v0.33l-1.36,0c-0.04,0-0.01,0-0.02,0.01l1.39,0l0-0.35l-1.74,0c0,0.53,0,1.04,0,1.57c0,0.15-0.01,1.46,0,1.56
	C2.69,9.63,3.01,9.64,3.02,9.63C3.02,9.63,3.02,9.63,3.02,9.63L3.02,9.63z M11.36,8.98c0.02-0.03,0.01-2.25,0.01-2.48h0.34v2.19
	c0,0.1-0.01,0.23,0,0.32c0.02-0.04,0.01-1.11,0.01-1.26c0-0.08,0.01-1.21,0-1.25l-0.35,0L11.36,8.98L11.36,8.98z M9.98,2.71V2.68
	l0.32,0h0.02V5.8h-0.01l-0.33,0V2.71L9.98,2.71z M9.98,5.8l0.35,0l0-3.13c-0.04-0.01-0.32-0.01-0.35,0V5.8L9.98,5.8z M3.02,4.42
	h1.04l0.01,1.38l0.35,0c0.01-0.05,0-1.16,0-1.25c0-0.13,0.01-1.22-0.01-1.25l0,2.49l-0.34,0V4.41l-0.99,0
	C3.01,4.41,3.03,4.41,3.02,4.42L3.02,4.42z M9.99,9.01l0-2.51h0.34v2.45c0,0.03,0,0.02,0.01,0.03c-0.01-0.1,0-0.21,0-0.31
	c0-0.21,0.01-2.12,0-2.17l-0.35,0C9.98,6.8,9.97,9.01,9.99,9.01L9.99,9.01z M12.77,7.42c-0.01-0.01,0.01-0.01-0.01-0.01l0,2.21
	h-0.34c0-0.11-0.01-3.09,0-3.11C12.41,6.5,12.44,6.5,12.41,6.5v3.13l0.35,0C12.77,9.27,12.76,7.44,12.77,7.42L12.77,7.42z
	 M7.55,6.85c0.05,0.01,0.88,0,0.95,0c0.17,0,0.27,0.02,0.35,0.12c0.1,0.12,0.09,0.21,0.09,0.39c0,0.16,0.01,0.29-0.08,0.4
	C8.78,7.87,8.69,7.9,8.51,7.9l-0.96,0C7.56,7.93,8.66,9.46,8.8,9.64l0.48,0c-0.01-0.02-0.21-0.3-0.24-0.35
	C8.95,9.17,8.87,9.06,8.79,8.94L8.29,8.25c0.19-0.02,0.33,0.03,0.52-0.04c0.15-0.05,0.26-0.14,0.33-0.23
	c0.08-0.1,0.14-0.24,0.15-0.41c0-0.15,0.01-0.41-0.02-0.54c-0.07-0.27-0.3-0.48-0.6-0.52c-0.12-0.01-0.9,0-1.11,0V6.85L7.55,6.85z"
	/>
</svg>
