<!-- Generator: Adobe Illustrator 18.1.1, SVG Export Plug-In  -->
<svg version="1.1"
	 xmlns="http://www.w3.org/2000/svg" xmlns:xlink="http://www.w3.org/1999/xlink" xmlns:a="http://ns.adobe.com/AdobeSVGViewerExtensions/3.0/"
	 x="0px" y="0px" width="40px" height="60px" viewBox="0 0 40 60" enable-background="new 0 0 40 60" xml:space="preserve">
<defs>
</defs>
<g>
	<path fill="#868789" d="M2.78,12.05c0.14,0.28,0.11,0.28,0.66,0.13l0.08,0.15c-0.49,0.22-0.97,0.44-1.44,0.68L2,12.86
		c0.46-0.34,0.45-0.31,0.32-0.59c-0.34-0.8-0.71-1.59-1.08-2.37c-0.13,0.06-0.42,0.2-0.58,0.27c-0.17,0.08-0.28,0.14-0.15,0.8
		c-0.04,0.01-0.14,0.07-0.19,0.09c-0.11-0.3-0.22-0.62-0.33-0.92c0.9-0.39,1.79-0.82,2.67-1.26c0.16,0.28,0.32,0.57,0.49,0.85
		C3.11,9.75,3.01,9.79,2.97,9.82c-0.42-0.54-0.53-0.49-0.7-0.41C2.11,9.48,1.81,9.62,1.69,9.68C2.03,10.48,2.4,11.27,2.78,12.05
		L2.78,12.05z"/>
	<path fill="#868789" d="M5.55,8.77C5.36,8.24,5,8.24,4.5,8.43C4.4,8.47,4.29,8.51,4.19,8.56c0.12,0.4,0.29,0.87,0.46,1.34
		c0.08-0.03,0.17-0.06,0.24-0.09C5.42,9.62,5.75,9.33,5.55,8.77L5.55,8.77z M6.04,8.58c0.19,0.52-0.01,0.87-0.46,1.15
		c0.35,0.24,0.77,0.56,1.12,0.75c0.24,0.13,0.25,0.16,0.69,0.09l0.16-0.03l0.06,0.16c-0.15,0.06-0.3,0.11-0.45,0.17
		c-0.17,0.06-0.31,0.12-0.47,0.19c-0.45-0.32-1.06-0.75-1.54-1.09c-0.07,0.03-0.13,0.05-0.2,0.07c-0.07,0.03-0.14,0.05-0.21,0.08
		c0.12,0.33,0.24,0.64,0.35,0.92c0.12,0.3,0.09,0.3,0.65,0.19l0.07,0.16c-0.26,0.09-0.51,0.19-0.76,0.28
		c-0.25,0.09-0.49,0.18-0.74,0.29l-0.06-0.16c0.49-0.29,0.47-0.27,0.37-0.57c-0.24-0.74-0.51-1.47-0.8-2.19
		c-0.11-0.3-0.09-0.3-0.64-0.19L3.1,8.68c0.24-0.09,0.45-0.16,0.67-0.24c0.26-0.1,0.5-0.2,0.81-0.32c0.01-0.01,0.03-0.01,0.04-0.01
		C5.2,7.89,5.8,7.92,6.04,8.58L6.04,8.58z"/>
	<path fill="#868789" d="M9.52,8.75c-0.3-0.4-0.62-0.81-0.94-1.2C8.5,8.05,8.42,8.57,8.35,9.07C8.75,8.98,9.14,8.87,9.52,8.75
		L9.52,8.75z M11.22,9.7c-0.45,0.11-0.91,0.24-1.34,0.37L9.82,9.91c0.44-0.21,0.34-0.28,0.31-0.34c-0.14-0.19-0.29-0.4-0.44-0.58
		C9.23,9.1,8.78,9.23,8.32,9.37c-0.04,0.26-0.06,0.52-0.09,0.77c0.01,0.13,0.18,0.11,0.42,0.1l0.04,0.16
		c-0.37,0.1-0.74,0.19-1.12,0.3l-0.03-0.16c0.16-0.08,0.31-0.17,0.34-0.32c0.2-1.12,0.36-2.24,0.5-3.36
		C8.46,6.85,8.53,6.83,8.6,6.81c0.44,0.58,1.68,2.15,1.85,2.35c0.21,0.27,0.27,0.44,0.72,0.38L11.22,9.7L11.22,9.7z"/>
	<path fill="#868789" d="M14.5,5.58l0.03,0.17c-0.38,0.14-0.5,0.13-0.45,0.44c0.14,0.99,0.31,1.96,0.49,2.94
		c-0.07,0.01-0.15,0.02-0.23,0.03c-0.86-0.81-1.75-1.59-2.66-2.36c0.11,0.74,0.24,1.46,0.38,2.18c0.05,0.32,0.15,0.3,0.55,0.29
		l0.04,0.17c-0.45,0.07-0.91,0.16-1.35,0.24l-0.03-0.17c0.38-0.13,0.5-0.13,0.45-0.45c-0.12-0.8-0.26-1.59-0.41-2.39
		c-0.06-0.31-0.15-0.28-0.56-0.27l-0.04-0.17C11,6.2,11.29,6.15,11.59,6.09c0.81,0.76,1.66,1.51,2.51,2.24
		c-0.11-0.69-0.24-1.37-0.37-2.06c-0.05-0.31-0.14-0.29-0.54-0.28l-0.04-0.17C13.6,5.76,14.05,5.68,14.5,5.58L14.5,5.58z"/>
	<path fill="#868789" d="M16.19,5.35c0.36-0.02,0.68,0.05,0.88,0.1c0.02,0.29,0.06,0.58,0.09,0.87c-0.07,0-0.14,0.01-0.21,0.01
		c-0.08-0.29-0.21-0.76-0.82-0.7c-0.4,0.04-0.59,0.33-0.57,0.6c0.02,0.3,0.22,0.45,0.87,0.66c0.85,0.28,1,0.66,1.03,0.99
		c0.05,0.7-0.53,1.11-1.14,1.17C15.91,9.09,15.56,9,15.3,8.94c-0.01-0.33-0.03-0.65-0.05-0.96c0.07-0.01,0.14-0.01,0.21-0.01
		c0.15,0.71,0.58,0.82,0.87,0.79c0.2-0.02,0.71-0.17,0.66-0.68c-0.03-0.38-0.34-0.55-0.87-0.73c-0.62-0.22-0.96-0.42-1-0.9
		C15.06,5.83,15.62,5.4,16.19,5.35L16.19,5.35z"/>
	<path fill="#868789" d="M18.81,8.23c0.01,0.32-0.01,0.31,0.55,0.39l0.02,0.18c-0.54,0-1.07,0.01-1.6,0.05V8.66
		c0.55-0.11,0.54-0.1,0.53-0.42c0-0.78-0.02-1.56-0.06-2.34c-0.02-0.31,0-0.3-0.57-0.39l-0.01-0.17c0.54-0.01,1.06-0.02,1.6-0.05
		l-0.01,0.17c-0.56,0.11-0.53,0.1-0.53,0.42C18.74,6.68,18.77,7.44,18.81,8.23L18.81,8.23z"/>
	<path fill="#868789" d="M20.2,5.86c0.01-0.31,0.03-0.3-0.52-0.41V5.27c0.53,0.04,1.05,0.06,1.59,0.06l-0.01,0.18
		c-0.56,0.07-0.54,0.06-0.56,0.37c-0.06,0.87-0.1,1.74-0.11,2.61c0.41,0.02,0.67,0.03,1.06,0.05c0.42,0.01,0.4-0.03,0.76-0.64
		c0.08,0.01,0.16,0.01,0.24,0.01c-0.13,0.31-0.25,0.63-0.36,0.96c-0.92-0.06-1.82-0.09-2.73-0.1l0.01-0.19
		c0.56-0.07,0.54-0.06,0.55-0.38C20.16,7.43,20.19,6.65,20.2,5.86L20.2,5.86z"/>
	<path fill="#868789" d="M24.1,8.26c0.36-0.73,0.72-1.48,1.04-2.24c0.04-0.1-0.12-0.16-0.35-0.25l0.02-0.16
		c0.38,0.06,0.76,0.11,1.15,0.13l-0.01,0.17c-0.19,0-0.35,0.04-0.43,0.15c-0.52,0.98-1.02,1.97-1.48,2.97
		c-0.08,0-0.16-0.01-0.23-0.03c-0.22-0.95-0.46-1.91-0.72-2.86c-0.08-0.33-0.08-0.5-0.53-0.62l0.01-0.17
		c0.46,0.07,0.92,0.12,1.38,0.15l-0.03,0.17c-0.48,0.04-0.41,0.13-0.4,0.2C23.7,6.69,23.89,7.47,24.1,8.26L24.1,8.26z"/>
	<path fill="#868789" d="M27.51,8.2c-0.1-0.5-0.21-1.01-0.33-1.51c-0.29,0.43-0.57,0.86-0.85,1.28C26.73,8.07,27.12,8.15,27.51,8.2
		L27.51,8.2z M28.64,9.81c-0.46-0.1-0.92-0.19-1.37-0.26l0.03-0.16c0.48,0,0.42-0.11,0.42-0.17c-0.05-0.23-0.09-0.48-0.14-0.72
		c-0.47-0.1-0.93-0.19-1.4-0.26c-0.14,0.21-0.27,0.44-0.42,0.66c-0.04,0.1,0.12,0.18,0.34,0.27l-0.03,0.17
		c-0.37-0.08-0.74-0.15-1.13-0.21l0.03-0.16c0.19,0,0.35-0.01,0.44-0.14C26.06,7.9,26.68,6.96,27.29,6
		c0.08,0.02,0.15,0.04,0.22,0.05c0.15,0.72,0.6,2.68,0.66,2.93c0.07,0.33,0.05,0.51,0.5,0.65L28.64,9.81L28.64,9.81z"/>
	<path fill="#868789" d="M33.37,7.55l-0.06,0.17c-0.4-0.05-0.5-0.1-0.59,0.2c-0.29,0.95-0.56,1.91-0.82,2.85
		c-0.07-0.02-0.15-0.04-0.23-0.06c-0.43-1.11-0.9-2.21-1.39-3.29c-0.21,0.71-0.41,1.42-0.59,2.13c-0.08,0.31,0.02,0.33,0.38,0.49
		l-0.05,0.17c-0.44-0.13-0.88-0.26-1.32-0.39l0.06-0.16c0.4,0.04,0.5,0.1,0.59-0.21c0.23-0.76,0.45-1.54,0.65-2.32
		C30.1,6.83,30,6.81,29.63,6.64l0.04-0.17c0.28,0.1,0.56,0.19,0.85,0.26c0.41,1.06,0.85,2.09,1.31,3.13
		c0.2-0.67,0.38-1.34,0.55-2.02c0.08-0.31-0.01-0.32-0.38-0.48l0.04-0.18C32.47,7.31,32.92,7.44,33.37,7.55L33.37,7.55z"/>
	<path fill="#868789" d="M33.72,10.82c-0.1,0.3-0.12,0.28,0.37,0.57l-0.05,0.18c-0.5-0.21-0.98-0.4-1.49-0.56l0.06-0.17
		c0.56,0.11,0.54,0.11,0.65-0.19c0.29-0.72,0.54-1.46,0.8-2.2c0.1-0.3,0.11-0.28-0.38-0.58l0.05-0.16c0.5,0.19,0.99,0.38,1.5,0.55
		l-0.07,0.16c-0.56-0.1-0.53-0.1-0.64,0.19C34.24,9.36,33.97,10.09,33.72,10.82L33.72,10.82z"/>
	<path fill="#868789" d="M36.83,11.27c0.01-0.51,0.01-1.03,0.01-1.54c-0.38,0.35-0.75,0.7-1.12,1.05
		C36.09,10.96,36.46,11.12,36.83,11.27L36.83,11.27z M37.56,13.1c-0.43-0.21-0.86-0.4-1.28-0.58l0.06-0.16
		c0.47,0.11,0.44-0.01,0.45-0.07c0.01-0.24,0.02-0.49,0.02-0.73c-0.43-0.2-0.86-0.41-1.31-0.59c-0.18,0.18-0.36,0.37-0.55,0.55
		c-0.07,0.1,0.07,0.2,0.26,0.35l-0.06,0.15c-0.35-0.17-0.69-0.32-1.05-0.47l0.07-0.16c0.18,0.05,0.34,0.07,0.46-0.02
		c0.85-0.75,1.67-1.51,2.48-2.29c0.07,0.03,0.14,0.07,0.21,0.09c-0.02,0.73-0.03,2.75-0.03,3.01c-0.01,0.34-0.06,0.51,0.33,0.75
		L37.56,13.1L37.56,13.1z"/>
	<path fill="#868789" d="M39.34,10.14c-0.02,0.04-0.09,0.14-0.24,0.06l-0.08-0.05c0.01-0.02,0.12-0.25,0.13-0.27
		c0.02,0.02,0.1,0.03,0.1,0.03C39.35,9.96,39.38,10.05,39.34,10.14L39.34,10.14z M39.4,10.83l-0.04-0.05
		c-0.08-0.06-0.09-0.06-0.1-0.12l0.01-0.01l-0.05-0.22c0,0-0.01-0.05,0-0.08c0.13,0.01,0.24-0.07,0.28-0.15
		c0.05-0.1,0.05-0.26-0.14-0.35l-0.43-0.22l0,0.03L38.89,9.7l0.01,0.01C39,9.78,39,9.78,38.99,9.84c-0.01,0.01-0.27,0.54-0.27,0.54
		c-0.03,0.06-0.03,0.06-0.15,0.02h-0.01l-0.03,0.07l0.4,0.2l0-0.01l0.03-0.06l-0.02-0.02c-0.09-0.08-0.09-0.08-0.07-0.12
		c0-0.01,0.08-0.16,0.11-0.23c0.02,0.02,0.06,0.05,0.07,0.06c0,0.01,0.06,0.47,0.06,0.47l0.02,0.01l0.24,0.12l0.02-0.01L39.4,10.83
		L39.4,10.83z M39.46,9.55c-0.39-0.19-0.87-0.04-1.06,0.36c-0.19,0.4-0.03,0.89,0.36,1.07c0.39,0.2,0.86,0.02,1.05-0.37
		C40,10.22,39.84,9.75,39.46,9.55L39.46,9.55z M39.91,10.66c-0.22,0.44-0.75,0.64-1.19,0.42c-0.45-0.22-0.63-0.77-0.41-1.22
		c0.21-0.45,0.75-0.63,1.2-0.4C39.94,9.67,40.13,10.22,39.91,10.66L39.91,10.66z"/>
	<path fill="#868789" d="M12.82,3.04c-0.13-0.69-0.65-0.66-1.46-0.5c0.15,0.87,0.2,1.1,0.27,1.45C12.33,3.95,12.93,3.7,12.82,3.04
		L12.82,3.04z M11.11,1.1c0.03,0.2,0.07,0.46,0.2,1.21c0.87-0.15,1.15-0.34,1.06-0.84C12.29,1.02,11.91,0.88,11.11,1.1L11.11,1.1z
		 M13.33,2.96c0.12,0.67-0.48,1.11-1.05,1.2c-0.58,0.1-1.08,0.18-1.65,0.3l-0.02-0.17c0.54-0.19,0.52-0.18,0.47-0.49
		c-0.11-0.78-0.25-1.54-0.4-2.32c-0.06-0.31-0.04-0.31-0.61-0.29l-0.04-0.17c0.58-0.09,1-0.17,1.57-0.29
		c0.7-0.13,1.18,0.1,1.27,0.66c0.07,0.38-0.19,0.65-0.47,0.8C12.79,2.21,13.23,2.37,13.33,2.96L13.33,2.96z"/>
	<path fill="#868789" d="M15.72,2.32c-0.24-0.45-0.48-0.9-0.73-1.35c-0.16,0.49-0.31,0.99-0.46,1.47
		C14.92,2.42,15.32,2.37,15.72,2.32L15.72,2.32z M17.24,3.55c-0.46,0.04-0.93,0.08-1.39,0.14l-0.02-0.18
		c0.47-0.13,0.38-0.22,0.36-0.28c-0.12-0.2-0.22-0.43-0.34-0.64c-0.47,0.03-0.95,0.08-1.42,0.14c-0.07,0.25-0.14,0.5-0.21,0.76
		c-0.01,0.11,0.16,0.14,0.39,0.16l0.02,0.18c-0.39,0.02-0.76,0.06-1.15,0.12l-0.02-0.17c0.18-0.05,0.32-0.1,0.39-0.25
		c0.37-1.07,0.71-2.14,1.04-3.24c0.08-0.01,0.15-0.01,0.22-0.02c0.34,0.65,1.31,2.4,1.44,2.63c0.16,0.3,0.19,0.47,0.65,0.49
		L17.24,3.55L17.24,3.55z"/>
	<path fill="#868789" d="M21.12,0v0.17c-0.4,0.08-0.51,0.05-0.51,0.37c-0.01,0.99,0,1.98,0.03,2.97c-0.07,0-0.16,0-0.24,0
		c-0.73-0.94-1.48-1.85-2.26-2.75c-0.01,0.75,0.01,1.48,0.03,2.22c0.01,0.33,0.11,0.31,0.51,0.36l0.01,0.17
		c-0.46,0-0.91,0.01-1.37,0.02V3.36c0.4-0.07,0.51-0.05,0.51-0.37c0.01-0.8-0.01-1.6-0.04-2.41c-0.01-0.32-0.1-0.31-0.51-0.36
		l-0.01-0.17c0.3,0,0.59,0,0.9-0.01c0.68,0.89,1.41,1.76,2.13,2.61c0-0.7-0.02-1.4-0.04-2.1c-0.01-0.32-0.1-0.3-0.5-0.36l-0.01-0.17
		C20.21,0.02,20.67,0.02,21.12,0L21.12,0z"/>
	<path fill="#868789" d="M23.45,0.07c0.54,0.05,1.08,0.25,1.2,0.31c-0.04,0.33-0.05,0.68-0.06,1.02L24.37,1.4
		c-0.06-0.36,0-0.97-1-1.05c-0.99-0.08-1.41,0.67-1.46,1.41c-0.07,0.77,0.26,1.56,1.3,1.63c0.56,0.05,1.1-0.2,1.19-0.25l0.1,0.22
		c-0.08,0.05-0.73,0.45-1.54,0.38c-1.04-0.08-1.66-0.83-1.59-1.93C21.44,0.68,22.29-0.03,23.45,0.07L23.45,0.07z"/>
	<path fill="#868789" d="M27.15,2.77c-0.12-0.5-0.25-1-0.38-1.5c-0.28,0.43-0.55,0.87-0.82,1.31C26.35,2.66,26.75,2.72,27.15,2.77
		L27.15,2.77z M28.31,4.35c-0.46-0.09-0.92-0.16-1.37-0.22l0.02-0.17c0.48-0.01,0.42-0.13,0.42-0.19c-0.05-0.23-0.1-0.48-0.17-0.72
		c-0.47-0.08-0.93-0.16-1.41-0.22c-0.13,0.22-0.26,0.46-0.4,0.67c-0.04,0.11,0.12,0.17,0.34,0.26l-0.03,0.16
		c-0.37-0.07-0.74-0.12-1.13-0.18l0.03-0.17c0.19,0,0.35-0.02,0.44-0.15c0.63-0.93,1.23-1.88,1.81-2.85
		c0.08,0.01,0.15,0.02,0.22,0.03c0.16,0.72,0.67,2.66,0.74,2.92c0.08,0.33,0.06,0.5,0.51,0.63L28.31,4.35L28.31,4.35z"/>
	<path fill="#868789" d="M12.84,34.21c-0.05-1.26-0.06-2.06-0.06-5.19c2.92-0.1,4.49,0.16,4.49,2.68
		C17.26,34.02,15.35,34.53,12.84,34.21L12.84,34.21z M16.65,25.93c0,1.82-0.74,2.27-3.87,2.24c0-2.69,0.02-3.61,0.06-4.3
		C15.72,23.59,16.65,24.3,16.65,25.93L16.65,25.93z M16.31,28.42c1.08-0.34,2.15-1.1,2.15-2.49c0-2.02-1.52-3.11-4.03-3.07
		c-2.1,0.04-3.27,0.05-5.32,0l0.01,0.61c1.98,0.34,1.91,0.3,1.92,1.42c0.07,2.76,0.07,5.53,0,8.29c-0.01,1.12,0.06,1.08-1.92,1.43
		l-0.01,0.62c2.05-0.06,3.54-0.04,5.63,0c2,0.03,4.35-1.11,4.35-3.52C19.09,29.59,17.64,28.76,16.31,28.42L16.31,28.42z
		 M25.73,33.18c0.02,1.12-0.06,1.08,1.93,1.43l0.01,0.62c-1.88-0.05-3.76-0.05-5.63,0l0.02-0.62c1.98-0.35,1.9-0.3,1.92-1.43
		c0.08-3.07,0.08-6.16,0-9.22h-1.92c-0.67,0-1.1,0-1.63,2.35h-0.74c0.13-1.15,0.23-2.31,0.3-3.47c3.47,0.09,6.26,0.09,9.73,0.01
		c0.07,1.15,0.17,2.31,0.3,3.46h-0.74c-0.54-2.35-0.96-2.35-1.63-2.35h-1.93C25.65,27.02,25.65,30.11,25.73,33.18L25.73,33.18z
		 M5,16.94c0.42,0.82,0.17,1.71-0.6,2.2c3.19,4.28,3.85,10.32,1.67,15.21c0.84,0.6,0.93,1.79,0.19,2.51
		c3.29,4.44,7.36,8.05,12.14,10.76c0.68-0.89,1.91-0.89,2.59,0c4.77-2.71,8.86-6.33,12.14-10.76c-0.74-0.72-0.65-1.92,0.18-2.51
		c-2.18-4.89-1.51-10.93,1.67-15.21c-0.77-0.5-1.01-1.38-0.6-2.2C24.82,12.48,14.57,12.48,5,16.94L5,16.94z M35.07,16.76
		c-0.79,0.82-0.46,1.93,0.63,2.19c-3.45,4.37-4.17,10.54-1.8,15.61c-1.03,0.4-1.11,1.69-0.14,2.21c-3.45,4.79-7.82,8.66-12.96,11.49
		c-0.43-1.11-1.82-1.11-2.24,0c-5.13-2.83-9.5-6.71-12.96-11.49c0.97-0.52,0.89-1.82-0.14-2.21c2.37-5.07,1.65-11.24-1.8-15.61
		c1.09-0.25,1.42-1.37,0.63-2.19C14.23,11.95,25.14,11.95,35.07,16.76L35.07,16.76z M2.61,18.71c-0.27,0.11-0.59,0.22-0.92,0.35
		c3.73,4.02,4.63,10.23,2.14,15.18l0.73,0.64C7.29,29.74,6.45,23.04,2.61,18.71L2.61,18.71z M34.74,36.57
		c-3.85,5.55-9.04,10.05-15.04,13.05c-6.02-3-11.2-7.5-15.06-13.05l-0.56,0.85c4.03,5.73,9.3,10.21,15.62,13.26
		c6.31-3.05,11.58-7.53,15.61-13.26L34.74,36.57L34.74,36.57z M2.53,16.94c10.99-6.04,23.32-6.04,34.31,0
		c0.09-0.2,0.25-0.53,0.41-0.88c-11.27-6.12-23.86-6.12-35.12,0C2.3,16.41,2.45,16.75,2.53,16.94L2.53,16.94z M35.55,34.25
		l-0.74,0.64c-2.73-5.15-1.88-11.85,1.97-16.18c0.27,0.11,0.59,0.22,0.91,0.35C33.96,23.09,33.06,29.3,35.55,34.25L35.55,34.25z"/>
	<path fill="#868789" d="M38.02,55.88H1.4v1.37h36.61V55.88L38.02,55.88z"/>
	<path fill="#868789" d="M38.02,58.62H1.4V60h36.61V58.62L38.02,58.62z"/>
</g>
</svg>
