<!-- Generator: Adobe Illustrator 18.1.1, SVG Export Plug-In  -->
<svg version="1.1"
	 xmlns="http://www.w3.org/2000/svg" xmlns:xlink="http://www.w3.org/1999/xlink" xmlns:a="http://ns.adobe.com/AdobeSVGViewerExtensions/3.0/"
	 x="0px" y="0px" width="12.02px" height="12.3px" viewBox="0 0 12.02 12.3" enable-background="new 0 0 12.02 12.3"
	 xml:space="preserve">
<defs>
</defs>
<path fill-rule="evenodd" clip-rule="evenodd" fill="#868789" d="M11.42,8.14h-0.1c0.32-0.72,0.49-1.51,0.49-2.34
	c0-3.2-2.6-5.8-5.8-5.8c-3.2,0-5.8,2.6-5.8,5.8c0,0.83,0.18,1.63,0.5,2.34h-0.1C0.27,8.14,0,8.41,0,8.75l0,1.77
	c0,0.33,0.27,0.61,0.61,0.61h2.1c-0.01,0.03-0.02,0.06-0.02,0.09v0.86c0,0.12,0.06,0.22,0.14,0.22h6.36c0.08,0,0.14-0.1,0.14-0.22
	v-0.86c0-0.03,0-0.07-0.01-0.09h2.1c0.33,0,0.61-0.27,0.61-0.61V8.75C12.02,8.41,11.75,8.14,11.42,8.14z"/>
<path fill-rule="evenodd" clip-rule="evenodd" fill="#FFFFFF" d="M0.34,5.8c0-3.13,2.54-5.67,5.67-5.67c3.13,0,5.67,2.54,5.67,5.67
	c0,0.84-0.18,1.63-0.51,2.34H0.84C0.52,7.43,0.34,6.63,0.34,5.8z M11.9,10.51c0,0.26-0.22,0.48-0.48,0.48H9.19c0,0,0,0,0,0H2.83
	c0,0,0,0,0,0H0.61c-0.26,0-0.48-0.22-0.48-0.48V8.75c0-0.27,0.22-0.48,0.48-0.48h10.81c0.26,0,0.48,0.22,0.48,0.48V10.51z"/>
<path fill-rule="evenodd" clip-rule="evenodd" fill="#868789" d="M6.01,0.48c2.94,0,5.32,2.38,5.32,5.32c0,0.84-0.2,1.64-0.54,2.34
	H1.23C0.88,7.43,0.69,6.64,0.69,5.8C0.69,2.86,3.07,0.48,6.01,0.48z"/>
<path fill-rule="evenodd" clip-rule="evenodd" fill="#BBBBBC" d="M6.01,0.76c2.78,0,5.04,2.26,5.04,5.04c0,0.85-0.21,1.64-0.58,2.34
	H1.55c-0.37-0.7-0.58-1.5-0.58-2.34C0.97,3.02,3.23,0.76,6.01,0.76z"/>
<path fill-rule="evenodd" clip-rule="evenodd" fill="#FFFFFF" d="M6.01,0.83l0.15,2.64l0.48-2.6L6.45,3.51l0.8-2.53l-0.52,2.6
	l1.11-2.4L7,3.69l1.4-2.24L7.26,3.83l1.67-2.05L7.5,4l1.92-1.83L7.71,4.2l2.13-1.57L7.9,4.43l2.31-1.29L8.05,4.68l2.45-0.99
	L8.18,4.94l2.56-0.68L8.27,5.22l2.62-0.35L8.32,5.51l2.65-0.02L8.34,5.8l2.63,0.31L8.32,6.09l2.57,0.64L8.27,6.38l2.47,0.96
	L8.18,6.66l2.33,1.26L8.05,6.92l1.71,1.22H9.63L7.9,7.17l1.05,0.97H8.72L7.71,7.39l0.63,0.75H8.07L7.5,7.6l0.35,0.55H7.56l-0.3-0.37
	l0.16,0.33C7.08,7.7,6.57,7.45,6.01,7.45c-0.56,0-1.06,0.25-1.41,0.65l0.16-0.33l-0.3,0.37H4.17L4.52,7.6L3.95,8.14H3.68l0.63-0.75
	L3.3,8.14H3.07l1.05-0.97L2.39,8.14H2.26l1.71-1.22L1.51,7.91l2.33-1.26L1.29,7.34l2.47-0.96L1.13,6.73L3.7,6.09L1.05,6.11L3.68,5.8
	L1.05,5.49L3.7,5.51L1.13,4.87l2.62,0.35L1.29,4.26l2.56,0.68L1.51,3.68l2.45,0.99L1.81,3.14l2.31,1.29l-1.94-1.8L4.31,4.2
	l-1.7-2.03L4.52,4L3.09,1.78l1.67,2.05L3.62,1.44l1.4,2.24L4.18,1.18l1.11,2.4l-0.52-2.6l0.8,2.53L5.39,0.87l0.48,2.6L6.01,0.83z"/>
<path fill-rule="evenodd" clip-rule="evenodd" fill="#868789" d="M4.49,3.28L4.14,2.2l0.78,0l0,0l2.17,0v0h0.78L7.53,3.28v0.31H7.41
	l0,2.78C7.45,6.38,7.5,6.4,7.54,6.43l0,0l0.25-1.67l-0.1-0.01l0.05-0.31H7.68L7.54,3.58l0.58,0.09v0l1.47,0.22l0,0l0.58,0.09
	L9.78,4.74L9.73,4.73l-0.04,0.3l-0.1-0.01L9.12,8.14H8.46l0.3-0.12C8.63,7.75,8.46,7.5,8.27,7.28L8.08,7.47v0.68H7.46
	C7.12,7.72,6.59,7.45,6.01,7.45c-0.58,0-1.11,0.27-1.45,0.69H4.06V7.58l-0.3-0.29C3.56,7.5,3.4,7.75,3.28,8.02l0.29,0.12H2.9
	L2.43,5.02l-0.1,0.01l-0.04-0.3L2.24,4.74L1.86,3.97l0.58-0.09l0,0l1.47-0.22l0,0l0.58-0.09L4.34,4.43H4.29l0.04,0.31L4.24,4.75
	l0.25,1.68c0.04-0.02,0.09-0.04,0.13-0.07l0-2.78H4.49L4.49,3.28L4.49,3.28z M7.41,6.61L7.41,6.61C7.38,6.59,7.34,6.58,7.3,6.56
	L6.98,7.35h0.74l0.31-0.31C7.84,6.87,7.64,6.73,7.41,6.61L7.41,6.61z M7,6.43C6.97,6.43,6.94,6.42,6.92,6.41l0,0l-0.01,0l-0.01,0
	l-0.01,0l0,0l-0.01,0l0,0l-0.01,0h0l-0.01,0l-0.01,0l-0.01,0h0C6.62,6.32,6.4,6.29,6.18,6.28l0,0.89C6.34,7.18,6.5,7.21,6.65,7.26
	L7,6.43L7,6.43z M5.23,6.38L5.23,6.38l-0.02,0l-0.01,0l-0.01,0l-0.01,0l-0.01,0l0,0l-0.01,0l0,0l-0.01,0l0,0l-0.01,0l-0.01,0
	l-0.01,0l-0.01,0l-0.01,0h0l-0.01,0l-0.01,0l0,0l-0.01,0l0,0l-0.01,0l-0.01,0l0.34,0.83c0.15-0.05,0.31-0.08,0.47-0.09V6.28
	C5.63,6.29,5.43,6.32,5.23,6.38L5.23,6.38z M4.72,6.56C4.69,6.58,4.65,6.6,4.62,6.62l0,0C4.39,6.73,4.18,6.88,4,7.05l0.31,0.31h0.74
	L4.72,6.56L4.72,6.56z M7.72,6.53c0,0,0.01,0.01,0.02,0.01C7.74,6.54,7.73,6.54,7.72,6.53z"/>
<path fill-rule="evenodd" clip-rule="evenodd" fill="#FFFFFF" d="M2.73,5.8l0.04,0.26l0.48-0.07L3.22,5.73L2.73,5.8L2.73,5.8z
	 M9.29,5.8L9.25,6.06L8.76,5.99L8.8,5.73L9.29,5.8L9.29,5.8z M9.59,4.71L7.87,4.45L7.85,4.62l1.72,0.26L9.59,4.71L9.59,4.71z
	 M8.76,4.37l-0.1,0.07l-0.07-0.1L8.51,4.42l-0.07-0.1l-0.11,0.1L8.24,4.29l-0.06,0.1l-0.07-0.1L8.04,4.37l-0.08-0.1L7.94,4.36
	L7.88,4.3l-0.08,0L7.71,3.74l0.3,0.04l0.08,0.28l0.14,0.02L8.21,3.82L8.73,3.9L8.71,4.17l0.17,0.02l0.06-0.27L9.45,4l-0.1,0.25
	L9.5,4.28l0.16-0.25l0.3,0.04l-0.25,0.5L9.63,4.56L9.56,4.6l0.01-0.09L9.45,4.58l-0.04-0.1l-0.1,0.08L9.28,4.44l-0.12,0.1L9.09,4.41
	l-0.1,0.08l-0.05-0.1l-0.1,0.08L8.76,4.37L8.76,4.37z M9.45,4.98l-0.3-0.04L9.1,5.28l0.3,0.04L9.45,4.98L9.45,4.98z M9.08,4.92
	L8.79,4.88L8.74,5.22l0.29,0.04L9.08,4.92L9.08,4.92z M8.71,4.87L8.66,5.21L8.39,5.17l0.05-0.35L8.71,4.87L8.71,4.87z M8.33,4.81
	L8.28,5.16l-0.2-0.03l0.05-0.34L8.33,4.81L8.33,4.81z M8.06,4.77L8.01,5.12L7.87,5.09l0.05-0.34L8.06,4.77L8.06,4.77z M7.86,5.2
	L7.82,5.48l0.53,0.08c0.01-0.06,0.05-0.11,0.1-0.14l0.02-0.13L7.86,5.2L7.86,5.2z M7.8,5.58L7.76,5.84L7.8,5.85l0.04-0.26L7.8,5.58
	L7.8,5.58z M7.75,5.95L7.71,6.18l1.32,0.2l0.03-0.23L8.75,6.1L8.72,6.31L8.24,6.24l0.03-0.21L7.75,5.95L7.75,5.95z M7.7,6.28
	l0.04,0.01L7.71,6.48L7.67,6.47L7.7,6.28L7.7,6.28z M7.85,6.62l0-0.01l-0.02,0L7.85,6.62L7.85,6.62z M8.96,7.94L8.96,7.94l0.05-0.31
	L8.78,7.59C8.78,7.6,8.79,7.61,8.8,7.62c0,0.01,0.01,0.02,0.02,0.03c0.01,0.01,0.01,0.03,0.02,0.04C8.84,7.7,8.85,7.71,8.86,7.73
	c0.01,0.01,0.01,0.02,0.02,0.03C8.88,7.77,8.89,7.78,8.89,7.8C8.9,7.81,8.91,7.82,8.91,7.83c0.01,0.01,0.01,0.03,0.02,0.04
	c0,0.01,0.01,0.02,0.01,0.03C8.95,7.91,8.96,7.92,8.96,7.94L8.96,7.94z M9.08,7.53L9.1,7.35L8.98,7.33L8.95,7.51L9.08,7.53
	L9.08,7.53z M9.15,7l0.03-0.19L9.07,6.79L9.04,6.98L9.15,7L9.15,7z M9.24,6.4l0.03-0.23L9.13,6.15L9.1,6.38L9.24,6.4L9.24,6.4z
	 M9.34,5.71l0.04-0.28L9.29,5.41L9.25,5.69L9.34,5.71L9.34,5.71z M9.22,5.4L9.18,5.68L8.82,5.63C8.83,5.51,8.74,5.4,8.61,5.38
	c-0.03,0-0.06,0-0.09,0L8.53,5.3L9.22,5.4L9.22,5.4z M8.22,6.66L8.19,6.86L8.15,6.85l0,0C8.14,6.84,8.13,6.83,8.12,6.83
	C8.11,6.82,8.1,6.81,8.09,6.8C8.08,6.79,8.07,6.78,8.06,6.77C8.05,6.77,8.04,6.76,8.03,6.75C8.02,6.74,8.01,6.73,8,6.72
	C7.99,6.72,7.98,6.71,7.97,6.7C7.96,6.69,7.95,6.69,7.94,6.68l0,0L7.92,6.67l0.01-0.05L8.22,6.66L8.22,6.66z M8.26,6.87l0.03-0.19
	l0.33,0.05L8.59,6.92L8.26,6.87L8.26,6.87z M8.66,6.93l0.03-0.19L9,6.78L8.97,6.97L8.66,6.93L8.66,6.93z M8.87,6.45L8.84,6.65
	L8.53,6.6l0.03-0.19L8.87,6.45L8.87,6.45z M8.91,6.66l0.03-0.19L9.18,6.5L9.15,6.69L8.91,6.66L8.91,6.66z M8.49,6.4L8.46,6.59
	L8.14,6.54l0.03-0.19L8.49,6.4L8.49,6.4z M8.09,6.34L8.07,6.53L7.78,6.49L7.81,6.3L8.09,6.34L8.09,6.34z M8.29,5.92L7.87,5.86
	L7.91,5.6l0.42,0.06L8.29,5.92L8.29,5.92z M8.56,7.28l0-0.01l0.34,0.05L8.88,7.5L8.7,7.47C8.69,7.45,8.67,7.43,8.66,7.41l0-0.01
	C8.64,7.39,8.63,7.37,8.62,7.35l0-0.01C8.6,7.33,8.58,7.31,8.56,7.28L8.56,7.28L8.56,7.28L8.56,7.28z M8.29,6.98l0.07,0.01
	L8.35,7.04C8.34,7.03,8.33,7.02,8.32,7.01l0,0l0,0l0,0C8.31,7,8.3,6.99,8.29,6.98L8.29,6.98L8.29,6.98L8.29,6.98L8.29,6.98
	L8.29,6.98z M8.43,7l0.3,0.05L8.71,7.19L8.45,7.15C8.44,7.13,8.43,7.12,8.42,7.11l0,0l0,0l0,0l0,0L8.43,7L8.43,7z M8.8,7.05
	L9.09,7.1L9.07,7.24L8.78,7.2L8.8,7.05L8.8,7.05z M6.01,3.04L5.88,3.16L5.76,3.03L5.66,3.16L5.54,3.02L5.41,3.19L5.26,3.02
	L5.19,3.18L5.07,3.04L4.98,3.18L4.84,3.06L4.83,3.19l-0.1-0.07L4.62,3.13L4.38,2.36l0.44,0l0.17,0.39h0.21L5.11,2.37h0.75l0.02,0.39
	h0.25l0.02-0.39l0.75,0L6.83,2.75h0.21l0.17-0.39l0.44,0L7.4,3.13L7.29,3.12l-0.1,0.07L7.18,3.06L7.04,3.18L6.95,3.04L6.83,3.17
	L6.77,3.02L6.62,3.19L6.48,3.02L6.36,3.16L6.26,3.03L6.14,3.16L6.01,3.04L6.01,3.04z M6.27,5.44v0.21h0.45V5.44L6.27,5.44L6.27,5.44
	z M6.16,5.65V5.44H5.65v0.21L6.16,5.65L6.16,5.65z M5.54,5.65V5.44l-0.47,0v0.21H5.54L5.54,5.65z M5.33,5.13v0.21l0.47,0V5.13H5.33
	L5.33,5.13z M5.22,5.33V5.13H4.84v0.21H5.22L5.22,5.33z M5.92,5.13v0.21l0.5,0V5.12L5.92,5.13L5.92,5.13z M6.53,5.12v0.21h0.44V5.12
	H6.53L6.53,5.12z M6.84,5.44v0.21l0.35,0V5.44H6.84L6.84,5.44z M6.3,6.03l0,0.03c0.18,0.02,0.35,0.05,0.52,0.09l0-0.12H6.3L6.3,6.03
	z M6.19,6.05V6.03l-0.47,0v0.03c0.1-0.01,0.19-0.01,0.3-0.01C6.07,6.05,6.13,6.05,6.19,6.05L6.19,6.05z M5.61,6.07V6.03H5.07v0.15
	C5.25,6.13,5.42,6.09,5.61,6.07L5.61,6.07z M7.05,6.22h0.13V6.03l-0.25,0v0.15C6.98,6.19,7.02,6.2,7.05,6.22L7.05,6.22z M7.02,5.76
	H6.57v0.15l0.45,0V5.76L7.02,5.76z M6.46,5.76H5.99v0.15h0.47V5.76L6.46,5.76z M5.88,5.76H5.41v0.15h0.47L5.88,5.76L5.88,5.76z
	 M5.29,5.77H4.84v0.15h0.45V5.77L5.29,5.77z M4.78,3.5h0.46v0.35H4.78V3.5L4.78,3.5z M5.35,3.5l0.46,0v0.35H5.35V3.5L5.35,3.5z
	 M5.92,3.5h0.43v0.35l-0.43,0L5.92,3.5L5.92,3.5z M6.52,3.5h0.31v0.35l-0.31,0L6.52,3.5L6.52,3.5z M6.94,3.5l0.3,0v0.35h-0.3V3.5
	L6.94,3.5z M7.24,4.38v0.28H7.1l0-0.28L7.24,4.38L7.24,4.38z M7.24,5.12v0.21H7.09V5.12H7.24L7.24,5.12z M7.24,5.76l0,0.15H7.13
	l0-0.15H7.24L7.24,5.76z M4.79,6.22V6.03h0.17v0.19H4.79L4.79,6.22z M4.79,5.65V5.45h0.16l0,0.21H4.79L4.79,5.65z M4.78,5.01V4.77
	h0.21v0.24H4.78L4.78,5.01z M4.78,4.26l0-0.3l0.14,0l0,0.3H4.78L4.78,4.26z M5.51,4.01c0.14,0,0.26,0.11,0.26,0.24v0.01h0.34v-0.3
	l-1.07,0v0.3h0.22V4.25C5.25,4.12,5.37,4.01,5.51,4.01L5.51,4.01z M5.76,4.38v0.28h0.07V4.38H5.76L5.76,4.38z M5.76,4.77v0.2H5.25
	v-0.2H5.1v0.24l2.08,0V4.77H6.77v0.2l-0.51,0v-0.2H5.76L5.76,4.77z M5.25,4.66V4.38l-0.41,0v0.28H5.25L5.25,4.66z M6.52,4.01
	c0.14,0,0.25,0.11,0.25,0.24v0.01l0.41,0v-0.3l-0.96,0v0.3h0.04V4.25C6.26,4.12,6.38,4.01,6.52,4.01L6.52,4.01z M6.77,4.38v0.28
	h0.22V4.38H6.77L6.77,4.38z M6.26,4.66V4.38H5.94l0,0.28H6.26L6.26,4.66z M4.66,3.26l2.7,0l0,0.16l-2.7,0V3.26L4.66,3.26z
	 M2.43,4.71l1.72-0.26l0.03,0.17L2.45,4.88L2.43,4.71L2.43,4.71z M3.26,4.37l0.1,0.07l0.07-0.1l0.08,0.08l0.07-0.1l0.11,0.1
	l0.09-0.13l0.06,0.1l0.07-0.1l0.07,0.09l0.09-0.1l0.02,0.09L4.15,4.3l0.08,0l0.09-0.55l-0.3,0.04L3.93,4.07L3.79,4.09l0.02-0.27
	L3.29,3.9l0.02,0.27L3.15,4.19L3.09,3.93L2.57,4l0.1,0.25L2.53,4.28L2.37,4.03l-0.3,0.04l0.25,0.5l0.07-0.02L2.46,4.6L2.46,4.51
	l0.11,0.07l0.04-0.1l0.1,0.08l0.03-0.11l0.12,0.1l0.08-0.13l0.1,0.08l0.05-0.1l0.1,0.08L3.26,4.37L3.26,4.37z M2.57,4.98l0.3-0.04
	l0.05,0.35l-0.3,0.04L2.57,4.98L2.57,4.98z M2.94,4.92l0.29-0.04l0.05,0.34l-0.3,0.04L2.94,4.92L2.94,4.92z M3.31,4.87l0.05,0.34
	l0.27-0.04L3.58,4.83L3.31,4.87L3.31,4.87z M3.69,4.81l0.05,0.35l0.2-0.03L3.89,4.78L3.69,4.81L3.69,4.81z M3.96,4.77l0.05,0.35
	l0.14-0.02L4.1,4.75L3.96,4.77L3.96,4.77z M4.16,5.2l0.04,0.28L3.68,5.56C3.67,5.5,3.63,5.45,3.58,5.42L3.56,5.29L4.16,5.2L4.16,5.2
	z M4.22,5.58l0.04,0.26L4.22,5.85L4.18,5.59L4.22,5.58L4.22,5.58z M4.28,5.95l0.04,0.23l-1.32,0.2L2.96,6.14L3.27,6.1L3.3,6.31
	l0.48-0.07L3.75,6.03L4.28,5.95L4.28,5.95z M4.33,6.28L4.28,6.29l0.03,0.19l0.04-0.01L4.33,6.28L4.33,6.28z M4.17,6.62l0-0.02
	l0.03,0C4.19,6.61,4.18,6.62,4.17,6.62L4.17,6.62z M3.07,7.93l-0.02,0L3,7.62l0.25-0.04C3.25,7.6,3.24,7.62,3.23,7.63l0,0.01l0,0.01
	l0,0C3.21,7.67,3.2,7.69,3.19,7.7l0,0l0,0.01L3.18,7.72l0,0C3.17,7.74,3.16,7.75,3.15,7.77l0,0.01l0,0.01l0,0l0,0.01
	C3.13,7.81,3.12,7.83,3.11,7.84L3.11,7.86l0,0.01l0,0C3.09,7.88,3.09,7.89,3.08,7.91l0,0l0,0.01L3.07,7.93L3.07,7.93L3.07,7.93z
	 M2.95,7.53L2.92,7.35l0.12-0.02l0.03,0.17L2.95,7.53L2.95,7.53z M2.87,7L2.84,6.81l0.11-0.02l0.03,0.19L2.87,7L2.87,7z M2.78,6.4
	L2.75,6.18l0.14-0.02l0.03,0.23L2.78,6.4L2.78,6.4z M2.68,5.71L2.63,5.43l0.09-0.01l0.04,0.28L2.68,5.71L2.68,5.71z M2.8,5.4
	l0.04,0.28L3.2,5.63C3.19,5.51,3.28,5.4,3.41,5.38c0.03,0,0.06,0,0.09,0L3.49,5.3L2.8,5.4L2.8,5.4z M3.8,6.66l0.03,0.19l0.05-0.01
	l0,0C3.89,6.84,3.9,6.84,3.9,6.83C3.91,6.82,3.93,6.81,3.94,6.8c0.01-0.01,0.02-0.02,0.03-0.02C3.97,6.77,3.98,6.76,4,6.75
	s0.02-0.02,0.03-0.03l0.02-0.02l0,0l0,0C4.07,6.7,4.08,6.69,4.09,6.68l0,0l0,0L4.09,6.62L3.8,6.66L3.8,6.66z M3.76,6.87L3.73,6.67
	L3.4,6.72l0.03,0.19L3.76,6.87L3.76,6.87z M3.36,6.93L3.33,6.73l-0.3,0.05l0.03,0.19L3.36,6.93L3.36,6.93z M3.15,6.45l0.03,0.19
	l0.3-0.05L3.46,6.41L3.15,6.45L3.15,6.45z M3.11,6.66L3.08,6.46L2.84,6.5l0.03,0.19L3.11,6.66L3.11,6.66z M3.53,6.4l0.03,0.19
	l0.32-0.05L3.85,6.35L3.53,6.4L3.53,6.4z M3.92,6.34l0.03,0.19l0.28-0.04L4.21,6.3L3.92,6.34L3.92,6.34z M3.73,5.92l0.42-0.06
	L4.11,5.6L3.69,5.66L3.73,5.92L3.73,5.92z M3.46,7.29l0-0.02L3.11,7.32L3.14,7.5l0.19-0.03h0c0.01-0.02,0.02-0.03,0.03-0.04
	l0.01-0.02C3.39,7.39,3.4,7.37,3.41,7.36l0.01-0.01C3.43,7.33,3.45,7.31,3.46,7.29L3.46,7.29z M3.74,6.98L3.66,6.99l0.01,0.06
	C3.68,7.04,3.7,7.02,3.71,7.01l0,0v0C3.72,7,3.73,6.99,3.74,6.98L3.74,6.98L3.74,6.98L3.74,6.98L3.74,6.98z M3.59,7l-0.3,0.05
	l0.02,0.14l0.27-0.04l0,0v0v0l0,0l0,0l0,0v0h0v0l0,0l0,0l0,0v0h0C3.6,7.13,3.6,7.12,3.61,7.12L3.59,7L3.59,7z M3.22,7.05L2.93,7.1
	l0.02,0.14L3.24,7.2L3.22,7.05L3.22,7.05z M3.28,8.02C3.4,7.75,3.56,7.5,3.76,7.28L4.4,7.91c0,0.01-0.01,0.01-0.01,0.02L4.37,7.95
	C4.36,7.95,4.36,7.96,4.35,7.97c0,0.01-0.01,0.01-0.01,0.02C4.33,8,4.32,8,4.32,8.01c0,0.01-0.01,0.01-0.01,0.02
	C4.3,8.04,4.29,8.04,4.29,8.05c0,0.01-0.01,0.01-0.01,0.02C4.27,8.08,4.26,8.09,4.26,8.09L4.25,8.11C4.24,8.12,4.23,8.13,4.23,8.14
	l0,0H3.56L3.28,8.02L3.28,8.02z M4,7.05l0.63,0.63c0.01-0.01,0.02-0.01,0.02-0.02l0.01-0.01c0.01-0.01,0.02-0.01,0.02-0.02
	c0.01,0,0.01-0.01,0.02-0.01C4.72,7.61,4.73,7.6,4.73,7.59c0.01,0,0.01-0.01,0.02-0.01c0.01,0,0.01-0.01,0.02-0.02
	c0.01-0.01,0.02-0.01,0.02-0.02l0.02-0.01c0.01-0.01,0.01-0.01,0.02-0.02c0,0,0.01-0.01,0.02-0.01C4.86,7.5,4.87,7.5,4.88,7.49
	L4.9,7.48c0.01-0.01,0.02-0.01,0.03-0.02l0.01,0v0c0.01-0.01,0.03-0.02,0.04-0.02l0,0C5.01,7.42,5.04,7.4,5.06,7.39L4.72,6.56
	C4.46,6.69,4.21,6.85,4,7.05L4,7.05z M5.03,6.44c0.26-0.09,0.53-0.15,0.82-0.16v0.89H5.84c-0.01,0-0.02,0-0.03,0l-0.02,0
	c-0.01,0-0.02,0-0.03,0l-0.02,0c-0.01,0-0.02,0-0.03,0l-0.02,0c-0.01,0-0.02,0-0.03,0.01c-0.01,0-0.01,0-0.02,0
	c-0.01,0-0.02,0-0.03,0.01c-0.01,0-0.02,0-0.03,0c-0.01,0-0.02,0-0.03,0.01c-0.01,0-0.02,0-0.02,0c-0.01,0-0.02,0-0.03,0.01
	c-0.01,0-0.02,0-0.02,0.01c-0.01,0-0.02,0-0.03,0.01c-0.01,0-0.02,0-0.02,0.01c-0.01,0-0.01,0.01-0.02,0.01
	c-0.01,0-0.02,0.01-0.02,0.01L5.03,6.44L5.03,6.44z M6.18,6.28C6.46,6.29,6.74,6.35,7,6.43L6.65,7.26c-0.01,0-0.01,0-0.02-0.01
	c-0.01,0-0.01,0-0.02-0.01c-0.01,0-0.02,0-0.03-0.01c-0.01,0-0.02,0-0.03-0.01c-0.01,0-0.02,0-0.03-0.01c-0.01,0-0.02,0-0.03-0.01
	c-0.01,0-0.01,0-0.02,0c-0.01,0-0.02-0.01-0.03-0.01c-0.01,0-0.02,0-0.02,0c-0.01,0-0.02,0-0.03-0.01c-0.01,0-0.01,0-0.02,0
	c-0.01,0-0.02,0-0.03-0.01l-0.02,0c-0.01,0-0.02,0-0.03-0.01l-0.02,0c-0.01,0-0.02,0-0.04,0c-0.01,0-0.01,0-0.02,0
	c-0.01,0-0.02,0-0.04,0h0L6.18,6.28L6.18,6.28z M7.3,6.56c0.26,0.13,0.51,0.29,0.72,0.48L7.4,7.67C7.39,7.67,7.38,7.66,7.37,7.65
	L7.36,7.64C7.35,7.64,7.34,7.63,7.34,7.62c-0.01,0-0.01-0.01-0.02-0.01C7.31,7.6,7.3,7.6,7.29,7.59L7.28,7.58
	C7.27,7.57,7.26,7.57,7.25,7.56c-0.01,0-0.01-0.01-0.02-0.01c-0.01,0-0.01-0.01-0.02-0.02C7.21,7.53,7.2,7.52,7.19,7.52L7.17,7.51
	C7.17,7.5,7.16,7.5,7.15,7.49L7.13,7.48C7.12,7.47,7.11,7.47,7.1,7.46L7.09,7.46C7.08,7.45,7.07,7.44,7.06,7.44L7.04,7.43
	C7.04,7.42,7.02,7.42,7.01,7.41L7,7.41L7,7.4C6.99,7.4,6.98,7.39,6.96,7.39l0,0L7.3,6.56L7.3,6.56z M8.27,7.28L7.63,7.91l0.01,0.02
	c0,0.01,0.01,0.01,0.02,0.02c0,0.01,0.01,0.01,0.01,0.02c0,0.01,0.01,0.01,0.02,0.02C7.7,7.99,7.71,8,7.71,8.01
	c0,0.01,0.01,0.01,0.01,0.02c0,0.01,0.01,0.02,0.02,0.02c0,0.01,0.01,0.01,0.01,0.02c0.01,0.01,0.01,0.02,0.02,0.02
	c0,0.01,0.01,0.01,0.01,0.02c0,0.01,0.01,0.02,0.02,0.02l0,0.01h0.65l0.3-0.12C8.63,7.75,8.46,7.5,8.27,7.28z"/>
<path fill-rule="evenodd" clip-rule="evenodd" fill="#1A1A1A" d="M0.61,8.5h10.81c0.13,0,0.25,0.11,0.25,0.25v1.77
	c0,0.14-0.11,0.25-0.25,0.25H0.61c-0.13,0-0.25-0.11-0.25-0.25V8.75C0.36,8.61,0.47,8.5,0.61,8.5z"/>
<path fill-rule="evenodd" clip-rule="evenodd" fill="#868789" d="M0.61,8.53h10.81c0.12,0,0.22,0.1,0.22,0.22v1.77
	c0,0.12-0.1,0.22-0.22,0.22H0.61c-0.12,0-0.22-0.1-0.22-0.22V8.75C0.39,8.63,0.48,8.53,0.61,8.53z"/>
<path fill="#FFFFFF" d="M2,8.95v0.44C1.94,9.33,1.88,9.28,1.83,9.25C1.77,9.22,1.71,9.21,1.65,9.21c-0.12,0-0.21,0.04-0.28,0.12
	C1.3,9.41,1.26,9.51,1.26,9.64c0,0.12,0.04,0.22,0.11,0.3c0.07,0.08,0.17,0.12,0.28,0.12c0.06,0,0.12-0.01,0.18-0.04
	C1.88,9.98,1.94,9.93,2,9.87v0.44c-0.06,0.03-0.13,0.05-0.19,0.07c-0.06,0.02-0.13,0.02-0.19,0.02c-0.08,0-0.16-0.01-0.22-0.03
	c-0.07-0.02-0.13-0.05-0.19-0.09C1.09,10.22,1,10.12,0.94,10.01C0.89,9.9,0.86,9.77,0.86,9.63c0-0.11,0.02-0.22,0.06-0.31
	C0.95,9.23,1,9.14,1.08,9.07C1.15,9,1.23,8.94,1.32,8.91C1.4,8.87,1.5,8.85,1.61,8.85c0.07,0,0.13,0.01,0.19,0.02
	C1.87,8.89,1.93,8.92,2,8.95L2,8.95z M9.3,9.63c0,0.11-0.02,0.21-0.06,0.3c-0.04,0.09-0.1,0.18-0.17,0.25
	C9,10.25,8.91,10.31,8.82,10.35c-0.1,0.04-0.2,0.06-0.3,0.06c-0.11,0-0.21-0.02-0.31-0.06c-0.1-0.04-0.18-0.1-0.25-0.17
	c-0.08-0.07-0.13-0.16-0.17-0.25c-0.04-0.09-0.06-0.19-0.06-0.3c0-0.11,0.02-0.21,0.06-0.3c0.04-0.09,0.1-0.18,0.17-0.25
	c0.07-0.07,0.16-0.13,0.25-0.17c0.1-0.04,0.2-0.06,0.31-0.06c0.11,0,0.21,0.02,0.31,0.06C8.91,8.95,9,9.01,9.08,9.08
	c0.07,0.07,0.13,0.16,0.17,0.25C9.28,9.43,9.3,9.53,9.3,9.63L9.3,9.63z M8.51,10.07c0.11,0,0.21-0.04,0.28-0.12
	C8.86,9.86,8.9,9.76,8.9,9.63S8.86,9.4,8.79,9.32C8.71,9.24,8.62,9.2,8.51,9.2c-0.11,0-0.2,0.04-0.28,0.12
	C8.16,9.4,8.12,9.51,8.12,9.63c0,0.13,0.04,0.23,0.11,0.31C8.31,10.03,8.4,10.07,8.51,10.07L8.51,10.07z M11.26,10.37h-0.38
	l-0.09-0.64c-0.01-0.05-0.01-0.1-0.02-0.15c-0.01-0.06-0.01-0.12-0.01-0.18c-0.01,0.06-0.03,0.14-0.06,0.24
	c0,0.02-0.01,0.03-0.01,0.04l-0.2,0.69h-0.27l-0.2-0.69c0-0.01-0.01-0.02-0.01-0.04C9.98,9.54,9.96,9.46,9.96,9.4
	c0,0.06-0.01,0.11-0.01,0.17c0,0.06-0.01,0.11-0.02,0.17l-0.09,0.64H9.46l0.23-1.48h0.4l0.22,0.76c0,0.01,0,0.01,0.01,0.03
	c0.02,0.07,0.03,0.13,0.04,0.18c0-0.03,0.01-0.06,0.01-0.09c0.01-0.03,0.02-0.07,0.03-0.12l0.23-0.76h0.4L11.26,10.37L11.26,10.37z
	 M7.55,8.95v0.44C7.5,9.33,7.44,9.28,7.39,9.25C7.34,9.22,7.28,9.21,7.21,9.21C7.1,9.21,7,9.25,6.93,9.33
	C6.86,9.41,6.82,9.51,6.82,9.64c0,0.12,0.04,0.22,0.11,0.3C7,10.01,7.1,10.05,7.21,10.05c0.06,0,0.12-0.01,0.18-0.04
	C7.44,9.98,7.5,9.93,7.55,9.87v0.44c-0.06,0.03-0.13,0.05-0.19,0.07c-0.06,0.02-0.13,0.02-0.19,0.02c-0.08,0-0.16-0.01-0.22-0.03
	c-0.07-0.02-0.13-0.05-0.19-0.09c-0.11-0.08-0.2-0.17-0.25-0.28C6.45,9.9,6.42,9.77,6.42,9.63c0-0.11,0.02-0.22,0.05-0.31
	c0.04-0.09,0.09-0.18,0.17-0.25C6.71,9,6.79,8.94,6.88,8.91c0.09-0.04,0.19-0.05,0.29-0.05c0.06,0,0.13,0.01,0.19,0.02
	C7.43,8.89,7.49,8.92,7.55,8.95L7.55,8.95z M5.79,10.2c0-0.06,0.02-0.11,0.06-0.15C5.89,10.02,5.94,10,6,10
	c0.06,0,0.11,0.02,0.15,0.06C6.18,10.1,6.2,10.15,6.2,10.2c0,0.06-0.02,0.11-0.06,0.14C6.11,10.39,6.06,10.41,6,10.41
	c-0.06,0-0.11-0.02-0.14-0.06C5.82,10.31,5.79,10.26,5.79,10.2L5.79,10.2z M5.23,8.89h0.4v0.96c0,0.1-0.01,0.19-0.02,0.24
	c-0.01,0.06-0.04,0.1-0.07,0.15c-0.04,0.06-0.09,0.1-0.15,0.13c-0.06,0.03-0.13,0.04-0.2,0.04c-0.1,0-0.18-0.02-0.25-0.06
	c-0.07-0.04-0.14-0.1-0.19-0.18l0.25-0.22c0.01,0.04,0.02,0.08,0.04,0.1c0.02,0.03,0.05,0.04,0.08,0.04c0.04,0,0.07-0.02,0.08-0.06
	C5.23,9.98,5.23,9.87,5.23,9.7V8.89L5.23,8.89z M3.32,8.89h0.4v0.72c0,0.11,0,0.18,0.01,0.23c0.01,0.05,0.01,0.08,0.03,0.12
	c0.01,0.04,0.04,0.07,0.08,0.09c0.04,0.02,0.09,0.03,0.14,0.03c0.06,0,0.1-0.01,0.14-0.03c0.04-0.02,0.06-0.05,0.08-0.09
	c0.01-0.03,0.02-0.07,0.03-0.12c0-0.05,0.01-0.12,0.01-0.23v-0.1V8.89h0.4v0.78c0,0.16-0.01,0.28-0.03,0.36
	c-0.02,0.08-0.05,0.14-0.1,0.2c-0.05,0.06-0.12,0.1-0.21,0.14c-0.09,0.03-0.2,0.04-0.32,0.04c-0.13,0-0.23-0.01-0.32-0.04
	c-0.09-0.03-0.16-0.08-0.21-0.14c-0.05-0.05-0.08-0.12-0.1-0.2c-0.02-0.08-0.03-0.2-0.03-0.36V9.52V8.89L3.32,8.89z M2.22,10.37
	V8.89h0.4v1.14h0.5v0.35H2.22z"/>
<path fill-rule="evenodd" clip-rule="evenodd" fill="#FFFFFF" d="M2.92,11.11H9.1c0.03,0,0.06,0.05,0.06,0.11v0.86
	c0,0.06-0.03,0.11-0.06,0.11H2.92c-0.04,0-0.06-0.05-0.06-0.11v-0.86C2.86,11.16,2.89,11.11,2.92,11.11z"/>
<g>
	<path fill="#868789" d="M3.79,11.91c-0.03,0.01-0.11,0.03-0.2,0.03c-0.28,0-0.42-0.14-0.42-0.34c0-0.23,0.19-0.35,0.44-0.35
		c0.09,0,0.16,0.01,0.2,0.03L3.76,11.4c-0.03-0.01-0.09-0.02-0.15-0.02c-0.14,0-0.25,0.07-0.25,0.22c0,0.13,0.09,0.22,0.25,0.22
		c0.06,0,0.12-0.01,0.15-0.02L3.79,11.91z"/>
	<path fill="#868789" d="M3.9,11.22h0.18v0.7H3.9V11.22z"/>
	<path fill="#868789" d="M4.76,11.77c0,0.06,0,0.11,0,0.16H4.61l-0.01-0.07h0c-0.02,0.03-0.08,0.08-0.18,0.08
		c-0.12,0-0.2-0.06-0.2-0.21v-0.28H4.4v0.26c0,0.07,0.03,0.11,0.09,0.11c0.05,0,0.08-0.03,0.09-0.05c0-0.01,0.01-0.02,0.01-0.03
		v-0.29h0.18V11.77z"/>
	<path fill="#868789" d="M4.79,12.02c0.05,0,0.08-0.01,0.11-0.03c0.03-0.02,0.04-0.06,0.04-0.16v-0.39h0.18v0.43
		c0,0.1-0.03,0.17-0.08,0.21c-0.05,0.04-0.14,0.06-0.22,0.06L4.79,12.02z M5.12,11.31c0,0.04-0.04,0.07-0.1,0.07
		c-0.06,0-0.09-0.03-0.09-0.07c0-0.04,0.04-0.08,0.1-0.08C5.08,11.23,5.12,11.27,5.12,11.31z"/>
	<path fill="#868789" d="M6.23,11.59c0,0.22-0.16,0.35-0.39,0.35c-0.24,0-0.37-0.15-0.37-0.34c0-0.2,0.15-0.35,0.39-0.35
		C6.09,11.25,6.23,11.4,6.23,11.59z M5.65,11.59c0,0.13,0.07,0.22,0.19,0.22c0.12,0,0.19-0.1,0.19-0.23c0-0.12-0.07-0.22-0.19-0.22
		C5.72,11.37,5.65,11.46,5.65,11.59z"/>
	<path fill="#868789" d="M6.34,11.6c0-0.06,0-0.11,0-0.15h0.16l0.01,0.07h0c0.02-0.03,0.08-0.08,0.18-0.08
		c0.12,0,0.21,0.07,0.21,0.21v0.29H6.71v-0.27c0-0.06-0.03-0.11-0.09-0.11c-0.05,0-0.08,0.03-0.09,0.06c0,0.01-0.01,0.02-0.01,0.04
		v0.28H6.34V11.6z"/>
	<path fill="#868789" d="M7.03,11.22h0.18v0.7H7.03V11.22z"/>
	<path fill="#868789" d="M7.54,11.31c0,0.04-0.04,0.07-0.1,0.07c-0.06,0-0.09-0.03-0.09-0.07c0-0.04,0.04-0.08,0.09-0.08
		C7.51,11.23,7.54,11.27,7.54,11.31z M7.36,11.93v-0.48h0.18v0.48H7.36z"/>
	<path fill="#868789" d="M7.68,11.6c0-0.06,0-0.11,0-0.15h0.16l0.01,0.07h0c0.02-0.03,0.08-0.08,0.18-0.08
		c0.12,0,0.21,0.07,0.21,0.21v0.29H8.05v-0.27c0-0.06-0.03-0.11-0.09-0.11c-0.05,0-0.08,0.03-0.09,0.06c0,0.01-0.01,0.02-0.01,0.04
		v0.28H7.68V11.6z"/>
	<path fill="#868789" d="M8.51,11.73c0.01,0.06,0.08,0.09,0.16,0.09c0.06,0,0.11-0.01,0.16-0.02l0.02,0.1
		c-0.06,0.02-0.13,0.03-0.21,0.03c-0.2,0-0.31-0.09-0.31-0.25c0-0.12,0.09-0.26,0.29-0.26c0.19,0,0.26,0.12,0.26,0.24
		c0,0.03,0,0.05-0.01,0.06H8.51z M8.72,11.63c0-0.04-0.02-0.1-0.1-0.1c-0.08,0-0.11,0.06-0.11,0.1H8.72z"/>
</g>
</svg>
