<!-- Generator: Adobe Illustrator 18.1.1, SVG Export Plug-In  -->
<svg version="1.1"
	 xmlns="http://www.w3.org/2000/svg" xmlns:xlink="http://www.w3.org/1999/xlink" xmlns:a="http://ns.adobe.com/AdobeSVGViewerExtensions/3.0/"
	 x="0px" y="0px" width="107.39px" height="36px" viewBox="0 0 107.39 36" enable-background="new 0 0 107.39 36"
	 xml:space="preserve">
<defs>
</defs>
<path fill="none" d="z"/>
<g>
	<path fill="#868789" d="M8.38,2.98h6.42l0,0c0.01,0-0.16,0,0.01,0c0.17,0,0.62,0.28,0.62,0.62V2.98l0,0V1.73
		c0-0.37-0.3-0.67-0.67-0.67H8.33l0,0c0,0,0.16,0-0.01,0c-0.17,0-0.62-0.28-0.62-0.62v0.62l0,0v1.25C7.7,2.68,8.01,2.98,8.38,2.98
		L8.38,2.98z M15.42,3.65L15.42,3.65l0-0.05C15.43,3.62,15.43,3.63,15.42,3.65L15.42,3.65z M7.71,0.39L7.71,0.39l0,0.05
		C7.7,0.43,7.7,0.41,7.71,0.39L7.71,0.39z"/>
	<path fill="#868789" d="M8.38,5.33h6.42l0,0c0.01,0-0.16,0,0.01,0c0.17,0,0.62,0.28,0.62,0.62V5.33l0,0V4.08
		c0-0.37-0.3-0.67-0.67-0.67H8.33l0,0c0,0,0.16,0-0.01,0C8.15,3.41,7.7,3.14,7.7,2.8v0.62l0,0v1.25C7.7,5.03,8.01,5.33,8.38,5.33
		L8.38,5.33z M15.42,6L15.42,6l0-0.05C15.43,5.97,15.43,5.98,15.42,6L15.42,6z M7.71,2.74L7.71,2.74l0,0.05
		C7.7,2.78,7.7,2.76,7.71,2.74L7.71,2.74z"/>
	<path fill="#868789" d="M8.38,7.7h6.42v0c0.01,0-0.16,0,0.01,0c0.17,0,0.62,0.28,0.62,0.62V7.7l0,0V6.45c0-0.37-0.3-0.67-0.67-0.67
		H8.33v0c0,0,0.16,0-0.01,0C8.15,5.78,7.7,5.5,7.7,5.16v0.62l0,0v1.25C7.7,7.39,8.01,7.7,8.38,7.7L8.38,7.7z M15.42,8.37L15.42,8.37
		l0-0.05C15.43,8.33,15.43,8.35,15.42,8.37L15.42,8.37z M7.71,5.11L7.71,5.11l0,0.05C7.7,5.14,7.7,5.12,7.71,5.11L7.71,5.11z"/>
	<path fill="#868789" d="M9.25,18.29h6.42l0,0c0,0-0.16,0,0.01,0c0.17,0,0.62,0.28,0.62,0.62v-0.62l0,0v-1.25
		c0-0.37-0.3-0.67-0.67-0.67H9.21v0c0,0,0.16,0-0.01,0c-0.17,0-0.62-0.28-0.62-0.61v0.62l0,0v1.25C8.58,17.99,8.88,18.29,9.25,18.29
		L9.25,18.29z M16.3,18.96L16.3,18.96l0-0.06C16.3,18.92,16.3,18.94,16.3,18.96L16.3,18.96z M8.58,15.7L8.58,15.7l0,0.05
		C8.58,15.73,8.58,15.72,8.58,15.7L8.58,15.7z"/>
	<path fill="#868789" d="M9.25,20.64h6.42l0,0c0,0-0.16,0,0.01,0c0.17,0,0.62,0.28,0.62,0.62v-0.62l0,0v-1.25
		c0-0.37-0.3-0.67-0.67-0.67H9.21l0,0c0,0,0.16,0-0.01,0c-0.17,0-0.62-0.28-0.62-0.62v0.62l0,0v1.25
		C8.58,20.34,8.88,20.64,9.25,20.64L9.25,20.64z M16.3,21.31L16.3,21.31l0-0.05C16.3,21.27,16.3,21.29,16.3,21.31L16.3,21.31z
		 M8.58,18.05L8.58,18.05l0,0.05C8.58,18.08,8.58,18.07,8.58,18.05L8.58,18.05z"/>
	<path fill="#868789" d="M9.25,23h6.42l0,0c0,0-0.16,0,0.01,0c0.17,0,0.62,0.28,0.62,0.62V23l0,0v-1.25c0-0.37-0.3-0.67-0.67-0.67
		H9.21l0,0c0,0,0.16,0-0.01,0c-0.17,0-0.62-0.28-0.62-0.62v0.62l0,0v1.25C8.58,22.7,8.88,23,9.25,23L9.25,23z M16.3,23.67
		L16.3,23.67l0-0.05C16.3,23.64,16.3,23.66,16.3,23.67L16.3,23.67z M8.58,20.42L8.58,20.42l0,0.05C8.58,20.45,8.58,20.43,8.58,20.42
		L8.58,20.42z"/>
	<path fill="#868789" d="M16.39,11.13h6.42v0c0.01,0-0.16,0,0.01,0c0.17,0,0.62,0.28,0.62,0.62v-0.62l0,0V9.88
		c0-0.37-0.3-0.67-0.67-0.67h-6.42l0,0c0,0,0.16,0-0.01,0c-0.17,0-0.62-0.28-0.62-0.62v0.62l0,0v1.25
		C15.72,10.83,16.03,11.13,16.39,11.13L16.39,11.13z M23.44,11.8L23.44,11.8l0-0.05C23.45,11.76,23.44,11.78,23.44,11.8L23.44,11.8z
		 M15.72,8.54L15.72,8.54l0,0.05C15.72,8.58,15.72,8.56,15.72,8.54L15.72,8.54z"/>
	<path fill="#868789" d="M16.39,13.48h6.42l0,0c0.01,0-0.16,0,0.01,0c0.17,0,0.62,0.28,0.62,0.62v-0.62l0,0v-1.25
		c0-0.37-0.3-0.67-0.67-0.67h-6.42l0,0c0,0,0.16,0-0.01,0c-0.17,0-0.62-0.28-0.62-0.62v0.62l0,0v1.25
		C15.72,13.18,16.03,13.48,16.39,13.48L16.39,13.48z M23.44,14.15L23.44,14.15l0-0.05C23.45,14.12,23.44,14.13,23.44,14.15
		L23.44,14.15z M15.72,10.89L15.72,10.89l0,0.05C15.72,10.93,15.72,10.91,15.72,10.89L15.72,10.89z"/>
	<path fill="#868789" d="M16.39,15.85h6.42l0,0c0.01,0-0.16,0,0.01,0c0.17,0,0.62,0.28,0.62,0.62v-0.62l0,0V14.6
		c0-0.37-0.3-0.67-0.67-0.67h-6.42l0,0c0,0,0.16,0-0.01,0c-0.17,0-0.62-0.28-0.62-0.62v0.62l0,0v1.25
		C15.72,15.54,16.03,15.85,16.39,15.85L16.39,15.85z M23.44,16.52L23.44,16.52l0-0.05C23.45,16.48,23.44,16.5,23.44,16.52
		L23.44,16.52z M15.72,13.26L15.72,13.26l0,0.05C15.72,13.29,15.72,13.27,15.72,13.26L15.72,13.26z"/>
	<path fill="#868789" d="M1.14,10.01h6.42l0,0c0,0-0.16,0,0.01,0c0.17,0,0.62,0.28,0.62,0.62v-0.62l0,0V8.76
		c0-0.37-0.3-0.67-0.67-0.67H1.1l0,0c0,0,0.16,0-0.02,0c-0.17,0-0.62-0.28-0.62-0.62v0.62l0,0v1.25C0.47,9.71,0.77,10.01,1.14,10.01
		L1.14,10.01z M8.19,10.68L8.19,10.68l0-0.05C8.19,10.65,8.19,10.66,8.19,10.68L8.19,10.68z M0.47,7.42L0.47,7.42l0,0.05
		C0.47,7.46,0.47,7.44,0.47,7.42L0.47,7.42z"/>
	<path fill="#868789" d="M1.14,12.36h6.42v0c0,0-0.16,0,0.01,0c0.17,0,0.62,0.28,0.62,0.62v-0.62l0,0v-1.25
		c0-0.37-0.3-0.67-0.67-0.67H1.1v0c0,0,0.16,0-0.02,0c-0.17,0-0.62-0.28-0.62-0.62v0.62l0,0v1.25C0.47,12.06,0.77,12.36,1.14,12.36
		L1.14,12.36z M8.19,13.03L8.19,13.03l0-0.05C8.19,13,8.19,13.02,8.19,13.03L8.19,13.03z M0.47,9.77L0.47,9.77l0,0.05
		C0.47,9.81,0.47,9.79,0.47,9.77L0.47,9.77z"/>
	<path fill="#868789" d="M1.14,14.73h6.42l0,0c0,0-0.16,0,0.01,0c0.17,0,0.62,0.28,0.62,0.62v-0.62l0,0v-1.25
		c0-0.37-0.3-0.67-0.67-0.67H1.1l0,0c0,0,0.16,0-0.02,0c-0.17,0-0.62-0.27-0.62-0.62v0.62l0,0v1.25
		C0.47,14.43,0.77,14.73,1.14,14.73L1.14,14.73z M8.19,15.4L8.19,15.4l0-0.05C8.19,15.36,8.19,15.38,8.19,15.4L8.19,15.4z
		 M0.47,12.14L0.47,12.14l0,0.05C0.47,12.17,0.47,12.16,0.47,12.14L0.47,12.14z"/>
	<path fill="#868789" d="M2.59,0.67v6.42l0,0c0,0.01,0-0.16,0,0.02c0,0.17,0.28,0.62,0.62,0.62H2.59l0,0H1.34
		c-0.37,0-0.67-0.3-0.67-0.67V0.63l0,0c0,0,0,0.16,0-0.01C0.67,0.44,0.39,0,0.05,0h0.62l0,0h1.25C2.29,0,2.59,0.3,2.59,0.67
		L2.59,0.67z M3.26,7.72L3.26,7.72l-0.05,0C3.22,7.72,3.24,7.72,3.26,7.72L3.26,7.72z M0,0L0,0l0.05,0C0.04,0,0.02,0,0,0L0,0z"/>
	<path fill="#868789" d="M4.94,0.67v6.42l0,0c0,0.01,0-0.16,0,0.02c0,0.17,0.27,0.62,0.62,0.62H4.94l0,0H3.69
		c-0.37,0-0.67-0.3-0.67-0.67V0.63l0,0c0,0,0,0.16,0-0.01C3.02,0.44,2.75,0,2.41,0h0.62l0,0h1.25C4.64,0,4.94,0.3,4.94,0.67
		L4.94,0.67z M5.61,7.72L5.61,7.72l-0.05,0C5.58,7.72,5.59,7.72,5.61,7.72L5.61,7.72z M2.35,0L2.35,0l0.05,0C2.39,0,2.37,0,2.35,0
		L2.35,0z"/>
	<path fill="#868789" d="M7.27,0.67v6.42l0,0c0,0.01,0-0.16,0,0.02c0,0.17,0.28,0.62,0.62,0.62H7.27l0,0H6.02
		c-0.37,0-0.67-0.3-0.67-0.67V0.63l0,0c0,0,0,0.16,0-0.01C5.35,0.44,5.08,0,4.74,0h0.62l0,0H6.6C6.97,0,7.27,0.3,7.27,0.67
		L7.27,0.67z M7.94,7.72L7.94,7.72l-0.06,0C7.91,7.72,7.92,7.72,7.94,7.72L7.94,7.72z M4.68,0L4.68,0l0.05,0C4.72,0,4.7,0,4.68,0
		L4.68,0z"/>
	<path fill="#868789" d="M3.46,15.98v6.42l0,0c0,0,0-0.16,0,0.01s0.28,0.62,0.62,0.62H3.46l0,0H2.22c-0.37,0-0.67-0.3-0.67-0.67
		v-6.42l0,0c0,0,0,0.16,0-0.02c0-0.17-0.28-0.62-0.62-0.62h0.62l0,0h1.25C3.16,15.31,3.46,15.61,3.46,15.98L3.46,15.98z M4.13,23.03
		L4.13,23.03l-0.05,0C4.1,23.03,4.12,23.03,4.13,23.03L4.13,23.03z M0.87,15.31L0.87,15.31l0.05,0C0.91,15.31,0.89,15.31,0.87,15.31
		L0.87,15.31z"/>
	<path fill="#868789" d="M5.81,15.98v6.42h0c0,0,0-0.16,0,0.01s0.28,0.62,0.62,0.62H5.81l0,0H4.57c-0.37,0-0.67-0.3-0.67-0.67v-6.42
		l0,0c0,0,0,0.16,0-0.02c0-0.17-0.28-0.62-0.62-0.62H3.9l0,0h1.25C5.51,15.31,5.81,15.61,5.81,15.98L5.81,15.98z M6.49,23.03
		L6.49,23.03l-0.05,0C6.45,23.03,6.47,23.03,6.49,23.03L6.49,23.03z M3.23,15.31L3.23,15.31l0.05,0
		C3.26,15.31,3.24,15.31,3.23,15.31L3.23,15.31z"/>
	<path fill="#868789" d="M8.15,15.98v6.42l0,0c0,0,0-0.16,0,0.01s0.28,0.62,0.62,0.62H8.15l0,0H6.9c-0.37,0-0.67-0.3-0.67-0.67
		v-6.42l0,0c0,0,0,0.16,0-0.02c0-0.17-0.28-0.62-0.62-0.62h0.62l0,0h1.25C7.84,15.31,8.15,15.61,8.15,15.98L8.15,15.98z M8.82,23.03
		L8.82,23.03l-0.05,0C8.78,23.03,8.8,23.03,8.82,23.03L8.82,23.03z M5.55,15.31L5.55,15.31l0.05,0C5.59,15.31,5.57,15.31,5.55,15.31
		L5.55,15.31z"/>
	<path fill="#868789" d="M17.76,1.77v6.42l0,0c0,0,0-0.16,0,0.01c0,0.17,0.27,0.62,0.62,0.62h-0.62l0,0h-1.25
		c-0.37,0-0.67-0.3-0.67-0.67V1.73l0,0c0,0,0,0.16,0-0.02S15.57,1.1,15.23,1.1h0.62h0h1.25C17.46,1.1,17.76,1.4,17.76,1.77
		L17.76,1.77z M18.43,8.82L18.43,8.82l-0.05,0C18.4,8.82,18.41,8.82,18.43,8.82L18.43,8.82z M15.17,1.1L15.17,1.1l0.05,0
		C15.21,1.1,15.19,1.1,15.17,1.1L15.17,1.1z"/>
	<path fill="#868789" d="M20.11,1.77v6.42l0,0c0,0,0-0.16,0,0.01c0,0.17,0.28,0.62,0.62,0.62h-0.62l0,0h-1.25
		c-0.37,0-0.67-0.3-0.67-0.67V1.73l0,0c0,0,0,0.16,0-0.02S17.92,1.1,17.58,1.1h0.62l0,0h1.25C19.81,1.1,20.11,1.4,20.11,1.77
		L20.11,1.77z M20.78,8.82L20.78,8.82l-0.05,0C20.75,8.82,20.76,8.82,20.78,8.82L20.78,8.82z M17.52,1.1L17.52,1.1l0.05,0
		C17.56,1.1,17.54,1.1,17.52,1.1L17.52,1.1z"/>
	<path fill="#868789" d="M22.44,1.77v6.42h0c0,0,0-0.16,0,0.01c0,0.17,0.28,0.62,0.62,0.62h-0.62l0,0H21.2
		c-0.37,0-0.67-0.3-0.67-0.67V1.73h0c0,0,0,0.16,0-0.02S20.25,1.1,19.91,1.1h0.62l0,0h1.25C22.14,1.1,22.44,1.4,22.44,1.77
		L22.44,1.77z M23.11,8.82L23.11,8.82l-0.05,0C23.08,8.82,23.09,8.82,23.11,8.82L23.11,8.82z M19.85,1.1L19.85,1.1l0.06,0
		C19.89,1.1,19.87,1.1,19.85,1.1L19.85,1.1z"/>
	<path fill="#868789" d="M18.64,17.08v6.42l0,0c0,0,0-0.16,0,0.02c0,0.17,0.28,0.62,0.62,0.62h-0.62l0,0h-1.25
		c-0.37,0-0.67-0.3-0.67-0.67v-6.42l0,0c0,0,0,0.16,0-0.01s-0.28-0.62-0.62-0.62h0.62l0,0h1.25C18.33,16.4,18.64,16.71,18.64,17.08
		L18.64,17.08z M19.31,24.13L19.31,24.13l-0.05,0C19.27,24.13,19.29,24.13,19.31,24.13L19.31,24.13z M16.05,16.41L16.05,16.41
		l0.05,0C16.08,16.4,16.06,16.4,16.05,16.41L16.05,16.41z"/>
	<path fill="#868789" d="M20.99,17.08v6.42l0,0c0,0,0-0.16,0,0.02c0,0.17,0.28,0.62,0.62,0.62h-0.62l0,0h-1.25
		c-0.37,0-0.67-0.3-0.67-0.67v-6.42l0,0c0,0,0,0.16,0-0.01s-0.28-0.62-0.62-0.62h0.62l0,0h1.25C20.69,16.4,20.99,16.71,20.99,17.08
		L20.99,17.08z M21.66,24.13L21.66,24.13l-0.05,0C21.62,24.13,21.64,24.13,21.66,24.13L21.66,24.13z M18.4,16.41L18.4,16.41l0.05,0
		C18.43,16.4,18.42,16.4,18.4,16.41L18.4,16.41z"/>
	<path fill="#868789" d="M23.32,17.08v6.42l0,0c0,0,0-0.16,0,0.02c0,0.17,0.28,0.62,0.62,0.62h-0.62l0,0h-1.25
		c-0.37,0-0.67-0.3-0.67-0.67v-6.42l0,0c0,0,0,0.16,0-0.01s-0.28-0.62-0.62-0.62h0.62l0,0h1.25C23.02,16.4,23.32,16.71,23.32,17.08
		L23.32,17.08z M23.99,24.13L23.99,24.13l-0.05,0C23.95,24.13,23.97,24.13,23.99,24.13L23.99,24.13z M20.73,16.41L20.73,16.41
		l0.05,0C20.76,16.4,20.75,16.4,20.73,16.41L20.73,16.41z"/>
	<path fill="#868789" d="M10.57,8.84v6.42h0c0,0,0-0.16,0,0.01s0.28,0.62,0.62,0.62h-0.62l0,0H9.32c-0.37,0-0.67-0.3-0.67-0.67V8.8
		l0,0c0-0.01,0,0.16,0-0.02S8.38,8.17,8.04,8.17h0.62h0H9.9C10.27,8.17,10.57,8.47,10.57,8.84L10.57,8.84z M11.24,15.89L11.24,15.89
		l-0.05,0C11.21,15.9,11.22,15.89,11.24,15.89L11.24,15.89z M7.98,8.17L7.98,8.17l0.05,0C8.02,8.17,8,8.17,7.98,8.17L7.98,8.17z"/>
	<path fill="#868789" d="M12.92,8.84v6.42l0,0c0,0,0-0.16,0,0.01s0.28,0.62,0.62,0.62h-0.62l0,0h-1.25c-0.37,0-0.67-0.3-0.67-0.67
		V8.8l0,0c0-0.01,0,0.16,0-0.02s-0.28-0.62-0.62-0.62H11l0,0h1.25C12.62,8.17,12.92,8.47,12.92,8.84L12.92,8.84z M13.59,15.89
		L13.59,15.89l-0.05,0C13.56,15.9,13.57,15.89,13.59,15.89L13.59,15.89z M10.33,8.17L10.33,8.17l0.05,0
		C10.37,8.17,10.35,8.17,10.33,8.17L10.33,8.17z"/>
	<path fill="#868789" d="M15.25,8.84v6.42h0c0,0,0-0.16,0,0.01s0.27,0.62,0.62,0.62h-0.62l0,0H14c-0.37,0-0.67-0.3-0.67-0.67V8.8
		l0,0c0-0.01,0,0.16,0-0.02s-0.28-0.62-0.62-0.62h0.62l0,0h1.25C14.95,8.17,15.25,8.47,15.25,8.84L15.25,8.84z M15.92,15.89
		L15.92,15.89l-0.05,0C15.89,15.9,15.91,15.89,15.92,15.89L15.92,15.89z M12.66,8.17L12.66,8.17l0.06,0
		C12.7,8.17,12.68,8.17,12.66,8.17L12.66,8.17z"/>
	<path fill="#868789" d="M31.83,22.26c0.08,0.16,0.14,0.33,0.19,0.5c0.05,0.17,0.09,0.34,0.11,0.52c-0.3,0.11-0.58,0.18-0.82,0.22
		c-0.24,0.04-0.5,0.05-0.78,0.05c-0.5,0-0.93-0.08-1.3-0.24c-0.37-0.16-0.69-0.39-0.94-0.67c-0.25-0.29-0.45-0.63-0.57-1.03
		c-0.13-0.4-0.19-0.83-0.19-1.29c0-0.47,0.07-0.9,0.2-1.3c0.13-0.4,0.33-0.75,0.58-1.04c0.25-0.29,0.57-0.52,0.94-0.68
		c0.37-0.16,0.79-0.25,1.26-0.25c0.28,0,0.54,0.02,0.77,0.05c0.24,0.04,0.49,0.11,0.77,0.22c-0.01,0.18-0.05,0.35-0.1,0.51
		c-0.06,0.17-0.12,0.33-0.19,0.5c-0.2-0.07-0.39-0.12-0.54-0.15c-0.16-0.03-0.34-0.04-0.56-0.04c-0.56,0-0.99,0.18-1.29,0.55
		c-0.3,0.37-0.45,0.91-0.45,1.62c0,1.42,0.6,2.13,1.81,2.13c0.22,0,0.41-0.01,0.57-0.04C31.44,22.38,31.63,22.34,31.83,22.26
		L31.83,22.26z M33.08,17.16c0.21-0.03,0.42-0.05,0.62-0.05c0.2,0,0.42,0.02,0.64,0.05v5.19h2.18c0.02,0.1,0.03,0.19,0.04,0.28
		c0,0.09,0.01,0.18,0.01,0.26c0,0.09,0,0.19-0.01,0.28c-0.01,0.09-0.02,0.19-0.04,0.28h-3.44V17.16L33.08,17.16z M37.36,17.16
		c0.11-0.02,0.22-0.03,0.32-0.03c0.11-0.01,0.21-0.01,0.32-0.01c0.1,0,0.2,0,0.31,0.01c0.1,0,0.21,0.02,0.32,0.03v3.26
		c0,0.36,0.01,0.66,0.04,0.92c0.03,0.25,0.08,0.46,0.16,0.63c0.08,0.17,0.19,0.29,0.33,0.37c0.14,0.08,0.33,0.12,0.56,0.12
		c0.23,0,0.41-0.04,0.55-0.12c0.14-0.08,0.25-0.2,0.33-0.37c0.08-0.17,0.13-0.38,0.16-0.63c0.03-0.25,0.04-0.56,0.04-0.92v-3.26
		c0.12-0.02,0.23-0.03,0.33-0.03c0.11-0.01,0.21-0.01,0.31-0.01c0.11,0,0.21,0,0.32,0.01c0.11,0,0.22,0.02,0.33,0.03v3.54
		c0,0.43-0.04,0.82-0.1,1.17c-0.07,0.35-0.2,0.65-0.38,0.91c-0.18,0.25-0.42,0.44-0.73,0.58c-0.3,0.14-0.69,0.21-1.16,0.21
		c-0.47,0-0.85-0.07-1.16-0.21c-0.3-0.14-0.54-0.33-0.73-0.58c-0.18-0.25-0.31-0.55-0.38-0.91c-0.07-0.35-0.11-0.74-0.11-1.17V17.16
		L37.36,17.16z M44.41,18.25h-1.04c-0.02-0.08-0.03-0.17-0.04-0.27c-0.01-0.1-0.01-0.19-0.01-0.29c0-0.19,0.02-0.36,0.05-0.53h2.32
		v4.62c0,0.32-0.05,0.59-0.15,0.82c-0.1,0.23-0.24,0.41-0.42,0.55c-0.18,0.14-0.39,0.25-0.63,0.31c-0.24,0.06-0.51,0.1-0.79,0.1
		c-0.1,0-0.22-0.01-0.37-0.03c-0.15-0.02-0.29-0.04-0.42-0.08c-0.01-0.04-0.01-0.08-0.01-0.12c0-0.04,0-0.08,0-0.13
		c0-0.27,0.05-0.54,0.15-0.8c0.06,0.01,0.13,0.03,0.21,0.04c0.08,0.02,0.16,0.03,0.24,0.03c0.1,0,0.2-0.01,0.32-0.02
		c0.11-0.01,0.21-0.05,0.3-0.11c0.09-0.06,0.17-0.14,0.23-0.26c0.06-0.11,0.09-0.28,0.09-0.49V18.25L44.41,18.25z M49,20.52
		c0.03,0.17,0.05,0.35,0.05,0.53c0,0.19-0.02,0.37-0.05,0.54h-2.23c-0.04-0.18-0.05-0.35-0.05-0.53c0-0.19,0.02-0.37,0.05-0.54H49
		L49,20.52z M50.12,17.16c0.18-0.03,0.35-0.05,0.52-0.05c0.17,0,0.36,0.02,0.54,0.05l2.43,4.01v-4.01c0.21-0.03,0.41-0.05,0.6-0.05
		c0.18,0,0.36,0.02,0.52,0.05v6.29c-0.19,0.04-0.36,0.05-0.51,0.05c-0.16,0-0.34-0.02-0.53-0.05l-2.45-4v4
		c-0.19,0.04-0.38,0.05-0.57,0.05c-0.19,0-0.38-0.02-0.56-0.05V17.16L50.12,17.16z M57.42,17.16c0.12-0.02,0.24-0.03,0.35-0.04
		c0.11-0.01,0.23-0.01,0.37-0.01c0.12,0,0.23,0,0.34,0.01c0.11,0.01,0.23,0.02,0.37,0.04l1.97,6.29c-0.24,0.04-0.47,0.05-0.7,0.05
		c-0.22,0-0.44-0.02-0.65-0.05l-0.35-1.26h-2.08l-0.36,1.26c-0.21,0.04-0.41,0.05-0.6,0.05c-0.21,0-0.43-0.02-0.64-0.05L57.42,17.16
		L57.42,17.16z M58.82,21.14l-0.73-2.64l-0.76,2.64H58.82L58.82,21.14z M61.53,17.14c0.27-0.02,0.54-0.04,0.81-0.06
		c0.27-0.01,0.55-0.02,0.83-0.02c0.29,0,0.59,0.03,0.89,0.09c0.3,0.06,0.57,0.17,0.81,0.33c0.24,0.16,0.44,0.38,0.59,0.67
		c0.15,0.29,0.23,0.66,0.23,1.11s-0.08,0.82-0.23,1.11c-0.15,0.28-0.35,0.51-0.59,0.67c-0.24,0.16-0.51,0.27-0.8,0.33
		c-0.29,0.06-0.59,0.09-0.87,0.09c-0.08,0-0.15,0-0.21,0c-0.07,0-0.13-0.01-0.19-0.01v2.02c-0.11,0.02-0.22,0.03-0.32,0.04
		c-0.11,0.01-0.21,0.01-0.31,0.01c-0.09,0-0.2,0-0.31-0.01c-0.11-0.01-0.22-0.02-0.34-0.04V17.14L61.53,17.14z M62.81,20.38
		c0.07,0.01,0.13,0.02,0.2,0.02c0.06,0,0.13,0,0.22,0c0.15,0,0.29-0.02,0.43-0.06c0.14-0.04,0.26-0.1,0.37-0.19
		c0.11-0.09,0.19-0.2,0.26-0.34c0.06-0.14,0.1-0.32,0.1-0.53c0-0.22-0.03-0.4-0.1-0.55c-0.06-0.15-0.15-0.27-0.26-0.36
		c-0.11-0.09-0.23-0.15-0.37-0.19c-0.14-0.04-0.28-0.06-0.43-0.06c-0.06,0-0.12,0-0.18,0c-0.06,0-0.13,0.01-0.24,0.02V20.38
		L62.81,20.38z M69.19,23.56c-0.47,0-0.88-0.08-1.23-0.25c-0.34-0.16-0.63-0.39-0.85-0.68c-0.22-0.29-0.39-0.63-0.49-1.02
		c-0.11-0.39-0.16-0.82-0.16-1.29c0-0.47,0.05-0.9,0.16-1.3c0.11-0.4,0.27-0.75,0.49-1.04c0.22-0.29,0.5-0.52,0.85-0.68
		c0.34-0.16,0.75-0.25,1.23-0.25c0.47,0,0.88,0.08,1.22,0.25c0.34,0.16,0.63,0.39,0.85,0.68c0.22,0.29,0.39,0.64,0.49,1.04
		c0.11,0.4,0.16,0.83,0.16,1.3c0,0.47-0.05,0.9-0.16,1.29c-0.11,0.39-0.27,0.74-0.49,1.02c-0.22,0.29-0.5,0.52-0.85,0.68
		C70.07,23.48,69.67,23.56,69.19,23.56L69.19,23.56z M69.19,22.49c0.9,0,1.36-0.72,1.36-2.17c0-0.72-0.11-1.27-0.33-1.63
		c-0.22-0.36-0.56-0.54-1.02-0.54c-0.92,0-1.37,0.72-1.37,2.17C67.83,21.77,68.28,22.49,69.19,22.49L69.19,22.49z M77.14,22.26
		c0.08,0.16,0.14,0.33,0.19,0.5c0.05,0.17,0.09,0.34,0.11,0.52c-0.3,0.11-0.58,0.18-0.82,0.22c-0.24,0.04-0.5,0.05-0.78,0.05
		c-0.5,0-0.93-0.08-1.3-0.24c-0.37-0.16-0.69-0.39-0.94-0.67c-0.25-0.29-0.44-0.63-0.57-1.03c-0.13-0.4-0.19-0.83-0.19-1.29
		c0-0.47,0.07-0.9,0.2-1.3c0.13-0.4,0.33-0.75,0.58-1.04c0.25-0.29,0.57-0.52,0.94-0.68c0.37-0.16,0.79-0.25,1.26-0.25
		c0.28,0,0.54,0.02,0.77,0.05c0.24,0.04,0.49,0.11,0.77,0.22c-0.01,0.18-0.05,0.35-0.11,0.51c-0.06,0.17-0.12,0.33-0.19,0.5
		c-0.2-0.07-0.38-0.12-0.54-0.15c-0.16-0.03-0.35-0.04-0.56-0.04c-0.56,0-0.99,0.18-1.29,0.55c-0.3,0.37-0.45,0.91-0.45,1.62
		c0,1.42,0.6,2.13,1.81,2.13c0.22,0,0.41-0.01,0.57-0.04S76.94,22.34,77.14,22.26L77.14,22.26z M79.85,17.16
		c0.12-0.02,0.24-0.03,0.35-0.04c0.11-0.01,0.23-0.01,0.37-0.01c0.12,0,0.23,0,0.34,0.01c0.11,0.01,0.24,0.02,0.37,0.04l1.97,6.29
		c-0.24,0.04-0.47,0.05-0.7,0.05c-0.22,0-0.44-0.02-0.65-0.05l-0.35-1.26h-2.08l-0.36,1.26c-0.21,0.04-0.41,0.05-0.6,0.05
		c-0.22,0-0.43-0.02-0.64-0.05L79.85,17.16L79.85,17.16z M81.25,21.14l-0.73-2.64l-0.76,2.64H81.25L81.25,21.14z"/>
	<path fill="#868789" d="M84.67,23.48l-0.05-0.13l1.97-2.1c0.2-0.22,0.39-0.42,0.57-0.63c0.18-0.2,0.33-0.4,0.46-0.61
		s0.24-0.4,0.31-0.6c0.08-0.2,0.12-0.41,0.12-0.62c0-0.42-0.12-0.74-0.37-0.95c-0.25-0.21-0.61-0.31-1.08-0.31
		c-0.34,0-0.65,0.04-0.9,0.13c-0.26,0.09-0.49,0.18-0.69,0.27c-0.03-0.09-0.07-0.18-0.09-0.29c-0.03-0.11-0.06-0.21-0.09-0.31
		c0.18-0.09,0.42-0.18,0.73-0.29c0.3-0.1,0.65-0.16,1.04-0.16c0.33,0,0.63,0.04,0.9,0.11c0.27,0.07,0.5,0.19,0.7,0.34
		c0.19,0.16,0.34,0.35,0.45,0.58c0.1,0.23,0.16,0.51,0.16,0.82c0,0.22-0.03,0.43-0.09,0.64c-0.06,0.21-0.15,0.42-0.28,0.64
		s-0.28,0.44-0.47,0.67c-0.19,0.23-0.41,0.48-0.66,0.74L86,22.83h3.08c0.01,0.05,0.01,0.11,0.01,0.17c0,0.06,0,0.12,0,0.18
		c0,0.05,0,0.1,0,0.15c0,0.05-0.01,0.09-0.01,0.14H84.67L84.67,23.48z M90.63,20.26c0-0.49,0.05-0.93,0.16-1.34
		c0.11-0.41,0.27-0.77,0.47-1.06c0.21-0.3,0.47-0.53,0.78-0.69c0.31-0.17,0.67-0.25,1.07-0.25c0.4,0,0.76,0.08,1.07,0.25
		c0.31,0.17,0.57,0.4,0.78,0.69c0.21,0.29,0.37,0.65,0.47,1.06c0.11,0.41,0.16,0.86,0.16,1.34c0,0.48-0.05,0.93-0.16,1.34
		c-0.11,0.41-0.27,0.76-0.47,1.06c-0.21,0.29-0.47,0.53-0.78,0.69c-0.31,0.17-0.67,0.25-1.07,0.25c-0.4,0-0.76-0.08-1.07-0.25
		c-0.31-0.16-0.57-0.4-0.78-0.69c-0.21-0.3-0.37-0.65-0.47-1.06C90.68,21.19,90.63,20.74,90.63,20.26L90.63,20.26z M93.11,17.55
		c-0.56,0-0.99,0.22-1.3,0.68c-0.31,0.45-0.46,1.13-0.46,2.03c0,0.9,0.15,1.58,0.46,2.03c0.3,0.45,0.74,0.68,1.3,0.68
		c0.56,0,0.99-0.22,1.29-0.68c0.3-0.45,0.45-1.13,0.45-2.03c0-0.9-0.15-1.58-0.45-2.03C94.1,17.78,93.67,17.55,93.11,17.55
		L93.11,17.55z M96.79,23.48l-0.05-0.13l1.97-2.1c0.2-0.22,0.39-0.42,0.57-0.63c0.18-0.2,0.33-0.4,0.46-0.61
		c0.13-0.2,0.24-0.4,0.31-0.6c0.08-0.2,0.12-0.41,0.12-0.62c0-0.42-0.12-0.74-0.38-0.95c-0.25-0.21-0.61-0.31-1.08-0.31
		c-0.34,0-0.64,0.04-0.9,0.13c-0.26,0.09-0.49,0.18-0.69,0.27c-0.03-0.09-0.07-0.18-0.1-0.29c-0.03-0.11-0.06-0.21-0.09-0.31
		c0.18-0.09,0.42-0.18,0.73-0.29c0.3-0.1,0.65-0.16,1.04-0.16c0.33,0,0.63,0.04,0.9,0.11c0.27,0.07,0.5,0.19,0.7,0.34
		c0.19,0.16,0.34,0.35,0.44,0.58c0.1,0.23,0.16,0.51,0.16,0.82c0,0.22-0.03,0.43-0.09,0.64c-0.06,0.21-0.15,0.42-0.28,0.64
		c-0.12,0.22-0.28,0.44-0.47,0.67c-0.19,0.23-0.41,0.48-0.66,0.74l-1.3,1.38h3.08c0.01,0.05,0.01,0.11,0.02,0.17s0,0.12,0,0.18
		c0,0.05,0,0.1,0,0.15c0,0.05-0.01,0.09-0.02,0.14H96.79L96.79,23.48z M103.59,18.73c-0.06-0.07-0.11-0.14-0.15-0.23
		c-0.04-0.08-0.08-0.17-0.11-0.27l2.52-1.29h0.05v5.93h1.44c0.01,0.05,0.01,0.1,0.02,0.15c0.01,0.04,0.01,0.09,0.01,0.15
		s0,0.11-0.01,0.16c-0.01,0.05-0.01,0.1-0.02,0.16h-3.69c-0.01-0.05-0.02-0.15-0.02-0.28c0-0.07,0-0.13,0.01-0.2
		c0-0.06,0.01-0.11,0.01-0.13h1.55v-4.95L103.59,18.73L103.59,18.73z"/>
	<path fill="#868789" d="M29.33,28.46c0.06,0.12,0.1,0.23,0.11,0.34c-0.11,0.05-0.23,0.08-0.35,0.11c-0.12,0.02-0.25,0.03-0.39,0.03
		c-0.21,0-0.4-0.04-0.57-0.1c-0.17-0.07-0.32-0.17-0.43-0.3c-0.12-0.13-0.21-0.29-0.27-0.47s-0.09-0.39-0.09-0.63
		c0-0.24,0.03-0.45,0.09-0.64c0.06-0.19,0.15-0.35,0.27-0.49c0.12-0.13,0.26-0.24,0.43-0.31c0.17-0.07,0.36-0.11,0.57-0.11
		c0.16,0,0.29,0.01,0.4,0.03c0.11,0.02,0.21,0.05,0.3,0.08c0,0.06-0.02,0.12-0.03,0.17c-0.02,0.05-0.04,0.11-0.06,0.17
		c-0.04-0.01-0.08-0.03-0.12-0.04c-0.04-0.01-0.08-0.02-0.12-0.03c-0.04-0.01-0.09-0.01-0.15-0.02c-0.05,0-0.11-0.01-0.18-0.01
		c-0.3,0-0.53,0.1-0.69,0.3c-0.16,0.2-0.25,0.49-0.25,0.87c0,0.19,0.02,0.36,0.07,0.5c0.05,0.14,0.11,0.26,0.2,0.35
		c0.08,0.09,0.19,0.16,0.3,0.21c0.12,0.05,0.25,0.07,0.4,0.07c0.12,0,0.22-0.01,0.31-0.03C29.16,28.52,29.24,28.49,29.33,28.46
		L29.33,28.46z M32.1,28.21h-1.12l-0.2,0.68c-0.04,0-0.07,0.01-0.11,0.01c-0.04,0-0.07,0-0.11,0c-0.04,0-0.08,0-0.11,0
		c-0.04,0-0.07-0.01-0.1-0.01l0.96-2.94c0.04,0,0.08-0.01,0.12-0.01c0.04,0,0.08,0,0.13,0c0.04,0,0.08,0,0.12,0
		c0.04,0,0.08,0.01,0.12,0.01l0.95,2.94c-0.03,0-0.07,0.01-0.11,0.01c-0.04,0-0.08,0-0.12,0c-0.04,0-0.07,0-0.11,0
		c-0.04,0-0.07-0.01-0.1-0.01L32.1,28.21L32.1,28.21z M31.1,27.84h0.9l-0.45-1.5L31.1,27.84L31.1,27.84z M33.86,25.94
		c0.04-0.01,0.09-0.01,0.15-0.02c0.06,0,0.12-0.01,0.18-0.01c0.06,0,0.12-0.01,0.18-0.01c0.06,0,0.12,0,0.18,0
		c0.15,0,0.29,0.01,0.43,0.04c0.13,0.03,0.25,0.08,0.36,0.16c0.1,0.07,0.18,0.17,0.24,0.29c0.06,0.12,0.09,0.27,0.09,0.46
		c0,0.19-0.03,0.35-0.1,0.48c-0.06,0.13-0.15,0.23-0.25,0.3c-0.11,0.08-0.23,0.13-0.36,0.16c-0.13,0.03-0.27,0.05-0.41,0.05
		c-0.05,0-0.1,0-0.14,0c-0.04,0-0.08,0-0.13-0.01v1.06c-0.07,0.01-0.14,0.01-0.21,0.01c-0.03,0-0.07,0-0.1,0
		c-0.04,0-0.07,0-0.11-0.01V25.94L33.86,25.94z M34.28,27.46c0.04,0.01,0.08,0.01,0.11,0.01c0.03,0,0.08,0,0.14,0
		c0.08,0,0.17-0.01,0.25-0.03c0.08-0.02,0.16-0.05,0.22-0.1c0.07-0.05,0.12-0.11,0.16-0.19c0.04-0.08,0.06-0.19,0.06-0.31
		c0-0.11-0.02-0.21-0.05-0.28c-0.03-0.08-0.08-0.14-0.14-0.18c-0.06-0.05-0.13-0.08-0.22-0.1c-0.09-0.02-0.18-0.03-0.27-0.03
		c-0.1,0-0.19,0-0.27,0.01V27.46L34.28,27.46z M36.85,25.94c0.03,0,0.07-0.01,0.1-0.01c0.04,0,0.07,0,0.11,0c0.04,0,0.07,0,0.11,0
		c0.04,0,0.07,0.01,0.1,0.01v2.94c-0.03,0-0.07,0.01-0.1,0.01c-0.03,0-0.07,0-0.11,0c-0.04,0-0.07,0-0.11,0
		c-0.04,0-0.07-0.01-0.1-0.01V25.94L36.85,25.94z M39.18,26.31h-0.77c0-0.03-0.01-0.06-0.01-0.09c0-0.03,0-0.06,0-0.09
		c0-0.03,0-0.06,0-0.09c0-0.03,0.01-0.06,0.01-0.09h1.95c0.01,0.03,0.01,0.06,0.01,0.09c0,0.03,0,0.06,0,0.09s0,0.06,0,0.1
		c0,0.03-0.01,0.06-0.01,0.09h-0.77v2.58c-0.06,0.01-0.13,0.01-0.2,0.01c-0.08,0-0.15,0-0.21-0.01V26.31L39.18,26.31z M42.95,28.21
		h-1.12l-0.2,0.68c-0.04,0-0.07,0.01-0.11,0.01c-0.04,0-0.07,0-0.11,0c-0.04,0-0.08,0-0.11,0c-0.04,0-0.07-0.01-0.1-0.01l0.96-2.94
		c0.04,0,0.07-0.01,0.11-0.01c0.04,0,0.08,0,0.13,0c0.04,0,0.08,0,0.12,0c0.04,0,0.08,0.01,0.12,0.01l0.95,2.94
		c-0.03,0-0.07,0.01-0.11,0.01c-0.04,0-0.08,0-0.12,0c-0.04,0-0.07,0-0.11,0c-0.04,0-0.07-0.01-0.1-0.01L42.95,28.21L42.95,28.21z
		 M41.94,27.84h0.9l-0.45-1.5L41.94,27.84L41.94,27.84z M44.7,25.94c0.03,0,0.06-0.01,0.1-0.01c0.03,0,0.07,0,0.11,0
		c0.04,0,0.07,0,0.11,0c0.04,0,0.07,0.01,0.1,0.01v2.57h1.15c0.01,0.03,0.01,0.06,0.01,0.09c0,0.03,0,0.06,0,0.09
		c0,0.07,0,0.13-0.01,0.18H44.7V25.94L44.7,25.94z M48.85,28.21h-1.12l-0.2,0.68c-0.04,0-0.07,0.01-0.11,0.01c-0.04,0-0.07,0-0.11,0
		c-0.04,0-0.08,0-0.11,0c-0.04,0-0.07-0.01-0.1-0.01l0.96-2.94c0.04,0,0.07-0.01,0.12-0.01c0.04,0,0.08,0,0.13,0
		c0.04,0,0.08,0,0.12,0c0.04,0,0.08,0.01,0.12,0.01l0.95,2.94c-0.03,0-0.07,0.01-0.11,0.01c-0.04,0-0.08,0-0.12,0
		c-0.04,0-0.07,0-0.11,0c-0.04,0-0.07-0.01-0.1-0.01L48.85,28.21L48.85,28.21z M47.85,27.84h0.9l-0.45-1.5L47.85,27.84L47.85,27.84z
		 M48.3,25.72c-0.06,0-0.13-0.01-0.21-0.02c-0.08-0.01-0.14-0.04-0.21-0.07c-0.07-0.04-0.12-0.08-0.17-0.15
		c-0.05-0.06-0.08-0.15-0.09-0.25c0.03-0.01,0.06-0.01,0.09-0.01c0.03,0,0.06-0.01,0.09-0.01c0.03,0,0.07,0,0.09,0.01
		c0.03,0,0.06,0.01,0.09,0.01c0.01,0.06,0.04,0.11,0.08,0.15c0.05,0.04,0.13,0.07,0.24,0.07c0.11,0,0.19-0.02,0.24-0.07
		c0.05-0.04,0.07-0.1,0.08-0.15c0.07-0.01,0.13-0.02,0.19-0.02c0.03,0,0.06,0,0.09,0.01c0.03,0,0.06,0.01,0.09,0.01
		c-0.01,0.1-0.04,0.19-0.09,0.25c-0.05,0.06-0.11,0.11-0.17,0.15c-0.07,0.03-0.14,0.06-0.21,0.07
		C48.43,25.72,48.37,25.72,48.3,25.72L48.3,25.72z M51.87,25.94h1.62c0.01,0.05,0.01,0.11,0.01,0.18c0,0.03,0,0.06,0,0.09
		c0,0.03,0,0.06-0.01,0.09h-1.2v0.84h0.96c0.01,0.03,0.01,0.06,0.01,0.09c0,0.03,0,0.06,0,0.09c0,0.03,0,0.06,0,0.09
		c0,0.03-0.01,0.06-0.01,0.09h-0.96v1.01h1.23c0.01,0.05,0.01,0.11,0.01,0.18c0,0.03,0,0.06,0,0.09c0,0.03,0,0.06-0.01,0.09h-1.65
		V25.94L51.87,25.94z M54.71,25.94c0.06-0.01,0.14-0.01,0.21-0.01c0.07,0,0.14,0,0.2,0.01v1.67c0,0.17,0.01,0.32,0.03,0.44
		c0.02,0.12,0.06,0.22,0.11,0.29c0.05,0.07,0.11,0.13,0.2,0.17c0.08,0.04,0.18,0.05,0.3,0.05c0.12,0,0.22-0.02,0.29-0.05
		c0.08-0.04,0.14-0.09,0.19-0.17c0.05-0.08,0.08-0.17,0.11-0.29c0.02-0.12,0.03-0.26,0.03-0.44v-1.67c0.07-0.01,0.14-0.01,0.21-0.01
		c0.08,0,0.15,0,0.21,0.01v1.74c0,0.2-0.02,0.37-0.06,0.53c-0.04,0.16-0.1,0.29-0.18,0.39c-0.08,0.11-0.19,0.19-0.33,0.24
		c-0.13,0.06-0.3,0.08-0.49,0.08c-0.19,0-0.35-0.03-0.49-0.08c-0.13-0.06-0.24-0.14-0.33-0.24c-0.08-0.11-0.14-0.24-0.18-0.39
		c-0.04-0.16-0.06-0.33-0.06-0.53V25.94L54.71,25.94z M58.19,25.94c0.06-0.01,0.11-0.01,0.16-0.02c0.05,0,0.1-0.01,0.15-0.01
		c0.05,0,0.1-0.01,0.15-0.01c0.05,0,0.11,0,0.17,0c0.14,0,0.28,0.01,0.41,0.04c0.14,0.03,0.26,0.08,0.36,0.14
		c0.11,0.07,0.19,0.16,0.26,0.28c0.07,0.12,0.1,0.26,0.1,0.44c0,0.11-0.02,0.2-0.05,0.29c-0.04,0.09-0.08,0.17-0.13,0.23
		c-0.05,0.07-0.12,0.13-0.19,0.18c-0.07,0.05-0.14,0.09-0.2,0.12l-0.05,0.02l0.86,1.24c-0.08,0.01-0.16,0.01-0.25,0.01
		c-0.07,0-0.15,0-0.22-0.01l-0.94-1.36v-0.02l0.03-0.01c0.07-0.02,0.15-0.04,0.23-0.08c0.08-0.03,0.16-0.08,0.23-0.13
		c0.07-0.05,0.13-0.12,0.17-0.19c0.05-0.07,0.07-0.17,0.07-0.27c0-0.2-0.06-0.34-0.17-0.44c-0.12-0.1-0.27-0.14-0.47-0.14
		c-0.05,0-0.09,0-0.13,0c-0.04,0-0.09,0.01-0.13,0.01v2.62c-0.03,0-0.06,0-0.1,0.01c-0.04,0-0.07,0-0.1,0c-0.03,0-0.07,0-0.11,0
		c-0.04,0-0.07,0-0.11-0.01V25.94L58.19,25.94z M62.43,28.94c-0.21,0-0.4-0.04-0.55-0.11c-0.16-0.08-0.28-0.18-0.39-0.32
		c-0.1-0.13-0.18-0.29-0.23-0.48c-0.05-0.19-0.08-0.39-0.08-0.61c0-0.22,0.03-0.42,0.08-0.61c0.05-0.19,0.13-0.35,0.23-0.48
		c0.1-0.13,0.23-0.24,0.39-0.32c0.16-0.08,0.34-0.11,0.55-0.11c0.21,0,0.4,0.04,0.55,0.11c0.16,0.08,0.28,0.18,0.39,0.32
		c0.1,0.14,0.18,0.29,0.23,0.48c0.05,0.19,0.07,0.39,0.07,0.61c0,0.22-0.02,0.42-0.07,0.61c-0.05,0.19-0.12,0.35-0.23,0.48
		c-0.1,0.14-0.23,0.24-0.39,0.32C62.83,28.9,62.65,28.94,62.43,28.94L62.43,28.94z M62.43,28.58c0.14,0,0.25-0.03,0.35-0.08
		c0.1-0.05,0.18-0.13,0.25-0.23c0.07-0.1,0.11-0.22,0.15-0.36c0.03-0.14,0.05-0.3,0.05-0.48c0-0.18-0.02-0.34-0.05-0.48
		c-0.03-0.14-0.08-0.26-0.15-0.36c-0.07-0.1-0.15-0.18-0.25-0.23c-0.1-0.05-0.22-0.08-0.35-0.08c-0.14,0-0.25,0.03-0.35,0.08
		c-0.1,0.05-0.18,0.13-0.25,0.23c-0.07,0.1-0.11,0.22-0.15,0.36c-0.03,0.14-0.05,0.3-0.05,0.48c0,0.18,0.02,0.34,0.05,0.48
		c0.03,0.14,0.08,0.26,0.15,0.36c0.07,0.1,0.15,0.18,0.25,0.23C62.18,28.55,62.3,28.58,62.43,28.58L62.43,28.58z M64.96,25.94
		c0.04-0.01,0.09-0.01,0.14-0.02c0.06,0,0.12-0.01,0.18-0.01c0.06,0,0.12-0.01,0.18-0.01c0.06,0,0.12,0,0.18,0
		c0.15,0,0.29,0.01,0.43,0.04c0.14,0.03,0.25,0.08,0.36,0.16c0.1,0.07,0.18,0.17,0.24,0.29c0.06,0.12,0.09,0.27,0.09,0.46
		c0,0.19-0.03,0.35-0.1,0.48c-0.06,0.13-0.15,0.23-0.25,0.3c-0.11,0.08-0.23,0.13-0.36,0.16c-0.13,0.03-0.27,0.05-0.41,0.05
		c-0.05,0-0.1,0-0.14,0c-0.04,0-0.08,0-0.13-0.01v1.06c-0.07,0.01-0.14,0.01-0.21,0.01c-0.03,0-0.07,0-0.11,0
		c-0.04,0-0.07,0-0.1-0.01V25.94L64.96,25.94z M65.38,27.46c0.04,0.01,0.08,0.01,0.11,0.01c0.03,0,0.08,0,0.14,0
		c0.08,0,0.17-0.01,0.25-0.03c0.08-0.02,0.16-0.05,0.22-0.1c0.06-0.05,0.12-0.11,0.16-0.19c0.04-0.08,0.06-0.19,0.06-0.31
		c0-0.11-0.02-0.21-0.05-0.28c-0.03-0.08-0.08-0.14-0.14-0.18c-0.06-0.05-0.13-0.08-0.22-0.1c-0.08-0.02-0.18-0.03-0.27-0.03
		c-0.1,0-0.19,0-0.27,0.01V27.46L65.38,27.46z M67.96,25.94h1.62c0.01,0.05,0.01,0.11,0.01,0.18c0,0.03,0,0.06,0,0.09
		c0,0.03,0,0.06-0.01,0.09h-1.2v0.84h0.96c0,0.03,0.01,0.06,0.01,0.09c0,0.03,0,0.06,0,0.09c0,0.03,0,0.06,0,0.09
		c0,0.03-0.01,0.06-0.01,0.09h-0.96v1.01h1.23c0.01,0.05,0.01,0.11,0.01,0.18c0,0.03,0,0.06,0,0.09c0,0.03,0,0.06-0.01,0.09h-1.65
		V25.94L67.96,25.94z M72.28,28.21h-1.12l-0.2,0.68c-0.04,0-0.07,0.01-0.11,0.01c-0.04,0-0.07,0-0.11,0c-0.04,0-0.08,0-0.11,0
		c-0.04,0-0.07-0.01-0.1-0.01l0.96-2.94c0.04,0,0.07-0.01,0.11-0.01c0.04,0,0.08,0,0.13,0c0.04,0,0.08,0,0.12,0
		c0.04,0,0.08,0.01,0.12,0.01l0.95,2.94c-0.03,0-0.07,0.01-0.11,0.01c-0.04,0-0.08,0-0.12,0c-0.03,0-0.07,0-0.11,0
		c-0.04,0-0.07-0.01-0.1-0.01L72.28,28.21L72.28,28.21z M71.27,27.84h0.9l-0.45-1.5L71.27,27.84L71.27,27.84z M74.03,25.94
		c0.03,0,0.06-0.01,0.1-0.01c0.03,0,0.07,0,0.1,0c0.03,0,0.06,0,0.1,0c0.04,0,0.07,0.01,0.1,0.01l1.28,2.21v-2.21
		c0.03,0,0.07-0.01,0.1-0.01c0.03,0,0.07,0,0.11,0c0.03,0,0.06,0,0.09,0c0.03,0,0.06,0.01,0.09,0.01v2.94
		c-0.03,0-0.06,0.01-0.1,0.01c-0.04,0-0.07,0-0.1,0s-0.06,0-0.1,0c-0.03,0-0.07-0.01-0.1-0.01l-1.28-2.2v2.2
		c-0.03,0-0.06,0.01-0.1,0.01c-0.03,0-0.07,0-0.1,0c-0.04,0-0.07,0-0.1,0c-0.03,0-0.06-0.01-0.09-0.01V25.94L74.03,25.94z
		 M78.94,28.21h-1.12l-0.2,0.68c-0.04,0-0.07,0.01-0.11,0.01c-0.04,0-0.07,0-0.11,0c-0.04,0-0.08,0-0.11,0
		c-0.04,0-0.07-0.01-0.1-0.01l0.96-2.94c0.04,0,0.07-0.01,0.11-0.01c0.04,0,0.08,0,0.13,0c0.04,0,0.08,0,0.12,0
		c0.04,0,0.08,0.01,0.12,0.01l0.95,2.94c-0.03,0-0.07,0.01-0.11,0.01c-0.04,0-0.08,0-0.12,0c-0.04,0-0.07,0-0.11,0
		c-0.04,0-0.07-0.01-0.1-0.01L78.94,28.21L78.94,28.21z M77.93,27.84h0.9l-0.45-1.5L77.93,27.84L77.93,27.84z M78.39,25.72
		c-0.06,0-0.13-0.01-0.21-0.02c-0.07-0.01-0.15-0.04-0.21-0.07c-0.07-0.04-0.12-0.08-0.17-0.15c-0.05-0.06-0.08-0.15-0.09-0.25
		c0.03-0.01,0.06-0.01,0.09-0.01c0.03,0,0.06-0.01,0.09-0.01c0.03,0,0.06,0,0.09,0.01c0.03,0,0.06,0.01,0.09,0.01
		c0.01,0.06,0.04,0.11,0.08,0.15c0.05,0.04,0.13,0.07,0.24,0.07c0.12,0,0.2-0.02,0.24-0.07c0.05-0.04,0.07-0.1,0.08-0.15
		c0.07-0.01,0.13-0.02,0.19-0.02c0.03,0,0.06,0,0.08,0.01c0.03,0,0.06,0.01,0.09,0.01c-0.01,0.1-0.04,0.19-0.09,0.25
		c-0.05,0.06-0.11,0.11-0.18,0.15c-0.07,0.03-0.14,0.06-0.21,0.07C78.52,25.72,78.45,25.72,78.39,25.72L78.39,25.72z M83.41,28.21
		h-1.12l-0.2,0.68c-0.04,0-0.07,0.01-0.11,0.01c-0.04,0-0.07,0-0.11,0c-0.04,0-0.08,0-0.11,0c-0.04,0-0.07-0.01-0.1-0.01l0.96-2.94
		c0.04,0,0.07-0.01,0.11-0.01c0.04,0,0.08,0,0.13,0c0.04,0,0.08,0,0.12,0c0.04,0,0.08,0.01,0.12,0.01l0.95,2.94
		c-0.03,0-0.07,0.01-0.11,0.01c-0.04,0-0.08,0-0.12,0c-0.04,0-0.07,0-0.11,0c-0.04,0-0.07-0.01-0.1-0.01L83.41,28.21L83.41,28.21z
		 M82.4,27.84h0.9l-0.45-1.5L82.4,27.84L82.4,27.84z M88.3,28.46c0.06,0.12,0.1,0.23,0.12,0.34c-0.12,0.05-0.23,0.08-0.35,0.11
		c-0.12,0.02-0.25,0.03-0.39,0.03c-0.21,0-0.4-0.04-0.58-0.1c-0.17-0.07-0.31-0.17-0.43-0.3c-0.12-0.13-0.21-0.29-0.27-0.47
		s-0.09-0.39-0.09-0.63c0-0.24,0.03-0.45,0.09-0.64c0.06-0.19,0.15-0.35,0.27-0.49c0.12-0.13,0.26-0.24,0.43-0.31
		c0.17-0.07,0.36-0.11,0.57-0.11c0.16,0,0.29,0.01,0.4,0.03c0.11,0.02,0.21,0.05,0.3,0.08c-0.01,0.06-0.02,0.12-0.03,0.17
		c-0.02,0.05-0.04,0.11-0.06,0.17c-0.04-0.01-0.08-0.03-0.12-0.04s-0.08-0.02-0.12-0.03c-0.04-0.01-0.09-0.01-0.15-0.02
		c-0.05,0-0.11-0.01-0.18-0.01c-0.3,0-0.53,0.1-0.69,0.3c-0.17,0.2-0.25,0.49-0.25,0.87c0,0.19,0.02,0.36,0.07,0.5
		c0.05,0.14,0.11,0.26,0.2,0.35c0.08,0.09,0.19,0.16,0.3,0.21c0.12,0.05,0.25,0.07,0.4,0.07c0.11,0,0.22-0.01,0.31-0.03
		C88.13,28.52,88.22,28.49,88.3,28.46L88.3,28.46z M89.6,25.94c0.07-0.01,0.14-0.01,0.21-0.01c0.07,0,0.14,0,0.21,0.01v1.67
		c0,0.17,0.01,0.32,0.03,0.44c0.02,0.12,0.06,0.22,0.11,0.29c0.05,0.07,0.11,0.13,0.19,0.17c0.08,0.04,0.18,0.05,0.3,0.05
		c0.12,0,0.21-0.02,0.29-0.05c0.08-0.04,0.14-0.09,0.19-0.17c0.05-0.08,0.08-0.17,0.11-0.29c0.02-0.12,0.03-0.26,0.03-0.44v-1.67
		c0.07-0.01,0.14-0.01,0.21-0.01c0.08,0,0.15,0,0.21,0.01v1.74c0,0.2-0.02,0.37-0.06,0.53c-0.04,0.16-0.1,0.29-0.18,0.39
		s-0.19,0.19-0.33,0.24c-0.13,0.06-0.3,0.08-0.49,0.08c-0.19,0-0.35-0.03-0.49-0.08c-0.13-0.06-0.24-0.14-0.33-0.24
		s-0.14-0.24-0.18-0.39c-0.04-0.16-0.05-0.33-0.05-0.53V25.94L89.6,25.94z M93.06,25.94c0.03,0,0.06-0.01,0.1-0.01
		c0.03,0,0.07,0,0.11,0c0.04,0,0.07,0,0.11,0c0.04,0,0.07,0.01,0.1,0.01v2.57h1.15c0.01,0.03,0.01,0.06,0.01,0.09
		c0,0.03,0,0.06,0,0.09c0,0.07,0,0.13-0.01,0.18h-1.57V25.94L93.06,25.94z M96.27,26.31h-0.76c0-0.03-0.01-0.06-0.01-0.09
		c0-0.03,0-0.06,0-0.09c0-0.03,0-0.06,0-0.09c0-0.03,0.01-0.06,0.01-0.09h1.95c0.01,0.03,0.01,0.06,0.01,0.09c0,0.03,0,0.06,0,0.09
		s0,0.06,0,0.1c0,0.03-0.01,0.06-0.01,0.09h-0.77v2.58c-0.06,0.01-0.13,0.01-0.2,0.01c-0.08,0-0.15,0-0.21-0.01V26.31L96.27,26.31z
		 M98.57,25.94c0.07-0.01,0.14-0.01,0.21-0.01c0.07,0,0.14,0,0.2,0.01v1.67c0,0.17,0.01,0.32,0.03,0.44
		c0.02,0.12,0.06,0.22,0.11,0.29c0.05,0.07,0.11,0.13,0.19,0.17c0.08,0.04,0.18,0.05,0.3,0.05c0.12,0,0.22-0.02,0.29-0.05
		c0.08-0.04,0.14-0.09,0.19-0.17c0.05-0.08,0.08-0.17,0.11-0.29c0.02-0.12,0.03-0.26,0.03-0.44v-1.67c0.07-0.01,0.14-0.01,0.21-0.01
		c0.08,0,0.15,0,0.21,0.01v1.74c0,0.2-0.02,0.37-0.05,0.53c-0.04,0.16-0.1,0.29-0.18,0.39s-0.19,0.19-0.33,0.24
		c-0.13,0.06-0.3,0.08-0.49,0.08c-0.19,0-0.35-0.03-0.49-0.08c-0.13-0.06-0.24-0.14-0.33-0.24s-0.14-0.24-0.18-0.39
		c-0.04-0.16-0.06-0.33-0.06-0.53V25.94L98.57,25.94z M102.04,25.94c0.06-0.01,0.11-0.01,0.16-0.02c0.05,0,0.1-0.01,0.15-0.01
		c0.05,0,0.1-0.01,0.15-0.01c0.05,0,0.11,0,0.17,0c0.14,0,0.28,0.01,0.41,0.04c0.14,0.03,0.26,0.08,0.37,0.14
		c0.11,0.07,0.19,0.16,0.26,0.28c0.07,0.12,0.1,0.26,0.1,0.44c0,0.11-0.02,0.2-0.05,0.29c-0.04,0.09-0.08,0.17-0.14,0.23
		c-0.05,0.07-0.12,0.13-0.19,0.18c-0.07,0.05-0.14,0.09-0.2,0.12l-0.05,0.02l0.86,1.24c-0.07,0.01-0.16,0.01-0.25,0.01
		c-0.07,0-0.15,0-0.22-0.01l-0.94-1.36v-0.02l0.03-0.01c0.07-0.02,0.15-0.04,0.23-0.08c0.08-0.03,0.16-0.08,0.23-0.13
		c0.07-0.05,0.13-0.12,0.17-0.19c0.05-0.07,0.07-0.17,0.07-0.27c0-0.2-0.06-0.34-0.17-0.44c-0.11-0.1-0.27-0.14-0.47-0.14
		c-0.05,0-0.09,0-0.13,0c-0.04,0-0.08,0.01-0.13,0.01v2.62c-0.03,0-0.06,0-0.1,0.01c-0.04,0-0.07,0-0.1,0c-0.03,0-0.07,0-0.11,0
		c-0.04,0-0.08,0-0.11-0.01V25.94L102.04,25.94z M105.16,25.94c0.03,0,0.07-0.01,0.1-0.01c0.04,0,0.07,0,0.11,0
		c0.04,0,0.07,0,0.11,0c0.04,0,0.07,0.01,0.1,0.01v2.94c-0.03,0-0.07,0.01-0.1,0.01c-0.03,0-0.07,0-0.11,0c-0.04,0-0.07,0-0.11,0
		c-0.04,0-0.07-0.01-0.1-0.01V25.94L105.16,25.94z M106.97,25.94c0.03,0,0.07-0.01,0.1-0.01c0.04,0,0.07,0,0.11,0
		c0.04,0,0.07,0,0.11,0c0.04,0,0.07,0.01,0.1,0.01v2.94c-0.03,0-0.07,0.01-0.1,0.01c-0.03,0-0.07,0-0.11,0c-0.04,0-0.07,0-0.11,0
		c-0.04,0-0.07-0.01-0.1-0.01V25.94L106.97,25.94z"/>
	<path fill="#868789" d="M28.74,35.05c-0.21,0-0.4-0.04-0.55-0.11c-0.16-0.07-0.28-0.18-0.39-0.31c-0.1-0.14-0.18-0.3-0.23-0.48
		c-0.05-0.19-0.08-0.39-0.08-0.61c0-0.22,0.02-0.42,0.08-0.61c0.05-0.19,0.12-0.35,0.23-0.48c0.1-0.14,0.23-0.24,0.39-0.32
		c0.16-0.08,0.34-0.11,0.55-0.11s0.4,0.04,0.55,0.11c0.16,0.08,0.28,0.18,0.39,0.32c0.1,0.13,0.18,0.29,0.23,0.48
		c0.05,0.18,0.07,0.39,0.07,0.61c0,0.22-0.02,0.42-0.07,0.61c-0.05,0.18-0.12,0.34-0.23,0.48c-0.1,0.13-0.23,0.24-0.39,0.31
		C29.14,35.01,28.95,35.05,28.74,35.05L28.74,35.05z M28.74,34.69c0.14,0,0.25-0.03,0.35-0.08c0.1-0.05,0.18-0.13,0.25-0.23
		c0.07-0.1,0.12-0.22,0.15-0.36c0.03-0.14,0.05-0.3,0.05-0.48c0-0.18-0.02-0.34-0.05-0.48c-0.03-0.14-0.08-0.26-0.15-0.36
		c-0.07-0.1-0.15-0.18-0.25-0.23s-0.22-0.08-0.35-0.08c-0.14,0-0.26,0.03-0.35,0.08c-0.1,0.05-0.18,0.13-0.25,0.23
		c-0.07,0.1-0.12,0.22-0.15,0.36c-0.03,0.14-0.05,0.3-0.05,0.48c0,0.18,0.02,0.34,0.05,0.48c0.03,0.14,0.08,0.26,0.15,0.36
		c0.07,0.1,0.15,0.18,0.25,0.23C28.48,34.66,28.6,34.69,28.74,34.69L28.74,34.69z M31.27,32.06c0.06-0.01,0.12-0.01,0.16-0.02
		c0.05,0,0.1-0.01,0.15-0.01c0.05,0,0.1-0.01,0.15-0.01c0.05,0,0.11,0,0.17,0c0.14,0,0.28,0.01,0.41,0.04
		c0.14,0.03,0.26,0.07,0.37,0.14c0.11,0.07,0.19,0.16,0.26,0.28c0.07,0.12,0.1,0.26,0.1,0.44c0,0.11-0.02,0.2-0.05,0.29
		c-0.04,0.09-0.08,0.16-0.14,0.23c-0.05,0.07-0.12,0.13-0.19,0.18c-0.07,0.05-0.14,0.09-0.2,0.13l-0.05,0.02L33.27,35
		c-0.07,0.01-0.16,0.01-0.25,0.01c-0.07,0-0.15,0-0.22-0.01l-0.94-1.36v-0.02l0.03-0.01c0.08-0.02,0.15-0.05,0.23-0.08
		c0.08-0.03,0.16-0.08,0.23-0.13c0.07-0.05,0.13-0.12,0.17-0.19c0.05-0.07,0.07-0.17,0.07-0.27c0-0.2-0.06-0.34-0.17-0.44
		c-0.12-0.09-0.27-0.14-0.47-0.14c-0.05,0-0.09,0-0.13,0c-0.04,0-0.08,0.01-0.13,0.01V35c-0.03,0-0.06,0-0.1,0.01
		c-0.04,0-0.07,0-0.1,0c-0.03,0-0.07,0-0.11,0c-0.04,0-0.07-0.01-0.11-0.01V32.06L31.27,32.06z M35.84,34.32h-1.12L34.52,35
		c-0.04,0-0.07,0.01-0.11,0.01c-0.04,0-0.07,0-0.11,0c-0.04,0-0.08,0-0.11,0c-0.04,0-0.07-0.01-0.1-0.01l0.96-2.94
		c0.04-0.01,0.07-0.01,0.11-0.01c0.04,0,0.08,0,0.13,0c0.04,0,0.08,0,0.12,0c0.04,0,0.08,0.01,0.12,0.01L36.48,35
		c-0.03,0-0.07,0.01-0.11,0.01c-0.04,0-0.08,0-0.12,0c-0.03,0-0.07,0-0.11,0c-0.04,0-0.07-0.01-0.1-0.01L35.84,34.32L35.84,34.32z
		 M34.83,33.96h0.9l-0.45-1.5L34.83,33.96L34.83,33.96z M37.52,34.55c0.09,0.03,0.18,0.06,0.28,0.09c0.1,0.02,0.22,0.04,0.36,0.04
		c0.22,0,0.39-0.05,0.5-0.14c0.11-0.09,0.17-0.21,0.17-0.37c0-0.08-0.01-0.14-0.04-0.2c-0.02-0.06-0.06-0.1-0.1-0.14
		c-0.05-0.04-0.11-0.08-0.17-0.11c-0.07-0.03-0.15-0.07-0.24-0.11l-0.23-0.09c-0.08-0.03-0.15-0.07-0.22-0.11
		c-0.06-0.04-0.12-0.09-0.17-0.15c-0.05-0.06-0.09-0.12-0.11-0.2C37.51,33,37.5,32.91,37.5,32.8c0-0.25,0.09-0.44,0.25-0.58
		c0.17-0.14,0.41-0.21,0.71-0.21c0.13,0,0.25,0.01,0.37,0.03c0.12,0.02,0.22,0.05,0.31,0.08c-0.01,0.11-0.04,0.23-0.09,0.34
		c-0.07-0.03-0.16-0.05-0.26-0.07s-0.21-0.03-0.33-0.03c-0.17,0-0.3,0.03-0.4,0.1c-0.09,0.07-0.14,0.17-0.14,0.31
		c0,0.06,0.01,0.11,0.04,0.15c0.02,0.04,0.05,0.08,0.09,0.12c0.04,0.04,0.08,0.07,0.14,0.09s0.11,0.05,0.16,0.07l0.23,0.09
		c0.11,0.04,0.21,0.09,0.29,0.14c0.09,0.05,0.16,0.1,0.22,0.17c0.06,0.06,0.11,0.14,0.14,0.23c0.03,0.09,0.05,0.19,0.05,0.31
		c0,0.28-0.09,0.5-0.29,0.66c-0.19,0.16-0.46,0.24-0.81,0.24c-0.08,0-0.16,0-0.23-0.01c-0.07-0.01-0.13-0.01-0.19-0.02
		c-0.06-0.01-0.12-0.02-0.17-0.04c-0.06-0.02-0.11-0.04-0.17-0.05c0.01-0.06,0.02-0.12,0.04-0.18
		C37.48,34.68,37.5,34.62,37.52,34.55L37.52,34.55z M38.36,35.98c-0.03,0-0.06,0.01-0.08,0.01c-0.03,0-0.05,0.01-0.09,0.01
		c-0.03,0-0.06,0-0.09-0.01c-0.03,0-0.06-0.01-0.09-0.01l0.18-0.71c0.03,0,0.05-0.01,0.08-0.01c0.03,0,0.06-0.01,0.09-0.01h0.08
		c0.03,0,0.05,0,0.08,0c0.03,0,0.05,0.01,0.08,0.01L38.36,35.98L38.36,35.98z M43.64,34.57c0.06,0.12,0.1,0.23,0.12,0.34
		c-0.12,0.05-0.23,0.08-0.35,0.11c-0.12,0.02-0.25,0.03-0.39,0.03c-0.21,0-0.4-0.04-0.58-0.11c-0.17-0.07-0.31-0.17-0.43-0.3
		c-0.12-0.13-0.21-0.29-0.27-0.47c-0.06-0.19-0.09-0.39-0.09-0.63c0-0.23,0.03-0.45,0.09-0.64c0.06-0.19,0.15-0.35,0.27-0.48
		c0.12-0.13,0.26-0.24,0.43-0.31c0.17-0.07,0.36-0.11,0.57-0.11c0.16,0,0.29,0.01,0.4,0.03s0.21,0.05,0.3,0.08
		c-0.01,0.06-0.02,0.12-0.04,0.17c-0.02,0.05-0.04,0.11-0.06,0.17c-0.04-0.01-0.08-0.03-0.12-0.04c-0.04-0.01-0.08-0.02-0.12-0.03
		c-0.04-0.01-0.09-0.01-0.15-0.02c-0.05,0-0.11-0.01-0.18-0.01c-0.3,0-0.53,0.1-0.69,0.3c-0.17,0.2-0.25,0.49-0.25,0.87
		c0,0.19,0.02,0.36,0.07,0.5c0.05,0.14,0.11,0.26,0.2,0.35c0.09,0.09,0.19,0.16,0.31,0.21c0.12,0.05,0.25,0.07,0.4,0.07
		c0.11,0,0.22-0.01,0.31-0.03C43.47,34.63,43.56,34.61,43.64,34.57L43.64,34.57z M46.42,34.32H45.3L45.1,35
		c-0.04,0-0.07,0.01-0.11,0.01c-0.04,0-0.07,0-0.11,0c-0.04,0-0.08,0-0.11,0c-0.04,0-0.07-0.01-0.1-0.01l0.96-2.94
		c0.03-0.01,0.07-0.01,0.11-0.01c0.04,0,0.08,0,0.13,0c0.04,0,0.08,0,0.12,0c0.04,0,0.08,0.01,0.12,0.01L47.06,35
		c-0.03,0-0.07,0.01-0.11,0.01c-0.04,0-0.08,0-0.12,0c-0.04,0-0.07,0-0.11,0c-0.04,0-0.07-0.01-0.1-0.01L46.42,34.32L46.42,34.32z
		 M45.41,33.96h0.9l-0.45-1.5L45.41,33.96L45.41,33.96z M48.17,32.06c0.03-0.01,0.06-0.01,0.1-0.01c0.04,0,0.07,0,0.1,0
		c0.03,0,0.06,0,0.09,0c0.03,0,0.07,0.01,0.1,0.01l1.28,2.21v-2.21c0.03-0.01,0.07-0.01,0.1-0.01c0.04,0,0.07,0,0.11,0
		c0.03,0,0.06,0,0.09,0c0.03,0,0.06,0.01,0.09,0.01V35c-0.03,0-0.06,0.01-0.1,0.01c-0.03,0-0.07,0-0.1,0c-0.03,0-0.06,0-0.1,0
		c-0.03,0-0.07-0.01-0.1-0.01l-1.29-2.2V35c-0.03,0-0.06,0.01-0.1,0.01c-0.03,0-0.07,0-0.1,0c-0.04,0-0.07,0-0.1,0
		c-0.03,0-0.07-0.01-0.09-0.01V32.06L48.17,32.06z M51.64,32.06c0.09-0.01,0.2-0.02,0.34-0.03c0.13-0.01,0.26-0.01,0.38-0.01
		c0.51,0,0.9,0.13,1.16,0.39s0.38,0.64,0.38,1.13c0,0.51-0.13,0.89-0.39,1.14c-0.26,0.25-0.65,0.37-1.16,0.37
		c-0.13,0-0.26,0-0.38-0.01c-0.13-0.01-0.23-0.02-0.32-0.03V32.06L51.64,32.06z M52.05,34.66c0.04,0.01,0.08,0.01,0.14,0.01
		c0.06,0,0.12,0.01,0.18,0.01c0.16,0,0.31-0.02,0.44-0.05c0.13-0.04,0.25-0.1,0.34-0.19c0.1-0.09,0.17-0.21,0.22-0.35
		c0.05-0.15,0.08-0.33,0.08-0.56c0-0.2-0.03-0.38-0.08-0.52c-0.05-0.14-0.12-0.26-0.22-0.35c-0.09-0.09-0.21-0.16-0.34-0.2
		c-0.13-0.04-0.28-0.06-0.43-0.06c-0.05,0-0.11,0-0.17,0c-0.06,0-0.12,0-0.16,0.01V34.66L52.05,34.66z M55.17,32.06
		c0.03-0.01,0.07-0.01,0.1-0.01c0.04,0,0.07,0,0.11,0c0.04,0,0.07,0,0.11,0c0.03,0,0.07,0.01,0.1,0.01V35
		c-0.03,0-0.06,0.01-0.1,0.01c-0.03,0-0.07,0-0.11,0c-0.04,0-0.07,0-0.11,0c-0.04,0-0.07-0.01-0.1-0.01V32.06L55.17,32.06z
		 M56.99,32.06c0.09-0.01,0.2-0.02,0.34-0.03c0.13-0.01,0.26-0.01,0.38-0.01c0.52,0,0.9,0.13,1.16,0.39
		c0.26,0.26,0.38,0.64,0.38,1.13c0,0.51-0.13,0.89-0.39,1.14c-0.26,0.25-0.65,0.37-1.16,0.37c-0.13,0-0.25,0-0.38-0.01
		c-0.13-0.01-0.23-0.02-0.32-0.03V32.06L56.99,32.06z M57.41,34.66c0.04,0.01,0.08,0.01,0.14,0.01c0.05,0,0.12,0.01,0.18,0.01
		c0.16,0,0.31-0.02,0.44-0.05c0.13-0.04,0.25-0.1,0.34-0.19c0.09-0.09,0.17-0.21,0.22-0.35c0.05-0.15,0.08-0.33,0.08-0.56
		c0-0.2-0.03-0.38-0.08-0.52c-0.05-0.14-0.12-0.26-0.22-0.35c-0.09-0.09-0.21-0.16-0.34-0.2c-0.13-0.04-0.28-0.06-0.43-0.06
		c-0.05,0-0.11,0-0.17,0c-0.06,0-0.12,0-0.16,0.01V34.66L57.41,34.66z M61.98,34.32h-1.12L60.66,35c-0.04,0-0.07,0.01-0.11,0.01
		c-0.04,0-0.07,0-0.11,0c-0.04,0-0.08,0-0.11,0c-0.04,0-0.07-0.01-0.1-0.01l0.96-2.94c0.04-0.01,0.07-0.01,0.11-0.01
		c0.04,0,0.08,0,0.13,0c0.04,0,0.08,0,0.12,0s0.08,0.01,0.12,0.01L62.62,35c-0.03,0-0.07,0.01-0.11,0.01c-0.04,0-0.08,0-0.12,0
		c-0.04,0-0.07,0-0.11,0c-0.04,0-0.07-0.01-0.11-0.01L61.98,34.32L61.98,34.32z M60.97,33.96h0.9l-0.45-1.5L60.97,33.96L60.97,33.96
		z M64.24,32.42h-0.77c0-0.03-0.01-0.06-0.01-0.09c0-0.03,0-0.06,0-0.09c0-0.03,0-0.06,0-0.09c0-0.03,0.01-0.06,0.01-0.09h1.95
		c0.01,0.03,0.01,0.06,0.01,0.09c0,0.03,0,0.06,0,0.09c0,0.03,0,0.06,0,0.1c0,0.03-0.01,0.07-0.01,0.09h-0.76V35
		c-0.06,0.01-0.13,0.01-0.21,0.01c-0.08,0-0.15,0-0.21-0.01V32.42L64.24,32.42z"/>
</g>
<path fill="none" d="z"/>
</svg>
