<!-- Generator: Adobe Illustrator 18.1.1, SVG Export Plug-In  -->
<svg version="1.1"
	 xmlns="http://www.w3.org/2000/svg" xmlns:xlink="http://www.w3.org/1999/xlink" xmlns:a="http://ns.adobe.com/AdobeSVGViewerExtensions/3.0/"
	 x="0px" y="0px" width="156.26px" height="221.22px" viewBox="0 0 156.26 221.22" enable-background="new 0 0 156.26 221.22"
	 xml:space="preserve">
<defs>
</defs>
<g>
	<path fill="#762A82" d="M155.82,52.05c0-0.01,0-0.02,0-0.03c0-0.01,0-0.02,0-0.02c0,0,0-0.01,0-0.01c0-0.01,0-0.01,0-0.02
		c0-0.01,0-0.02,0-0.02c0-0.01,0-0.02-0.01-0.03c0-0.01,0-0.02,0-0.02c0-0.01,0-0.02-0.01-0.03c0-0.01,0-0.02-0.01-0.02
		c0-0.01-0.01-0.02-0.01-0.02c0-0.01-0.01-0.02-0.01-0.03c0,0,0-0.01,0-0.01c0-0.01-0.01-0.01-0.01-0.02c0,0,0-0.01-0.01-0.01
		c-0.01-0.01-0.02-0.03-0.03-0.04v0l-35.37-38.28c0,0-0.01,0-0.01-0.01c0,0,0,0-0.01-0.01c-0.01-0.01-0.02-0.02-0.04-0.04
		c-0.01,0-0.01,0-0.01,0c-0.01-0.01-0.03-0.02-0.05-0.03c0,0,0,0,0,0c-0.02-0.01-0.04-0.02-0.05-0.02c0,0,0,0,0,0c0,0,0,0,0,0
		c-0.02-0.01-0.04-0.01-0.06-0.01L46.02,0.01c0,0,0,0-0.01,0C46.01,0,46.01,0,46,0c0,0-0.01,0-0.02,0c-0.01,0-0.01,0-0.02,0
		c-0.01,0-0.01,0-0.02,0c-0.01,0-0.01,0-0.02,0c0,0-0.01,0-0.02,0c0,0-0.01,0-0.01,0c-0.01,0-0.01,0-0.02,0c0,0,0,0,0,0
		c0,0-0.01,0-0.01,0c-0.01,0-0.01,0-0.02,0c-0.01,0-0.01,0-0.02,0c-0.01,0-0.01,0-0.02,0c-0.01,0-0.01,0-0.02,0.01
		c0,0-0.01,0-0.02,0.01c0,0-0.01,0-0.02,0.01c0,0-0.01,0-0.01,0.01c0,0-0.01,0-0.02,0.01c0,0-0.01,0-0.01,0.01
		c0,0-0.01,0.01-0.01,0.01c0,0-0.01,0.01-0.01,0.01c0,0-0.01,0.01-0.01,0.01c0,0-0.01,0.01-0.01,0.01c0,0-0.01,0.01-0.01,0.01
		c0,0-0.01,0.01-0.01,0.01c0,0-0.01,0.01-0.01,0.01c0,0-0.01,0.01-0.01,0.01c0,0-0.01,0.01-0.01,0.01c0,0-0.01,0.01-0.01,0.01
		c0,0-0.01,0.01-0.01,0.01c0,0-0.01,0.01-0.01,0.01c0,0.01-0.01,0.01-0.01,0.01c0,0,0,0.01,0,0.01L0.79,93.04
		c-0.08,0.16-0.04,0.34,0.08,0.46l32.51,30.72c0.01,0.01,0.02,0.02,0.03,0.03c0,0,0.01,0,0.01,0.01c0.01,0.01,0.03,0.02,0.04,0.03
		c0,0,0.01,0,0.01,0.01c0.01,0.01,0.03,0.01,0.04,0.02l88.36,33.13c0.01,0,0.02,0,0.02,0.01c0,0,0.01,0,0.01,0
		c0.02,0,0.03,0.01,0.04,0.01c0.01,0,0.01,0,0.02,0c0.02,0,0.03,0,0.04,0c0,0,0,0,0,0c0.02,0,0.04,0,0.06,0c0.01,0,0.02,0,0.03,0v0
		c0.01,0,0.03-0.01,0.04-0.01c0,0,0.01,0,0.01,0c0.01,0,0.02-0.01,0.03-0.01c0,0,0,0,0.01,0c0,0,0,0,0,0
		c0.01-0.01,0.02-0.01,0.03-0.01c0,0,0.01,0,0.01,0c0.01-0.01,0.02-0.02,0.03-0.02l0,0c0.01-0.01,0.02-0.02,0.03-0.03
		c0,0,0,0,0.01-0.01c0.01,0,0.01-0.01,0.02-0.02c0,0,0.01-0.01,0.01-0.01c0-0.01,0.01-0.01,0.02-0.02c0,0,0-0.01,0.01-0.01
		c0-0.01,0.01-0.01,0.01-0.02c0,0,0,0,0-0.01c0.01-0.02,0.02-0.05,0.03-0.07c0,0,0,0,0,0l33.4-105.07c0,0,0-0.01,0-0.01
		c0-0.01,0-0.02,0.01-0.03C155.81,52.06,155.82,52.06,155.82,52.05z M78.76,67.04l40.91-52.2l0.79,57.34L90,90.19L78.76,67.04z
		 M89.31,90.6l-54.02,31.92l42.93-54.78L89.31,90.6z M120.47,73.11l1.13,82.17L90.35,90.91L120.47,73.11z M120.47,14.74L154.8,51.9
		l-33.54,19.82L120.47,14.74z M78.37,66.25L46.65,0.93l72.68,13.05L78.37,66.25z M46.21,1.84l31.61,65.11L34.2,122.61L46.21,1.84z
		 M89.66,91.31l31.58,65.02l-86.65-32.48L89.66,91.31z M121.27,72.64l33.46-19.77L122.39,154.6L121.27,72.64z M45.33,2.6
		L33.35,123.09L1.64,93.13L45.33,2.6z"/>
	<g>
		<g>
			<path fill="#762A82" d="M11.31,194.02c-0.24-1.57-1.75-2.76-3.45-2.76c-3.12,0-4.29,2.65-4.29,5.41c0,2.63,1.17,5.28,4.29,5.28
				c2.12,0,3.31-1.44,3.58-3.54h3.36c-0.35,3.96-3.05,6.45-6.94,6.45c-4.86,0-7.75-3.64-7.75-8.2c0-4.68,2.89-8.33,7.75-8.33
				c3.45,0,6.38,2.03,6.8,5.68H11.31z"/>
			<path fill="#762A82" d="M16.92,188.71h3.14v15.77h-3.14V188.71z"/>
			<path fill="#762A82" d="M33.25,204.49h-2.98v-1.59H30.2c-0.79,1.3-2.17,1.9-3.49,1.9c-3.34,0-4.18-1.88-4.18-4.71v-7.03h3.14
				v6.45c0,1.88,0.53,2.8,2.01,2.8c1.7,0,2.43-0.95,2.43-3.27v-5.99h3.14V204.49z"/>
			<path fill="#762A82" d="M34.02,205.84c0.18,0.07,0.4,0.09,0.68,0.09c0.64,0,1.22-0.15,1.22-1.02v-11.84h3.14v12
				c0,2.34-0.86,3.45-4.02,3.45c-0.33,0-0.68-0.02-1.02-0.09V205.84z M39.06,191.3h-3.14v-2.59h3.14V191.3z"/>
		</g>
		<g>
			<path fill="#762A82" d="M111.57,194.97c-0.11-3.53,1.9-6.25,5.61-6.25c2.83,0,5.3,1.81,5.3,4.84c0,4.68-4.97,5.06-7.22,8.24h7.31
				v2.7h-11.35c0-3.6,2.21-5.08,4.88-6.91c1.35-0.95,3.25-1.88,3.25-3.78c0-1.48-0.97-2.39-2.32-2.39c-1.86,0-2.45,1.92-2.45,3.56
				H111.57z"/>
			<path fill="#762A82" d="M129.15,188.71c3.09,0,5.7,1.95,5.7,7.98c0,6.16-2.61,8.11-5.7,8.11c-3.07,0-5.65-1.94-5.65-8.11
				C123.5,190.66,126.09,188.71,129.15,188.71z M129.15,202.21c2.56,0,2.56-3.78,2.56-5.52c0-1.61,0-5.39-2.56-5.39
				c-2.54,0-2.52,3.78-2.52,5.39C126.64,198.43,126.64,202.21,129.15,202.21z"/>
			<path fill="#762A82" d="M143.18,204.49h-3.14v-10.03h-3.89v-2.36c2.19,0.07,4.17-0.71,4.53-3.07h2.5V204.49z"/>
			<path fill="#762A82" d="M155.42,191.61h-6.38l-0.62,3.51l0.04,0.05c0.86-0.86,1.79-1.19,3.03-1.19c3.05,0,4.77,2.36,4.77,5.26
				c0,3.18-2.65,5.63-5.74,5.57c-3,0-5.68-1.66-5.74-4.9h3.14c0.15,1.39,1.15,2.32,2.54,2.32c1.64,0,2.67-1.44,2.67-2.98
				c0-1.61-0.99-2.89-2.67-2.89c-1.13,0-1.74,0.38-2.36,1.24h-2.83l1.53-8.55h8.64V191.61z"/>
		</g>
		<g>
			<path fill="#762A82" d="M40.92,199.62v-0.71h4.01v0.71H40.92z"/>
			<path fill="#762A82" d="M47.4,190.98h1.03l8.45,12.27h0.04v-12.27h0.82v13.38h-0.98l-8.5-12.37h-0.04v12.37H47.4V190.98z"/>
			<path fill="#762A82" d="M67.08,202.58c0,0.54-0.02,1.16,0.64,1.16c0.13,0,0.3-0.02,0.53-0.05v0.6c-0.21,0.05-0.38,0.07-0.58,0.07
				c-1.12,0-1.29-0.62-1.29-1.41v-0.51h-0.04c-0.45,1.14-1.72,2.14-3.58,2.14c-1.82,0-3.22-0.69-3.22-2.72
				c0-2.27,1.95-2.7,3.54-2.85c3.19-0.21,3.32-0.45,3.32-2c0-0.43-0.49-1.89-2.68-1.89c-1.72,0-2.87,0.9-2.96,2.57h-0.71
				c0.09-2.12,1.41-3.19,3.67-3.19c1.69,0,3.37,0.51,3.37,2.51V202.58z M66.36,198.89c-0.54,0.66-2.1,0.54-3.48,0.75
				c-1.7,0.21-2.64,0.79-2.64,2.23c0,1.18,0.82,2.1,2.53,2.1c3.24,0,3.6-2.77,3.6-3.28V198.89z"/>
			<path fill="#762A82" d="M70.22,196.94h0.04c0.3-0.97,1.39-2.44,3.5-2.44c2.94,0,4.33,2.36,4.33,5.06c0,2.92-1.39,5.02-4.33,5.02
				c-1.59,0-2.92-0.66-3.5-2.23h-0.04v5.45h-0.71v-13.08h0.71V196.94z M77.38,199.56c0-2.19-1.03-4.44-3.62-4.44
				c-2.57,0-3.52,2.16-3.52,4.44c0,2.31,0.81,4.4,3.52,4.4C76.26,203.96,77.38,201.94,77.38,199.56z"/>
			<path fill="#762A82" d="M83.73,194.5c2.85,0,4.42,2.31,4.42,5.04c0,2.75-1.57,5.04-4.42,5.04c-2.85,0-4.42-2.29-4.42-5.04
				C79.31,196.81,80.88,194.5,83.73,194.5z M83.73,203.96c2.4,0,3.71-2.12,3.71-4.42c0-2.31-1.31-4.42-3.71-4.42
				c-2.4,0-3.71,2.12-3.71,4.42C80.02,201.85,81.33,203.96,83.73,203.96z"/>
			<path fill="#762A82" d="M97.07,197.71c-0.15-1.71-1.52-2.59-3.26-2.59c-2.4,0-3.71,2.14-3.71,4.33c0,2.6,1.21,4.52,3.71,4.52
				c1.8,0,3.11-1.26,3.35-3h0.71c-0.3,2.3-2,3.62-4.06,3.62c-3.13,0-4.42-2.44-4.42-5.13c0-2.7,1.57-4.95,4.42-4.95
				c2.08,0,3.76,1.03,3.97,3.2H97.07z"/>
			<path fill="#762A82" d="M106.64,202.58c0,0.54-0.02,1.16,0.63,1.16c0.13,0,0.3-0.02,0.53-0.05v0.6
				c-0.21,0.05-0.37,0.07-0.58,0.07c-1.12,0-1.29-0.62-1.29-1.41v-0.51h-0.04c-0.45,1.14-1.72,2.14-3.58,2.14
				c-1.82,0-3.22-0.69-3.22-2.72c0-2.27,1.95-2.7,3.54-2.85c3.18-0.21,3.31-0.45,3.31-2c0-0.43-0.49-1.89-2.68-1.89
				c-1.72,0-2.87,0.9-2.96,2.57H99.6c0.09-2.12,1.41-3.19,3.67-3.19c1.68,0,3.37,0.51,3.37,2.51V202.58z M105.93,198.89
				c-0.54,0.66-2.1,0.54-3.48,0.75c-1.71,0.21-2.64,0.79-2.64,2.23c0,1.18,0.82,2.1,2.53,2.1c3.24,0,3.59-2.77,3.59-3.28V198.89z"/>
		</g>
		<g>
			<path fill="#762A82" d="M47.37,209.2h5.39v0.65h-4.65v2.88h4.35v0.65h-4.35v3.15h4.7v0.65h-5.45V209.2z"/>
			<path fill="#762A82" d="M58.27,217.17h-0.63v-1.04h-0.02c-0.36,0.77-1.1,1.2-1.95,1.2c-1.43,0-1.98-0.83-1.98-2.18v-3.74h0.69
				v3.75c0.03,1.04,0.42,1.58,1.51,1.58c1.18,0,1.7-1.14,1.7-2.31v-3.03h0.69V217.17z"/>
			<path fill="#762A82" d="M59.56,211.41h0.63v1.35h0.02c0.35-0.94,1.11-1.47,2.13-1.43v0.71c-1.25-0.06-2.1,0.86-2.1,2.06v3.07
				h-0.69V211.41z"/>
			<path fill="#762A82" d="M67.83,214.29c0,1.65-0.95,3.04-2.67,3.04c-1.72,0-2.67-1.39-2.67-3.04c0-1.65,0.95-3.04,2.67-3.04
				C66.88,211.24,67.83,212.64,67.83,214.29z M63.19,214.29c0,1.22,0.67,2.46,1.98,2.46c1.31,0,1.98-1.24,1.98-2.46
				c0-1.22-0.67-2.45-1.98-2.45C63.85,211.83,63.19,213.07,63.19,214.29z"/>
			<path fill="#762A82" d="M68.84,211.41h0.63v1.09h0.02c0.32-0.79,1.09-1.26,2.01-1.26c1.72,0,2.54,1.4,2.54,3.04
				c0,1.64-0.82,3.04-2.54,3.04c-0.83,0-1.66-0.42-1.96-1.26h-0.02v3.23h-0.69V211.41z M71.51,211.83c-1.53,0-1.98,1.15-1.98,2.45
				c0,1.19,0.53,2.46,1.98,2.46c1.31,0,1.85-1.26,1.85-2.46C73.36,213.1,72.82,211.83,71.51,211.83z"/>
			<path fill="#762A82" d="M75.5,214.48c0,1.03,0.55,2.26,1.86,2.26c1.01,0,1.55-0.59,1.77-1.47h0.69
				c-0.29,1.31-1.03,2.06-2.46,2.06c-1.79,0-2.55-1.4-2.55-3.04c0-1.52,0.75-3.04,2.55-3.04c1.81,0,2.54,1.62,2.48,3.24H75.5z
				 M79.15,213.89c-0.03-1.06-0.69-2.05-1.79-2.05c-1.14,0-1.74,1-1.86,2.05H79.15z"/>
			<path fill="#762A82" d="M80.68,213.17c0.08-1.35,0.98-1.93,2.29-1.93c1,0,2.08,0.3,2.08,1.85v3.05c0,0.28,0.13,0.42,0.4,0.42
				c0.08,0,0.14-0.01,0.22-0.04v0.59c-0.16,0.03-0.26,0.05-0.45,0.05c-0.7,0-0.81-0.41-0.81-1.01h-0.02
				c-0.49,0.75-0.96,1.17-2.06,1.17c-1.05,0-1.89-0.52-1.89-1.68c0-1.61,1.54-1.67,3.03-1.85c0.57-0.06,0.88-0.16,0.88-0.78
				c0-0.95-0.66-1.18-1.47-1.18c-0.86,0-1.48,0.4-1.51,1.34H80.68z M84.36,214.02h-0.02c-0.09,0.17-0.39,0.22-0.58,0.26
				c-1.17,0.21-2.62,0.21-2.62,1.33c0,0.7,0.6,1.14,1.26,1.14c1.06,0,1.97-0.68,1.97-1.81V214.02z"/>
			<path fill="#762A82" d="M86.39,211.41h0.69v0.99h0.02c0.26-0.69,1.01-1.16,1.8-1.16c1.58,0,2.07,0.85,2.07,2.22v3.71h-0.69v-3.59
				c0-0.98-0.32-1.74-1.43-1.74c-1.1,0-1.74,0.85-1.77,1.98v3.36h-0.69V211.41z"/>
			<path fill="#762A82" d="M97.58,213.89l-3.07-4.69h0.89l2.57,4.04l2.56-4.04h0.88l-3.08,4.69v3.28h-0.75V213.89z"/>
			<path fill="#762A82" d="M105.98,214.29c0,1.65-0.96,3.04-2.67,3.04c-1.72,0-2.67-1.39-2.67-3.04c0-1.65,0.95-3.04,2.67-3.04
				C105.03,211.24,105.98,212.64,105.98,214.29z M101.33,214.29c0,1.22,0.67,2.46,1.98,2.46c1.31,0,1.98-1.24,1.98-2.46
				c0-1.22-0.67-2.45-1.98-2.45C102,211.83,101.33,213.07,101.33,214.29z"/>
			<path fill="#762A82" d="M111.56,217.17h-0.63v-1.04h-0.02c-0.36,0.77-1.1,1.2-1.95,1.2c-1.43,0-1.98-0.83-1.98-2.18v-3.74h0.69
				v3.75c0.03,1.04,0.41,1.58,1.51,1.58c1.18,0,1.7-1.14,1.7-2.31v-3.03h0.69V217.17z"/>
			<path fill="#762A82" d="M113.93,211.41h1.15V212h-1.15v3.88c0,0.46,0.07,0.73,0.56,0.76c0.2,0,0.39-0.01,0.59-0.03v0.6
				c-0.21,0-0.41,0.02-0.61,0.02c-0.92,0-1.24-0.31-1.23-1.29V212h-0.98v-0.59h0.98v-1.73h0.69V211.41z"/>
			<path fill="#762A82" d="M116.04,209.2h0.69v3.2h0.02c0.26-0.69,1-1.16,1.8-1.16c1.58,0,2.07,0.85,2.07,2.22v3.71h-0.69v-3.59
				c0-0.98-0.32-1.74-1.43-1.74c-1.1,0-1.74,0.85-1.77,1.98v3.36h-0.69V209.2z"/>
			<path fill="#762A82" d="M130.76,211.61c-0.26-1.23-1.26-1.93-2.39-1.93c-2.07,0-2.94,1.76-2.94,3.5c0,1.74,0.88,3.51,2.94,3.51
				c1.44,0,2.36-1.14,2.51-2.56h0.75c-0.21,1.96-1.43,3.2-3.25,3.2c-2.46,0-3.68-1.96-3.68-4.15c0-2.18,1.22-4.15,3.68-4.15
				c1.49,0,2.93,0.92,3.14,2.58H130.76z"/>
			<path fill="#762A82" d="M132.53,213.17c0.08-1.35,0.98-1.93,2.29-1.93c0.99,0,2.08,0.3,2.08,1.85v3.05
				c0,0.28,0.13,0.42,0.41,0.42c0.08,0,0.14-0.01,0.22-0.04v0.59c-0.16,0.03-0.26,0.05-0.45,0.05c-0.7,0-0.81-0.41-0.81-1.01h-0.02
				c-0.49,0.75-0.96,1.17-2.06,1.17c-1.05,0-1.89-0.52-1.89-1.68c0-1.61,1.54-1.67,3.03-1.85c0.57-0.06,0.89-0.16,0.89-0.78
				c0-0.95-0.66-1.18-1.48-1.18c-0.86,0-1.48,0.4-1.51,1.34H132.53z M136.21,214.02h-0.02c-0.09,0.17-0.4,0.22-0.58,0.26
				c-1.17,0.21-2.63,0.21-2.63,1.33c0,0.7,0.6,1.14,1.26,1.14c1.06,0,1.97-0.68,1.97-1.81V214.02z"/>
			<path fill="#762A82" d="M138.25,211.41h0.64v1.09h0.02c0.32-0.79,1.09-1.26,2.01-1.26c1.72,0,2.54,1.4,2.54,3.04
				c0,1.64-0.82,3.04-2.54,3.04c-0.83,0-1.66-0.42-1.96-1.26h-0.02v3.23h-0.69V211.41z M140.92,211.83c-1.53,0-1.98,1.15-1.98,2.45
				c0,1.19,0.53,2.46,1.98,2.46c1.31,0,1.85-1.26,1.85-2.46C142.77,213.1,142.23,211.83,140.92,211.83z"/>
			<path fill="#762A82" d="M144.52,209.2h0.69v1.13h-0.69V209.2z M144.52,211.41h0.69v5.76h-0.69V211.41z"/>
			<path fill="#762A82" d="M147.6,211.41h1.15V212h-1.15v3.88c0,0.46,0.07,0.73,0.56,0.76c0.2,0,0.39-0.01,0.59-0.03v0.6
				c-0.21,0-0.41,0.02-0.61,0.02c-0.92,0-1.24-0.31-1.23-1.29V212h-0.98v-0.59h0.98v-1.73h0.69V211.41z"/>
			<path fill="#762A82" d="M149.66,213.17c0.08-1.35,0.98-1.93,2.29-1.93c0.99,0,2.08,0.3,2.08,1.85v3.05c0,0.28,0.13,0.42,0.4,0.42
				c0.08,0,0.14-0.01,0.22-0.04v0.59c-0.16,0.03-0.26,0.05-0.45,0.05c-0.7,0-0.81-0.41-0.81-1.01h-0.02
				c-0.49,0.75-0.96,1.17-2.06,1.17c-1.05,0-1.89-0.52-1.89-1.68c0-1.61,1.54-1.67,3.03-1.85c0.57-0.06,0.88-0.16,0.88-0.78
				c0-0.95-0.65-1.18-1.47-1.18c-0.87,0-1.48,0.4-1.51,1.34H149.66z M153.33,214.02h-0.02c-0.09,0.17-0.39,0.22-0.58,0.26
				c-1.17,0.21-2.63,0.21-2.63,1.33c0,0.7,0.6,1.14,1.26,1.14c1.06,0,1.97-0.68,1.97-1.81V214.02z"/>
			<path fill="#762A82" d="M155.39,209.2h0.69v7.97h-0.69V209.2z"/>
		</g>
		<g>
			<g>
				<path fill="#762A82" d="M0,207.23h0.49v2.85l2.97-2.85h0.66l-2.28,2.19l2.39,3.11H3.59l-2.13-2.76l-0.98,0.94v1.82H0V207.23z"/>
				<path fill="#762A82" d="M7.86,210.62c0,1.1-0.62,2.03-1.75,2.03c-1.12,0-1.75-0.93-1.75-2.03c0-1.1,0.62-2.02,1.75-2.02
					C7.24,208.59,7.86,209.52,7.86,210.62z M4.82,210.62c0,0.81,0.44,1.63,1.29,1.63c0.86,0,1.3-0.82,1.3-1.63
					c0-0.81-0.44-1.63-1.3-1.63C5.25,208.98,4.82,209.81,4.82,210.62z"/>
				<path fill="#762A82" d="M8.54,207.23h0.45v5.3H8.54V207.23z"/>
				<path fill="#762A82" d="M13.16,210.62c0,1.1-0.62,2.03-1.75,2.03c-1.12,0-1.75-0.93-1.75-2.03c0-1.1,0.62-2.02,1.75-2.02
					C12.54,208.59,13.16,209.52,13.16,210.62z M10.12,210.62c0,0.81,0.44,1.63,1.3,1.63s1.29-0.82,1.29-1.63
					c0-0.81-0.44-1.63-1.29-1.63S10.12,209.81,10.12,210.62z"/>
				<path fill="#762A82" d="M14.05,212.14h2.54v0.39h-3.08v-0.38l2.41-3.06h-2.25v-0.39h2.82v0.33L14.05,212.14z"/>
				<path fill="#762A82" d="M19.36,209.82c-0.02-0.58-0.45-0.84-0.97-0.84c-0.4,0-0.87,0.16-0.87,0.66c0,0.41,0.45,0.56,0.77,0.64
					l0.6,0.14c0.52,0.08,1.05,0.39,1.05,1.06c0,0.83-0.79,1.15-1.48,1.15c-0.87,0-1.44-0.41-1.52-1.35h0.45
					c0.04,0.63,0.49,0.96,1.09,0.96c0.43,0,1.01-0.19,1.01-0.73c0-0.44-0.4-0.59-0.81-0.7l-0.58-0.13
					c-0.59-0.16-1.03-0.38-1.03-1.03c0-0.78,0.74-1.08,1.39-1.08c0.74,0,1.32,0.4,1.35,1.23H19.36z"/>
				<path fill="#762A82" d="M20.17,208.7h0.5l1.16,3.36h0.01l1.15-3.36h0.46l-1.38,3.83H21.6L20.17,208.7z"/>
				<path fill="#762A82" d="M23.86,209.87c0.05-0.9,0.64-1.28,1.5-1.28c0.65,0,1.36,0.2,1.36,1.23v2.03c0,0.19,0.09,0.28,0.26,0.28
					c0.05,0,0.09-0.01,0.14-0.03v0.39c-0.11,0.02-0.17,0.03-0.29,0.03c-0.46,0-0.53-0.27-0.53-0.67h-0.01
					c-0.32,0.5-0.63,0.78-1.35,0.78c-0.69,0-1.24-0.35-1.24-1.12c0-1.07,1.01-1.11,1.98-1.23c0.37-0.04,0.58-0.1,0.58-0.52
					c0-0.63-0.43-0.79-0.97-0.79c-0.56,0-0.96,0.27-0.99,0.89H23.86z M26.26,210.44h-0.01c-0.06,0.11-0.26,0.15-0.38,0.17
					c-0.77,0.14-1.72,0.14-1.72,0.88c0,0.47,0.39,0.76,0.82,0.76c0.69,0,1.29-0.45,1.29-1.2V210.44z M25.46,208.16H25.1l0.75-1.05
					h0.56L25.46,208.16z"/>
				<path fill="#762A82" d="M27.61,208.7h0.41v0.9h0.01c0.23-0.62,0.73-0.98,1.4-0.95v0.47c-0.82-0.04-1.37,0.57-1.37,1.37v2.04
					h-0.45V208.7z"/>
			</g>
			<g>
				<path fill="#762A82" d="M0,214.4h0.49v2.85l2.97-2.85h0.66l-2.28,2.19l2.39,3.11H3.59l-2.13-2.76l-0.98,0.94v1.82H0V214.4z"/>
				<path fill="#762A82" d="M4.56,214.4h0.45v5.29H4.56V214.4z"/>
				<path fill="#762A82" d="M5.83,217.04c0.05-0.9,0.64-1.29,1.5-1.29c0.65,0,1.36,0.2,1.36,1.23v2.04c0,0.18,0.09,0.28,0.26,0.28
					c0.05,0,0.09-0.01,0.14-0.03v0.39c-0.11,0.02-0.17,0.03-0.29,0.03c-0.46,0-0.53-0.27-0.53-0.67H8.26
					c-0.32,0.5-0.63,0.78-1.35,0.78c-0.69,0-1.24-0.35-1.24-1.12c0-1.07,1.01-1.12,1.98-1.23c0.37-0.04,0.58-0.11,0.58-0.52
					c0-0.63-0.43-0.79-0.97-0.79c-0.57,0-0.97,0.27-0.99,0.89H5.83z M8.24,217.6H8.22c-0.06,0.11-0.26,0.15-0.38,0.17
					c-0.77,0.14-1.72,0.14-1.72,0.88c0,0.47,0.39,0.76,0.82,0.76c0.69,0,1.29-0.45,1.29-1.2V217.6z"/>
				<path fill="#762A82" d="M12.58,219.69h-0.42V219h-0.02c-0.24,0.51-0.72,0.8-1.27,0.8c-0.94,0-1.3-0.56-1.3-1.45v-2.49h0.45v2.49
					c0.02,0.69,0.27,1.06,0.99,1.06c0.77,0,1.11-0.76,1.11-1.54v-2.01h0.45V219.69z"/>
				<path fill="#762A82" d="M15.64,216.99c-0.02-0.58-0.45-0.84-0.97-0.84c-0.4,0-0.87,0.16-0.87,0.66c0,0.41,0.45,0.56,0.77,0.65
					l0.6,0.14c0.52,0.08,1.05,0.39,1.05,1.06c0,0.83-0.79,1.15-1.48,1.15c-0.87,0-1.44-0.41-1.52-1.35h0.45
					c0.04,0.63,0.49,0.96,1.09,0.96c0.43,0,1.01-0.19,1.01-0.73c0-0.45-0.4-0.59-0.81-0.7l-0.58-0.13
					c-0.59-0.16-1.03-0.38-1.03-1.02c0-0.78,0.74-1.08,1.39-1.08c0.74,0,1.32,0.4,1.35,1.23H15.64z"/>
				<path fill="#762A82" d="M17.14,217.91c0,0.68,0.36,1.51,1.22,1.51c0.66,0,1.02-0.39,1.16-0.98h0.45
					c-0.19,0.87-0.67,1.37-1.61,1.37c-1.17,0-1.67-0.93-1.67-2.03c0-1.01,0.49-2.03,1.67-2.03c1.18,0,1.66,1.08,1.63,2.15H17.14z
					 M19.53,217.52c-0.02-0.71-0.45-1.37-1.17-1.37c-0.74,0-1.14,0.67-1.22,1.37H19.53z"/>
				<path fill="#762A82" d="M20.58,215.87h0.45v0.66h0.01c0.17-0.46,0.66-0.77,1.18-0.77c1.04,0,1.35,0.57,1.35,1.48v2.46h-0.45
					v-2.39c0-0.65-0.21-1.16-0.94-1.16c-0.72,0-1.14,0.56-1.16,1.31v2.23h-0.45V215.87z"/>
				<path fill="#762A82" d="M24.43,214.4h0.45v2.19h0.01c0.19-0.55,0.74-0.84,1.28-0.84c1.12,0,1.66,0.94,1.66,2.03
					c0,1.09-0.54,2.03-1.66,2.03c-0.6,0-1.11-0.31-1.32-0.84h-0.02v0.73h-0.41V214.4z M26.18,216.15c-0.95,0-1.29,0.84-1.29,1.63
					c0,0.8,0.34,1.63,1.29,1.63c0.86,0,1.21-0.84,1.21-1.63C27.39,216.99,27.04,216.15,26.18,216.15z"/>
				<path fill="#762A82" d="M31.53,219.69h-0.41V219H31.1c-0.24,0.51-0.72,0.8-1.27,0.8c-0.94,0-1.3-0.56-1.3-1.45v-2.49h0.45v2.49
					c0.02,0.69,0.27,1.06,0.99,1.06c0.77,0,1.11-0.76,1.11-1.54v-2.01h0.45V219.69z"/>
				<path fill="#762A82" d="M32.38,215.87h0.42v0.9h0.02c0.23-0.62,0.73-0.98,1.4-0.95v0.47c-0.82-0.04-1.37,0.57-1.37,1.37v2.04
					h-0.45V215.87z"/>
				<path fill="#762A82" d="M37.75,219.39c0,1.15-0.44,1.84-1.64,1.84c-0.74,0-1.47-0.35-1.53-1.16h0.45
					c0.09,0.56,0.59,0.76,1.08,0.76c0.84,0,1.19-0.5,1.19-1.44v-0.52h-0.01c-0.21,0.47-0.64,0.78-1.17,0.78
					c-1.18,0-1.67-0.87-1.67-1.96c0-1.05,0.6-1.93,1.67-1.93c0.54,0,0.99,0.35,1.17,0.77h0.01v-0.66h0.45V219.39z M37.3,217.74
					c0-0.75-0.33-1.59-1.19-1.59c-0.86,0-1.22,0.79-1.22,1.59c0,0.77,0.38,1.52,1.22,1.52C36.9,219.26,37.3,218.51,37.3,217.74z"/>
			</g>
		</g>
	</g>
</g>
</svg>
