<!-- Generator: Adobe Illustrator 18.1.1, SVG Export Plug-In  -->
<svg version="1.1"
	 xmlns="http://www.w3.org/2000/svg" xmlns:xlink="http://www.w3.org/1999/xlink" xmlns:a="http://ns.adobe.com/AdobeSVGViewerExtensions/3.0/"
	 x="0px" y="0px" width="71.37px" height="61px" viewBox="0 0 71.37 61" enable-background="new 0 0 71.37 61" xml:space="preserve"
	>
<path fill-rule="evenodd" clip-rule="evenodd" fill="#868789" d="M25.57,13.64c-1.9,0.29-2.9,2.25-2.82,3.93
	c0.07,1.81,1.29,3.5,2.82,3.75V13.64z M41.99,0l0.14,0.68c-5.12,1.7-10.26,3.25-15.53,5.03c0.37,0.32,0.56,0.54,0.8,0.69
	c1.7,1.09,3.55,1.84,5.51,2.32c0.35,0.08,0.78,0.01,1.15-0.1c2.52-0.78,5.02-1.58,7.54-2.37c2.39-0.76,4.79-1.51,7.19-2.25
	c0.28-0.09,0.58-0.1,0.86-0.15c0.2,0.72,0.27,20.9,0.09,22.46c-0.58,0.2-1.19,0.44-1.82,0.63c-4.39,1.38-8.79,2.72-13.16,4.15
	c-0.85,0.27-1.61,0.25-2.4,0.01c-2.13-0.66-4.09-1.68-6.03-2.74c-0.53-0.3-0.74-0.72-0.72-1.34c0.05-1.18,0.02-2.36,0.02-3.58
	c-0.3-0.16-0.55-0.3-0.82-0.43c-1.99-0.95-3.33-2.41-3.68-4.63c-0.37-2.4,0.57-5.08,3.22-6.17l1.23-0.5
	c0.01-0.29,0.04-0.59,0.05-0.88c0-1.55-0.01-3.09,0-4.63c0-0.78,0.17-0.99,0.92-1.23c4.5-1.43,9-2.86,13.5-4.31
	c0.6-0.19,1.17-0.44,1.76-0.66H41.99z M0,43.93h4.37V43.5L3.3,43.08v-3.26h2.01l0.42,1.03L6.2,40.8c0-0.89,0.01-1.76-0.01-2.63
	C6.18,38.02,6,37.88,5.83,37.63l-0.49,1.14C4.68,39.13,4,39.04,3.33,38.92c-0.18-1.21-0.13-2.65,0.14-3.34l1.86,0.16
	c0.45,0.05,0.68,0.34,0.84,0.73c0.07,0.17,0.08,0.37,0.19,0.5c0.09,0.12,0.28,0.17,0.51,0.29v-2.32c-2.12,0-4.19,0-6.25,0.01
	c-0.16,0-0.31,0.15-0.61,0.3l1.04,0.44c0.29,0.96,0.26,6.62-0.04,7.5L0,43.39V43.93z M56.23,61c0.21-0.17,0.43-0.32,0.62-0.5
	c0.52-0.52,0.61-1.27,0.26-1.82c-0.21-0.34-0.51-0.5-0.91-0.47c-0.39,0.03-0.59,0.26-0.64,0.72l0.95,0.86
	c-0.28,0.29-0.54,0.53-0.76,0.79c-0.11,0.12-0.17,0.28-0.25,0.42H56.23z M42.05,50.75c0.56-0.28,1.02-0.22,1.43,0.2
	c0.51,0.5,0.65,1.44,0.3,2.11c-0.35,0.69-0.94,0.77-1.73,0.59V50.75z M53.4,55.51c0.22,0.83,0,1.43-0.32,2.05
	c-1.31,0-2.62-0.02-3.92,0c-0.91,0.02-1.81,0.12-2.72,0.14c-1.06,0.03-2-0.24-2.55-1.24c-0.29-0.53-0.56-1.07-0.83-1.61
	c-0.21-0.43-0.46-0.71-1.05-0.44v2.04c0,0.59,0.52,0.66,0.93,0.85c-0.34,0.26-0.34,0.26-1.71,0.26h-1.76l-0.05-0.19l0.89-0.49v-6.11
	l-1-0.5c0.28-0.11,0.4-0.19,0.53-0.2c1.39-0.17,2.79-0.26,4.17,0.04c0.55,0.11,1.05,0.33,1.37,0.81c0.61,0.89,0.52,1.93-0.31,2.58
	c-0.17,0.13-0.34,0.24-0.6,0.43c0.47,1.02,0.9,2.07,1.73,2.89c0.51,0.51,0.89,0.48,1.76,0v-6.1c-0.12-0.43-0.95,0-0.81-0.73h5.67
	c0.19,0.61,0.19,1.24,0.04,2.05c-0.21-0.27-0.38-0.4-0.44-0.56c-0.22-0.64-0.69-0.88-1.33-0.89h-1.28c-0.21,0.92-0.08,1.75-0.1,2.57
	c0.52,0.28,1.05,0.28,1.46,0.09c0.34-0.16,0.53-0.62,0.91-1.11c0.2,1.05,0.09,1.92,0.11,2.91c-0.25-0.12-0.43-0.15-0.47-0.24
	c-0.41-0.86-0.4-0.87-1.32-0.85c-0.18,0-0.36,0.03-0.59,0.05c-0.23,0.91-0.13,1.79,0.09,2.7c0.6,0.51,1.33,0.31,2,0.25
	C52.64,56.88,52.79,56.05,53.4,55.51z M12.81,54.25h-1.54l0.67-1.98h0.19L12.81,54.25z M19.02,53.65c1.05,0.13,1.45-0.01,1.73-0.56
	c0.33-0.64,0.21-1.6-0.26-2.12c-0.37-0.4-0.85-0.49-1.47-0.25V53.65z M11.03,55.07l-0.62,1.84l0.87,0.43
	c-0.45,0.26-1.91,0.31-2.77,0.09c0.15-0.11,0.24-0.22,0.35-0.25c0.44-0.09,0.65-0.42,0.8-0.79c0.72-1.91,1.44-3.83,2.19-5.84
	l1.07-0.77c0.1,0.2,0.19,0.38,0.25,0.56c0.69,1.96,1.36,3.92,2.06,5.87c0.38,1.08,1.04,1.27,2.06,0.6v-5.99l-0.92-0.52
	c0.14-0.1,0.19-0.18,0.26-0.19c1.49-0.24,2.97-0.3,4.44,0.01c1.12,0.24,1.7,1.07,1.63,2.18c-0.03,0.48-0.23,0.87-0.61,1.16
	c-0.21,0.17-0.43,0.32-0.69,0.51c0.79,1.24,1.06,2.82,2.71,3.36c-0.96,0.65-2.37,0.39-3.05-0.59c-0.39-0.57-0.67-1.21-0.99-1.83
	c-0.29-0.55-0.28-0.56-1.02-0.58v2.52l0.83,0.48l-0.02,0.11c-0.01,0.02-0.02,0.07-0.04,0.07c-2.21,0.02-4.42,0.04-6.63,0.06
	c-0.07,0-0.14-0.08-0.31-0.17l0.78-0.45l-0.59-1.88H11.03z M36.56,38.6c0.45,1.19,0.34,2.36-0.23,3.48
	c-0.41,0.82-1.15,1.2-2.04,1.29c-0.7,0.07-1.22-0.29-1.23-0.9c-0.03-1.83-0.01-3.66-0.01-5.54C34.87,36.65,36.05,37.23,36.56,38.6z
	 M31.13,43.23c0.23-0.98,0.23-5.26,0.02-6.25l-0.71-0.4l0.05-0.18c0.17-0.03,0.33-0.08,0.49-0.09c1.39-0.07,2.78-0.22,4.18-0.01
	c1.54,0.23,2.79,0.84,3.34,2.39c0.67,1.87-0.04,4.42-2.85,5.05c-0.68,0.15-1.38,0.17-2.08,0.19c-1.05,0.03-2.12,0.01-3.17,0.01
	C30.41,43.46,30.41,43.46,31.13,43.23z M26.36,43.99l0.66-0.18V42.9c0-1.55-0.01-3.09,0.01-4.63c0.01-0.47,0.13-0.93,0.19-1.33
	l0.93-0.45c-0.38-0.22-1.63-0.35-2.68-0.28c-0.15,0.01-0.28,0.13-0.55,0.26l1.11,0.47c0.46,1.36,0.17,2.72,0.26,4.07l-0.19,0.07
	l-3.99-4.83c-0.4,0-0.85-0.03-1.3,0.01c-0.4,0.04-0.88-0.29-1.27,0.25l1,0.44c0.04,0.14,0.09,0.23,0.09,0.31v5.35
	c0,0.41-0.19,0.7-0.61,0.77c-0.3,0.05-0.34,0.2-0.26,0.49h2.86c-0.14-0.43-0.14-0.43-0.31-0.48c-0.69-0.22-0.74-0.25-0.76-0.91
	c-0.05-1.3-0.05-2.6-0.07-3.9c0-0.1,0.05-0.21,0.11-0.46L26.36,43.99z M7.82,55.79c-1.11,1.75-3.37,1.81-4.65,0.18
	c-1.03-1.31-1.08-4.08-0.24-5.32c0.64-0.97,1.5-1.54,2.73-1.45c1.06,0.08,1.7,0.67,2.13,1.58c0.07,0.15,0.19,0.28,0.29,0.43
	c0.41-0.52,0.42-0.94,0.09-2.34c-1.32-0.3-2.63-0.5-4.02-0.25c-2.15,0.4-4.12,2.14-4.03,4.8c0.06,1.74,1.12,3.49,3.13,4.09
	C4.92,58,6.59,57.89,8.2,57.29c0.61-1.37,0.65-1.87,0.1-2.34C8.11,55.27,7.98,55.54,7.82,55.79z M34.38,50.13
	c-0.54-0.24-2.78-0.26-3.51-0.03c-0.02,0.59,0.75,0.19,0.85,0.66c0.04,0.29,0.04,0.59,0.04,0.89c0,1.09-0.05,2.18,0.02,3.26
	c0.09,1.52,0.52,2.37,1.9,2.72c0.82,0.21,1.67,0.22,2.51-0.05c0.86-0.27,1.42-0.82,1.59-1.68c0.14-0.67,0.16-1.37,0.19-2.06
	c0.06-1.05-0.1-2.11,0.27-3.12c0.12-0.38,0.88-0.05,0.76-0.77c-0.51,0-1.03-0.02-1.53,0.01c-0.47,0.03-1-0.21-1.52,0.29l1.06,0.42
	c0.07,0.24,0.21,0.46,0.21,0.69c0.02,1.27,0.08,2.54-0.02,3.81c-0.05,0.7-0.29,1.46-1.07,1.77c-1.1,0.44-2.43,0.02-2.53-1.43
	c-0.09-1.35-0.1-2.72-0.12-4.07c0-0.27,0.09-0.53,0.13-0.72C33.9,50.37,34.38,50.6,34.38,50.13z M15.52,36.94
	c0.06,0.36,0.16,0.71,0.17,1.06c0.02,1,0.02,2,0,2.99c-0.01,0.36-0.08,0.72-0.19,1.07c-0.26,0.89-0.97,1.38-1.82,1.32
	c-0.91-0.06-1.54-0.63-1.61-1.64c-0.1-1.35-0.11-2.71-0.13-4.06c-0.01-0.27,0.09-0.53,0.14-0.78l0.84-0.43
	c-0.4-0.47-0.85-0.17-1.23-0.21c-0.43-0.04-0.85-0.03-1.28,0C10.05,36.28,9.6,36,9.25,36.5l0.98,0.48v0.91
	c0,1.09-0.04,2.18,0.01,3.27c0.06,1.15,0.31,2.27,1.63,2.63c0.66,0.18,1.38,0.26,2.05,0.2c1.56-0.14,2.44-1.03,2.51-2.87
	c0.03-0.84-0.02-1.69,0.02-2.53c0.02-0.57,0.13-1.12,0.19-1.62l0.99-0.49c-0.19-0.13-0.29-0.26-0.4-0.27
	c-1.08-0.07-2.43,0.06-2.78,0.31L15.52,36.94z M67.79,40.56h-1.55l0.69-2.07l0.19,0.01L67.79,40.56z M66.85,36.76l1.04-0.72
	c0.1,0.22,0.2,0.39,0.27,0.57c0.69,1.95,1.37,3.91,2.05,5.87c0.19,0.54,0.38,1.04,1.12,0.91l0.04,0.48h-3.35
	c-0.01-0.41-0.01-0.41,0.63-0.64l-0.63-1.94h-2.01l-0.57,1.77c0.13,0.5,0.81,0.12,0.79,0.8c-0.88,0.12-1.77-0.02-2.67,0.08v-0.52
	c0.7,0.07,0.93-0.4,1.13-0.93C65.39,40.6,66.11,38.72,66.85,36.76z M44.06,40.55h-1.55l0.71-2.08l0.18-0.02L44.06,40.55z
	 M42.48,43.88h-2.65v-0.44c0.74,0.06,0.97-0.46,1.18-1.01c0.62-1.66,1.25-3.32,1.87-4.98c0.3-0.81,0.33-0.85,1.38-1.34l0.65,1.84
	l1.54,4.42c0.18,0.51,0.33,1.07,1.06,1.06c0.05,0,0.11,0.23,0.2,0.43h-3.47c-0.18-0.63,0.42-0.37,0.68-0.67l-0.61-1.9h-2.02
	l-0.55,1.73C41.84,43.58,42.58,43.15,42.48,43.88z M62.24,56.94l-1.09,0.42l0.05,0.2c0.65,0,1.31,0.03,1.96-0.01
	s1.34,0.18,2.15-0.18l-1.18-0.42v-6.39l1.58,0.12c0.47,0.3,0.15,1.14,0.9,1.21l0.2-2.16c-1.23,0.38-2.36,0.21-3.47,0.21
	c-1.13,0.01-2.28,0.14-3.39-0.15c-0.3,0.86-0.4,1.61-0.28,2.17c0.16-0.14,0.31-0.22,0.39-0.35c0.65-1.07,0.86-1.17,2.18-0.91V56.94z
	 M58.77,50.78c-0.05-0.56-0.22-0.76-0.77-0.85c-0.62-0.09-1.23-0.2-1.89-0.05c-0.94,0.21-1.65,0.65-1.87,1.61
	c-0.23,1.01,0.16,1.84,1.03,2.41c0.41,0.27,0.87,0.45,1.24,0.75c0.34,0.27,0.68,0.62,0.87,1c0.34,0.69-0.12,1.43-0.88,1.53
	c-0.45,0.06-0.88-0.02-1.18-0.34c-0.35-0.37-0.61-0.81-0.93-1.21c-0.1-0.12-0.27-0.19-0.52-0.36c0,0.5-0.03,0.83,0,1.16
	c0.07,0.61,0.31,1.12,1.02,1.17c0.75,0.05,1.52,0.19,2.25,0.07c0.82-0.12,1.51-0.58,1.83-1.44c0.44-1.18-0.15-2.27-1.09-2.88
	c-0.38-0.24-0.8-0.42-1.17-0.67c-0.3-0.2-0.61-0.42-0.82-0.7c-0.48-0.65-0.11-1.43,0.69-1.53c0.65-0.08,1.11,0.18,1.45,0.73
	c0.16,0.26,0.16,0.66,0.75,0.74C58.78,51.49,58.8,51.13,58.77,50.78z M53.06,36.9c0.06-0.01,0.12-0.03,0.18-0.04
	c0.86-0.1,1.59,0.02,1.79,1.05c0.02,0.09,0.21,0.15,0.4,0.28l0.25-2.11c-2.34,0.26-4.6,0.29-6.93-0.02l-0.39,2.03
	c0.2,0,0.31,0.03,0.37-0.01c0.09-0.06,0.16-0.16,0.22-0.26c0.64-1.05,0.85-1.14,2.14-0.85c0.2,1.42,0.11,5.58-0.14,6.34l-0.87,0.15
	l-0.05,0.43h1.37c0.46,0,0.91,0.02,1.37,0c0.42-0.02,0.89,0.22,1.37-0.3l-1.03-0.33C52.87,42.53,52.84,37.71,53.06,36.9z
	 M24.83,57.33l0.03,0.21l1.28,0.02c0.49,0,0.98,0.05,1.46-0.02c0.41-0.05,0.88,0.27,1.29-0.2l-1.1-0.42v-6.36l1.57,0.11l0.72,1.27
	l0.2-0.05l0.23-2.02c-2.36,0.12-4.63,0.17-6.93-0.04l-0.37,1.97c0.43,0.22,0.47-0.07,0.59-0.27c0.56-0.99,1.04-1.16,2.24-0.76
	c-0.06,2.04,0.1,4.12-0.09,6.19L24.83,57.33z M67.22,50.01c-0.12,0.7,0.65,0.3,0.83,0.68v6.2l-1.01,0.54
	c1.05,0.22,3.32,0.16,3.84-0.08l-0.98-0.43c-0.03-2.09-0.08-4.19,0.08-6.28c0.23-0.3,0.86,0.01,0.83-0.63H67.22z M58.95,42.38
	c-0.02,0.32-0.15,0.62-0.19,0.79c-0.32,0.31-0.78,0.08-0.8,0.57c0.06,0.05,0.13,0.15,0.2,0.15c1.06,0.02,2.12,0.03,3.18,0.01
	c0.09,0,0.17-0.22,0.27-0.36c-0.96-0.33-0.99-0.36-0.99-1.3c-0.01-1.45,0.04-2.9-0.02-4.34c-0.03-0.73,0.2-1.15,0.91-1.31
	c0.03-0.01,0.05-0.11,0.08-0.2c-0.34-0.38-0.78-0.11-1.17-0.13c-0.46-0.02-0.91-0.02-1.37-0.01c-0.37,0.02-0.81-0.22-1.19,0.25
	l0.86,0.37C59.01,37.58,59.11,39.8,58.95,42.38z M29.55,6.16c2.39-0.76,4.78-1.5,7.17-2.25C39,3.2,41.27,2.48,43.54,1.75
	c0.04-0.01,0.06-0.06,0.12-0.14l-0.6-0.24L28.3,6.02C28.81,6.4,29.16,6.28,29.55,6.16z M44.03,2.52C40.22,3.7,36.41,4.9,32.6,6.1
	c-0.78,0.25-1.56,0.52-2.4,0.8c0.64,0.45,1.15,0.16,1.65,0c2.63-0.82,5.26-1.64,7.88-2.47c1.92-0.61,3.84-1.24,5.86-1.89
	C44.98,2.04,44.49,2.38,44.03,2.52z M46.27,3.28c-2.4,0.76-4.79,1.5-7.19,2.25c-2.25,0.71-4.49,1.43-6.76,2.16
	c0.43,0.22,0.83,0.28,1.28,0.1c0.56-0.21,1.15-0.35,1.73-0.54l9.16-2.89l3.05-0.98C47.08,3.03,46.69,3.15,46.27,3.28z M11.01,47.64
	c-0.18,0.59-0.07,1.08,0.43,1.42c0.63,0.43,1.31,0.44,1.96,0.06c0.54-0.32,0.7-0.84,0.58-1.57C12.68,48.71,12.39,48.78,11.01,47.64z
	 M51.26,47.22c1.01,0.06,1.88-0.94,1.65-1.89c-0.13-0.52-0.54-0.87-1.01-0.87c-0.31,0-0.53,0.11-0.65,0.4
	c-0.12,0.31,0.03,0.51,0.28,0.68c0.19,0.12,0.36,0.27,0.63,0.48l-1.02,1.06C51.19,47.14,51.22,47.22,51.26,47.22z"/>
</svg>
