<!-- Generator: Adobe Illustrator 18.1.1, SVG Export Plug-In  -->
<svg version="1.1"
	 xmlns="http://www.w3.org/2000/svg" xmlns:xlink="http://www.w3.org/1999/xlink" xmlns:a="http://ns.adobe.com/AdobeSVGViewerExtensions/3.0/"
	 x="0px" y="0px" width="208.29px" height="216.74px" viewBox="0 0 208.29 216.74" enable-background="new 0 0 208.29 216.74"
	 xml:space="preserve">
<defs>
</defs>
<g>
	<path fill="#46133A" d="M12.08,56.41c1.46,0.79,2.32,1.87,2.58,3.24c0.26,1.37-0.09,2.94-1.04,4.7l-0.78,1.45l5.22,2.82l-1.23,2.28
		L2.88,63.37l2.17-4.02c0.94-1.74,2-2.86,3.19-3.34C9.41,55.53,10.7,55.66,12.08,56.41z M10.92,64.77l0.65-1.21
		c0.63-1.17,0.89-2.14,0.78-2.91c-0.11-0.77-0.6-1.38-1.47-1.85c-0.8-0.43-1.53-0.51-2.19-0.23c-0.66,0.28-1.27,0.93-1.83,1.97
		l-0.86,1.58L10.92,64.77z"/>
	<path fill="#46133A" d="M19.71,53.62l5.1,3.75l-1.54,2.09L10.5,50.07l2.65-3.61c1.21-1.65,2.42-2.64,3.62-2.98
		c1.2-0.34,2.42-0.05,3.67,0.87c1.59,1.17,2.11,2.83,1.57,4.98l8.31,0.55l-1.75,2.38l-7.35-0.69L19.71,53.62z M17.98,52.35
		l1.06-1.45c0.72-0.97,1.05-1.81,1.01-2.51c-0.04-0.7-0.42-1.31-1.13-1.84c-0.72-0.53-1.41-0.68-2.07-0.44
		c-0.66,0.24-1.34,0.84-2.04,1.79l-1.02,1.38L17.98,52.35z"/>
	<path fill="#46133A" d="M35.93,32.99c1.81,1.84,2.76,3.72,2.85,5.64c0.09,1.93-0.71,3.72-2.39,5.38c-1.7,1.68-3.51,2.47-5.42,2.36
		c-1.91-0.11-3.79-1.09-5.63-2.96c-1.84-1.86-2.79-3.74-2.86-5.65c-0.07-1.91,0.75-3.7,2.45-5.38c1.68-1.66,3.47-2.43,5.39-2.32
		C32.24,30.18,34.11,31.15,35.93,32.99z M27.32,41.5c1.37,1.39,2.69,2.16,3.96,2.33c1.27,0.16,2.45-0.3,3.56-1.39
		c1.09-1.08,1.57-2.25,1.43-3.51c-0.14-1.26-0.91-2.59-2.29-4c-1.37-1.38-2.68-2.16-3.94-2.33c-1.26-0.17-2.44,0.29-3.53,1.37
		c-1.1,1.09-1.58,2.27-1.44,3.55C25.2,38.79,25.95,40.12,27.32,41.5z"/>
	<path fill="#46133A" d="M43.98,36.98l-9.71-12.53l2.05-1.59l9.71,12.53L43.98,36.98z"/>
	<path fill="#46133A" d="M56.67,28.29l-7.58,4.8l-8.48-13.4l7.58-4.79l1.17,1.85l-5.39,3.41l2.31,3.65l5.05-3.19l1.16,1.83
		l-5.05,3.2l2.66,4.21l5.39-3.41L56.67,28.29z"/>
	<path fill="#46133A" d="M59.62,11.45c-1.35,0.62-2.2,1.59-2.53,2.91c-0.33,1.32-0.11,2.82,0.67,4.5c0.81,1.77,1.8,2.93,2.96,3.49
		c1.16,0.56,2.45,0.52,3.86-0.13c0.61-0.28,1.17-0.61,1.69-1c0.52-0.38,1.04-0.81,1.57-1.29l0.93,2.02
		c-0.93,0.95-2.11,1.75-3.55,2.41c-2.11,0.97-4.02,1.08-5.74,0.32c-1.72-0.76-3.12-2.32-4.22-4.7c-0.69-1.5-1.02-2.93-0.99-4.31
		c0.03-1.38,0.43-2.6,1.19-3.68c0.76-1.07,1.84-1.93,3.24-2.58c1.47-0.67,2.98-0.99,4.5-0.95l0.06,2.35c-0.59,0-1.2,0.03-1.82,0.1
		C60.83,11,60.22,11.17,59.62,11.45z"/>
	<path fill="#46133A" d="M76.99,19.83l-2.48,0.76l-4-13.03l-4.46,1.37L65.41,6.8l11.39-3.5l0.65,2.13L73,6.8L76.99,19.83z"/>
	<path fill="#46133A" d="M88.97,17.15L86.71,1.46l2.56-0.37l2.26,15.69L88.97,17.15z"/>
	<path fill="#46133A" d="M108.49,15.85l-3.18,0.07L97.22,3.47h-0.09l0.07,0.71c0.13,1.34,0.21,2.57,0.24,3.68l0.19,8.24l-2.35,0.05
		L94.91,0.3l3.14-0.07l8.06,12.39l0.07,0c-0.02-0.17-0.06-0.77-0.13-1.81c-0.07-1.04-0.11-1.86-0.12-2.44l-0.19-8.31L108.12,0
		L108.49,15.85z"/>
	<path fill="#46133A" d="M121.69,13.06c-0.17,1.4-0.81,2.44-1.92,3.11c-1.11,0.67-2.55,0.9-4.33,0.68c-1.78-0.22-3.2-0.67-4.27-1.37
		l0.3-2.43c0.68,0.43,1.41,0.79,2.19,1.08c0.78,0.29,1.52,0.48,2.22,0.57c1.02,0.13,1.79,0.02,2.33-0.3
		c0.53-0.33,0.84-0.82,0.92-1.47c0.08-0.59-0.09-1.12-0.48-1.58c-0.4-0.46-1.25-1.06-2.58-1.79c-1.36-0.76-2.29-1.55-2.79-2.37
		c-0.5-0.82-0.68-1.75-0.55-2.8c0.16-1.31,0.76-2.29,1.78-2.93c1.02-0.64,2.32-0.86,3.89-0.67c1.51,0.19,2.97,0.7,4.38,1.54l-1.08,2
		c-1.33-0.76-2.54-1.21-3.64-1.34c-0.83-0.1-1.48,0-1.96,0.31c-0.48,0.31-0.75,0.76-0.82,1.36c-0.05,0.41-0.01,0.77,0.13,1.08
		c0.14,0.31,0.39,0.62,0.75,0.93c0.36,0.31,1.03,0.74,2,1.29c1.1,0.62,1.89,1.17,2.37,1.66c0.49,0.48,0.82,1,1.01,1.56
		C121.73,11.72,121.78,12.35,121.69,13.06z"/>
	<path fill="#46133A" d="M136.7,9.77c-0.42,1.6-1.26,2.7-2.53,3.28c-1.27,0.58-2.88,0.62-4.81,0.12l-1.6-0.41l-1.48,5.74l-2.51-0.65
		l3.96-15.35l4.42,1.14c1.92,0.5,3.25,1.26,4.01,2.29C136.92,6.96,137.1,8.24,136.7,9.77z M128.31,10.65l1.33,0.35
		c1.29,0.33,2.29,0.35,3.01,0.06c0.72-0.29,1.2-0.91,1.45-1.87c0.23-0.88,0.13-1.61-0.3-2.18c-0.43-0.57-1.21-1.01-2.35-1.3
		l-1.74-0.45L128.31,10.65z"/>
	<path fill="#46133A" d="M136.5,21.52L142,6.65l2.43,0.9l-5.51,14.87L136.5,21.52z"/>
	<path fill="#46133A" d="M147.67,19.24l-2.81,5.67l-2.32-1.15l7.04-14.2l4.01,1.99c1.83,0.91,3.02,1.93,3.56,3.05
		c0.54,1.12,0.47,2.38-0.22,3.76c-0.88,1.77-2.42,2.57-4.63,2.41l0.89,8.28l-2.64-1.31l-0.59-7.36L147.67,19.24z M148.63,17.32
		l1.61,0.8c1.08,0.54,1.96,0.72,2.65,0.56c0.69-0.16,1.22-0.64,1.61-1.43c0.4-0.8,0.42-1.51,0.07-2.12
		c-0.35-0.61-1.05-1.18-2.11-1.7l-1.54-0.76L148.63,17.32z"/>
	<path fill="#46133A" d="M162.72,35.62l1.2-4.52l-4.99-3.44l-3.78,2.74l-2.25-1.55l13.93-9.74l2.32,1.6l-4.16,16.47L162.72,35.62z
		 M164.63,28.87l1.23-4.4c0.08-0.3,0.21-0.76,0.4-1.38c0.2-0.62,0.35-1.07,0.45-1.35c-0.66,0.62-1.45,1.26-2.36,1.92l-3.52,2.59
		L164.63,28.87z"/>
	<path fill="#46133A" d="M170.17,42.04l-1.92-1.75l9.18-10.07l-3.45-3.14l1.5-1.64l8.81,8.03l-1.5,1.64l-3.45-3.14L170.17,42.04z"/>
	<path fill="#46133A" d="M192.77,56.42c-2.11,1.54-4.16,2.14-6.13,1.78c-1.97-0.36-3.77-1.64-5.38-3.84l-2.62-3.58l12.8-9.35
		l2.89,3.96c1.49,2.04,2.09,4.02,1.83,5.96C195.9,53.27,194.76,54.97,192.77,56.42z M191.09,54.26c3.07-2.24,3.55-4.79,1.46-7.66
		l-1.33-1.81l-9.29,6.79l1.08,1.49C185.27,56.15,187.96,56.55,191.09,54.26z"/>
	<path fill="#46133A" d="M191.83,71.68l-4.2-7.92l14-7.43l4.21,7.92l-1.94,1.03l-2.99-5.63l-3.81,2.02l2.8,5.28l-1.92,1.02
		l-2.8-5.28l-4.4,2.33l2.99,5.63L191.83,71.68z"/>
</g>
<g>
	<defs>
		<circle id="SVGID_1_" cx="104.14" cy="112.6" r="87.91"/>
	</defs>
	<use xlink:href="#SVGID_1_"  overflow="visible" fill="#FFFFFF"/>
	<clipPath id="SVGID_2_">
		<use xlink:href="#SVGID_1_"  overflow="visible"/>
	</clipPath>
	<g clip-path="url(#SVGID_2_)">
		<path fill="#FEFEFE" d="M101.82,186.42c-22.67,0-45.35,0-68.02,0.02c-0.67,0-0.81-0.13-0.8-0.81c0.02-45.35,0.02-90.7,0-136.05
			c0-0.67,0.13-0.81,0.8-0.8c45.35,0.02,90.7,0.02,136.05,0c0.67,0,0.81,0.13,0.8,0.8c-0.02,45.35-0.02,90.7,0,136.05
			c0,0.67-0.13,0.81-0.8,0.81C147.17,186.41,124.49,186.42,101.82,186.42z M98.22,99.83c-0.08,0.06-0.16,0.12-0.24,0.18l0,0
			c-0.05,0.1-0.11,0.21-0.16,0.31c-0.47,0.57-1.09,0.83-1.81,0.92c-4.45,0.57-8.9,1.14-13.34,1.71c-0.76-0.39,0-0.52,0.15-0.66
			c1.73-1.55,3.49-3.07,5.24-4.6c0.09-0.06,0.18-0.12,0.27-0.18c0.29-0.4-0.11-0.63-0.23-0.94c0.15-0.22,0.05-0.41-0.03-0.64
			c-0.49-1.5-1.15-2.93-1.77-4.36c-1.11-2.57-1.72-5.34-3.06-7.8c-0.32-0.6-0.2-1.31-0.57-1.8c-0.66-0.87-0.8-1.96-1.34-2.86
			c-0.41-0.68-0.28-1.7-1.23-2.06c0-0.77-0.64-0.48-0.99-0.52c-4.43-0.44-8.86-0.85-13.29-1.26c-0.9-0.08-1.8-0.35-2.72-0.13
			c-0.39-0.02-0.98-0.5-0.98,0.42c-0.33,0.34-0.36,0.78-0.38,1.22c-0.24,0.1-0.34,0.33-0.35,0.55c-0.05,1.42-0.64,2.71-0.96,4.07
			c-1.12,4.85-2.32,9.68-3.42,14.54c-0.36,1.58-0.89,3.12-1.06,4.74c-0.1,0.18-0.06,0.32,0.13,0.41c0.06,0.11,0.1,0.26,0.19,0.33
			c2.12,1.85,4.27,3.67,6.36,5.55c0.55,0.49,1.38,0.77,1.5,1.67c-0.39,0.79-1.05,1.42-1.35,2.26c-2.97-0.75-5.95-1.5-8.92-2.24
			c-0.31-0.16-0.64-0.12-0.96-0.11c-3.03-0.98-6.15-1.53-9.47-2.38c1.32,1.61,2.63,2.83,3.93,4.04c0.71,0.65,1.18,1.56,2.12,1.96
			c0.63,0.7,1.58,0.67,2.37,1c1.31,0.55,2.6,1.21,3.94,1.58c1.31,0.36,2.59,0.81,3.82,1.35c1.43,0.63,2.94,0.92,4.43,1.29
			c0.13,0.04,0.25,0.09,0.38,0.13c0.29,0.23,0.5,0,0.68-0.15c1.58-1.35,3.11-2.78,4.75-4.06c0.62-0.48,0.89-1.48,1.91-1.41
			c3.1,1.12,6.2,2.25,9.31,3.36c3.08,1.1,6.17,2.13,9.23,3.28c1.64,0.61,3.2,1.54,5.03,1.58c0.08,0.06,0.17,0.11,0.25,0.17l0.01,0
			c0.13,0.02,0.25,0.04,0.38,0.06c0.48,0.14,0.91-0.09,1.34-0.2c8.39-2.08,16.77-4.16,25.15-6.26c3.76-0.94,7.51-1.92,11.27-2.88
			c0.42-0.16,0.64-0.53,0.84-0.9c1.15-2.13,2.49-4.15,3.78-6.19c0.7-1.12,1.23-2.33,1.9-3.45c0.71-1.18,1.47-2.36,2.33-3.48
			c1.89-2.46,3.07-5.39,4.78-7.99c1.81-2.74,3.18-5.75,5.1-8.42c1.08-1.51,1.95-3.16,2.96-4.72c0.46-0.72,1.34-1.07,1.54-2
			c0.18-0.81,0.89-1.37,1.15-2.21c0.18-0.59,0.51-1.34,1.16-1.63c0.87-0.38,0.63-0.88,0.31-1.45c0.91-1.04,0.87-1.37-0.18-2.28
			c-0.88-0.76-1.89-1.29-2.93-1.76c-7.11-3.2-14.64-4.7-22.37-5.29c-5.58-0.42-11.15-0.36-16.69,0.55c-2.42,0.4-4.82,0.87-7,2.1
			c-0.86,0.49-1.45,1.13-1.13,2.23c-0.11,2.03,0.19,4.05,0.31,6.07c0.28,5.06,0.6,10.12,0.9,15.17c-0.03,0.05-0.05,0.11-0.08,0.17
			c-0.42,0.48-0.82,0.99-1.26,1.45c-2.76,2.88-5.08,6.13-7.78,9.07c-0.86,0.94-1.82,1.83-2.42,3c-0.27,0.09-0.48,0.25-0.63,0.5
			C98.33,99.64,98.27,99.74,98.22,99.83C98.21,99.84,98.22,99.83,98.22,99.83z M60.56,163.45c0,2.94,0.02,5.89-0.01,8.83
			c-0.01,0.61,0.12,0.87,0.79,0.87c2.94-0.03,5.89-0.02,8.83-0.01c0.42,0,0.74-0.08,0.72-0.55c-0.06-1.46,0.55-2.85,0.47-4.31
			c-0.07-1.3-0.14-2.61-0.22-3.91c-0.2-3.16-0.41-6.33-0.6-9.49c-0.03-0.53-0.24-0.71-0.78-0.72c-2.8-0.05-5.59-0.13-8.38-0.25
			c-0.67-0.03-0.83,0.16-0.82,0.81C60.58,157.63,60.56,160.54,60.56,163.45z M94.98,132.26c1.18,0.41,2.48,0.86,3.77,1.3
			c0.44,0.15,0.21,0.36,0.07,0.58c-0.61,0.97-1.2,1.95-1.8,2.92c-0.53,0.85-0.68,1.65-0.23,2.66c1.32,2.98,2.55,5.99,3.73,9.03
			c0.35,0.9,0.82,1.12,1.71,1.1c0.82-0.02,0.89-0.21,0.68-0.96c-0.96-3.28-1.82-6.58-2.8-9.85c-0.26-0.85-0.21-1.71,0.07-2.37
			c0.75-1.75,1.11-3.6,1.75-5.37c0.23-0.63,0.09-0.78-0.56-0.77c-2.82,0.03-5.63,0.04-8.45,0c-0.76-0.01-0.91,0.22-0.91,0.94
			c0.03,5.34,0.02,10.68,0.02,16.01c0,2.38,0,2.33,2.43,2.35c0.88,0.01,1.02-0.29,0.98-1.07c-0.18-3.56-0.33-7.13-0.44-10.69
			C94.93,136.16,94.98,134.23,94.98,132.26z M142.69,165.08c0.08,0,0.16,0,0.24,0c0-3.04-0.01-6.08,0-9.12
			c0.01-2.14,0.02-2.11-2.13-2.08c-0.55,0.01-0.66,0.21-0.67,0.69c-0.12,4.77-0.28,9.54-0.4,14.31c-0.05,1.74-0.02,1.73-1.7,1.26
			c-0.6-0.17-0.89-0.39-0.88-1.11c0.01-2.27-0.27-4.53-0.27-6.81c0-2.19-0.17-4.38-0.24-6.57c-0.05-1.75-0.03-1.72-1.77-1.76
			c-0.59-0.01-0.72,0.15-0.71,0.7c0.02,5.73,0.03,11.46,0,17.19c0,0.7,0.23,0.83,0.84,0.81c0.98-0.04,1.96-0.02,2.95-0.02
			c1.58,0,1.58,0,1.58,1.59c0,2.1,0,2.08,2.08,2.08c0.59,0,0.75-0.13,0.77-0.75C142.44,172,142.58,168.54,142.69,165.08z
			 M123.97,155.56c1.28,0.43,2.45,0.8,3.6,1.24c0.3,0.11,0.51,0.34,0.27,0.84c-0.55,1.15-1.29,2.19-1.95,3.27
			c-0.31,0.51-0.41,0.94-0.17,1.54c1.19,2.97,2.39,5.93,3.43,8.96c0.39,1.13,0.96,1.4,2.03,1.3c0.55-0.05,0.67-0.16,0.53-0.69
			c-0.64-2.46-1.28-4.93-1.85-7.41c-0.35-1.52-1.06-2.99-0.38-4.67c0.69-1.68,1.09-3.49,1.64-5.23c0.18-0.57,0.26-0.86-0.56-0.84
			c-2.78,0.06-5.57,0.06-8.35,0c-0.79-0.01-0.97,0.2-0.97,0.97c0.04,5.08,0.01,10.15,0.02,15.23c0,0.84-0.28,2.03,0.15,2.44
			c0.57,0.54,1.74,0.09,2.64,0.18c0.55,0.05,0.57-0.2,0.55-0.63c-0.08-1.57-0.13-3.14-0.18-4.71
			C124.27,163.47,124.12,159.58,123.97,155.56z M104.59,171.41c-0.07-0.2-0.13-0.35-0.16-0.51c-0.87-4.71-1.75-9.42-2.61-14.14
			c-0.41-2.25-0.39-2.25-2.67-2.44c-0.19-0.02-0.4-0.01-0.58-0.06c-0.54-0.14-0.71-0.02-0.56,0.57c0.2,0.86,0.31,1.73,0.47,2.6
			c0.91,5.07,1.83,10.14,2.73,15.22c0.07,0.42,0.25,0.56,0.62,0.56c1.67,0,3.34,0,5.01,0c0.23,0,0.56,0.01,0.51-0.28
			c-0.09-0.48,0.15-0.88,0.2-1.32c0.29-2.54,0.6-5.09,0.9-7.63c0.36-3.08,0.7-6.17,1.06-9.25c0.07-0.59,0-0.93-0.74-0.79
			c-0.7,0.13-1.43,0.2-2.14,0.21c-0.74,0.01-0.99,0.26-0.97,1.04c0.12,4.71,0.16,9.42,0.28,14.13
			C105.95,170.37,105.75,171.12,104.59,171.41z M77.25,171.44c0-2.8,0-5.51,0-8.22c0-0.44,0.17-0.5,0.53-0.33
			c0.65,0.3,1.31,0.6,1.96,0.89c0.4,0.19,0.61,0.08,0.65-0.38c0.06-0.75,0.13-1.5,0.24-2.24c0.07-0.5-0.08-0.69-0.61-0.7
			c-0.75-0.01-1.5-0.13-2.25-0.2c-0.26-0.02-0.49,0-0.54-0.38c-0.16-1.28-0.41-2.54-0.4-3.93c1.16,0.49,2.22,0.95,3.34,1.42
			c0.07-0.99,0.11-1.87,0.21-2.75c0.06-0.55-0.1-0.74-0.68-0.73c-1.77,0.04-3.54,0.03-5.3,0c-0.55-0.01-0.71,0.14-0.7,0.7
			c0.06,3.57,0.08,7.13,0.11,10.7c0.03,2.39,0.07,4.78,0.1,7.17c0.01,0.38-0.11,0.78,0.55,0.77c1.83-0.03,3.67-0.01,5.5-0.01
			c0.26,0,0.59,0.03,0.6-0.34c0.02-1.06,0.01-2.11,0.01-3.23C79.25,170.17,78.25,170.82,77.25,171.44z M118.3,147.88
			c0-2.45,0-4.77,0-7.09c0-1.34,0-1.34,1.18-0.81c1.79,0.8,1.79,0.8,2.05-1.1c0.23-1.7,0.23-1.7-1.49-1.83
			c-1.75-0.13-1.75-0.13-1.93-1.83c-0.09-0.83-0.21-1.67-0.33-2.68c1.05,0.46,1.98,0.85,2.89,1.28c0.45,0.21,0.64,0.21,0.63-0.37
			c-0.02-0.72-0.02-1.45,0.09-2.16c0.1-0.68-0.18-0.75-0.74-0.74c-1.7,0.03-3.41,0.04-5.11,0c-0.6-0.01-0.79,0.14-0.76,0.75
			c0.08,2.03,0.1,4.06,0.13,6.08c0.06,3.89,0.12,7.79,0.17,11.68c0.01,0.49,0.05,0.79,0.68,0.77c1.8-0.04,3.6-0.02,5.4-0.01
			c0.38,0,0.62-0.05,0.61-0.52c-0.02-1-0.01-1.99-0.01-3.04C120.48,146.65,119.54,147.44,118.3,147.88z M115.41,162.77
			c0.95,0.18,1.68,0.64,2.45,0.97c0.57,0.24,0.67,0.1,0.69-0.44c0.03-0.68,0.1-1.37,0.24-2.04c0.14-0.67-0.15-0.78-0.71-0.8
			c-0.72-0.03-1.43-0.13-2.15-0.2c-0.25-0.02-0.52,0.02-0.55-0.38c-0.08-1.28-0.43-2.55-0.37-3.93c1.14,0.49,2.2,0.95,3.35,1.44
			c0.06-1.03,0.09-1.9,0.17-2.78c0.05-0.54-0.1-0.74-0.7-0.72c-1.73,0.05-3.47,0.05-5.21,0c-0.65-0.02-0.85,0.17-0.81,0.82
			c0.1,1.37,0.15,2.75,0.18,4.12c0.09,4.55,0.16,9.1,0.22,13.65c0.01,0.52,0.17,0.68,0.67,0.67c1.05-0.03,2.1,0.02,3.14-0.02
			c0.91-0.03,2.09,0.4,2.66-0.16c0.61-0.6,0.12-1.79,0.2-2.73c0-0.03,0-0.07,0.01-0.1c0.05-0.58-0.17-0.6-0.62-0.34
			c-0.71,0.4-1.46,0.73-2.17,1.13c-0.56,0.32-0.71,0.19-0.71-0.44C115.42,167.94,115.41,165.39,115.41,162.77z M108.99,147.9
			c0-2.75,0.02-5.36-0.02-7.97c-0.01-0.69,0.25-0.49,0.63-0.35c0.8,0.3,1.53,0.82,2.41,0.98c0.14-0.97,0.24-1.88,0.4-2.77
			c0.07-0.42-0.04-0.6-0.47-0.64c-0.75-0.07-1.49-0.16-2.25-0.09c-0.38,0.03-0.72,0.01-0.77-0.51c-0.13-1.3-0.28-2.59-0.43-3.96
			c0.41,0.15,0.74,0.28,1.08,0.4c0.77,0.28,1.67,1.2,2.24,0.78c0.54-0.39,0.17-1.59,0.27-2.43c0.08-0.68-0.19-0.82-0.8-0.8
			c-1.7,0.04-3.4,0.04-5.1,0c-0.58-0.01-0.71,0.19-0.69,0.73c0.05,1.63,0.05,3.27,0.07,4.9c0.07,4.25,0.14,8.5,0.22,12.75
			c0.01,0.39-0.15,0.9,0.56,0.9c1.86-0.01,3.73-0.01,5.59,0c0.37,0,0.53-0.09,0.53-0.49c-0.02-1-0.01-2-0.01-3.15
			C111.24,146.78,110.17,147.31,108.99,147.9z M69.18,145.48c0,1.14,0.03,2.15-0.01,3.15c-0.02,0.55,0.13,0.73,0.7,0.71
			c1.64-0.04,3.27-0.01,4.91-0.02c1.57-0.01,1.66-0.01,1.81-1.57c0.14-1.46,0.67-2.89-0.04-4.41c-1.03-2.18-1.88-4.44-2.79-6.68
			c-0.56-1.36-1.08-2.73-1.67-4.21c1.56,0.51,2.81,1.37,4.34,1.69c0-1.05-0.02-2.03,0.01-3c0.02-0.5-0.19-0.61-0.63-0.6
			c-1.83,0.01-3.67,0.01-5.5,0c-0.31,0-0.54,0.02-0.61,0.43c-0.29,1.72-0.87,3.43,0.15,5.12c0.26,0.43,0.53,0.92,0.66,1.37
			c0.57,2.1,1.52,4.05,2.26,6.09c0.51,1.41,1.07,2.8,1.68,4.37C72.59,147.06,70.94,146.3,69.18,145.48z M82.71,132.62
			c0.12,5.17,0.24,10.18,0.33,15.18c0.04,2.03,0.02,2.01,2.02,2.02c0.65,0.01,0.89-0.11,0.89-0.84c0.02-4.72,0.08-9.43,0.17-14.15
			c0.01-0.76-0.33-2,0.18-2.18c0.68-0.24,1.52,0.59,2.18,1.08c0.75,0.56,0.85,0.15,0.92-0.42c0.08-0.61,0.03-1.23,0.2-1.84
			c0.18-0.63,0.05-0.99-0.79-0.96c-2.23,0.07-4.46,0.01-6.68,0.03c-0.91,0.01-2.1-0.4-2.65,0.17c-0.55,0.56-0.09,1.75-0.17,2.66
			c-0.08,0.81,0.25,0.7,0.78,0.44C80.89,133.43,81.72,133.07,82.71,132.62z M134.01,134.14c0.14-1.07,0.25-2.04,0.41-3.01
			c0.07-0.42-0.02-0.59-0.48-0.59c-3.11,0.01-6.23,0-9.34,0.01c-0.22,0-0.52-0.05-0.52,0.29c0.01,1.04-0.13,2.08,0.08,3.12
			c0.82-0.02,1.43-0.58,2.17-0.83c0.09-0.03,0.18-0.08,0.27-0.13c0.73-0.44,0.92-0.17,0.93,0.61c0.08,4.78,0.19,9.56,0.29,14.34
			c0.04,1.88,0.05,1.85,1.98,1.89c0.7,0.01,0.96-0.12,0.96-0.9c-0.02-3.31,0.04-6.62,0.05-9.92c0.01-2.17,0-4.34,0-6.7
			C132.04,133.02,132.99,133.56,134.01,134.14z M89.37,169.44c-0.84,0.44-1.67,0.81-2.44,1.29c-0.75,0.47-0.84,0.18-0.81-0.53
			c0.07-1.76,0.1-3.53,0.14-5.29c0.04-1.62-0.14-3.25-0.07-4.85c0.06-1.28,0.14-2.59,0.23-3.88c0.16-2.28,0.12-2.28-2.13-2.28
			c-0.2,0-0.4,0.02-0.59,0c-0.45-0.05-0.62,0.09-0.62,0.59c0,6.02-0.03,12.05-0.05,18.07c0,0.43,0.08,0.68,0.58,0.67
			c1.87-0.02,3.73-0.01,5.6,0c0.36,0,0.59-0.1,0.53-0.5C89.58,171.66,89.68,170.57,89.37,169.44z M95.62,163.57
			c0-2.94-0.02-5.89,0.01-8.83c0.01-0.63-0.12-0.91-0.81-0.79c-0.71,0.12-1.43,0.2-2.14,0.2c-0.49,0-0.59,0.19-0.58,0.63
			c0.01,5.92,0.01,11.84-0.01,17.76c0,0.5,0.14,0.71,0.66,0.69c0.69-0.03,1.38-0.06,2.06,0c0.68,0.06,0.83-0.2,0.82-0.83
			C95.61,169.45,95.62,166.51,95.62,163.57z"/>
		<path fill="#F5CB34" d="M159.63,68.56c0.32,0.57,0.56,1.07-0.31,1.45c-0.65,0.29-0.98,1.04-1.16,1.63
			c-0.26,0.84-0.97,1.4-1.15,2.21c-0.2,0.93-1.08,1.28-1.54,2c-1.01,1.56-1.88,3.21-2.96,4.72c-1.93,2.67-3.3,5.68-5.1,8.42
			c-1.71,2.6-2.89,5.53-4.78,7.99c-0.86,1.12-1.63,2.3-2.33,3.48c-0.67,1.11-1.2,2.33-1.9,3.45c-1.29,2.04-2.63,4.06-3.78,6.19
			c-0.2,0.36-0.42,0.73-0.84,0.9c-0.05-0.09-0.09-0.19-0.14-0.28c0.05-0.27-0.12-0.4-0.29-0.57c-0.93-0.95-1.87-1.9-2.77-2.89
			c-1.45-1.59-2.86-3.22-4.31-4.8c-1.64-1.8-3.36-3.53-4.95-5.37c-1.71-1.98-3.58-3.81-5.26-5.83c-1.14-1.37-2.43-2.63-3.62-3.98
			c-0.57-0.65-1.08-1.41-1.95-1.74c0.03-0.05,0.05-0.11,0.08-0.16c1.08-0.36,2.19-0.66,3.24-1.08c3.7-1.5,7.55-2.55,11.27-4
			c3.26-1.27,6.55-2.47,9.92-3.46c3.29-0.96,6.44-2.38,9.68-3.49c1.08-0.37,2.12-0.77,3.11-1.31c1.73-0.31,3.47-0.56,5.18-0.95
			C155.29,70.54,157.66,70.06,159.63,68.56z"/>
		<path fill="#48183B" d="M159.63,68.56c-1.97,1.5-4.33,1.98-6.66,2.51c-1.71,0.39-3.46,0.64-5.18,0.95c-0.36,0-0.72-0.03-1.07,0
			c-3.57,0.28-7.14,0.38-10.72,0.15c-4.11-0.27-8.17-0.84-12.2-1.74c-2.07-0.46-4.1-1.01-6.08-1.73c-3.02-1.1-5.96-2.36-8.37-4.59
			c-0.32-1.1,0.27-1.74,1.13-2.23c2.17-1.23,4.57-1.7,7-2.1c5.54-0.91,11.11-0.97,16.69-0.55c7.73,0.58,15.25,2.09,22.37,5.29
			c1.04,0.47,2.05,1,2.93,1.76C160.5,67.18,160.53,67.51,159.63,68.56z"/>
		<path fill="#BD2256" d="M133.62,110.7c0.05,0.09,0.09,0.19,0.14,0.28c-3.76,0.96-7.51,1.94-11.27,2.88
			c-8.38,2.1-16.77,4.19-25.15,6.26c-0.43,0.11-0.86,0.34-1.34,0.2c0.02-2.04,0.12-4.08,0.26-6.12c0.26-4,0.53-8.01,0.7-12.03
			c0.04-0.86-0.16-1.07-0.93-0.95c0.71-0.09,1.34-0.35,1.81-0.92c-0.23,0.63,0.36,0.92,0.67,1.09c0.4,0.22,0.98,0.12,1.5,0.16
			c-0.25,0.23-0.82-0.11-0.81,0.34c0.01,0.55,0.56,0.28,0.86,0.31c0.71,0.09,1.45,0.01,2.14,0.18c1.78,0.43,3.55,0.92,5.29,1.47
			c1.47,0.46,3.01,0.58,4.49,1.12c2.21,0.81,4.55,1.28,6.79,2.03c0.7,0.23,1.44,0.15,2.07,0.41c1.42,0.59,2.95,0.71,4.4,1.16
			c1.06,0.33,2.13,0.61,3.2,0.88C130.14,109.91,131.82,110.54,133.62,110.7z"/>
		<path fill="#E98233" d="M133.62,110.7c-1.79-0.17-3.48-0.8-5.21-1.24c-1.07-0.27-2.14-0.56-3.2-0.88
			c-1.45-0.45-2.97-0.58-4.4-1.16c-0.63-0.26-1.37-0.18-2.07-0.41c-2.24-0.75-4.58-1.21-6.79-2.03c-1.47-0.54-3.01-0.65-4.49-1.12
			c-1.74-0.55-3.51-1.03-5.29-1.47c-0.69-0.17-1.43-0.09-2.14-0.18c-0.3-0.04-0.85,0.23-0.86-0.31c-0.01-0.45,0.56-0.12,0.81-0.34
			c-0.52-0.04-1.1,0.06-1.5-0.16c-0.31-0.17-0.9-0.46-0.67-1.09c0.05-0.1,0.11-0.21,0.16-0.31c0,0,0,0,0,0
			c0.08-0.06,0.16-0.12,0.24-0.18c0,0-0.01,0.01-0.01,0.01c0.06-0.1,0.12-0.2,0.18-0.29c0.29-0.07,0.56-0.16,0.63-0.51
			c0.59-1.17,1.56-2.06,2.42-3c2.7-2.94,5.02-6.19,7.78-9.07c0.44-0.46,0.84-0.97,1.26-1.45c0.87,0.33,1.38,1.09,1.95,1.74
			c1.19,1.34,2.48,2.6,3.62,3.98c1.68,2.02,3.55,3.85,5.26,5.83c1.59,1.84,3.31,3.57,4.95,5.37c1.45,1.59,2.86,3.22,4.31,4.8
			c0.9,0.99,1.83,1.94,2.77,2.89C133.5,110.3,133.67,110.44,133.62,110.7z"/>
		<path fill="#909D46" d="M109.34,64.11c2.41,2.23,5.35,3.49,8.37,4.59c1.98,0.72,4.02,1.27,6.08,1.73
			c4.02,0.89,8.09,1.47,12.2,1.74c3.58,0.23,7.15,0.13,10.72-0.15c0.36-0.03,0.72,0,1.07,0c-0.99,0.54-2.04,0.94-3.12,1.31
			c-3.25,1.11-6.39,2.53-9.68,3.49c-3.38,0.98-6.66,2.18-9.92,3.46c-3.72,1.45-7.57,2.51-11.27,4c-1.05,0.43-2.16,0.72-3.24,1.08
			c-0.3-5.06-0.62-10.12-0.9-15.17C109.53,68.16,109.23,66.15,109.34,64.11z"/>
		<path fill="#48183B" d="M96.02,101.24c0.76-0.12,0.96,0.09,0.93,0.95c-0.17,4.01-0.43,8.02-0.7,12.03
			c-0.13,2.04-0.24,4.08-0.26,6.12c-0.12-0.02-0.25-0.04-0.38-0.06c0,0,0.01-0.03,0.01-0.03l-0.02,0.03
			c-0.08-0.06-0.17-0.11-0.25-0.17c-0.93-0.73-1.96-1.36-2.85-2.11c-3.31-2.81-6.96-5.16-10.31-7.91c-1.18-0.97-2.43-1.87-3.65-2.8
			c-0.64-0.43-0.72-0.84-0.02-1.32c0.4-0.27,0.72-0.67,1.13-0.93c1.03-0.65,1.6-1.98,3.01-2.08
			C87.12,102.38,91.57,101.81,96.02,101.24z"/>
		<path fill="#48183B" d="M60.56,163.45c0-2.91,0.02-5.82-0.01-8.74c-0.01-0.65,0.15-0.84,0.82-0.81c2.79,0.12,5.59,0.2,8.38,0.25
			c0.55,0.01,0.75,0.19,0.78,0.72c0.19,3.16,0.4,6.33,0.6,9.49c0.08,1.3,0.15,2.61,0.22,3.91c0.08,1.46-0.52,2.85-0.47,4.31
			c0.02,0.47-0.3,0.56-0.72,0.55c-2.94-0.01-5.89-0.02-8.83,0.01c-0.67,0.01-0.79-0.26-0.79-0.87
			C60.58,169.34,60.56,166.4,60.56,163.45z M63.94,171.68c1.94-0.46,3.57-1.42,5.33-1.98c0.65-0.21,0.37-0.59,0.29-0.92
			c-0.71-3.15-1.61-6.27-2.09-9.45c-0.33-2.17-1.22-3.33-3.39-3.48c-0.03,0-0.06-0.02-0.09-0.04c-0.59-0.24-0.74,0.01-0.7,0.58
			c0.08,1.04,0.12,2.09,0.17,3.13C63.62,163.55,63.77,167.57,63.94,171.68z"/>
		<path fill="#48183B" d="M62.8,110.9c0.31-0.84,0.97-1.47,1.35-2.26c1.15-1.9,2.31-3.81,3.46-5.71c0.8-1.13,1.67-2.21,2.16-3.53
			c0.99-1.02,1.54-2.34,2.36-3.47l0.09,0.01l0.09-0.01c0.18,0.05,0.37,0.13,0.56,0.15c4.33,0.36,8.66,0.69,12.98,1.07
			c0.83,0.07,1.69-0.01,2.48,0.37c-0.09,0.06-0.18,0.12-0.28,0.18c-1.39,0.73-2.82,1.38-4.22,2.07c-3.37,1.67-6.61,3.59-9.99,5.25
			c-3.22,1.59-6.25,3.54-9.52,5.03c-0.63,0.29-1.22,0.81-1.09,1.69C62.74,111.65,62.95,111.18,62.8,110.9z"/>
		<path fill="#48183B" d="M94.98,132.26c0,1.97-0.05,3.89,0.01,5.81c0.11,3.57,0.26,7.13,0.44,10.69c0.04,0.78-0.1,1.07-0.98,1.07
			c-2.43-0.02-2.43,0.03-2.43-2.35c0-5.34,0.01-10.68-0.02-16.01c0-0.72,0.15-0.95,0.91-0.94c2.82,0.05,5.63,0.03,8.45,0
			c0.65-0.01,0.79,0.14,0.56,0.77c-0.64,1.77-1.01,3.62-1.75,5.37c-0.28,0.66-0.33,1.52-0.07,2.37c0.99,3.27,1.84,6.58,2.8,9.85
			c0.22,0.74,0.14,0.94-0.68,0.96c-0.89,0.02-1.36-0.2-1.71-1.1c-1.17-3.04-2.41-6.05-3.73-9.03c-0.45-1.01-0.3-1.81,0.23-2.66
			c0.61-0.97,1.2-1.95,1.8-2.92c0.14-0.22,0.37-0.43-0.07-0.58C97.45,133.12,96.16,132.67,94.98,132.26z"/>
		<path fill="#48183B" d="M142.69,165.08c-0.11,3.46-0.25,6.92-0.32,10.38c-0.01,0.62-0.18,0.75-0.77,0.75
			c-2.07,0-2.07,0.02-2.08-2.08c0-1.59,0-1.59-1.58-1.59c-0.98,0-1.96-0.02-2.95,0.02c-0.61,0.02-0.84-0.11-0.84-0.81
			c0.03-5.73,0.02-11.46,0-17.19c0-0.56,0.13-0.72,0.71-0.7c1.74,0.04,1.72,0.01,1.77,1.76c0.06,2.19,0.24,4.38,0.24,6.57
			c0,2.28,0.27,4.54,0.27,6.81c0,0.72,0.29,0.94,0.88,1.11c1.69,0.47,1.66,0.49,1.7-1.26c0.12-4.77,0.27-9.54,0.4-14.31
			c0.01-0.48,0.12-0.68,0.67-0.69c2.15-0.04,2.14-0.06,2.13,2.08c-0.01,3.04,0,6.08,0,9.12
			C142.85,165.08,142.77,165.08,142.69,165.08z"/>
		<path fill="#48183B" d="M123.97,155.56c0.15,4.02,0.3,7.91,0.45,11.8c0.06,1.57,0.11,3.14,0.18,4.71
			c0.02,0.43-0.01,0.69-0.55,0.63c-0.9-0.09-2.07,0.36-2.64-0.18c-0.43-0.41-0.15-1.6-0.15-2.44c-0.01-5.08,0.01-10.15-0.02-15.23
			c-0.01-0.77,0.18-0.99,0.97-0.97c2.78,0.05,5.57,0.05,8.35,0c0.82-0.02,0.74,0.28,0.56,0.84c-0.55,1.74-0.95,3.54-1.64,5.23
			c-0.69,1.68,0.03,3.15,0.38,4.67c0.57,2.48,1.21,4.94,1.85,7.41c0.14,0.53,0.02,0.64-0.53,0.69c-1.07,0.1-1.64-0.17-2.03-1.3
			c-1.04-3.02-2.24-5.99-3.43-8.96c-0.24-0.6-0.14-1.03,0.17-1.54c0.66-1.08,1.4-2.12,1.95-3.27c0.24-0.5,0.03-0.72-0.27-0.84
			C126.42,156.36,125.25,156,123.97,155.56z"/>
		<path fill="#48183B" d="M104.59,171.41c1.16-0.28,1.35-1.04,1.33-2.07c-0.13-4.71-0.16-9.42-0.28-14.13
			c-0.02-0.78,0.23-1.03,0.97-1.04c0.72-0.01,1.44-0.08,2.14-0.21c0.74-0.14,0.81,0.2,0.74,0.79c-0.36,3.08-0.7,6.17-1.06,9.25
			c-0.29,2.54-0.6,5.09-0.9,7.63c-0.05,0.44-0.29,0.84-0.2,1.32c0.05,0.29-0.27,0.28-0.51,0.28c-1.67,0-3.34,0-5.01,0
			c-0.38,0-0.55-0.14-0.62-0.56c-0.89-5.08-1.81-10.15-2.73-15.22c-0.16-0.87-0.26-1.75-0.47-2.6c-0.14-0.59,0.02-0.72,0.56-0.57
			c0.19,0.05,0.39,0.04,0.58,0.06c2.28,0.19,2.26,0.19,2.67,2.44c0.86,4.71,1.74,9.42,2.61,14.14
			C104.46,171.06,104.53,171.21,104.59,171.41z"/>
		<path fill="#F5CB34" d="M72.32,95.92l-0.09,0.01c0,0-0.09-0.01-0.09-0.01c-0.02-3.99-0.03-7.98-0.07-11.97
			c0-0.39,0.2-0.87-0.27-1.16c0.02-0.06,0.03-0.11,0.05-0.17c0.1,0,0.22,0.05,0.28,0c2.3-1.66,4.6-3.34,6.89-5.01
			c0.34-0.24,0.61-0.6,1.1-0.55c0.95,0.35,0.81,1.37,1.23,2.06c0.54,0.9,0.68,1.99,1.34,2.86c0.37,0.49,0.25,1.2,0.57,1.8
			c1.34,2.47,1.94,5.23,3.06,7.8c0.62,1.43,1.28,2.87,1.77,4.36c0.07,0.23,0.18,0.42,0.02,0.64c-1.22-0.47-2.07-1.46-2.97-2.31
			c-1.94-1.82-4-3.51-5.9-5.38c-1.88-1.85-4.22-3.18-5.94-5.21c-0.21-0.24-0.47-0.37-0.79-0.23c-0.31,0.14-0.22,0.45-0.22,0.69
			C72.3,88.07,72.31,91.99,72.32,95.92z"/>
		<path fill="#E98233" d="M72.32,95.92c-0.01-3.92-0.02-7.85-0.02-11.77c0-0.24-0.1-0.56,0.22-0.69c0.31-0.14,0.58-0.01,0.79,0.23
			c1.72,2.03,4.06,3.36,5.94,5.21c1.9,1.86,3.95,3.56,5.9,5.38c0.9,0.84,1.75,1.83,2.97,2.31c0.12,0.3,0.51,0.54,0.23,0.94
			c-0.79-0.39-1.65-0.3-2.48-0.37c-4.33-0.38-8.66-0.71-12.98-1.07C72.69,96.05,72.51,95.97,72.32,95.92z"/>
		<path fill="#BD2256" d="M63.25,111.74c-0.13-0.88,0.46-1.41,1.09-1.69c3.28-1.49,6.3-3.45,9.52-5.03
			c3.38-1.66,6.62-3.58,9.99-5.25c1.4-0.7,2.83-1.34,4.22-2.07c-1.75,1.53-3.5,3.05-5.24,4.6c-0.15,0.14-0.91,0.26-0.15,0.66
			c-1.41,0.1-1.98,1.42-3.02,2.08c-0.41,0.26-0.72,0.66-1.13,0.93c-0.7,0.47-0.62,0.89,0.02,1.32c-0.57,0.11-1.12-0.07-1.73,0.36
			c-1.07,0.76-1.71,1.99-2.94,2.52c-0.87,0.38-1.15,1.45-2.1,1.73c-1.02-0.06-1.3,0.93-1.91,1.41c-1.64,1.28-3.17,2.7-4.75,4.06
			c-0.18,0.16-0.39,0.39-0.68,0.15c0.38-0.86-0.76-1.57-0.22-2.45c-1.01-0.42-0.43-1.33-0.63-2
			C63.46,112.62,63.81,112.06,63.25,111.74z"/>
		<path fill="#48183B" d="M77.25,171.44c0.99-0.62,2-1.27,3.3-1.79c0,1.12,0.02,2.18-0.01,3.23c-0.01,0.37-0.34,0.34-0.6,0.34
			c-1.83,0-3.67-0.02-5.5,0.01c-0.65,0.01-0.54-0.39-0.55-0.77c-0.03-2.39-0.07-4.78-0.1-7.17c-0.04-3.57-0.05-7.13-0.11-10.7
			c-0.01-0.57,0.15-0.71,0.7-0.7c1.77,0.03,3.54,0.04,5.3,0c0.58-0.01,0.74,0.18,0.68,0.73c-0.09,0.88-0.13,1.76-0.21,2.75
			c-1.12-0.48-2.18-0.93-3.34-1.42c-0.02,1.38,0.24,2.65,0.4,3.93c0.05,0.39,0.28,0.36,0.54,0.38c0.75,0.07,1.5,0.18,2.25,0.2
			c0.53,0.01,0.68,0.2,0.61,0.7c-0.1,0.74-0.17,1.49-0.24,2.24c-0.04,0.46-0.24,0.57-0.65,0.38c-0.65-0.3-1.31-0.59-1.96-0.89
			c-0.36-0.17-0.53-0.11-0.53,0.33C77.26,165.93,77.25,168.64,77.25,171.44z"/>
		<path fill="#48183B" d="M118.3,147.88c1.24-0.44,2.18-1.23,3.45-1.62c0,1.05-0.02,2.05,0.01,3.04c0.01,0.47-0.23,0.52-0.61,0.52
			c-1.8-0.01-3.6-0.03-5.4,0.01c-0.62,0.01-0.67-0.28-0.68-0.77c-0.05-3.89-0.11-7.79-0.17-11.68c-0.03-2.03-0.05-4.06-0.13-6.08
			c-0.02-0.62,0.16-0.77,0.76-0.75c1.7,0.04,3.41,0.03,5.11,0c0.56-0.01,0.84,0.07,0.74,0.74c-0.11,0.71-0.11,1.44-0.09,2.16
			c0.01,0.58-0.18,0.59-0.63,0.37c-0.91-0.43-1.83-0.81-2.89-1.28c0.13,1.01,0.24,1.85,0.33,2.68c0.19,1.7,0.18,1.7,1.93,1.83
			c1.72,0.13,1.72,0.13,1.49,1.83c-0.26,1.9-0.26,1.9-2.05,1.1c-1.18-0.53-1.18-0.53-1.18,0.81
			C118.3,143.11,118.3,145.43,118.3,147.88z"/>
		<path fill="#48183B" d="M115.41,162.77c0,2.62,0.02,5.17-0.01,7.73c-0.01,0.64,0.15,0.76,0.71,0.44c0.71-0.4,1.46-0.73,2.17-1.13
			c0.46-0.26,0.67-0.25,0.62,0.34c0,0.03,0,0.07-0.01,0.1c-0.08,0.93,0.41,2.13-0.2,2.73c-0.57,0.56-1.75,0.13-2.66,0.16
			c-1.05,0.03-2.1-0.01-3.14,0.02c-0.5,0.01-0.66-0.15-0.67-0.67c-0.05-4.55-0.13-9.1-0.22-13.65c-0.03-1.37-0.08-2.75-0.18-4.12
			c-0.05-0.65,0.16-0.84,0.81-0.82c1.73,0.04,3.47,0.04,5.21,0c0.59-0.02,0.74,0.18,0.7,0.72c-0.08,0.88-0.11,1.75-0.17,2.78
			c-1.15-0.49-2.2-0.95-3.35-1.44c-0.06,1.39,0.29,2.65,0.37,3.93c0.03,0.4,0.3,0.35,0.55,0.38c0.72,0.07,1.43,0.17,2.15,0.2
			c0.56,0.02,0.85,0.13,0.71,0.8c-0.14,0.67-0.2,1.36-0.24,2.04c-0.03,0.54-0.12,0.68-0.69,0.44
			C117.09,163.41,116.36,162.95,115.41,162.77z"/>
		<path fill="#48183B" d="M108.99,147.9c1.18-0.59,2.25-1.12,3.45-1.71c0,1.15-0.01,2.15,0.01,3.15c0.01,0.39-0.16,0.49-0.53,0.49
			c-1.86-0.02-3.73-0.02-5.59,0c-0.71,0-0.55-0.51-0.56-0.9c-0.08-4.25-0.15-8.5-0.22-12.75c-0.03-1.63-0.03-3.27-0.07-4.9
			c-0.02-0.53,0.11-0.74,0.69-0.73c1.7,0.04,3.4,0.03,5.1,0c0.62-0.01,0.88,0.13,0.8,0.8c-0.1,0.84,0.27,2.04-0.27,2.43
			c-0.57,0.41-1.47-0.5-2.24-0.78c-0.33-0.12-0.66-0.25-1.08-0.4c0.15,1.37,0.3,2.66,0.43,3.96c0.05,0.51,0.38,0.54,0.77,0.51
			c0.75-0.07,1.5,0.02,2.25,0.09c0.43,0.04,0.54,0.22,0.47,0.64c-0.15,0.9-0.26,1.8-0.4,2.77c-0.88-0.17-1.6-0.69-2.41-0.98
			c-0.38-0.14-0.64-0.34-0.63,0.35C109.01,142.54,108.99,145.15,108.99,147.9z"/>
		<path fill="#48183B" d="M69.18,145.48c1.76,0.81,3.41,1.58,5.26,2.43c-0.6-1.57-1.17-2.96-1.68-4.37
			c-0.74-2.03-1.68-3.99-2.26-6.09c-0.12-0.45-0.4-0.94-0.66-1.37c-1.02-1.69-0.44-3.4-0.15-5.12c0.07-0.41,0.3-0.43,0.61-0.43
			c1.83,0.01,3.67,0.01,5.5,0c0.44,0,0.65,0.11,0.63,0.6c-0.04,0.98-0.01,1.96-0.01,3c-1.53-0.33-2.78-1.19-4.34-1.69
			c0.58,1.48,1.11,2.85,1.67,4.21c0.91,2.23,1.76,4.5,2.79,6.68c0.71,1.51,0.18,2.95,0.04,4.41c-0.15,1.56-0.24,1.56-1.81,1.57
			c-1.64,0.01-3.27-0.02-4.91,0.02c-0.57,0.01-0.72-0.17-0.7-0.71C69.21,147.63,69.18,146.62,69.18,145.48z"/>
		<path fill="#909D46" d="M71.78,111.88c0.95-0.27,1.23-1.35,2.1-1.73c1.23-0.54,1.87-1.77,2.94-2.52c0.61-0.43,1.16-0.25,1.73-0.36
			c1.22,0.93,2.46,1.83,3.65,2.8c3.35,2.75,7,5.1,10.31,7.91c0.88,0.75,1.92,1.38,2.85,2.11c-1.83-0.05-3.39-0.97-5.03-1.58
			c-3.06-1.15-6.16-2.18-9.23-3.28C77.98,114.13,74.88,113,71.78,111.88z"/>
		<path fill="#48183B" d="M82.71,132.62c-0.98,0.45-1.82,0.8-2.63,1.2c-0.53,0.26-0.86,0.36-0.78-0.44
			c0.09-0.91-0.37-2.09,0.17-2.66c0.55-0.57,1.74-0.16,2.65-0.17c2.23-0.02,4.46,0.04,6.68-0.03c0.84-0.03,0.97,0.33,0.79,0.96
			c-0.17,0.61-0.12,1.23-0.2,1.84c-0.07,0.56-0.17,0.97-0.92,0.42c-0.66-0.49-1.5-1.33-2.18-1.08c-0.51,0.18-0.17,1.42-0.18,2.18
			c-0.08,4.72-0.15,9.43-0.17,14.15c0,0.73-0.24,0.84-0.89,0.84c-2-0.02-1.98,0.01-2.02-2.02C82.94,142.8,82.82,137.8,82.71,132.62z
			"/>
		<path fill="#E98233" d="M55.98,100.68c0.18-1.62,0.71-3.16,1.06-4.74c1.1-4.86,2.29-9.69,3.42-14.54
			c0.31-1.36,0.91-2.65,0.96-4.07c0.01-0.21,0.11-0.44,0.35-0.55c0.29,0.41,0.42,0.84,0.38,1.35c-0.04,0.6-0.01,1.21-0.01,1.82
			c0.06,0,0.12,0,0.17,0c0-0.88,0-1.75,0-2.63c0.06,0,0.12,0,0.18,0c0,0.91,0,1.83,0,2.74c0.06,0,0.12,0,0.19,0
			c0.03-0.51,0.06-1.01,0.09-1.52c0.15,3.37,0.15,6.75,0.15,10.12c0,0.29-0.05,0.76,0.1,0.84c1.15,0.63,0.55,1.58,0.46,2.41
			c-0.07,0.69-0.36,1.37,0.1,2.03c-0.01,0.16-0.02,0.32-0.04,0.48c-0.71,0.45-1.21,1.14-1.94,1.57c-1.26,0.75-2.36,1.75-3.37,2.8
			C57.54,99.51,56.88,100.22,55.98,100.68z"/>
		<path fill="#48183B" d="M134.01,134.14c-1.01-0.58-1.97-1.12-3.2-1.83c0,2.36,0.01,4.53,0,6.7c-0.02,3.31-0.08,6.62-0.05,9.92
			c0.01,0.78-0.26,0.91-0.96,0.9c-1.94-0.03-1.94,0-1.98-1.89c-0.1-4.78-0.22-9.56-0.29-14.34c-0.01-0.78-0.2-1.05-0.93-0.61
			c-0.08,0.05-0.17,0.1-0.27,0.13c-0.73,0.25-1.35,0.81-2.17,0.83c-0.2-1.03-0.06-2.08-0.08-3.12c0-0.33,0.3-0.29,0.52-0.29
			c3.11,0,6.23,0,9.34-0.01c0.46,0,0.55,0.17,0.48,0.59C134.26,132.1,134.15,133.07,134.01,134.14z"/>
		<path fill="#48183B" d="M89.37,169.44c0.3,1.13,0.21,2.22,0.38,3.28c0.06,0.4-0.17,0.5-0.53,0.5c-1.87-0.01-3.73-0.01-5.6,0
			c-0.5,0-0.59-0.24-0.58-0.67c0.03-6.02,0.05-12.05,0.05-18.07c0-0.5,0.16-0.64,0.62-0.59c0.19,0.02,0.39,0,0.59,0
			c2.25,0,2.29,0,2.13,2.28c-0.09,1.29-0.18,2.59-0.23,3.88c-0.07,1.6,0.11,3.23,0.07,4.85c-0.04,1.77-0.07,3.53-0.14,5.29
			c-0.03,0.71,0.06,1,0.81,0.53C87.7,170.26,88.53,169.88,89.37,169.44z"/>
		<path fill="#48183B" d="M95.62,163.57c0,2.94-0.02,5.89,0.01,8.83c0.01,0.63-0.14,0.89-0.82,0.83c-0.68-0.06-1.37-0.04-2.06,0
			c-0.52,0.02-0.67-0.18-0.66-0.69c0.02-5.92,0.02-11.84,0.01-17.76c0-0.44,0.09-0.63,0.58-0.63c0.72-0.01,1.44-0.08,2.14-0.2
			c0.69-0.12,0.82,0.17,0.81,0.79C95.61,157.68,95.62,160.62,95.62,163.57z"/>
		<path fill="#F5CB34" d="M55.98,100.68c0.89-0.46,1.56-1.17,2.25-1.89c1.01-1.05,2.11-2.04,3.37-2.8c0.73-0.44,1.23-1.13,1.94-1.57
			c1.27,1.2,2.76,2.12,4.06,3.31c0.65,0.6,1.3,1.32,2.17,1.67c-0.49,1.32-1.36,2.4-2.16,3.53c-0.58-0.09-1.15-0.17-1.73-0.26
			c-1.5-0.23-3.03-0.35-4.5-0.71c-1.74-0.42-3.51-0.59-5.27-0.87C55.92,101,55.88,100.86,55.98,100.68z"/>
		<path fill="#909D46" d="M80.11,77.06c-0.48-0.05-0.76,0.31-1.1,0.55c-2.3,1.67-4.59,3.34-6.89,5.01c-0.06,0.04-0.19,0-0.28,0
			c-0.21-0.67-0.92-0.77-1.36-1.18c-1.26-1.16-2.66-2.16-4-3.22c-1.09-0.86-2.19-1.73-3.32-2.55c-0.25-0.18-0.27-0.32-0.04-0.52
			c0.92-0.22,1.82,0.05,2.72,0.13c4.43,0.41,8.86,0.82,13.29,1.26C79.47,76.58,80.11,76.29,80.11,77.06z"/>
		<path fill="#F5CB34" d="M52.92,108.54c0.33,0,0.66-0.04,0.96,0.11c-0.1,0.35,0.13,0.52,0.37,0.71c1.66,1.3,3.33,2.59,4.95,3.93
			c1.62,1.35,3.39,2.53,4.85,4.07c-1.49-0.37-3-0.66-4.43-1.29c-1.23-0.54-2.5-0.99-3.82-1.35c-1.34-0.37-2.64-1.03-3.94-1.58
			c-0.79-0.33-1.73-0.3-2.37-1c0.08-0.23,0.31-0.31,0.47-0.46C51,110.7,52.21,109.86,52.92,108.54z"/>
		<path fill="#909D46" d="M56.11,101.09c1.76,0.28,3.53,0.44,5.27,0.87c1.47,0.36,3,0.48,4.5,0.71c0.58,0.09,1.15,0.17,1.73,0.26
			c-1.15,1.91-2.31,3.81-3.46,5.71c-0.11-0.9-0.95-1.18-1.5-1.67c-2.09-1.88-4.24-3.7-6.36-5.55
			C56.21,101.35,56.17,101.2,56.11,101.09z"/>
		<path fill="#BD2256" d="M63.58,93.94c-0.46-0.66-0.17-1.34-0.1-2.03c0.09-0.82,0.69-1.77-0.46-2.41c-0.14-0.08-0.1-0.55-0.1-0.84
			c-0.01-3.37,0-6.74-0.15-10.12c-0.03,0.51-0.06,1.01-0.09,1.52c-0.06,0-0.12,0-0.19,0c0-0.91,0-1.83,0-2.74c-0.06,0-0.12,0-0.18,0
			c0,0.88,0,1.75,0,2.63c-0.06,0-0.12,0-0.17,0c0-0.61-0.03-1.21,0.01-1.82c0.04-0.51-0.09-0.95-0.38-1.35
			c0.02-0.44,0.05-0.88,0.38-1.22c0.36,0.54,0.85,1.03,1.05,1.63c0.78,2.23,2.06,4.24,2.86,6.45
			C65.24,87.08,64.41,90.51,63.58,93.94z"/>
		<path fill="#909D46" d="M64.05,117.37c-1.46-1.54-3.23-2.72-4.85-4.07c-1.62-1.34-3.29-2.63-4.95-3.93
			c-0.25-0.19-0.47-0.36-0.37-0.71c2.97,0.75,5.95,1.5,8.92,2.24c0.15,0.28-0.06,0.75,0.44,0.83c0.56,0.33,0.21,0.88,0.33,1.32
			c0.19,0.67-0.38,1.58,0.63,2c-0.54,0.87,0.6,1.59,0.22,2.45C64.31,117.46,64.18,117.42,64.05,117.37z"/>
		<path fill="#48183B" d="M66.06,83.65c-0.81-2.22-2.08-4.22-2.86-6.45c-0.21-0.59-0.7-1.09-1.05-1.63
			c-0.01-0.92,0.58-0.44,0.97-0.42c-0.23,0.19-0.21,0.34,0.04,0.52c1.13,0.82,2.22,1.69,3.32,2.55c1.34,1.06,2.74,2.06,4,3.22
			c0.44,0.41,1.16,0.51,1.36,1.18c-0.01,0.06-0.03,0.11-0.05,0.17C69.88,83.08,67.97,83.36,66.06,83.65z"/>
		<path fill="#E98233" d="M52.92,108.54c-0.7,1.31-1.92,2.15-2.95,3.15c-0.16,0.15-0.38,0.23-0.47,0.46
			c-0.94-0.4-1.41-1.31-2.12-1.96c-1.31-1.21-2.62-2.43-3.93-4.04C46.77,107.01,49.89,107.57,52.92,108.54z"/>
		<path fill="#BD2256" d="M99.01,99.04c-0.07,0.35-0.34,0.44-0.63,0.51C98.53,99.29,98.75,99.13,99.01,99.04z"/>
		<polygon fill="#909D46" points="95.6,120.27 95.62,120.24 95.61,120.27 		"/>
		<path fill="#BD2256" d="M97.98,100.01C97.98,100.01,97.98,100.01,97.98,100.01C97.98,100.01,97.98,100.01,97.98,100.01z"/>
		<path fill="#BD2256" d="M98.21,99.84C98.21,99.84,98.22,99.83,98.21,99.84C98.22,99.83,98.21,99.84,98.21,99.84z"/>
		<path fill="#FEFEFE" d="M63.94,171.68c-0.16-4.12-0.32-8.14-0.48-12.15c-0.04-1.05-0.09-2.09-0.17-3.13
			c-0.04-0.57,0.11-0.82,0.7-0.58c0.03,0.01,0.06,0.03,0.09,0.04c2.17,0.15,3.07,1.31,3.39,3.48c0.48,3.18,1.38,6.3,2.09,9.45
			c0.08,0.34,0.36,0.72-0.29,0.92C67.5,170.26,65.88,171.22,63.94,171.68z"/>
		<path fill="#FEFEFE" d="M66.06,83.65c1.91-0.29,3.82-0.57,5.73-0.86c0.48,0.29,0.27,0.77,0.28,1.16
			c0.04,3.99,0.05,7.98,0.07,11.97c-0.82,1.14-1.37,2.46-2.36,3.47c-0.88-0.35-1.52-1.07-2.17-1.67c-1.3-1.18-2.79-2.11-4.06-3.31
			c0.01-0.16,0.02-0.32,0.04-0.48C64.41,90.51,65.24,87.08,66.06,83.65z"/>
	</g>
</g>
<path fill="#FFFFFF" d="M200.88,80.02c3.44,10.23,5.34,21.18,5.34,32.58c0,56.38-45.7,102.08-102.08,102.08
	c-56.38,0-102.08-45.7-102.08-102.08c0-11.4,1.89-22.34,5.34-32.58l-1.86-0.93C1.97,89.61,0,100.87,0,112.6
	c0,57.51,46.63,104.14,104.14,104.14c57.52,0,104.14-46.63,104.14-104.14c0-11.73-1.97-22.99-5.54-33.51L200.88,80.02z"/>
</svg>
