<!-- Generator: Adobe Illustrator 18.1.1, SVG Export Plug-In  -->
<svg version="1.1"
	 xmlns="http://www.w3.org/2000/svg" xmlns:xlink="http://www.w3.org/1999/xlink" xmlns:a="http://ns.adobe.com/AdobeSVGViewerExtensions/3.0/"
	 x="0px" y="0px" width="49.69px" height="26.91px" viewBox="0 0 49.69 26.91" enable-background="new 0 0 49.69 26.91"
	 xml:space="preserve">
<defs>
</defs>
<path fill="#868789" d="M41.47,12.67h1.43v6.64h-1.43V12.67z M10.14,14.78l1.58,4.53h-1.61l-1.46-4.26l-1.12-0.02v4.28H6.1V9.43
	h1.51l-2.1-4.68C5.39,4.5,5.21,4.07,5.06,3.71L4.95,3.43L4.88,3.44L4.9,5.09v4.34v0.6v0.79H1.49v2.64h2.13v1.37H1.49v4.48H0.06V9.43
	h3.43V0.16h1.45l2.11,4.68C7.17,5.1,7.35,5.53,7.5,5.89l0.12,0.28l0.07-0.02C7.68,5.65,7.67,4.87,7.67,4.5V0.16h1.4v9.28
	c1.64,0.06,2.61,1.08,2.61,2.74c0,1.3-0.51,2.17-1.51,2.59L10.14,14.78z M10.21,12.22c0-0.9-0.5-1.4-1.42-1.4H7.53v2.84h1.26
	C9.73,13.66,10.21,13.18,10.21,12.22z M16.52,26.18h-0.01L14.7,23.4h-0.49v3.43h0.43v-2.76h0.01l1.8,2.76h0.51V23.4h-0.44V26.18z
	 M12.2,25.68h1.4V25.3h-1.4V25.68z M8.64,25.59c0,0.6-0.32,0.93-0.9,0.93c-0.61,0-0.96-0.33-0.96-0.93V23.4H6.32v2.19
	c0,0.91,0.53,1.32,1.42,1.32c0.86,0,1.36-0.46,1.36-1.32V23.4H8.64V25.59z M1.63,26.52c-0.82,0-1.17-0.65-1.17-1.43
	c0-0.72,0.35-1.39,1.17-1.39c0.48,0,0.87,0.24,0.96,0.73h0.46c-0.1-0.73-0.7-1.12-1.42-1.12C0.57,23.31,0,24.13,0,25.12
	c0,1,0.52,1.79,1.59,1.79c0.87,0,1.41-0.52,1.5-1.38H2.63C2.58,26.1,2.24,26.52,1.63,26.52z M18.5,9.43h1.44V1.55h1.82V0.16h-5.08
	v1.39h1.82V9.43z M21.34,19.31v-4.94l-0.02-1.65l0.07-0.01l0.12,0.28c0.15,0.36,0.33,0.79,0.45,1.04l2.37,5.28h1.19V9.43h-1.41v4.35
	l0.02,1.65l-0.07,0.02l-0.11-0.28c-0.16-0.37-0.33-0.79-0.45-1.05l-2.12-4.69h-1.44v9.88H21.34z M24.65,0.16h-1.43v6.56h1.43V0.16z
	 M1.49,0.16H0.06v6.56h1.43V0.16z M47.41,13.54c-1.12-0.72-1.44-1-1.44-1.72c0-0.6,0.5-1.12,1.13-1.12c0.52,0,0.96,0.3,1.28,0.77
	l1.08-0.85c-0.49-0.85-1.35-1.34-2.36-1.34c-1.53,0-2.62,1.24-2.62,2.6c0,1.57,0.93,2.17,2.03,2.89c1.3,0.86,1.66,1.21,1.66,1.98
	c0,0.64-0.53,1.26-1.27,1.26c-0.54,0-0.92-0.31-1.54-1.07l-1.12,0.92c0.65,1.06,1.55,1.6,2.68,1.6c1.47,0,2.77-1.23,2.77-2.76
	C49.69,15.12,48.62,14.31,47.41,13.54z M4.11,23.4H3.66v3.43h2.28v-0.39H4.11V23.4z M11.12,25.91c0,0.37-0.13,0.61-0.55,0.61
	c-0.45,0-0.55-0.28-0.55-0.68V25.7H9.56v0.21c0,0.64,0.36,1,1,1c0.78,0,1.02-0.47,1.02-0.94V23.4h-0.46V25.91z M27.1,14.39
	c0,2.7,0.73,4.43,2.05,4.93l-0.45,2.05h1.41l0.39-1.94c1.17-0.16,1.87-0.96,2.18-2.47l0.01-0.02l-1.33-0.42l-0.01,0.02
	c-0.28,1.1-0.6,1.48-1.22,1.48c-1.45,0-1.56-2.8-1.56-3.66c0-1.36,0.19-3.64,1.46-3.64c0.76,0,1.01,0.49,1.19,1.34l0.01,0.03
	l1.44-0.37V11.7c-0.28-1.63-1.13-2.42-2.6-2.42c-0.18,0-0.36,0.02-0.53,0.05V1.55h1.82V0.16h-5.07v1.39h1.82v8.72
	C27.45,11.13,27.1,12.53,27.1,14.39z M18.8,19.31h-1.56l-0.58-2.6h-2.1l-0.57,2.6h-1.52l2.4-9.69c-0.48,0.37-1.07,0.59-1.69,0.59
	c-1.13,0-2.03-0.55-2.68-1.6l1.13-0.92c0.62,0.76,0.99,1.07,1.53,1.07c0.74,0,1.27-0.62,1.27-1.26c0-0.77-0.48-1.15-1.79-2.01
	c-1.09-0.72-2.02-1.32-2.02-2.89c0-1.35,1.09-2.6,2.62-2.6c1.01,0,1.87,0.5,2.36,1.34l-1.08,0.85c-0.32-0.47-0.76-0.77-1.28-0.77
	c-0.64,0-1.13,0.52-1.13,1.12c0,0.72,0.31,1,1.43,1.72c1.21,0.77,2.41,1.61,2.41,3.19c0,0.78-0.34,1.48-0.87,1.98h1.3L18.8,19.31z
	 M16.37,15.36l-0.36-1.63c-0.11-0.51-0.27-1.33-0.37-1.83h-0.07c-0.09,0.49-0.25,1.31-0.36,1.83l-0.36,1.63H16.37z M32.56,23.4
	l1.35,3.43H33.4l-0.37-1.04h-1.46l-0.39,1.04h-0.47l1.34-3.43H32.56z M32.88,25.41l-0.57-1.6H32.3l-0.59,1.6H32.88z M37.69,9.45
	l2.42,9.86h-1.56l-0.58-2.6h-2.11l-0.56,2.6h-1.52l2.26-9.14l-0.3,0.01c-1.64,0-2.79-1.24-2.79-3.01V0.16h1.43v6.95
	c0,0.39,0.1,1.64,1.36,1.64c1.24,0,1.38-1.14,1.38-1.62V0.16h1.41v6.93C38.53,8.1,38.23,8.91,37.69,9.45z M37.67,15.36l-0.36-1.63
	c-0.11-0.51-0.26-1.33-0.36-1.83h-0.07c-0.1,0.49-0.25,1.31-0.36,1.83l-0.36,1.63H37.67z M44.72,0.16h-5.08v1.39h1.83v8.55h1.43
	V1.55h1.82V0.16z M29.09,26.52c-0.82,0-1.17-0.65-1.17-1.43c0-0.72,0.35-1.39,1.17-1.39c0.48,0,0.87,0.24,0.97,0.73h0.45
	c-0.1-0.73-0.7-1.12-1.42-1.12c-1.06,0-1.63,0.82-1.63,1.81c0,1,0.52,1.79,1.6,1.79c0.86,0,1.4-0.52,1.49-1.38h-0.46
	C30.05,26.1,29.7,26.52,29.09,26.52z M19.14,23.4l1.35,3.43h-0.51l-0.37-1.04h-1.46l-0.39,1.04h-0.47l1.35-3.43H19.14z M19.46,25.41
	l-0.57-1.6h-0.01l-0.59,1.6H19.46z M23.4,24.41c0,0.64-0.37,1.02-1.06,1.01h-1.05v1.41h-0.46V23.4h1.51
	C23.03,23.4,23.4,23.78,23.4,24.41z M22.94,24.41c0-0.41-0.24-0.63-0.75-0.63h-0.9v1.26h0.9C22.7,25.05,22.94,24.82,22.94,24.41z
	 M27.07,25.11c0,0.93-0.55,1.8-1.65,1.8c-1.1,0-1.65-0.87-1.65-1.8s0.55-1.8,1.65-1.8C26.52,23.31,27.07,24.18,27.07,25.11z
	 M26.61,25.11c0-0.69-0.35-1.41-1.19-1.41c-0.84,0-1.2,0.72-1.2,1.41s0.36,1.41,1.2,1.41C26.26,26.52,26.61,25.8,26.61,25.11z"/>
</svg>
