<!-- Generator: Adobe Illustrator 18.1.1, SVG Export Plug-In  -->
<svg version="1.1"
	 xmlns="http://www.w3.org/2000/svg" xmlns:xlink="http://www.w3.org/1999/xlink" xmlns:a="http://ns.adobe.com/AdobeSVGViewerExtensions/3.0/"
	 x="0px" y="0px" width="106.12px" height="29.13px" viewBox="0 0 106.12 29.13" enable-background="new 0 0 106.12 29.13"
	 xml:space="preserve">
	<path fill='#868789' d="M80.65,29.13c3.61-0.55,5.33-4.79,2.99-7.79c-3.13-4.02-6.23-8.07-9.32-12.12c-1.09-1.43-1.29-3.04-0.56-4.67
		c0.77-1.71,2.15-2.7,4.04-2.73C81.4,1.78,85,1.81,88.6,1.8c3.11,0,6.21,0,9.34,0.04c-1.09,0.49-2,1.17-2.55,2.24
		c-0.9,1.76-0.91,3.52,0.29,5.11c2.71,3.61,5.49,7.17,8.24,10.75c0.49,0.64,1.04,1.24,1.46,1.92c1.69,2.69,0.38,6.34-3,7.07
		c-0.18,0.04-0.35,0.13-0.53,0.2C94.79,29.13,87.72,29.13,80.65,29.13z M42.81,29.13c-0.02-0.29-0.06-0.57-0.06-0.86
		c0-8.02,0-16.05-0.01-24.07c0-0.42-0.04-0.85-0.16-1.25c-0.32-1.05-1.59-1.36-2.37-0.59c-0.22,0.21-0.4,0.48-0.56,0.75
		c-3.86,6.67-7.71,13.35-11.57,20.02c-0.27,0.46-0.57,0.92-0.93,1.3c-0.64,0.67-1.7,0.67-2.23-0.09c-0.33-0.47-0.53-1.14-0.53-1.73
		c-0.04-6.24-0.02-12.47-0.02-18.71c0-0.27,0.01-0.54-0.04-0.8c-0.25-1.14-1.54-1.55-2.39-0.75c-0.24,0.23-0.44,0.5-0.61,0.79
		c-5.01,8.66-10.01,17.33-15.01,26C18.48,29.13,30.64,29.13,42.81,29.13z M65.62,29.13c-0.02-0.31-0.06-0.62-0.06-0.93
		c0-8.09,0-16.18-0.01-24.26c0-0.31-0.01-0.63-0.08-0.93c-0.17-0.7-0.7-1.08-1.42-1.07c-0.72,0.01-1.13,0.46-1.45,1.02
		c-5.03,8.72-10.06,17.45-15.1,26.17C53.54,29.13,59.58,29.13,65.62,29.13z M5.35,26.53c-0.98-0.58-1.96-1.15-2.95-1.73
		c-0.9-0.53-1.14-1.82-0.55-2.89c0.55-1,1.31-1.17,2.43-0.54c0.37,0.21,0.73,0.44,1.09,0.65c0.69,0.4,1.39,0.78,2.13,1.2
		c0.18-0.3,0.33-0.54,0.5-0.83c-1.11-0.65-2.18-1.26-3.23-1.89c-0.22-0.13-0.48-0.31-0.57-0.53c-0.37-0.91-0.28-1.8,0.32-2.6
		c0.48-0.65,1.11-0.8,1.83-0.41c0.84,0.46,1.66,0.96,2.49,1.44c0.36,0.21,0.72,0.4,1.19,0.66c0.03-0.47,0.73-0.75,0.04-1.15
		c-1.1-0.65-2.19-1.31-3.31-1.91C5.88,15.54,5,15.72,4.34,16.49c-0.68,0.79-1.08,1.69-0.84,2.77c0.05,0.23,0.06,0.47,0.1,0.73
		c-2.27,0.4-2.8,1.91-2.55,3.93c-0.17,0-0.29,0.03-0.38-0.01C0.35,23.77,0.05,23.82,0,24.18c-0.02,0.17,0.22,0.42,0.4,0.55
		c0.36,0.26,0.76,0.47,1.14,0.7c1.15,0.67,2.31,1.33,3.51,2.03c0.17-0.29,0.3-0.51,0.44-0.75C5.41,26.6,5.39,26.55,5.35,26.53z
		 M16.68,7.39c-1.28-0.73-2.47-1.44-3.69-2.1c-0.99-0.53-1.86-0.3-2.53,0.59C9.87,6.66,9.57,7.53,9.72,8.52c0.02,0.14,0,0.29,0,0.51
		C9.26,9,8.66,8.68,8.59,9.54c1.69,0.98,3.4,1.97,5.1,2.96c0.6-0.8,0.6-0.8-0.16-1.25c-0.85-0.49-1.7-0.98-2.55-1.48
		c-0.2-0.12-0.43-0.28-0.54-0.48c-0.43-0.73-0.15-2.26,0.5-2.88c0.59-0.57,1.16-0.54,2.25,0.1c0.98,0.58,1.96,1.15,3.04,1.78
		C16.41,7.94,16.54,7.68,16.68,7.39z M12.35,14.87c-1.76-1.02-3.47-2.01-5.21-3.03c-0.19,0.35-0.33,0.61-0.49,0.92
		c1.75,1.02,3.44,2,5.21,3.03C12.03,15.45,12.18,15.18,12.35,14.87z M13.59,2.4c1.29,0.76,2.58,1.51,3.87,2.26
		C18.13,5.05,18.25,5,18.5,4.14c-1.69-0.99-3.4-1.98-5.14-2.99c-0.17,0.3-0.3,0.52-0.45,0.8C13.15,2.11,13.37,2.27,13.59,2.4z
		 M11.38,1.16c0.18-0.32,0.32-0.57,0.46-0.82c-0.74-0.51-0.81-0.49-1.14,0.4C10.9,0.86,11.11,0.99,11.38,1.16z M4.85,10.8
		c-0.17,0.07-0.37,0.42-0.32,0.59c0.05,0.2,0.34,0.33,0.58,0.54c0.2-0.33,0.34-0.58,0.57-0.97C5.32,10.87,5.04,10.72,4.85,10.8z"/>
</svg>

