<!-- Generator: Adobe Illustrator 18.1.1, SVG Export Plug-In  -->
<svg version="1.1"
	 xmlns="http://www.w3.org/2000/svg" xmlns:xlink="http://www.w3.org/1999/xlink" xmlns:a="http://ns.adobe.com/AdobeSVGViewerExtensions/3.0/"
	 x="0px" y="0px" width="25.2px" height="6.39px" viewBox="0 0 25.2 6.39" enable-background="new 0 0 25.2 6.39"
	 xml:space="preserve">
<defs>
</defs>
<path fill="#868789" d="M0,0.01h1.89l0.35,3.11h0.01l0.33-3.11l1.91,0V6.3H3.33V1.41H3.32L2.64,6.3H1.84L1.18,1.41H1.17V6.3H0
	L0,0.01z M5.05,3.19c0-0.39,0.12-0.68,0.38-0.88C5.68,2.12,6,2.02,6.4,2.02c0.42,0,0.77,0.1,1.03,0.29c0.25,0.19,0.38,0.5,0.38,0.92
	v1.91c0,0.43-0.13,0.74-0.38,0.94C7.18,6.29,6.84,6.39,6.42,6.39c-0.27,0-0.51-0.05-0.72-0.14C5.5,6.16,5.34,6.02,5.22,5.84
	C5.1,5.66,5.05,5.44,5.05,5.18V3.19z M6.17,3.05v2.28c0,0.18,0.09,0.27,0.26,0.27c0.17,0,0.26-0.09,0.26-0.27V3.07
	c0-0.19-0.08-0.28-0.26-0.28C6.26,2.79,6.17,2.88,6.17,3.05z M11.09,6.3H9.96V3.38c0-0.09-0.02-0.17-0.06-0.24
	c-0.04-0.07-0.1-0.1-0.19-0.1c-0.18,0-0.27,0.13-0.27,0.39V6.3H8.33V2.1h1.09v0.47h0.01c0.11-0.19,0.22-0.33,0.35-0.42
	c0.13-0.09,0.29-0.13,0.48-0.13c0.16,0,0.3,0.04,0.43,0.11c0.13,0.07,0.23,0.18,0.3,0.3c0.07,0.12,0.11,0.26,0.11,0.41V6.3z
	 M11.69,1.05h1.13v0.77h-1.13V1.05z M11.69,2.1h1.13V6.3h-1.13V2.1z M13.51,1.24h1.13v0.9h0.28v0.82h-0.28v2.3
	c0,0.09,0.01,0.16,0.03,0.19c0.02,0.05,0.06,0.08,0.11,0.08h0.16v0.86h-0.67c-0.25,0-0.44-0.07-0.56-0.2
	c-0.13-0.11-0.19-0.3-0.19-0.55V2.96h-0.28V2.14h0.28V1.24z M15.24,3.19c0-0.39,0.13-0.68,0.38-0.88c0.25-0.2,0.58-0.3,0.98-0.3
	c0.43,0,0.77,0.1,1.03,0.29c0.26,0.19,0.38,0.5,0.38,0.92v1.91c0,0.43-0.13,0.74-0.38,0.94c-0.25,0.21-0.59,0.31-1.02,0.31
	c-0.27,0-0.51-0.05-0.71-0.14c-0.21-0.09-0.37-0.23-0.48-0.41c-0.12-0.18-0.17-0.4-0.17-0.66V3.19z M16.37,3.05v2.28
	c0,0.18,0.08,0.27,0.25,0.27c0.17,0,0.26-0.09,0.26-0.27V3.07c0-0.19-0.09-0.28-0.26-0.28C16.45,2.79,16.37,2.88,16.37,3.05z
	 M18.52,2.1h1.08v0.73h0.01c0.09-0.21,0.15-0.36,0.2-0.45c0.05-0.09,0.12-0.18,0.22-0.25c0.1-0.08,0.23-0.12,0.39-0.12v1.37h-0.3
	c-0.13,0-0.24,0.04-0.33,0.11c-0.09,0.07-0.14,0.2-0.14,0.39V6.3h-1.13V2.1z M20.7,2.1h1.13v2.92c0,0.23,0.08,0.34,0.24,0.34
	c0.18,0,0.27-0.13,0.27-0.39V2.1h1.13V6.3h-1.09V5.83h-0.01c-0.1,0.18-0.22,0.32-0.35,0.42c-0.13,0.09-0.29,0.14-0.48,0.14
	c-0.26,0-0.46-0.08-0.61-0.24C20.77,6,20.7,5.77,20.7,5.46V2.1z M24.07,0.01l1.13,0V6.3h-1.13V0.01z M15.24,0v1.44h8.22V0L15.24,0z
	 M17.96,0.95c0,0.04-0.01,0.08-0.02,0.11c-0.01,0.03-0.03,0.06-0.06,0.07c-0.02,0.02-0.05,0.03-0.08,0.04
	c-0.03,0.01-0.06,0.01-0.08,0.01H17.4V0.25h0.32c0.05,0,0.08,0.01,0.12,0.02c0.03,0.01,0.06,0.03,0.07,0.05
	c0.02,0.02,0.03,0.05,0.04,0.08c0.01,0.03,0.01,0.06,0.01,0.1V0.95z M18.55,1.19h-0.49V0.25h0.48v0.18h-0.27v0.19h0.23V0.8h-0.23
	v0.21h0.28V1.19z M19.5,0.6h-0.22V0.49c0-0.01,0-0.02,0-0.03c0-0.01,0-0.02-0.01-0.03c0-0.01-0.01-0.02-0.02-0.02
	C19.25,0.4,19.24,0.4,19.22,0.4c-0.02,0-0.03,0-0.04,0.01c-0.01,0.01-0.01,0.01-0.02,0.02c0,0.01-0.01,0.02-0.01,0.03
	c0,0.01,0,0.02,0,0.03v0.47c0,0.01,0,0.01,0,0.02c0,0.01,0,0.02,0.01,0.03c0,0.01,0.01,0.02,0.02,0.02
	c0.01,0.01,0.02,0.01,0.04,0.01c0.01,0,0.03,0,0.04-0.01c0.01-0.01,0.01-0.02,0.02-0.02c0-0.01,0.01-0.02,0.01-0.03
	c0-0.01,0-0.02,0-0.02V0.82h0.22v0.12c0,0.04-0.01,0.08-0.02,0.11c-0.01,0.03-0.03,0.06-0.06,0.09c-0.02,0.02-0.05,0.04-0.09,0.05
	c-0.04,0.01-0.07,0.02-0.12,0.02c-0.04,0-0.08-0.01-0.12-0.02c-0.03-0.01-0.06-0.03-0.09-0.05c-0.03-0.02-0.04-0.05-0.06-0.09
	c-0.01-0.03-0.02-0.07-0.02-0.11V0.51c0-0.04,0.01-0.09,0.02-0.12C18.98,0.35,19,0.32,19.02,0.3c0.02-0.02,0.05-0.04,0.09-0.05
	c0.03-0.01,0.07-0.02,0.11-0.02c0.04,0,0.08,0.01,0.11,0.02c0.03,0.01,0.06,0.03,0.09,0.05c0.03,0.02,0.05,0.05,0.06,0.09
	c0.01,0.03,0.02,0.07,0.02,0.12V0.6z M20.05,1.19H19.6V0.25h0.22v0.76h0.24V1.19z M20.68,0.94c0,0.04,0,0.08-0.02,0.11
	c-0.01,0.03-0.03,0.06-0.06,0.09c-0.02,0.02-0.05,0.04-0.09,0.05c-0.03,0.01-0.07,0.02-0.12,0.02c-0.04,0-0.08-0.01-0.12-0.02
	c-0.04-0.01-0.07-0.03-0.09-0.05c-0.02-0.02-0.04-0.05-0.05-0.09c-0.01-0.03-0.02-0.07-0.02-0.11V0.25h0.22v0.69
	c0,0.01,0,0.02,0,0.04c0,0.01,0,0.02,0.01,0.03c0,0.01,0.01,0.02,0.02,0.02c0.01,0,0.02,0.01,0.04,0.01c0.02,0,0.03,0,0.04-0.01
	c0.01-0.01,0.01-0.01,0.02-0.02c0-0.01,0.01-0.02,0.01-0.03c0-0.01,0-0.02,0-0.04V0.25h0.22V0.94z M21.27,0.96
	c0,0.09-0.02,0.15-0.07,0.19c-0.04,0.04-0.11,0.06-0.2,0.06c-0.03,0-0.06,0-0.09-0.01c-0.03-0.01-0.06-0.02-0.08-0.04
	c-0.02-0.02-0.05-0.04-0.06-0.07c-0.01-0.03-0.02-0.08-0.02-0.13V0.82h0.21v0.16c0,0.01,0,0.02,0,0.02c0,0.01,0,0.02,0.01,0.02
	c0,0.01,0.01,0.01,0.01,0.01c0.01,0,0.01,0.01,0.02,0.01c0.01,0,0.02-0.01,0.03-0.01c0.01-0.01,0.01-0.02,0.01-0.05V0.25h0.22V0.96z
	 M17.65,0.41h-0.03v0.62h0.03c0.03,0,0.05-0.01,0.07-0.02c0.02-0.01,0.02-0.03,0.02-0.06V0.49c0-0.03-0.01-0.05-0.02-0.06
	C17.7,0.42,17.68,0.41,17.65,0.41z"/>
</svg>
