<!-- Generator: Adobe Illustrator 18.1.1, SVG Export Plug-In  -->
<svg version="1.1"
	 xmlns="http://www.w3.org/2000/svg" xmlns:xlink="http://www.w3.org/1999/xlink" xmlns:a="http://ns.adobe.com/AdobeSVGViewerExtensions/3.0/"
	 x="0px" y="0px" width="23.74px" height="10.34px" viewBox="0 0 23.74 10.34" enable-background="new 0 0 23.74 10.34"
	 xml:space="preserve">
<defs>
</defs>
<path fill="#868789" d="M10.92,2.07L10.92,2.07c0.26,0,0.39-0.09,0.39-0.33c0-0.13-0.06-0.32-0.35-0.32h-0.63v0.65H10.92z M9.83,1
	h1.23c0.64,0,0.76,0.47,0.76,0.68c0,0.27-0.14,0.5-0.38,0.58c0.2,0.09,0.31,0.16,0.31,0.61c0,0.36,0,0.44,0.11,0.48v0.06h-0.56
	c-0.03-0.11-0.05-0.24-0.05-0.49c0-0.33-0.02-0.46-0.39-0.46h-0.52v0.95h-0.5V1z M13.22,2.55L13.22,2.55
	c-0.05,0.03-0.13,0.06-0.33,0.1c-0.17,0.03-0.32,0.08-0.32,0.27c0,0.16,0.13,0.22,0.21,0.22c0.21,0,0.43-0.13,0.43-0.36V2.55z
	 M13.68,3.07c0,0.21,0.05,0.26,0.11,0.28v0.07h-0.51l-0.04-0.21c-0.11,0.11-0.26,0.26-0.58,0.26c-0.27,0-0.55-0.15-0.55-0.53
	c0-0.35,0.22-0.52,0.53-0.57l0.42-0.06l0.17-0.14c0-0.2-0.19-0.21-0.31-0.21c-0.23,0-0.28,0.14-0.29,0.25h-0.46
	c0.05-0.55,0.44-0.63,0.81-0.63c0.25,0,0.71,0.08,0.71,0.52V3.07z M14.88,3.08L14.88,3.08c0.3,0,0.42-0.25,0.42-0.52
	c0-0.29-0.08-0.58-0.4-0.58c-0.3,0-0.4,0.27-0.4,0.55C14.49,2.75,14.57,3.08,14.88,3.08 M15.75,3.42h-0.46V3.2h-0.01
	c-0.11,0.2-0.33,0.27-0.52,0.27C14.22,3.47,14,3,14,2.51c0-0.62,0.35-0.93,0.75-0.93c0.3,0,0.45,0.17,0.52,0.29h0.01V1h0.47V3.42z
	 M16.66,1.63L16.66,1.63v1.79h-0.47V1.63H16.66z M16.66,1.42h-0.47V0.98h0.47V1.42z M17.92,1.98L17.92,1.98
	c-0.36,0-0.43,0.32-0.43,0.55c0,0.23,0.07,0.55,0.43,0.55c0.36,0,0.43-0.32,0.43-0.55C18.35,2.3,18.29,1.98,17.92,1.98 M17.92,3.47
	C17.44,3.47,17,3.18,17,2.53c0-0.65,0.44-0.95,0.92-0.95c0.48,0,0.92,0.3,0.92,0.95C18.84,3.18,18.41,3.47,17.92,3.47 M10.92,5.11
	L10.92,5.11c0.26,0,0.39-0.09,0.39-0.33c0-0.13-0.06-0.32-0.35-0.32h-0.63v0.65H10.92z M9.83,4.04h1.23c0.64,0,0.76,0.48,0.76,0.69
	c0,0.26-0.14,0.49-0.38,0.58c0.2,0.08,0.31,0.16,0.31,0.61c0,0.36,0,0.44,0.11,0.48v0.06h-0.56c-0.03-0.11-0.05-0.24-0.05-0.49
	c0-0.33-0.02-0.46-0.39-0.46h-0.52v0.95h-0.5V4.04z M13.04,5.02L13.04,5.02c-0.36,0-0.43,0.32-0.43,0.55c0,0.23,0.07,0.55,0.43,0.55
	c0.36,0,0.43-0.32,0.43-0.55C13.47,5.34,13.4,5.02,13.04,5.02 M13.04,6.51c-0.48,0-0.92-0.3-0.92-0.95c0-0.65,0.44-0.95,0.92-0.95
	c0.48,0,0.92,0.3,0.92,0.95C13.96,6.21,13.52,6.51,13.04,6.51 M16.86,6.47h-0.47V5.38c0-0.27-0.12-0.35-0.26-0.35
	c-0.23,0-0.32,0.15-0.32,0.37v1.08h-0.47V5.39c0-0.15,0-0.37-0.28-0.37c-0.22,0-0.3,0.15-0.3,0.35v1.1h-0.47v-1.8h0.45v0.26h0.01
	c0.06-0.12,0.19-0.31,0.51-0.31c0.26,0,0.38,0.1,0.5,0.29c0.06-0.09,0.19-0.29,0.48-0.29c0.35,0,0.63,0.2,0.63,0.6V6.47z
	 M18.29,5.59L18.29,5.59c-0.05,0.04-0.13,0.07-0.32,0.1c-0.17,0.03-0.32,0.07-0.32,0.27c0,0.17,0.13,0.22,0.22,0.22
	c0.21,0,0.42-0.14,0.42-0.35V5.59z M18.61,4.43L18.61,4.43h-0.38l-0.22-0.28L17.8,4.43h-0.39l0.39-0.5h0.42L18.61,4.43z M18.75,6.11
	c0,0.21,0.05,0.26,0.11,0.28v0.07h-0.51L18.3,6.25c-0.11,0.11-0.26,0.26-0.58,0.26c-0.27,0-0.55-0.15-0.55-0.52
	c0-0.35,0.22-0.53,0.52-0.57l0.43-0.07l0.17-0.14c0-0.2-0.19-0.21-0.31-0.21c-0.24,0-0.28,0.15-0.29,0.25h-0.45
	c0.05-0.55,0.43-0.63,0.8-0.63c0.25,0,0.71,0.08,0.71,0.52V6.11z M20.79,6.47h-0.47V5.38c0-0.13-0.01-0.35-0.31-0.35
	c-0.21,0-0.37,0.14-0.37,0.41v1.03h-0.47v-1.8h0.45v0.26h0c0.07-0.11,0.2-0.31,0.54-0.31c0.35,0,0.62,0.2,0.62,0.6V6.47z
	 M21.72,4.67L21.72,4.67v1.8h-0.47v-1.8H21.72z M21.72,4.46h-0.47V4.01h0.47V4.46z M23.17,5.59L23.17,5.59
	c-0.05,0.04-0.13,0.07-0.32,0.1c-0.18,0.03-0.32,0.07-0.32,0.27c0,0.17,0.13,0.22,0.22,0.22c0.21,0,0.42-0.14,0.42-0.35V5.59z
	 M23.63,6.11c0,0.21,0.05,0.26,0.11,0.28v0.07h-0.51l-0.04-0.21c-0.11,0.11-0.26,0.26-0.58,0.26c-0.27,0-0.55-0.15-0.55-0.52
	c0-0.35,0.22-0.53,0.52-0.57L23,5.35l0.17-0.14c0-0.2-0.19-0.21-0.31-0.21c-0.24,0-0.28,0.15-0.29,0.25h-0.45
	c0.05-0.55,0.43-0.63,0.8-0.63c0.25,0,0.72,0.08,0.72,0.52V6.11z M15.89,7.08h-0.49v0.45h0.49V7.08z M15.89,7.75h-0.49v2.03
	l-0.02,0.1l-0.04,0.05l-0.05,0.02l-0.04,0h-0.09v0.39h0.12l0.25-0.02l0.18-0.07l0.12-0.17c0.03-0.07,0.04-0.17,0.04-0.29V7.75z
	 M14.94,7.75h-0.49v1.07l-0.04,0.2l-0.09,0.13L14.2,9.22l-0.13,0.02l-0.11-0.01l-0.1-0.05l-0.08-0.1l-0.03-0.17V7.75h-0.49v1.22
	c0,0.12,0.02,0.22,0.05,0.3l0.13,0.21l0.2,0.12l0.25,0.04c0.13,0,0.24-0.02,0.34-0.08l0.23-0.23h0V9.6h0.47V7.75z M12.8,7.1h-0.49
	v2.5h0.49V7.1z M11.94,7.92l-0.05-0.23l-0.13-0.24l-0.21-0.21c-0.09-0.06-0.18-0.11-0.3-0.15c-0.12-0.04-0.24-0.06-0.4-0.06
	c-0.16,0-0.31,0.03-0.45,0.08c-0.14,0.06-0.26,0.14-0.36,0.25c-0.1,0.11-0.18,0.25-0.24,0.41C9.75,7.94,9.72,8.13,9.72,8.35
	c0,0.22,0.03,0.41,0.08,0.57c0.06,0.16,0.14,0.3,0.24,0.41c0.1,0.11,0.22,0.19,0.36,0.25c0.14,0.05,0.29,0.08,0.46,0.08
	c0.16,0,0.3-0.03,0.42-0.07C11.4,9.55,11.5,9.49,11.6,9.4c0.09-0.08,0.16-0.18,0.22-0.29c0.06-0.11,0.1-0.24,0.13-0.37h-0.52
	L11.31,9l-0.19,0.16l-0.26,0.05c-0.11,0-0.2-0.03-0.29-0.07l-0.19-0.19l-0.11-0.27c-0.03-0.1-0.04-0.21-0.04-0.32
	c0-0.14,0.01-0.26,0.04-0.36l0.1-0.25l0.15-0.16l0.16-0.08l0.16-0.02l0.22,0.03l0.15,0.08l0.09,0.11l0.06,0.12l0.03,0.1H11.94z
	 M2.12,0c-0.93,1.26-1.63,2.66-2.1,4.13c0,0-0.28-2.1,1.08-4.13L2.12,0z M6.48,0C5.7,0.61,4.97,1.34,4.32,2.17
	C2.63,4.33,1.65,6.92,1.36,9.6H0.03l0-0.12c0.12-3.07,1.12-6.07,3.04-8.52C3.34,0.62,3.61,0.3,3.9,0L6.48,0 M5.44,2.52
	c0.83-1,1.76-1.82,2.76-2.49v3.08C7.83,3.47,7.47,3.85,7.13,4.26C5.82,5.83,4.9,7.66,4.37,9.6H2.31C2.71,7.02,3.74,4.56,5.44,2.52
	 M5.01,9.6c0.55-1.73,1.41-3.36,2.6-4.79C7.8,4.58,8,4.35,8.2,4.14V9.6H5.01"/>
</svg>
