<?xml version="1.0" encoding="utf-8"?>
<!-- Generator: Adobe Illustrator 18.1.1, SVG Export Plug-In . SVG Version: 6.00 Build 0)  -->
<!DOCTYPE svg PUBLIC "-//W3C//DTD SVG 1.1//EN" "http://www.w3.org/Graphics/SVG/1.1/DTD/svg11.dtd">
<svg version="1.1" id="Layer_1" xmlns="http://www.w3.org/2000/svg" xmlns:xlink="http://www.w3.org/1999/xlink" x="0px" y="0px"
	 viewBox="-1176 1279.6 481.3 277" enable-background="new -1176 1279.6 481.3 277" xml:space="preserve">
<path fill="none" d="M-1021.9,1515.5c-7.1,0.1-12.5,5.6-12.5,12.9c0,6,3.5,9.8,8.9,9.8c7.2,0,12.3-5.3,12.3-12.9
	C-1013.3,1519-1016.4,1515.5-1021.9,1515.5z M-1019.5,1530.1c-0.5,2.6-1.3,5.1-4.4,5.2c-3,0.1-3.7-2.5-4.1-4.8
	c-0.6-2.8-0.5-5.6,0.5-8.3c0.8-2.2,2.1-3.9,4.8-3.5c2.5,0.4,3,2.4,3.3,4.4c0.2,1.3,0.1,2.7,0.2,4
	C-1019.3,1528.1-1019.3,1529.1-1019.5,1530.1z"/>
<path fill="none" d="M-1059.7,1520c-4.8,0.1-9.6,0.2-14.4,0.3c-1.4,0-2.1,1.2-1.9,2.4c0.3,2.1,1.6,0.9,2.6,0.6c3-1,3.4,0.6,3.3,3
	c-0.1,4,0.1,8,0,11.9c-0.1,2,0.4,3,2.8,3c2.3-0.1,3.4-0.7,3.1-3.2c-0.2-2,0-4,0-6c0,0,0,0,0,0c0-1.2-0.1-2.3,0-3.5
	c0.4-2.6-2.1-7.8,4.5-5.4c1,0.3,1.3-0.7,1.4-1.6C-1058.2,1520.6-1058.8,1520-1059.7,1520z"/>
<path fill="none" d="M-1083.7,1526.4c-0.6-0.3-1.2-0.6-1.7-1c-1.5-0.9-3-2.1-2.1-4c1.1-2.2,3.1-1.6,4.7-0.5c1.4,1,2.2,1.3,2.9-0.6
	c0.5-1.5,0.3-2.7-1.4-3.1c-1.3-0.4-2.6-0.6-3.4-0.8c-4.3,0.3-7.3,1.7-8.5,5.6c-1.2,3.9,0.2,6.8,3.6,8.9c1,0.6,2,1.1,3,1.8
	c1.6,1.1,3.2,2.5,1.9,4.5c-1.3,2.1-3.4,1.6-5.2,0.4c-0.8-0.5-1.4-2.3-2.7-1.1c-0.6,0.6-0.8,1.8-0.8,2.8c-0.1,1.5,1.2,1.8,2.3,2.1
	c4.7,1.6,10.1-0.4,12-4.4C-1077.2,1532.9-1078.7,1529.3-1083.7,1526.4z"/>
<path fill="none" d="M-1090.3,1382.9c8,10.6,7.6,22.3,4.6,34.3c-0.2,0.4-0.3,0.9-0.5,1.3c-0.3,0.8-0.6,1.7-0.9,2.6
	c-1.1,2-2.3,3.9-3.8,6.6c3.9-0.6,4.4-3.1,5.4-5.2c8.4-16.4,6.2-33.5-5.9-46.7c-5.6-6-12.3-10.6-19.3-14.9
	c-8.6-5.4-17.2-10.8-24.6-17.9c-11-10.5-13.4-21.8-7.4-35.6c0.3-0.7,0.5-1.2-0.2-1.8c-1.9-0.4-2.7,1.2-3.4,2.3
	c-5.5,9.6-6.4,19.4-0.5,29.3c3.4,5.7,8.2,10,13.4,14c9.2,7.1,19.6,12.6,29.2,19.1C-1098.9,1373.6-1094.2,1377.8-1090.3,1382.9z"/>
<path fill="none" d="M-941.8,1500.3c-4.3,0.5-8.5,1.3-12.7,2.1c-1.4,0.2-2.3,1-1.5,2.4c2.1,3.4,0.5,7.2,1.1,10.2c0,1.4,0,2.2,0,3
	c0,9.2,0,9.2,9,6.8c8.3-2.2,13.2-10.4,11.2-18.9C-935.6,1502.1-937.8,1499.8-941.8,1500.3z M-942.3,1518.4c-0.9,1.9-2.5,3.3-4.7,3
	c-2.8-0.4-1.6-2.8-1.8-4.4c-0.2-1.5,0-3,0-4.5c0-1.5-0.1-3,0-4.5c0.1-1.5-0.9-3.5,1.8-3.9c2.4-0.4,4.5,0.2,5.2,2.6
	C-940.6,1510.6-940.6,1514.6-942.3,1518.4z"/>
<path fill="none" d="M-969.4,1519.3c-1.4-0.1-3,0.2-4.4,0.8c-1.9,0.7-0.4,1.8-0.1,2.8c0.5,1.6,0.6,3.3-0.9,4.5
	c-1.2,1-2.5,0.7-3.6-0.1c-2.5-1.8-3.1-9.8-0.8-13.1c2.7-3.8,5.9-3.5,9.2-0.6c1.8-4.7,1.4-5.4-3.2-5.2c-7.8,0.3-13.5,6.3-13.3,13.9
	c0.2,5.7,3.4,9.1,8.5,9c7.3-0.1,9.8-2.4,9.6-9C-968.5,1521.1-967.6,1519.4-969.4,1519.3z"/>
<path fill="none" d="M-993.2,1512.3c-1.5,0.2-1.7,1.1-1.6,2.4c0.2,2.8,0,5.7,0,9.7c-2.6-3.6-4.6-6.2-6.3-9c-1.8-2.9-4.2-1-6.3-1.1
	c-1.1-0.1-2.1,0.7-1.7,1.9c1.9,5.4,0.5,10.9,0.8,16.3c0.1,1.4-0.1,2.7,1.9,2.6c2.1-0.1,1.8-1.4,1.8-2.8c0-3.2,0-6.3,0-10.9
	c3,4,5.5,7,7.8,10.2c1,1.4,2.1,1.9,3.8,1.6c1.6-0.3,1.7-1.2,1.7-2.5c-0.1-5.5-0.2-11-0.2-16.4
	C-991.4,1513.1-991.5,1512-993.2,1512.3z"/>
<path fill="none" d="M-1039.2,1524.9c2.2-2.7-0.4-6.4-4.2-6.3c-3.3,0.1-6.6,0.5-9.9,0.8c-1.1,0.1-2.6,0.2-2,1.9
	c1.8,5.2,0.7,10.5,0.8,15.7c0.1,2.2,0.2,3.4,2.9,3.2c2.4-0.1,3.2-1.1,2.9-3.4c-0.2-1.9-0.6-3.9,0.2-6.3c4.1,2.9,3.1,12.3,11.7,7.8
	c-0.4-0.8-0.8-1.6-1.2-2.2C-1040.2,1532.6-1043.1,1529.6-1039.2,1524.9z M-1049.3,1529.3c1-2.9-1.4-6.1,2.1-7.7
	c1.3-0.6,2.5,0.4,2.8,1.9C-1043.7,1526.8-1045.6,1528.3-1049.3,1529.3z"/>
<path fill="none" d="M-732.7,1317.4c3,1.1,6.4,2.3,8.1-2c-3.4,0.3-3-3.9-5.4-4.9c-2.5,0.7,0,3.9-2.8,4.9c-1.2-4,0.1-8.1-0.7-12
	c-3.6,0.2-3.8,2.9-3.8,5.6C-737.5,1312.7-736.4,1316-732.7,1317.4z"/>
<path fill="none" d="M-903.3,1293.3c3.2-0.1,4.7-2,4.9-5.1c-0.4-3.2-2.2-5-5.3-4.8c-2.8,0.2-4.6,2.1-4.6,4.9
	C-908.3,1291.4-906.5,1293.4-903.3,1293.3z"/>
<path fill="none" d="M-861.8,1409.1c-0.8,3.3,1.2,5.9,2.4,8.7C-859.2,1414.7-859.9,1411.7-861.8,1409.1z"/>
<path fill="none" d="M-725.5,1308.3c-1.4,2.7-0.5,4.8,0.9,7c4.1-0.8,3.1-4.3,3.1-6.8c0-3.4-2.4-5.7-5.4-6.8
	c-2.4-0.9-5.1-1.5-6.6,1.6c1.8,0.1,3.6-0.1,5.3,0.2C-725.4,1304-724.1,1305.8-725.5,1308.3z"/>
<path fill="none" d="M-956.2,1319.1c-2.2-0.2-4.2-0.2-4.6,2.9c-0.4,2.7-0.7,5.3-0.6,7.9c0.7,13.5,1.3,26.9,2,40.4
	c1,18.1,2,36.2,3.1,54.2c0.3,0,0.5,0,0.8,0c0-2.3,0-4.5,0-6.8c0-29,0-58,0-86.9c0-2.7,0-5.3,0.6-7.9
	C-954.7,1321.6-953.3,1319.4-956.2,1319.1z"/>
<path fill="none" d="M-891.6,1330.8c5.1,14.4,10.4,28.8,15.6,43.1c4,11.1,8.1,22.1,12.2,33.2c0.3-0.1,0.7-0.1,1-0.2
	c0-0.5,0.2-1,0.1-1.4c-4.4-14.3-9.1-28.6-13.2-43.1c-3.9-13.7-10.1-26.8-11.3-41.2c-0.2-2.9-2.5-2.1-4.2-2.2c-2.1-0.1-2.5,1.4-2.2,3
	C-892.9,1325-892.6,1328-891.6,1330.8z"/>
<path fill="none" d="M-1023.8,1319c-2.3-0.2-4.2-0.2-4.7,3c-0.5,3.7-0.8,7.3-0.6,10.9c1.6,28.1,3.1,56.2,4.7,84.3
	c-0.3,5.3-0.3,10.6,1.6,16.2c-0.1-5.8,0.7-11-0.1-16.2c0-28.7,0.1-57.3,0.2-86c0-2.8,0.3-5.6,0.5-8.5
	C-1022.2,1321.2-1020.8,1319.2-1023.8,1319z"/>
<path fill="none" d="M-1062.6,1288c1.1,0,1.8-0.9,1.9-1.9c0.2-1.3-0.5-2.1-1.7-2.6c-1.4-0.1-1.6,0.9-1.6,1.9
	C-1064,1286.5-1064.3,1288-1062.6,1288z"/>
<path fill="none" d="M-918.7,1500.7c-0.3-1.1-0.6-2.3-2-2.1c-2.2,0.8-4.5,0.7-5.3,3.8c-1.3,5.3-3.2,10.4-4.9,15.6
	c-0.4,1.2-2,3.1,0.1,3.7c1.9,0.6,3.3-0.7,3.2-3.2c-0.1-2.8,1.4-4.1,4.2-4.4c2.9-0.3,3.3,1.5,3.6,3.5c0.5,3.2,2.8,1.5,4.3,1.4
	c2.3-0.1,1.9-1.7,1.4-3.2C-915.5,1510.9-917.1,1505.8-918.7,1500.7z M-922.8,1511.3c-0.5,0.4-2.2,0.3-2.2,0.2
	c-0.8-2.7,0.4-4.9,1.9-7.1C-923.2,1506.7-919.8,1508.9-922.8,1511.3z"/>
<path fill="none" d="M-872.9,1491.9c-6.3-1.3-5.5,5.9-10,7.7c-0.1-1.8,0-3.3-0.2-4.7c-0.5-2.7-2.6-1.4-4-1.3c-1.2,0.1-3,0.1-2.3,2.2
	c1.6,5,0.4,10.2,0.8,15.3c0.1,1.6-0.6,3.5,2.3,3.3c2.4-0.1,3.7-0.7,3.4-3.5c-0.2-1.7-0.8-3.8,0.9-5.5c5.3,8.7,5.3,8.7,10.1,6.2
	c-1.8-3.3-4-6.5-5.4-10.1C-879.1,1497.1-873.3,1495.7-872.9,1491.9z"/>
<path fill="none" d="M-894.9,1510.8c-1.3-3-3.3-5.3-0.2-8.8c1.7-1.9,1.6-6.2-2.4-6.4c-3.9-0.3-7.8,1-11.8,1.6c-1,0.2-1.4,0.9-1,1.8
	c1.8,5,0.7,10.1,0.8,15.2c0,1.5-0.8,3.7,2.1,3.4c1.9-0.2,4.2-0.2,3.6-3.3c-0.3-1.6,0-3.3,0-4.9c-0.2-2.3-0.4-4.6-0.4-6.8
	c0-1.5-0.7-3.5,1.6-4.1c1-0.3,2,0.2,2.5,1.2c0.8,1.8,0.9,3.8-0.7,4.9c-1.8,1.3-3.1,2.3-1.5,4.5l0,0l0,0.1c0.8,0.6,1.2,1.4,1.3,2.3
	c-0.1,0-0.2-0.1-0.3-0.1c0.1,0,0.2,0.1,0.3,0.1c0.1,0.3,0.2,0.7,0.3,1.1c0.1,0.3,0.3,0.6,0.4,0.8c-0.1-0.3-0.3-0.6-0.4-0.8
	c0.1,0.3,0.3,0.6,0.4,0.8c1.2,3.6,4,3.4,6.4,2.1C-890.7,1513.6-894.3,1512.2-894.9,1510.8z"/>
<path fill="none" d="M-807.9,1504.5c-2.2,0.8-4.7,1.8-5.5-1.6c-0.7-2.7-0.8-5.5,3.5-5c1.1,0.1,2.1-0.4,2-1.6
	c-0.1-1.4-1.2-1.2-2.2-1.2c-1.9,0.2-3.7,0.3-3.5-2.7c0.2-2.9,1.7-3.4,4-2.5c1.5,0.6,2.2,0.2,2.4-1.3c0.3-2-1.3-1.5-2.3-1.5
	c-3.6-0.1-7.2,0-11.4,0c2.6,4.2,1.6,8.1,1.7,11.8c0.1,9.8,0,9.7,10,9.2c2.7-0.1,3.5-1.2,3.2-4.2
	C-807,1504.3-807.4,1504.4-807.9,1504.5z"/>
<path fill="none" d="M-845.8,1496.5c-2.5-1.3,0.1-2.1,0.5-2.9c2.2-4.5,0.5-7.6-4.5-7.4c-3.5,0.1-6.9,0.6-10.4,1
	c-1,0.1-2.8,0.2-1.8,1.9c2.3,3.8,0.5,7.8,1,10.1c0,4,0.1,6.5,0,8.9c-0.1,2.1,0.4,3.2,2.7,2.8c2.9-0.4,6-0.6,8.9-1.1
	c3.4-0.7,5.6-2.8,6.4-6.2C-842.2,1500.7-842.6,1498.1-845.8,1496.5z M-853.3,1489.4c1.2-0.9,2.5,0.4,2.7,1.9c0.3,2.7-0.1,5-3.8,5.2
	C-854.3,1494-855.9,1491.2-853.3,1489.4z M-852.3,1507.4c-3.2,0.1-1.9-2.8-2.4-4.5c0.5-1.6-1.2-4.4,2.4-4.3c2.6,0.1,3.4,1.8,3.2,4.1
	C-849.1,1504.9-849.5,1507.3-852.3,1507.4z"/>
<path fill="none" d="M-831.3,1503.9c-1.2-3.3-0.5-6.3,4.3-5.8c0.7,0.1,1-0.8,0.9-1.5c-0.2-1-0.9-1.4-1.8-1.3c-2.2,0.2-4,0.1-3.8-3
	c0.3-3.6,2.7-2,4.4-1.8c1.3,0.2,1.8-0.3,2-1.5c0.2-1.2-0.2-1.9-1.6-1.8c-3.3,0.2-6.6,0.5-9.9,0.8c-0.9,0.1-2.2,0.3-1.5,1.8
	c1.7,3.1,0.8,6.5,0.8,9.8c0.1,10.6,0.1,10.5,10.7,8.8c2.6-0.4,2.8-1.6,2.3-3.6C-826.8,1504.5-829.9,1507.6-831.3,1503.9z"/>
<path fill="none" d="M-786,1494.7c2.4-2.5,0.1-6.5-3.5-7c-4.2-0.6-8.5-0.9-12.8-0.1c0.5,1.2,1.1,2.2,1.1,3.1
	c0.1,4.8,0.2,9.7-0.1,14.5c-0.1,2.6,1,3,3.2,3.1c2.3,0,2.9-0.9,2.6-3c-0.2-1.8,0-3.6,0-6.5c3.1,2.6,3.4,5.5,4.8,7.9
	c1.8,3.2,4.4,2.4,7.4,1.9c-0.9-1.8-1.6-3-2.3-4.3C-787.3,1501-789.6,1498.4-786,1494.7z M-794.1,1496.9c-2.8,0-1.1-2.3-1.6-3.4
	c0.2-1.6-0.5-3.7,2.3-3.4c2.2,0.3,2.3,2,2.3,3.7C-791.1,1495.7-792.2,1496.9-794.1,1496.9z"/>
<path fill="none" d="M-733.5,1387.8c-8.9-22.9-17.9-45.8-26.7-68.8c-1.4-3.6-2.7-3.4-5.2-1.6c-2.3,1.7-0.5,3.4,0.1,4.8
	c13.3,32.3,27.5,64.2,41.9,95.9c1.3,4.1,3.2,7.9,5.7,11.5c-1.1-4.4-2.2-8.7-4.6-12.6C-726.1,1407.4-729.8,1397.6-733.5,1387.8z"/>
<path fill="none" d="M-902.2,1510.6c0.1,0.1,0.2,0.3,0.4,0.4C-902,1510.9-902.1,1510.8-902.2,1510.6z"/>
<path fill="#868789" d="M-1104.1,1448.1c24.1-8.5,37-34.5,30.1-58.7c-4-14.3-13.8-24-25.8-32c-6.8-4.5-13.7-8.8-20.4-13.5
	c-6-4.2-11.7-8.9-15.3-15.5c-5.2-9.7-1.3-20,8.9-24.2c9.2-3.8,17-0.2,24.4,4.6c6.3,4.1,10.8,10,13.4,17c1.2,3.2,3.3,3.3,5.9,3
	c3-0.4,1.7-2.8,1.8-4.3c0.2-4.5,0.1-9,0.1-13.5c0-4.8-0.2-9.7,0.1-14.5c0.1-2.6-0.8-3.8-3.2-4.8c-16.3-6.5-33.2-8.5-50.5-5.3
	c-28.2,5.3-45.4,32.2-37.8,58.4c3.5,12.2,12.2,20.3,21.9,27.7c9.2,7.1,19.3,13.1,28,21c4.7,4.3,8.9,9,11.1,15.1
	c4.2,11.5-0.5,21.1-12.2,24.7c-7.4,2.3-14.5,1.2-21.4-1.8c-11.1-4.8-18.2-13.4-21.5-24.8c-1.3-4.4-4.1-3.4-6.9-3.4
	c-4,0.1-2.1,3.2-2.1,4.9c0.2,9,1,18,1,26.9c0,4.3,2,6.3,5.2,8C-1148.3,1454.5-1126.3,1455.9-1104.1,1448.1z M-1133.4,1351
	c-5.2-4-10-8.3-13.4-14c-5.9-9.8-5-19.6,0.5-29.3c0.7-1.1,1.5-2.7,3.4-2.3c0.6,0.6,0.4,1.2,0.2,1.8c-5.9,13.9-3.6,25.1,7.4,35.6
	c7.4,7.1,16,12.5,24.6,17.9c6.9,4.3,13.7,8.9,19.3,14.9c12.2,13.2,14.4,30.2,5.9,46.7c-0.9,2.1-1.4,4.6-5.4,5.2
	c1.5-2.6,2.7-4.6,3.8-6.6c0.3-0.9,0.6-1.7,0.9-2.6c0.2-0.4,0.3-0.9,0.5-1.3c-0.2,0.4-0.3,0.9-0.5,1.3c0.2-0.4,0.3-0.9,0.5-1.3
	c3-12,3.4-23.7-4.6-34.3c-3.9-5.1-8.6-9.2-13.9-12.8C-1113.8,1363.6-1124.2,1358.1-1133.4,1351z"/>
<path fill="#868789" d="M-695.9,1447.8c-4.6-3.2-7-8-8.9-13c-16.7-43.1-33.3-86.2-49.9-129.3c-1.8-4.7-4.5-5.8-9-3.2
	c-4,2.3-7.8,5-12,7.2c-4.2,2.2-6.5,5.5-8.1,10c-13.1,36.8-26.5,73.5-39.8,110.3c-2.5,6.9-5.2,13.8-11.7,18.1c-0.7,0.4-1.5,1-0.9,1.9
	c0.3,0.4,1.1,0.6,1.7,0.6c10.2,0,20.5,0,30.7,0c0.2-0.4,0.4-0.7,0.6-1.1c-5.9-4.2-4.9-9.3-2.6-14.8c1.5-3.7,2.9-7.4,4-11.3
	c0.8-3,2.4-3.8,5.4-3.8c9.8,0.2,19.7,0,29.5,0.1c5.5,0.1,12.2-2.2,16,0.9c3.7,3.1,4.3,9.8,6.3,14.8c1.9,4.8,1.9,9.1-3,12.3
	c-0.7,0.4-1.5,1-1.2,2c0.2,1.1,1.2,0.9,2,0.9c16.6,0,33.3,0,50,0c0.8,0,1.7,0.3,2.2-0.7C-694.4,1448.7-695.3,1448.2-695.9,1447.8z
	 M-792.2,1405.2c-1.9,0-3.3,0-2.4-2.7c5.8-16.4,11.5-32.8,17.6-50.4c7.1,18.2,13.7,35.3,20.6,53.1
	C-768.9,1405.2-780.6,1405.2-792.2,1405.2z M-723.5,1418.3c-14.4-31.8-28.6-63.7-41.9-95.9c-0.6-1.5-2.4-3.2-0.1-4.8
	c2.5-1.8,3.9-2,5.2,1.6c8.7,23,17.8,45.8,26.7,68.8c3.8,9.8,7.5,19.6,11.2,29.3c2.4,3.9,3.5,8.2,4.6,12.6
	C-720.2,1426.2-722.2,1422.4-723.5,1418.3z"/>
<path fill="#868789" d="M-914.6,1333.1c12.8,37.8,25.6,75.7,38.3,113.5c1,3.1,2.5,4.2,5.7,3.9c4.3-0.3,8.7-0.5,13,0
	c4.9,0.7,6.5-1.7,7.9-5.8c13.4-39,27-78,40.5-117c2-5.8,4.4-11.5,9.5-15.5c0.6-0.5,1.5-1,1.3-1.9c-0.3-1.4-1.6-0.9-2.5-0.9
	c-9.8,0-19.7,0-29.5,0c-0.8,0-1.8-0.3-2.3,0.6c-0.6,1.2,0.4,1.8,1.2,2.4c5,4.1,5.2,9.3,3.2,15c-7.9,22.8-15.7,45.7-23.7,68.5
	c-0.4,1.1-0.2,2.8-2.2,3c-0.4-1.2-0.9-2.4-1.3-3.7c-6.4-20.3-12.7-40.7-19.1-61.1c-2.6-8.3-6.8-16.8,3.8-24.4c-19.7,0-37.7,0-57.5,0
	C-920.3,1316.4-917.5,1324.7-914.6,1333.1z M-861.8,1409.1c1.9,2.6,2.6,5.5,2.4,8.7C-860.7,1415-862.6,1412.5-861.8,1409.1z
	 M-891.3,1319c1.6,0.1,3.9-0.7,4.2,2.2c1.2,14.4,7.4,27.5,11.3,41.2c4.1,14.4,8.8,28.7,13.2,43.1c0.1,0.4-0.1,0.9-0.1,1.4
	c-0.3,0.1-0.7,0.1-1,0.2c-4.1-11.1-8.2-22.1-12.2-33.2c-5.2-14.4-10.5-28.7-15.6-43.1c-1-2.8-1.3-5.8-1.8-8.8
	C-893.7,1320.4-893.4,1318.9-891.3,1319z"/>
<path fill="#868789" d="M-899.3,1417c-2.2-0.2-4.7-0.9-6.5,2.1c-8.1,13.1-20.1,18-35.3,16.5c-3.9-0.4-4.9-1.4-4.9-5.3
	c0.1-33.2,0-66.3,0-99.5c0-7.8,1.5-14.9,8.2-19.9c0.1-0.1,0-0.6,0-1.2c-18.2,0-36.4,0-56.4,0c6.6,4.8,9.6,10.2,9.6,16.9
	c0.1,35.5,0.1,71,0,106.5c0,5.5-1.8,10.5-6.3,14.1c-0.8,0.7-2.5,1-1.9,2.5c0.6,1.4,2.1,0.8,3.1,0.8c29.5,0,59,0,88.5,0.1
	c2.8,0,3.7-0.8,3.7-3.7c-0.2-8.5,0-17-0.1-25.5C-897.5,1419.8-896.5,1417.2-899.3,1417z M-954.9,1323c-0.6,2.7-0.6,5.3-0.6,7.9
	c0,29,0,58,0,86.9c0,2.3,0,4.5,0,6.8c-0.3,0-0.5,0-0.8,0c-1-18.1-2.1-36.2-3.1-54.2c-0.7-13.5-1.4-26.9-2-40.4
	c-0.1-2.7,0.2-5.3,0.6-7.9c0.5-3.2,2.5-3.2,4.6-2.9C-953.3,1319.4-954.7,1321.6-954.9,1323z"/>
<path fill="#868789" d="M-1006,1450.4c1.8-0.2,2.1-1.2,0.7-2.2c-8-5.3-8.2-13.5-8.2-21.8c0-30,0-59.9,0-89.9
	c0-9.8-0.8-19.8,8.6-27.2c-17.9,0-35.7,0-53.6,0c-0.6,0-1.4,0.3-1.7,0.7c-0.6,1,0.4,1.4,1,1.9c5.5,4.1,7,10,7,16.3
	c0.1,34.5,0.1,68.9,0,103.4c0,5.7-1.6,10.8-5.8,14.9c-0.9,0.9-2.9,1.2-2.5,2.7c0.6,1.9,2.6,1,3.9,1c16.2,0.1,32.3,0,48.5,0
	C-1007.3,1450.5-1006.7,1450.5-1006,1450.4z M-1022.2,1322.7c-0.2,2.8-0.5,5.7-0.5,8.5c-0.1,28.7-0.1,57.3-0.2,86
	c0.8,5.2,0,10.5,0.1,16.2c-1.9-5.6-1.9-10.9-1.6-16.2c-1.6-28.1-3.1-56.2-4.7-84.3c-0.2-3.7,0-7.3,0.6-10.9c0.4-3.2,2.4-3.1,4.7-3
	C-1020.8,1319.2-1022.2,1321.2-1022.2,1322.7z"/>
<path fill="#868789" d="M-949.5,1296.2c1.7,0.7,2.6-0.3,3-2.2c0.6-2.5,1.9-2.2,3.3-0.4c0.6,0.8,0.9,1.8,2.3,1.9
	c1.2-1.7,2.5-3.4,4.2-5.6c0.4,2.3,0.7,3.7,1,5.2c0.3,1.4,1.4,1.3,2.3,1.2c1.1-0.1,1.3-0.8,1.2-1.8c-0.7-4.5-1.3-9.1-2.1-14.7
	c-2.7,3.9-4.7,6.8-6.9,10.1c-2.2-3.2-4.1-6.2-6.8-10c-0.8,5.2-1.4,9-1.9,12.9C-950.1,1293.9-951.3,1295.5-949.5,1296.2z"/>
<path fill="#868789" d="M-905.7,1296.2c2.2,0.6,4.6,0.1,6.7,1.4c1.1,0.7,2.5,1.6,3.6,0.3c1.9-2-0.9-1.8-1.5-2.6
	c-1-1.2,0-1.8,0.5-2.5c1-1.4,1.6-2.9,1.7-4.2c0.1-4.6-3.4-8.1-8-8.4c-4.5-0.3-8.5,2.5-9.3,6.6
	C-912.7,1291.3-910.2,1295-905.7,1296.2z M-903.7,1283.4c3.1-0.2,4.9,1.6,5.3,4.8c-0.2,3.1-1.6,5.1-4.9,5.1c-3.2,0.1-5-1.9-5-5
	C-908.3,1285.5-906.6,1283.6-903.7,1283.4z"/>
<path fill="#868789" d="M-1011,1296c4,1.2,1.3-3.9,3.5-5.1c4.5,4.4,4.5,4.4,8.7-0.4c1.2,1.2,0.9,2.8,1.1,4.2
	c0.2,1.3,1.1,1.5,2.1,1.5c1,0,1.6-0.4,1.5-1.5c-0.6-4.6-1.3-9.2-2.1-15.1c-2.8,4.1-4.7,7-6.9,10.2c-2.2-3.4-4-6.2-6.6-10.2
	c-0.7,4.3-1.5,7.2-1.6,10.1C-1011.3,1291.9-1013.7,1295.2-1011,1296z"/>
<path fill="#868789" d="M-1047.1,1296.3c1.2,0.2,1.8-0.4,1.9-1.7c0.1-0.9-0.4-2,1-2.6c2.5,0.8,2.8,5.9,7.4,3.7
	c-2.5-3.1-4.6-5.7-2.2-9.8c1.3-2.4-0.7-4.9-3.7-5.2c-2-0.1-5.2-1.9-5.8,1.5c-0.6,4.1-0.2,8.3-0.2,12.4
	C-1048.6,1295.6-1048.1,1296.1-1047.1,1296.3z"/>
<path fill="#868789" d="M-886.6,1285.7c0,0.2,0,0.3,0,0.5c0,0,0,0,0,0c0,1.3-0.1,2.7,0,4c0.3,4.2,2.7,6.3,6.8,6.3
	c3.8,0.1,6.4-1.9,6.9-5.7c0.4-2.8,0.2-5.6,0.1-8.4c0-1.1-0.5-1.9-1.8-1.9c-1.2,0-1.8,0.6-1.9,1.8c-0.1,1.2,0,2.3-0.1,3.5
	c-0.3,2.7,1.4,7-2.9,7.1c-4.9,0.1-2.7-4.5-3.4-7.3c-0.4-1.8,1.6-5.1-2-5C-888.2,1280.7-886.1,1283.9-886.6,1285.7z"/>
<path fill="#868789" d="M-729.5,1320c5.7,0.1,10.5-4.6,10.6-10.2c0.1-5.8-4.4-10.4-10.2-10.5c-6-0.1-10.5,4.2-10.6,10.1
	C-739.7,1315.3-735.2,1319.9-729.5,1320z M-737.4,1309c0.1-2.7,0.3-5.3,3.8-5.6c0,0,0-0.1,0-0.1c0,0,0.1,0,0.1,0
	c1.5-3.2,4.3-2.5,6.6-1.6c3,1.1,5.4,3.3,5.4,6.8c0,2.6,1,6-3.1,6.9c0,0,0,0.1,0.1,0.1c0,0-0.1,0-0.1,0c-1.7,4.4-5.1,3.2-8.1,2
	C-736.4,1316-737.5,1312.7-737.4,1309z"/>
<path fill="#868789" d="M-972.3,1290.9c0.9,5.3,6.8,7.4,11.2,4.3c3-2.2,2.7-5.5,2.7-8.6c0-0.8,0.1-1.7,0-2.5c-0.2-1.4,1-3.7-1.9-3.6
	c-2.8,0.1-1.7,2.3-1.8,3.7c-0.1,1.8-0.1,3.7-0.1,5.5c0,1.9-0.7,3.3-2.8,3.4c-2.3,0.1-3.3-1.3-3.4-3.4c-0.1-2.3-0.1-4.6-0.1-7
	c0-1.3-0.1-2.3-1.8-2.3c-1.5,0-2.2,0.5-2.1,2C-972.5,1285.2-972.8,1288.1-972.3,1290.9z"/>
<path fill="#868789" d="M-865.3,1296c0.6,0.3,2,0.4,2.2,0c2.7-3.4,5.3-4.1,8.1-0.1c0.5,0.7,1.9,0.8,2.7,0.1c0.9-0.7,0.3-1.5,0-2.2
	c-2-4.3-3.9-8.6-6.5-14.2c-2.6,5.6-4.6,9.9-6.6,14.2C-865.6,1294.5-866.2,1295.5-865.3,1296z"/>
<path fill="#868789" d="M-1022.8,1296.4c1.1-0.1,2.5,0.2,2.6-1.5c0.1-1.8-1.2-1.6-2.4-1.7c-1.1-0.1-2.5,0.2-2.6-1.5
	c-0.2-1.9,1.2-2.1,2.6-2.1c0.9,0,1.7-0.3,1.6-1.4c-0.1-1-0.7-1.4-1.7-1.5c-1.3-0.1-2.9-0.1-2.5-2.1c0.3-1.7,1.8-1.1,2.8-1.2
	c1.1,0,2-0.2,1.9-1.6c-0.1-0.6-0.3-1.1-1.1-1.4c-4.3-1.6-7.4,0.4-7.4,4.8c0,1,0,2,0,3C-1028.9,1296.9-1028.9,1296.9-1022.8,1296.4z"
	/>
<path fill="#868789" d="M-1067.2,1285.9c-0.3,0.7,0,1.7,0,3.8c0,0.5-0.1,2.3-0.2,4.2c-0.1,1.3,0.1,2.3,1.7,2.4
	c1.3,0.1,1.9-0.7,1.8-1.8c-0.3-2.3,0.9-3.2,2.9-3.8c3.3-0.9,4.6-3.4,3.6-6.6c-1.2-3.9-4.7-3.8-7.8-3.6
	C-1069.4,1280.8-1066.6,1284.1-1067.2,1285.9z M-1064,1285.4c0-1,0.2-2,1.6-1.9c1.2,0.4,1.9,1.3,1.7,2.6c-0.2,1-0.9,1.9-1.9,1.9
	C-1064.3,1288-1064,1286.5-1064,1285.4z"/>
<path fill="#868789" d="M-789,1295.2c-0.2,0.9,0.9,1.2,1.8,1.2c0.9,0,1.9-0.3,1.7-1.3c-1.1-5.6,3-9.5,5.1-14.2
	c-2.2-0.7-3.7-0.7-4.6,1.3c-1.4,3-2.8,4.1-4.5,0.1c-0.9-2-2.5-2.4-4.7-1.2C-792.2,1285.7-788,1289.5-789,1295.2z"/>
<path fill="#868789" d="M-813.3,1283.3c5.8-0.2,2.8,4.3,3.5,6.1c0,1.5,0,2.5,0,3.5c0,1.4-0.8,3.2,1.6,3.3c2.4,0.1,1.9-1.7,1.9-3.1
	c0-1.5-0.1-3,0-4.5c0.2-2.3-1.3-5.7,3.3-5.4c0.8,0,1.1-0.7,1.1-1.4c-0.1-0.9-0.8-1.4-1.7-1.4c-3,0-6,0-8.9,0c-0.9,0-1.6,0.5-1.7,1.4
	C-814.5,1282.6-814,1283.3-813.3,1283.3z"/>
<path fill="#868789" d="M-841.7,1296.3c2.3,0.1,4.8,0.9,6.8-0.6c1-0.7,0.9-2.6-0.8-2.4c-4.8,0.4-3.9-2.8-3.9-5.5
	c0-1.8,0-3.7-0.1-5.5c0-1.2-0.6-1.8-1.8-1.8c-1.2,0-1.8,0.7-1.9,1.9c0,2,0,4,0,6c0,0,0,0,0,0c0,1.5-0.1,3,0,4.5
	C-843.3,1294.1-844,1296.2-841.7,1296.3z"/>
<path fill="#868789" d="M-824.2,1296.3c1.5-0.1,1.8-1.1,1.8-2.4c0-1.8,0-3.6,0-5.5c0,0,0,0,0,0c0-2,0-4,0-6c0-1.4-0.6-2.2-2.1-2.1
	c-1.2,0.1-1.7,0.8-1.8,1.9c0,4,0,7.9,0,11.9C-826.3,1295.7-825.7,1296.4-824.2,1296.3z"/>
<path fill="#868789" d="M-983.4,1296.4c1.6,0,1.9-0.9,1.8-2.2c-0.1-1.8,0-3.7,0-5.5c0,0,0,0,0,0c0-2,0-4,0-6c0-1.3-0.2-2.2-1.8-2.3
	c-1.4,0-2.2,0.5-2.2,2c0,4,0,8,0,11.9C-985.5,1295.8-984.8,1296.4-983.4,1296.4z"/>
<path fill="#9B9899" d="M-1018.7,1492.2c2.3,0.5,4.2-0.1,6.5-1.7c-2.6,0-4.8-0.7-6.8,0.4
	C-1018.9,1491.3-1018.8,1491.8-1018.7,1492.2z"/>
<path fill="#9B9899" d="M-1141.4,1491.5c-0.3,0.1-0.7,0.1-0.7,0.2c0,0.6,0.4,0.5,0.8,0.4
	C-1141.1,1491.9-1141.1,1491.6-1141.4,1491.5z"/>
<path fill="#9B9899" d="M-1079.7,1491c0.4-0.1,0.9-0.1,1.3-0.1C-1078.9,1490.2-1079.3,1490.3-1079.7,1491z"/>
<path fill="#545454" d="M-902.3,1509.1L-902.3,1509.1c-0.5,0.1-1,0.2-1.5,0.3C-903.3,1509.3-902.8,1509.2-902.3,1509.1z"/>
<path fill="#545454" d="M-902.2,1509.1c-0.2,0.6-0.2,1.1,0,1.5c0.1,0.1,0.2,0.3,0.4,0.4c0.2,0.1,0.4,0.2,0.6,0.3
	c0.1,0,0.2,0.1,0.3,0.1C-901,1510.5-901.4,1509.7-902.2,1509.1z"/>
<path fill="#545454" d="M-901.2,1511.3c-0.2-0.1-0.5-0.2-0.6-0.3C-901.7,1511.2-901.5,1511.3-901.2,1511.3z"/>
<path fill="#868789" d="M-744.1,1480.8c-0.4-0.2-0.9-0.4-1.4-0.6c-17.8-7.4-36.8-9.2-55.7-9.6c-37.4-0.8-74.5,3.6-111.2,10.2
	c-40.9,7.3-81.5,16.6-122.9,20.9c-36.3,3.7-72.7,6.6-109.5-3.2c10.4,14.4,14.2,29.8,13.1,46.4c-0.2,3.6,0.8,4.9,4.1,5.8
	c16.7,4.8,33.8,6,51,6c32.1,0,63.8-4,95.4-9c44.6-7,88.8-16.4,133.7-20.9c32.6-3.2,65.2-4.4,97.3,3.9c4.1,1.1,3.9-0.6,3.9-3.5
	c0.1-11.3,2.8-22,7.6-32.2c1.4-2.9,5.8-5.6,3.9-8.6C-736.6,1483.7-741,1482.6-744.1,1480.8z M-1079.1,1537c-1.9,4.1-7.2,6.1-12,4.4
	c-1.1-0.4-2.4-0.7-2.3-2.1c0-1,0.2-2.2,0.8-2.8c1.3-1.3,1.9,0.5,2.7,1.1c1.9,1.2,3.9,1.7,5.2-0.4c1.2-2-0.3-3.4-1.9-4.5
	c-1-0.6-2-1.2-3-1.8c-3.4-2.1-4.8-5-3.6-8.9c1.2-3.9,4.2-5.3,8.5-5.6c0.8,0.2,2.1,0.4,3.4,0.8c1.7,0.5,1.9,1.7,1.4,3.1
	c-0.6,1.9-1.5,1.7-2.9,0.6c-1.5-1.2-3.6-1.7-4.7,0.5c-0.9,1.8,0.6,3.1,2.1,4c0.6,0.4,1.2,0.7,1.7,1
	C-1078.7,1529.3-1077.2,1532.9-1079.1,1537z M-1058.3,1521.7c-0.1,0.9-0.4,1.9-1.4,1.6c-6.6-2.4-4.1,2.8-4.5,5.4
	c-0.2,1.1,0,2.3,0,3.5c0,0,0,0,0,0c0,2-0.2,4,0,6c0.3,2.5-0.8,3.1-3.1,3.2c-2.3,0.1-2.8-0.9-2.8-2.9c0.1-4,0-8,0-11.9
	c0-2.4-0.3-4-3.3-3c-0.9,0.3-2.3,1.6-2.6-0.5c-0.2-1.2,0.5-2.4,1.9-2.4c4.8-0.2,9.6-0.3,14.4-0.3
	C-1058.8,1520-1058.2,1520.6-1058.3,1521.7z M-1048.4,1530.6c-0.8,2.4-0.4,4.4-0.2,6.3c0.2,2.3-0.5,3.3-2.9,3.4
	c-2.7,0.1-2.8-1-2.9-3.2c-0.1-5.2,1-10.6-0.8-15.7c-0.6-1.7,0.9-1.8,2-1.9c3.3-0.3,6.6-0.7,9.9-0.8c3.7-0.1,6.4,3.6,4.2,6.3
	c-3.9,4.7-0.9,7.7,1.2,11.2c0.4,0.7,0.8,1.4,1.2,2.2C-1045.3,1542.9-1044.4,1533.5-1048.4,1530.6z M-1025.5,1538.3
	c-5.4,0-8.9-3.9-8.9-9.9c0-7.2,5.4-12.8,12.5-12.9c5.5-0.1,8.6,3.5,8.6,9.9C-1013.2,1533-1018.3,1538.3-1025.5,1538.3z
	 M-992.9,1533.3c-1.7,0.3-2.8-0.2-3.8-1.6c-2.3-3.2-4.7-6.2-7.8-10.2c0,4.6,0,7.7,0,10.9c0,1.3,0.2,2.7-1.8,2.8
	c-2,0-1.9-1.2-1.9-2.6c-0.3-5.4,1.1-10.9-0.8-16.3c-0.4-1.2,0.5-1.9,1.7-1.9c2.1,0.1,4.5-1.8,6.3,1.1c1.7,2.8,3.8,5.4,6.3,9
	c0-4,0.1-6.9,0-9.7c-0.1-1.4,0.1-2.2,1.6-2.4c1.7-0.2,1.8,0.8,1.8,2.1c0,5.5,0.1,11,0.2,16.4C-991.2,1532.1-991.3,1533-992.9,1533.3
	z M-978,1531.1c-5.1,0.1-8.3-3.3-8.5-9c-0.2-7.6,5.5-13.5,13.3-13.9c4.5-0.2,5,0.5,3.2,5.2c-3.3-2.9-6.5-3.2-9.2,0.6
	c-2.3,3.3-1.7,11.3,0.8,13.1c1.2,0.8,2.4,1.2,3.7,0.1c1.5-1.2,1.4-2.9,0.9-4.5c-0.3-1-1.8-2,0.1-2.8c1.4-0.5,2.9-0.9,4.4-0.8
	c1.8,0.2,0.9,1.8,1,2.8C-968.3,1528.7-970.7,1530.9-978,1531.1z M-946,1524.7c-9,2.4-9,2.4-9-6.8c0-0.8,0-1.7,0-3
	c-0.6-3,1-6.7-1.1-10.2c-0.8-1.4,0.2-2.1,1.5-2.4c4.2-0.7,8.5-1.6,12.7-2.1c4-0.5,6.2,1.8,7.1,5.5
	C-932.8,1514.3-937.7,1522.5-946,1524.7z M-915.4,1519.1c-1.5,0.1-3.8,1.7-4.3-1.4c-0.3-2.1-0.7-3.8-3.6-3.5
	c-2.8,0.3-4.3,1.6-4.2,4.4c0.1,2.4-1.3,3.7-3.2,3.2c-2.1-0.6-0.5-2.4-0.1-3.7c1.6-5.2,3.6-10.3,4.9-15.6c0.8-3.1,3.1-3,5.3-3.8
	c1.5-0.2,1.7,1,2,2.1c1.5,5.1,3.1,10.1,4.7,15.2C-913.5,1517.5-913,1519-915.4,1519.1z M-893.8,1515.4c-2.3,1.4-5.2,1.6-6.4-2.1
	c-0.1-0.3-0.3-0.6-0.4-0.8c-0.1-0.4-0.2-0.7-0.3-1.1c-0.1,0-0.2-0.1-0.3-0.1c-0.2-0.1-0.5-0.2-0.6-0.3c-0.1-0.1-0.3-0.2-0.4-0.4
	c-0.2-0.4-0.2-0.9,0-1.5l0-0.1l0,0l0,0c-0.5,0.1-1,0.2-1.5,0.3c0,1.6-0.3,3.3,0,4.9c0.6,3.2-1.7,3.1-3.6,3.3c-2.8,0.3-2.1-2-2.1-3.4
	c0-5.1,1.1-10.2-0.8-15.2c-0.3-1,0.1-1.7,1-1.8c3.9-0.6,7.9-1.9,11.8-1.6c4,0.3,4.1,4.5,2.4,6.4c-3.1,3.5-1.1,5.8,0.2,8.8
	C-894.3,1512.2-890.7,1513.6-893.8,1515.4z M-882,1505.3c-1.7,1.7-1.1,3.8-0.9,5.5c0.3,2.8-1,3.4-3.4,3.5c-2.9,0.2-2.1-1.8-2.3-3.3
	c-0.4-5.1,0.9-10.3-0.8-15.3c-0.7-2.1,1.1-2.2,2.3-2.2c1.4-0.1,3.5-1.3,4,1.3c0.2,1.4,0.2,2.9,0.2,4.7c4.5-1.8,3.7-9,10-7.7
	c-0.5,3.7-6.2,5.2-4.5,9.5c1.4,3.5,3.6,6.7,5.4,10.1C-876.8,1514-876.8,1514-882,1505.3z M-843,1503.7c-0.8,3.4-3.1,5.5-6.4,6.2
	c-2.9,0.6-5.9,0.7-8.9,1.1c-2.3,0.3-2.9-0.7-2.7-2.8c0.2-2.5,0-5,0-8.9c-0.5-2.3,1.3-6.4-1-10.1c-1.1-1.7,0.7-1.8,1.8-1.9
	c3.4-0.4,6.9-0.9,10.4-1c5-0.1,6.7,2.9,4.5,7.4c-0.4,0.8-3,1.6-0.5,2.9C-842.6,1498.1-842.2,1500.7-843,1503.7z M-826.8,1508.4
	c-10.6,1.8-10.5,1.8-10.7-8.8c0-3.2,0.9-6.6-0.8-9.8c-0.8-1.5,0.5-1.7,1.5-1.8c3.3-0.3,6.6-0.5,9.9-0.8c1.4-0.1,1.7,0.6,1.6,1.8
	c-0.2,1.2-0.7,1.7-2,1.5c-1.7-0.2-4.1-1.8-4.4,1.8c-0.2,3,1.6,3.2,3.8,3c0.9-0.1,1.6,0.3,1.8,1.3c0.1,0.7-0.3,1.6-0.9,1.5
	c-4.8-0.6-5.5,2.4-4.3,5.8c1.4,3.7,4.5,0.6,6.9,0.9C-823.9,1506.8-824.2,1508-826.8,1508.4z M-809.3,1508.2c-9.9,0.5-9.8,0.6-10-9.2
	c0-3.8,0.9-7.6-1.7-11.8c4.2,0,7.8,0,11.4,0c1,0,2.6-0.5,2.3,1.5c-0.2,1.5-1,1.9-2.4,1.3c-2.3-0.9-3.8-0.4-4,2.5
	c-0.2,2.9,1.6,2.8,3.5,2.7c1-0.1,2.2-0.2,2.2,1.2c0.1,1.2-0.9,1.8-2,1.7c-4.3-0.5-4.2,2.2-3.5,5c0.8,3.4,3.3,2.4,5.5,1.6
	c0.5-0.2,0.9-0.3,1.7-0.5C-805.8,1507-806.6,1508.1-809.3,1508.2z M-790.8,1506.5c-1.3-2.3-1.7-5.3-4.8-7.9c0,2.9-0.2,4.7,0,6.5
	c0.2,2.1-0.4,3.1-2.6,3c-2.2,0-3.4-0.4-3.2-3.1c0.2-4.8,0.1-9.6,0.1-14.5c0-0.9-0.6-1.9-1.1-3.1c4.3-0.8,8.6-0.5,12.8,0.1
	c3.6,0.5,5.9,4.5,3.5,7c-3.5,3.8-1.2,6.4,0.4,9.4c0.7,1.3,1.4,2.6,2.3,4.3C-786.4,1509-789,1509.7-790.8,1506.5z M-1019,1490.9
	c0.1,0.4,0.2,0.9,0.3,1.3c-22.5,2.8-44.9,5-67.6,5.2c-18.5,0.2-36.9-0.6-55-5.3c0.2-0.2,0.2-0.4-0.1-0.6c17.4-0.1,34.8-0.2,52.2-0.3
	c3.2,0,6.3-0.1,9.5-0.1c0.4-0.1,0.9-0.1,1.3-0.1C-1058.6,1490.9-1038.8,1490.9-1019,1490.9z M-902.3,1509.1c-0.5,0.1-1,0.2-1.5,0.3
	c-0.1-2.3-0.4-4.6-0.4-6.8c0-1.5-0.7-3.5,1.6-4.1c1-0.3,2,0.2,2.5,1.2c0.8,1.8,0.9,3.8-0.7,4.9
	C-902.6,1505.8-904,1506.8-902.3,1509.1z M-941.8,1506.7c1.2,3.9,1.2,7.8-0.5,11.6c-0.9,1.9-2.5,3.3-4.7,3c-2.8-0.4-1.6-2.8-1.8-4.4
	c-0.2-1.5,0-3,0-4.5c0-1.5-0.1-3,0-4.5c0.1-1.5-0.9-3.5,1.8-3.9C-944.6,1503.8-942.5,1504.3-941.8,1506.7z M-849,1502.6
	c-0.1,2.3-0.5,4.7-3.3,4.7c-3.2,0.1-1.9-2.8-2.4-4.5c0.5-1.6-1.2-4.4,2.4-4.3C-849.7,1498.7-848.9,1500.4-849,1502.6z
	 M-853.3,1489.4c1.2-0.9,2.5,0.4,2.7,1.9c0.3,2.7-0.1,5-3.8,5.2C-854.3,1494-855.9,1491.2-853.3,1489.4z M-791.1,1493.7
	c0,2-1.1,3.2-3,3.2c-2.8,0-1.1-2.3-1.6-3.4c0.2-1.6-0.5-3.7,2.3-3.4C-791.2,1490.3-791.1,1492-791.1,1493.7z M-1019.5,1523.1
	c0.2,1.3,0.1,2.7,0.2,4c0,1,0,2-0.2,3c-0.5,2.6-1.3,5.1-4.4,5.2c-3,0.1-3.7-2.5-4.1-4.8c-0.6-2.8-0.5-5.6,0.5-8.3
	c0.8-2.2,2.1-3.9,4.8-3.5C-1020.3,1519.1-1019.8,1521.1-1019.5,1523.1z M-1044.4,1523.5c0.7,3.3-1.1,4.8-4.9,5.8
	c1-2.9-1.4-6.1,2.1-7.7C-1046,1521-1044.8,1522-1044.4,1523.5z M-923.1,1504.3c-0.1,2.4,3.3,4.6,0.3,7c-0.5,0.4-2.2,0.3-2.2,0.2
	C-925.9,1508.7-924.6,1506.5-923.1,1504.3z"/>
<path fill="#868789" d="M-732.8,1315.4c2.8-0.9,0.3-4.2,2.8-4.9c2.4,1,2,5.1,5.4,4.9c0,0,0-0.1,0-0.1c0,0,0,0,0,0
	c-1.5-2.2-2.4-4.2-0.9-7c1.3-2.5,0.1-4.3-2.7-4.8c-1.7-0.3-3.6-0.2-5.3-0.2c0,0,0,0.1,0,0.1c0,0,0,0,0,0
	C-732.8,1307.3-734.1,1311.3-732.8,1315.4z"/>
<path fill="#545454" d="M-724.6,1315.4c0,0,0.1,0,0.1,0c0,0,0-0.1-0.1-0.1C-724.6,1315.3-724.6,1315.3-724.6,1315.4
	C-724.6,1315.3-724.6,1315.3-724.6,1315.4z"/>
<path fill="#545454" d="M-733.5,1303.3c0,0-0.1,0-0.1,0C-733.6,1303.3-733.6,1303.4-733.5,1303.3
	C-733.5,1303.4-733.5,1303.4-733.5,1303.3C-733.5,1303.4-733.5,1303.3-733.5,1303.3z"/>
</svg>
