<!-- Generator: Adobe Illustrator 18.1.1, SVG Export Plug-In  -->
<svg version="1.1"
	 xmlns="http://www.w3.org/2000/svg" xmlns:xlink="http://www.w3.org/1999/xlink" xmlns:a="http://ns.adobe.com/AdobeSVGViewerExtensions/3.0/"
	 x="0px" y="0px" width="46.8px" height="24.75px" viewBox="0 0 46.8 24.75" enable-background="new 0 0 46.8 24.75"
	 xml:space="preserve">
<defs>
</defs>
<path fill="#FFFFFF" stroke="#06244B" stroke-miterlimit="10" d="M45.69,4.43c0.09,0.14,0.09,0.28-0.01,0.42
	c-0.66,1.06-1.32,2.12-1.97,3.19c-0.55,0.92-1.12,1.83-1.69,2.74c-0.56,0.9-1.08,1.82-1.63,2.73c-0.42,0.7-0.86,1.4-1.28,2.1
	c-0.89,1.46-1.78,2.93-2.68,4.39c-0.11,0.17-0.23,0.33-0.34,0.5c-0.03,0.01-0.07,0.01-0.1,0.02l0,0c-0.05-0.07-0.08-0.16-0.14-0.22
	c-0.81-0.88-1.63-1.76-2.44-2.64c-1.49-1.63-2.97-3.27-4.46-4.91c-0.62-0.68-1.24-1.36-1.86-2.05c1.32-0.47,2.63-0.94,3.95-1.4
	c1.31-0.46,2.61-0.93,3.91-1.4c1.9-0.69,3.81-1.33,5.71-2.02c0.3-0.11,0.65-0.13,0.9-0.37c0.05-0.01,0.09-0.02,0.14-0.03
	c0.06,0.05,0.11,0.04,0.15-0.02c1.1-0.18,2.2-0.37,3.25-0.75C45.31,4.63,45.43,4.37,45.69,4.43z"/>
<path fill="#FFFFFF" stroke="#06244B" stroke-miterlimit="10" d="M45.69,4.43c-0.26-0.06-0.38,0.2-0.59,0.27
	c-1.05,0.39-2.15,0.58-3.25,0.75c-0.05,0.01-0.1,0.01-0.15,0.02c-0.05,0.01-0.09,0.02-0.14,0.03c-0.44,0.03-0.88,0.07-1.32,0.09
	c-2.15,0.06-4.31,0.04-6.43-0.37c-2.55-0.49-5.09-1.03-7.21-2.67c-0.16-0.42,0.02-0.7,0.38-0.91c0.8-0.47,1.69-0.67,2.59-0.81
	c4.7-0.69,9.32-0.3,13.83,1.22c0.77,0.26,1.52,0.57,2.21,1.01c0.14,0.09,0.28,0.18,0.4,0.29c0.41,0.35,0.38,0.57-0.09,0.86
	C45.84,4.26,45.77,4.35,45.69,4.43z"/>
<path fill="#FFFFFF" stroke="#06244B" stroke-miterlimit="10" d="M36.02,20.63c-3.09,0.77-6.17,1.55-9.26,2.32
	c-1.68,0.42-3.36,0.83-5.03,1.25c-0.11,0.03-0.22,0.07-0.33,0.04c0-0.25-0.01-0.51,0.01-0.76c0.12-1.63,0.23-3.27,0.3-4.91
	c0.02-0.59,0.09-1.18,0.14-1.77c0.02-0.01,0.05-0.02,0.07-0.03c0.6,0.25,1.23,0.35,1.85,0.52c1.94,0.53,3.89,1.06,5.84,1.59
	c1.54,0.42,3.09,0.84,4.64,1.24c0.58,0.15,1.15,0.36,1.76,0.41c0,0,0,0,0,0C36,20.56,36.01,20.59,36.02,20.63z"/>
<path fill="#FFFFFF" stroke="#06244B" stroke-miterlimit="10" d="M35.99,20.52c-0.61-0.05-1.18-0.27-1.76-0.41
	c-1.55-0.39-3.09-0.82-4.64-1.24c-1.95-0.53-3.89-1.05-5.84-1.59c-0.62-0.17-1.25-0.27-1.85-0.52c0.39-0.64,0.94-1.16,1.42-1.72
	c1.17-1.38,2.35-2.75,3.53-4.13c0.07-0.09,0.13-0.19,0.19-0.28c0.02,0.02,0.04,0.05,0.05,0.07c0.62,0.68,1.24,1.36,1.86,2.05
	c1.49,1.64,2.97,3.27,4.46,4.91c0.81,0.88,1.63,1.76,2.44,2.64C35.91,20.36,35.94,20.45,35.99,20.52z"/>
<path fill="#FFFFFF" stroke="#06244B" stroke-miterlimit="10" d="M27.1,10.71c-0.02-0.02-0.04-0.05-0.05-0.07
	c-0.12-2-0.24-4.01-0.34-6.01c-0.04-0.69-0.17-1.38-0.09-2.07c2.12,1.64,4.66,2.18,7.21,2.67c2.13,0.41,4.28,0.44,6.43,0.37
	c0.44-0.01,0.88-0.06,1.32-0.09c-0.25,0.24-0.6,0.26-0.9,0.37c-1.9,0.69-3.81,1.34-5.71,2.02c-1.3,0.47-2.61,0.94-3.91,1.4
	C29.73,9.77,28.41,10.23,27.1,10.71z"/>
<path fill="#FFFFFF" stroke="#06244B" stroke-miterlimit="10" d="M21.84,16.8c-0.05,0.59-0.12,1.18-0.14,1.77
	c-0.06,1.64-0.17,3.27-0.3,4.91c-0.02,0.25-0.01,0.51-0.01,0.76c-0.12,0.02-0.19-0.08-0.29-0.11c0-0.11-0.09-0.14-0.16-0.19
	c-0.74-0.53-1.42-1.12-2.16-1.65c-1.48-1.08-2.93-2.2-4.39-3.3c0.01-0.18,0.18-0.24,0.28-0.33c0.46-0.38,0.85-0.85,1.4-1.11
	c1.87-0.25,3.74-0.5,5.6-0.74C21.74,16.79,21.79,16.8,21.84,16.8z"/>
<path fill="#FFFFFF" stroke="#06244B" stroke-miterlimit="10" d="M8.67,20.43c0.13-0.32,0.41-0.56,0.49-0.91
	c0.43-0.63,0.96-1.19,1.21-1.94c0.33-0.39,0.59-0.83,0.83-1.29c0.33-0.5,0.66-0.99,0.98-1.49c2.06,0.17,4.11,0.34,6.17,0.51
	c0.01,0.04,0.02,0.08,0.03,0.12c0,0-0.01,0.01-0.01,0.01c-0.4,0.11-0.76,0.33-1.12,0.52c-1.38,0.72-2.74,1.47-4.11,2.2
	c-1.32,0.71-2.65,1.41-3.99,2.1C9.01,20.34,8.89,20.57,8.67,20.43z"/>
<path fill="#FFFFFF" stroke="#06244B" stroke-miterlimit="10" d="M18.35,15.32c-2.06-0.17-4.11-0.34-6.17-0.51c0-1.7,0-3.4,0-5.1
	c0.02,0,0.04,0,0.06,0c2.06,1.82,4.12,3.64,6.17,5.46c0.01,0.02,0.01,0.05,0.02,0.08C18.41,15.28,18.38,15.3,18.35,15.32z"/>
<path fill="#FFFFFF" stroke="#06244B" stroke-miterlimit="10" d="M18.42,15.18c-2.06-1.82-4.12-3.64-6.17-5.46
	c0.03-0.17,0.19-0.23,0.31-0.32c0.48-0.37,0.95-0.75,1.46-1.08c0.43-0.28,0.77-0.69,1.27-0.87c0.28,0.24,0.33,0.61,0.46,0.93
	c0.65,1.56,1.28,3.12,1.91,4.69c0.23,0.56,0.45,1.12,0.67,1.68C18.38,14.88,18.46,15.02,18.42,15.18z"/>
<path fill="#FFFFFF" stroke="#06244B" stroke-miterlimit="10" d="M8.67,20.43c0.22,0.14,0.34-0.09,0.48-0.17
	c1.34-0.69,2.66-1.39,3.99-2.1c1.37-0.73,2.73-1.48,4.11-2.2c0.36-0.19,0.72-0.4,1.12-0.52c-0.66,0.64-1.39,1.2-2.08,1.81
	c-0.09,0.08-0.24,0.11-0.21,0.28c-0.55,0.26-0.94,0.73-1.4,1.11c-0.1,0.08-0.28,0.14-0.28,0.33c-0.07,0.03-0.15,0.04-0.21,0.08
	c-0.6,0.5-1.2,1.01-1.8,1.52c-0.12,0.1-0.27,0.19-0.3,0.37c-0.18,0-0.3,0.13-0.42,0.23c-0.71,0.61-1.43,1.21-2.14,1.82
	c-0.09,0.08-0.16,0.22-0.32,0.15c0-0.02,0-0.04-0.01-0.05c-0.01-0.09-0.02-0.17-0.04-0.26c-0.21-0.76-0.45-1.51-0.59-2.29
	C8.61,20.52,8.64,20.48,8.67,20.43z"/>
<path fill="#FFFFFF" stroke="#06244B" stroke-miterlimit="10" d="M12.1,20.95c0.03-0.18,0.18-0.27,0.3-0.37
	c0.59-0.51,1.2-1.02,1.8-1.52c0.05-0.05,0.14-0.06,0.21-0.08c1.46,1.1,2.91,2.22,4.39,3.3c0.73,0.53,1.42,1.13,2.16,1.65
	c0.07,0.05,0.16,0.09,0.16,0.19c-0.17,0.05-0.32-0.05-0.47-0.1c-2.77-0.98-5.54-1.96-8.31-2.94C12.24,21.05,12.15,21.04,12.1,20.95z
	"/>
<path fill="#FFFFFF" stroke="#06244B" stroke-miterlimit="10" d="M5.93,16.64c0.15-0.92,0.41-1.82,0.63-2.73
	c0.53-2.2,1.06-4.39,1.59-6.58c0.02-0.1,0.07-0.19,0.1-0.28c0.09,0.02,0.12,0.08,0.12,0.17c0.08,1.04,0.16,2.08,0.23,3.12
	c0.06,0.93,0.09,1.86,0.17,2.79C8.8,13.4,8.77,13.7,8.9,13.97c-0.01,0.05-0.01,0.1-0.02,0.16c-0.53,0.48-1.05,0.98-1.61,1.43
	C6.82,15.91,6.44,16.36,5.93,16.64z"/>
<path fill="#FFFFFF" stroke="#06244B" stroke-miterlimit="10" d="M5.93,16.64c0.51-0.28,0.89-0.73,1.34-1.08
	c0.56-0.44,1.07-0.95,1.61-1.43c0.77,0.73,1.55,1.45,2.32,2.18c-0.23,0.46-0.49,0.9-0.83,1.29c-0.04-0.1-0.12-0.11-0.21-0.12
	c-1.38-0.23-2.76-0.45-4.14-0.68c0,0,0.01,0,0.01,0C6,16.75,5.98,16.74,5.94,16.78C5.87,16.74,5.86,16.69,5.93,16.64z"/>
<path fill="#FFFFFF" stroke="#06244B" stroke-miterlimit="10" d="M15.29,7.44c-0.5,0.18-0.84,0.6-1.27,0.87
	c-0.51,0.32-0.98,0.71-1.46,1.08c-0.11,0.09-0.28,0.14-0.31,0.32c-0.02,0-0.04,0-0.06,0c-0.05,0-0.1-0.01-0.15-0.01
	c0.02-0.14-0.09-0.2-0.18-0.27c-1.14-0.89-2.28-1.77-3.42-2.65c0.05-0.2,0.2-0.1,0.3-0.09c2.08,0.19,4.17,0.4,6.25,0.6
	C15.09,7.3,15.24,7.28,15.29,7.44z"/>
<path fill="#FFFFFF" stroke="#06244B" stroke-miterlimit="10" d="M9.21,23.11c0.01,0.02,0.01,0.03,0.01,0.05
	c-0.38-0.04-0.72-0.2-1.08-0.33c-1.41-0.51-2.83-1-4.25-1.5c-0.14-0.05-0.31-0.05-0.37-0.22c0-0.18,0.16-0.25,0.26-0.36
	c0.32-0.36,0.73-0.65,0.98-1.09c0.12,0.01,0.24-0.01,0.35,0.07c0.01,0.15,0.12,0.22,0.22,0.29c0.66,0.53,1.33,1.07,2.01,1.59
	C7.95,22.11,8.54,22.66,9.21,23.11z"/>
<path fill="#FFFFFF" stroke="#06244B" stroke-miterlimit="10" d="M6.01,16.79c1.38,0.23,2.76,0.46,4.14,0.68
	c0.09,0.01,0.18,0.02,0.21,0.12c-0.25,0.74-0.78,1.31-1.21,1.94c-0.33-0.1-0.52-0.39-0.77-0.59c-0.78-0.65-1.53-1.32-2.3-1.98
	C6.05,16.91,6,16.86,6.01,16.79z"/>
<path fill="#FFFFFF" stroke="#06244B" stroke-miterlimit="10" d="M8.9,13.97C8.77,13.7,8.8,13.4,8.78,13.12
	c-0.09-0.93-0.11-1.86-0.17-2.79C8.53,9.29,8.45,8.25,8.38,7.21C8.37,7.13,8.34,7.06,8.25,7.05c0-0.07-0.02-0.14,0.08-0.16
	c0.19,0.1,0.23,0.3,0.3,0.46c0.4,0.89,0.79,1.79,1.19,2.69C9.52,11.35,9.21,12.66,8.9,13.97z"/>
<path fill="#FFFFFF" stroke="#06244B" stroke-miterlimit="10" d="M9.21,23.11c-0.67-0.44-1.26-1-1.89-1.49
	c-0.68-0.52-1.34-1.05-2.01-1.59c-0.09-0.07-0.21-0.15-0.22-0.29c1.08,0.27,2.15,0.53,3.23,0.8c0.09,0.02,0.17,0.05,0.26,0.02
	c0.14,0.78,0.38,1.53,0.59,2.29C9.19,22.93,9.2,23.02,9.21,23.11z"/>
<path fill="#FFFFFF" stroke="#06244B" stroke-miterlimit="10" d="M9.83,10.04c-0.4-0.9-0.79-1.8-1.19-2.69
	c-0.07-0.17-0.11-0.37-0.3-0.46c0-0.06,0.01-0.12,0.1-0.11c1.14,0.88,2.28,1.77,3.42,2.65c0.09,0.07,0.2,0.13,0.18,0.27
	C11.3,9.81,10.56,9.93,9.83,10.04z"/>
<path fill="#FFFFFF" stroke="#06244B" stroke-miterlimit="10" d="M4.75,19.67c-0.24,0.44-0.65,0.72-0.98,1.09
	c-0.1,0.11-0.25,0.18-0.26,0.36c-0.03,0-0.06-0.01-0.09-0.01c-0.02-0.01-0.04-0.03-0.06-0.04c-0.65-0.56-1.22-1.2-1.83-1.8
	c-0.14-0.14-0.28-0.29-0.4-0.46C2.35,19.07,3.57,19.29,4.75,19.67z"/>
<path fill="#FFFFFF" stroke="#06244B" stroke-miterlimit="10" d="M18.35,15.32c0.03-0.02,0.06-0.05,0.09-0.07
	c0.1,0.1,0.06,0.16-0.06,0.19C18.37,15.4,18.36,15.36,18.35,15.32z"/>
<path fill="#FFFFFF" stroke="#06244B" stroke-miterlimit="10" d="M3.36,21.06c0.02,0.01,0.04,0.03,0.06,0.04
	C3.4,21.08,3.38,21.07,3.36,21.06z"/>
<path fill="#FFFFFF" stroke="#06244B" stroke-miterlimit="10" d="M36.02,20.63c-0.01-0.04-0.02-0.07-0.03-0.11
	c0.03-0.01,0.07-0.01,0.1-0.02C36.07,20.55,36.04,20.59,36.02,20.63z"/>
<path fill="#FFFFFF" stroke="#06244B" stroke-miterlimit="10" d="M5.94,16.78C5.98,16.74,6,16.75,6.02,16.8
	C5.99,16.79,5.97,16.78,5.94,16.78z"/>
<path fill="#FFFFFF" stroke="#06244B" stroke-miterlimit="10" d="M41.7,5.48c0.05-0.01,0.1-0.01,0.15-0.02
	C41.81,5.52,41.76,5.53,41.7,5.48z"/>
</svg>
