<!-- Generator: Adobe Illustrator 18.1.1, SVG Export Plug-In  -->
<svg version="1.1"
	 xmlns="http://www.w3.org/2000/svg" xmlns:xlink="http://www.w3.org/1999/xlink" xmlns:a="http://ns.adobe.com/AdobeSVGViewerExtensions/3.0/"
	 x="0px" y="0px" width="31.97px" height="7.8px" viewBox="0 0 31.97 7.8" enable-background="new 0 0 31.97 7.8"
	 xml:space="preserve">
<defs>
</defs>
<path fill-rule="evenodd" clip-rule="evenodd" fill="#868789" d="M0,7.78h4.02V3.62H0L0,7.78z M2.01,7C1.32,7,0.75,6.42,0.75,5.7
	c0-0.72,0.56-1.3,1.25-1.3c0.69,0,1.25,0.58,1.25,1.3C3.26,6.42,2.7,7,2.01,7z M2.01,2.66c-0.69,0-1.25-0.58-1.25-1.3
	c0-0.72,0.56-1.3,1.25-1.3c0.69,0,1.25,0.58,1.25,1.3C3.26,2.08,2.7,2.66,2.01,2.66z M7.77,0.99C7.75,0.87,7.73,0.76,7.73,0.66H7.31
	v1.9c0.12,0.01,0.25,0.03,0.35,0.05v0.33H6.44V2.61c0.1-0.02,0.23-0.04,0.35-0.05v-1.9H6.37c-0.01,0.1-0.03,0.21-0.05,0.33H5.94
	V0.23h2.22v0.76H7.77z M9.83,2.94V1.66c0-0.2-0.06-0.33-0.25-0.33c-0.26,0-0.47,0.29-0.47,0.65v0.58c0.1,0.01,0.21,0.02,0.29,0.05
	v0.33H8.28V2.61c0.1-0.02,0.21-0.04,0.33-0.05V0.4c-0.1-0.02-0.23-0.03-0.34-0.04V0.04C8.52,0.01,8.82-0.01,9.12,0v0.86
	c0,0.12-0.01,0.29-0.03,0.41h0C9.2,1.05,9.43,0.9,9.75,0.9c0.45,0,0.59,0.28,0.59,0.63v1.02c0.1,0.01,0.23,0.03,0.32,0.05v0.33H9.83
	z M10.81,2.94V2.61c0.1-0.02,0.23-0.04,0.35-0.05V1.34c-0.1-0.02-0.23-0.03-0.35-0.04V0.97c0.26-0.03,0.57-0.04,0.86-0.04v1.62
	c0.11,0.01,0.23,0.03,0.33,0.05v0.33H10.81z M11.42,0.64c-0.17,0-0.32-0.14-0.32-0.31c0-0.17,0.14-0.31,0.32-0.31
	c0.18,0,0.32,0.14,0.32,0.31C11.74,0.5,11.6,0.64,11.42,0.64z M13.73,2.94V1.66c0-0.2-0.06-0.33-0.24-0.33
	c-0.26,0-0.47,0.29-0.47,0.64v0.59c0.1,0.01,0.2,0.02,0.29,0.05v0.33h-1.16V2.61c0.1-0.02,0.23-0.04,0.35-0.05V1.34
	c-0.09-0.02-0.23-0.03-0.35-0.04V0.97c0.26-0.03,0.57-0.04,0.83-0.04c0,0.09-0.01,0.25-0.03,0.36h0c0.12-0.23,0.35-0.4,0.68-0.4
	c0.45,0,0.59,0.28,0.59,0.63v1.02c0.12,0.01,0.24,0.03,0.33,0.05v0.33H13.73z M16.24,2.94L15.5,1.93v0.63
	c0.1,0.01,0.19,0.02,0.25,0.05v0.33h-1.09V2.61c0.1-0.02,0.21-0.04,0.33-0.05V0.4c-0.1-0.02-0.23-0.03-0.34-0.04V0.04
	C14.9,0.01,15.21-0.01,15.5,0v1.84l0.46-0.54c-0.07-0.01-0.14-0.02-0.19-0.04V0.94h1.08v0.33c-0.08,0.02-0.18,0.04-0.27,0.04
	l-0.5,0.55l0.54,0.7c0.09,0.01,0.19,0.02,0.29,0.04v0.33H16.24z M19.22,2.98c-0.82,0-1.23-0.53-1.23-1.36c0-0.9,0.6-1.44,1.33-1.44
	c0.82,0,1.23,0.53,1.23,1.36C20.55,2.44,19.95,2.98,19.22,2.98z M19.27,0.65c-0.42,0-0.73,0.32-0.73,0.91
	c0,0.58,0.24,0.95,0.72,0.95c0.42,0,0.73-0.32,0.73-0.91C19.99,1.03,19.76,0.65,19.27,0.65z M22.31,2.94c0-0.1,0.01-0.25,0.03-0.36
	h-0.01c-0.12,0.23-0.35,0.4-0.68,0.4c-0.45,0-0.6-0.29-0.6-0.63V1.34c-0.09-0.02-0.22-0.03-0.32-0.04V0.97
	c0.23-0.03,0.54-0.04,0.84-0.03v1.28c0,0.21,0.06,0.33,0.24,0.33c0.26,0,0.47-0.29,0.47-0.64V1.33C22.2,1.32,22.09,1.3,21.99,1.3
	V0.97c0.24-0.02,0.53-0.04,0.8-0.03v1.6c0.1,0.02,0.22,0.03,0.33,0.04v0.33C22.88,2.94,22.57,2.95,22.31,2.94z M24.09,2.98
	c-0.44,0-0.58-0.16-0.58-0.63V1.34h-0.35v-0.4h0.35V0.33l0.51-0.14v0.75h0.49v0.4h-0.49v0.88c0,0.26,0.06,0.33,0.24,0.33
	c0.08,0,0.16-0.01,0.23-0.03l0.04,0.4C24.39,2.96,24.23,2.98,24.09,2.98z M25.37,2.98c-0.16,0-0.36-0.02-0.53-0.06v-0.6h0.33
	C25.18,2.4,25.2,2.5,25.2,2.59c0.06,0.02,0.14,0.02,0.2,0.02c0.2,0,0.34-0.09,0.34-0.24c0-0.35-0.96-0.17-0.96-0.83
	c0-0.36,0.29-0.64,0.86-0.64c0.15,0,0.34,0.02,0.52,0.06v0.57h-0.33c-0.02-0.08-0.03-0.17-0.04-0.26c-0.06-0.01-0.13-0.02-0.18-0.02
	c-0.22,0-0.32,0.09-0.32,0.22c0,0.35,0.96,0.19,0.96,0.82C26.26,2.69,25.92,2.98,25.37,2.98z M26.51,2.94V2.61
	c0.1-0.02,0.23-0.04,0.35-0.05V1.34c-0.09-0.02-0.23-0.03-0.35-0.04V0.97c0.26-0.03,0.57-0.04,0.86-0.04v1.62
	c0.11,0.01,0.23,0.03,0.33,0.05v0.33H26.51z M27.12,0.64c-0.17,0-0.32-0.14-0.32-0.31c0-0.17,0.14-0.31,0.32-0.31
	c0.18,0,0.32,0.14,0.32,0.31C27.44,0.5,27.29,0.64,27.12,0.64z M29.23,2.94c0-0.1,0.01-0.23,0.02-0.34h-0.01
	c-0.1,0.22-0.33,0.38-0.63,0.38c-0.49,0-0.73-0.36-0.73-0.94c0-0.67,0.39-1.14,1.06-1.14c0.08,0,0.16,0,0.25,0.02V0.4
	c-0.1-0.02-0.23-0.03-0.35-0.04V0.04C29.1,0.01,29.42-0.01,29.71,0v2.54c0.1,0.02,0.23,0.03,0.33,0.04v0.32
	C29.81,2.94,29.5,2.95,29.23,2.94z M29.2,1.34c-0.09-0.02-0.18-0.03-0.27-0.03c-0.29,0-0.5,0.18-0.5,0.68
	c0,0.37,0.11,0.57,0.34,0.57c0.27,0,0.43-0.31,0.43-0.65V1.34z M31.95,2.03h-1.23c0,0.37,0.17,0.55,0.55,0.55
	c0.19,0,0.39-0.04,0.58-0.12l0.06,0.39c-0.22,0.08-0.48,0.13-0.72,0.13c-0.63,0-0.98-0.32-0.98-1.02c0-0.6,0.35-1.06,0.95-1.06
	c0.58,0,0.83,0.37,0.83,0.85C31.97,1.83,31.96,1.94,31.95,2.03z M31.11,1.28c-0.21,0-0.36,0.16-0.39,0.41h0.73
	C31.47,1.43,31.33,1.28,31.11,1.28z M7.77,5.81C7.75,5.69,7.73,5.58,7.73,5.48H7.31v1.9c0.12,0.01,0.25,0.03,0.35,0.05v0.33H6.44
	V7.43c0.1-0.02,0.23-0.04,0.35-0.05v-1.9H6.37c-0.01,0.1-0.03,0.21-0.05,0.33H5.94V5.05h2.22v0.76H7.77z M9.83,7.76V6.48
	c0-0.2-0.06-0.33-0.25-0.33c-0.26,0-0.47,0.29-0.47,0.65v0.58c0.1,0.01,0.21,0.02,0.29,0.05v0.33H8.28V7.43
	c0.1-0.02,0.21-0.04,0.33-0.05V5.22C8.51,5.2,8.38,5.19,8.27,5.18V4.86c0.25-0.03,0.56-0.04,0.85-0.04v0.86
	c0,0.12-0.01,0.28-0.03,0.41h0C9.2,5.87,9.43,5.72,9.75,5.72c0.45,0,0.59,0.29,0.59,0.63v1.02c0.1,0.01,0.23,0.03,0.32,0.05v0.33
	H9.83z M12.6,6.85h-1.23c0,0.37,0.16,0.55,0.55,0.55c0.19,0,0.39-0.04,0.58-0.12l0.06,0.39c-0.22,0.08-0.48,0.13-0.72,0.13
	c-0.63,0-0.98-0.32-0.98-1.02c0-0.6,0.35-1.06,0.95-1.06c0.58,0,0.83,0.37,0.83,0.85C12.62,6.65,12.62,6.76,12.6,6.85z M11.77,6.1
	c-0.21,0-0.36,0.16-0.39,0.41h0.73C12.12,6.25,11.99,6.1,11.77,6.1z M14.89,7.77c-0.15,0-0.4-0.01-0.8-0.01h-0.35V7.43
	c0.1-0.02,0.23-0.04,0.35-0.05V5.43c-0.12-0.01-0.25-0.03-0.35-0.05V5.05h0.34c0.21,0,0.56-0.02,0.89-0.02
	c0.59,0,0.91,0.24,0.91,0.67c0,0.27-0.13,0.5-0.39,0.61v0.01c0.32,0.07,0.49,0.33,0.49,0.61C15.98,7.32,15.71,7.77,14.89,7.77z
	 M14.89,5.45c-0.11,0-0.18,0-0.27,0.01v0.71c0.07,0,0.12,0,0.21,0c0.36,0,0.51-0.15,0.51-0.39C15.33,5.59,15.21,5.45,14.89,5.45z
	 M14.85,6.56c-0.04,0-0.17,0-0.23,0v0.76c0.06,0.01,0.17,0.02,0.29,0.02c0.34,0,0.51-0.16,0.51-0.4
	C15.42,6.67,15.19,6.56,14.85,6.56z M17.21,7.8c-0.57,0-0.93-0.29-0.93-1c0-0.63,0.41-1.08,1.02-1.08c0.57,0,0.93,0.31,0.93,1
	C18.23,7.35,17.81,7.8,17.21,7.8z M17.26,6.16c-0.23,0-0.45,0.18-0.45,0.6c0,0.4,0.15,0.61,0.45,0.61c0.25,0,0.44-0.2,0.44-0.6
	C17.7,6.36,17.55,6.16,17.26,6.16z M19.74,7.76L19.39,7.1l-0.35,0.66h-0.67V7.43c0.1-0.02,0.2-0.04,0.3-0.05l0.41-0.63l-0.38-0.61
	c-0.1-0.01-0.2-0.03-0.31-0.05V5.76h0.69l0.35,0.65l0.35-0.65h0.65v0.33c-0.1,0.02-0.21,0.04-0.31,0.05l-0.37,0.6l0.39,0.63
	c0.1,0.01,0.21,0.03,0.3,0.05v0.33H19.74z M21.02,7.8c-0.18,0-0.33-0.15-0.33-0.33c0-0.18,0.15-0.32,0.33-0.32
	c0.18,0,0.33,0.15,0.33,0.32C21.35,7.65,21.2,7.8,21.02,7.8z"/>
</svg>
