<!-- Generator: Adobe Illustrator 18.1.1, SVG Export Plug-In  -->
<svg version="1.1"
	 xmlns="http://www.w3.org/2000/svg" xmlns:xlink="http://www.w3.org/1999/xlink" xmlns:a="http://ns.adobe.com/AdobeSVGViewerExtensions/3.0/"
	 x="0px" y="0px" width="13.19px" height="17.81px" viewBox="0 0 13.19 17.81" enable-background="new 0 0 13.19 17.81"
	 xml:space="preserve">
<defs>
</defs>
<g>
	
		<linearGradient id="SVGID_1_" gradientUnits="userSpaceOnUse" x1="-166.6301" y1="-277.8399" x2="-158.0465" y2="-286.4236" gradientTransform="matrix(1 0 0 1 166.7325 287.2076)">
		<stop  offset="0" style="stop-color:#FFFFFF"/>
		<stop  offset="1" style="stop-color:#868789"/>
	</linearGradient>
	<path fill="url(#SVGID_1_)" d="M6.78,0.14C5.74,0.34,4.9,0.78,4.22,1.35c-0.2,0.17-0.38,0.34-0.54,0.53
		C3.05,2.58,2.4,3.63,2.03,4.62C1.4,6.28,1.19,7.84,0.26,8.72c-0.7,0.65,0.16,0.93,0.72,0.68C1.65,9.15,2.27,8.64,3.1,7.38
		c0.71-1.09,1.71-3.09,3.65-3.96c1.65-0.75,3-0.4,2.69,0.54C9.58,3.67,9.67,3.39,9.7,3.11C9.83,1.53,8.45,0.1,6.78,0.14z"/>
</g>
<g>
	
		<linearGradient id="SVGID_2_" gradientUnits="userSpaceOnUse" x1="-155.6901" y1="-274.4396" x2="-158.1745" y2="-281.2653" gradientTransform="matrix(1 0 0 1 166.7325 287.2076)">
		<stop  offset="0" style="stop-color:#FFFFFF"/>
		<stop  offset="1" style="stop-color:#868789"/>
	</linearGradient>
	<path fill="url(#SVGID_2_)" d="M9.74,5.51C9.38,5.65,9,5.8,8.62,5.95c-2.04,0.92-1.84,1.9-1.66,2.27C7,8.3,7.03,8.35,7.04,8.36
		c2.06,3.17,6.14,3.64,6.15,3.63C11.14,10.12,9.03,6.83,9.74,5.51z"/>
</g>
<g>
	
		<linearGradient id="SVGID_3_" gradientUnits="userSpaceOnUse" x1="-158.8051" y1="-287.4885" x2="-156.1857" y2="-280.2919" gradientTransform="matrix(1 0 0 1 166.7325 287.2076)">
		<stop  offset="0" style="stop-color:#FFFFFF"/>
		<stop  offset="1" style="stop-color:#868789"/>
	</linearGradient>
	<path fill="url(#SVGID_3_)" d="M12.94,2.29c-1.4-3.1-6.16-2.15-6.16-2.15l0,0C8.45,0.1,9.83,1.53,9.7,3.11
		C9.67,3.39,9.58,3.67,9.44,3.95c-0.33,0.66-0.91,1.31-1.56,1.9C6.52,7.05,6.76,7.86,6.96,8.22C6.78,7.85,6.57,6.86,8.62,5.95
		C11.35,4.88,13.69,4.17,12.94,2.29z"/>
</g>
<path fill="#868789" d="M4.04,13.14v2.38H3.29v-2.38H2.55v-0.67H4.8v0.67H4.04z M7.68,12.47H6.9L6.4,14.18l-0.51-1.71H5.11
	l1.01,3.05h0.56L7.68,12.47z M9.5,13.45c0,0.16-0.12,0.31-0.33,0.31H8.75v-0.62h0.42C9.38,13.15,9.5,13.3,9.5,13.45z M10.41,15.52
	l-0.66-1.27c0.24-0.12,0.5-0.38,0.5-0.8c0-0.5-0.36-0.98-1.04-0.98H8v3.05h0.75v-1.14H9l0.54,1.14H10.41z M4.89,17.34
	c-0.02,0.1-0.06,0.17-0.13,0.23c-0.06,0.06-0.15,0.09-0.24,0.09c-0.05,0-0.1-0.01-0.15-0.03c-0.05-0.02-0.09-0.04-0.12-0.08
	c-0.03-0.02-0.04-0.05-0.06-0.08c-0.01-0.03-0.03-0.06-0.03-0.1c-0.01-0.04-0.01-0.09-0.01-0.14c0-0.06,0-0.12,0-0.21
	c0-0.08,0-0.15,0-0.21c0-0.06,0.01-0.1,0.01-0.14c0.01-0.04,0.02-0.07,0.03-0.1c0.02-0.03,0.03-0.06,0.06-0.08
	c0.03-0.04,0.08-0.06,0.12-0.08c0.05-0.02,0.1-0.03,0.15-0.03c0.1,0,0.18,0.03,0.24,0.08c0.06,0.06,0.11,0.13,0.13,0.23h0.17
	c-0.01-0.07-0.04-0.14-0.07-0.2c-0.03-0.06-0.07-0.11-0.12-0.14c-0.05-0.04-0.1-0.07-0.16-0.09c-0.06-0.02-0.13-0.03-0.19-0.03
	c-0.16,0-0.29,0.05-0.4,0.16c-0.04,0.04-0.06,0.08-0.08,0.11C4.02,16.54,4,16.58,3.99,16.63c-0.01,0.05-0.01,0.1-0.02,0.17
	c0,0.06,0,0.13,0,0.22s0,0.16,0,0.22c0,0.06,0.01,0.12,0.02,0.17c0.01,0.05,0.02,0.09,0.04,0.13c0.02,0.04,0.05,0.08,0.08,0.11
	c0.11,0.11,0.24,0.16,0.4,0.16c0.07,0,0.13-0.01,0.19-0.03c0.06-0.02,0.11-0.05,0.16-0.09c0.05-0.04,0.08-0.09,0.12-0.15
	c0.03-0.06,0.05-0.12,0.07-0.2H4.89z M6.39,17.79v-0.15h-0.8v-1.41H5.43v1.56H6.39z M7.67,16.24H7.51v1.03
	c0,0.06-0.01,0.11-0.03,0.16c-0.02,0.05-0.04,0.09-0.08,0.12c-0.03,0.03-0.07,0.06-0.12,0.08c-0.05,0.02-0.1,0.03-0.16,0.03
	c-0.06,0-0.11-0.01-0.15-0.03c-0.05-0.02-0.09-0.04-0.12-0.08c-0.03-0.03-0.06-0.07-0.08-0.12c-0.02-0.05-0.03-0.1-0.03-0.16v-1.03
	H6.58v1.04c0,0.08,0.01,0.15,0.04,0.21c0.03,0.06,0.06,0.12,0.11,0.17c0.05,0.05,0.11,0.08,0.17,0.11c0.06,0.03,0.14,0.04,0.22,0.04
	c0.08,0,0.15-0.01,0.22-0.04c0.07-0.03,0.12-0.06,0.17-0.11c0.05-0.05,0.09-0.1,0.12-0.17c0.03-0.06,0.04-0.14,0.04-0.21V16.24z
	 M8.7,16.24H8.53v1.06c0,0.11-0.03,0.2-0.08,0.27c-0.06,0.06-0.13,0.09-0.23,0.09c-0.07,0-0.12-0.01-0.15-0.03
	C8.03,17.61,8,17.59,7.97,17.56l-0.11,0.11c0.05,0.05,0.1,0.08,0.16,0.11c0.06,0.02,0.12,0.03,0.2,0.03c0.07,0,0.13-0.01,0.19-0.03
	c0.06-0.02,0.11-0.05,0.15-0.1c0.04-0.04,0.08-0.09,0.1-0.15c0.02-0.06,0.04-0.13,0.04-0.2V16.24z"/>
</svg>
