<!-- Generator: Adobe Illustrator 18.1.1, SVG Export Plug-In  -->
<svg version="1.1"
	 xmlns="http://www.w3.org/2000/svg" xmlns:xlink="http://www.w3.org/1999/xlink" xmlns:a="http://ns.adobe.com/AdobeSVGViewerExtensions/3.0/"
	 x="0px" y="0px" width="27.7px" height="18.09px" viewBox="0 0 27.7 18.09" enable-background="new 0 0 27.7 18.09"
	 xml:space="preserve">
<defs>
</defs>
<path fill="#868789" d="M6.62,17.56c0,0.01,0,0.03,0,0.04c0,0.06-0.02,0.12-0.05,0.19c-0.03,0.07-0.09,0.14-0.18,0.19
	c-0.09,0.05-0.21,0.08-0.37,0.08H5.78v-0.96h0.18c0.09,0,0.17,0,0.24,0.02c0.07,0.01,0.13,0.03,0.19,0.07
	c0.06,0.03,0.11,0.07,0.14,0.12c0.03,0.05,0.05,0.09,0.07,0.13C6.61,17.48,6.62,17.52,6.62,17.56z M6.43,17.59
	c0-0.06-0.02-0.12-0.05-0.17c-0.03-0.05-0.07-0.08-0.12-0.1c-0.05-0.02-0.09-0.03-0.13-0.03c-0.04,0-0.09-0.01-0.14-0.01l0,0.61
	c0.07,0,0.14,0,0.19-0.01c0.05-0.01,0.11-0.03,0.17-0.07C6.4,17.78,6.43,17.7,6.43,17.59z M7.18,17.11H6.98v0.96h0.19V17.11z
	 M8.44,17.11H8.24v0.71l-0.43-0.71H7.59v0.96h0.19v-0.7l0.44,0.7h0.21V17.11z M10.56,17.23c-0.05-0.05-0.11-0.08-0.16-0.1
	c-0.05-0.02-0.1-0.03-0.13-0.04c-0.03-0.01-0.06-0.01-0.1-0.01c-0.08,0-0.16,0.02-0.23,0.05c-0.07,0.03-0.12,0.07-0.17,0.12
	c-0.05,0.05-0.08,0.1-0.1,0.14c-0.02,0.04-0.03,0.08-0.04,0.1c0,0.02-0.01,0.05-0.01,0.07c0,0.05,0.01,0.1,0.02,0.15
	c0.01,0.05,0.04,0.1,0.07,0.15c0.04,0.06,0.09,0.11,0.17,0.15c0.08,0.04,0.16,0.07,0.26,0.07c0.03,0,0.06,0,0.09-0.01
	c0.03,0,0.07-0.01,0.12-0.02c0.05-0.01,0.1-0.04,0.16-0.08c0.06-0.04,0.11-0.1,0.14-0.17h-0.23c-0.04,0.04-0.08,0.06-0.12,0.08
	c-0.04,0.02-0.09,0.03-0.14,0.03c-0.09,0-0.17-0.03-0.24-0.09c-0.07-0.06-0.11-0.14-0.11-0.24c0-0.06,0.01-0.11,0.05-0.16
	c0.03-0.05,0.07-0.09,0.11-0.11c0.04-0.02,0.08-0.04,0.1-0.05c0.03-0.01,0.06-0.01,0.09-0.01c0.1,0,0.19,0.04,0.27,0.12h0.22
	C10.65,17.33,10.62,17.28,10.56,17.23z M11.52,17.9H11.2v-0.79h-0.19v0.96h0.51V17.9z M12.55,17.11h-0.19v0.65
	c0,0.05-0.01,0.09-0.04,0.11c-0.02,0.02-0.05,0.03-0.06,0.04c-0.02,0.01-0.04,0.01-0.06,0.01c-0.04,0-0.08-0.02-0.11-0.04
	c-0.03-0.03-0.05-0.07-0.05-0.12v-0.65h-0.19v0.65c0,0.09,0.03,0.16,0.08,0.21c0.05,0.05,0.1,0.08,0.14,0.1
	c0.04,0.02,0.09,0.02,0.14,0.02c0.06,0,0.12-0.02,0.18-0.05c0.05-0.03,0.1-0.07,0.13-0.13c0.03-0.05,0.05-0.11,0.05-0.16V17.11z
	 M13.45,17.11h-0.19v0.69c0,0.04-0.01,0.07-0.02,0.09c-0.02,0.02-0.04,0.03-0.07,0.03c-0.02,0-0.04-0.01-0.06-0.02
	c-0.02-0.01-0.03-0.03-0.03-0.05h-0.19c0,0.07,0.03,0.13,0.09,0.17c0.06,0.05,0.13,0.07,0.22,0.07c0.07,0,0.13-0.03,0.18-0.08
	c0.05-0.05,0.08-0.12,0.08-0.19V17.11z M14.25,17.58h-0.39v0.15h0.39V17.58z M15.5,17.11h-0.19v0.71l-0.43-0.71h-0.22v0.96h0.19
	v-0.7l0.44,0.7h0.21V17.11z M16.85,18.07h-0.21l-0.11-0.25h-0.37l-0.12,0.25h-0.21l0.44-0.96h0.15L16.85,18.07z M16.45,17.65
	l-0.11-0.29l-0.11,0.29H16.45z M17.84,17.42c-0.01,0.09-0.04,0.16-0.1,0.21c-0.06,0.05-0.14,0.08-0.25,0.08h-0.13v0.36h-0.19v-0.96
	h0.28c0.1,0,0.17,0.01,0.24,0.05c0.06,0.03,0.1,0.07,0.11,0.1c0.02,0.04,0.03,0.06,0.03,0.09C17.84,17.37,17.84,17.39,17.84,17.42z
	 M17.64,17.41c0-0.08-0.06-0.12-0.18-0.12h-0.1v0.25h0.1c0.06,0,0.1-0.01,0.14-0.03C17.63,17.48,17.64,17.45,17.64,17.41z
	 M19.21,17.63c0,0.06-0.03,0.12-0.07,0.2c-0.04,0.07-0.09,0.13-0.15,0.17c-0.06,0.04-0.12,0.07-0.17,0.08
	c-0.05,0.01-0.1,0.02-0.17,0.02c-0.08,0-0.16-0.02-0.23-0.05c-0.07-0.03-0.13-0.07-0.18-0.12c-0.04-0.05-0.07-0.1-0.09-0.16
	c-0.02-0.06-0.03-0.11-0.03-0.16c0-0.11,0.02-0.19,0.06-0.25c0.04-0.06,0.08-0.1,0.11-0.13c0.04-0.03,0.09-0.06,0.15-0.09
	c0.06-0.03,0.14-0.04,0.23-0.04c0.07,0,0.15,0.01,0.21,0.04c0.07,0.03,0.13,0.07,0.18,0.12c0.05,0.05,0.09,0.1,0.1,0.15
	c0.02,0.05,0.03,0.09,0.04,0.12C19.21,17.56,19.21,17.59,19.21,17.63z M19.02,17.59c0-0.04-0.01-0.08-0.02-0.12
	c-0.02-0.04-0.04-0.07-0.07-0.1c-0.03-0.03-0.06-0.06-0.09-0.07c-0.03-0.01-0.06-0.02-0.09-0.03c-0.02-0.01-0.05-0.01-0.07-0.01
	c-0.09,0-0.17,0.02-0.23,0.07c-0.06,0.04-0.1,0.09-0.12,0.13c-0.02,0.04-0.03,0.09-0.03,0.14c0,0.03,0,0.06,0.02,0.09
	c0.01,0.03,0.03,0.06,0.06,0.1c0.03,0.04,0.07,0.07,0.12,0.09c0.05,0.03,0.1,0.04,0.15,0.04c0.1,0,0.17-0.02,0.22-0.07
	c0.05-0.05,0.08-0.09,0.11-0.13C19.01,17.68,19.02,17.64,19.02,17.59z M20.44,17.23c-0.05-0.05-0.11-0.08-0.16-0.1
	c-0.05-0.02-0.1-0.03-0.13-0.04c-0.03-0.01-0.06-0.01-0.1-0.01c-0.08,0-0.16,0.02-0.23,0.05c-0.07,0.03-0.12,0.07-0.17,0.12
	c-0.05,0.05-0.08,0.1-0.1,0.14c-0.02,0.04-0.03,0.08-0.04,0.1c0,0.02-0.01,0.05-0.01,0.07c0,0.05,0.01,0.1,0.02,0.15
	c0.01,0.05,0.04,0.1,0.07,0.15c0.04,0.06,0.09,0.11,0.17,0.15c0.08,0.04,0.16,0.07,0.26,0.07c0.03,0,0.06,0,0.09-0.01
	c0.03,0,0.07-0.01,0.12-0.02c0.05-0.01,0.1-0.04,0.16-0.08c0.06-0.04,0.11-0.1,0.14-0.17h-0.23c-0.04,0.04-0.08,0.06-0.12,0.08
	c-0.04,0.02-0.09,0.03-0.14,0.03c-0.09,0-0.17-0.03-0.24-0.09c-0.07-0.06-0.11-0.14-0.11-0.24c0-0.06,0.02-0.11,0.05-0.16
	c0.03-0.05,0.07-0.09,0.11-0.11c0.04-0.02,0.08-0.04,0.11-0.05c0.03-0.01,0.06-0.01,0.09-0.01c0.1,0,0.19,0.04,0.27,0.12h0.22
	C20.53,17.33,20.49,17.28,20.44,17.23z M21.83,18.07h-0.21l-0.11-0.25h-0.37l-0.12,0.25H20.8l0.44-0.96h0.15L21.83,18.07z
	 M21.42,17.65l-0.11-0.29l-0.11,0.29H21.42z M0.03,12.53c0.02,0.1,0.05,0.19,0.1,0.26c0.09,0.14,0.21,0.25,0.37,0.32
	c0.16,0.08,0.34,0.11,0.54,0.11c0.2,0,0.38-0.04,0.54-0.11c0.15-0.07,0.28-0.18,0.37-0.32c0.05-0.07,0.08-0.16,0.1-0.26
	c0.02-0.1,0.03-0.24,0.03-0.4v-1.22H1.26v1.23c0,0.14-0.02,0.24-0.05,0.29c-0.04,0.06-0.09,0.08-0.17,0.08
	c-0.08,0-0.14-0.03-0.17-0.08c-0.04-0.05-0.05-0.15-0.05-0.29v-1.23H0l0,1.22C0,12.29,0.01,12.43,0.03,12.53z M3.44,13.16v-0.81
	c0-0.07,0-0.14-0.01-0.2c0-0.06-0.01-0.11-0.02-0.16l0.7,1.17h0.8v-2.26H4.13v0.76c0,0.1,0,0.19,0.01,0.25
	c0,0.06,0.01,0.12,0.02,0.17l-0.7-1.18h-0.8v2.26H3.44z M6.33,13.16v-2.26H5.5v2.26H6.33z M8.22,13.16l0.86-2.26H8.21l-0.25,0.84
	c-0.03,0.1-0.05,0.19-0.07,0.27c-0.02,0.08-0.04,0.16-0.04,0.24H7.83c-0.01-0.07-0.02-0.15-0.03-0.23c-0.02-0.08-0.04-0.18-0.08-0.3
	l-0.24-0.82H6.6l0.86,2.26H8.22z M10.87,13.16v-0.61h-0.73v-0.24h0.65v-0.58h-0.65v-0.22h0.71v-0.61H9.34v2.26H10.87z M11.36,13.16
	v-2.26h1.02c0.3,0,0.52,0.07,0.68,0.2c0.16,0.13,0.23,0.32,0.23,0.56c0,0.16-0.04,0.29-0.12,0.4c-0.08,0.1-0.19,0.17-0.32,0.18
	l0.6,0.92h-0.91l-0.4-0.74v0.74H11.36z M12.15,11.49v0.44h0.13c0.08,0,0.13-0.02,0.18-0.06c0.04-0.04,0.06-0.09,0.06-0.16
	c0-0.07-0.02-0.13-0.06-0.17c-0.04-0.04-0.1-0.06-0.18-0.06H12.15z M14.02,13.16c0.15,0.04,0.29,0.06,0.44,0.06
	c0.29,0,0.52-0.08,0.7-0.24c0.18-0.16,0.27-0.36,0.27-0.61c0-0.15-0.04-0.28-0.14-0.39c-0.09-0.11-0.21-0.18-0.37-0.21
	c-0.02,0-0.05-0.01-0.08-0.02c-0.22-0.05-0.34-0.1-0.34-0.17c0-0.04,0.02-0.06,0.05-0.08c0.03-0.02,0.07-0.03,0.13-0.03
	c0.08,0,0.15,0.02,0.23,0.05c0.08,0.03,0.16,0.07,0.23,0.13l0.25-0.59c-0.12-0.07-0.25-0.12-0.38-0.16
	c-0.13-0.03-0.25-0.05-0.38-0.05c-0.28,0-0.51,0.08-0.68,0.23c-0.17,0.15-0.26,0.35-0.26,0.59c0,0.15,0.05,0.29,0.14,0.39
	c0.09,0.1,0.22,0.18,0.38,0.22c0.03,0.01,0.07,0.02,0.12,0.03c0.16,0.03,0.24,0.08,0.24,0.15c0,0.03-0.01,0.06-0.05,0.08
	c-0.03,0.02-0.08,0.03-0.13,0.03c-0.08,0-0.16-0.02-0.26-0.06c-0.09-0.04-0.19-0.1-0.31-0.18l-0.26,0.63
	C13.72,13.06,13.87,13.12,14.02,13.16z M16.71,13.16v-2.26h-0.82v2.26H16.71z M18.41,13.16v-1.52h0.45v-0.74h-1.71v0.74h0.45v1.52
	H18.41z M18.85,13.16l0.81-2.26h0.9l0.79,2.26h-0.87l-0.07-0.28H19.8l-0.07,0.28H18.85z M19.93,12.34h0.34l-0.07-0.26
	c-0.04-0.13-0.06-0.23-0.07-0.3c-0.01-0.07-0.02-0.14-0.02-0.2h-0.02c0,0.06-0.01,0.13-0.02,0.2c-0.01,0.07-0.04,0.17-0.07,0.3
	L19.93,12.34z M22.61,13.16v-1.52h0.45v-0.74h-1.71v0.74h0.45v1.52H22.61z M25.02,13.16v-0.61h-0.73v-0.24h0.65v-0.58h-0.65v-0.22
	H25v-0.61h-1.51v2.26H25.02z M25.21,13.16l0.81-2.26h0.9l0.79,2.26h-0.87l-0.07-0.28h-0.61l-0.07,0.28H25.21z M26.28,12.34h0.34
	l-0.07-0.26c-0.04-0.13-0.06-0.23-0.07-0.3c-0.01-0.07-0.02-0.14-0.02-0.2h-0.02c0,0.06-0.01,0.13-0.02,0.2
	c-0.01,0.07-0.04,0.17-0.07,0.3L26.28,12.34z M7.29,16.38v-1.52h0.45v-0.74H6.03v0.74h0.45v1.52H7.29z M9.7,16.38v-0.61H8.96v-0.24
	h0.65v-0.58H8.96v-0.22h0.71v-0.61H8.17v2.26H9.7z M11,16.38v-0.79h0.5v0.79h0.81v-2.26h-0.81v0.75H11v-0.75h-0.81v2.26H11z
	 M13.67,16.38v-0.81c0-0.07,0-0.14-0.01-0.2c0-0.06-0.01-0.11-0.02-0.16l0.7,1.17h0.8v-2.26h-0.78v0.76c0,0.1,0,0.19,0,0.25
	c0,0.06,0.01,0.12,0.02,0.17l-0.7-1.18h-0.79v2.26H13.67z M16.56,16.38v-2.26h-0.82v2.26H16.56z M18.82,14.19
	c-0.08-0.04-0.17-0.07-0.26-0.09c-0.09-0.02-0.18-0.03-0.27-0.03c-0.17,0-0.33,0.03-0.48,0.08c-0.14,0.06-0.28,0.14-0.39,0.25
	c-0.11,0.11-0.2,0.24-0.25,0.38c-0.06,0.15-0.09,0.3-0.09,0.47c0,0.23,0.05,0.43,0.15,0.61c0.1,0.17,0.25,0.32,0.45,0.44
	c0.08,0.04,0.17,0.08,0.28,0.1c0.1,0.02,0.21,0.04,0.32,0.04c0.09,0,0.18-0.01,0.26-0.02c0.09-0.02,0.18-0.05,0.27-0.08l0.03-0.85
	c-0.09,0.07-0.18,0.13-0.27,0.16c-0.08,0.04-0.16,0.05-0.24,0.05c-0.13,0-0.23-0.04-0.31-0.12c-0.08-0.08-0.12-0.18-0.12-0.31
	c0-0.14,0.04-0.25,0.12-0.33c0.08-0.08,0.19-0.12,0.32-0.12c0.09,0,0.17,0.02,0.24,0.05c0.08,0.04,0.15,0.09,0.23,0.16V14.19z
	 M19.04,16.38l0.8-2.26h0.9l0.79,2.26h-0.87l-0.07-0.28h-0.61l-0.07,0.28H19.04z M20.12,15.56h0.34l-0.07-0.26
	c-0.03-0.13-0.06-0.23-0.07-0.3c-0.01-0.07-0.02-0.14-0.02-0.2h-0.01c0,0.06-0.01,0.13-0.02,0.2c-0.01,0.07-0.04,0.17-0.07,0.3
	L20.12,15.56z M19.84,13.87h0.92V13.6h-0.92V13.87z M19.84,0l-5.16,0c-0.42,0-0.61,0.14-0.61,0.52v9.07
	c0.73-0.02,1.42-0.18,2.06-0.45V1.43c0-0.32,0.2-0.86,0.78-0.87h2.93V0z M19.84,3.72V1.23h-2.33c-0.42,0-0.72,0.2-0.72,0.58v7.05
	c0.31-0.15,0.65-0.34,0.93-0.55C19.3,7.14,19.84,5.7,19.84,3.72z M19.84,3.72V1.23h-2.33c-0.42,0-0.72,0.2-0.72,0.58v7.05
	c0.31-0.15,0.65-0.34,0.93-0.55C19.3,7.14,19.84,5.7,19.84,3.72z M7.67,0.56h2.93c0.58,0.01,0.78,0.54,0.78,0.87v7.72
	c0.64,0.27,1.33,0.43,2.06,0.45V0.52c0-0.38-0.19-0.52-0.61-0.52L7.67,0V0.56z M9.79,8.31c0.28,0.21,0.62,0.4,0.93,0.55V1.81
	c0-0.38-0.3-0.58-0.72-0.58H7.67v2.48C7.67,5.7,8.22,7.14,9.79,8.31z M9.79,8.31c0.28,0.21,0.62,0.4,0.93,0.55V1.81
	c0-0.38-0.3-0.58-0.72-0.58H7.67v2.48C7.67,5.7,8.22,7.14,9.79,8.31z"/>
</svg>
