<!-- Generator: Adobe Illustrator 18.1.1, SVG Export Plug-In  -->
<svg version="1.1"
	 xmlns="http://www.w3.org/2000/svg" xmlns:xlink="http://www.w3.org/1999/xlink" xmlns:a="http://ns.adobe.com/AdobeSVGViewerExtensions/3.0/"
	 x="0px" y="0px" width="461.72px" height="582.11px" viewBox="0 0 461.72 582.11" enable-background="new 0 0 461.72 582.11"
	 xml:space="preserve">
<defs>
</defs>
<g id="Layer1000_1_">
	<path id="path38_1_" fill="#102A83" stroke="#102A83" stroke-width="0.0237" d="M176.6,499.99c0.1,0,0.25,0,0.35,0
		c0,0.99-0.05,1.95,0.05,2.94c0.15,1.09,0.91,1.95,1.49,2.86c-0.33,0.84-0.66,1.64-0.96,2.48l-0.08,0.18
		c-0.38,0.89-0.56,1.85-0.48,2.81c4.23,0.2,8.48,0.03,12.7,0.1c12.4-0.03,24.82-0.05,37.22,0c0.99,0.1,1.7-0.71,2.56-1.04
		c0.56-0.1,1.11-0.1,1.7-0.2c0.25,0.73,0.46,1.49,0.91,2.13c0.38,0.08,0.81,0.15,1.14-0.1c0.35-0.53,0.46-1.21,0.91-1.67
		c0.73-0.23,1.52-0.23,2.25-0.33c0.4,0.13,0.51,0.53,0.71,0.86c0.33,0.43,0.94,0.33,1.44,0.38c14.93-0.08,29.86-0.03,44.79-0.03
		c1.67,0,3.34,0.13,4.98-0.15c0.08-1.97-0.86-3.72-1.67-5.41c0.53-0.76,1.14-1.44,1.49-2.3c0.33-1.19-0.08-2.5,0.4-3.69
		c0.25,1.29,0.03,2.58,0.23,3.85c0.3,0.84,0.96,1.47,1.49,2.15c-0.3,0.86-0.71,1.7-1.01,2.56c-0.3,0.91-0.28,1.9-0.25,2.86
		c1.82,0.25,3.59-0.35,5.36-0.73c1.24-0.38,2.18,0.78,3.29,1.14c1.97,0.58,4.15-0.23,6.05,0.68l-0.08,0.3
		c-1.57,0.89-3.42,0.3-5.11,0.53c-1.04,0.08-1.92,0.71-2.86,1.14c-0.71,0.38-1.49-0.05-2.2-0.2c-1.39-0.48-2.86-0.66-4.35-0.53
		c-0.46,1.87,0.43,3.67,1.14,5.34c-0.51,0.78-1.14,1.52-1.42,2.43c-0.23,1.16-0.08,2.35-0.28,3.54c-0.3-0.84-0.25-1.72-0.3-2.61
		c-0.08-1.27-0.94-2.28-1.54-3.34c0.53-0.96,1.04-1.97,1.27-3.06c0.28-0.61,0.61-1.27,0.46-1.95c-0.3-0.53-1.01-0.46-1.52-0.53
		c-16.29,0.03-32.59,0.03-48.86,0.03c-0.33,0-0.61,0.15-0.86,0.3l-0.18,0.1c-0.76,0.63-1.82,1.04-2.76,0.58
		c-0.51-0.48-0.81-1.16-1.14-1.77c-0.35,0-0.68,0.03-1.04,0.03c-0.33,0.61-0.58,1.29-1.09,1.77c-0.99,0.4-2.02,0.03-2.78-0.63
		l-0.15-0.08c-0.28-0.15-0.56-0.28-0.89-0.3c-15.08,0.03-30.19,0-45.29,0.03c-1.54-0.03-3.09-0.1-4.63,0.13l-0.25,0.03
		c-0.03,1.06,0.03,2.2,0.48,3.19c0.28,0.73,0.76,1.37,0.94,2.13c-0.13,0.56-0.38,1.09-0.56,1.62c-0.13,0.3-0.2,0.61-0.3,0.91
		l-0.13,0.08c-0.28,0.13-0.46,0.4-0.43,0.71c-0.05,0.81-0.03,1.64,0,2.45c-0.1,0-0.25,0-0.35,0c0-0.99,0.08-1.95-0.1-2.91
		c-0.2-1.11-1.01-1.95-1.64-2.83c0.81-1.67,1.7-3.49,1.21-5.39c-1.29-0.03-2.56,0.03-3.8,0.38c-0.73,0.18-1.47,0.53-2.25,0.53
		c-1.09-0.33-2-1.11-3.16-1.27c-1.52-0.2-3.09,0.13-4.6-0.28c-1.52-0.46-3.14-0.3-4.71-0.3c-47.32,0-94.63,0-141.95,0
		c-2.23,0.03-4.48-0.05-6.71,0.05c-0.1-0.08-0.28-0.2-0.38-0.25l0.3-0.03c50.43,0,100.86,0,151.26,0c0.81,0,1.59-0.18,2.38-0.35
		c1.59-0.35,3.26,0.05,4.86-0.33c1.04-0.25,1.82-1.11,2.88-1.27c1.92,0.2,3.77,1.11,5.74,0.86c0.38-0.38,0.2-1.04,0.25-1.52
		c-0.05-1.42-0.86-2.63-1.37-3.9c0.66-0.84,1.49-1.62,1.67-2.71C176.67,502.09,176.6,501.03,176.6,499.99L176.6,499.99z"/>
	<path id="path40_1_" fill="#102A83" stroke="#102A83" stroke-width="0.0237" d="M183.05,500.63c0.63-1.04,2.53-1.04,2.93,0.23
		c0.43,1.11-0.3,2.18-0.81,3.11c1.09,1.29,2.71,1.97,4.25,2.53c2.61,0.84,5.36,1.21,8.07,1.44c8.38,0.13,16.72,0.1,25.1,0.03
		c0.73,0,1.49-0.15,2.15-0.51c0.05-0.76-0.05-1.59,0.3-2.3c0.73-0.58,2.05-0.48,2.5,0.43c0.46,1.16,0.05,2.68-1.16,3.21
		c-2.13,1.04-4.55,0.94-6.86,0.91c-8.17,0-16.37,0-24.54,0c-1.54,0.03-3.04-0.43-4.58-0.43l-0.13-0.05c-2.35-0.94-4.93-1.8-6.6-3.82
		C182.57,504.14,182.14,502.12,183.05,500.63L183.05,500.63z"/>
	<path id="path42_1_" fill="#102A83" stroke="#102A83" stroke-width="0.0237" d="M279.17,500.88c0.23-0.99,1.44-1.19,2.25-0.84
		c1.04,0.63,1.39,2,1.11,3.14c-0.25,1.57-1.49,2.73-2.68,3.67c-2.5,1.85-5.67,2.45-8.68,2.83c-7.26,0.05-14.52,0-21.79,0.03
		c-2.5-0.05-5.04,0.1-7.54-0.08c-1.52-0.25-3.42-0.46-4.25-1.97c-0.18-0.89-0.4-2.28,0.63-2.73c0.66-0.23,1.54-0.2,1.97,0.4
		c0.23,0.66,0.13,1.42,0.15,2.13c0.68,0.33,1.42,0.51,2.18,0.48c8.02,0.1,16.04,0.13,24.06,0.03c2,0.05,3.95-0.4,5.92-0.66
		c2.66-0.58,5.59-1.21,7.46-3.37C279.5,502.98,278.57,501.99,279.17,500.88z"/>
	<path id="path44_1_" fill="#102A83" stroke="#102A83" stroke-width="0.0237" d="M298.48,513.13c1.7-0.23,3.54,0.35,5.11-0.53
		c25.02-0.08,50.07-0.03,75.1-0.03c24.85,0,49.69-0.05,74.54,0.03c-0.28,0.15-0.58,0.23-0.91,0.23c-49.34,0-98.68,0-148.02,0
		c-0.46-0.08-0.76,0.25-1.06,0.51c-1.95,0.23-3.97-0.25-5.82,0.43c-0.99,0.3-1.82,1.32-2.91,0.96c-1.7-0.46-3.44-0.94-5.21-0.94
		c-0.25,1.85,0.63,3.52,1.44,5.11c-0.3,0.84-1.34,1.27-1.52,2.18c-0.48,1.39-0.13,2.91-0.56,4.3l-0.23-0.15
		c-0.25-0.23-0.56-0.43-0.56-0.81c-0.15-1.01-0.05-2.05-0.2-3.06c-0.28-0.94-1.16-1.57-1.47-2.45c0.53-0.99,1.04-2.02,1.67-2.99
		l0.05-0.08c-0.23,1.09-0.73,2.1-1.27,3.06c0.61,1.06,1.47,2.07,1.54,3.34c0.05,0.89,0,1.77,0.3,2.61c0.2-1.19,0.05-2.38,0.28-3.54
		c0.28-0.91,0.91-1.64,1.42-2.43c-0.71-1.67-1.59-3.47-1.14-5.34c1.49-0.13,2.96,0.05,4.35,0.53c0.71,0.15,1.49,0.58,2.2,0.2
		C296.56,513.83,297.44,513.2,298.48,513.13L298.48,513.13z"/>
	<path id="path46_1_" fill="#102A83" stroke="#102A83" stroke-width="0.0237" d="M192.99,515.35c1.92-0.3,3.87-0.15,5.79-0.2
		c7.67,0,15.36,0.03,23.03,0c1.57,0.03,3.21,0.15,4.66,0.89c1.19,0.63,1.62,2.25,0.99,3.44c-0.53,0.71-1.72,0.73-2.4,0.25
		c-0.38-0.76-0.18-1.64-0.43-2.43c-0.56-0.43-1.34-0.35-2.02-0.4c-6.93,0.03-13.84,0.03-20.77,0.03c-2.33,0.03-4.68-0.13-7.01,0.28
		c-2.56,0.3-5.16,0.73-7.46,1.9c-0.63,0.3-1.09,0.84-1.52,1.37c-0.05,0.05-0.18,0.18-0.23,0.23c-0.08,0.08-0.25,0.25-0.33,0.33
		c0.58,0.99,1.11,2.13,0.71,3.29c-0.76,0.76-2.18,0.71-2.86-0.13c-0.68-0.78-0.73-1.92-0.46-2.88c0.35-1.47,1.47-2.63,2.71-3.42
		C187.68,516.47,190.34,515.76,192.99,515.35L192.99,515.35z"/>
	<path id="path48_1_" fill="#102A83" stroke="#102A83" stroke-width="0.0237" d="M239.75,515.33c3.21-0.25,6.43-0.13,9.64-0.15
		c6.83,0,13.66,0,20.49-0.03c2.76,0.03,5.52,0.71,8.05,1.77c1.87,0.83,3.87,2.02,4.48,4.12c0.43,1.14,0.33,2.58-0.66,3.39
		c-0.83,0.81-2.63,0.48-2.81-0.76c-0.2-1.09,0.73-1.95,0.83-2.99c-0.86-1.16-2.25-1.77-3.57-2.28c-1.64-0.53-3.37-1.06-5.14-0.94
		c-0.1-0.03-0.3-0.08-0.4-0.1c-0.99-0.3-2.02-0.48-3.06-0.46c-8.43-0.03-16.88,0-25.33-0.03c-0.61,0.05-1.32-0.03-1.82,0.4
		c-0.18,0.73-0.08,1.52-0.25,2.25c-0.61,0.73-1.95,0.66-2.56-0.05c-0.28-0.78-0.28-1.72,0.03-2.51c0.46-0.71,1.24-1.14,1.9-1.62
		L239.75,515.33L239.75,515.33z"/>
</g>
<path id="path50_1_" fill="#1B1918" d="M84.97,404.73l0.45,0.45c-3.57,3.46-6.5,7.15-8.77,11.08c-2.28,3.95-5,10.1-8.17,18.48
	l-11.99,31.36l4.89,4.27H42.44l5.42-4.47l-15.02-42.78l-6.33-5.42h20.37l-5.8,5.79l13.55,38.55l1.6-3.81l-12.11-34.16l4.19-4.15
	l0.74,0.78l-3.66,3.62l11.38,32.47l8.7-23.23c2.59-6.89,3.9-11.73,3.9-14.49c0-2.8-1.02-5.18-3.08-7.19l0.78-0.17
	C75.03,410.18,81,407.86,84.97,404.73L84.97,404.73z M87.18,407.24l0.38,0.94c-5.23,4.08-10.62,13.38-16.17,27.91L59.8,466.28
	l6.4,7.47H45.03l-0.91-1.11h19.67l-5.18-6.08l11.78-30.74l2.21-5.83c1.98-5.03,4.3-9.64,6.98-13.82
	C82.28,411.99,84.81,409.02,87.18,407.24z M82.26,417.71h19.46l-5.51,5.58v42.74l5.17,4.36H82.26l5.7-4.72v-42.82L82.26,417.71
	L82.26,417.71z M103.57,420.05l-4.19,4.15v41.83l6.89,7.72H84.94l-1.02-1.11h19.94l-5.62-6.19v-42.63l4.64-4.6L103.57,420.05
	L103.57,420.05z M146.51,418.16c-1.42,1.92-2.56,3.91-3.4,6c-1.67,4.11-2.77,6.61-3.32,7.55l-0.21,0.24
	c-0.11-0.29-0.2-0.53-0.25-0.69c-0.76-2.47-1.39-4.18-1.88-5.14c-0.49-0.95-1.23-1.86-2.21-2.75c-2.49-2.21-5.32-3.32-8.51-3.32
	c-2.93,0-5.35,0.81-7.3,2.44c-1.95,1.64-2.91,3.67-2.91,6.14c0,4.6,3.46,7.73,10.38,9.4l6.94,1.68c9.88,2.38,14.81,7.59,14.81,15.64
	c0,4.5-1.7,8.27-5.07,11.31c-3.38,3.05-7.55,4.58-12.54,4.58c-3.11,0-6.6-0.48-10.47-1.43l-4.79-1.19c-1.95-0.46-3.55-0.7-4.81-0.7
	c-1.67,0-3.39,0.53-5.17,1.6l-0.34-0.57c3.41-5.11,5.79-9.99,7.15-14.62l0.74,0.21c0.57,4.29,2.3,7.62,5.17,10
	c2.87,2.38,6.64,3.57,11.29,3.57c3.66,0,6.57-0.85,8.74-2.55c2.16-1.7,3.24-3.98,3.24-6.85c0-3.31-1.5-6.04-4.51-8.2
	c-2.17-1.54-6.6-2.96-13.3-4.27c-5.17-1.01-8.93-2.69-11.25-5.04s-3.49-5.63-3.49-9.81c0-4.33,1.56-7.83,4.67-10.54
	c3.1-2.69,7.15-4.04,12.12-4.04c3.21,0,6.94,0.57,11.21,1.72c2,0.55,3.48,0.81,4.43,0.81c1.35,0,2.82-0.46,4.4-1.39L146.51,418.16z
	 M149.06,419.88l-0.38,0.62c-1.12,1.89-2.07,3.7-2.87,5.42c-1.91,4.02-3,6.26-3.24,6.73l-0.21,0.29l-0.98-0.41l0.17-0.38
	c0.78-1.81,1.93-4.16,3.45-7.06l2.79-5.41l0.21-0.34L149.06,419.88L149.06,419.88z M137.06,428.05c-3.01-3.21-6.24-4.81-9.68-4.81
	c-2.09,0-3.81,0.6-5.17,1.81c-1.37,1.21-2.06,2.73-2.06,4.6c0,2.03,1.39,4.11,4.15,6.25l0.34,0.21l-0.21,0.32
	c-3.62-1.61-5.42-3.95-5.42-7.02c0-2.13,0.77-3.87,2.3-5.21c1.53-1.35,3.53-2.02,6-2.02c2.35,0,4.41,0.5,6.18,1.5
	c1.77,1.01,3.05,2.41,3.88,4.22L137.06,428.05L137.06,428.05z M146.51,444.35c3.73,2.82,5.59,6.68,5.59,11.57
	c0,5.23-2.03,9.65-6.08,13.28c-4.05,3.63-8.97,5.44-14.77,5.44c-2.96,0-5.63-0.29-8.01-0.9l-6.57-1.6
	c-1.53-0.38-3.17-0.57-4.92-0.57c-1.57,0-3,0.31-4.32,0.94l-0.49-1.19c1.42-0.66,2.87-0.98,4.34-0.98c1.65,0,3.52,0.25,5.63,0.74
	l6.32,1.51c2.52,0.6,5.17,0.9,7.97,0.9c5.46,0,10.13-1.75,13.97-5.24c3.85-3.49,5.77-7.71,5.77-12.65c0-4.19-1.49-7.86-4.44-11
	L146.51,444.35L146.51,444.35z M117.28,456.17c1.01,4.93,3.73,8.42,8.13,10.47v0.34c-5.09-1.49-8.17-5.02-9.23-10.59L117.28,456.17
	L117.28,456.17z M112.15,442.88l1.4,0.77c0.9,1.61,3.54,2.96,7.92,4.02l6.61,1.65c4.48,1.12,7.47,2.09,8.97,2.89
	c1.49,0.81,2.55,2.03,3.18,3.67l-0.29,0.17c-1.23-1.42-2.56-2.47-3.99-3.12c-1.44-0.64-4.2-1.46-8.28-2.41
	c-5.9-1.37-9.88-2.56-11.9-3.56C113.73,445.96,112.53,444.6,112.15,442.88z M154.59,417.71h19.46l-5.51,5.58v42.74l5.17,4.36h-19.13
	l5.7-4.72v-42.82L154.59,417.71L154.59,417.71z M175.91,420.05l-4.19,4.15v41.83l6.89,7.72h-21.34l-1.02-1.11h19.94l-5.62-6.19
	v-42.63l4.64-4.6L175.91,420.05L175.91,420.05z M226.06,417.71c-0.24,0.46-0.41,0.78-0.49,0.94l-2.79,4.93
	c-0.95,1.75-1.85,3.94-2.68,6.57l-0.07,0.2l-0.42-0.28l-0.11-0.53c-0.8-3.12-1.93-5.28-3.39-6.49c-1.47-1.21-3.7-1.81-6.71-1.81
	c-1.23,0-2.47,0.06-3.7,0.17h-0.49v44.5l4.85,4.47h-18.76l5.74-4.81v-40.85l-2.91-0.04c-2.82,0-4.82,0.56-6.01,1.67
	c-1.19,1.11-1.89,3.05-2.12,5.84h-1.07c0.29-3.2,1.12-5.44,2.48-6.68c1.36-1.26,3.59-1.89,6.71-1.89l2.47,0.04h0.45v-2
	c-1.4-0.17-2.72-0.25-3.98-0.25c-3.53,0-6.08,0.71-7.64,2.16c-1.56,1.43-2.42,3.85-2.59,7.27h-0.49c-1.18-3.8-3-8.04-5.45-12.72
	l-0.25-0.41L226.06,417.71L226.06,417.71z M228.65,420.3c-1.88,2.4-3.87,6.39-5.96,11.98l-0.15,0.41l-0.91-0.78l0.13-0.36
	c2.03-5.66,3.98-9.6,5.87-11.81l0.21-0.25L228.65,420.3L228.65,420.3z M217.69,426.69c-2.1-1.36-4.57-2.05-7.38-2.05
	c-0.63,0-1.29,0.04-1.98,0.13l0.17,41.25l6.53,7.72h-20.98l-0.95-1.11h19.67l-5.51-6.28v-42.78l2.21-0.04
	c2.66,0,4.54,0.21,5.65,0.63C216.23,424.6,217.09,425.44,217.69,426.69L217.69,426.69z M293.11,418.98l-0.45,0.77
	c-2.47,4.3-4.6,8.6-6.4,12.89l-0.36,0.94l-0.53-0.28c-0.63-4.16-2.1-7.45-4.4-9.89c-2.3-2.44-5.07-3.66-8.34-3.66
	c-3.48,0-6.38,1.51-8.7,4.55c-2.93,3.78-4.39,10.19-4.39,19.21c0,7.78,1.35,13.87,4.05,18.27c2.69,4.41,6.43,6.61,11.22,6.61
	c3.83,0,6.89-1.28,9.18-3.84c2.28-2.56,3.64-6.22,4.08-10.99c0.11-1.15,0.57-1.72,1.4-1.72c1.06,0,1.6,0.88,1.6,2.66
	c0,2.66-0.6,5.41-1.81,8.25c-2.55,6.03-7.8,9.04-15.76,9.04c-7.12,0-12.77-2.49-16.95-7.5c-4.19-4.99-6.28-11.74-6.28-20.25
	c0-7.86,2.17-14.45,6.53-19.76c4.34-5.31,9.75-7.96,16.21-7.96c3.07,0,6.56,0.76,10.47,2.26c2.05,0.8,3.74,1.19,5.09,1.19
	c1.46,0,2.75-0.39,3.9-1.19L293.11,418.98L293.11,418.98z M281.21,426.08c-2.49-2-4.85-3-7.06-3c-7.09,0-10.64,6.77-10.64,20.29
	c0,6.15,0.83,11.28,2.47,15.37c1.64,4.09,3.95,6.74,6.94,7.95v0.41c-3.24-0.66-5.82-3.14-7.73-7.44c-1.93-4.32-2.9-9.77-2.9-16.37
	c0-14.15,3.88-21.23,11.66-21.23c2.63,0,5.04,1.16,7.27,3.49V426.08z M294.59,454.28c-0.45,6.8-2.34,11.95-5.69,15.5
	c-3.35,3.54-8.04,5.32-14.05,5.32c-4.58,0-8.83-1.42-12.78-4.23v-0.34c3.5,2.31,7.73,3.46,12.7,3.46c5.41,0,9.84-1.74,13.26-5.21
	c1.67-1.7,2.9-3.6,3.7-5.72c0.78-2.1,1.32-4.89,1.6-8.38l0.08-0.94L294.59,454.28L294.59,454.28z M296.1,420.95l-0.45,0.78
	c-2.98,5.09-5.37,9.72-7.15,13.91l-1.11-0.53l0.45-1.02c1.37-2.87,2.58-5.25,3.61-7.15l3.28-5.83l0.42-0.74L296.1,420.95
	L296.1,420.95z M298.89,417.71h19.63l-5.8,5.62v43.89h0.34l1.49,0.13h0.36v-43.59l4.43-4.48l0.57,0.91l-3.98,4.06v43.1
	c1.23,0.11,2.41,0.17,3.53,0.17c4.36,0,7.64-0.97,9.88-2.9c2.23-1.92,3.73-5.1,4.48-9.54c2.58,7.47,5.21,12.58,7.93,15.32h-42.86
	l5.66-4.64v-42.82L298.89,417.71z M345.78,470.05l-1.85,3.7h-42.86l-1.02-1.11h43.44l1.19-2.59c-3.01-3.69-5.42-7.8-7.23-12.36
	l-0.17-0.45l1.32,0.49l0.29,0.7c1.82,4.05,4.02,7.79,6.56,11.21L345.78,470.05L345.78,470.05z M392.03,417.71l-7.34,5.87v26.51
	c0,4.88-0.15,8.38-0.48,10.51c-0.31,2.13-0.94,3.88-1.86,5.25c-2.35,3.5-6.92,5.25-13.72,5.25c-7.16,0-12.18-1.75-15.02-5.25
	c-2.27-2.76-3.41-8.06-3.41-15.89v-27.25l-5.58-5h19.37l-5.58,5.46v26.83l0.08,6.32c0,4.08,0.84,6.98,2.55,8.69
	c1.7,1.71,4.55,2.56,8.58,2.56c4.43,0,7.48-1.3,9.15-3.9c1.35-2.12,2.02-6.63,2.02-13.55l0.15-26.55l-6.4-5.87H392.03L392.03,417.71
	z M393.43,420.5l-5.58,4.64v25.49c0,8.35-0.66,13.8-1.98,16.34c-2.68,5.14-7.92,7.72-15.72,7.72c-6.73,0-11.78-1.68-15.19-5.04
	l0.34,0.17l1.43,0.81c3.38,1.98,7.69,2.96,12.98,2.96c7.55,0,12.57-2.38,15.02-7.15c1.32-2.56,1.98-7.73,1.98-15.51v-26.27l6.12-5
	L393.43,420.5L393.43,420.5z M365.72,419.92l-4.02,4.06v30.51l-0.04,2.83l1.27,5.21c0.63,1.04,1.82,2.3,3.57,3.78l0.08,0.36
	c-2.3-0.92-3.9-2.28-4.76-4.06c-0.88-1.78-1.32-4.53-1.32-8.25v-30.79l4.64-4.51L365.72,419.92z M433.55,417.71l-5.55,5.53v30.51
	v1.32c0,2.05,0.69,3.45,2.05,4.19c-0.32,3.59-2.06,6.5-5.21,8.76c-3.14,2.26-7.06,3.39-11.73,3.39c-8.63,0-14.17-3.38-16.63-10.15
	l-0.57-1.56c-0.28-0.8-0.62-1.33-1.01-1.63c-0.39-0.28-1.15-0.52-2.27-0.71l12.27-9.16c-0.43,2.69-0.66,5.39-0.66,8.14
	c0,3.68,0.73,6.64,2.2,8.84c1.46,2.2,3.43,3.31,5.93,3.31c4.95,0,7.43-3.92,7.43-11.78v-33.95l-5.58-5.04L433.55,417.71
	L433.55,417.71z M435.23,420.01l-4.02,4.11v30v1.61l0.57,2.49c0.35,0.71,1.11,1.44,2.26,2.19c-0.38,2.33-1.56,4.71-3.53,7.15
	c-3.97,4.95-9.53,7.43-16.7,7.43c-5.48,0-9.85-1.57-13.14-4.72v-0.34c2.06,1.57,3.99,2.65,5.79,3.24c1.81,0.59,4.06,0.88,6.74,0.88
	c4.76,0,9.01-1.26,12.75-3.8c3.73-2.54,6.03-5.69,6.87-9.47c-1.26-1.01-2.02-1.88-2.3-2.59c-0.27-0.7-0.41-2.14-0.41-4.3v-30.21
	l4.51-4.51L435.23,420.01L435.23,420.01z M408.71,449.15l-0.08,0.53c-0.52,3.1-0.77,5.34-0.77,6.74c0,5.3,1.99,8.91,5.96,10.83
	h-0.62c-4.3-1.26-6.45-4.64-6.45-10.15c0-2.79,0.29-5.44,0.9-7.96L408.71,449.15L408.71,449.15z"/>
<path id="path52_1_" fill="#1B1918" d="M17.79,548.4c-0.04,0.34-0.11,0.65-0.19,1.03c-0.38,2.02-4.23,18.15-4.58,19.48
	c-0.46,1.75-0.61,3.05-0.61,3.89c0,1.26,0.84,1.87,2.4,1.87c0.95,0,2.86-0.27,4.12-1.07c-0.31-0.8-0.5-1.26-0.5-2.14
	c0-1.41,0.34-3.2,0.72-4.99c1.26-5.95,3.13-13.69,4-17.42c0.15-0.57,0.5-0.69,1.18-0.69c0.95,0,2.9,0.15,3.85,0.15
	c2.25,0,3.77-1.26,3.85-4.16c0-0.23-0.04-0.42-0.08-0.57c-1.6,0.27-3.16,0.84-6.18,0.84c-3.7,0-7.51-0.11-11.4-0.11
	c-2.52,0-3.81,1.18-3.81,3.85c0,0.42,0.04,0.95,0.08,1.45c0.23,0,0.61-0.11,0.95-0.34c1.11-0.57,2.52-1.11,4.65-1.11
	C16.8,548.36,17.26,548.4,17.79,548.4L17.79,548.4z M32.13,562.13c1.75-6.9,2.86-13.19,2.94-14.15c0.04-0.11,0.04-0.23,0.04-0.34
	c0-1.18-0.8-1.79-1.91-1.79c-1.22,0-2.55,0.34-4.12,1.22c0.31,0.65,0.46,1.14,0.46,1.75c0,0.11-0.04,0.23-0.04,0.38
	c-1.11,8.66-2.9,17.12-5.8,24.71c1.22,0.2,2.21,0.31,2.94,0.31c1.98,0,2.59-0.69,3.16-2.07c3.51-8.39,7.09-14.03,8.77-14.03
	c0.46,0,0.61,0.72,0.61,1.18c-0.04,1.11-0.31,2.94-0.99,5.34c-0.65,2.36-0.76,4.54-0.76,5.6c0,2.71,1.3,4.01,3.39,4.01
	c2.75,0,6.79-4.2,6.79-6.95c0-0.23-0.08-0.3-0.23-0.3c-0.42,0-1.07,0.65-2.29,1.91c-0.72,0.76-1.53,1.22-1.87,1.33
	c-0.19-0.34-0.46-0.88-0.46-1.64c0-4.12,1.91-9.27,1.94-11.97c0-2.14-0.99-3.09-2.71-3.09C38.53,553.55,34.64,557.59,32.13,562.13
	L32.13,562.13z M56.49,571.43c-1.45,0.19-2.82-0.53-3.66-1.75c-0.34-0.5-0.46-1.3-0.42-2.21c0.04-0.99,2.52-2.1,3.74-2.52
	c5.15-1.83,8.5-5.15,8.5-7.74c0.04-2.59-1.49-3.97-4.69-3.97c-3.39,0-6.67,1.64-9.23,4.69c-2.63,2.86-4,6.71-3.81,10.64
	c0.19,3.93,2.75,5.88,7.21,5.88c2.14,0,4.12-0.43,6.02-1.3c1.26-0.53,2.21-1.26,2.86-2.06c0.69-0.88,0.76-2.06,0.23-3.01
	C61.26,569.98,59.2,571.16,56.49,571.43z M53.17,563.15c1.11-4.73,2.82-7.36,4.88-7.36c1.37,0,1.83,1.14,1.45,2.48
	c-0.38,1.33-1.07,2.59-3.51,3.93c-1.41,0.76-2.55,1.26-3.2,2.67C53.02,563.8,53.17,563.15,53.17,563.15z M84.55,561.21
	c0.38-0.08,0.8-0.11,1.26-0.11c1.14,0,2.44,0.04,3.7,0.04c1.83,0,3.58-0.08,4.69-0.5c-0.69,3.28-1.26,5.99-1.75,8.01
	c-0.3,1.22-0.57,2.63-0.57,3.62c0,1.56,0.5,2.45,2.17,2.45c1.03,0,4.61-0.61,4.61-1.49c-0.57-0.8-0.88-1.79-0.88-2.78
	c0-0.99,0.27-2.4,0.57-3.93c0.46-2.21,4.35-22.84,5.45-23.98c-0.5-0.57-1.72-1.07-2.78-1.18c-1.75-0.15-2.67,0.72-3.01,2.4
	l-2.63,11.51c-0.15,0.72-0.38,1.37-0.61,1.94c-0.42,0.11-0.88,0.11-1.41,0.11h-7.93c1.11-5.3,1.6-10.03,1.6-10.83
	c0-0.61-0.15-1.3-0.61-1.72c-0.46-0.42-1.14-0.53-1.72-0.5c-1.26,0-2.44,0.42-3.93,1.26c0.42,0.84,0.61,1.41,0.61,2.21
	c-0.27,7.78-3.01,17.54-5.53,25.01c-0.38,1.14-0.65,2.1-0.65,2.87c-0.08,0.91,0.27,1.26,1.49,1.26c1.37,0,3.77-0.72,4.54-1.18
	c-0.04-0.53-0.04-1.11,0.04-1.64c0.23-1.53,1.72-6.95,2.75-10.91C84.17,562.47,84.32,561.82,84.55,561.21L84.55,561.21z
	 M112.16,571.43c-1.45,0.19-2.82-0.53-3.66-1.75c-0.34-0.5-0.46-1.3-0.42-2.21c0.04-0.99,2.52-2.1,3.74-2.52
	c5.15-1.83,8.5-5.15,8.5-7.74c0.04-2.59-1.49-3.97-4.69-3.97c-3.39,0-6.67,1.64-9.23,4.69c-2.63,2.86-4,6.71-3.81,10.64
	c0.19,3.93,2.75,5.88,7.21,5.88c2.13,0,4.12-0.43,6.02-1.3c1.26-0.53,2.21-1.26,2.86-2.06c0.69-0.88,0.76-2.06,0.23-3.01
	C116.92,569.98,114.86,571.16,112.16,571.43L112.16,571.43z M108.84,563.15c1.11-4.73,2.82-7.36,4.88-7.36
	c1.37,0,1.83,1.14,1.45,2.48c-0.38,1.33-1.07,2.59-3.51,3.93c-1.41,0.76-2.55,1.26-3.2,2.67
	C108.69,563.8,108.84,563.15,108.84,563.15L108.84,563.15z M140.72,568.99c-0.72,0.72-1.45,1.26-1.87,1.33
	c-0.15-0.34-0.42-0.84-0.42-1.6c0-2.94,2.33-12.35,3.74-14.45c-1.11-0.57-2.21-0.92-3.39-0.92c-0.95,0-1.79,0.34-2.4,0.99
	c-0.99-0.76-2.25-1.07-3.74-1.07c-6.14,0-11.9,8.39-12.05,15.75c0,3.13,1.07,5.38,4.12,5.38h0.42c2.52-0.11,5.3-2.52,8.16-7.17
	c-0.11,0.8-0.19,2.17-0.19,3.09c0,2.75,1.3,4.05,3.39,4.05c2.71,0,6.75-4.16,6.75-6.95c0-0.23-0.04-0.34-0.19-0.34
	C142.66,567.08,141.9,567.69,140.72,568.99L140.72,568.99z M130.84,566.89c-1.49,2.21-2.63,3.51-3.43,3.51
	c-0.8,0-1.18-0.65-1.26-1.98c0-4.96,3.05-12.28,6.1-12.28c1.18,0,2.63,0.65,3.05,2.21C134.46,560.68,132.79,564.07,130.84,566.89
	L130.84,566.89z M158.45,553.32c-2.29,0.04-4.96,3.24-7.82,8.27c0.65-2.55,1.22-4.77,1.22-6.29c0-1.22-0.84-1.94-2.02-1.94
	c-0.99,0-2.33,0.34-4,1.07c0.31,0.65,0.42,1.53,0.42,2.52c0,2.67-1.33,9.46-4.27,16.97c1.26,0.23,2.21,0.35,2.97,0.35
	c1.91,0,2.59-0.73,3.13-2.1c2.67-6.67,5.03-12.54,8.08-12.54c0.57,0,1.07,0.34,1.45,0.95c1.53-1.72,2.63-3.66,2.63-5.41
	c0-1.11-0.42-1.83-1.6-1.83C158.56,553.32,158.52,553.32,158.45,553.32z M173.43,555.19c-1.3,0.19-2.48,0.27-3.62,0.27h-1.98
	c0.72-3.74,0.91-5.57,0.91-5.45c0-1.14-0.65-1.87-1.87-1.87c-1.22,0-2.52,0.34-4.12,1.26c0.34,0.76,0.42,1.37,0.42,2.1
	c0,2.21-0.88,6.14-1.72,9.34c-0.76,3.16-0.88,3.81-1.26,6.06c-0.11,0.8-0.23,1.6-0.23,2.36c0,3.05,1.26,4.96,4.42,4.96
	c2.75,0,6.75-4.2,6.75-6.95c0-0.23-0.04-0.34-0.19-0.34c-0.38,0-1.11,0.65-2.33,1.94c-0.69,0.72-1.49,1.45-1.94,1.45
	c-0.91,0-1.41-0.65-1.49-1.83c0-1.26,0.3-2.94,0.61-4.08c0.53-2.02,0.99-4.08,1.37-5.91c0.3-0.08,0.57-0.08,0.88-0.08
	c0.69,0,1.41,0.04,2.17,0.04c1.75,0,3.2-1.26,3.2-3.05C173.43,555.34,173.43,555.26,173.43,555.19L173.43,555.19z M186.97,557.51
	c-2.4,2.82-3.7,6.14-3.7,9.84c0,4.42,2.78,7.1,6.98,7.1c6.79,0,12.35-7.25,12.35-14.42c0-4.23-2.82-6.79-6.98-6.79
	C192.3,553.24,189.33,554.88,186.97,557.51L186.97,557.51z M196.92,560.03c0,4.38-2.17,11.63-5.53,11.63
	c-1.83,0-2.52-1.64-2.52-3.89c0-4.38,2.21-11.71,5.6-11.71C196.31,556.06,196.92,557.78,196.92,560.03L196.92,560.03z M201.33,579.1
	c-0.23,0.27-0.38,0.34-0.42,0.61c0,0.3,0.15,0.57,0.69,0.57c0.11,0,0.24-0.04,0.39-0.08c3.74-1.41,6.63-4.42,7.93-8.17
	c1.68-4.84,2.33-9.27,3.28-13.46c0.69,0,1.37,0.04,2.06,0.04c2.1,0,4.5-0.5,4.5-2.82c0-0.15,0-0.3-0.04-0.46
	c-1.33,0-2.94,0.27-4.42,0.27h-1.41c0.61-3.09,1.3-5.11,2.02-6.18c0.57-0.84,1.83-1.64,2.78-1.64c1.22,0,2.21,0.72,2.9,2.17
	c1.91-0.92,2.9-1.94,2.9-2.78c0-1.72-1.56-2.1-3.62-2.1c-5.53,0-10.52,3.01-11.9,8.62c-0.15,0.61-0.31,1.26-0.46,1.91
	c-2.55,0-2.94,0.34-3.55,2.1c0,0.04-0.04,0.08-0.04,0.15c0,0.53,1.26,0.8,2.1,0.8h0.8c-0.34,1.49-2.48,12.62-2.78,14.22
	C204.58,575.32,203.25,577.54,201.33,579.1L201.33,579.1z M238.9,548.4c-0.04,0.34-0.11,0.65-0.19,1.03
	c-0.38,2.02-4.23,18.15-4.58,19.48c-0.46,1.75-0.61,3.05-0.61,3.89c0,1.26,0.84,1.87,2.4,1.87c0.95,0,2.86-0.27,4.12-1.07
	c-0.3-0.8-0.5-1.26-0.5-2.14c0-1.41,0.34-3.2,0.72-4.99c1.26-5.95,3.13-13.69,4-17.42c0.15-0.57,0.5-0.69,1.18-0.69
	c0.95,0,2.9,0.15,3.85,0.15c2.25,0,3.77-1.26,3.85-4.16c0-0.23-0.04-0.42-0.08-0.57c-1.6,0.27-3.16,0.84-6.18,0.84
	c-3.7,0-7.51-0.11-11.4-0.11c-2.52,0-3.81,1.18-3.81,3.85c0,0.42,0.04,0.95,0.08,1.45c0.23,0,0.61-0.11,0.95-0.34
	c1.11-0.57,2.52-1.11,4.65-1.11C237.9,548.36,238.36,548.4,238.9,548.4z M261.28,553.32c-2.29,0.04-4.96,3.24-7.82,8.27
	c0.65-2.55,1.22-4.77,1.22-6.29c0-1.22-0.84-1.94-2.02-1.94c-0.99,0-2.33,0.34-4,1.07c0.31,0.65,0.42,1.53,0.42,2.52
	c0,2.67-1.33,9.46-4.27,16.97c1.26,0.23,2.21,0.35,2.97,0.35c1.91,0,2.59-0.73,3.13-2.1c2.67-6.67,5.03-12.54,8.08-12.54
	c0.57,0,1.07,0.34,1.45,0.95c1.53-1.72,2.63-3.66,2.63-5.41c0-1.11-0.42-1.83-1.6-1.83C261.39,553.32,261.35,553.32,261.28,553.32
	L261.28,553.32z M281.68,568.99c-0.72,0.72-1.45,1.26-1.87,1.33c-0.15-0.34-0.42-0.84-0.42-1.6c0-2.94,2.33-12.35,3.74-14.45
	c-1.11-0.57-2.21-0.92-3.39-0.92c-0.95,0-1.79,0.34-2.4,0.99c-0.99-0.76-2.25-1.07-3.74-1.07c-6.14,0-11.9,8.39-12.05,15.75
	c0,3.13,1.07,5.38,4.12,5.38h0.42c2.52-0.11,5.3-2.52,8.16-7.17c-0.11,0.8-0.19,2.17-0.19,3.09c0,2.75,1.3,4.05,3.39,4.05
	c2.71,0,6.75-4.16,6.75-6.95c0-0.23-0.04-0.34-0.19-0.34C283.62,567.08,282.86,567.69,281.68,568.99L281.68,568.99z M271.8,566.89
	c-1.49,2.21-2.63,3.51-3.43,3.51c-0.8,0-1.18-0.65-1.26-1.98c0-4.96,3.05-12.28,6.1-12.28c1.18,0,2.63,0.65,3.05,2.21
	C275.42,560.68,273.75,564.07,271.8,566.89z M298.11,557.97c0.3,0,0.57,0.23,0.57,0.84c0,0.57-0.53,3.32-1.52,7.63
	c-0.38,1.72-0.76,3.05-0.76,4.35c0,2.4,1.41,3.51,3.43,3.51c2.67,0,6.75-4.12,6.75-6.95c0-0.23-0.08-0.3-0.23-0.3
	c-0.42,0-1.07,0.65-2.29,1.91c-0.72,0.76-1.53,1.22-1.87,1.33c-0.19-0.34-0.38-0.88-0.38-1.64c0-1.37,0.61-3.36,1.14-5.22
	c0.72-2.97,1.26-5.68,1.26-7.4c0-1.6-1.18-2.78-2.9-2.78c-3.2,0-7.36,4.46-9.72,8.88c0.72-2.97,1.37-5.38,1.37-6.94
	c0-1.33-1.07-1.83-2.02-1.83c-0.99,0-2.33,0.3-4,1.07c0.31,0.65,0.42,1.53,0.42,2.48c0,2.06-0.57,5.64-2.06,10.56
	c-0.65,2.14-1.41,4.35-2.25,6.44c1.22,0.2,2.21,0.31,2.97,0.31c1.94,0,2.63-0.69,3.16-2.07c1.79-4.46,2.36-5.95,4.23-8.96
	C295.21,560.37,297.04,557.97,298.11,557.97L298.11,557.97z M317.17,555.07c0.69,0,1.45,0.34,2.21,1.11
	c1.14-0.8,1.49-1.49,1.49-2.25c-0.23-0.88-0.8-1.14-2.17-1.14c-4.38,0-9.34,2.14-9.34,7.05c0,1.49,0.53,2.97,1.52,4.16
	c1.45,1.64,3.05,2.9,3.05,4.69c0,2.06-1.14,3.05-2.94,3.05c-2.29-0.11-3.77-2.21-4.65-4.58c-0.69,0.38-1.53,1.18-1.53,2.48
	c0,2.97,3.01,4.7,5.64,4.7c4.61,0,8.81-3.55,8.81-8.13c0-2.78-1.68-4.58-3.32-6.56c-0.61-0.76-0.99-1.45-0.99-2.21
	C314.96,555.95,315.65,555.07,317.17,555.07L317.17,555.07z M317.09,580.28c0.23,1.22,1.26,1.83,2.9,1.83
	c2.82,0,6.18-1.94,11.78-9.39c6.06-7.97,10.03-14.64,10.03-17.04c0-1.75-1.22-2.59-4-2.59c-0.3,0-0.95,0.04-1.41,0.11
	c0.46,0.5,0.88,1.75,0.88,2.44c0,2.75-2.67,7.89-6.44,13.23c-0.27-3.77-0.76-8.5-1.33-12.39c-0.3-2.14-1.26-3.13-2.67-3.13
	c-1.33,0-2.78,0.5-4.31,1.41c1.37,1.07,2.71,6.44,3.77,15.1c0.08,0.57,0.15,1.26,0.15,1.91c0,0.72-0.08,1.37-0.34,1.75
	c-1.75,2.52-4.08,4.47-6.45,4.47c-0.61,0-1.56-0.3-1.91-0.61c-0.38,0.8-0.69,1.75-0.69,2.48
	C317.05,580.01,317.05,580.17,317.09,580.28L317.09,580.28z M347.37,570.28c-0.19-0.34-0.38-0.84-0.38-1.6
	c0-0.95,0.69-4.12,0.95-5.34c0.11-0.38,0.19-0.76,0.27-1.11l0.04-0.23c0.72-0.95,2.63-3.55,3.93-6.52c0.8-1.87,1.52-3.77,1.72-5.38
	c0.08-0.5,0.08-0.95,0.08-1.33c0-0.88-0.11-1.33-0.11-1.37c-0.04-0.23-0.15-0.42-0.3-0.57c-1.07-0.8-2.14-1.11-3.24-1.18
	c-0.57-0.04-1.26,0.08-1.87,0.5c-0.61,0.42-1.11,1.07-1.3,1.64c-1.79,5.95-3.47,12.09-4.88,18.11c-0.27,0.23-0.38,0.34-0.34,0.3
	c-1.14,0.99-2.02,1.79-1.87,1.79c0.11,0,0.69-0.38,2.06-1.37c-0.04,0.34-0.08,0.69-0.15,0.99c-0.23,1.45-0.38,2.36-0.34,3.2
	c0,2.36,1.37,3.48,3.39,3.48c1.91,0,5.68-1.91,7.43-4.66c1.18-1.91,1.49-2.63,1.18-2.63c-0.38,0-1.72,1.07-3.43,2.33
	C349.39,569.9,348.4,570.25,347.37,570.28L347.37,570.28z M350.42,554.16c0.5-1.72,1.07-3.43,1.72-5.15
	c0.08-0.23,0.19-0.46,0.3-0.65c0.19-0.34,0.69-0.19,0.69,0.19c0.04,0.38,0,0.88-0.04,1.41c-0.15,1.45-0.84,3.28-1.64,5.07
	c-0.8,1.91-1.83,3.62-2.67,4.84C349.28,557.97,349.81,556.02,350.42,554.16L350.42,554.16z M366.78,561.44
	c-1.3,2.36-2.94,5.03-5.15,7.93c0.04-0.88,0.04-1.72,0.04-2.59c0-3.24-0.11-7.17-0.5-9.95c-0.15-2.36-1.11-3.47-2.71-3.47
	c-1.33,0-2.78,0.5-4.27,1.41c0.84,0.65,1.22,2.25,1.75,5.34c0.76,4.46,1.22,9.53,1.18,12.28c0,0.65-0.08,1.45-0.08,1.99
	c0.27,0.08,0.53,0.08,0.8,0.08c4.31,0,7.66-4.31,11.55-10.34c2.75-4.23,4-7.21,4-8.85c0-2.06-1.22-2.78-3.97-2.78
	c-0.3,0-0.95,0.04-1.41,0.11c0.46,0.5,0.88,1.75,0.88,2.44C368.91,556.56,368.3,558.73,366.78,561.44L366.78,561.44z M392.86,568.99
	c-0.72,0.72-1.45,1.26-1.87,1.33c-0.15-0.34-0.42-0.84-0.42-1.6c0-2.94,2.33-12.35,3.74-14.45c-1.11-0.57-2.21-0.92-3.39-0.92
	c-0.95,0-1.79,0.34-2.4,0.99c-0.99-0.76-2.25-1.07-3.74-1.07c-6.14,0-11.9,8.39-12.05,15.75c0,3.13,1.07,5.38,4.12,5.38h0.42
	c2.52-0.11,5.3-2.52,8.16-7.17c-0.11,0.8-0.19,2.17-0.19,3.09c0,2.75,1.3,4.05,3.39,4.05c2.71,0,6.75-4.16,6.75-6.95
	c0-0.23-0.04-0.34-0.19-0.34C394.8,567.08,394.04,567.69,392.86,568.99L392.86,568.99z M382.98,566.89
	c-1.49,2.21-2.63,3.51-3.43,3.51c-0.8,0-1.18-0.65-1.26-1.98c0-4.96,3.05-12.28,6.1-12.28c1.18,0,2.63,0.65,3.05,2.21
	C386.61,560.68,384.93,564.07,382.98,566.89z M409.29,557.97c0.3,0,0.57,0.23,0.57,0.84c0,0.57-0.53,3.32-1.52,7.63
	c-0.38,1.72-0.76,3.05-0.76,4.35c0,2.4,1.41,3.51,3.43,3.51c2.67,0,6.75-4.12,6.75-6.95c0-0.23-0.08-0.3-0.23-0.3
	c-0.42,0-1.07,0.65-2.29,1.91c-0.72,0.76-1.53,1.22-1.87,1.33c-0.19-0.34-0.38-0.88-0.38-1.64c0-1.37,0.61-3.36,1.14-5.22
	c0.72-2.97,1.26-5.68,1.26-7.4c0-1.6-1.18-2.78-2.9-2.78c-3.2,0-7.36,4.46-9.72,8.88c0.72-2.97,1.37-5.38,1.37-6.94
	c0-1.33-1.07-1.83-2.02-1.83c-0.99,0-2.33,0.3-4,1.07c0.31,0.65,0.42,1.53,0.42,2.48c0,2.06-0.57,5.64-2.06,10.56
	c-0.65,2.14-1.41,4.35-2.25,6.44c1.22,0.2,2.21,0.31,2.97,0.31c1.94,0,2.63-0.69,3.16-2.07c1.79-4.46,2.36-5.95,4.23-8.96
	C406.39,560.37,408.22,557.97,409.29,557.97L409.29,557.97z M427.71,544.17c-1.83,0-3.62,0.34-5.19,0.95
	c0.08,0.19,0.19,0.34,0.19,0.53c0.04,1.53-0.61,3.7-0.61,4.8c0,0.61,0.42,1.41,2.02,1.07c2.21-0.46,2.17-0.42,3.85-3.01
	c0.99-1.53,1.33-2.17,1.53-2.9c0.04-0.19,0.04-0.3,0.04-0.46C429.5,544.59,428.89,544.17,427.71,544.17z M425.88,568.95
	c1.68-1.83,2.52-2.33,2.52-1.56c0,0.38-0.19,1.07-0.61,2.06c-1.07,2.48-4.16,4.85-6.14,4.85c-2.02,0-3.24-1.15-3.39-3.51
	c-0.08-0.84,0-3.28,0.76-6.14c0.65-2.29,0.99-4.54,1.26-5.95c0.15-0.76,0.19-1.49,0.19-2.06c0-0.72-0.19-1.33-0.57-1.91
	c1.33-0.5,2.63-0.8,3.81-0.8c0.65,0,1.45,0.11,1.91,0.61c0.46,0.5,0.61,1.14,0.46,1.98c-0.11,0.61-0.23,1.22-0.42,1.91
	c-0.57,2.14-1.26,4.54-1.49,5.6c-0.3,1.33-0.57,3.51-0.57,4.61c0,0.76,0.23,1.3,0.42,1.64
	C424.39,570.21,425.11,569.67,425.88,568.95L425.88,568.95z M448.64,568.99c-0.72,0.72-1.45,1.26-1.87,1.33
	c-0.15-0.34-0.42-0.84-0.42-1.6c0-2.94,2.33-12.35,3.74-14.45c-1.11-0.57-2.21-0.92-3.39-0.92c-0.95,0-1.79,0.34-2.4,0.99
	c-0.99-0.76-2.25-1.07-3.74-1.07c-6.14,0-11.9,8.39-12.05,15.75c0,3.13,1.07,5.38,4.12,5.38h0.42c2.52-0.11,5.3-2.52,8.16-7.17
	c-0.11,0.8-0.19,2.17-0.19,3.09c0,2.75,1.3,4.05,3.39,4.05c2.71,0,6.75-4.16,6.75-6.95c0-0.23-0.04-0.34-0.19-0.34
	C450.58,567.08,449.82,567.69,448.64,568.99L448.64,568.99z M438.76,566.89c-1.49,2.21-2.63,3.51-3.43,3.51
	c-0.8,0-1.18-0.65-1.26-1.98c0-4.96,3.05-12.28,6.1-12.28c1.18,0,2.63,0.65,3.05,2.21C442.39,560.68,440.71,564.07,438.76,566.89z"
	/>
<linearGradient id="path62_2_" gradientUnits="userSpaceOnUse" x1="-1182.8442" y1="1706.2631" x2="-1182.8442" y2="1705.2631" gradientTransform="matrix(461.721 0 0 -397.1415 546374.875 677627.8125)">
	<stop  offset="0" style="stop-color:#A4027C"/>
	<stop  offset="1" style="stop-color:#102A83"/>
</linearGradient>
<path id="path62_1_" fill="url(#path62_2_)" d="M164.17,5.21C58.67-17.81-29.51,42.61,9.35,163.94
	c32.05,92.02,112.64,167.3,220.46,233.2c84.67-48.17,177.27-126.23,213.6-210.66C502.12,54.04,410.18-21.08,301.34,5.21
	c78.32,13.49,125.5,43.34,129.22,96c1.22,17.23-1.41,39.23-6.37,55.78c-21.5,71.7-115.51,163.55-194.38,208.8
	c-119.86-75.2-192.37-158-197.92-249.85C24.79,53.43,71.98,18.07,164.17,5.21z M166.72,346.38l-17.83-22.89
	c7.64-19.06-64.85-21.64-41.39-24.28c5.02-6.98-19.5-9.26-10.83-10.76V270.8l-2.67,0.64c0.13-7.47,5.27-13.43,12.71-18.71l0.45-4.93
	c0-16.01,0-32.02,0-48.03c-7.4-5.89-4.65-9.86-0.45-13.55c-1.38-22.88,12.04-39.79,33.76-53.37c0.08-2.81,5.17-5.2,7.76-7.8
	c-2.13-3.29-1.98-5.89,0.46-7.8l-0.46-25.04c-2.2-3.35,0.61-3.83,0.91-5.75c-1.67-4.21,1.96-10.43,7.58-17.37
	c0.09-2.26,0.78-7.09,1.54,0.13c4.93,5.25,7.89,10.72,7.96,16.51c1.22,2.8,1.22,5.33,0,7.59v24c2.54,1.86,3.25,4.26,2.15,7.21
	c4.31,2.08,7.14,4.39,7.8,7.02c20.94,14.99,33.47,33.2,34.96,55.3c4.22,4.45,3.84,7.46-0.46,11.9v46.97l0.46,6.97
	c7.51,4.92,10.8,10.88,11.62,17.43l-2.05,0.2v17.44l7.07-0.41c31.85-20.21,59.85-15.89,83.2,18.05h18.01v-11.08
	c-1.78-1.48-5.35-2.52,0-5.74c0.7-6.43,3.3-12.01,10.08-15.7c-0.39-3.52,2.25-6.43,6.11-8.31l0-8.77l-2,0v-1.15h2.02v-3.48
	l1.11,0.03v3.45h1.95v1.13l-1.94,0.03l0,8.77c5.15,1.88,5.05,5.93,5.4,7.88c8.97,3.58,10.98,9.81,12.09,16.63
	c0.02,0.03,0.05,0.07,0.07,0.1c0.71,1.05,1.37,2.17,1.27,2.94c0.22,1.74-0.65,3.18-2.42,4.11c-3.08,0.33-27.11,4.77-25.71,6.25
	l-105.85,75.27L166.72,346.38L166.72,346.38z M334.1,208.35h-2.63l-0.35,5.05l-2.81,0.16v-25.9l-1.93-0.16l-0.7-17.85l-2.28-0.31
	l-1.58-46.43l-2.28-0.16l-0.05-23.34l2.69-0.03l-6.03-8.73l-18.86-61.41c-1.18-4.57-0.95-5.23-1.84,0.05l-15.1,62.02l-5.68,7.75
	h2.46l0.18,5.37l0,19.11l-1.6,0.01l1.25,46.58l-2.81,0.16l-1.4,43.28h-2.28l-0.35-6l-2.63,0.16l-0.53,6.48H265v2.84l1.76,0.63v2.21
	h-3.86l-0.35,1.26h1.41l-0.18,13.74l-24.05,53.07v67.6c65.53-1.36,86.24-60.59,120.34-60.59l35.29-81.93c0,0-46.51,1.07-60.66,0.49
	C332.69,213.44,334.13,208.51,334.1,208.35L334.1,208.35z M229.82,365.79C176,332.03,131.73,296.73,98.78,259.78
	c-2.93,3.49-4.7,7.32-4.78,11.66l2.67-0.64v17.65c-8.67,1.51,15.85,3.79,10.83,10.76c-23.46,2.64,49.03,5.22,41.39,24.28
	l17.83,22.89l64.44,31.36l38.47-27.36c-6.79,2.31-14.17,3.98-22.28,4.73C241.45,358.91,235.59,362.47,229.82,365.79L229.82,365.79z
	 M239.72,287.95v67.6c2.61-0.05,5.16-0.2,7.63-0.43c21.77-13.97,44.19-30.98,65.51-49.72h-1.89
	c-19.37-28.16-41.95-35.93-67.27-26.21L239.72,287.95L239.72,287.95z M337.01,302.47l-67.38,47.91
	c34.58-11.78,53.69-40.37,74.52-51.19C339.49,299.47,334.24,299.54,337.01,302.47z M312.86,305.39h16.11v-11.08
	c-0.66-0.54-1.56-1.03-2.16-1.58C322.23,297.03,317.58,301.25,312.86,305.39L312.86,305.39z M326.82,292.73
	c8.31-7.79,16.39-15.8,24.12-23.96c-0.63-1.59-1.88-3.21-4.62-4.21l0-8.77l1.94-0.03v-1.13h-1.95v-3.45l-1.11-0.03v3.48h-2.02v1.15
	l2,0l0,8.77c-3.86,1.88-6.51,4.79-6.11,8.31c-6.78,3.7-9.38,9.27-10.08,15.7C325.6,290.61,325.78,291.78,326.82,292.73
	L326.82,292.73z M351.72,272.44c8.1,3.23,10.53,8.62,11.74,14.66l30.51-70.84c-12.13,17.63-26.82,35.39-43.03,52.52
	C351.48,270.16,351.55,271.53,351.72,272.44L351.72,272.44z M363.45,287.1l-3.35,7.79l2.57-0.28c2.74-1.43,3.28-2.46,1.14-5.54
	C363.7,288.4,363.58,287.75,363.45,287.1z M349.4,296.03c0.23,0.24,0.4,0.47,0.53,0.67c1.51-0.52,3.04-0.93,4.6-1.22L349.4,296.03z
	 M349.93,296.7c-1.95,0.67-3.87,1.51-5.77,2.5c-0.7,0.36-1.4,0.75-2.1,1.15c6.9-1.8,18.59-3.91,20.67-4.13
	c1.76-0.92,2.59-2.34,2.39-4.05c-0.08,0.97-0.92,1.64-2.45,2.44l-2.57,0.28l-0.03,0.08c-1.89,0-3.73,0.18-5.54,0.52
	C352.97,295.77,351.44,296.19,349.93,296.7L349.93,296.7z M344.15,299.2c-4.67,0.27-9.91,0.34-7.14,3.27
	c-0.45-0.48,1.75-1.26,5.04-2.12C342.75,299.95,343.45,299.56,344.15,299.2L344.15,299.2z M349.4,296.03
	c0.23,0.24,0.4,0.47,0.53,0.67c1.51-0.52,3.04-0.93,4.6-1.22L349.4,296.03z M364.38,290.16c-0.63,0-1.14,1.15-1.14,2.57
	c0,1.42,0.51,2.57,1.14,2.57c0.63,0,1.14-1.15,1.14-2.57C365.52,291.31,365.01,290.16,364.38,290.16z M364.38,290.16
	c-0.63,0-1.14,1.15-1.14,2.57c0,0.54,0.07,1.04,0.2,1.45c1.03-0.62,1.6-1.21,1.67-2c0.05-0.55-0.15-1.19-0.6-2
	C364.47,290.16,364.43,290.16,364.38,290.16z M365.11,292.17c-0.07,0.79-0.64,1.38-1.67,2c0.15,0.51,0.39,0.89,0.66,1.04
	C364.9,294.38,365.25,293.34,365.11,292.17L365.11,292.17z M365.15,292.11c0.15,1.2-0.21,2.26-1.04,3.11
	c0.09,0.05,0.18,0.07,0.27,0.07c0.63,0,1.14-1.15,1.14-2.57c0-1.32-0.44-2.4-1.01-2.55C364.93,290.89,365.21,291.58,365.15,292.11
	L365.15,292.11z"/>
</svg>
