<!-- Generator: Adobe Illustrator 18.1.1, SVG Export Plug-In  -->
<svg version="1.1"
	 xmlns="http://www.w3.org/2000/svg" xmlns:xlink="http://www.w3.org/1999/xlink" xmlns:a="http://ns.adobe.com/AdobeSVGViewerExtensions/3.0/"
	 x="0px" y="0px" width="28.38px" height="13.28px" viewBox="0 0 28.38 13.28" enable-background="new 0 0 28.38 13.28"
	 xml:space="preserve">
<defs>
</defs>
<g>
	<g>
		<g>
			<path fill="#868789" d="M2.99,1.07c0,0.19,0,5.92,0,5.92c0,0.74-0.31,1.1-0.79,1.1c-0.5,0-0.79-0.36-0.79-1.1c0,0,0-5.73,0-5.92
				c0-0.19-0.21-0.19-0.21-0.19H0.22c0,0-0.19,0-0.19,0.19c0,0.19,0,6,0,6c0,1.46,0.54,2.27,1.84,2.27c0.47,0,0.97-0.27,1.12-0.65
				v2.24c0,0.71-0.29,1.1-0.81,1.1c-0.51,0-0.8-0.37-0.81-1.05c0-0.02,0-0.19-0.18-0.19c-0.3,0-0.87,0-1.01,0
				C0,10.79,0,10.98,0,10.98l0,0.04c0,1.44,0.79,2.26,2.18,2.26c1.39,0,2.18-0.83,2.18-2.26c0,0,0-9.75,0-9.95
				c0-0.19-0.19-0.19-0.19-0.19H3.18C3.18,0.88,2.99,0.88,2.99,1.07z"/>
			<path fill="#868789" d="M7.62,9.33c-1.39,0-2.23-0.83-2.23-2.27V3.01c0-1.44,0.84-2.26,2.23-2.26c1.39,0,2.23,0.83,2.23,2.26
				v4.06C9.85,8.51,9.01,9.33,7.62,9.33z M8.48,3.09c0-0.74-0.34-1.1-0.86-1.1c-0.52,0-0.86,0.35-0.86,1.1v3.9
				c0,0.74,0.34,1.1,0.86,1.1c0.52,0,0.86-0.36,0.86-1.1V3.09z"/>
			<path fill="#868789" d="M12.92,9.33c-1.39,0-2.13-0.83-2.13-2.27c0,0,0-5.81,0-6c0-0.19,0.19-0.19,0.19-0.19h0.99
				c0,0,0.19,0,0.19,0.19c0,0.19,0,5.92,0,5.92c0,0.74,0.24,1.1,0.76,1.1c0.52,0,0.76-0.36,0.76-1.1c0,0,0-5.73,0-5.92
				c0-0.19,0.19-0.19,0.19-0.19h0.99c0,0,0.19,0,0.19,0.19c0,0.19,0,6,0,6C15.06,8.51,14.31,9.33,12.92,9.33z"/>
			<path fill="#868789" d="M20.33,3.01c0,0,0,5.81,0,6c0,0.19-0.19,0.19-0.19,0.19h-0.99c0,0-0.19,0-0.19-0.19c0-0.19,0-5.92,0-5.92
				c0-0.74-0.24-1.1-0.76-1.1c-0.52,0-0.76,0.35-0.76,1.1c0,0,0,5.73,0,5.92c0,0.19-0.19,0.19-0.19,0.19h-0.99c0,0-0.19,0-0.19-0.19
				c0-0.19,0-6,0-6c0-1.44,0.74-2.27,2.14-2.27C19.59,0.75,20.33,1.57,20.33,3.01z"/>
			<path fill="#868789" d="M23.55,13.28c-1.39,0-2.18-0.83-2.18-2.26v-0.04c0,0,0-0.19,0.19-0.19c0.13,0,0.69,0,0.99,0
				c0.19,0,0.19,0.18,0.19,0.19c0.01,0.68,0.3,1.05,0.81,1.05c0.52,0,0.81-0.39,0.81-1.1V8.69c-0.15,0.37-0.69,0.65-1.16,0.65
				c-1.31,0-1.92-0.81-1.92-2.27V3.01c0-1.44,0.84-2.26,2.23-2.26c1.39,0,2.23,0.83,2.23,2.26v8
				C25.73,12.45,24.94,13.28,23.55,13.28z M24.36,3.09c0-0.74-0.34-1.08-0.86-1.08c-0.52,0-0.86,0.34-0.86,1.08v3.9
				c0,0.74,0.34,1.1,0.86,1.1c0.52,0,0.86-0.36,0.86-1.1V3.09z"/>
		</g>
		<g>
			<path fill="#868789" d="M27.75,1.75c-0.34,0-0.62-0.19-0.62-0.56V0.56c0-0.37,0.28-0.56,0.62-0.56c0.35,0,0.63,0.19,0.63,0.56
				v0.63C28.38,1.56,28.09,1.75,27.75,1.75z M28.19,0.56c0-0.23-0.19-0.38-0.44-0.38c-0.25,0-0.44,0.15-0.44,0.38v0.63
				c0,0.23,0.19,0.39,0.44,0.39c0.25,0,0.44-0.15,0.44-0.39V0.56z M27.81,1.39V1.03c0-0.05-0.02-0.06-0.05-0.06h-0.05v0.42h-0.2
				V0.36h0.24C27.92,0.36,28,0.47,28,0.6v0.12c0,0.06-0.04,0.11-0.09,0.15C27.97,0.89,28,0.97,28,1.03c0,0,0,0.37,0,0.36H27.81z
				 M27.8,0.6c0-0.05-0.03-0.07-0.06-0.07h-0.04v0.26h0.04c0.03,0,0.06-0.02,0.06-0.06V0.6z"/>
		</g>
	</g>
</g>
</svg>
