<!-- Generator: Adobe Illustrator 18.1.1, SVG Export Plug-In  -->
<svg version="1.1"
	 xmlns="http://www.w3.org/2000/svg" xmlns:xlink="http://www.w3.org/1999/xlink" xmlns:a="http://ns.adobe.com/AdobeSVGViewerExtensions/3.0/"
	 x="0px" y="0px" width="19.3px" height="10.79px" viewBox="0 0 19.3 10.79" enable-background="new 0 0 19.3 10.79"
	 xml:space="preserve">
<defs>
</defs>
<path fill="#868789" d="M11.36,7.27c0.32,0,0.67,0.23,0.67,0.7l0,1.58c0,0.04-0.03,0.08-0.08,0.08h-0.51
	c-0.04,0-0.08-0.04-0.08-0.08V8.02c0-0.13-0.11-0.22-0.22-0.22h-0.22c-0.13,0-0.22,0.12-0.22,0.22v1.54c0,0.04-0.04,0.08-0.08,0.08
	H10.1c-0.04,0-0.08-0.04-0.08-0.08l0-1.62c0-0.4,0.33-0.67,0.67-0.67H11.36 M13.1,6.83h0.86c0.08,0,0.14-0.08,0.14-0.15V3.13
	c0-0.07-0.06-0.15-0.14-0.15H13.1c-0.07,0-0.14,0.08-0.14,0.15v3.54C12.97,6.75,13.03,6.83,13.1,6.83 M14.47,6.83h0.86
	c0.07,0,0.13-0.07,0.13-0.14V2c0-0.07-0.06-0.14-0.13-0.14h-0.86c-0.07,0-0.14,0.06-0.14,0.14v4.69
	C14.33,6.76,14.39,6.83,14.47,6.83 M9.01,5.77c0.07,0.21,0.22,0.68,0.26,0.79c0.05,0.17,0.22,0.28,0.39,0.27c0.67-0.01,2.4,0,2.93,0
	c0.15,0,0.15-0.15,0.15-0.15V5.92c0-0.15-0.15-0.15-0.15-0.15h-2.14l2.14-1.56c0,0,0.15-0.09,0.15-0.3V3.13
	c0-0.16-0.15-0.15-0.15-0.15H7.63C7.45,2.45,7.15,1.46,7.02,1.07C6.77,0.31,6.13,0,5.59,0c-0.57,0-1.2,0.34-1.43,1.05
	c-0.12,0.38-0.44,1.4-0.62,1.93c-0.26,0-2.04,0-2.06,0c-0.62,0-1.21,0.38-1.42,1.03c-0.19,0.6,0.01,1.28,0.51,1.64
	c0.26,0.19,1.31,0.95,1.69,1.23C2.13,7.33,1.71,8.6,1.61,8.9c-0.19,0.59,0.11,1.28,0.56,1.6c0.51,0.35,1.22,0.39,1.7,0.04
	C4.14,10.35,5.2,9.57,5.59,9.3c0.4,0.29,1.4,1.02,1.68,1.23c0.54,0.39,1.28,0.32,1.73-0.02c0.46-0.35,0.74-1.02,0.57-1.55
	c-0.09-0.26-0.84-2.56-0.91-2.8C8.54,5.75,8.87,5.51,8.87,5.51S8.1,6.07,7.91,6.2C7.78,6.3,7.59,6.53,7.71,6.85
	c0.02,0.07,0.59,1.83,0.75,2.32c0.07,0.21-0.03,0.34-0.12,0.41c-0.1,0.08-0.29,0.1-0.42,0.01C7.81,9.5,5.59,7.89,5.59,7.89
	S3.7,9.27,3.27,9.57c-0.1,0.08-0.28,0.11-0.42,0C2.7,9.47,2.68,9.3,2.72,9.17C2.87,8.7,3.6,6.45,3.6,6.45s-1.94-1.4-2.33-1.69
	C1.19,4.7,1.1,4.53,1.16,4.37C1.2,4.23,1.32,4.12,1.5,4.12h2.85c0,0,0.72-2.19,0.9-2.73c0.05-0.13,0.17-0.25,0.34-0.25
	c0.15,0,0.29,0.1,0.34,0.24c0.18,0.56,0.9,2.74,0.9,2.74l3.95,0L9.15,5.3C9.15,5.3,8.91,5.47,9.01,5.77 M13.49,8.13
	c0-0.2-0.17-0.33-0.33-0.33c-0.17,0-0.34,0.13-0.34,0.33v0.66c0,0.18,0.15,0.33,0.34,0.33c0.19,0,0.33-0.16,0.33-0.33L13.49,8.13z
	 M13.16,7.27c0.52,0,1,0.42,1,1v0.37c0,0.49-0.38,1-1,1c-0.64,0-1-0.54-1-1V8.27C12.15,7.67,12.65,7.27,13.16,7.27 M19,7.27h-0.5
	c-0.04,0-0.08,0.04-0.08,0.08v2.21c0,0.04,0.04,0.08,0.08,0.08H19c0.04,0,0.08-0.04,0.08-0.08V7.35C19.08,7.31,19.04,7.27,19,7.27
	 M17.54,9.78h-0.51c-0.04,0-0.08,0.04-0.08,0.08v0.2c0,0.04,0.04,0.08,0.08,0.08h0.51c0.04,0,0.08-0.04,0.08-0.08v-0.2
	C17.62,9.81,17.58,9.78,17.54,9.78 M15.62,8.13c0-0.19-0.16-0.33-0.33-0.33c-0.19,0-0.33,0.16-0.33,0.33v0.66
	c0,0.18,0.15,0.33,0.33,0.33c0.2,0,0.33-0.17,0.33-0.33V8.13z M15.29,7.27c0.56,0,1,0.45,1,1v0.37c0,0.52-0.41,0.99-1,1
	c-0.13,0-0.23-0.03-0.33-0.06v0.47c0,0.04-0.04,0.08-0.08,0.08h-0.5c-0.05,0-0.08-0.04-0.08-0.08V8.27
	C14.29,7.78,14.69,7.27,15.29,7.27 M18.17,4.57c0-0.4-0.33-0.67-0.67-0.67c-0.34,0-0.67,0.27-0.67,0.67H18.17z M17.49,2.98
	c1.08,0,1.81,0.85,1.81,1.76l0,0.34c0,0.1-0.06,0.15-0.15,0.15h-2.33c0,0.38,0.3,0.68,0.67,0.68h1.48c0.07,0,0.12,0.03,0.12,0.1
	v0.44c0,0.11-0.02,0.15-0.14,0.18c-0.42,0.11-0.86,0.18-1.45,0.18c-0.9,0-1.8-0.71-1.8-1.71v-0.4C15.69,3.93,16.34,2.98,17.49,2.98
	 M18.2,7.27h-1.83c-0.04,0-0.08,0.03-0.08,0.08v0.37c0,0.05,0.04,0.08,0.08,0.08h0.59v1.76c0,0.05,0.04,0.08,0.08,0.08h0.51
	c0.04,0,0.08-0.04,0.08-0.08V7.8h0.58c0.05,0,0.08-0.03,0.08-0.08V7.35C18.28,7.31,18.25,7.27,18.2,7.27"/>
</svg>
