<!-- Generator: Adobe Illustrator 19.2.1, SVG Export Plug-In  -->
<svg version="1.1"
	 xmlns="http://www.w3.org/2000/svg" xmlns:xlink="http://www.w3.org/1999/xlink" xmlns:a="http://ns.adobe.com/AdobeSVGViewerExtensions/3.0/"
	 x="0px" y="0px" width="21px" height="16px" viewBox="0 0 21 16" style="enable-background:new 0 0 21 16;" xml:space="preserve">
<path stroke="#000" fill="none" d="M7.5,0.5l-1.8,2H2.5c-1.1,0-2,0.9-2,2v9c0,1.1,0.9,2,2,2h16c1.1,0,2-0.9,2-2v-9c0-1.1-0.9-2-2-2h-3.2l-1.8-2
	H7.5z M10.5,11.9c-1.9,0-3.4-1.5-3.4-3.4s1.5-3.4,3.4-3.4s3.4,1.5,3.4,3.4S12.4,11.9,10.5,11.9z"/>
</svg>
