<?xml version="1.0" encoding="utf-8"?>
<!-- Generator: Adobe Illustrator 21.0.0, SVG Export Plug-In . SVG Version: 6.00 Build 0)  -->
<svg version="1.1" id="Layer_1" xmlns="http://www.w3.org/2000/svg" xmlns:xlink="http://www.w3.org/1999/xlink" x="0px" y="0px"
	 viewBox="0 0 266.9 266.9" style="enable-background:new 0 0 266.9 266.9;" xml:space="preserve">
<style type="text/css">
	.st0{fill:#777777;}
</style>
<path class="st0" d="M239,39.5v187.8c0,6.4-5.2,11.7-11.6,11.7h-53.8v-81.8H201l4.1-31.9h-31.5v-20.3c0-9.2,2.6-15.5,15.8-15.5
	l16.9,0V61c-2.9-0.4-12.9-1.3-24.6-1.3c-24.3,0-41,14.9-41,42.1v23.5h-27.5v31.9h27.5V239H39.5c-6.4,0-11.6-5.2-11.6-11.7V39.5
	c0-6.4,5.2-11.6,11.6-11.6h187.8C233.8,27.9,239,33.1,239,39.5z"/>
</svg>
