<?xml version="1.0" encoding="utf-8"?>
<!-- Generator: Adobe Illustrator 21.0.0, SVG Export Plug-In . SVG Version: 6.00 Build 0)  -->
<svg version="1.1" id="Layer_1" xmlns="http://www.w3.org/2000/svg" xmlns:xlink="http://www.w3.org/1999/xlink" x="0px" y="0px"
	 viewBox="0 0 113.4 113.4" style="enable-background:new 0 0 113.4 113.4;" xml:space="preserve">
<style type="text/css">
	.st0{fill:none;}
	.st1{fill:#777777;}
</style>
<rect class="st0" width="113.4" height="113.4"/>
<path class="st1" d="M90.2,13H23.1C17.5,13,13,17.5,13,23.1v67c0,5.6,4.5,10.1,10.1,10.1h67c5.5,0,10.1-4.5,10.2-10V23.1
	C100.3,17.5,95.7,13,90.2,13z M56.6,39.8c9.2,0,16.8,7.5,16.8,16.8c0,9.3-7.5,16.8-16.8,16.8c-9.3,0-16.8-7.5-16.8-16.8
	C39.8,47.3,47.4,39.8,56.6,39.8z M90.1,86.8c0,1.8-1.5,3.3-3.4,3.3H26.3c-1.8,0-3.4-1.5-3.4-3.3V49.9h7.6c-0.5,2.2-0.8,4.4-0.8,6.7
	c0,14.8,12,26.8,26.8,26.8s26.8-12,26.8-26.8c0-2.3-0.3-4.5-0.8-6.7h7.6V86.8z M90.2,36.5c0,1.8-1.5,3.4-3.4,3.4H76.7
	c-1.9,0-3.4-1.5-3.4-3.4V26.4c0-1.8,1.5-3.4,3.4-3.4h10c1.8,0,3.4,1.5,3.4,3.4h0.1V36.5z"/>
</svg>
