<!-- Generator: Adobe Illustrator 18.1.1, SVG Export Plug-In  -->
<svg version="1.1"
	 xmlns="http://www.w3.org/2000/svg" xmlns:xlink="http://www.w3.org/1999/xlink" xmlns:a="http://ns.adobe.com/AdobeSVGViewerExtensions/3.0/"
	 x="0px" y="0px" width="211px" height="115px" viewBox="0 0 211 115" enable-background="new 0 0 211 115" xml:space="preserve">
<defs>
</defs>
<g>
	<path fill-rule="evenodd" clip-rule="evenodd" fill="#FFFFFF" d="M61.04,58.2c-2.04,2.04-4.32,3.55-6.84,4.55
		c-2.53,0.99-5.12,1.49-7.8,1.49c-2.67,0-5.27-0.49-7.79-1.49c-2.53-1-4.81-2.51-6.84-4.55c-2.04-2.03-3.56-4.31-4.55-6.83
		c-1-2.52-1.5-5.11-1.5-7.78c0-2.67,0.5-5.27,1.5-7.79c0.99-2.52,2.51-4.8,4.55-6.83c2.03-2.04,4.31-3.55,6.84-4.55
		c2.52-0.99,5.12-1.49,7.79-1.49c2.68,0,5.27,0.5,7.8,1.49c2.52,1,4.8,2.51,6.84,4.55c2.03,2.03,3.55,4.31,4.54,6.83
		c1,2.52,1.5,5.12,1.5,7.79c0,2.67-0.5,5.26-1.49,7.78C64.59,53.89,63.07,56.17,61.04,58.2z M30.11,59.86
		c2.25,2.24,4.78,3.93,7.61,5.05c2.82,1.12,5.71,1.68,8.68,1.68s5.87-0.56,8.69-1.68c2.82-1.12,5.35-2.81,7.6-5.05
		c2.25-2.25,3.94-4.78,5.06-7.6c1.12-2.82,1.69-5.71,1.69-8.67c-0.01-2.97-0.57-5.86-1.69-8.68c-1.12-2.82-2.81-5.35-5.06-7.6
		c-2.25-2.24-4.78-3.93-7.6-5.05c-2.82-1.12-5.72-1.68-8.69-1.69c-2.97,0.01-5.86,0.57-8.68,1.69c-2.82,1.12-5.36,2.81-7.61,5.05
		c-2.25,2.25-3.93,4.78-5.06,7.6c-1.12,2.82-1.68,5.71-1.68,8.68c0,2.96,0.56,5.86,1.68,8.67C26.18,55.08,27.86,57.61,30.11,59.86z
		 M90.21,113.35L63.92,87.08l30.24,5.61l-5.68-30.14l26.28,26.26l1.66-1.65L87.08,57.84l-1.66,1.66l5.88,30.33l-30.43-5.8
		l-1.66,1.65L88.55,115L90.21,113.35z M133.94,33.13l-1.53-1.53l-17.1,17.08l-13.93-13.92l13.54-13.53l-1.52-1.53L99.85,33.24
		L86.11,19.51L103.2,2.43l-1.52-1.53L82.93,19.64l32.25,32.22L133.94,33.13z M154.52,49.59c0.6,0.55,1.01,1.33,0.98,1.9
		c-0.02,0.3-0.14,0.52-0.4,0.72c-0.53,0.39-1.01,0.49-1.46,0.29c-0.72-0.31-1.28-1.26-1.4-2.37c-0.07-0.68-0.07-1.34,0.01-1.99
		C153.22,48.6,154,49.11,154.52,49.59z M39.51,81.14c-4,1.02-7.85,2.25-11.78,3.94c-7.65,3.28-9.74,6.91-10.31,8.78
		c-0.38,1.23-0.3,2.38,0.21,3.17c1.42,2.19,6.45,2.23,9.29,1.3c6.82-2.24,11.1-6.38,12.71-12.31C40.04,84.52,40.1,82.76,39.51,81.14
		z M23.04,101.37c-3,0-6.08-0.83-7.49-3c-0.9-1.39-1.09-3.3-0.5-5.23c0.69-2.28,3.14-6.66,11.7-10.33c3.8-1.63,7.58-2.86,11.44-3.88
		c-0.5-0.55-1.12-1.05-1.88-1.48c-2.78-1.57-7.49-1.99-15.28-1.38C15.84,76.48,11.9,76.4,9,75.83c-3.42-0.67-6.16-2.53-7.71-5.22
		c-1.44-2.5-1.68-5.47-0.68-8.37c2.08-6.01,7.45-9.01,7.67-9.13l1.2,2.16c-0.05,0.03-4.77,2.69-6.53,7.78
		c-0.77,2.21-0.6,4.45,0.48,6.33c1.19,2.06,3.34,3.49,6.04,4.02c2.69,0.53,6.41,0.59,11.37,0.2c8.42-0.66,13.41-0.15,16.69,1.7
		c1.36,0.76,2.46,1.78,3.27,2.98c4.34-1.03,8.83-1.86,13.63-2.74l0.3-0.05c17.56-3.23,20.21-11.15,23.03-19.53
		c1.01-3.02,1.42-5.58,1.78-7.84c0.28-1.74,0.52-3.24,0.99-4.56c1.21-3.47,5.1-5.43,8.67-4.36c2.57,0.77,5.16,2.94,7.47,6.29
		c2.06,2.97,3.6,5.94,4.97,8.55c2.46,4.75,4.42,8.49,8.11,10.25c3.16,1.51,6.38,1.13,9.08-1.07c1.4-1.15,2.98-3.16,4.81-5.49
		c3.39-4.32,7.6-9.68,12.97-12.08c4.93-2.19,10.06-1.97,14.01-0.79c0.36-0.83,0.83-1.67,1.41-2.52c1.69-2.48,3.49-4.58,5.34-6.7
		c1.69-1.94,2.78-3.56,3.33-4.94c0.62-1.57,0.46-4.18-1.06-5.92c-2.43-2.77-5.87-3.64-12.72-3.2l-1.97,0.14
		c-6.77,0.48-14.44,1.03-17.47-3.14c-2.68-3.68-2.35-8.38,0.9-12.89c2.26-3.14,5.61-5.56,5.76-5.69l2.22,1.26
		c-0.03,0.03-3.89,2.98-5.97,5.87c-1.52,2.11-3.66,6.22-0.91,9.99c2.22,3.06,9.47,2.55,15.3,2.13l1.98-0.14
		c6.37-0.41,11.31,0.12,14.74,4.05c2.29,2.62,2.38,6.22,1.5,8.45c-0.65,1.65-1.88,3.5-3.77,5.66c-1.87,2.13-3.54,4.09-5.15,6.46
		c-0.47,0.68-0.85,1.34-1.14,2c1.35,0.6,2.46,1.31,3.25,2.03c1.16,1.06,1.84,2.54,1.78,3.85c-0.05,1.04-0.53,1.93-1.39,2.57
		c-1.24,0.94-2.64,1.15-3.93,0.59c-1.55-0.68-2.65-2.35-2.87-4.38c-0.12-1.08-0.08-2.13,0.11-3.16c-3.35-1.01-7.86-1.29-12.27,0.68
		c-4.81,2.15-8.82,7.24-12.03,11.34c-1.92,2.45-3.58,4.56-5.2,5.88c-3.42,2.81-7.69,3.31-11.71,1.39
		c-4.44-2.12-6.66-6.39-9.24-11.33c-1.39-2.68-2.83-5.45-4.8-8.3c-1.99-2.87-4.12-4.72-6.15-5.33c-2.32-0.69-4.85,0.57-5.63,2.81
		c-0.39,1.12-0.61,2.52-0.88,4.15c-0.36,2.23-0.8,5.02-1.88,8.22c-2.78,8.29-5.93,17.69-24.92,21.18l-0.3,0.05
		c-4.69,0.86-8.93,1.64-12.96,2.58c0.63,1.87,0.68,3.97,0.1,6.12c-1.82,6.68-6.77,11.53-14.33,14.01
		C26.37,101.11,24.72,101.37,23.04,101.37z"/>
	<path fill="#DEDA00" d="M140.34,86.6v0.02c0,1.47-1,2.48-2.5,2.48h-1.41v-5h1.41C139.34,84.1,140.34,85.13,140.34,86.6z
		 M190.78,84.1h-1.82v2.38h1.85c0.89,0,1.4-0.48,1.4-1.17v-0.03C192.21,84.5,191.67,84.1,190.78,84.1z M203.96,82.45h-2.08
		l-2.01,3.33l-1.98-3.33h-2.14l3.19,5.02v3.28h1.83v-3.31L203.96,82.45z M194.31,90.75l-2.03-2.97c1.06-0.39,1.78-1.23,1.78-2.57
		v-0.02c0-0.79-0.24-1.44-0.71-1.9c-0.54-0.55-1.36-0.84-2.42-0.84h-3.8v8.3h1.83v-2.66h1.44l1.78,2.66H194.31z M184.32,89.12h-4.51
		v-1.74h3.92v-1.62h-3.92v-1.69h4.45v-1.62H178v8.3h6.32V89.12z M175.53,82.45h-1.97l-2.17,5.84l-2.17-5.84h-2.02l3.36,8.36h1.61
		L175.53,82.45z M164.65,82.45h-1.83v8.3h1.83V82.45z M160.17,89.09h-4.14v-6.64h-1.83v8.3h5.97V89.09z M151.39,89.12h-4.51v-1.74
		h3.92v-1.62h-3.92v-1.69h4.45v-1.62h-6.26v8.3h6.32V89.12z M142.25,86.57c0-2.33-1.8-4.12-4.41-4.12h-3.24v8.3h3.24
		c2.61,0,4.41-1.82,4.41-4.15V86.57z M211,76v21.25h-83.44V76H211z"/>
</g>
</svg>
