<!-- Generator: Adobe Illustrator 18.1.1, SVG Export Plug-In  -->
<svg version="1.1"
	 xmlns="http://www.w3.org/2000/svg" xmlns:xlink="http://www.w3.org/1999/xlink" xmlns:a="http://ns.adobe.com/AdobeSVGViewerExtensions/3.0/"
	 x="0px" y="0px" width="246px" height="134px" viewBox="0 0 246 134" enable-background="new 0 0 246 134" xml:space="preserve">
<defs>
</defs>
<path fill="none" d="z"/>
<g>
	<rect x="152" y="90" fill="#D6DC21" width="88" height="20"/>
	<g>
		<g>
			<path fill="#06244B" d="M35.11,69.75c2.62,2.62,5.58,4.58,8.87,5.89c3.29,1.31,6.66,1.96,10.13,1.96c3.46,0,6.84-0.65,10.13-1.96
				c3.29-1.31,6.24-3.27,8.86-5.89c2.62-2.62,4.59-5.57,5.9-8.85c1.31-3.28,1.97-6.65,1.97-10.11c0-3.45-0.66-6.82-1.97-10.11
				c-1.31-3.28-3.28-6.23-5.9-8.85c-2.62-2.62-5.58-4.58-8.87-5.89c-3.29-1.31-6.67-1.96-10.13-1.96c-3.46,0-6.84,0.66-10.13,1.96
				c-3.29,1.31-6.24,3.27-8.86,5.89c-2.62,2.62-4.58,5.57-5.9,8.85c-1.31,3.28-1.97,6.65-1.97,10.11c0,3.46,0.66,6.83,1.97,10.11
				C30.52,64.18,32.49,67.13,35.11,69.75z M71.16,67.82c-2.37,2.37-5.03,4.14-7.97,5.29c-2.94,1.16-5.97,1.74-9.09,1.74
				c-3.12,0-6.15-0.58-9.09-1.74c-2.94-1.16-5.6-2.92-7.97-5.29c-2.37-2.37-4.14-5.02-5.3-7.96c-1.16-2.94-1.74-5.96-1.74-9.07
				c0-3.11,0.58-6.14,1.74-9.07c1.16-2.94,2.93-5.59,5.3-7.96c2.37-2.37,5.03-4.14,7.98-5.3c2.94-1.16,5.97-1.74,9.09-1.74
				c3.12,0,6.15,0.58,9.09,1.74c2.94,1.16,5.6,2.93,7.97,5.3c2.37,2.37,4.14,5.02,5.3,7.96c1.16,2.94,1.75,5.96,1.75,9.07
				c0,3.11-0.58,6.14-1.74,9.07C75.3,62.8,73.54,65.45,71.16,67.82z"/>
			<path fill="#06244B" d="M105.17,132.07l-30.65-30.6l35.26,6.54l-6.63-35.13l30.65,30.6l1.93-1.93L101.52,67.4l-1.93,1.93
				l6.85,35.35l-35.48-6.76l-1.93,1.93L103.24,134L105.17,132.07z"/>
			<path fill="#06244B" d="M156.15,38.6l-1.78-1.78l-19.94,19.9l-16.24-16.22l15.79-15.77l-1.78-1.78l-15.79,15.77l-16.02-16
				l19.93-19.9l-1.78-1.78L96.68,22.88l37.61,37.55L156.15,38.6z"/>
		</g>
		<path fill="#06244B" d="M26.86,118.12c-3.49,0-7.08-0.97-8.72-3.49c-1.06-1.63-1.27-3.85-0.59-6.1
			c0.81-2.66,3.66-7.76,13.64-12.04c4.43-1.9,8.83-3.33,13.34-4.51c-0.58-0.64-1.31-1.23-2.19-1.73c-3.24-1.83-8.74-2.33-17.81-1.61
			c-6.05,0.47-10.64,0.38-14.04-0.28c-3.99-0.78-7.18-2.94-8.99-6.08c-1.68-2.91-1.96-6.37-0.79-9.75c2.43-7,8.68-10.5,8.95-10.65
			l1.39,2.52C11,64.43,5.5,67.54,3.44,73.47C2.54,76.04,2.74,78.66,4,80.84c1.39,2.41,3.89,4.07,7.04,4.69
			c3.13,0.61,7.47,0.69,13.25,0.24c9.81-0.77,15.63-0.18,19.46,1.97c1.58,0.89,2.87,2.08,3.81,3.48c5.06-1.2,10.3-2.16,15.89-3.19
			l0.35-0.06C84.28,84.2,87.38,74.97,90.65,65.2c1.18-3.51,1.66-6.49,2.08-9.13c0.33-2.03,0.61-3.78,1.15-5.32
			c1.41-4.05,5.95-6.33,10.11-5.09c3.01,0.9,6.02,3.43,8.72,7.33c2.4,3.46,4.2,6.92,5.79,9.97c2.88,5.52,5.15,9.89,9.46,11.94
			c3.69,1.76,7.44,1.31,10.58-1.25c1.64-1.34,3.48-3.69,5.61-6.4c3.95-5.02,8.86-11.28,15.12-14.07c5.74-2.56,11.73-2.3,16.33-0.92
			c0.42-0.97,0.96-1.95,1.64-2.94c1.96-2.88,4.06-5.34,6.22-7.8c1.98-2.26,3.25-4.14,3.88-5.75c0.72-1.83,0.53-4.87-1.24-6.9
			c-2.82-3.23-6.84-4.24-14.82-3.73c-0.75,0.05-1.52,0.1-2.3,0.16c-7.89,0.56-16.84,1.2-20.37-3.65c-3.12-4.29-2.74-9.76,1.06-15.02
			c2.63-3.65,6.53-6.48,6.71-6.62l2.59,1.47c-0.04,0.03-4.54,3.47-6.96,6.84c-1.77,2.46-4.27,7.24-1.06,11.65
			c2.6,3.57,11.05,2.96,17.84,2.48c0.79-0.06,1.57-0.11,2.32-0.16c7.42-0.48,13.19,0.14,17.18,4.71c2.67,3.05,2.78,7.25,1.75,9.85
			c-0.76,1.92-2.2,4.08-4.4,6.59c-2.18,2.49-4.13,4.77-6.01,7.53c-0.54,0.8-0.98,1.57-1.32,2.33c1.57,0.71,2.86,1.53,3.79,2.38
			c1.35,1.23,2.15,2.95,2.07,4.48c-0.06,1.21-0.62,2.25-1.62,3c-1.45,1.09-3.08,1.33-4.58,0.68c-1.81-0.79-3.1-2.74-3.35-5.1
			c-0.14-1.26-0.09-2.48,0.13-3.68c-3.91-1.18-9.16-1.5-14.31,0.79c-5.61,2.5-10.28,8.44-14.03,13.21
			c-2.24,2.85-4.17,5.31-6.06,6.85c-4,3.27-8.97,3.86-13.66,1.62c-5.18-2.47-7.77-7.45-10.77-13.21c-1.62-3.12-3.31-6.35-5.6-9.66
			c-2.32-3.35-4.8-5.5-7.17-6.21c-2.71-0.81-5.65,0.66-6.56,3.27c-0.45,1.3-0.72,2.93-1.02,4.83c-0.42,2.61-0.94,5.85-2.2,9.59
			c-3.24,9.66-6.91,20.61-29.05,24.67l-0.35,0.06c-5.46,1-10.4,1.91-15.11,3c0.73,2.17,0.8,4.63,0.12,7.13
			c-2.12,7.79-7.9,13.44-16.7,16.33C30.75,117.82,28.82,118.12,26.86,118.12z M46.07,94.54c-4.67,1.19-9.15,2.62-13.74,4.59
			c-8.91,3.82-11.36,8.05-12.02,10.23c-0.44,1.43-0.35,2.78,0.25,3.69c1.66,2.55,7.52,2.6,10.83,1.51
			c7.95-2.61,12.94-7.44,14.82-14.34C46.68,98.48,46.75,96.44,46.07,94.54z M177.51,56.09c-0.1,0.76-0.1,1.52-0.02,2.32
			c0.14,1.29,0.79,2.4,1.63,2.77c0.53,0.23,1.09,0.12,1.7-0.34c0.31-0.23,0.45-0.49,0.47-0.83c0.03-0.67-0.44-1.58-1.14-2.22
			C179.54,57.22,178.64,56.63,177.51,56.09z"/>
	</g>
	<g>
		<path fill="#06244B" d="M160.7,97.99h-1.65v5.83h1.65c1.74,0,2.92-1.17,2.92-2.89v-0.03C163.62,99.19,162.45,97.99,160.7,97.99z"
			/>
		<path fill="#06244B" d="M222.42,97.99h-2.12v2.78h2.16c1.04,0,1.63-0.55,1.63-1.37v-0.03C224.1,98.46,223.46,97.99,222.42,97.99z"
			/>
		<path fill="#06244B" d="M148.72,88.56v24.76H246V88.56H148.72z M165.85,100.9c0,2.72-2.1,4.83-5.15,4.83h-3.78v-9.67h3.78
			c3.04,0,5.15,2.09,5.15,4.81V100.9z M176.5,105.74h-7.37v-9.67h7.3v1.89h-5.19v1.96h4.57v1.89h-4.57v2.03h5.26V105.74z
			 M186.74,105.74h-6.96v-9.67h2.13v7.73h4.83V105.74z M191.96,105.74h-2.13v-9.67h2.13V105.74z M200.73,105.81h-1.88l-3.91-9.74
			h2.35l2.53,6.81l2.53-6.81h2.3L200.73,105.81z M214.9,105.74h-7.37v-9.67h7.3v1.89h-5.19v1.96h4.57v1.89h-4.57v2.03h5.26V105.74z
			 M224.06,105.74l-2.08-3.09h-1.67v3.09h-2.13v-9.67h4.43c1.23,0,2.19,0.34,2.82,0.98c0.54,0.54,0.83,1.3,0.83,2.21v0.03
			c0,1.56-0.84,2.54-2.08,3l2.37,3.45H224.06z M234.07,101.89v3.85h-2.13v-3.81l-3.72-5.86h2.49l2.31,3.88l2.35-3.88h2.42
			L234.07,101.89z"/>
	</g>
</g>
<path fill="none" d="z"/>
</svg>
