<?xml version="1.0" encoding="utf-8"?>
<!-- Generator: Adobe Illustrator 21.0.0, SVG Export Plug-In . SVG Version: 6.00 Build 0)  -->
<svg version="1.1" id="Layer_1" xmlns="http://www.w3.org/2000/svg" xmlns:xlink="http://www.w3.org/1999/xlink" x="0px" y="0px"
	 viewBox="0 0 211 115" style="enable-background:new 0 0 211 115;" xml:space="preserve">
<style type="text/css">
	.st0{fill:#FFFFFF;}
	.st1{fill:#FFFF00;}
</style>
<g>
	<path class="st0" d="M61,58.2c-2,2-4.3,3.5-6.8,4.5c-2.5,1-5.1,1.5-7.8,1.5c-2.7,0-5.3-0.5-7.8-1.5c-2.5-1-4.8-2.5-6.8-4.5
		c-2-2-3.6-4.3-4.5-6.8c-1-2.5-1.5-5.1-1.5-7.8s0.5-5.3,1.5-7.8c1-2.5,2.5-4.8,4.5-6.8c2-2,4.3-3.5,6.8-4.6c2.5-1,5.1-1.5,7.8-1.5
		c2.7,0,5.3,0.5,7.8,1.5c2.5,1,4.8,2.5,6.8,4.5c2,2,3.6,4.3,4.5,6.8c1,2.5,1.5,5.1,1.5,7.8c0,2.7-0.5,5.3-1.5,7.8
		C64.6,53.9,63.1,56.2,61,58.2z M30.1,59.9c2.2,2.2,4.8,3.9,7.6,5.1c2.8,1.1,5.7,1.7,8.7,1.7s5.9-0.6,8.7-1.7c2.8-1.1,5.3-2.8,7.6-5
		c2.3-2.2,3.9-4.8,5.1-7.6s1.7-5.7,1.7-8.7c0-3-0.6-5.9-1.7-8.7s-2.8-5.4-5.1-7.6c-2.2-2.2-4.8-3.9-7.6-5.1s-5.7-1.7-8.7-1.7
		c-3,0-5.9,0.6-8.7,1.7s-5.4,2.8-7.6,5c-2.2,2.2-3.9,4.8-5.1,7.6c-1.1,2.8-1.7,5.7-1.7,8.7c0,3,0.6,5.9,1.7,8.7
		C26.2,55.1,27.9,57.6,30.1,59.9z M90.2,113.3L63.9,87.1l30.2,5.6l-5.7-30.1l26.3,26.3l1.7-1.7L87.1,57.8l-1.7,1.7l5.9,30.3L60.9,84
		l-1.7,1.7L88.6,115L90.2,113.3z M133.9,33.1l-1.5-1.5l-17.1,17.1l-13.9-13.9l13.5-13.5l-1.5-1.5L99.8,33.2L86.1,19.5l17.1-17.1
		l-1.5-1.5L82.9,19.6l32.2,32.2L133.9,33.1z M154.5,49.6c0.6,0.5,1,1.3,1,1.9c0,0.3-0.1,0.5-0.4,0.7c-0.5,0.4-1,0.5-1.5,0.3
		c-0.7-0.3-1.3-1.3-1.4-2.4c-0.1-0.7-0.1-1.3,0-2C153.2,48.6,154,49.1,154.5,49.6z M39.5,81.1c-4,1-7.9,2.2-11.8,3.9
		c-7.6,3.3-9.7,6.9-10.3,8.8c-0.4,1.2-0.3,2.4,0.2,3.2c1.4,2.2,6.5,2.2,9.3,1.3C33.7,96.1,38,92,39.6,86
		C40,84.5,40.1,82.8,39.5,81.1z M23,101.4c-3,0-6.1-0.8-7.5-3c-0.9-1.4-1.1-3.3-0.5-5.2c0.7-2.3,3.1-6.7,11.7-10.3
		c3.8-1.6,7.6-2.9,11.4-3.9c-0.5-0.6-1.1-1.1-1.9-1.5c-2.8-1.6-7.5-2-15.3-1.4c-5.2,0.4-9.1,0.3-12-0.2c-3.4-0.7-6.2-2.5-7.7-5.2
		c-1.4-2.5-1.7-5.5-0.7-8.4c2.1-6,7.4-9,7.7-9.1l1.2,2.2c-0.1,0-4.8,2.7-6.5,7.8c-0.8,2.2-0.6,4.5,0.5,6.3c1.2,2.1,3.3,3.5,6,4
		c2.7,0.5,6.4,0.6,11.4,0.2c8.4-0.7,13.4-0.2,16.7,1.7c1.4,0.8,2.5,1.8,3.3,3c4.3-1,8.8-1.9,13.6-2.7l0.3-0.1
		c17.6-3.2,20.2-11.2,23-19.5c1-3,1.4-5.6,1.8-7.8c0.3-1.7,0.5-3.2,1-4.6c1.2-3.5,5.1-5.4,8.7-4.4c2.6,0.8,5.2,2.9,7.5,6.3
		c2.1,3,3.6,5.9,5,8.5c2.5,4.8,4.4,8.5,8.1,10.3c3.2,1.5,6.4,1.1,9.1-1.1c1.4-1.2,3-3.2,4.8-5.5c3.4-4.3,7.6-9.7,13-12.1
		c4.9-2.2,10.1-2,14-0.8c0.4-0.8,0.8-1.7,1.4-2.5c1.7-2.5,3.5-4.6,5.3-6.7c1.7-1.9,2.8-3.6,3.3-4.9c0.6-1.6,0.5-4.2-1.1-5.9
		c-2.4-2.8-5.9-3.6-12.7-3.2l-2,0.1c-6.8,0.5-14.4,1-17.5-3.1c-2.7-3.7-2.3-8.4,0.9-12.9c2.3-3.1,5.6-5.6,5.8-5.7l2.2,1.3
		c0,0-3.9,3-6,5.9c-1.5,2.1-3.7,6.2-0.9,10c2.2,3.1,9.5,2.5,15.3,2.1l2-0.1c6.4-0.4,11.3,0.1,14.7,4c2.3,2.6,2.4,6.2,1.5,8.5
		c-0.6,1.7-1.9,3.5-3.8,5.7c-1.9,2.1-3.5,4.1-5.1,6.5c-0.5,0.7-0.9,1.3-1.1,2c1.4,0.6,2.5,1.3,3.2,2c1.2,1.1,1.8,2.5,1.8,3.8
		c-0.1,1-0.5,1.9-1.4,2.6c-1.2,0.9-2.6,1.2-3.9,0.6c-1.6-0.7-2.6-2.3-2.9-4.4c-0.1-1.1-0.1-2.1,0.1-3.2c-3.4-1-7.9-1.3-12.3,0.7
		c-4.8,2.2-8.8,7.2-12,11.3c-1.9,2.5-3.6,4.6-5.2,5.9c-3.4,2.8-7.7,3.3-11.7,1.4c-4.4-2.1-6.7-6.4-9.2-11.3
		c-1.4-2.7-2.8-5.5-4.8-8.3c-2-2.9-4.1-4.7-6.2-5.3c-2.3-0.7-4.8,0.6-5.6,2.8c-0.4,1.1-0.6,2.5-0.9,4.2c-0.4,2.2-0.8,5-1.9,8.2
		c-2.8,8.3-5.9,17.7-24.9,21.2L54.9,78c-4.7,0.9-8.9,1.6-13,2.6c0.6,1.9,0.7,4,0.1,6.1c-1.8,6.7-6.8,11.5-14.3,14
		C26.4,101.1,24.7,101.4,23,101.4z"/>
	<path class="st1" d="M140.3,86.6L140.3,86.6c0,1.5-1,2.5-2.5,2.5h-1.4v-5h1.4C139.3,84.1,140.3,85.1,140.3,86.6z M190.8,84.1H189
		v2.4h1.9c0.9,0,1.4-0.5,1.4-1.2v0C192.2,84.5,191.7,84.1,190.8,84.1z M204,82.4h-2.1l-2,3.3l-2-3.3h-2.1l3.2,5v3.3h1.8v-3.3
		L204,82.4z M194.3,90.8l-2-3c1.1-0.4,1.8-1.2,1.8-2.6v0c0-0.8-0.2-1.4-0.7-1.9c-0.5-0.6-1.4-0.8-2.4-0.8h-3.8v8.3h1.8v-2.7h1.4
		l1.8,2.7C192.2,90.8,194.3,90.8,194.3,90.8z M184.3,89.1h-4.5v-1.7h3.9v-1.6h-3.9v-1.7h4.4v-1.6H178v8.3h6.3V89.1z M175.5,82.4h-2
		l-2.2,5.8l-2.2-5.8h-2l3.4,8.4h1.6L175.5,82.4z M164.6,82.4h-1.8v8.3h1.8V82.4z M160.2,89.1H156v-6.6h-1.8v8.3h6V89.1z M151.4,89.1
		h-4.5v-1.7h3.9v-1.6h-3.9v-1.7h4.4v-1.6h-6.3v8.3h6.3L151.4,89.1L151.4,89.1z M142.2,86.6c0-2.3-1.8-4.1-4.4-4.1h-3.2v8.3h3.2
		C140.4,90.8,142.2,88.9,142.2,86.6L142.2,86.6z M211,76v21.2h-83.4V76H211z"/>
</g>
</svg>
