<?xml version="1.0" encoding="utf-8"?>
<!-- Generator: Adobe Illustrator 21.0.0, SVG Export Plug-In . SVG Version: 6.00 Build 0)  -->
<svg version="1.1" id="Layer_1" xmlns="http://www.w3.org/2000/svg" xmlns:xlink="http://www.w3.org/1999/xlink" x="0px" y="0px"
	 viewBox="0 0 246 134" style="enable-background:new 0 0 246 134;" xml:space="preserve">
<style type="text/css">
	.st0{fill:#F6E500;}
	.st1{fill:#23326b;}
</style>
<rect x="148.7" y="88.6" class="st0" width="97.3" height="24.8"/>
<path class="st1" d="M0,0 M29.2,60.9c-1.3-3.3-2-6.7-2-10.1s0.7-6.8,2-10.1c1.3-3.3,3.3-6.2,5.9-8.9c2.6-2.6,5.6-4.6,8.9-5.9
	c3.3-1.3,6.7-2,10.1-2c3.5,0,6.8,0.7,10.1,2s6.2,3.3,8.9,5.9s4.6,5.6,5.9,8.9c1.3,3.3,2,6.7,2,10.1c0,3.5-0.7,6.8-2,10.1
	s-3.3,6.2-5.9,8.8s-5.6,4.6-8.9,5.9c-3.3,1.3-6.7,2-10.1,2c-3.5,0-6.8-0.7-10.1-2c-3.3-1.3-6.2-3.3-8.9-5.9S30.5,64.2,29.2,60.9z
	 M76.5,59.9c1.2-2.9,1.7-6,1.7-9.1s-0.6-6.1-1.8-9.1s-2.9-5.6-5.3-8c-2.4-2.4-5-4.1-8-5.3s-6-1.7-9.1-1.7S48,27.3,45,28.5
	c-3,1.2-5.6,2.9-8,5.3s-4.1,5-5.3,8c-1.2,2.9-1.7,6-1.7,9.1s0.6,6.1,1.7,9.1s2.9,5.6,5.3,8c2.4,2.4,5,4.1,8,5.3
	c2.9,1.2,6,1.7,9.1,1.7s6.2-0.6,9.1-1.7c2.9-1.2,5.6-2.9,8-5.3C73.5,65.4,75.3,62.8,76.5,59.9z M103.2,134L69,99.8l1.9-1.9l35.5,6.8
	l-6.8-35.3l1.9-1.9l34.2,34.2l-1.9,1.9l-30.7-30.6l6.6,35.1l-35.3-6.5l30.7,30.6L103.2,134z M134.3,60.4L96.7,22.9L118.5,1l1.8,1.8
	l-19.9,19.9l16,16l15.8-15.8l1.8,1.8l-15.8,15.8l16.2,16.2l19.9-19.9l1.8,1.8L134.3,60.4z M32.3,117.3c8.8-2.9,14.6-8.5,16.7-16.3
	c0.7-2.5,0.6-5-0.1-7.1c4.7-1.1,9.7-2,15.1-3l0.3-0.1c22.1-4.1,25.8-15,29.1-24.7c1.3-3.7,1.8-7,2.2-9.6c0.3-1.9,0.6-3.5,1-4.8
	c0.9-2.6,3.8-4.1,6.6-3.3c2.4,0.7,4.8,2.9,7.2,6.2c2.3,3.3,4,6.5,5.6,9.7c3,5.8,5.6,10.7,10.8,13.2c4.7,2.2,9.7,1.6,13.7-1.6
	c1.9-1.5,3.8-4,6.1-6.8c3.8-4.8,8.4-10.7,14-13.2c5.1-2.3,10.4-2,14.3-0.8c-0.2,1.2-0.3,2.4-0.1,3.7c0.2,2.4,1.5,4.3,3.4,5.1
	c1.5,0.7,3.1,0.4,4.6-0.7c1-0.8,1.6-1.8,1.6-3c0.1-1.5-0.7-3.2-2.1-4.5c-0.9-0.9-2.2-1.7-3.8-2.4c0.3-0.8,0.8-1.5,1.3-2.3
	c1.9-2.8,3.8-5,6-7.5c2.2-2.5,3.6-4.7,4.4-6.6c1-2.6,0.9-6.8-1.8-9.9c-4-4.6-9.8-5.2-17.2-4.7c-0.8,0-1.5,0.1-2.3,0.2
	c-6.8,0.5-15.2,1.1-17.8-2.5c-3.2-4.4-0.7-9.2,1.1-11.6c2.4-3.4,6.9-6.8,7-6.8L156.4,0c-0.2,0.1-4.1,3-6.7,6.6
	c-3.8,5.3-4.2,10.7-1.1,15c3.5,4.9,12.5,4.2,20.4,3.6c0.8-0.1,1.6-0.1,2.3-0.2c8-0.5,12,0.5,14.8,3.7c1.8,2,2,5.1,1.2,6.9
	c-0.6,1.6-1.9,3.5-3.9,5.8c-2.2,2.5-4.3,4.9-6.2,7.8c-0.7,1-1.2,2-1.6,2.9c-4.6-1.4-10.6-1.6-16.3,0.9c-6.3,2.8-11.2,9-15.1,14.1
	c-2.1,2.7-4,5.1-5.6,6.4c-3.1,2.6-6.9,3-10.6,1.2c-4.3-2.1-6.6-6.4-9.5-11.9c-1.6-3.1-3.4-6.5-5.8-10c-2.7-3.9-5.7-6.4-8.7-7.3
	c-4.2-1.2-8.7,1-10.1,5.1c-0.5,1.5-0.8,3.3-1.2,5.3c-0.4,2.6-0.9,5.6-2.1,9.1c-3.3,9.8-6.4,19-26.9,22.8L63.5,88
	c-5.6,1-10.8,2-15.9,3.2c-0.9-1.4-2.2-2.6-3.8-3.5c-3.8-2.2-9.6-2.7-19.5-2c-5.8,0.5-10.1,0.4-13.3-0.2c-3.1-0.6-5.7-2.3-7-4.7
	c-1.3-2.2-1.5-4.8-0.6-7.4c2.1-5.9,7.6-9,7.6-9.1l-1.4-2.5C9.4,62,3.1,65.5,0.7,72.5c-1.2,3.4-0.9,6.8,0.8,9.8c1.8,3.1,5,5.3,9,6.1
	c3.4,0.7,8,0.8,14,0.3c9.1-0.7,14.6-0.2,17.8,1.6c0.9,0.5,1.6,1.1,2.2,1.7c-4.5,1.2-8.9,2.6-13.3,4.5c-10,4.3-12.8,9.4-13.6,12
	c-0.7,2.2-0.5,4.5,0.6,6.1c1.6,2.5,5.2,3.5,8.7,3.5C28.8,118.1,30.8,117.8,32.3,117.3z M46.2,100.2c-1.9,6.9-6.9,11.7-14.8,14.3
	c-3.3,1.1-9.2,1-10.8-1.5c-0.6-0.9-0.7-2.3-0.2-3.7c0.7-2.2,3.1-6.4,12-10.2c4.6-2,9.1-3.4,13.7-4.6C46.8,96.4,46.7,98.5,46.2,100.2
	z M180.1,57.8c0.7,0.6,1.2,1.6,1.1,2.2c0,0.3-0.2,0.6-0.5,0.8c-0.6,0.5-1.2,0.6-1.7,0.3c-0.8-0.4-1.5-1.5-1.6-2.8
	c-0.1-0.8-0.1-1.6,0-2.3C178.6,56.6,179.5,57.2,180.1,57.8z M163.6,100.9L163.6,100.9c0,1.8-1.2,2.9-2.9,2.9h-1.6V98h1.6
	C162.4,98,163.6,99.2,163.6,100.9z M224.1,99.4L224.1,99.4c0,0.8-0.6,1.4-1.6,1.4h-2.2V98h2.1C223.5,98,224.1,98.5,224.1,99.4z
	 M246,88.6v24.8h-97.3V88.6H246z M165.9,100.9c0-2.7-2.1-4.8-5.1-4.8h-3.8v9.7h3.8C163.8,105.7,165.9,103.6,165.9,100.9L165.9,100.9
	z M176.5,103.8h-5.3v-2h4.6v-1.9h-4.6v-2h5.2v-1.9h-7.3v9.7h7.4V103.8z M186.7,103.8h-4.8v-7.7h-2.1v9.7h7V103.8z M192,96.1h-2.1
	v9.7h2.1V96.1z M204.6,96.1h-2.3l-2.5,6.8l-2.5-6.8h-2.4l3.9,9.7h1.9L204.6,96.1z M214.9,103.8h-5.3v-2h4.6v-1.9h-4.6v-2h5.2v-1.9
	h-7.3v9.7h7.4V103.8z M226.5,105.7l-2.4-3.4c1.2-0.5,2.1-1.4,2.1-3v0c0-0.9-0.3-1.7-0.8-2.2c-0.6-0.6-1.6-1-2.8-1h-4.4v9.7h2.1v-3.1
	h1.7l2.1,3.1H226.5z M237.8,96.1h-2.4l-2.4,3.9l-2.3-3.9h-2.5l3.7,5.9v3.8h2.1v-3.8L237.8,96.1z M0,0"/>
</svg>
